<svg xmlns="http://www.w3.org/2000/svg" width="492.617" height="263.8" viewBox="0 0 492.617 263.8">
  <g id="art-02" transform="translate(-141.409 -150.46)">
    <path id="Path_22318" data-name="Path 22318" d="M618.261,413.938l-438.346-.132s-.412-.474-1.192-1.386l-.132-.161a164.84,164.84,0,0,1-10.514-14.272h0c-12.238-18.516-29.2-51.3-26.349-87.694a99.772,99.772,0,0,1,7.705-31.444c13.694-32.174,54.547-53.854,91.353-54.291h1.138c13.831,0,27.042,3.036,37.948,9.677a24.308,24.308,0,0,0,7.4,2.78,45.967,45.967,0,0,0,8.175.965c.7.025,1.411.037,2.133.037,24.027,0,61.316-13.653,83.7-46.553,12.242-17.993,31.039-29.777,52.641-35.911q1.51-.427,3.04-.825a133.753,133.753,0,0,1,15.1-2.937c.924-.124,1.852-.243,2.784-.346a149.649,149.649,0,0,1,17.271-.986,164.894,164.894,0,0,1,52.336,8.637q4.426,1.493,8.736,3.242c42.148,17.064,74.936,51.915,72.053,100.58q-.173,2.887-.511,5.837h-3.9V256.518h-.825v12.226H591.8v-6.53h-.5v6.53H587.96v14.066h-6.7v3.518H573.89V280.3H560.653V263.7h-2.009v-1.65h-.338v1.65h-1.675v.169h-8.538v-1.819h-.334V263.9h-2.178v8.2l-11.055-.045v5.069h-9.376V245.467h-2.512V243.12H522.3v2.347h-6.026V243.12h-.334v2.347h-9.38V243.12h-.334v2.347h-6.7V243.12h-.334v2.347H497.35V279.46h-8.543V261.039h-27.8v2.347h-2.347V247l-.342-.2h-2.335v.169h-13.22v-.182h.169V249.3h-.169v1.675h.169v2.512h-.169V255h.169v2.516h-1.506V244.63h-2.013v-1.675h-.165v1.675l-10.885.165v-1.84H428.2v1.84h-1.675v1.675h.157l-.169,2.347h.169v2.174h-.169V253.5h.169v1.675h-.169v2.339h.169v1.506h-.169v2.512h.169v1.51h-.169v2.512h.169v1.506h-.169v1.506h.169v.169h-5.024V256.518h-.672v12.226h-7.367v-6.53h-.5v6.53h-3.18v14.066h-6.187v3.518h-6.707V280.3H384.977V263.7h-1.84v-1.65H382.8v1.65h-1.5v.169h-7.883v-1.819h-.334v1.65H371.08v8.373l-10.048-.045V277.1H352.32V245.467h-2.174V243.12h-.169v2.347H344.45V243.12h-.334v2.347h-8.708V243.12h-.334v2.347h-6.187V243.12h-.165v2.347h-1.864V279.46h-7.693V261.039H293.706v21.606H280.981v27.719L278.02,412.432h23.1a4.542,4.542,0,0,1,.441.165h.058a.7.7,0,0,0,.458-.165h15a.631.631,0,0,0,.441.169h.058a.689.689,0,0,0,.458-.165h27.137a.693.693,0,0,0,.462.169h.062l.441-.165,273.114-.029-.111.2c-.272.483-.553.978-.825,1.473" fill="#edf4ff"/>
    <path id="Path_22319" data-name="Path 22319" d="M813.877,544.008h0l-341.227.037,2.941-101.954v-27.7h12.725V392.783h25.458V411.2h7.693V377.212h1.844v-2.347h.334v2.347h6.03v-2.347h.334v2.347h8.708v-2.347h.334v2.347h5.362v-2.347h.338v2.347H547.1v31.65h8.543v-5.193l10.213.045v-8.266h1.844V393.8h.334v1.65h7.887v.169h1.51V393.8h.334v1.65h1.84v16.578H591.66v6.03h6.7v-3.518h6.187V400.472h3.18v-6.513h.5v6.53H615.6V388.262h.672v12.226h4.855v-.169h.165l-.169-1.506h.169v-1.506h-.169V394.8h.169v-1.51h-.169v-2.512h.169v-1.514h-.169v-2.347h.169v-1.675h-.169v-2.512h.169v-2.174h-.169v-2.347h.169v-1.675h1.506V374.7h.169v1.84h10.885V374.7h.165v1.675h2.013v12.886h1.506v-2.512h-.157v-1.51h.169v-2.512h-.169v-1.675h.169v-2.516h-.169v.169h13.232v-.169h2.318l.359.2v16.384h2.347v-2.347h27.8V411.2h8.543V377.212h1.844v-2.347h.334v2.347h6.7v-2.347h.334v2.347h9.38v-2.347h.334v2.347h6.026v-2.347h.338v2.347h2.512v31.65h9.376v-5.193l11.055.045v-8.266h2.178V393.8h.334v1.65h8.538v.169h1.675V393.8h.338v1.65h2.009v16.578H768.5v6.03h7.371v-3.518h6.695V400.472h3.349v-6.513h.5v6.53h8.208V388.262h.825v12.226h3.906a113.554,113.554,0,0,1-1.939,11.459q-.763,3.444-1.753,6.975C778.3,480.613,847.738,483.4,813.852,544" transform="translate(-194.61 -131.745)" fill="#dfebfa"/>
    <path id="Path_22320" data-name="Path 22320" d="M1078.807,174.6v249.94H1070.1V171.36Q1074.513,172.857,1078.807,174.6Z" transform="translate(-545.621 -12.279)" fill="#afcdfb"/>
    <path id="Path_22321" data-name="Path 22321" d="M287.411,342.539V517.968H178.841a2,2,0,0,1-.136-.161,164.389,164.389,0,0,1-10.51-14.272h0c-12.247-18.525-29.212-51.313-26.358-87.686a99.771,99.771,0,0,1,7.718-31.464c13.694-32.174,54.551-53.858,91.357-54.3,14.111.157,27.562,3.205,38.732,9.673a26.32,26.32,0,0,0,7.779,2.776Z" transform="translate(-0.065 -105.536)" fill="#cee1fd"/>
    <path id="Path_22322" data-name="Path 22322" d="M897.15,153.09v30.78c0,2.4-.6,4.36-1.332,4.36h-.19c-.73,0-1.328-1.959-1.328-4.36V153.441Q895.723,153.247,897.15,153.09Z" transform="translate(-442.336 -1.545)" fill="#9fc1f4"/>
    <path id="Path_22323" data-name="Path 22323" d="M870.028,220c-10.147,0-18.368,8.7-18.368,19.424H888.4C888.4,228.7,880.171,220,870.028,220Z" transform="translate(-417.284 -40.856)" fill="#ff9843"/>
    <path id="Path_22324" data-name="Path 22324" d="M880.4,220.343a7.579,7.579,0,0,0-1.617-.173c-6.6,0-11.962,8.662-11.962,19.362h3.226c0-9.809,4.508-17.914,10.357-19.189Z" transform="translate(-426.191 -40.956)" fill="#ffc48a"/>
    <path id="Path_22325" data-name="Path 22325" d="M1186.224,698.97s-4.888-5.7-.3-9.326c0,0,3.349-2.025,6.084-1.86,0,0-3.873,6.493-2.619,7.136s3.791-7.544,3.791-7.544,7.627-.738,10.077.441c0,0-6.517,5.333-5.144,5.651s8.415-4.921,8.415-4.921,7.095,1.209,6.715,5.54-2.822,5.663-3.9,5.548-7.359-2.512-7.5-1.65,3.646,3.758,6.3,3.894c0,0-5,5.519-8.328,3.927s-3.609-4.125-5.68-5.065-3.844-.945-2.986.021,4.607,1.906,5.775,4,2.248,3.51-1.192,2.995-9.033-3.036-9.277-5.919l-.247-2.887Z" transform="translate(-612.516 -315.312)" fill="#77a4e5"/>
    <path id="Path_22326" data-name="Path 22326" d="M1206.9,704.2s-19.275-.742-23.512,4.768a13.921,13.921,0,0,1-3.836,5.387l-.454,1.237s3.341-3.518,4.537-3.733c0,0-1.869-6.831,23.285-7.652Z" transform="translate(-609.661 -325.313)" fill="#77a4e5"/>
    <path id="Path_22327" data-name="Path 22327" d="M1173.846,728.179a12.159,12.159,0,0,0-4.426,8.526l.755.066s1.32-5.651,3.712-7.862-.033-.73-.033-.73Z" transform="translate(-603.974 -339.134)" fill="#77a4e5"/>
    <path id="Path_22328" data-name="Path 22328" d="M1107.342,669.745s7.775-4.352,4.125-10.263c0,0-2.887-3.63-6.01-4.562,0,0,1.65,8.815,0,9.021s-1.143-9.953-1.143-9.953-8.192-3.939-11.405-3.63c0,0,5.082,8.609,3.424,8.4s-7.363-8.914-7.363-8.914-8.4-1.555-9.747,3.419.825,7.466,2.062,7.775,9.227.21,9.021,1.237-5.6,2.694-8.6,1.761c0,0,3.3,8.192,7.672,7.775s5.7-3.11,8.4-3.3,4.665.52,3.3,1.237-5.911.239-8.089,2.091-3.939,2.99.107,3.82,11.3.313,12.75-2.8l1.452-3.11Z" transform="translate(-550.731 -293.26)" fill="#77a4e5"/>
    <path id="Path_22329" data-name="Path 22329" d="M1089.062,662.23s21.775,7.049,24.262,14.928a16.562,16.562,0,0,0,2.062,7.573v1.551s-2.281-5.284-3.527-6.014c0,0,4.871-6.839-22.81-18.038Z" transform="translate(-556.755 -300.673)" fill="#77a4e5"/>
    <path id="Path_22330" data-name="Path 22330" d="M1151.572,715.4a14.368,14.368,0,0,1,1.444,11.3l-.866-.231s.825-6.835-.92-10.275S1151.572,715.4,1151.572,715.4Z" transform="translate(-592.877 -331.34)" fill="#77a4e5"/>
    <path id="Path_22331" data-name="Path 22331" d="M1168.4,646.056s-10.25-5.742-5.465-13.529c0,0,3.824-4.785,7.924-6.014,0,0-2.182,11.616,0,11.888s1.506-13.117,1.506-13.117,10.795-5.193,15.035-4.785c0,0-6.7,11.343-4.512,11.071s9.706-11.756,9.706-11.756,11.067-2.062,12.845,4.513-1.093,9.838-2.735,10.246-12.16.276-11.888,1.65,7.379,3.551,11.343,2.322c0,0-4.372,10.8-10.114,10.25s-7.515-4.1-11.071-4.372-6.15.685-4.372,1.65,7.788.309,10.659,2.751,5.193,3.943-.136,5.036-14.895.413-16.809-3.712l-1.914-4.1Z" transform="translate(-599.417 -275.573)" fill="#9fc1f4"/>
    <path id="Path_22332" data-name="Path 22332" d="M1205.914,636.16s-28.7,9.293-31.984,19.68a21.839,21.839,0,0,1-2.731,9.978v2.062s3.007-6.967,4.645-7.928c0,0-6.422-9.017,30.07-23.776Z" transform="translate(-605.019 -285.357)" fill="#9fc1f4"/>
    <path id="Path_22333" data-name="Path 22333" d="M1167.563,706.234a18.918,18.918,0,0,0-1.9,14.9l1.139-.305s-1.106-9.009,1.213-13.546S1167.563,706.234,1167.563,706.234Z" transform="translate(-601.308 -325.774)" fill="#9fc1f4"/>
    <path id="Path_22334" data-name="Path 22334" d="M1148.576,758.544a20.076,20.076,0,0,0,20.08-20.084l-40.155,0a20.076,20.076,0,0,0,20.08,20.08Z" transform="translate(-579.932 -345.46)" fill="#9fc1f4"/>
    <path id="Path_22335" data-name="Path 22335" d="M1157,758.4a20.1,20.1,0,0,1-22.571-19.927h4.987A20.084,20.084,0,0,0,1157,758.4Z" transform="translate(-583.416 -345.466)" fill="#afcdfb"/>
    <path id="Path_22336" data-name="Path 22336" d="M1168.139,739.142h-41.2v-.672h41.2v.672Z" transform="translate(-579.016 -345.466)" fill="#9fc1f4"/>
    <path id="Path_22337" data-name="Path 22337" d="M922.459,663.748l-19.729-81.9,1.378-3.226,19.548,85.1a.346.346,0,0,1-.338.412h-.326a.548.548,0,0,1-.532-.412Z" transform="translate(-447.289 -251.551)" fill="#77a4e5"/>
    <path id="Path_22338" data-name="Path 22338" d="M733.765,734.669h0a.66.66,0,0,1-.648-.767l5.808-35.222H741.4l-6.93,35.391a.738.738,0,0,1-.722.6Z" transform="translate(-347.633 -322.088)" fill="#77a4e5"/>
    <path id="Path_22339" data-name="Path 22339" d="M868.905,734.669h0a.66.66,0,0,1-.648-.767l5.812-35.222h2.475l-6.93,35.391a.734.734,0,0,1-.722.6Z" transform="translate(-427.03 -322.088)" fill="#77a4e5"/>
    <path id="Path_22340" data-name="Path 22340" d="M803.777,570.355H734.41l14.371-90.095h69.367l-14.371,90.095Z" transform="translate(-348.398 -193.763)" fill="#f5fbff"/>
    <path id="Path_22341" data-name="Path 22341" d="M801.467,699.741H721.75V697.06h79.717v2.681Z" transform="translate(-340.96 -321.137)" fill="#77a4e5"/>
    <path id="Path_22342" data-name="Path 22342" d="M798.8,506.793a14.638,14.638,0,0,1-.314,2.1c-1.444,6.443-7.181,11.376-13.666,11.389-7.169,0-12.539-6.006-11.991-13.443s6.806-13.472,13.975-13.488a12.1,12.1,0,0,1,4.22.751,11.256,11.256,0,0,1,1.691.784,11.611,11.611,0,0,1,3.065,2.512,12.491,12.491,0,0,1,1.906,2.974,12.872,12.872,0,0,1,1.019,3.605,13.5,13.5,0,0,1,.115,1.972,6.48,6.48,0,0,1-.037.846Z" transform="translate(-370.951 -201.454)" fill="#bdd1f9"/>
    <path id="Path_22343" data-name="Path 22343" d="M816.258,502.556,804.37,509s4.9-8.637,6.917-11.933a11.612,11.612,0,0,1,3.065,2.512A12.49,12.49,0,0,1,816.258,502.556Z" transform="translate(-389.501 -203.639)" fill="#fff"/>
    <path id="Path_22344" data-name="Path 22344" d="M820.716,499.282l-10.857,5.886s4.48-7.887,6.319-10.9A11.046,11.046,0,0,1,820.716,499.282Z" transform="translate(-392.726 -201.994)" fill="#f99746"/>
    <path id="Path_22345" data-name="Path 22345" d="M751.122,634.7h56.366l5.672-32.322H756.794l-5.672,32.326Zm56.708.334H750.66l5.775-33h57.187l-5.775,33Z" transform="translate(-357.945 -265.311)" fill="#bdd1f9"/>
    <path id="Path_22346" data-name="Path 22346" d="M808.818,658.626H758.14s8.984-4.826,11.45-4.57,6.006,2.2,8.287,2.277,4.744-6.765,7.28-6.439,3.49,6.373,4.8,5.775a13.425,13.425,0,0,1,7.528,0c2.269.825,5.581-2.694,7.577-2.578S808.818,658.626,808.818,658.626Z" transform="translate(-362.34 -293.419)" fill="#f99746"/>
    <path id="Path_22347" data-name="Path 22347" d="M773.934,646.813l-9.454,0,.091-.5h9.45l-.087.5Z" transform="translate(-366.065 -291.32)" fill="#f99746"/>
    <path id="Path_22348" data-name="Path 22348" d="M773.468,649.653H764.01l.091-.5,9.454,0-.087.5Z" transform="translate(-365.788 -292.989)" fill="#f99746"/>
    <path id="Path_22349" data-name="Path 22349" d="M765.16,618.836h50.669s-7.3-4.822-9.85-4.57-6.781,2.2-9.075,2.281-2.372-6.769-5.02-6.443-5.729,6.373-6.835,5.775-4.95-.85-7.528,0-4.632-2.693-6.67-2.582-5.676,5.531-5.676,5.531Z" transform="translate(-366.464 -270.042)" fill="#bdd1f9"/>
    <path id="Path_22350" data-name="Path 22350" d="M780.557,609.053H771.07l.087-.5h9.487l-.087.5Z" transform="translate(-369.936 -269.135)" fill="#bdd1f9"/>
    <path id="Path_22351" data-name="Path 22351" d="M780.094,611.893H770.64l.087-.5h9.458l-.091.5Z" transform="translate(-369.684 -270.804)" fill="#bdd1f9"/>
    <path id="Path_22352" data-name="Path 22352" d="M769.969,576.3H767.75l1.926-10.382h2.215L769.969,576.3Z" transform="translate(-367.986 -244.09)" fill="#bdd1f9"/>
    <path id="Path_22353" data-name="Path 22353" d="M777.305,579.645H775.09l1.489-8.035h2.215l-1.489,8.035Z" transform="translate(-372.298 -247.433)" fill="#bdd1f9"/>
    <path id="Path_22354" data-name="Path 22354" d="M784.651,579.163H782.44l1.551-8.373H786.2l-1.551,8.373Z" transform="translate(-376.616 -246.951)" fill="#bdd1f9"/>
    <path id="Path_22355" data-name="Path 22355" d="M791.981,582.03H789.77l1.184-6.36h2.211l-1.184,6.36Z" transform="translate(-380.923 -249.818)" fill="#bdd1f9"/>
    <path id="Path_22356" data-name="Path 22356" d="M799.313,581.314H797.09l1.275-6.864h2.223l-1.275,6.864Z" transform="translate(-385.224 -249.101)" fill="#bdd1f9"/>
    <path id="Path_22357" data-name="Path 22357" d="M806.64,583.458H804.4l.994-5.358h2.236l-.99,5.358Z" transform="translate(-389.518 -251.246)" fill="#bdd1f9"/>
    <path id="Path_22358" data-name="Path 22358" d="M842.029,576.3H839.81l1.926-10.382h2.215L842.029,576.3Z" transform="translate(-410.322 -244.09)" fill="#f99746"/>
    <path id="Path_22359" data-name="Path 22359" d="M849.365,579.645H847.15l1.493-8.035h2.211l-1.489,8.035Z" transform="translate(-414.635 -247.433)" fill="#f99746"/>
    <path id="Path_22360" data-name="Path 22360" d="M856.711,579.163H854.5l1.551-8.373h2.211l-1.551,8.373Z" transform="translate(-418.953 -246.951)" fill="#f99746"/>
    <path id="Path_22361" data-name="Path 22361" d="M864.041,582.03H861.83l1.184-6.36h2.211l-1.184,6.36Z" transform="translate(-423.259 -249.818)" fill="#f99746"/>
    <path id="Path_22362" data-name="Path 22362" d="M871.373,581.314H869.15l1.275-6.864h2.223l-1.275,6.864Z" transform="translate(-427.56 -249.101)" fill="#f99746"/>
    <path id="Path_22363" data-name="Path 22363" d="M878.7,583.458h-2.24l1-5.358h2.236l-.994,5.358Z" transform="translate(-431.855 -251.246)" fill="#f99746"/>
    <path id="Path_22364" data-name="Path 22364" d="M860.792,507.246H853.45l.19-1.006h7.342l-.19,1.006Z" transform="translate(-418.336 -209.027)" fill="#bdd1f9"/>
    <path id="Path_22365" data-name="Path 22365" d="M881.229,507.246H873.12l.19-1.006h8.109l-.19,1.006Z" transform="translate(-429.892 -209.027)" fill="#bdd1f9"/>
    <path id="Path_22366" data-name="Path 22366" d="M899.163,507.246H893.99l.19-1.006h5.168l-.186,1.006Z" transform="translate(-442.154 -209.027)" fill="#bdd1f9"/>
    <path id="Path_22367" data-name="Path 22367" d="M912.349,507.246H908.36l.19-1.006h3.989l-.19,1.006Z" transform="translate(-450.596 -209.027)" fill="#bdd1f9"/>
    <path id="Path_22368" data-name="Path 22368" d="M858.87,517.4h-7.33l.19-1.006h7.33l-.19,1.006Z" transform="translate(-417.214 -214.99)" fill="#bdd1f9"/>
    <path id="Path_22369" data-name="Path 22369" d="M879.307,517.4h-8.1l.19-1.006h8.1l-.19,1.006Z" transform="translate(-428.77 -214.99)" fill="#bdd1f9"/>
    <path id="Path_22370" data-name="Path 22370" d="M897.24,517.4h-5.16l.186-1.006h5.164l-.19,1.006Z" transform="translate(-441.032 -214.99)" fill="#bdd1f9"/>
    <path id="Path_22371" data-name="Path 22371" d="M910.425,517.4H906.44l.19-1.006h3.981l-.186,1.006Z" transform="translate(-449.468 -214.99)" fill="#bdd1f9"/>
    <path id="Path_22372" data-name="Path 22372" d="M865.7,501.562H854.45l.19-1h11.248l-.19,1Z" transform="translate(-418.924 -205.69)" fill="#bdd1f9"/>
    <path id="Path_22373" data-name="Path 22373" d="M890.484,501.562H884l.19-1h6.48l-.186,1Z" transform="translate(-436.285 -205.69)" fill="#bdd1f9"/>
    <path id="Path_22374" data-name="Path 22374" d="M908.882,501.562h-7.2l.19-1h7.2l-.19,1Z" transform="translate(-446.672 -205.69)" fill="#bdd1f9"/>
    <path id="Path_22375" data-name="Path 22375" d="M863.658,512.522H852.41l.186-1h11.248l-.186,1Z" transform="translate(-417.725 -212.129)" fill="#bdd1f9"/>
    <path id="Path_22376" data-name="Path 22376" d="M888.434,512.522H881.95l.19-1h6.484l-.19,1Z" transform="translate(-435.08 -212.129)" fill="#bdd1f9"/>
    <path id="Path_22377" data-name="Path 22377" d="M906.838,512.522h-7.2l.19-1h7.2l-.19,1Z" transform="translate(-445.473 -212.129)" fill="#bdd1f9"/>
    <path id="Path_22378" data-name="Path 22378" d="M856.95,527.952h-7.33l.186-1h7.334l-.19,1Z" transform="translate(-416.086 -221.194)" fill="#bdd1f9"/>
    <path id="Path_22379" data-name="Path 22379" d="M877.383,527.952H869.29l.186-1h8.1l-.19,1Z" transform="translate(-427.642 -221.194)" fill="#bdd1f9"/>
    <path id="Path_22380" data-name="Path 22380" d="M895.314,527.952H890.15l.19-1h5.16l-.186,1Z" transform="translate(-439.898 -221.194)" fill="#bdd1f9"/>
    <path id="Path_22381" data-name="Path 22381" d="M908.5,527.952h-3.98l.186-1h3.985l-.19,1Z" transform="translate(-448.34 -221.194)" fill="#bdd1f9"/>
    <path id="Path_22382" data-name="Path 22382" d="M861.725,522.672H850.46l.19-1h11.265l-.19,1Z" transform="translate(-416.579 -218.092)" fill="#bdd1f9"/>
    <path id="Path_22383" data-name="Path 22383" d="M886.507,522.672h-6.5l.19-1h6.5l-.19,1Z" transform="translate(-433.94 -218.092)" fill="#bdd1f9"/>
    <path id="Path_22384" data-name="Path 22384" d="M904.9,522.672H897.69l.194-1h7.21l-.19,1Z" transform="translate(-444.328 -218.092)" fill="#bdd1f9"/>
    <path id="Path_22385" data-name="Path 22385" d="M855.144,537.286H847.81l.19-1.006h7.33l-.186,1.006Z" transform="translate(-415.022 -226.676)" fill="#bdd1f9"/>
    <path id="Path_22386" data-name="Path 22386" d="M875.577,537.286h-8.1l.19-1.006h8.1l-.19,1.006Z" transform="translate(-426.579 -226.676)" fill="#bdd1f9"/>
    <path id="Path_22387" data-name="Path 22387" d="M893.51,537.286h-5.16l.19-1.006h5.16l-.19,1.006Z" transform="translate(-438.84 -226.676)" fill="#bdd1f9"/>
    <path id="Path_22388" data-name="Path 22388" d="M906.7,537.286h-3.98l.186-1.006h3.985l-.19,1.006Z" transform="translate(-447.283 -226.676)" fill="#bdd1f9"/>
    <path id="Path_22389" data-name="Path 22389" d="M859.928,532.416H848.68l.19-1.006h11.244l-.186,1.006Z" transform="translate(-415.533 -223.814)" fill="#bdd1f9"/>
    <path id="Path_22390" data-name="Path 22390" d="M884.7,532.416H878.22l.19-1.006h6.484l-.19,1.006Z" transform="translate(-432.889 -223.814)" fill="#bdd1f9"/>
    <path id="Path_22391" data-name="Path 22391" d="M903.108,532.416h-7.2l.186-1.006h7.2l-.19,1.006Z" transform="translate(-443.282 -223.814)" fill="#bdd1f9"/>
    <path id="Path_22392" data-name="Path 22392" d="M820.485,568.863H816.81l.095-.5h3.675l-.095.5Z" transform="translate(-396.809 -245.523)" fill="#bdd1f9"/>
    <path id="Path_22393" data-name="Path 22393" d="M830.489,568.863H826.43l.095-.5h4.059l-.095.5Z" transform="translate(-402.461 -245.523)" fill="#bdd1f9"/>
    <path id="Path_22394" data-name="Path 22394" d="M819.543,573.733H815.88l.1-.5h3.659l-.095.5Z" transform="translate(-396.263 -248.384)" fill="#bdd1f9"/>
    <path id="Path_22395" data-name="Path 22395" d="M829.552,573.733H825.51l.091-.5h4.046l-.095.5Z" transform="translate(-401.921 -248.384)" fill="#bdd1f9"/>
    <path id="Path_22396" data-name="Path 22396" d="M822.882,566.019H817.26l.095-.5h5.618l-.091.5Z" transform="translate(-397.074 -243.855)" fill="#bdd1f9"/>
    <path id="Path_22397" data-name="Path 22397" d="M835.018,566.019H831.78l.095-.5h3.242l-.1.5Z" transform="translate(-405.605 -243.855)" fill="#bdd1f9"/>
    <path id="Path_22398" data-name="Path 22398" d="M821.878,571.293H816.26l.095-.5h5.618l-.095.5Z" transform="translate(-396.486 -246.951)" fill="#bdd1f9"/>
    <path id="Path_22399" data-name="Path 22399" d="M834.018,571.293H830.78l.095-.5h3.238l-.095.5Z" transform="translate(-405.017 -246.951)" fill="#bdd1f9"/>
    <path id="Path_22400" data-name="Path 22400" d="M889.245,568.863H885.57l.095-.5h3.675l-.095.5Z" transform="translate(-437.207 -245.523)" fill="#bdd1f9"/>
    <path id="Path_22401" data-name="Path 22401" d="M899.239,568.863H895.18l.1-.5h4.055l-.095.5Z" transform="translate(-442.853 -245.523)" fill="#bdd1f9"/>
    <path id="Path_22402" data-name="Path 22402" d="M888.3,573.733H884.64l.095-.5H888.4l-.095.5Z" transform="translate(-436.661 -248.384)" fill="#bdd1f9"/>
    <path id="Path_22403" data-name="Path 22403" d="M898.306,573.733H894.26l.095-.5H898.4l-.091.5Z" transform="translate(-442.312 -248.384)" fill="#bdd1f9"/>
    <path id="Path_22404" data-name="Path 22404" d="M891.638,566.019H886.02l.095-.5h5.618l-.095.5Z" transform="translate(-437.471 -243.855)" fill="#bdd1f9"/>
    <path id="Path_22405" data-name="Path 22405" d="M903.778,566.019H900.54l.095-.5h3.238l-.095.5Z" transform="translate(-446.002 -243.855)" fill="#bdd1f9"/>
    <path id="Path_22406" data-name="Path 22406" d="M890.638,571.293H885.02l.095-.5h5.618l-.095.5Z" transform="translate(-436.884 -246.951)" fill="#bdd1f9"/>
    <path id="Path_22407" data-name="Path 22407" d="M902.778,571.293H899.54l.091-.5h3.242l-.095.5Z" transform="translate(-445.415 -246.951)" fill="#bdd1f9"/>
    <path id="Path_22408" data-name="Path 22408" d="M916.775,765.943c-.124,1.7-2.512,1.716-5.226,1.4s-1.992.371-5.775.412-5.107-1.2-5.292-1.745,1.65-.887,3.626-1.365l.705-.173c2.207-.561,3.671-2.215,5.556-3.655,1.79-1.365,4.1-6.311,4.1-6.311l5.189-.235s-2.186,4.434-3.007,6.344a6.251,6.251,0,0,0-.066,3.564,6.651,6.651,0,0,1,.177,1.761Z" transform="translate(-445.96 -354.748)" fill="#ffb27d"/>
    <path id="Path_22409" data-name="Path 22409" d="M911.528,781.5c-2.714-.313-1.992.371-5.775.412s-5.107-1.2-5.292-1.745,1.65-.887,3.626-1.365v.037a10.654,10.654,0,0,0,5.577,1.011c2.553-.256,5.152-1.32,6.913-1.51a6.659,6.659,0,0,1,.177,1.761C916.631,781.8,914.242,781.817,911.528,781.5Z" transform="translate(-445.948 -368.89)" fill="#233862"/>
    <path id="Path_22410" data-name="Path 22410" d="M1003.638,761.839c-.124,1.691-2.512,1.712-5.226,1.4s-1.992.371-5.775.412-5.107-1.2-5.292-1.741c-.165-.483,1.65-.887,3.622-1.365l.742-.186c2.2-.565,3.663-2.215,5.548-3.659,1.79-1.369,0-9.466,0-9.466l5.709-.557s-.276,6.818-.272,9.9a17.174,17.174,0,0,0,.775,3.457,6.672,6.672,0,0,1,.181,1.765Z" transform="translate(-496.995 -350.289)" fill="#ffb27d"/>
    <path id="Path_22411" data-name="Path 22411" d="M998.412,782.294c-2.714-.313-1.992.371-5.775.412s-5.107-1.2-5.292-1.741c-.165-.483,1.65-.887,3.622-1.365l.025.033a10.629,10.629,0,0,0,5.573.994c2.549-.256,5.148-1.324,6.909-1.518a6.67,6.67,0,0,1,.181,1.765c-.124,1.691-2.512,1.712-5.226,1.4Z" transform="translate(-496.995 -369.342)" fill="#233862"/>
    <path id="Path_22412" data-name="Path 22412" d="M986.015,428.324c-.982-4.042.441-5.923,1.728-6.926a6.115,6.115,0,0,1,2.017-2.966,7.276,7.276,0,0,1,3.935-.751,1.856,1.856,0,0,0-.825-.413,6.133,6.133,0,0,1,2.178.569c9.38-3.613,10.853,10.2,10.654,13.4s-.169,6.987,4.711,9.516c9.31,4.822-3.094,23-3.094,23,.235-2.595-11.727-16.272-17.964-20.373-1.522-2.236-2.062-6.187-2.1-6.5a17.037,17.037,0,0,0,1.275,5.878c-2.842-2.615-3.263-8.9-2.512-14.437Z" transform="translate(-496.028 -156.738)" fill="#a9453d"/>
    <path id="Path_22413" data-name="Path 22413" d="M995.46,467.99c-.029,0,3.015,1.592,5.3.965,2.153-.586,3.56-3.378,3.531-3.386-.912-.177-1.176-1.431-1.155-6.818l-.412.082-6.934,1.369s.157,2.182.161,4.24C995.955,466.166,995.856,467.8,995.46,467.99Z" transform="translate(-501.769 -181.126)" fill="#ffb27d"/>
    <path id="Path_22414" data-name="Path 22414" d="M996.27,460.319s.157,2.182.161,4.24c3.881-.111,5.932-3.651,6.773-5.61Z" transform="translate(-502.245 -181.243)" fill="#ed975d"/>
    <path id="Path_22415" data-name="Path 22415" d="M927.765,651.357a1.7,1.7,0,0,0,1.543,2.215l2.706.128,2.887.087a2.306,2.306,0,0,0,1.856-.85,80.666,80.666,0,0,0,13.612-25.747c.12-.384.247-.767.38-1.159,2.821-8.225,8.662-18.562,11.752-27.9.491-1.489.932-2.887,1.328-4.216l.367-1.237a99.368,99.368,0,0,0,3.535-18.611l-22.274.181a490.782,490.782,0,0,1-17.679,77.135Z" transform="translate(-461.95 -248.878)" fill="#2a4e96"/>
    <path id="Path_22416" data-name="Path 22416" d="M973.682,502.483c.054,10.593-1.555,15.134-1.555,15.134a29.9,29.9,0,0,0,20.855,1.279c.132-.045,8.1-2.3,8.1-2.3-.19-.413-1.765-7.515-1.951-7.911-2.388-5.131-3.04-7.289-3.325-8.864a33.774,33.774,0,0,1-.276-8.873,71.31,71.31,0,0,1,2.747-13.934,72.067,72.067,0,0,1-9.186-3.139,7.167,7.167,0,0,1-4.95,1.836c-2.256-.05-2.986-1.015-2.887-2.062-2.4,1.336-4.319,2.6-4.319,2.6-2.062,3.551-6.187,7.012-6.488,12.44-.074,1.336,3.226,13.5,3.226,13.8Z" transform="translate(-487.074 -189.88)" fill="#fff"/>
    <path id="Path_22417" data-name="Path 22417" d="M1019.928,520.188c.973,1.378,2.838,9.747,7.478,10.8-2.392-5.965-4.207-8.58-4.492-10.415a45.485,45.485,0,0,1-.276-10.312c-1.551-2.722-2.71-4.587-2.71-4.587-.124-.441-2.475-7.7-3.221-1.213s2.133,14.181,3.221,15.72Z" transform="translate(-514.18 -206.405)" fill="#5f9aa8"/>
    <path id="Path_22418" data-name="Path 22418" d="M988.777,444.921s9.178.153,9.186-5.564,1.2-9.549-4.665-9.9-7.012,1.844-7.47,3.754.561,11.517,2.949,11.7Z" transform="translate(-496.047 -163.894)" fill="#ffb27d"/>
    <path id="Path_22419" data-name="Path 22419" d="M994,427.532s2.512,6.707,6.373,7.7,5.527-.041,5.527-.041a10.931,10.931,0,0,1-3.572-6.451S995.9,424.335,994,427.532Z" transform="translate(-500.911 -162.101)" fill="#a9453d"/>
    <path id="Path_22420" data-name="Path 22420" d="M988.844,428.951a8.106,8.106,0,0,0-2.335,2.953c-.458,1.456-.664,4.451-1.534,4.352,0,0-1.893-4.562.235-7.14,2.252-2.735,3.634-.165,3.634-.165Z" transform="translate(-495.153 -162.975)" fill="#a9453d"/>
    <path id="Path_22421" data-name="Path 22421" d="M951.935,561.37,947.6,574.59l2.471.994L957.24,563.9l-5.3-2.533Z" transform="translate(-473.651 -241.416)" fill="#ffb27d"/>
    <path id="Path_22422" data-name="Path 22422" d="M968.255,478.06s-5.111,2.025-6.6,5.189-3.712,24.378-4.612,26.56-1.563,3.9-1.563,3.9,2.578,2.174,5.168,2.331,7.6-37.981,7.6-37.981Z" transform="translate(-478.28 -192.47)" fill="#f99746"/>
    <path id="Path_22423" data-name="Path 22423" d="M976.888,473.628s-5.309,13.117-5.465,15.773-.623,43.426-.623,43.426.309,1.873-3.3,1.089-4.5-1.568-4.5-1.568,3.436-25.161,2.5-33.9,7.185-23.008,7.185-23.008l4.216-1.823Z" transform="translate(-482.698 -189.862)" fill="#f99746"/>
    <path id="Path_22424" data-name="Path 22424" d="M938.151,676.759l3.11.095a1.782,1.782,0,0,0,1.444-.652,80.227,80.227,0,0,0,13.769-25.953c.12-.379.247-.767.379-1.155,2.821-8.225,8.662-18.562,11.752-27.9q.738-2.231,1.328-4.216l.367-1.237L967,613.27s-9.838,15.93-12.886,30.936c-2.644,13.022-13.241,28.692-15.984,32.586Z" transform="translate(-468.087 -271.909)" fill="#1e3d70"/>
    <path id="Path_22425" data-name="Path 22425" d="M1004.2,639.69c-.054,6.9.276,22.274,1.114,29.79a1.361,1.361,0,0,0,1.353,1.2h4.537a.9.9,0,0,0,.862-.722c2.31-11.752,3.964-21.511,5.173-29.946,1.01-7.058,1.91-13.113,2.6-18.323s1.18-9.636,1.353-13.344c.029-.586.049-1.155.058-1.7s0-1.093,0-1.617L1002,603.14c.243,12.787,2.219,32.314,2.186,36.55Z" transform="translate(-505.612 -265.957)" fill="#2a4e96"/>
    <path id="Path_22426" data-name="Path 22426" d="M1019,677.915h2.038a1.081,1.081,0,0,0,1.048-.874c2.293-11.682,3.939-21.4,5.144-29.794,1.01-7.058,1.91-13.113,2.6-18.323s1.18-9.636,1.353-13.344l-7.053,4.15s4.5,1.588,2.784,13.612-5.527,42.9-7.916,44.581Z" transform="translate(-515.599 -273.266)" fill="#1e3d70"/>
    <path id="Path_22427" data-name="Path 22427" d="M1007.382,532.438s1.357,4.892,6.043,4.269,11.347-3.436,11.347-3.436-2-6.327-4.492-14.639c-3.015-10.065-6.748-23.037-8.505-31.221a50.978,50.978,0,0,1-.957-5.581l-3.885-7.54s-5.775,13.01-6.109,16.289,6.558,41.859,6.558,41.859Z" transform="translate(-504.913 -190.256)" fill="#f99746"/>
    <path id="Path_22428" data-name="Path 22428" d="M1002.142,490.088l-5.131-15.8a79,79,0,0,1,9.735,3.564s2.034,2.623,3.3,8.662c0,0,1.328,14.519-1.65,19.828,0,0-9.372,1.877-24.365-3.279v-3.436s16.4.858,19.758,1.237l-1.65-10.8Z" transform="translate(-495.054 -190.255)" fill="#ffb27d"/>
    <path id="Path_22429" data-name="Path 22429" d="M1017.244,516.14c.206,5.309,1.46,15.621,12.6,21.136l.091.045c-3.015-10.065-6.748-23.037-8.505-31.221C1019.364,509.156,1017.128,513.215,1017.244,516.14Z" transform="translate(-514.565 -208.944)" fill="#ed7d2b"/>
    <path id="Path_22430" data-name="Path 22430" d="M1014.864,474.29s9.512.668,11.8,5.775,3.019,22.076.1,27.075c0,0-4.013,1.143-11.112-.186l-.264-.05s-2.265-5.544-.235-6.637c0,0,5.989.309,5.362-1.65s-5.655-24.308-5.655-24.308Z" transform="translate(-512.845 -190.256)" fill="#f99746"/>
    <path id="Path_22431" data-name="Path 22431" d="M957.84,533.975l.276.9,15.608-4.855a.586.586,0,0,0,.1-.553.437.437,0,0,0-.384-.346l-15.6,4.855Z" transform="translate(-479.667 -222.469)" fill="#a9453d"/>
    <path id="Path_22432" data-name="Path 22432" d="M955.1,541.74l1.13-.85.276.9-1.406-.049Z" transform="translate(-478.057 -229.384)" fill="#a9453d"/>
    <path id="Path_22433" data-name="Path 22433" d="M942.354,592.54s-3.96,2.19-4.48,3.857-.161,5.156.466,5.107,1.567-3.754,2.087-4.013,1.237-1.039,1.237-.47-.52,1.617-.26,1.774,1.093-1.46,1.65-1.774.825-2.887,1.369-3.58-2.1-.9-2.1-.9Z" transform="translate(-467.79 -259.729)" fill="#ffb27d"/>
    <path id="Path_22434" data-name="Path 22434" d="M971.416,533.063s-3.543-2.182-5.028-1.844-5.267,3.073-3.448,3.671,3.3-.029,4,.412,1.217,1.237,4.48,1.209,0-3.436,0-3.436Z" transform="translate(-482.378 -223.681)" fill="#ffb27d"/>
    <path id="Path_22435" data-name="Path 22435" d="M567.7,785.765h0a.553.553,0,0,1-.412-.165h.866a.6.6,0,0,1-.412.165" transform="translate(-250.212 -373.155)" fill="#a6c4ef"/>
    <path id="Path_22436" data-name="Path 22436" d="M567,729.839a.6.6,0,0,1-.173-.441l.9-38.4h2.652l-2.207,38.415a.652.652,0,0,1-.2.437h-1.031" transform="translate(-249.942 -317.576)" fill="#a1c0ed"/>
    <path id="Path_22437" data-name="Path 22437" d="M529.085,785.765h-.033a.553.553,0,0,1-.412-.165h.87a.607.607,0,0,1-.412.165" transform="translate(-227.505 -373.155)" fill="#a6c4ef"/>
    <path id="Path_22438" data-name="Path 22438" d="M528.317,729.722a.611.611,0,0,1-.177-.441l.887-38.481a2.73,2.73,0,0,0,.615.07H531.7l-2.211,38.41a.635.635,0,0,1-.2.441h-1" transform="translate(-227.211 -317.459)" fill="#a1c0ed"/>
    <path id="Path_22439" data-name="Path 22439" d="M635.832,785.765h0a3.4,3.4,0,0,0-.462-.165h.965a1.821,1.821,0,0,1-.441.095" transform="translate(-290.21 -373.155)" fill="#a6c4ef"/>
    <path id="Path_22440" data-name="Path 22440" d="M631.975,729.839a.643.643,0,0,1-.2-.413L629.57,691h2.652l.887,38.415a.61.61,0,0,1-.169.437h-1.015" transform="translate(-286.803 -317.576)" fill="#a1c0ed"/>
    <path id="Path_22441" data-name="Path 22441" d="M562.761,628.65H525.25V601.108a8.8,8.8,0,0,1,8.8-8.8h19.919a8.794,8.794,0,0,1,8.794,8.8V628.65" transform="translate(-225.513 -259.594)" fill="#a1c0ed"/>
    <path id="Path_22442" data-name="Path 22442" d="M542.22,684.8H528.257a2.623,2.623,0,0,1-2.628-2.64V680.44h16.52A1.955,1.955,0,0,0,540.2,682.4v.45a1.947,1.947,0,0,0,1.943,1.951" transform="translate(-225.736 -311.372)" fill="#a1c0ed"/>
    <path id="Path_22443" data-name="Path 22443" d="M591.962,684.8H562.935a1.955,1.955,0,0,1-1.955-1.951v-.45a1.955,1.955,0,0,1,1.951-1.955h29.084a1.955,1.955,0,0,1,1.955,1.955v.45a1.955,1.955,0,0,1-1.955,1.951" transform="translate(-246.505 -311.372)" fill="#a1c0ed"/>
    <path id="Path_22444" data-name="Path 22444" d="M683.637,733.049c.276,1.386,2.252,1.155,4.463.615s1.687.1,4.83-.243,4.1-1.522,4.195-1.988-1.468-.561-3.135-.755l-.631-.074c-1.881-.239-3.259-1.452-4.97-2.45-1.617-.945-4.034-4.793-4.034-4.793l-4.315.342s2.265,3.436,3.139,4.95a5.131,5.131,0,0,1,.412,2.937,5.534,5.534,0,0,0,.033,1.477Z" transform="translate(-316.455 -336.588)" fill="#ffb27d"/>
    <path id="Path_22445" data-name="Path 22445" d="M693.151,744.086c2.211-.536,1.687.1,4.83-.243s4.1-1.522,4.195-1.988-1.468-.561-3.135-.755v.033a8.861,8.861,0,0,1-4.5,1.4c-2.133.054-4.393-.561-5.865-.536a5.54,5.54,0,0,0,.033,1.477c.276,1.386,2.252,1.155,4.463.615Z" transform="translate(-321.505 -347.011)" fill="#233862"/>
    <path id="Path_22446" data-name="Path 22446" d="M598.525,749.227c-.858,1.126.627,2.475,2.475,3.758s1.039,1.328,3.382,3.457,3.853,2.062,4.265,1.831-.549-1.473-1.51-2.85l-.359-.524c-1.068-1.567-1.068-3.4-1.452-5.362-.363-1.84,2.64-8.6,2.64-8.6l-4.826-.606a54.348,54.348,0,0,1-1.172,5.729c-.318.965-1.65,1.6-2.376,2.149a5.556,5.556,0,0,0-1.085,1Z" transform="translate(-268.417 -346.558)" fill="#ffb27d"/>
    <path id="Path_22447" data-name="Path 22447" d="M601.016,764.173c1.869,1.3,1.039,1.328,3.382,3.457s3.853,2.062,4.265,1.831-.549-1.473-1.51-2.85h-.033a8.876,8.876,0,0,1-4.03-2.475c-1.452-1.563-2.475-3.667-3.481-4.756a5.561,5.561,0,0,0-1.085,1c-.858,1.126.627,2.475,2.475,3.758Z" transform="translate(-268.417 -357.75)" fill="#233862"/>
    <path id="Path_22448" data-name="Path 22448" d="M623.612,667.346l-4.4,11.863-5.775,15.485a9.349,9.349,0,0,1-3.052-.28,13.343,13.343,0,0,1-2.957-1.44s1.6-16.627,4.579-26.172a17.01,17.01,0,0,1,2.566-5.548c4.62-5.457,9.029,6.092,9.029,6.092Z" transform="translate(-273.795 -299.239)" fill="#163560"/>
    <path id="Path_22449" data-name="Path 22449" d="M575.078,629.192c-2.887-.932-11.591-.375-19.861,1.237l-1.266-2.215-17.869-1.394s-5.9,13.076-2.669,21.408a3,3,0,0,0,3.024,2.034h14.35c8.885,0,18.805-6.113,20.088-6.369,2.1-.413,2.941,3.782,5.041,8.2s19.746,19.535,19.746,19.535a15.025,15.025,0,0,0,3.836-.412,3.8,3.8,0,0,0,1.65-1.039s-19.548-38.9-26.061-41Z" transform="translate(-229.741 -279.869)" fill="#2a4e96"/>
    <path id="Path_22450" data-name="Path 22450" d="M537.8,498.656c-2.512-.6-5.927.1-6.5.169-6.785.792-8.3,11.331-7.8,14.28.928,5.432-1.683,6.963-4.8,11.31-6.241,8.712-1.93,15.889,3.156,17.667,3.048,1.068,7.2-1.836,7.2-1.836.078.025,10.791-10.2,16.087-15.171,8.91-3.671-.949-24.9-7.359-26.4Z" transform="translate(-219.854 -204.429)" fill="#233862"/>
    <path id="Path_22451" data-name="Path 22451" d="M559.511,547.534c.029,0-2.764,1.836-5.041,1.452-2.145-.363-4.409-3.155-4.38-3.168.862-.264,1.629-1.275,1.089-6.488l.413.041,6.847.656s.058,2.128.252,4.125c.161,1.65.412,3.242.825,3.386Z" transform="translate(-240.107 -228.468)" fill="#ffb27d"/>
    <path id="Path_22452" data-name="Path 22452" d="M560.567,540.072s.058,2.128.252,4.125c-3.766.268-6.1-2.958-7.1-4.777l6.847.656Z" transform="translate(-242.24 -228.52)" fill="#ed975d"/>
    <path id="Path_22453" data-name="Path 22453" d="M559.5,524.283s-8.873,1.035-9.434-4.5-2.083-9.132,3.56-10.027,6.959,1.105,7.594,2.908S561.791,523.867,559.5,524.283Z" transform="translate(-239.731 -210.963)" fill="#ffb27d"/>
    <path id="Path_22454" data-name="Path 22454" d="M556.5,508.635s-4.3,6.138-7.924,7.47-5.362.495-5.362.495a15.073,15.073,0,0,0,2.306-5.676,2.718,2.718,0,0,1,1.769-2.1c2.611-.907,7.639-2.306,9.207-.186Z" transform="translate(-236.065 -209.78)" fill="#233862"/>
    <path id="Path_22455" data-name="Path 22455" d="M566.83,509.047a14.019,14.019,0,0,1,3.2,2.475,10.516,10.516,0,0,1,1.691,5.449s1.444-6.3-.87-8.588c-2.45-2.43-4.026.66-4.026.66Z" transform="translate(-249.942 -209.738)" fill="#233862"/>
    <path id="Path_22456" data-name="Path 22456" d="M555.62,570.367c-.268,17.927-.074,14.181-2.038,15.881a7.48,7.48,0,0,1-3.547.767c-5.494.367-15.155-.54-15.522-1.555-1.271-3.514-.375-4.607-1.431-9.986-.111-.573-.247-1.192-.412-1.869-.879-3.692-1.741-4.95,1.39-10.885,2.838-5.362,5.9-9.673,6.167-9.516,7.482,4.443,7.973.639,7.973.639s7.544,7.784,7.425,16.524Z" transform="translate(-229.393 -236.616)" fill="#fff"/>
    <path id="Path_22457" data-name="Path 22457" d="M618.939,689.215l-5.894,16.14a9.968,9.968,0,0,1-3.655.466,4.607,4.607,0,0,1-2.43-1.085s1.8-18.372,4.781-27.917Z" transform="translate(-273.519 -309.245)" fill="#2a4e96"/>
    <path id="Path_22458" data-name="Path 22458" d="M571.49,554.75s7.7,1.308,8.6,4.624,7.52,21.589,7.52,21.589-5.206,1.926-7.012.116-6.294-16.78-6.294-16.78l-2.813-9.549Z" transform="translate(-252.68 -237.527)" fill="#fff"/>
    <path id="Path_22459" data-name="Path 22459" d="M551.783,610.4c-5.494.367-15.155-.54-15.522-1.555-1.27-3.514-.375-4.607-1.431-9.986L537.408,593s-.367,6.719,2.087,8.9,10.036,4.22,11.228,6.047a6.668,6.668,0,0,1,1.06,2.475Z" transform="translate(-231.142 -260)" fill="#dfebfd"/>
    <path id="Path_22460" data-name="Path 22460" d="M576.982,625.9a12.848,12.848,0,0,0,2.1,1.526,1.329,1.329,0,0,0,.73,0l-1.2-1.4-1.65-.136Z" transform="translate(-255.899 -279.323)" fill="#ffb27d"/>
    <path id="Path_22461" data-name="Path 22461" d="M575.411,621.88l4.125,1.068a.676.676,0,0,1-.573.367,9.031,9.031,0,0,1-1.728-.12l-1.844-1.316Z" transform="translate(-254.971 -276.967)" fill="#ffb27d"/>
    <path id="Path_22462" data-name="Path 22462" d="M558.392,624.119s5.915-2.636,7.012-2.285a15.516,15.516,0,0,1,4.409,2.475c.45.619-2.335-.078-3.2-.132a7.521,7.521,0,0,0-2.516,1.11,8.907,8.907,0,0,1-4.62,1.427l-1.1-2.607Z" transform="translate(-244.977 -276.921)" fill="#ffb27d"/>
    <path id="Path_22463" data-name="Path 22463" d="M526.993,553.21s-8.373,1.572-9.924,3.89c-3.382,5.061-10.584,26.036-6.55,28.849,4.537,3.168,20.674.825,20.674.825s.536-2.512-.21-3.712-12.886-3.172-13.443-3.712,5.531-8.662,4.884-10.213c-2.062-4.95,4.57-15.9,4.57-15.9Z" transform="translate(-216.156 -236.622)" fill="#fff"/>
    <path id="Path_22464" data-name="Path 22464" d="M631.34,625.227s5.857,1.58,6.459,2.475a13.8,13.8,0,0,1,1.732,4.414c-.049.726-1.65-1.435-2.248-1.988a7.087,7.087,0,0,0-2.475-.681,7.351,7.351,0,0,1-3.23-1.477,1.785,1.785,0,0,0-.969-.214l.742-2.545Z" transform="translate(-287.414 -278.923)" fill="#ffb27d"/>
    <path id="Path_22465" data-name="Path 22465" d="M646.8,635.15a11.344,11.344,0,0,0,.627,2.351,1.2,1.2,0,0,0,.528.437l-.045-1.72-1.11-1.068Z" transform="translate(-296.926 -284.763)" fill="#ffb27d"/>
    <path id="Path_22466" data-name="Path 22466" d="M648,631.266l2.38,3.226a.635.635,0,0,1-.635-.074,8.6,8.6,0,0,1-1.188-1.105L648,631.25Z" transform="translate(-297.631 -282.472)" fill="#ffb27d"/>
    <path id="Path_22467" data-name="Path 22467" d="M632.93,631.94a3.667,3.667,0,0,0,1.625,1.79c1.085.47,1.881,1.184,2.062.928s-.825-1.6-.825-1.6l-2.859-1.118Z" transform="translate(-288.777 -282.877)" fill="#ffb27d"/>
    <path id="Path_22468" data-name="Path 22468" d="M599.031,607.83l12.321,7.788a10.25,10.25,0,0,1-1.728,1.889c-2.281.825-12.54.033-16.054-5.243Z" transform="translate(-265.652 -268.712)" fill="#fff"/>
    <path id="Path_22469" data-name="Path 22469" d="M594.577,627.633c.73,0,7.961-.5,7.961-.5a3.425,3.425,0,0,0,.235,1.968l-7.045,1.349-1.448-.412.3-2.388Z" transform="translate(-266.069 -280.051)" fill="#f9ddbf"/>
    <path id="Path_22470" data-name="Path 22470" d="M564.985,629.509l12.073-1.159s-.412,2.232,1.151,2.813l-13.294.974s-1.072-1.51.083-2.628Z" transform="translate(-248.551 -280.768)" fill="#f99746"/>
    <path id="Path_22471" data-name="Path 22471" d="M602.611,627.156l-8.151.61s.058-.28.21-.285,8.1-.582,8.1-.582l-.029.223h-.128Z" transform="translate(-266.175 -279.916)" fill="#f99746"/>
    <path id="Path_22472" data-name="Path 22472" d="M597,632.961l7.177-1.365-.066-.186-7.647,1.464.536.087Z" transform="translate(-267.35 -282.566)" fill="#f99746"/>
    <path id="Path_22473" data-name="Path 22473" d="M394.176,719.98h-.066a.685.685,0,0,1-.681-.7l1.035-44.994,3.04-.355L394.91,719.3a.738.738,0,0,1-.734.7Z" transform="translate(-148.066 -307.547)" fill="#77a4e5"/>
    <path id="Path_22474" data-name="Path 22474" d="M351.232,719.98h-.062a.685.685,0,0,1-.681-.7l1.035-44.994,3.04-.355L351.971,719.3a.738.738,0,0,1-.734.7Z" transform="translate(-122.838 -307.547)" fill="#77a4e5"/>
    <path id="Path_22475" data-name="Path 22475" d="M466.088,719.98h.082a.685.685,0,0,0,.681-.7l-1.031-44.994-3.04-.355,2.59,45.373a.743.743,0,0,0,.734.7Z" transform="translate(-188.811 -307.547)" fill="#77a4e5"/>
    <path id="Path_22476" data-name="Path 22476" d="M347.42,610.23V579.4a9.784,9.784,0,0,1,9.747-9.821h22.039a9.784,9.784,0,0,1,9.747,9.821v32.013l-41.533-1.18Z" transform="translate(-121.035 -246.24)" fill="#77a4e5"/>
    <path id="Path_22477" data-name="Path 22477" d="M392.971,673.079h-42.61a2.941,2.941,0,0,1-2.941-2.941V668.22h45.551Z" transform="translate(-121.035 -304.193)" fill="#77a4e5"/>
    <path id="Path_22478" data-name="Path 22478" d="M421.3,673.085H388.974a2.174,2.174,0,0,1-2.174-2.174V670.4a2.174,2.174,0,0,1,2.174-2.174H421.3a2.174,2.174,0,0,1,2.174,2.178v.511a2.178,2.178,0,0,1-2.182,2.17Z" transform="translate(-144.171 -304.198)" fill="#77a4e5"/>
    <path id="Path_22479" data-name="Path 22479" d="M424.981,541.94s-1.852,1.576-2.252,5.651c-.305,3.1,1.844,27.137,3.461,29.047,4.537,5.362,10.246,3.1,12.478,3.919l2.108-1.893s-7.4-5.465-7.969-7.247c-2.17-6.864-.825-26.882-7.837-29.476Z" transform="translate(-165.263 -230.001)" fill="#f9ddbf"/>
    <path id="Path_22480" data-name="Path 22480" d="M401.117,486.518s.128-4.409-5.688-5.272-7.425.491-8.411,1.976-2.842,7.536-2.656,9.949,6.818,5.387,6.711,6.789S401.117,486.518,401.117,486.518Z" transform="translate(-142.731 -194.184)" fill="#163560"/>
    <path id="Path_22481" data-name="Path 22481" d="M489.763,761.307c-.186,1.485,1.844,1.926,4.207,2.133s1.65.677,4.855,1.394,4.537-.14,4.805-.577-1.262-1.064-2.842-1.823l-.6-.289c-1.778-.874-2.735-2.566-4.092-4.15-1.287-1.5-2.388-6.187-2.388-6.187l-4.376-1.118s1.089,4.224,1.456,6.022a5.633,5.633,0,0,1-.561,3.1,5.842,5.842,0,0,0-.462,1.5Z" transform="translate(-204.41 -352.645)" fill="#ffb27d"/>
    <path id="Path_22482" data-name="Path 22482" d="M494.57,776.43c2.364.21,1.65.677,4.855,1.394s4.537-.14,4.805-.578-1.262-1.064-2.842-1.823l-.029.029a9.075,9.075,0,0,1-4.917-.124c-2.124-.668-4.154-2.062-5.618-2.529a5.839,5.839,0,0,0-.462,1.5C490.178,775.782,492.207,776.224,494.57,776.43Z" transform="translate(-205.01 -365.635)" fill="#233862"/>
    <path id="Path_22483" data-name="Path 22483" d="M401.883,623.3s29.253,3.036,34.075,7.515,3.964,46.2,3.964,46.2c-.751.776-1.308.759-2.475.668a16.082,16.082,0,0,1-3.461-1.068s-6.266-20.488-6.344-25.232-1.068-12.787-3.056-13.27-25.673,2.182-28.272-5.3a16.121,16.121,0,0,1,1.716-13.637L401.9,623.3Z" transform="translate(-149.272 -275.381)" fill="#ed7d2b"/>
    <path id="Path_22484" data-name="Path 22484" d="M376.244,584.609a13.347,13.347,0,0,0,7.305,2.3c6.777.247,15.233-.561,16.912-2.133a2.888,2.888,0,0,0,.7-1.93c.186-2.6-1.06-6.88-1.893-10.423-.54-2.3-.907-4.286-.606-5.3.92-3.094,3.774-9.392,4.022-11.463s-2.223-13.166-5.639-14.54-16.6,0-16.6,0c-5.152,1.048-5.362,12.028-3.659,21.379.045.239.087.478.136.714,1.852,9.487-4.187,19.053-.664,21.416Z" transform="translate(-137.315 -229.161)" fill="#f9ddbf"/>
    <path id="Path_22485" data-name="Path 22485" d="M406.24,533.492c-.095.6-1.745,1.58-5.267.652-3.378-.891-3.782-1.992-3.782-2.718,0-.858,1.468-2.017,1.448-7.305l.412.078,6.806,1.349s-.153,2.141-.157,4.162c0,1.7.7,2.78.544,3.782Z" transform="translate(-150.276 -219.531)" fill="#ffb27d"/>
    <path id="Path_22486" data-name="Path 22486" d="M408.5,525.659s-.153,2.141-.157,4.162c-3.811-.107-5.824-3.584-6.649-5.511Z" transform="translate(-152.92 -219.643)" fill="#ed975d"/>
    <path id="Path_22487" data-name="Path 22487" d="M408.288,510.547s-9.017.148-9.021-5.465-1.176-9.38,4.579-9.71,6.876,1.811,7.334,3.684-.549,11.31-2.887,11.492Z" transform="translate(-151.437 -202.621)" fill="#ffb27d"/>
    <path id="Path_22488" data-name="Path 22488" d="M403.82,493.491s-2.475,6.6-6.257,7.561-5.432-.041-5.432-.041a10.724,10.724,0,0,0,3.51-6.319s6.315-4.319,8.18-1.18Z" transform="translate(-147.303 -200.876)" fill="#163560"/>
    <path id="Path_22489" data-name="Path 22489" d="M419,494.834a8.018,8.018,0,0,1,2.293,2.887c.45,1.415.652,4.376,1.51,4.277,0,0,1.86-4.48-.231-7.012-2.215-2.685-3.572-.165-3.572-.165Z" transform="translate(-163.089 -201.688)" fill="#163560"/>
    <path id="Path_22490" data-name="Path 22490" d="M437.12,759.544c-.021,1.506,2.062,1.7,4.418,1.65s1.7.483,4.979.825,4.508-.664,4.711-1.126-1.369-.924-3.019-1.51l-.627-.223c-1.864-.664-3-2.232-4.537-3.651-1.444-1.341,1.745-7.837,1.745-7.837l-4.178-2.062s-.792,4.632-1.811,8.691c-.264,1.048-1.122,2.772-1.386,3.688a6.07,6.07,0,0,0-.289,1.539Z" transform="translate(-173.735 -349.66)" fill="#ffb27d"/>
    <path id="Path_22491" data-name="Path 22491" d="M376.63,607.708c1.262.825,3.337,3.263,7.124,3.4,6.253-1.423,13.369-3.077,17.6-4.063.186-2.6-1.06-6.88-1.893-10.423-4.95,1.51-12.28-3.626-14.75-5.655-2.595-2.133-2.512-9.236-2.512-9.236l-5.222,4.95c.045.239.087.478.136.714,1.852,9.487-4.005,17.939-.483,20.3Z" transform="translate(-137.519 -253.378)" fill="#f2ccaa"/>
    <path id="Path_22492" data-name="Path 22492" d="M441.514,778.836c2.372-.066,1.7.483,4.979.825S451,779,451.2,778.535s-1.369-.911-3.019-1.5l-.021.029a9.111,9.111,0,0,1-4.929.462c-2.186-.412-4.356-1.563-5.866-1.869a6.07,6.07,0,0,0-.289,1.539c-.021,1.506,2.062,1.7,4.418,1.65Z" transform="translate(-173.712 -367.315)" fill="#233862"/>
    <path id="Path_22493" data-name="Path 22493" d="M382.655,630.891c7.425-.215,29.612,1.559,33.873,4.768,5.247,3.956-9.739,46.726-9.739,46.726a19.4,19.4,0,0,1-2.289.107,7.4,7.4,0,0,1-3.349-.994s.058-25.161,1.807-29.992c1.617-4.447,2.611-6.022.582-6.286s-27.339,2.962-29.435-4.677a18.9,18.9,0,0,1,.788-11.484S375.787,631.1,382.655,630.891Z" transform="translate(-136.376 -281.185)" fill="#f99746"/>
    <path id="Path_22494" data-name="Path 22494" d="M377.92,541.918s-5.16.437-5.564,4.517c-.305,3.1-2.549,25.058-.932,26.972,4.537,5.362,19.713,6.513,21.944,7.33l.615-2.545s-16.186-8.155-15.942-10.007S382.866,541.188,377.92,541.918Z" transform="translate(-134.797 -229.979)" fill="#f9ddbf"/>
    <path id="Path_22495" data-name="Path 22495" d="M388.179,482.734s.371-2.351-2.887-2.958-3.325,6.319-3.671,7.99.52,2.673,1.765,2.772S388.179,482.734,388.179,482.734Z" transform="translate(-141.083 -193.457)" fill="#163560"/>
    <path id="Path_22496" data-name="Path 22496" d="M425.4,628.122s4.607-1.3,5.709-1,4.859,2.8,4.331,3.473-3.844-.412-5.362-.2-2.706.953-3.8.792a12.558,12.558,0,0,1-2.244-.594l1.378-2.475Z" transform="translate(-166.045 -280.021)" fill="#ffb27d"/>
    <path id="Path_22497" data-name="Path 22497" d="M427.338,626.945a16.874,16.874,0,0,0,2.887-1.819.181.181,0,0,1,.28.033c.173.272.334.8-.458,1.316a4.24,4.24,0,0,1-2.718.47Z" transform="translate(-167.983 -278.844)" fill="#ffb27d"/>
    <path id="Path_22498" data-name="Path 22498" d="M463.518,631s4.785.264,5.725.907,3.688,4.224,2.97,4.69-3.506-1.629-5.016-1.93-2.867.029-3.853-.483a12.615,12.615,0,0,1-1.935-1.291Z" transform="translate(-188.006 -282.325)" fill="#ffb27d"/>
    <path id="Path_22499" data-name="Path 22499" d="M358.219,772.611H338.753c-.936-1.147-.59-5.362-.45-6.736.029-.28.049-.441.049-.441s6.645-5.317,7.561-1.237c.029.128.062.256.1.375,1.151,3.807,6.307,5.54,9.289,6.022a3.369,3.369,0,0,1,2.916,2.025Z" transform="translate(-115.573 -359.676)" fill="#1b3051"/>
    <path id="Path_22500" data-name="Path 22500" d="M240.66,633.26c.705,0,33.345,6.125,38.745,12.812,2.7,3.337,3.1,41.9,3.1,41.9s-3.337,4.125-10.543,1.737c0,0-5.284-26.4-4.9-34.385.111-2.211-22.3-.322-26.4-1.382s-14.123-9.986-11.913-14.33,11.913-6.348,11.913-6.348Z" transform="translate(-51.131 -283.653)" fill="#233862"/>
    <path id="Path_22501" data-name="Path 22501" d="M314.119,628.86a12.083,12.083,0,0,0,4.232,2.314,19.211,19.211,0,0,1,3.11.945c1.939.891,5.614,4.859,5.272,5.255-1.1,1.266-5.511-2.029-6.356-1.8s1.386,2.149.5,2.669c-.462.272-1.332-1.382-2.145-1.613-1.1-.318-1.836-1.98-2.166-2.1a26.389,26.389,0,0,1-3.325-2.628l.879-3.048Z" transform="translate(-100.954 -281.068)" fill="#ffb27d"/>
    <path id="Path_22502" data-name="Path 22502" d="M379.076,772.611H359.611c-.936-1.147-.594-5.362-.45-6.736.029-.28.049-.441.049-.441s6.645-5.317,7.557-1.237c.029.128.062.256.1.375,1.151,3.807,6.311,5.54,9.289,6.022a3.37,3.37,0,0,1,2.92,2.025Z" transform="translate(-127.827 -359.676)" fill="#1e3c68"/>
    <path id="Path_22503" data-name="Path 22503" d="M263.98,633.26c.705,0,33.345,6.125,38.745,12.812,2.7,3.337,3.1,41.9,3.1,41.9s-3.337,4.125-10.543,1.737c0,0-5.284-26.4-4.9-34.385.111-2.211-22.3-.322-26.4-1.382s-14.123-9.986-11.913-14.33,11.913-6.348,11.913-6.348Z" transform="translate(-64.832 -283.653)" fill="#2b478b"/>
    <path id="Path_22504" data-name="Path 22504" d="M261.066,512.25a31.786,31.786,0,0,1-6.938-1.51c-2.661-.862-4.805-2.124-3.424-4.537,1.275-2.24,3.337-7.247,3.2-11.393l4.95,3.989,3.362,2.706a39.508,39.508,0,0,1-.384,4.4c-.066.511-.144,1.06-.235,1.65a1.184,1.184,0,0,0,.553,1.2l.074.05a1.877,1.877,0,0,1-1.155,3.461Z" transform="translate(-63.959 -202.311)" fill="#ffb27d"/>
    <path id="Path_22505" data-name="Path 22505" d="M270.783,506.435a8.125,8.125,0,0,1-.124,2.722,14.044,14.044,0,0,1-5.8-2.887c1.526-.413,2.083-2.062,3.217-1.914l2.706,2.062Z" transform="translate(-72.53 -207.915)" fill="#ed975d"/>
    <path id="Path_22506" data-name="Path 22506" d="M266.293,483.418s-11.529,1.914-12.614-5.284-3.3-11.8,4.018-13.327,9.161,1.007,10.11,3.3,1.456,14.606-1.514,15.291Z" transform="translate(-65.267 -184.41)" fill="#ffb27d"/>
    <path id="Path_22507" data-name="Path 22507" d="M265.869,462.765c.495,1.732-.825,3.844-3.056,4.537-3.3,1.035-2.57,5.082-4.059,5.028s-2.083-2.326-3.411-.511c-1.13,1.547.945,3.387.8,4.236-.243,1.456-2.529,4.442-4.587,4.29s-5.911-9.933-5.14-12.96,3.853-6.216,6.769-6.657,6.967.825,7.9.825,4.517.28,4.785,1.217Z" transform="translate(-61.635 -182.232)" fill="#2b478b"/>
    <path id="Path_22508" data-name="Path 22508" d="M253.673,563.1c-.194,1.65-.544,2.793-1.093,3.16-1.72,1.151-4,2.582-6.542,4-9.017,5.028-21.367,9.9-23.875,1.382-2.953-9.982-1.015-28.725,1.881-40.37,1.65-6.707,6.27-13.744,9.384-13.736,5.309,0,12.935,1.407,16.017,9,1.192,2.945,2.945,13.146,3.84,22.489A77.647,77.647,0,0,1,253.673,563.1Z" transform="translate(-46.58 -215.666)" fill="#fff"/>
    <path id="Path_22509" data-name="Path 22509" d="M250.28,513.856l1.2-2.706s10.65,1.085,12.461,7.206C263.941,518.356,255.692,513.988,250.28,513.856Z" transform="translate(-63.964 -211.911)" fill="#dfebfd"/>
    <path id="Path_22510" data-name="Path 22510" d="M275.154,605.1c-.194,1.65-.544,2.793-1.093,3.16-1.72,1.151-4,2.582-6.542,4-2.652-1.613-8.1-5.465-9.376-10-1.65-5.931-.5-13.232-.5-13.232l17.51,16.087Z" transform="translate(-68.061 -257.667)" fill="#dfebfd"/>
    <path id="Path_22511" data-name="Path 22511" d="M255.51,537.18s.924,25.5,2.376,30.524c2.475,8.6,25.021,11.661,25.021,11.661a4.624,4.624,0,0,0,.738-4.009s-13.5-10.613-13.876-12.639,2.937-15.732-.87-20.715S258.072,532.7,255.51,537.18Z" transform="translate(-67.036 -226.103)" fill="#fff"/>
    <path id="Path_22512" data-name="Path 22512" d="M185.44,726.837h-.074a1.011,1.011,0,0,1-1.019-1.081L188.4,685.3l3.539.314-5.82,40.675a.652.652,0,0,1-.676.549Z" transform="translate(-25.225 -314.227)" fill="#77a4e5"/>
    <path id="Path_22513" data-name="Path 22513" d="M235.969,726.837h-.074a1.006,1.006,0,0,1-1.019-1.081l4.051-40.456,3.535.314-5.82,40.675a.652.652,0,0,1-.672.549Z" transform="translate(-54.912 -314.227)" fill="#77a4e5"/>
    <path id="Path_22514" data-name="Path 22514" d="M323.182,726.837h.074a1.011,1.011,0,0,0,1.019-1.081L320.225,685.3l-3.535.314,5.816,40.675a.656.656,0,0,0,.677.549Z" transform="translate(-102.981 -314.227)" fill="#77a4e5"/>
    <path id="Path_22515" data-name="Path 22515" d="M184.154,607.937l-3.844-33.791c-.5-4.871,1.126-9.64,8.151-10.007l12.375-.755c7.33-.3,10.638,5.8,11.55,10.494L219.723,611l-35.573-3.085Z" transform="translate(-22.806 -242.594)" fill="#77a4e5"/>
    <path id="Path_22516" data-name="Path 22516" d="M191.9,677.61h54.959a2.013,2.013,0,0,0,2-2v-2.52a2.009,2.009,0,0,0-2-2H189.89v4.5a2.021,2.021,0,0,0,2.009,2.021Z" transform="translate(-28.484 -305.873)" fill="#77a4e5"/>
    <path id="Path_22517" data-name="Path 22517" d="M191.449,677.609h32.388a1.563,1.563,0,0,0,1.559-1.555v-3.419a1.559,1.559,0,0,0-1.559-1.555H189.89v4.95a1.567,1.567,0,0,0,1.559,1.568Z" transform="translate(-28.484 -305.873)" fill="#77a4e5"/>
    <path id="Path_22518" data-name="Path 22518" d="M637.253,787.139H148.769a.689.689,0,0,1-.689-.689v-.631a.689.689,0,0,1,.689-.689H637.253a.693.693,0,0,1,.693.689v.631a.693.693,0,0,1-.693.689Z" transform="translate(-3.919 -372.879)" fill="#2e3552"/>
    <path id="Path_22519" data-name="Path 22519" d="M371.2,392.073H352.254a1.588,1.588,0,0,1-1.584-1.584V372.224a1.588,1.588,0,0,1,1.584-1.584h18.937a1.588,1.588,0,0,1,1.584,1.584v18.269a1.584,1.584,0,0,1-1.58,1.58Z" transform="translate(-122.944 -129.359)" fill="#77a4e5"/>
    <path id="Path_22520" data-name="Path 22520" d="M371.923,392.263H354.558a1.452,1.452,0,0,1-1.448-1.448v-16.7a1.452,1.452,0,0,1,1.448-1.448h17.366a1.452,1.452,0,0,1,1.448,1.448v16.7A1.452,1.452,0,0,1,371.923,392.263Z" transform="translate(-124.378 -130.552)" fill="#dfebfd"/>
    <path id="Path_22521" data-name="Path 22521" d="M376.4,376.782a.458.458,0,1,1,.133.326A.462.462,0,0,1,376.4,376.782Z" transform="translate(-138.061 -132.697)" fill="#77a4e5"/>
    <path id="Path_22522" data-name="Path 22522" d="M385.3,378.665a.458.458,0,1,1,.177.623A.458.458,0,0,1,385.3,378.665Z" transform="translate(-143.257 -133.936)" fill="#77a4e5"/>
    <path id="Path_22523" data-name="Path 22523" d="M392.776,385.029a.458.458,0,1,1-.2.288A.458.458,0,0,1,392.776,385.029Z" transform="translate(-147.557 -137.772)" fill="#77a4e5"/>
    <path id="Path_22524" data-name="Path 22524" d="M396.232,394.59a.462.462,0,1,1-.462.462A.462.462,0,0,1,396.232,394.59Z" transform="translate(-149.441 -143.43)" fill="#77a4e5"/>
    <path id="Path_22525" data-name="Path 22525" d="M393.827,405.379a.458.458,0,1,1-.648,0,.458.458,0,0,1,.648,0Z" transform="translate(-147.84 -149.69)" fill="#77a4e5"/>
    <path id="Path_22526" data-name="Path 22526" d="M386.887,412.389a.458.458,0,1,1-.648,0,.458.458,0,0,1,.648,0Z" transform="translate(-143.763 -153.809)" fill="#77a4e5"/>
    <path id="Path_22527" data-name="Path 22527" d="M376.4,415.532a.458.458,0,1,1,.133.326A.462.462,0,0,1,376.4,415.532Z" transform="translate(-138.061 -155.463)" fill="#77a4e5"/>
    <path id="Path_22528" data-name="Path 22528" d="M368.382,378.662a.46.46,0,1,0-.179.625A.46.46,0,0,0,368.382,378.662Z" transform="translate(-132.844 -133.933)" fill="#77a4e5"/>
    <path id="Path_22529" data-name="Path 22529" d="M360.9,385.027a.458.458,0,1,0,.138.633A.458.458,0,0,0,360.9,385.027Z" transform="translate(-128.543 -137.769)" fill="#77a4e5"/>
    <path id="Path_22530" data-name="Path 22530" d="M357.436,394.59a.462.462,0,1,0,.458.462A.462.462,0,0,0,357.436,394.59Z" transform="translate(-126.646 -143.43)" fill="#77a4e5"/>
    <path id="Path_22531" data-name="Path 22531" d="M359.859,405.379a.458.458,0,1,0,.648,0,.458.458,0,0,0-.648,0Z" transform="translate(-128.264 -149.69)" fill="#77a4e5"/>
    <path id="Path_22532" data-name="Path 22532" d="M366.809,412.389a.458.458,0,1,0,.648,0,.458.458,0,0,0-.648,0Z" transform="translate(-132.348 -153.809)" fill="#77a4e5"/>
    <path id="Path_22533" data-name="Path 22533" d="M377.21,395.046a.462.462,0,1,1,.462.458.462.462,0,0,1-.462-.458Z" transform="translate(-138.537 -143.425)" fill="#77a4e5"/>
    <path id="Path_22534" data-name="Path 22534" d="M378.445,387.7h-.165V382h.165v5.7Z" transform="translate(-139.166 -136.034)" fill="#77a4e5"/>
    <path id="Path_22535" data-name="Path 22535" d="M378.135,392.221l-.235-.293,3.044-2.388.231.3-3.04,2.384Z" transform="translate(-138.943 -140.463)" fill="#77a4e5"/>
  </g>
</svg>
