<svg id="art-illustration" xmlns="http://www.w3.org/2000/svg" width="490.848" height="348.186" viewBox="0 0 490.848 348.186">
  <g id="OBJECTS" transform="translate(0)">
    <path id="Path_9523" data-name="Path 9523" d="M559.581,162.951H495.32L559.581,97.43Z" transform="translate(-102.796 -20.22)"/>
    <path id="Path_9524" data-name="Path 9524" d="M133.06,305.887a8.059,8.059,0,1,1,2.361,5.707A8.067,8.067,0,0,1,133.06,305.887Z" transform="translate(-81.383 -87.809)"/>
    <circle id="Ellipse_43" data-name="Ellipse 43" cx="35.185" cy="35.185" r="35.185" transform="translate(48.503 172.902) rotate(-45)"/>
    <rect id="Rectangle_721" data-name="Rectangle 721" width="62.89" height="79.873" transform="translate(339.072 32.903)" fill="#fff" stroke="#d7d7fa" stroke-width="1"/>
    <rect id="Rectangle_722" data-name="Rectangle 722" width="49.965" height="67.605" transform="translate(345.531 39.037)" fill="#fff" stroke="#d7d7fa" stroke-width="1"/>
    <rect id="Rectangle_723" data-name="Rectangle 723" width="17.284" height="32.697" transform="translate(352.354 53.214)" fill="#ffc527"/>
    <circle id="Ellipse_44" data-name="Ellipse 44" cx="12.378" cy="12.378" r="12.378" transform="matrix(0.832, -0.555, 0.555, 0.832, 359.105, 79.885)" fill="#ff9abb"/>
    <path id="Path_9525" data-name="Path 9525" d="M466.959,120.2H455.54l5.706-9.478Z" transform="translate(-94.54 -22.978)"/>
    <rect id="Rectangle_724" data-name="Rectangle 724" width="16.88" height="16.88" transform="translate(366.864 46.866)"/>
    <path id="Path_9526" data-name="Path 9526" d="M265.913,146.057c0,7.322-4.477,13.377-10.3,14.312-.919,3.439-1.038,19.669-1.125,22.268s2.568,5.65,0,5.65-1.672-2.306-1.141-5.65c.5-3.122.674-19.637-.674-21.888a1.2,1.2,0,0,0-.594.792c-.792,4.256-3.408,7.354-6.474,7.354-3.733,0-6.752-4.612-6.752-10.3,0-3.717,1.292-6.974,3.217-8.788a1.014,1.014,0,0,0,.365-.9,17.433,17.433,0,0,1-.222-2.829,16.975,16.975,0,0,1,.792-5.1,1.078,1.078,0,0,0-.468-1.173,4.366,4.366,0,0,1-1.72-3.519,4.137,4.137,0,0,1,3.962-4.279,3.741,3.741,0,0,1,2.29.792,2.06,2.06,0,0,0,2.124.119,9.954,9.954,0,0,1,4.866-1.276h0a1.585,1.585,0,0,0,1.648-1.078c.515-2.877,2.5-5.024,4.874-5.024,2.758,0,4.993,2.9,4.993,6.474a8.814,8.814,0,0,1-.055.927,4.921,4.921,0,0,1,4.6,5.056,5.016,5.016,0,0,1-3.376,4.826,1.228,1.228,0,0,0-.983,1.2,19.426,19.426,0,0,1,.151,2.029Z" transform="translate(-103.338 -52.055)"/>
    <path id="Path_9527" data-name="Path 9527" d="M238.124,149.074c-1.046.222-1.054,2.251,0,2.576S239.709,148.749,238.124,149.074Z" transform="translate(-103.024 -56.934)"/>
    <path id="Path_9528" data-name="Path 9528" d="M261.9,191.911c-1.918.42-.927,4.359.919,4.16S264.022,191.443,261.9,191.911Z" transform="translate(-107.906 -65.822)"/>
    <path id="Path_9529" data-name="Path 9529" d="M339.65,322.442c-1.434-1.109-.681-4.826,1.68-4.2S341.076,323.583,339.65,322.442Z" transform="translate(-124.107 -92.032)" fill="#ffc527"/>
    <path id="Path_9530" data-name="Path 9530" d="M380.811,317.228c2.488-.539,5.825,3.629,3.019,5.619S378.307,317.758,380.811,317.228Z" transform="translate(-132.595 -91.827)" fill="#ffc527"/>
    <path id="Path_9531" data-name="Path 9531" d="M367.815,307.314a12.355,12.355,0,0,1-4.5,9.1h.071a4.76,4.76,0,0,0-.444.285l-.166.119c-1.585,1.212-1.878,3.17-1.585,8.384.349,5.825,1.514,9.66-.586,9.66s-.436-4.517-.436-9.224-.214-4.977-1.585-7.093a9.362,9.362,0,0,1-1.712.151,11.152,11.152,0,0,1-1.149-.063.274.274,0,0,1-.04.063c-1.419,2.227-.943,8.8-.943,13.472s2.116,10.167,0,10.167-1.355-3.843-1.006-9.676c.333-5.65-.753-14.264-2.718-15.849l-.174-.127a12.355,12.355,0,0,1-4.874-10,10.857,10.857,0,0,1,.111-1.585h-.111a8.257,8.257,0,0,1-5.547-2.322,2.164,2.164,0,0,0-2.837-.111,5.135,5.135,0,0,1-3.265,1.189c-3.17,0-5.737-3-5.737-6.688s2.568-6.7,5.737-6.7a4.444,4.444,0,0,1,1.522.254c.087-7.719,4.6-13.939,10.159-13.939,3.962,0,7.441,3.17,9.105,7.861a7.259,7.259,0,0,1,3.962-1.181,7.394,7.394,0,0,1,4.755,1.751,11.238,11.238,0,0,1,3.962-.642,11.388,11.388,0,0,1,0,22.775Z" transform="translate(-121.96 -83.442)" fill="#ffc527"/>
    <path id="Path_9532" data-name="Path 9532" d="M346.7,318.928c-1.49.4-2.2-2.591-.991-2.877C347.31,315.679,348.189,318.524,346.7,318.928Z" transform="translate(-125.388 -91.585)" fill="#ffc527"/>
    <path id="Path_9533" data-name="Path 9533" d="M374.719,339.758c-1.49.4-2.2-2.591-1-2.877C375.329,336.517,376.193,339.346,374.719,339.758Z" transform="translate(-131.202 -95.909)" fill="#ffc527"/>
    <ellipse id="Ellipse_45" data-name="Ellipse 45" cx="35.392" cy="8.281" rx="35.392" ry="8.281" transform="translate(404.855 298.316)" fill="#100e3a" opacity="0.1"/>
    <path id="Path_9534" data-name="Path 9534" d="M320.488,425.53c-55.79,0-105.4,2.8-137.184,7.132-10.445-3.392-30.692-5.69-53.967-5.69-33.957,0-61.487,4.9-61.487,10.944s27.53,10.968,61.487,10.968c7.727,0,15.112-.254,21.928-.721,17.68,8.21,86.727,14.336,169.223,14.336,95.888,0,173.605-8.273,173.605-18.48S416.369,425.53,320.488,425.53Z" transform="translate(-67.85 -114.313)" fill="#100e3a" opacity="0.1"/>
    <path id="Path_9535" data-name="Path 9535" d="M247.395,437.233c-3,0-5.84-.127-8.384-.341-1.236.864-4.3,1.482-7.885,1.482-4.676,0-8.456-1.046-8.456-2.377,0-.975,2.179-1.815,5.278-2.163a.619.619,0,0,1,0-.174c0-1.949,8.717-3.534,19.479-3.534,1.03,0,2.029,0,3,.048a14.8,14.8,0,0,1,5.016-.753c3.392,0,6.165.792,6.467,1.87,3.114.634,5.008,1.474,5.008,2.377C266.89,435.648,258.157,437.233,247.395,437.233Z" transform="translate(-99.98 -115.119)" fill="#ff9abb"/>
    <path id="Path_9536" data-name="Path 9536" d="M271.656,446.725c0,.888-1.585,1.585-3.455,1.585s-3.471-.713-3.471-1.585,1.585-1.585,3.471-1.585S271.656,445.822,271.656,446.725Z" transform="translate(-108.709 -118.383)" fill="#ff9abb"/>
    <path id="Path_9537" data-name="Path 9537" d="M287.559,428.5c0,.452-.975.792-2.179.792s-2.179-.372-2.179-.792.975-.792,2.179-.792S287.559,428.051,287.559,428.5Z" transform="translate(-112.543 -114.765)" fill="#ff9abb"/>
    <path id="Path_9538" data-name="Path 9538" d="M459.251,432.72c0,1.87-5.73,3.384-12.8,3.384a1.276,1.276,0,0,1,.4.856c0,2.156-7.251,3.9-16.2,3.9a56.266,56.266,0,0,1-9.763-.792c-.666.65-2.441,1.109-4.525,1.109-2.647,0-4.8-.737-4.8-1.672,0-.737,1.426-1.379,3.384-1.585a1.307,1.307,0,0,1-.491-.951c0-2.156,7.259-3.9,16.2-3.9,1.062,0,2.092,0,3.1.071a.84.84,0,0,1-.1-.412c0-1.862,5.737-3.368,12.806-3.368S459.251,430.858,459.251,432.72Z" transform="translate(-139.182 -115.108)" fill="#db6a57"/>
    <path id="Path_9539" data-name="Path 9539" d="M422.77,430.214c0-.475.943-.864,2.108-.864s2.124.388,2.124.864-.951.872-2.124.872S422.77,430.7,422.77,430.214Z" transform="translate(-141.508 -115.106)" fill="#db6a57"/>
    <line id="Line_13" data-name="Line 13" x2="437.853" transform="translate(18.932 293.965)" fill="none" stroke="#100e3a" stroke-linecap="round" stroke-linejoin="round" stroke-width="1"/>
    <path id="Path_9540" data-name="Path 9540" d="M233.563,329.757H221.589l-3.051-112.689-.475-17.617L213.3,23.81l4.763.468,8.884,175.175.9,17.617Z" transform="translate(-44.267 -4.941)" fill="#db6a57"/>
    <path id="Path_9541" data-name="Path 9541" d="M229.1,263.067h-9.311l-.475-17.617h8.884Z" transform="translate(-45.514 -50.939)" fill="#100e3a"/>
    <path id="Path_9542" data-name="Path 9542" d="M316.526,330.542H302.642L283.623,217.853l-2.972-17.617L251.52,27.59l4.842.483L290.6,200.237l3.511,17.617Z" transform="translate(-52.199 -5.726)" fill="#db6a57"/>
    <path id="Path_9543" data-name="Path 9543" d="M301.744,263.067H291.252L288.28,245.45h9.953Z" transform="translate(-59.828 -50.939)" fill="#100e3a"/>
    <path id="Path_9544" data-name="Path 9544" d="M260.41,199.686H249.086L230.36,0,234.4.4Z" transform="translate(-47.808)" fill="#db6a57"/>
    <path id="Path_9545" data-name="Path 9545" d="M197.4,110.86V134.8L182.293,197.12l-40.757,150.7H130.6L181.1,171.88Z" transform="translate(-27.104 -23.007)" fill="#db6a57"/>
    <path id="Path_9546" data-name="Path 9546" d="M210.631,110.86V134.8L195.519,197.12l-1.189-25.24Z" transform="translate(-40.33 -23.007)" fill="#100e3a"/>
    <path id="Path_9547" data-name="Path 9547" d="M207.607,202.348h83.058L259.814,58.84,202.4,53.15Z" transform="translate(-42.005 -11.03)" fill="#fff" stroke="#d7d7fa" stroke-width="1"/>
    <path id="Path_9548" data-name="Path 9548" d="M201,52.65l-3.312,5.722,4.644,143.872h4.3Z" transform="translate(-41.027 -10.927)" fill="#d7d7fa"/>
    <rect id="Rectangle_725" data-name="Rectangle 725" width="94.612" height="5.397" transform="translate(157.693 190.81)" fill="#db6a57"/>
    <circle id="Ellipse_46" data-name="Ellipse 46" cx="12.014" cy="12.014" r="12.014" transform="translate(170.961 164.07) rotate(-45)" fill="#ff9abb"/>
    <path id="Path_9549" data-name="Path 9549" d="M218.25,117.879,239.282,78.39l31.889,64.943Z" transform="translate(-45.294 -16.269)" fill="#ffc527"/>
    <path id="Path_9550" data-name="Path 9550" d="M318.623,193.761a.222.222,0,0,1-.222.238.412.412,0,0,1-.325-.135.642.642,0,0,1-.111-.341l-.071-.349-.261-1.426-.531-2.837-1.062-5.682h0l-.261-.46h0a29.4,29.4,0,0,1-9.4-8.226c-2.369-3.471-3.962-7.394-6.015-11.039l-.2-.341a1.093,1.093,0,0,1-.182-.428.246.246,0,0,1,.127-.2.429.429,0,0,1,.158,0,.793.793,0,0,1,.23.055,1.813,1.813,0,0,1,.372.19l1.331.848,1.3.9,1.26.951a31.237,31.237,0,0,1,4.533,4.39,48.579,48.579,0,0,1,6.514,10.785l-.523.182a80.776,80.776,0,0,0-2.148-7.877,58.338,58.338,0,0,0-3.114-7.528,48.379,48.379,0,0,0-9.4-13.187h.515a2.013,2.013,0,0,1-1.426.254,6.618,6.618,0,0,1-1.228-.285c-.38-.119-.793-.285-1.117-.4a4.835,4.835,0,0,0-1.07-.214h.206a5.286,5.286,0,0,0-1.7,2.084c-.246.428-.491.864-.792,1.292a3.011,3.011,0,0,1-1.26,1.078,1.831,1.831,0,0,1-1.759-.166,3.439,3.439,0,0,1-1.086-1.236,3.788,3.788,0,0,1-.127-3.17l.269.475a.951.951,0,0,1-.523-.269.847.847,0,0,1-.159-.23,1.68,1.68,0,0,1-.206-1.149l.523.38a4.922,4.922,0,0,1-1.157.468,2.259,2.259,0,0,1-1.355,0,2,2,0,0,1-1.07-.88,3.724,3.724,0,0,1-.428-1.228,2.789,2.789,0,0,1,.84-2.417,5.547,5.547,0,0,1,2.132-1.252l-.1.578a2.25,2.25,0,0,1-.792-1.141,1.514,1.514,0,0,1,0-.792,1.133,1.133,0,0,1,.507-.65v.539a8.4,8.4,0,0,1-.991-.864,2.148,2.148,0,0,1-.682-1.276,1.078,1.078,0,0,1,.3-.792,2.021,2.021,0,0,1,.658-.4,3.083,3.083,0,0,1,1.395,0,15.311,15.311,0,0,1,4.668,2.116,33.49,33.49,0,0,1,4.129,2.956,11.1,11.1,0,0,1,3.17,4.01h0a4.8,4.8,0,0,1,.4.927,2.5,2.5,0,0,1,.111,1.038l-.063-.166a47.285,47.285,0,0,1,7.552,8.979,55.875,55.875,0,0,1,5.294,10.461A71.06,71.06,0,0,1,318.623,193.761Zm0,0a70.83,70.83,0,0,0-4.588-22.878,50.274,50.274,0,0,0-12.988-19.2l-.071-.063v-.1a3.051,3.051,0,0,0-.475-1.712h0a10.563,10.563,0,0,0-3.075-3.812,32.047,32.047,0,0,0-4.1-2.853,14.8,14.8,0,0,0-4.493-1.989,2.48,2.48,0,0,0-1.109,0c-.3.119-.579.357-.539.6a1.68,1.68,0,0,0,.531.872,6.794,6.794,0,0,0,.919.792l.38.277-.4.262a.452.452,0,0,0-.214.277.857.857,0,0,0,0,.42,1.7,1.7,0,0,0,.579.792l.46.372-.571.206A4.755,4.755,0,0,0,287,147.117a2.06,2.06,0,0,0-.634,1.831,1.831,1.831,0,0,0,1.03,1.545,2.7,2.7,0,0,0,1.949-.42l.666-.349-.143.729a.951.951,0,0,0,.063.531l.063.135c0,.055.055.1.055.079a.19.19,0,0,0,.135.055l.428.079-.151.4a3.035,3.035,0,0,0,.1,2.56,2.931,2.931,0,0,0,.84.967,1.1,1.1,0,0,0,1.062.1c.737-.309,1.2-1.228,1.688-2.06a5.769,5.769,0,0,1,2.013-2.377l.1-.055h.119a5.325,5.325,0,0,1,1.244.246c.42.143.737.285,1.109.4a6.221,6.221,0,0,0,1.078.254,1.4,1.4,0,0,0,.864-.1l.277-.2.23.23a49.251,49.251,0,0,1,9.51,13.472A58.087,58.087,0,0,1,313.8,172.8a81.018,81.018,0,0,1,2.068,7.964l.523,2.472-1.054-2.3a48.492,48.492,0,0,0-6.34-10.762,30.582,30.582,0,0,0-4.438-4.39l-1.2-1.006-1.268-.911-1.315-.856a1.261,1.261,0,0,0-.317-.174.715.715,0,0,0-.151-.04s-.04,0,0,0h0a1.306,1.306,0,0,0,.143.285l.19.349c2.013,3.685,3.519,7.631,5.888,11.095a29.621,29.621,0,0,0,9.335,8.25h0l.261.468h0l1.03,5.682.515,2.845.254,1.419.063.357a.642.642,0,0,0,.111.341.412.412,0,0,0,.325.135.238.238,0,0,0,.2-.262Z" transform="translate(-113.05 -55.159)" fill="#d7d7fa"/>
    <path id="Path_9551" data-name="Path 9551" d="M325.209,134.667a1.53,1.53,0,0,1-.42,1.117,1.672,1.672,0,0,1-1.149.372,6.189,6.189,0,0,1-2.377-.626c-.753-.317-1.49-.674-2.251-.975a5.936,5.936,0,0,0-2.377-.531h0a4.383,4.383,0,0,0-.872.84c-.23.333-.452.674-.705,1a5.935,5.935,0,0,1-.856.872,1.91,1.91,0,0,1-1.133.468h0a35.415,35.415,0,0,0-2.377,9.676,51.81,51.81,0,0,0-.1,9.977,84.9,84.9,0,0,0,4.232,19.479c1.054,3.17,2.274,6.268,3.408,9.407.571,1.585,1.117,3.17,1.585,4.755a.721.721,0,0,1,0,.5.618.618,0,0,1-.436.349.792.792,0,0,1-.84-.365c-.23-.436-.372-.792-.555-1.165-.349-.792-.689-1.529-1.014-2.3-1.315-3.075-2.465-6.221-3.519-9.391-.531-1.585-1.046-3.17-1.529-4.755l-1.395-4.826.119.19a37.833,37.833,0,0,1-8.4-9,42.072,42.072,0,0,1-4.818-11.34l-.341-1.553a.864.864,0,0,1,0-.626.5.5,0,0,1,.261-.246.571.571,0,0,1,.293,0,.927.927,0,0,1,.317.135c.254.19.412.341.618.515a28.71,28.71,0,0,1,2.29,2.084,34.3,34.3,0,0,1,3.962,4.755,43.705,43.705,0,0,1,3.17,5.31c.919,1.839,1.735,3.717,2.56,5.547l-.563.174a55.018,55.018,0,0,1-1.03-6.95,48.61,48.61,0,0,1,0-7.045,39.575,39.575,0,0,1,1.1-6.942,36.8,36.8,0,0,1,2.377-6.617l.048.174a2.948,2.948,0,0,1-.792-.991,5.051,5.051,0,0,1-.444-1.165h0a9.993,9.993,0,0,1-.388-5.325,26.733,26.733,0,0,1,1.482-5.143,19.343,19.343,0,0,1,1.125-2.433,6.8,6.8,0,0,1,1.672-2.092,2.235,2.235,0,0,1,1.268-.46,1.442,1.442,0,0,1,1.22.507,2.084,2.084,0,0,1,.333,1.308,6.776,6.776,0,0,1-.214,1.323l-.04-.055a1.22,1.22,0,0,1,.7.206,1.585,1.585,0,0,1,.5.523,1.886,1.886,0,0,1,.23,1.4l-.04-.048a7.418,7.418,0,0,1,2.774,0,4.1,4.1,0,0,1,2.377,1.355,4.153,4.153,0,0,1,.682,1.212,1.53,1.53,0,0,1-.048,1.363,1.791,1.791,0,0,1-1.149.737,5.429,5.429,0,0,1-1.379.166h0a1.894,1.894,0,0,1,.515.682,1.587,1.587,0,0,1,.119.42.476.476,0,0,1-.166.388h0a6.245,6.245,0,0,1,1.712,1.545A3.527,3.527,0,0,1,325.209,134.667Zm0,0a3.519,3.519,0,0,0-.705-2.156,6.063,6.063,0,0,0-1.712-1.529h0a.475.475,0,0,0,.158-.38,1.474,1.474,0,0,0-.119-.4,1.815,1.815,0,0,0-.507-.682h.04a5.706,5.706,0,0,0,1.371-.174,1.744,1.744,0,0,0,1.125-.729,1.521,1.521,0,0,0,0-1.323,4.177,4.177,0,0,0-.682-1.2,4.049,4.049,0,0,0-2.377-1.323,7.5,7.5,0,0,0-2.758,0H319v-.048a1.823,1.823,0,0,0-.23-1.347,1.315,1.315,0,0,0-1.125-.682h-.032v-.063a6.6,6.6,0,0,0,.2-1.308,1.989,1.989,0,0,0-.317-1.236,1.316,1.316,0,0,0-1.141-.46,2,2,0,0,0-1.2.444,6.728,6.728,0,0,0-1.625,2.052,17.48,17.48,0,0,0-1.094,2.425,26.322,26.322,0,0,0-1.419,5.127,9.787,9.787,0,0,0,.428,5.191h0a4.967,4.967,0,0,0,.436,1.109,2.647,2.647,0,0,0,.729.88l.1.071-.048.111a36.591,36.591,0,0,0-2.282,6.585,39.562,39.562,0,0,0-1.014,6.887,46.449,46.449,0,0,0,.119,6.966,52.962,52.962,0,0,0,1.094,6.9l.626,2.821-1.2-2.655a60.535,60.535,0,0,0-5.73-10.73,33.527,33.527,0,0,0-3.915-4.62c-.721-.705-1.466-1.395-2.251-2.029-.182-.151-.4-.349-.555-.46h0c.055,0,.206-.04.23-.127s0,0,.04.119l.4,1.466a41.826,41.826,0,0,0,4.755,11.095,36.922,36.922,0,0,0,8.2,8.86l.087.079v.119a166.188,166.188,0,0,0,6.348,18.94c.317.792.642,1.529.983,2.29l.5,1.1a.246.246,0,0,0,.23.119c.048,0,.048,0,0-.127-.475-1.585-1-3.17-1.545-4.755-1.1-3.17-2.29-6.268-3.312-9.454a85.326,85.326,0,0,1-3.986-19.582,54.836,54.836,0,0,1,.182-10.009,35.549,35.549,0,0,1,2.441-9.684h0a1.823,1.823,0,0,0,1.094-.452,5.548,5.548,0,0,0,.856-.864c.254-.309.475-.65.713-.991a4.209,4.209,0,0,1,.88-.84h0a5.92,5.92,0,0,1,2.377.539c.792.3,1.5.666,2.251.991a6.34,6.34,0,0,0,2.377.634,1.656,1.656,0,0,0,1.141-.372A1.505,1.505,0,0,0,325.209,134.667Z" transform="translate(-115.412 -50.8)" fill="#d7d7fa"/>
    <path id="Path_9552" data-name="Path 9552" d="M343.306,146.511a1.315,1.315,0,0,1-.349.856,1.276,1.276,0,0,1-.864.317,4.977,4.977,0,0,1-1.815-.452h0a1.363,1.363,0,0,1,.174.7,1.29,1.29,0,0,1-.063.357.468.468,0,0,1-.3.206h0a3.716,3.716,0,0,1,.864,2.948,1.743,1.743,0,0,1-.9,1.26,1.886,1.886,0,0,1-1.537-.238,12.1,12.1,0,0,1-2.338-2.116,7.805,7.805,0,0,0-2.441-1.942h0a3.876,3.876,0,0,0-1.07.277c-.333.151-.674.333-1.022.468a5.129,5.129,0,0,1-1.086.3,1.838,1.838,0,0,1-1.125-.143h.071a29.012,29.012,0,0,0-3.17,6.791,39.332,39.332,0,0,0-1.585,7.338,46.442,46.442,0,0,0-.325,7.5,73.884,73.884,0,0,0,.682,7.481h-.476a35.743,35.743,0,0,1,2.536-10.881,19.329,19.329,0,0,1,3.011-4.755c.309-.349.618-.705.943-1.046l1.006-.991,1.054-.927a1.276,1.276,0,0,1,.42-.246.658.658,0,0,1,.365,0,.483.483,0,0,1,.365.42,1.514,1.514,0,0,1-.055.452l-.071.341c-.713,3.606-.864,7.362-1.981,10.991A15.056,15.056,0,0,1,329.6,176.8a25.668,25.668,0,0,1-4.026,3.962l.135-.214-.1.475v-.143l1.109,6.879.555,3.439v.254a.578.578,0,0,1-.206.475.689.689,0,0,1-.856,0,.856.856,0,0,1-.238-.357l-.056-.214-.127-.42-.491-1.68a71.668,71.668,0,0,1-2.5-13.741,49.539,49.539,0,0,1,.705-13.939,32.832,32.832,0,0,1,5.452-12.775v.111a3.17,3.17,0,0,1-.143-1.942h0a8,8,0,0,1,2.282-4.6,23.481,23.481,0,0,1,3.891-3.416,8.844,8.844,0,0,1,2.314-1.173,2.274,2.274,0,0,1,2.433.491,1.141,1.141,0,0,1,0,1.252,4.353,4.353,0,0,1-.792,1.046,16.644,16.644,0,0,1-1.973,1.68h0a9.51,9.51,0,0,1,4.05,1.038,4.667,4.667,0,0,1,1.585,1.331,2.9,2.9,0,0,1,.705,1.894Zm0,0a2.948,2.948,0,0,0-.578-1.973,4.835,4.835,0,0,0-1.585-1.316,9.375,9.375,0,0,0-4.034-1.014h-.016a17.293,17.293,0,0,0,1.957-1.688,4.143,4.143,0,0,0,.753-1.03,1.094,1.094,0,0,0,0-1.189,2.219,2.219,0,0,0-2.377-.452,8.536,8.536,0,0,0-2.282,1.173,23.967,23.967,0,0,0-3.859,3.416,7.925,7.925,0,0,0-2.187,4.533h0a2.924,2.924,0,0,0,.143,1.807v.1a32.6,32.6,0,0,0-5.246,12.735,49.2,49.2,0,0,0-.523,13.813,75.974,75.974,0,0,0,2.615,13.607l.491,1.656.127.42.063.206h-.048a.206.206,0,0,0-.04.1v-.174l-.571-3.439-1.149-6.879v-.135l.1-.468v-.135l.1-.087c2.829-2.306,5.4-5.1,6.419-8.614s1.268-7.227,2.013-10.9l.119-.579s.087.174.159.174h0a.587.587,0,0,0-.182.111l-1.038.9-1.022.959c-.317.333-.61.674-.927,1.014a20.074,20.074,0,0,0-2.964,4.58,34.391,34.391,0,0,0-2.615,10.682l-.238,1.926-.238-1.918c-.3-2.5-.531-5.016-.586-7.536a47.081,47.081,0,0,1,.42-7.544,39.626,39.626,0,0,1,1.7-7.354,29.988,29.988,0,0,1,3.257-6.8v-.04h.048a1.775,1.775,0,0,0,1.054.135,5.634,5.634,0,0,0,1.094-.285c.349-.135.674-.3,1.014-.46a4.105,4.105,0,0,1,1.094-.277h0a7.814,7.814,0,0,1,2.465,1.965,11.99,11.99,0,0,0,2.314,2.124,1.807,1.807,0,0,0,1.49.238,1.7,1.7,0,0,0,.872-1.22,3.7,3.7,0,0,0-.84-2.924h0a.452.452,0,0,0,.285-.19,1.289,1.289,0,0,0,.063-.349,1.411,1.411,0,0,0-.166-.689h0a5.024,5.024,0,0,0,1.815.46,1.244,1.244,0,0,0,.856-.317A1.284,1.284,0,0,0,343.306,146.511Z" transform="translate(-120.718 -54.561)" fill="#d7d7fa"/>
    <path id="Path_9553" data-name="Path 9553" d="M342.927,143.189c-.792,0-1.585-.04-2.322,0l-.975.048.792-.674c.642-.571,1.308-1.086,1.918-1.64l.2-.182.2.1a1.387,1.387,0,0,1,.571.5,1.284,1.284,0,0,1,.214.7,1.268,1.268,0,0,1-.594,1.149Zm0,0a1.4,1.4,0,0,0,.111-1.07.959.959,0,0,0-.61-.634l.4-.071a9.455,9.455,0,0,1-2,1.7l-.206-.626a5.548,5.548,0,0,1,2.306.7Z" transform="translate(-124.254 -55.209)" fill="#d7d7fa"/>
    <path id="Path_9554" data-name="Path 9554" d="M329.63,150.353c-9.9,11.427-9.129,29.1-4.279,44.584.119.349.65.254.594-.079-.547-3.519-1.189-7.013-1.72-10.492l.111-.475c2.7-2.211,5.119-4.715,6.34-8.139,1.355-3.836,1.458-8.154,2.33-12.164.079-.38-.317-.269-.555-.071-6.284,5.238-7.679,10.873-8.551,18.4a61.947,61.947,0,0,1-.578-11.729c.428-7.132,2.377-14.264,6.68-19.526C330.153,150.464,329.8,150.155,329.63,150.353Z" transform="translate(-120.57 -57.191)"/>
    <path id="Path_9555" data-name="Path 9555" d="M333.615,149.281c2.021.071,3.772,3.281,5.484,4.216.9.5,1.7.468,2.163-.349,1.212-2.163-1.323-4.834-3.558-6.34,1.522.586,2.869,1.585,4.454,1.91.959.174,1.632-.174,1.7-1.117.23-2.956-3.677-4.263-6.229-4.327,1.1-.856,4.271-3.17,2.219-4.327s-5.7,2.179-6.879,3.273c-1.735,1.585-3.732,4.018-3.431,6.538C329.9,151.714,332.165,149.9,333.615,149.281Z" transform="translate(-122.154 -54.787)"/>
    <path id="Path_9556" data-name="Path 9556" d="M333.1,150.492c2.377-1.165,7.576.515,7.845-.46.539-1.973-3.606-3.336-5.777-3.6,1.878-.531,5.5-1.371,5.1-3.265-.5-2.306-5.809-.325-8.313,1.854-3.17,2.75-2.726,5.4-2.052,5.928C330.821,151.681,332.7,150.683,333.1,150.492Z" transform="translate(-122.133 -55.5)"/>
    <path id="Path_9557" data-name="Path 9557" d="M302.34,150.924c13.789,10.968,19.138,28.529,19.669,44.117,0,.357-.547.277-.61-.048-.682-3.526-1.244-7.013-1.926-10.492l-.269-.468a29.22,29.22,0,0,1-9.1-7.845c-2.679-3.756-4.271-8.051-6.522-11.99-.206-.38.222-.285.523-.1,8.059,4.961,11.388,10.508,14.859,17.949a69.172,69.172,0,0,0-3.495-11.665c-2.9-7.085-7.275-14.042-13.393-19.146A.206.206,0,1,1,302.34,150.924Z" transform="translate(-116.443 -57.31)"/>
    <path id="Path_9558" data-name="Path 9558" d="M297.121,150.025c-1.981.143-2.615,3.4-3.962,4.4a1.585,1.585,0,0,1-2.266-.269c-1.957-2.1-.357-4.85,1.347-6.419-1.308.642-2.29,1.72-3.764,2.076a1.688,1.688,0,0,1-2.084-1.054c-1.244-2.924,2.179-4.374,4.691-4.533-1.387-.792-5.341-3-3.7-4.216s6.419,1.949,7.972,3c2.282,1.529,5.1,3.843,5.666,6.34C301.678,152.291,298.777,150.587,297.121,150.025Z" transform="translate(-113.15 -55)"/>
    <path id="Path_9559" data-name="Path 9559" d="M298.328,151.2c-2.774-1.07-7.346.792-7.925-.158-1.228-1.942,2.425-3.447,4.493-3.8-2.052-.452-5.943-1.157-6.189-3.043-.309-2.314,5.658-.547,8.9,1.522,4.081,2.607,4.573,5.262,4.081,5.809C301,152.295,298.787,151.375,298.328,151.2Z" transform="translate(-113.683 -55.701)"/>
    <path id="Path_9560" data-name="Path 9560" d="M313.563,176.746A133.4,133.4,0,0,0,320,194.094c.246.515.983.38.792-.166-1.585-5.349-3.875-10.6-5.5-15.936a85.2,85.2,0,0,1-3.455-16.364c-.88-9.01.079-18.591,4.874-25.644.1-.166-.206-.4-.317-.246-9.652,13.718-5.175,30.542-4.937,32.055-2.544-5.682-5.262-12.2-12.458-17.981-.317-.246-.507-.127-.4.293,2.758,10.54,6.53,16.04,13.512,21.674C312.573,173.45,313.04,175.106,313.563,176.746Z" transform="translate(-115.732 -54.16)"/>
    <path id="Path_9561" data-name="Path 9561" d="M320.585,134.211c1.973-.935,5.31,1.759,7.433,1.942,1.125.1,1.878-.341,1.894-1.474.055-3.027-3.764-4.755-6.673-5.27,1.767-.111,3.59.365,5.262-.1a1.442,1.442,0,0,0,1.054-2.116c-1.3-3.4-5.722-2.9-8.2-1.688.61-1.506,2.457-5.7-.1-5.943s-4.351,5.3-4.921,7.132c-.832,2.671-1.506,6.34.079,9.018C318.263,138.8,319.515,135.629,320.585,134.211Z" transform="translate(-119.235 -50.812)"/>
    <path id="Path_9562" data-name="Path 9562" d="M320.439,135.83c1.688-2.5,7.536-3.241,7.3-4.462-.5-2.48-5.183-1.9-7.394-1.1,1.522-1.537,4.565-4.3,3.17-6.205-1.664-2.322-5.737,2.56-7.021,6.253-1.585,4.652.166,7.386,1.086,7.639C318.87,138.3,320.162,136.242,320.439,135.83Z" transform="translate(-119.319 -51.623)"/>
    <path id="Path_9563" data-name="Path 9563" d="M310.436,208.12c.277,4.153.444,8.3.618,12.45l.19,6.229c.055,2.076.143,4.153.166,6.229l-.388-.38c3.542.04,7.085,0,10.627.1s7.085.135,10.627.285c-3.542.151-7.085.23-10.627.285s-7.085.063-10.627.1h-.372v-.38c-.079-2.076-.087-4.153-.135-6.229l-.1-6.229C310.381,216.433,310.357,212.28,310.436,208.12Z" transform="translate(-118.184 -69.193)" fill="#d7d7fa"/>
    <path id="Path_9564" data-name="Path 9564" d="M332.056,229.165a2.084,2.084,0,0,0,.135-1.236c-1.331-7.314-9.43-9.51-13.749-10.144s-7.8-3.851-8.036-11.435a1.521,1.521,0,0,1,0-.19l-.4-16.642,19.859-.048s11.475,36.192,12.679,39.7Z" transform="translate(-118.106 -65.322)" fill="#db6a57"/>
    <path id="Path_9565" data-name="Path 9565" d="M310,189.217l10.255-.618,10.254-.539h.222l.063.214c2.084,6.728,4.065,13.472,6.094,20.24s3.962,13.519,5.967,20.279l.127.444h-.46l-14.431-.119q-7.211-.071-14.431-.23,7.219-.143,14.431-.222l14.431-.119-.325.444c-2.013-6.752-4.073-13.472-6.039-20.255s-3.962-13.519-5.9-20.3l.285.206-10.3.325Z" transform="translate(-118.104 -65.03)" fill="#d7d7fa"/>
    <path id="Path_9566" data-name="Path 9566" d="M450.662,143.887c.483,7.085-4.438,46.058-17.434,56.265-10.682,8.4-41.914-2.282-50.211-3.55-3.019-.468-.65-21.46,1.736-23.7,4.755.357,34.678,6.482,36.889,5.428S433.815,156,441.311,145.836C445.741,139.829,450.322,138.894,450.662,143.887Z" transform="translate(-132.963 -55.194)" fill="#eb9481"/>
    <path id="Path_9567" data-name="Path 9567" d="M383.891,204.588c-.792-.238-7.853-1.284-13.195-1.973-2.148-3.566-7.251-10.175-8.6-11.935-1.157-2.2-4.9-6.268-5.1-6.118-.357.277-1.64,1.268-3.3,2.377-2.187,1.426-5.008,3-7.2,3.32a2.837,2.837,0,0,1-2.813-.792c-1.109-1.434,1.918-3.962,5.246-7.346,4.517-4.565,10.3-9.922,13.765-9.644,5.1.412,11.055,5.286,13,6.53s9.288,3.059,9.288,3.059C389.692,193.557,384.953,204.913,383.891,204.588Z" transform="translate(-125.048 -61.794)" fill="#eb9481"/>
    <path id="Path_9568" data-name="Path 9568" d="M331.43,202.407s6.863-7.291,13.63-15.144,24.709-21.737,25.533-21.484-14.312,17.767-21.864,24.662-15.643,13.385-15.643,13.385Z" transform="translate(-122.552 -60.405)" fill="#ffc527"/>
    <path id="Path_9569" data-name="Path 9569" d="M263.29,177.94l4.493-5.23,2.583,2.7-5.262,4.3Z" transform="translate(-54.642 -35.843)" fill="#d7d7fa"/>
    <path id="Path_9570" data-name="Path 9570" d="M329.378,212.13a5.4,5.4,0,0,0-3.8,3.17,5.243,5.243,0,0,1-2.924,2.988s6.57.911,8.543-4.414Z" transform="translate(-120.73 -70.025)" fill="#100e3a"/>
    <path id="Path_9571" data-name="Path 9571" d="M322.334,219.393c.182-.341,1.823-.792,2.552-2.108s4.271.975,2.441,1.68C325.234,219.758,322,220.027,322.334,219.393Z" transform="translate(-120.659 -71.012)" fill="#eb9481"/>
    <path id="Path_9572" data-name="Path 9572" d="M372.134,207.373c-1.831-.222-3.455-.412-4.565-.507a13.107,13.107,0,0,1-8.836-4.049c-2.14-2.068-11.095-2.9-7.513-6.284s12.141,1.292,12.624.071a1.512,1.512,0,0,0-.309-1.165C364.883,197.2,369.987,203.775,372.134,207.373Z" transform="translate(-126.486 -66.528)" fill="#eb9481"/>
    <path id="Path_9573" data-name="Path 9573" d="M462.933,148.516c-.317,12.6-3.756,29.551-4.707,29.583a56.687,56.687,0,0,1-6.673-2.782c-5.769-2.623-13.234-6.189-13.591-6.49-.579-.5,7.211-12.775,13.21-21.325,5.151-7.322,10.35-10.6,11.53-3.455A24.647,24.647,0,0,1,462.933,148.516Z" transform="translate(-144.655 -55.069)"/>
    <path id="Path_9574" data-name="Path 9574" d="M440.5,172.17c3.843,1.189,17.688,7.132,18.718,8.059,0,0,0,.135-.055.119-3.273-1.276-10.144-3.772-18.734-8C440.378,172.32,440.441,172.154,440.5,172.17Z" transform="translate(-145.169 -61.732)" fill="#100e3a"/>
    <path id="Path_9575" data-name="Path 9575" d="M466.5,149.56c-.317,12.6-3.756,29.551-4.707,29.583a56.685,56.685,0,0,1-6.673-2.782l11.15-31.271A24.647,24.647,0,0,1,466.5,149.56Z" transform="translate(-148.222 -56.112)" fill="#100e3a"/>
    <path id="Path_9576" data-name="Path 9576" d="M525.206,422.2c1.72-1.22,35.376-47.5,35.542-50.076.071-.975-6.387-6.268-14.367-12.442-1.72-1.339-3.511-2.7-5.333-4.081-11.824-8.963-24.566-18.187-24.566-18.187l-22.6,30.906,25.208,17.347,5.547,3.812s-4.961,23.481-4.842,26.326S523.494,423.464,525.206,422.2Z" transform="translate(-156.266 -96.025)" fill="#eb9481"/>
    <path id="Path_9577" data-name="Path 9577" d="M531.8,426.959c1.72-1.22,35.376-47.5,35.542-50.076.079-1.189-9.462-8.717-19.7-16.523L525.67,390.4l5.547,3.812s-4.961,23.481-4.842,26.326S530.092,428.227,531.8,426.959Z" transform="translate(-162.863 -100.788)" fill="#fff"/>
    <path id="Path_9578" data-name="Path 9578" d="M531.982,428.028c1.72-1.22,35.376-47.5,35.542-50.076.071-.975-6.387-6.268-14.367-12.442l-21.785,29.773s-4.961,23.481-4.842,26.326S530.27,429.3,531.982,428.028Z" transform="translate(-163.041 -101.857)" fill="#ffc527"/>
    <path id="Path_9579" data-name="Path 9579" d="M531.677,429.653c5.444-7.925,28.18-39.227,34.163-46.621.055-.063.1,0,.055,0-5.238,7.925-28.22,39.092-34.076,46.676C531.677,429.9,531.558,429.82,531.677,429.653Z" transform="translate(-164.1 -105.487)" fill="#100e3a"/>
    <path id="Path_9580" data-name="Path 9580" d="M527.158,430.123a7.75,7.75,0,0,1,5.27-3.265,7.449,7.449,0,0,1,5.4,1.284c.048,0,0,.119-.071.1a8.9,8.9,0,0,0-10.5,1.957.063.063,0,0,1-.1-.071Z" transform="translate(-163.171 -114.571)" fill="#100e3a"/>
    <path id="Path_9581" data-name="Path 9581" d="M530.842,406c2.211-3.17,5.928-5.936,9.866-6.023.151,0,.159.214.04.277a52.912,52.912,0,0,0-9.565,6.078.238.238,0,1,1-.341-.333Z" transform="translate(-163.923 -109.01)" fill="#100e3a"/>
    <path id="Path_9582" data-name="Path 9582" d="M529.82,409.883c2.219-3.13,5.935-5.936,9.874-6.023.151,0,.159.214.04.277a52.91,52.91,0,0,0-9.565,6.078.246.246,0,0,1-.349-.333Z" transform="translate(-163.717 -109.816)" fill="#100e3a"/>
    <path id="Path_9583" data-name="Path 9583" d="M528.793,413.773c2.219-3.17,5.936-5.944,9.874-6.023.151,0,.159.214.04.269a52.914,52.914,0,0,0-9.565,6.078.238.238,0,0,1-.349-.325Z" transform="translate(-163.498 -110.623)" fill="#100e3a"/>
    <path id="Path_9584" data-name="Path 9584" d="M527.784,417.653c2.219-3.17,5.928-5.944,9.874-6.023.151,0,.159.214,0,.269a52.956,52.956,0,0,0-9.565,6.086.246.246,0,0,1-.309-.333Z" transform="translate(-163.297 -111.428)" fill="#100e3a"/>
    <path id="Path_9585" data-name="Path 9585" d="M563.517,378.418c2.544-3.471,7.925.475,5.4,3.962S560.973,381.9,563.517,378.418Z" transform="translate(-170.58 -104.256)" fill="#100e3a"/>
    <path id="Path_9586" data-name="Path 9586" d="M522.054,406.345c3.384-.1,6.6-1.672,9.732-2.766a.468.468,0,0,0,.158-.745.1.1,0,0,0,0-.159,20.121,20.121,0,0,0-9.993-2.956c-2.06,0-4.755,1.038-4.612,3.558C517.473,405.663,520.081,406.4,522.054,406.345Zm-2.679-1.728c-3.17-2.766,1.664-3.962,3.17-3.859a22.6,22.6,0,0,1,2.916.388c2.013.38,3.923,1.03,5.872,1.585-1.585.444-3.091,1.022-4.652,1.522C524.835,404.871,521.119,406.139,519.375,404.617Z" transform="translate(-161.133 -108.956)" fill="#100e3a"/>
    <path id="Path_9587" data-name="Path 9587" d="M541.549,387.621c-2.2-1.236-4.327.792-5.2,2.623a20.146,20.146,0,0,0-1.648,10.3.1.1,0,0,0,.143.087.46.46,0,0,0,.729.182c2.377-2.377,5.143-4.588,6.7-7.592C543.173,391.456,543.633,388.786,541.549,387.621Zm-3.17,8.876c-1.125,1.189-2.306,2.314-3.384,3.542a58.82,58.82,0,0,1,1.094-5.983,22.7,22.7,0,0,1,.9-2.805c.594-1.395,3.717-5.238,4.85-1.2.65,2.227-2.1,5.04-3.439,6.451Z" transform="translate(-164.715 -106.367)" fill="#100e3a"/>
    <path id="Path_9588" data-name="Path 9588" d="M524.545,324.523l-25.914,33.458a390.767,390.767,0,0,1-43.95-34.718,182.993,182.993,0,0,1-21.555-23.338c-5.967-7.972-10.191-15.849-11.419-23.156-4.073-24,37.618-75.419,37.618-75.419h41.914s-17.157,27.118-27.657,47.16h0c-4.628,8.828-7.925,16.285-7.925,19.431,0,3.313,2.227,7.473,5.8,12.022C486.285,298.871,524.545,324.523,524.545,324.523Z" transform="translate(-141.229 -67.788)"/>
    <path id="Path_9589" data-name="Path 9589" d="M468.689,280.321c0,3.312,2.227,7.473,5.8,12.022l-16.745,43.292A182.989,182.989,0,0,1,436.19,312.3l40.455-51.407C472.017,269.694,468.689,277.175,468.689,280.321Z" transform="translate(-144.293 -80.144)" fill="#100e3a"/>
    <path id="Path_9590" data-name="Path 9590" d="M512.125,383.264c3.962-5.3,2.774-3.836,6.831-9.1,1.981-2.568,15.057-19.471,17.276-21.563a.065.065,0,0,1,.1.079c-1.5,2.679-14.827,19.36-16.856,21.9-4.145,5.183-3.011,3.645-7.211,8.788a.09.09,0,0,1-.143-.111Z" transform="translate(-160.048 -99.173)" fill="#100e3a"/>
    <path id="Path_9591" data-name="Path 9591" d="M524.824,322.879c-16.269-12.743-51.177-42.5-52.049-53.349-.682-8.44,27.919-54.641,33.181-64.7a.064.064,0,0,0-.111-.063c-10.239,16.364-34.575,56.542-34,64.982.792,11.515,42.9,45.844,52.643,53.436C524.729,323.394,525.061,323.061,524.824,322.879Z" transform="translate(-151.691 -68.489)" fill="#100e3a"/>
    <path id="Path_9592" data-name="Path 9592" d="M303.761,439.586c2.092.7,61.987.523,64.261-.927.872-.547,1.355-9.272,1.64-19.812.063-2.282,24.352-39.037,24.352-39.037H352.894l-18.06,32.008-3.764,7.029s-22.9,10.3-25.232,12.18S301.677,438.9,303.761,439.586Z" transform="translate(-116.621 -104.824)" fill="#eb9481"/>
    <path id="Path_9593" data-name="Path 9593" d="M303.76,447.964c2.092.7,61.987.523,64.261-.927.856-.539,1.3-8.931,1.585-19.217,0-.61,2.964-5.349,4.042-7.639H334.817l-3.764,7.029s-22.9,10.3-25.232,12.18S301.676,447.274,303.76,447.964Z" transform="translate(-116.62 -113.203)" fill="#fff"/>
    <path id="Path_9594" data-name="Path 9594" d="M303.76,449.809c2.092.7,61.987.523,64.261-.927.872-.547,1.355-9.272,1.64-19.812H331.053s-22.9,10.3-25.232,12.18S301.676,449.119,303.76,449.809Z" transform="translate(-116.62 -115.048)" fill="#ffc527"/>
    <path id="Path_9595" data-name="Path 9595" d="M305.04,452.15c10.041-.277,50.559-.444,60.5.048.079,0,.079.055,0,.063-9.945.491-50.464.325-60.5.048C304.833,452.309,304.833,452.15,305.04,452.15Z" transform="translate(-117.043 -119.782)" fill="#100e3a"/>
    <path id="Path_9596" data-name="Path 9596" d="M311.444,441.689a8.067,8.067,0,0,1,6.007,2.433,7.822,7.822,0,0,1,2.266,5.357c0,.055-.119.055-.127,0a9.319,9.319,0,0,0-8.147-7.663C311.364,441.808,311.356,441.689,311.444,441.689Z" transform="translate(-118.391 -117.666)" fill="#100e3a"/>
    <path id="Path_9597" data-name="Path 9597" d="M333.451,430.319c4.018-.063,8.717,1.339,11.19,4.62.1.127-.087.262-.206.2a55.581,55.581,0,0,0-11.047-4.279.271.271,0,0,1,.063-.539Z" transform="translate(-122.908 -115.306)" fill="#100e3a"/>
    <path id="Path_9598" data-name="Path 9598" d="M329.553,431.859c4.018-.063,8.717,1.339,11.19,4.62.1.127-.087.262-.206.2a55.108,55.108,0,0,0-11.047-4.319.254.254,0,0,1,.063-.5Z" transform="translate(-122.11 -115.626)" fill="#100e3a"/>
    <path id="Path_9599" data-name="Path 9599" d="M325.657,433.4c4.018-.071,8.717,1.339,11.19,4.612.1.127-.087.269-.206.206a55.614,55.614,0,0,0-11.047-4.343.254.254,0,0,1,.063-.475Z" transform="translate(-121.311 -115.945)" fill="#100e3a"/>
    <path id="Path_9600" data-name="Path 9600" d="M321.739,434.939c4.018-.071,8.717,1.331,11.19,4.612.1.127-.087.261-.206.206a55.615,55.615,0,0,0-11.047-4.327.254.254,0,0,1,.063-.491Z" transform="translate(-120.493 -116.265)" fill="#100e3a"/>
    <path id="Path_9601" data-name="Path 9601" d="M377.274,440.26c4.509,0,4.517,7.005,0,7.005S372.764,440.26,377.274,440.26Z" transform="translate(-131.364 -117.37)" fill="#100e3a"/>
    <path id="Path_9602" data-name="Path 9602" d="M328.057,422.522c2.171,2.789,5.484,4.541,8.353,6.514a.491.491,0,0,0,.721-.325.111.111,0,0,0,.127-.119,21.135,21.135,0,0,0-3.685-10.223c-1.26-1.751-3.828-3.392-5.856-1.7S326.789,420.889,328.057,422.522Zm-.2-3.328c.388-4.374,4.343-1.022,5.222.3a22.823,22.823,0,0,1,1.474,2.7,63.521,63.521,0,0,1,2.282,5.951c-1.347-1.054-2.782-1.989-4.168-2.988-1.648-1.2-5.024-3.558-4.81-6Z" transform="translate(-121.548 -112.327)" fill="#100e3a"/>
    <path id="Path_9603" data-name="Path 9603" d="M354.018,427.863c-.317-2.623-3.313-3.17-5.428-2.774a21.183,21.183,0,0,0-9.708,4.969.111.111,0,0,0,0,.174.491.491,0,0,0,.3.729c3.439.523,7.053,1.514,10.548.967C351.823,431.6,354.359,430.344,354.018,427.863Zm-9.446,2.829c-1.7-.222-3.368-.515-5.08-.674a63.71,63.71,0,0,1,5.737-2.774,22.548,22.548,0,0,1,2.924-.967c1.545-.365,6.72-.1,4.01,3.352-1.458,1.9-5.531,1.316-7.56,1.062Z" transform="translate(-124.084 -114.197)" fill="#100e3a"/>
    <rect id="Rectangle_726" data-name="Rectangle 726" width="62.763" height="13.004" transform="translate(318.587 171.323)"/>
    <path id="Path_9604" data-name="Path 9604" d="M415.5,232.46l-1.759,11.079-21.69,136.716h-6.2l17.117-136.716,1.395-11.079Z" transform="translate(-80.077 -48.243)"/>
    <path id="Path_9605" data-name="Path 9605" d="M489.63,380.255h-6.213l-21.7-136.716L459.96,232.46H471.1l1.395,11.079Z" transform="translate(-95.457 -48.243)"/>
    <rect id="Rectangle_727" data-name="Rectangle 727" width="69.23" height="3.899" transform="translate(314.466 288.838)"/>
    <path id="Path_9606" data-name="Path 9606" d="M407.45,242.952h10.778l1.759-10.492H408.845Z" transform="translate(-84.56 -48.243)" fill="#100e3a"/>
    <path id="Path_9607" data-name="Path 9607" d="M472.5,242.952H461.719L459.96,232.46H471.1Z" transform="translate(-95.457 -48.243)" fill="#100e3a"/>
    <path id="Path_9608" data-name="Path 9608" d="M333.83,370.127h54.68S460.189,257,471.283,246.716c18.227-16.864,24.21-26.857,13.084-47.936l-43.514,2.306s2.179,16.388,1.743,16.951C425.495,239.711,333.83,370.127,333.83,370.127Z" transform="translate(-123.05 -67.254)"/>
    <path id="Path_9609" data-name="Path 9609" d="M346.794,405.915c8.717-.42,41.478-.444,44.378,0a.063.063,0,1,1,0,.127c-2.877.476-22.791.943-44.378,0A.1.1,0,0,1,346.794,405.915Z" transform="translate(-125.735 -110.175)" fill="#100e3a"/>
    <path id="Path_9610" data-name="Path 9610" d="M467.286,202.2c.539,4.256.705,11.562,3.17,11.562s1.64-8.907,1.585-10.96c0-1.862.626-1.64.792.547.46,5.943.555,11.205-2.623,11.095s-3.574-9.327-3.59-11.443C466.644,201.9,467.119,200.851,467.286,202.2Z" transform="translate(-150.608 -67.828)" fill="#100e3a"/>
    <path id="Path_9611" data-name="Path 9611" d="M471.085,217.26a20.419,20.419,0,0,1,.38,2.5,5.5,5.5,0,0,1,0,2c0,.119-.206.1-.254,0a6.839,6.839,0,0,1-.491-2.037c-.143-.792-.3-1.585-.42-2.338a.4.4,0,0,1,.785-.127Z" transform="translate(-151.372 -71.034)" fill="#100e3a"/>
    <path id="Path_9612" data-name="Path 9612" d="M460.6,222.105c-6.728,9.51-14.011,19.186-20.675,28.751-3.32,4.755-17.284,22.807-19.931,27.562-.111.182.222.309.333.143,3.051-4.668,17.482-22.728,20.81-27.483,6.593-9.43,13.345-18.821,19.875-28.3C461.25,222.43,460.846,221.765,460.6,222.105Z" transform="translate(-140.927 -72.076)" fill="#100e3a"/>
    <path id="Path_9613" data-name="Path 9613" d="M495.358,201.455c-.04-.1-.214-.055-.174.048,2.053,5.722,2.932,11.831,1.537,17.823-1.371,5.872-5.088,10.7-8.567,15.485q-10.992,15.16-21.888,30.391-21.9,30.652-43.356,61.63Q410.9,344.17,399.082,361.644c-.127.182.166.349.285.174,29.107-42.349,58.492-84.493,88.685-126.081,3.677-5.04,7.639-10.088,9.09-16.3A30.614,30.614,0,0,0,495.358,201.455Z" transform="translate(-136.585 -67.798)" fill="#100e3a"/>
    <path id="Path_9614" data-name="Path 9614" d="M407.662,309.651c-3.7,3.17-1.934,6.387-2.227,8.289s-3.352,7.877-1.014,8.9,6.562-7.877,9.51-9.193,8.757,0,10.651-4.818-3.352-7.291-4.232-11.158-2.782-4.89-5.143-2.48S410.539,307.195,407.662,309.651Z" transform="translate(-137.519 -87.824)"/>
    <path id="Path_9615" data-name="Path 9615" d="M434.781,306.466c-.46,2.1,3.836.991,3.542-.832S435.114,304.936,434.781,306.466Z" transform="translate(-143.994 -89.235)"/>
    <path id="Path_9616" data-name="Path 9616" d="M430.54,305.356c.372.792,2.544-.436,1.854-1.585S429.97,304.08,430.54,305.356Z" transform="translate(-143.097 -88.957)"/>
    <path id="Path_9617" data-name="Path 9617" d="M479.243,257.134c-5.31,1.347-9.185,5.6-7.005,7.2s6.34.182,8.567,2.924,5.048,2.734,6.268-2.52S484.2,255.874,479.243,257.134Z" transform="translate(-151.646 -79.313)" fill="#db6a57"/>
    <path id="Path_9618" data-name="Path 9618" d="M470.54,272.891c-.856,3.415,5.737,2.33,5.159.277S471.126,270.553,470.54,272.891Z" transform="translate(-151.406 -82.319)" fill="#db6a57"/>
    <path id="Path_9619" data-name="Path 9619" d="M512.754,189.279c-1.006,1.006-11.459,10.437-24.994,11.649-.666.063-1.323.111-1.965.158-12.426.88-20.485-.792-22.546-2.132s-2.718-38.514-2.9-44.965,2.631-14.455,3.962-15.057,10.817-3.725,14.027-2.734a26.857,26.857,0,0,1,3.637,1.387,38.672,38.672,0,0,1,15.976,14.708C502.119,159.07,513.752,188.3,512.754,189.279Z" transform="translate(-149.305 -54.227)"/>
    <path id="Path_9620" data-name="Path 9620" d="M463.119,143.4a.143.143,0,1,1,.277-.071c.729,2.2,1.252,4.755,3.479,5.975,2.457,1.339,5.222-.594,7.021-2.219a21.2,21.2,0,0,0,5.6-9.51c0-.127.246-.079.206.055-1.133,4.62-3.7,9.319-7.98,11.713C466.9,152.041,463.816,147.952,463.119,143.4Z" transform="translate(-149.881 -54.536)" fill="#100e3a"/>
    <path id="Path_9621" data-name="Path 9621" d="M518.419,189.693c-1.006,1.006-11.459,10.437-24.994,11.649-.666.063-1.323.111-1.965.158L487.64,138a38.672,38.672,0,0,1,15.976,14.708C507.785,159.484,519.418,188.718,518.419,189.693Z" transform="translate(-154.971 -54.641)" fill="#100e3a"/>
    <path id="Path_9622" data-name="Path 9622" d="M462.219,198.459c-.412-.792-2.2-41.454-1.775-47.548s.666-10.144,1-10.944,2.591-2.449,3.1-1.957-.388,15.889.19,17.49,11.023-.792,11.752-1.316-.246-17.886.38-18.639,2.219-.9,2.718-.285c.84,1.014,2.52,20.461,3.685,23.774S492.6,169.78,497.2,170.517a35.011,35.011,0,0,0,10.722,0c1.181-.3,7.853,20.786,8.3,30.573S464.984,204.1,462.219,198.459Z" transform="translate(-149.313 -53.993)"/>
    <path id="Path_9623" data-name="Path 9623" d="M463.891,169.129c.1,2.171.143,10.3.951,11.253.991,1.141,6.633,1.8,8.059,1.8,1.585,0,7.838-2.734,8.852-4.3.594-.9-.452-9.755-1.585-10.785-.626-.578-1.4-.269-2.322-.182-3.075.317-13.25,1.2-13.947,2.108-.158.206.19.4.341.206.705-.927,11.538-1.72,14.074-1.965.864-.079,1.086-.206,1.585.269s2.377,8.907,1.212,10.3c-1.315,1.585-5.983,3.265-7.925,3.725-1.308.317-7.481-1.212-7.782-1.5a2.377,2.377,0,0,1-.547-1.308.92.92,0,0,1,0-.143c-.206-1.07-.491-7.433-.578-9.51C464.272,168.875,463.876,168.875,463.891,169.129Z" transform="translate(-150.035 -60.609)" fill="#100e3a"/>
    <path id="Path_9624" data-name="Path 9624" d="M491.956,183.732c-1.347-1.482-5.365-2.663-7.259-.262s1.585,4.9,1.331,6.031-2.679,1.236-2.94,2.671.7,2.243,1.292,3.059.372,4.263,3.511,4.882,4.137-3.463,5.682-4.573,5.238-2.116,4.842-4.707-4.945-1.537-5.547-2.75S493.462,185.388,491.956,183.732Z" transform="translate(-154.017 -63.792)" fill="#ffc527"/>
    <path id="Path_9625" data-name="Path 9625" d="M482.592,190.636c-.325-1.458-2.552-.792-2.259.666S482.742,191.294,482.592,190.636Z" transform="translate(-153.449 -65.395)" fill="#ffc527"/>
    <path id="Path_9626" data-name="Path 9626" d="M482.136,185.866c-.7.2-.3,1.442.491,1.284S482.674,185.708,482.136,185.866Z" transform="translate(-153.754 -64.572)" fill="#ffc527"/>
    <path id="Path_9627" data-name="Path 9627" d="M476.909,133.307c-1.379,4.311-6.514,11.974-9.153,10.009-1.181-.872-2.734-4.382-4.081-7.988-1.672-4.47-3.035-9.1-3.035-9.1l8.717-3.962,2.647-1.2a7.486,7.486,0,0,1,.792-.555c.317-.182.6-.3.642-.1.412,2.148,1.022,4.446,1.585,6.5A59.639,59.639,0,0,1,476.909,133.307Z" transform="translate(-149.367 -50.969)" fill="#eb9481"/>
    <path id="Path_9628" data-name="Path 9628" d="M472.814,120.55c-.262,11.095-6.189,14.035-9.129,14.827-1.672-4.47-3.035-9.1-3.035-9.1l8.717-3.962,2.647-1.2a7.487,7.487,0,0,1,.8-.571Z" transform="translate(-149.369 -51.019)" fill="#100e3a"/>
    <path id="Path_9629" data-name="Path 9629" d="M471.644,99.382c1.862,4.755.428,18.877-2.758,22.26-4.62,4.913-12.743,6-17.062.317-4.176-5.547-1.989-23.932,1.625-27.071C458.774,90.268,468.925,92.416,471.644,99.382Z" transform="translate(-147.065 -45.185)" fill="#eb9481"/>
    <path id="Path_9630" data-name="Path 9630" d="M474.37,129.09h0" transform="translate(-152.217 -52.791)" fill="none" stroke="#f5a79e" stroke-linecap="round" stroke-linejoin="round"/>
    <path id="Path_9631" data-name="Path 9631" d="M462.561,114.08s.071.048.063.087c-.119.951-.1,2.068.729,2.465v.055C462.3,116.434,462.292,114.96,462.561,114.08Z" transform="translate(-149.735 -49.676)" fill="#100e3a"/>
    <path id="Path_9632" data-name="Path 9632" d="M463.515,112.92c1.585,0,1.371,3.122-.056,3.1S462.224,112.9,463.515,112.92Z" transform="translate(-149.746 -49.436)" fill="#100e3a"/>
    <path id="Path_9633" data-name="Path 9633" d="M454.891,113.49s-.079.048-.079.079c0,.959-.214,2.06-1.1,2.322v.055C454.78,115.859,455.018,114.4,454.891,113.49Z" transform="translate(-147.929 -49.554)" fill="#100e3a"/>
    <path id="Path_9634" data-name="Path 9634" d="M453.842,112.167c-1.529-.206-1.831,2.877-.412,3.067S455.126,112.342,453.842,112.167Z" transform="translate(-147.681 -49.277)" fill="#100e3a"/>
    <path id="Path_9635" data-name="Path 9635" d="M464.816,110.633a11.055,11.055,0,0,1-1.173-.491,2.013,2.013,0,0,1-1.094-.729.642.642,0,0,1,.151-.792,1.585,1.585,0,0,1,1.64-.071,2.377,2.377,0,0,1,1.315,1.109.705.705,0,0,1-.84.975Z" transform="translate(-149.748 -48.488)" fill="#100e3a"/>
    <path id="Path_9636" data-name="Path 9636" d="M452.582,109.6c.436-.048.792-.158,1.252-.246a2.076,2.076,0,0,0,1.22-.5.658.658,0,0,0,0-.792,1.64,1.64,0,0,0-1.585-.4,2.377,2.377,0,0,0-1.506.792.689.689,0,0,0,.618,1.141Z" transform="translate(-147.53 -48.332)" fill="#100e3a"/>
    <path id="Path_9637" data-name="Path 9637" d="M461.1,124.646c-.238.214-.483.507-.832.515a2.425,2.425,0,0,1-1.014-.3s-.063,0-.048.048a1.316,1.316,0,0,0,1.189.594,1.038,1.038,0,0,0,.792-.792A.055.055,0,0,0,461.1,124.646Z" transform="translate(-149.07 -51.866)" fill="#100e3a"/>
    <path id="Path_9638" data-name="Path 9638" d="M460.493,118.489a3.265,3.265,0,0,1-2.259,1.331,4.16,4.16,0,0,1-1.173,0,1,1,0,0,1-.222,0l-.206-.04a.246.246,0,0,1-.182-.23h0a.394.394,0,0,1,0-.1h0v-.079a16.814,16.814,0,0,1,.158-1.862c-.277.127-1.688.666-1.64.277A48.806,48.806,0,0,1,456.792,108a.087.087,0,1,1,.174,0c-.238,3.067-1.014,6.07-1.3,9.145a5.9,5.9,0,0,1,1.585-.372c.1,0-.3,2.148-.285,2.48h0a4.541,4.541,0,0,0,3.439-.856C460.485,118.355,460.541,118.418,460.493,118.489Z" transform="translate(-148.19 -48.396)" fill="#100e3a"/>
    <path id="Path_9639" data-name="Path 9639" d="M458.24,122.362a3.884,3.884,0,0,0,1.585,1.173,1.791,1.791,0,0,0,1.062.048c.792-.214.792-.919.61-1.522a3.96,3.96,0,0,0-.357-.911,5.016,5.016,0,0,1-2.9,1.212Z" transform="translate(-148.869 -51.144)" fill="#100e3a"/>
    <path id="Path_9640" data-name="Path 9640" d="M460.23,123.774a1.791,1.791,0,0,0,1.062.048c.792-.214.792-.919.61-1.522A1.807,1.807,0,0,0,460.23,123.774Z" transform="translate(-149.282 -51.382)" fill="#ff9cbd"/>
    <path id="Path_9641" data-name="Path 9641" d="M451.6,99.685c4.755,3.273,11.285-1.664,11.285-1.664a5.183,5.183,0,0,0,5.254,3.289s.935,8.067,3.059,8.059c3.241,0,4.256-11.023,3.233-13.187a5.785,5.785,0,0,0-3.772-2.718,5.3,5.3,0,0,0-2.2-3.17c-2.211-1.7-9.858.579-9.858.579a7.131,7.131,0,0,0-1.95-2.639,2,2,0,0,0-2.885.262,4.754,4.754,0,0,1,.792,1.989c.38,2.377-1.585,2.377-1.529.214a3.313,3.313,0,0,1,.753-2.2c-.951-1.4-2.5-1.862-3.447-1.109C448.6,88.733,447.633,97,451.6,99.685Z" transform="translate(-146.916 -44.062)" fill="#100e3a"/>
    <path id="Path_9642" data-name="Path 9642" d="M474.9,115.994s2.893-4.707,5.008-3.7.135,7.695-2.219,8.717a2.449,2.449,0,0,1-3.36-1.117Z" transform="translate(-152.209 -49.276)" fill="#eb9481"/>
    <path id="Path_9643" data-name="Path 9643" d="M479.64,114.74v.063a6.152,6.152,0,0,0-2.972,4.065,1.355,1.355,0,0,1,2-.491.055.055,0,0,1-.048.1,1.5,1.5,0,0,0-1.585.626,7.39,7.39,0,0,0-.713,1.387c-.071.151-.349.087-.3-.087h0C475.852,118.211,477.342,115.1,479.64,114.74Z" transform="translate(-152.558 -49.813)" fill="#100e3a"/>
    <path id="Path_9644" data-name="Path 9644" d="M489.206,139.21c15.493,13.107,32.776,37.293,28.862,51.28-2.98,10.643-31.017,21.183-37.381,24.162-2.774,1.292-12.481-16.642-11.2-19.645s25.264-14.264,26.857-16.135S493.264,165.5,484.7,147.357C479.633,136.587,485.394,135.977,489.206,139.21Z" transform="translate(-151.18 -54.535)" fill="#eb9481"/>
    <path id="Path_9645" data-name="Path 9645" d="M474.618,228.83c-8.313,3.788-24.352,2.449-26.437,1.585a4.184,4.184,0,0,1-2.29-1.862c-3.21-1.228-3.962-3.17-3.962-3.17s-4.129-.325-4.351-2.853c-.254-2.837,5.611-1.791,9.161-3.241a49.3,49.3,0,0,0,5.151-2.607h0l.1-.055a10.692,10.692,0,0,0,1.815-1.189h0c4.018-2.734,9.85-7.085,11.887-8.448Z" transform="translate(-144.58 -68.958)" fill="#eb9481"/>
    <path id="Path_9646" data-name="Path 9646" d="M458.878,225.868a39.23,39.23,0,0,1-15.667,3.408.071.071,0,1,0,0,.143,29.955,29.955,0,0,0,15.754-3.344C459.045,226.019,458.966,225.821,458.878,225.868Z" transform="translate(-145.736 -72.875)" fill="#100e3a"/>
    <path id="Path_9647" data-name="Path 9647" d="M463.61,231.087a45.28,45.28,0,0,1-15.54,2.377v.048a30.839,30.839,0,0,0,15.62-2.2C463.864,231.277,463.769,231.015,463.61,231.087Z" transform="translate(-146.759 -73.957)" fill="#100e3a"/>
    <path id="Path_9648" data-name="Path 9648" d="M439.89,207.455c-14.938-3.273-56.986,1.942-56.511,12.038.563,12.03,65.688,7.267,65.18-.864-.277-4.517-15.287-2.877-15.413-5.547C433.051,211.084,445.175,208.612,439.89,207.455Z" transform="translate(-133.332 -68.853)" fill="#ffc527"/>
    <path id="Path_9649" data-name="Path 9649" d="M438.759,221a4.263,4.263,0,0,0-2.314,1.331,1.585,1.585,0,0,0,.42,2.441c1.957,1.078,6.847.547,7.188-2.266C444.37,219.957,440.97,220.274,438.759,221Z" transform="translate(-144.263 -71.758)" fill="#ff9abb"/>
    <path id="Path_9650" data-name="Path 9650" d="M422.721,225.519l.262-.127a3.716,3.716,0,0,0,.792-.468,1.934,1.934,0,0,0,.563-.737.927.927,0,0,0,.119-.594,1.5,1.5,0,0,0-1.006-1.284A8.416,8.416,0,0,0,420.7,222c-1.339-.127-2.338-.856-3.709-.65-1.522.222-3.257,1.149-3.479,2.552C412.942,227.635,420.724,226.391,422.721,225.519Z" transform="translate(-139.581 -71.931)"/>
    <path id="Path_9651" data-name="Path 9651" d="M435.207,212.116c-.428,1.4-1.926,1.49-3.17,1.522s-2.465.087-3.7.111a3.835,3.835,0,0,1-2.322-.349l-.111-.111a1.109,1.109,0,0,1-.618-1.212c.111-1.1,1.2-1.466,2.211-1.736a6.877,6.877,0,0,1,1.086-.317c1.64-.563,3.463-1.5,5.191-.721a2.377,2.377,0,0,1,1.434,2.813Z" transform="translate(-142.026 -69.377)"/>
    <path id="Path_9652" data-name="Path 9652" d="M415.5,211.719c1.585,1.743-1.094,3.384-2.576,3.637-1.355.23-5.69.792-5.627-1.545,0-1.379,1.474-1.934,2.877-2.068C411.975,211,414.392,210.523,415.5,211.719Z" transform="translate(-138.297 -69.789)" fill="#db6a57"/>
    <path id="Path_9653" data-name="Path 9653" d="M392.592,218.925c-1.64,2.179.9,4.311,2.948,4.573a20.12,20.12,0,0,0,4.826-.2,2.316,2.316,0,0,0,2.251-1.743c.325-2.2-1.886-2.916-3.9-3.1C396.531,217.649,393.9,217.15,392.592,218.925Z" transform="translate(-135.136 -71.186)"/>
    <path id="Path_9654" data-name="Path 9654" d="M454.7,215.467c.792-.927.325-1.355-1.823-.943s-10.3,3.859-11.253.919,10.587-7.647,14.225-8.059,10.762-.365,10.762-.365C464.552,208.383,458.719,212.733,454.7,215.467Z" transform="translate(-145.41 -68.964)" fill="#eb9481"/>
    <path id="Path_9655" data-name="Path 9655" d="M495.219,169.449c.951.689,18.671-7.291,19.257-8.313s-11.7-15.683-20.247-21.817-9.835-1.466-7.687,7.37C489.093,157.158,493.134,167.959,495.219,169.449Z" transform="translate(-154.553 -54.336)"/>
    <path id="Path_9656" data-name="Path 9656" d="M495.937,171.867c3.487-2,17.276-8.051,18.678-8.147,0,0,.079.1.048.119-3.17,1.514-9.692,4.818-18.655,8.194C495.984,172.057,495.889,171.867,495.937,171.867Z" transform="translate(-156.69 -59.978)" fill="#100e3a"/>
    <rect id="Rectangle_728" data-name="Rectangle 728" width="62.763" height="13.004" transform="translate(26.841 167.535)"/>
    <path id="Path_9657" data-name="Path 9657" d="M47.362,227.68,45.6,238.759l-21.7,127.959H17.7L34.825,238.759l1.387-11.079Z" transform="translate(-3.673 -47.251)"/>
    <path id="Path_9658" data-name="Path 9658" d="M121.48,366.718h-6.213l-21.7-127.959L91.81,227.68h11.15l1.387,11.079Z" transform="translate(-19.054 -47.251)"/>
    <rect id="Rectangle_729" data-name="Rectangle 729" width="69.23" height="3.899" transform="translate(22.72 276.293)"/>
    <path id="Path_9659" data-name="Path 9659" d="M39.31,238.172H50.088l1.759-10.492H40.7Z" transform="translate(-8.158 -47.251)" fill="#100e3a"/>
    <path id="Path_9660" data-name="Path 9660" d="M104.347,238.172H93.569L91.81,227.68h11.15Z" transform="translate(-19.054 -47.251)" fill="#100e3a"/>
    <path id="Path_9661" data-name="Path 9661" d="M151.9,160.594c-10.936,10.714-12.775,27.277-10.468,41.795.055.325.571.238.571-.071,0-3.3-.1-6.577-.1-9.842.063-.151.111-.293.174-.436a22.33,22.33,0,0,0,7.132-7.639c1.823-3.59,2.544-7.647,3.962-11.4.127-.365-.254-.254-.507-.071-6.649,4.905-8.773,10.191-10.682,17.244a58.755,58.755,0,0,1,1.157-10.984c1.442-6.7,4.287-13.337,9.1-18.306C152.367,160.7,152.089,160.4,151.9,160.594Z" transform="translate(-82.939 -59.317)"/>
    <path id="Path_9662" data-name="Path 9662" d="M156.487,159.6c1.878.063,3.059,3.067,4.525,3.962a1.411,1.411,0,0,0,2.076-.325c1.45-2.029-.539-4.533-2.417-5.928,1.339.547,2.457,1.514,3.9,1.791a1.363,1.363,0,0,0,1.759-1.054c.642-2.766-2.829-3.962-5.206-4.049,1.149-.792,4.462-2.988,2.7-4.057s-5.658,2.037-6.926,3.067c-1.862,1.514-4.081,3.764-4.16,6.126C152.628,161.877,155.037,160.181,156.487,159.6Z" transform="translate(-85.467 -57.073)"/>
    <path id="Path_9663" data-name="Path 9663" d="M155.9,160.721c2.377-1.094,7.029.483,7.417-.428.792-1.854-2.893-3.122-4.89-3.368,1.839-.5,5.357-1.292,5.246-3.067-.135-2.156-5.4-.3-8.059,1.743-3.36,2.576-3.336,5.056-2.782,5.547C153.6,161.838,155.508,160.9,155.9,160.721Z" transform="translate(-85.43 -57.732)"/>
    <path id="Path_9664" data-name="Path 9664" d="M127.175,161.125c11.34,10.3,13.8,26.769,12.053,41.359-.048.333-.555.262-.571-.048-.127-3.3-.151-6.577-.285-9.835l-.182-.436a22.021,22.021,0,0,1-7.394-7.354c-1.965-3.526-2.837-7.544-4.374-11.245-.143-.349.246-.262.5-.087,6.839,4.652,9.161,9.85,11.332,16.832a58.032,58.032,0,0,0-1.585-10.936c-1.7-6.641-4.755-13.163-9.787-17.949C126.715,161.244,126.985,160.943,127.175,161.125Z" transform="translate(-79.999 -59.428)"/>
    <path id="Path_9665" data-name="Path 9665" d="M122.231,160.281c-1.878.135-2.94,3.17-4.374,4.121a1.4,1.4,0,0,1-2.084-.246c-1.529-1.973.365-4.549,2.187-6.015-1.323.594-2.377,1.585-3.828,1.942a1.363,1.363,0,0,1-1.8-.991c-.745-2.742,2.679-4.1,5.056-4.248-1.189-.792-4.573-2.813-2.861-3.962s5.737,1.823,7.037,2.8c1.918,1.442,4.224,3.606,4.4,5.967C126.177,162.412,123.7,160.8,122.231,160.281Z" transform="translate(-77.06 -57.26)"/>
    <path id="Path_9666" data-name="Path 9666" d="M123.455,161.384c-2.449-1-7.005.753-7.433-.143-.864-1.823,2.782-3.233,4.755-3.558-1.854-.428-5.4-1.086-5.357-2.861.048-2.163,5.381-.507,8.115,1.434,3.455,2.449,3.526,4.929,3,5.444C125.8,162.414,123.86,161.551,123.455,161.384Z" transform="translate(-77.722 -57.92)"/>
    <path id="Path_9667" data-name="Path 9667" d="M133.542,185.338a111.541,111.541,0,0,0,3.527,16.261.4.4,0,1,0,.793-.159c-.745-5.008-2.108-9.93-2.853-14.946a75.8,75.8,0,0,1-.872-15.334c.483-8.448,2.774-17.434,8.281-24.043.127-.151-.135-.372-.262-.23-11.031,12.862-9.272,28.64-9.264,30.05-1.585-5.325-3.17-11.427-9.082-16.856-.254-.23-.452-.119-.412.277,1.062,9.882,3.8,15.057,9.51,20.319C133.091,182.24,133.3,183.8,133.542,185.338Z" transform="translate(-79.377 -56.476)"/>
    <path id="Path_9668" data-name="Path 9668" d="M146.339,145.466c1.981-.88,4.755,1.648,6.688,1.823a1.632,1.632,0,0,0,1.989-1.387c.483-2.837-2.845-4.43-5.492-4.937,1.664-.1,3.313.341,4.945-.1a1.585,1.585,0,0,0,1.3-1.981c-.729-3.17-4.953-2.718-7.449-1.585.792-1.418,3.13-5.341.792-5.547s-4.85,4.969-5.642,6.673c-1.173,2.5-2.338,5.959-1.236,8.448C143.478,149.769,145.127,146.8,146.339,145.466Z" transform="translate(-83.196 -53.342)"/>
    <path id="Path_9669" data-name="Path 9669" d="M146.04,146.96c1.949-2.377,7.536-3.043,7.481-4.184-.1-2.322-4.573-1.783-6.768-1.038,1.656-1.442,4.905-4.034,3.9-5.817-1.22-2.179-5.745,2.377-7.481,5.864-2.187,4.359-.919,6.926-.087,7.132C144.218,149.29,145.723,147.357,146.04,146.96Z" transform="translate(-83.229 -54.091)"/>
    <path id="Path_9670" data-name="Path 9670" d="M127.636,197.291l-4.866,37.175h29.607c-.61-3.3-6.118-37.246-6.118-37.246Z" transform="translate(-79.248 -66.931)" fill="#ffc527"/>
    <path id="Path_9671" data-name="Path 9671" d="M252.429,364.08s3,10,6.562,20.224,6.728,33.688,6.07,34.3-8.574-22.189-10.857-32.642-3.954-21.151-3.954-21.151Z" transform="translate(-105.704 -101.56)" fill="#ffc527"/>
    <path id="Path_9672" data-name="Path 9672" d="M184.514,330.95l2.377,6.791-3.78.919-1.141-7Z" transform="translate(-37.765 -68.683)" fill="#d7d7fa"/>
    <path id="Path_9673" data-name="Path 9673" d="M251.924,361.324a5.611,5.611,0,0,0-.9-5.1,5.482,5.482,0,0,1-1.173-4.2s-4.256,5.452-.475,10.017Z" transform="translate(-105.199 -99.057)" fill="#100e3a"/>
    <path id="Path_9674" data-name="Path 9674" d="M249.874,351.648c.214.349-.222,2.06.578,3.408s-3.114,3.344-2.8,1.331C248.02,354.1,249.51,351.014,249.874,351.648Z" transform="translate(-105.162 -98.962)"/>
    <path id="Path_9675" data-name="Path 9675" d="M273.162,371.47s-2.9,8.091-6.268,16.349-6.99,27.411-6.467,27.942,8-17.9,10.3-26.373,4.137-17.2,4.137-17.2Z" transform="translate(-107.806 -103.094)" fill="#ff9abb"/>
    <path id="Path_9676" data-name="Path 9676" d="M208.041,338.39l-2.251,5.484,3.075.919,1.236-5.706Z" transform="translate(-42.708 -70.228)" fill="#d7d7fa"/>
    <path id="Path_9677" data-name="Path 9677" d="M276.47,369.054c.333-4.517,3.915-8.194,3.915-8.194s1.458,5.3-1.846,8.891Z" transform="translate(-111.146 -100.892)" fill="#100e3a"/>
    <path id="Path_9678" data-name="Path 9678" d="M264.776,358.07s1.141,8.519,2.718,17.292,1.109,28.275.491,28.679-4.1-19.17-4.6-27.95-.452-17.688-.452-17.688Z" transform="translate(-108.335 -100.313)"/>
    <path id="Path_9679" data-name="Path 9679" d="M196.936,325,198,330.84l-3.2.254-.016-5.84Z" transform="translate(-40.424 -67.449)" fill="#d7d7fa"/>
    <path id="Path_9680" data-name="Path 9680" d="M261.788,356.467s2.052-.206,2.163-.246a50.6,50.6,0,0,0,1.522-6.086c-.135-.166-6.895.792-6.863,1.419S261.788,356.467,261.788,356.467Z" transform="translate(-107.439 -98.662)" fill="#100e3a"/>
    <rect id="Rectangle_730" data-name="Rectangle 730" width="23.861" height="30.042" rx="4.38" transform="translate(143.048 290.042)"/>
    <rect id="Rectangle_731" data-name="Rectangle 731" width="17.838" height="4.739" transform="translate(146.059 285.296)"/>
    <path id="Path_9681" data-name="Path 9681" d="M253.519,398.639c4.152-.206,14.264-.214,15.667,0v.055a108.773,108.773,0,0,1-15.667,0C253.464,398.718,253.464,398.639,253.519,398.639Z" transform="translate(-106.374 -108.699)" fill="#100e3a"/>
    <path id="Path_9682" data-name="Path 9682" d="M616.7,265.173a72.231,72.231,0,0,1,2.3,13.012c-.119.214-.1,1.022,0,.792,0,.713,1.117.586,1.117-.119a12.908,12.908,0,0,0-.048-1.363c2.544-3.17,6.237-5.159,9.216-7.925a17.189,17.189,0,0,0,5.056-8.044c2.473-8.527.159-17.561,3.17-26.072,2.568-7.338,7.132-13.71,11.095-20.358,4.113-7.029,7.132-14.415,7.449-22.649.246-6.3-.507-14.7-5.31-19.423-5.088-5.008-11.4-1.252-15.295,3.209-11.3,12.973-16.523,29.321-18.639,46.106-1.165,9.28-2.377,18.607-2.1,27.966a75.448,75.448,0,0,0,1.989,14.867Z" transform="translate(-181.334 -61.414)" fill="#ff9abb"/>
    <path id="Path_9683" data-name="Path 9683" d="M619.966,287.558a159.749,159.749,0,0,1,.309-26.27.2.2,0,0,1-.048-.1c-.143-7.132-.705-14.177-.428-21.286a126.725,126.725,0,0,1,3.13-22.831.071.071,0,0,1,.135,0A148.7,148.7,0,0,0,620.6,239.4q-.23,6.015.1,12.038c.063,1.3.19,2.615.277,3.962h0A140.443,140.443,0,0,1,642.1,199.475c.143-.23.555,0,.412.254a145.813,145.813,0,0,0-17.2,41.454c5.428-10.064,13.638-18.346,19.724-28.022,0-.048.119,0,.1.063-5.468,10.762-14.51,19.257-20.263,29.868-1,4.327-1.791,8.685-2.425,13.044a145.318,145.318,0,0,0-1.315,18.227c3.313-6.189,6.744-12.1,9.454-18.647.071-.174.317-.055.262.119-2.306,6.8-5.4,14.114-9.732,19.915,0,4.3.1,8.6.357,12.9.674,11.467,2.631,22.783,3.542,34.211a.263.263,0,0,1-.523.055,262.4,262.4,0,0,1-4.525-35.36Z" transform="translate(-182.35 -67.379)" fill="#100e3a"/>
    <path id="Path_9684" data-name="Path 9684" d="M634.1,198.991c0-.079.151,0,.127.063-2.1,5.793-3.281,11.657-4.794,17.6a.222.222,0,0,1-.436-.071C629.618,210.577,631.766,204.539,634.1,198.991Z" transform="translate(-184.308 -67.291)" fill="#100e3a"/>
    <path id="Path_9685" data-name="Path 9685" d="M568.154,227.966a87.09,87.09,0,0,0,4.818,9.9c3.772,6.847,7.7,13.123,8.416,21.1.317,3.558.436,7.132,1.521,10.571a31.577,31.577,0,0,0,4.208,8.273c4.089,5.959,9.2,11.095,12.989,17.268a72.689,72.689,0,0,1,8.63,20.81c.1.4.729.293.634-.111a.183.183,0,0,1,0-.087V315.6c.6-17.1-.792-34.338-5.975-50.718a175.124,175.124,0,0,0-8.289-21.1c-2.8-5.944-6.276-11.657-11.182-16.1-3.17-2.869-10.088-8.3-14.621-5.42C567.116,223.647,567.3,225.85,568.154,227.966Z" transform="translate(-171.556 -71.961)" fill="#ff9abb"/>
    <path id="Path_9686" data-name="Path 9686" d="M589.066,270.566A141.492,141.492,0,0,0,599,284.83c1.656,2.155,3.336,4.3,4.993,6.466.792,1.022,1.656,2.045,2.377,3.17-.452-1.8-.888-3.6-1.347-5.4-2.211-8.638-4.327-17.355-7.616-25.668a172.947,172.947,0,0,0-11.887-23.275c-.111-.2.206-.341.325-.151,3.614,5.943,7.283,11.887,10.3,18.14a97.339,97.339,0,0,1,4.382,10.77A166.645,166.645,0,0,0,594.7,245.9c0-.063.071-.111.1-.048a78.717,78.717,0,0,1,6.054,23.933c.745,2.227,1.426,4.469,2.06,6.728,2.694,9.565,5.056,19.233,7.251,28.941a103.449,103.449,0,0,0-1.648-19.019c0-.151.19-.182.222-.04a60.377,60.377,0,0,1,1.656,20.049c.792,3.685,1.633,7.386,2.417,11.095,1.688,7.885,3.748,15.9,4.755,23.909a.161.161,0,1,1-.317.055c-1.173-4.311-1.878-8.788-2.837-13.155s-1.957-8.757-2.972-13.131q-2.235-9.51-4.628-19.019c-1.062-2.33-3.107-4.39-4.644-6.34-1.68-2.14-3.368-4.279-5.008-6.451a96.148,96.148,0,0,1-8.226-12.735C588.86,270.542,589.011,270.471,589.066,270.566Z" transform="translate(-175.28 -75.786)" fill="#100e3a"/>
    <path id="Path_9687" data-name="Path 9687" d="M589.037,269.362a88.594,88.594,0,0,1,9.724,15.453.071.071,0,0,1-.119.071c-3.273-5.127-6.49-10.3-9.755-15.429C588.831,269.37,588.974,269.283,589.037,269.362Z" transform="translate(-175.98 -81.896)" fill="#100e3a"/>
    <path id="Path_9688" data-name="Path 9688" d="M669.7,245.1c-2.219,3.82-4.755,8.4-3.8,12.988.6,2.9,2.726,5.254,3.114,8.218.856,6.53-5.65,10.849-10.365,13.932-11.744,7.711-27.847,14.573-29.987,30.312-.079.555-1.038.42-.975-.127a.48.48,0,0,1,0-.1c0-.04-.055-.048-.055-.1a60.314,60.314,0,0,1,.222-24.035c1.751-8.107,5.286-15.4,9.51-22.522,7.061-12.053,14.55-24.4,25.24-33.64,2.956-2.552,9.01-7.132,11.372-1.379C676.2,234.246,672.374,240.443,669.7,245.1Z" transform="translate(-183.795 -72.877)" fill="#ff9abb"/>
    <path id="Path_9689" data-name="Path 9689" d="M658.737,278.015c-7.79,8.408-20.168,13.163-26.873,22.593a94.417,94.417,0,0,1,20.652-38.783.3.3,0,1,0-.428-.428,76.314,76.314,0,0,0-16.872,24.44,108.452,108.452,0,0,1,7.267-18.583.206.206,0,0,0-.349-.206,70.72,70.72,0,0,0-7.83,20.889c-8.836,21.4-9.652,46.454-7.8,68.992,0,.317.515.325.507,0-.507-17.759-.222-35.827,4.034-53.174.087-.357.19-.721.277-1.078,7.291-10.167,19.622-14.875,27.546-24.527C658.943,278.054,658.816,277.928,658.737,278.015Z" transform="translate(-183.622 -80.231)" fill="#100e3a"/>
    <path id="Path_9690" data-name="Path 9690" d="M666.472,273.245c-4.089,3.748-8.115,7.584-12.212,11.332,0,0,0,.111.063.071a59.723,59.723,0,0,0,12.41-11.166.177.177,0,1,0-.261-.238Z" transform="translate(-189.55 -82.696)" fill="#100e3a"/>
    <path id="Path_9691" data-name="Path 9691" d="M667.272,252.735a128.517,128.517,0,0,1-12.228,16.84.073.073,0,0,0,.1.1,59.284,59.284,0,0,0,12.347-16.792.134.134,0,0,0-.222-.151Z" transform="translate(-189.709 -78.44)" fill="#100e3a"/>
    <path id="Path_9692" data-name="Path 9692" d="M635.793,347.629c-1.664,20.216-4.644,51.312-6.213,53.048H607.542c-1.585-1.735-4.541-32.832-6.205-53.048-.792-9.414-1.26-16.467-1.189-17.109h36.834C637.053,331.162,636.562,338.215,635.793,347.629Z" transform="translate(-178.319 -94.595)"/>
    <path id="Path_9693" data-name="Path 9693" d="M635.793,347.629H601.337c-.792-9.414-1.26-16.467-1.189-17.109h36.834C637.053,331.162,636.562,338.215,635.793,347.629Z" transform="translate(-178.319 -94.595)" fill="#100e3a"/>
    <rect id="Rectangle_732" data-name="Rectangle 732" width="43.831" height="12.497" transform="translate(418.335 231.677)"/>
    <path id="Path_9694" data-name="Path 9694" d="M519.466,455.91s-8.424-1.743-17.07-3.962-28.117-3.091-28.568-2.5,18.837,5.436,27.554,6.554,17.617,1.7,17.617,1.7Z" transform="translate(-152.103 -119.239)" fill="#ffc527"/>
    <path id="Path_9695" data-name="Path 9695" d="M462.2,424.376l-5.745-1.466-.483,3.178,5.825.428Z" transform="translate(-94.629 -87.768)" fill="#d7d7fa"/>
    <path id="Path_9696" data-name="Path 9696" d="M531.564,457.565c4.517-.3,8.662,2.734,8.662,2.734s-5.048,2.179-9.066-.594Z" transform="translate(-164.003 -120.957)" fill="#100e3a"/>
    <path id="Path_9697" data-name="Path 9697" d="M515.6,453.566s-8.519,1.181-17.284,2.789-28.267,1.228-28.679.61,19.162-4.176,27.934-4.715,17.68-.531,17.68-.531Z" transform="translate(-151.234 -119.748)" fill="#ff9abb"/>
    <path id="Path_9698" data-name="Path 9698" d="M458.452,420.763l-5.833,1.078-.269-3.194,5.84-.048Z" transform="translate(-93.878 -86.874)" fill="#d7d7fa"/>
    <path id="Path_9699" data-name="Path 9699" d="M527.56,450.582s.214,2.045.262,2.156a49.227,49.227,0,0,0,6.094,1.5c.159-.127-.792-6.894-1.45-6.855S527.56,450.582,527.56,450.582Z" transform="translate(-163.256 -118.847)" fill="#100e3a"/>
  </g>
</svg>
