<svg xmlns="http://www.w3.org/2000/svg" width="573.383" height="358.293" viewBox="0 0 573.383 358.293">
  <g id="art-01" transform="translate(-80.52 -58.65)">
    <path id="Path_21996" data-name="Path 21996" d="M991.55,280.275a.571.571,0,0,0,.544-.4c0-.04.31-1.03.711-2.771a.564.564,0,1,0-1.1-.256c-.4,1.7-.7,2.7-.7,2.7a.567.567,0,0,0,.378.706.668.668,0,0,0,.162,0Z" transform="translate(-500.943 -119.814)" fill="#21111d"/>
    <path id="Path_21997" data-name="Path 21997" d="M800.79,81.935c-1.871-.22-3.792-.382-5.708-.481a.567.567,0,1,1,.059-1.129c1.939.1,3.882.265,5.78.486a.563.563,0,1,1-.063,1.124Zm11.245,2.119c-1.8-.486-3.666-.9-5.577-1.268a.567.567,0,1,1,.207-1.111c1.939.364,3.846.8,5.663,1.286a.567.567,0,0,1,.4.693.576.576,0,0,1-.549.418.742.742,0,0,1-.144,0ZM822.7,88.048a52.322,52.322,0,0,0-5.231-2.249.564.564,0,0,1,.391-1.057,53.153,53.153,0,0,1,5.348,2.312.567.567,0,0,1-.256,1.071.558.558,0,0,1-.252-.058Zm9.356,6.392a37.292,37.292,0,0,0-4.439-3.526.567.567,0,1,1,.634-.936,37.932,37.932,0,0,1,4.574,3.634.562.562,0,0,1-.382.976A.58.58,0,0,1,832.06,94.439Zm16.382,8.1a27.947,27.947,0,0,0-5.636-.09.558.558,0,0,1-.612-.513.567.567,0,0,1,.508-.616,29.237,29.237,0,0,1,5.847.094.567.567,0,0,1-.063,1.129Zm-9.185.666a45.257,45.257,0,0,0-3.329-4.606.567.567,0,0,1,.873-.72,45.731,45.731,0,0,1,3.414,4.727.562.562,0,0,1-.18.778.544.544,0,0,1-.3.085A.567.567,0,0,1,839.257,103.2Zm20.07,2.366a40.986,40.986,0,0,0-5.339-1.934.567.567,0,1,1,.31-1.089,41.65,41.65,0,0,1,5.483,1.988.567.567,0,1,1-.45,1.035Zm-27.6.733a.562.562,0,0,1,.076-.8,17.8,17.8,0,0,1,5.141-2.933.564.564,0,1,1,.4,1.057,16.643,16.643,0,0,0-4.831,2.748.562.562,0,0,1-.8-.076Zm37.333,5.123a47.071,47.071,0,0,0-4.682-3.23.567.567,0,1,1,.585-.967,48.567,48.567,0,0,1,4.795,3.306.569.569,0,0,1-.7.9Zm-25.125,2.1a38.783,38.783,0,0,0-1.979-5.317.562.562,0,1,1,1.026-.45,39.106,39.106,0,0,1,2.029,5.474.567.567,0,0,1-.387.7.625.625,0,0,1-.157,0,.558.558,0,0,1-.54-.409Zm-17.879,2.64a.567.567,0,0,1-.4-.693,22.78,22.78,0,0,1,2.3-5.429.567.567,0,0,1,.976.576,21.591,21.591,0,0,0-2.186,5.155.558.558,0,0,1-.54.414.6.6,0,0,1-.153,0Zm50.912,3.378a39.184,39.184,0,0,0-3.675-4.323.567.567,0,1,1,.805-.792,39.624,39.624,0,0,1,3.783,4.444.567.567,0,0,1-.121.792.589.589,0,0,1-.337.108.571.571,0,0,1-.45-.229Zm-31.414,5.78a.562.562,0,0,1-.495-.625,23.365,23.365,0,0,0,.144-2.613,27.63,27.63,0,0,0-.171-3.009.562.562,0,0,1,.5-.621.571.571,0,0,1,.625.5,28.712,28.712,0,0,1,.175,3.149,23.617,23.617,0,0,1-.153,2.744.562.562,0,0,1-.558.5Zm-19.827,1.9a18.529,18.529,0,0,1-.864-5.7v-.171a.549.549,0,0,1,.549-.549h0a.562.562,0,0,1,.54.571v.148a17.3,17.3,0,0,0,.792,5.339.576.576,0,0,1-.342.715.6.6,0,0,1-.175.032.549.549,0,0,1-.513-.387Zm56.607,2.285a44.745,44.745,0,0,0-2.339-5.182.567.567,0,0,1,1-.531,44.87,44.87,0,0,1,2.4,5.317.567.567,0,0,1-.333.729.593.593,0,0,1-.2.036A.553.553,0,0,1,882.333,129.505Zm-42.861,4.844a.571.571,0,0,1,.346-.724,7.1,7.1,0,0,0,3.747-3.6.565.565,0,0,1,1.008.513A8.163,8.163,0,0,1,840.2,134.7a.553.553,0,0,1-.189.031.571.571,0,0,1-.535-.373Zm-5.272.58a10.5,10.5,0,0,1-5.348-2.7.567.567,0,1,1,.778-.819,9.351,9.351,0,0,0,4.786,2.415.567.567,0,0,1-.108,1.12.45.45,0,0,1-.108,0Zm50.89,5.6a56.74,56.74,0,0,0-1.089-5.6.567.567,0,1,1,1.1-.27c.45,1.831.828,3.751,1.111,5.7a.567.567,0,0,1-.477.643h-.086a.567.567,0,0,1-.558-.486Zm1.2,11.978a.567.567,0,0,1-.553-.576c0-.585,0-1.165,0-1.736,0-1.349-.04-2.7-.112-3.981a.568.568,0,1,1,1.133-.063c.072,1.322.108,2.7.108,4.048v1.759a.562.562,0,0,1-.562.553Zm-1.129,11.456a.562.562,0,0,1-.45-.643c.3-1.885.544-3.8.715-5.681a.567.567,0,1,1,1.129.1c-.18,1.912-.423,3.846-.724,5.753a.567.567,0,0,1-.558.477h-.09Z" transform="translate(-392.838 -11.923)" fill="#21111d"/>
    <path id="Path_21998" data-name="Path 21998" d="M776.056,81.237h.045s1.035-.076,2.771-.1a.58.58,0,0,0,.549-.391.567.567,0,0,0-.526-.747h0c-1.8.027-2.816.1-2.856.108a.567.567,0,0,0,.041,1.129Z" transform="translate(-382.402 -11.747)" fill="#21111d"/>
    <path id="Path_21999" data-name="Path 21999" d="M725.608,81.768l-3.189-3.657s-15.833-1.718-16.058-1.831L698,72.084l10.228-.594L724.947,73.9l.657,7.871Z" transform="translate(-339.741 -7.065)" fill="#ea2d3f"/>
    <path id="Path_22000" data-name="Path 22000" d="M728.745,58.65,698.01,65.019l26.947,1.813,3.787-8.182Z" transform="translate(-339.746 0)" fill="#ff424d"/>
    <path id="Path_22001" data-name="Path 22001" d="M722.425,78.837l-3.976,8.713L698.01,72.81l24.415,6.027Z" transform="translate(-339.746 -7.791)" fill="#ff424d"/>
    <path id="Path_22002" data-name="Path 22002" d="M1039.15,789.788c2.132-2.105,18.792-31.6,30.325-16.427,0,0,18.851-42.766,42.73-34.391,0,0,15.217,8.69,4.165,30.334,0,0,36.843-2.317,36.361,20.484Z" transform="translate(-527.443 -373.718)" fill="#258d8c"/>
    <path id="Path_22003" data-name="Path 22003" d="M1165.66,745.828a.175.175,0,0,1-.148-.072.18.18,0,0,1,.031-.256c.184-.144,4.6-3.544,8.64-4.021a.189.189,0,0,1,.207.162.185.185,0,0,1-.162.207c-3.931.45-8.411,3.909-8.452,3.94A.193.193,0,0,1,1165.66,745.828Z" transform="translate(-596.946 -375.695)"/>
    <path id="Path_22004" data-name="Path 22004" d="M1165.659,751.181a.184.184,0,0,1-.148-.067.189.189,0,0,1,.027-.261,22.563,22.563,0,0,1,6.922-3.531.193.193,0,0,1,.234.126.189.189,0,0,1-.13.229,22.039,22.039,0,0,0-6.787,3.464.194.194,0,0,1-.117.04Z" transform="translate(-596.946 -378.907)"/>
    <path id="Path_22005" data-name="Path 22005" d="M1235.867,713.127c-4.26,5.065-5.474,10.993-2.726,13.242s8.429-.036,12.684-5.1,5.474-10.993,2.7-13.242-8.425.036-12.68,5.1Z" transform="translate(-633.369 -356.817)" fill="#258d8c"/>
    <path id="Path_22006" data-name="Path 22006" d="M1252.392,760.4c-2.519,3-3.243,6.5-1.61,7.84s4.984,0,7.507-3.018,3.239-6.508,1.615-7.84S1254.911,757.379,1252.392,760.4Z" transform="translate(-643.404 -384.161)" fill="#258d8c"/>
    <path id="Path_22007" data-name="Path 22007" d="M336.726,679.564H369.1l-.022-67.784H336.51l.216,67.843Z" transform="translate(-140.847 -304.335)" fill="#4cb7d8"/>
    <path id="Path_22008" data-name="Path 22008" d="M155.87,543.042v-92.82a7.993,7.993,0,0,1,7.993-7.993H344.055a8,8,0,0,1,7.984,7.993v92.82Z" transform="translate(-41.458 -211.048)" fill="#4cb7d8"/>
    <path id="Path_22009" data-name="Path 22009" d="M352.022,666.85v14.843c0,3.086-2.051,5.586-4.574,5.586H160.41c-2.523,0-4.57-2.5-4.57-5.586V666.85Z" transform="translate(-41.441 -334.635)" fill="#3aa1c9"/>
    <path id="Path_22010" data-name="Path 22010" d="M166.49,544.195V455.63a4.282,4.282,0,0,1,4.359-4.2H348.967a4.278,4.278,0,0,1,4.354,4.2v88.565Z" transform="translate(-47.301 -216.109)" fill="#dcf4ff"/>
    <path id="Path_22011" data-name="Path 22011" d="M275.455,759.677a4.782,4.782,0,0,1,4.808-5.847h77.9a7.205,7.205,0,0,1,6.8,5.847Z" transform="translate(-107.207 -382.492)" fill="#3aa1c9"/>
    <path id="Path_22012" data-name="Path 22012" d="M166,563.668H353.016c2.658,0,4.822-2.622,4.822-5.847V450.037a8.249,8.249,0,0,0-8.254-8.227v.45a7.831,7.831,0,0,1,7.817,7.822v108.18c0,2.739-1.943,4.975-4.336,4.975H166v.45Z" transform="translate(-47.032 -210.817)" fill="#21111d"/>
    <path id="Path_22013" data-name="Path 22013" d="M268.672,681.786l.382-.274-4.466-6.212-.378.27,4.462,6.216Z" transform="translate(-101.067 -339.284)" fill="#21111d"/>
    <path id="Path_22014" data-name="Path 22014" d="M268.672,688.524l.378-.279-4.462-6.045-.378.279,4.462,6.045Z" transform="translate(-101.067 -343.081)" fill="#21111d"/>
    <path id="Path_22015" data-name="Path 22015" d="M388.422,719.29l.409-.234-2.222-3.886-.409.234,2.222,3.886Z" transform="translate(-168.187 -361.221)" fill="#21111d"/>
    <path id="Path_22016" data-name="Path 22016" d="M387.861,724.817l.4-.234-2.011-3.423-.4.238,2.011,3.419Z" transform="translate(-167.994 -364.516)" fill="#21111d"/>
    <path id="Path_22017" data-name="Path 22017" d="M166,544.026H353.056v-.45H166.45V455.2a4.048,4.048,0,0,1,4.125-3.972v-.5A4.5,4.5,0,0,0,166,455.173Z" transform="translate(-47.032 -215.724)" fill="#21111d"/>
    <path id="Path_22018" data-name="Path 22018" d="M447.74,407.784s2.177-8.146,4.17-9,4.21.576,4.21.576,2.132-2.906,3.6-2.627a2.335,2.335,0,0,1,1.8,1.574s2.568.27,2.829,2.379c0,0,2.015.49,1.993,2.145,0,0,1.039.472.972,2.478,0,0-3.463,6.769-8.546,9.171s-11.006-6.7-11.006-6.7Z" transform="translate(-202.046 -186.007)" fill="#fe9f73"/>
    <path id="Path_22019" data-name="Path 22019" d="M307.1,578.159l.643-57.254-1.385-7.354L272.79,524.759s1.035,24.2,3.212,53.4Z" transform="translate(-105.788 -250.288)" fill="#351b2e"/>
    <path id="Path_22020" data-name="Path 22020" d="M251.133,571.727,254.9,531.34l6.383-29.479-43.4,17.187s-.31,23.776.216,52.68Z" transform="translate(-75.531 -243.856)" fill="#49263e"/>
    <path id="Path_22021" data-name="Path 22021" d="M428.36,330.32l33.078,55.1-2.753,2.092-26.192-48.56-4.134-8.636Z" transform="translate(-191.383 -149.474)" fill="#49263e"/>
    <path id="Path_22022" data-name="Path 22022" d="M464.482,399.782a13.532,13.532,0,0,1,2.343-1.961c.877-.45,6.113,9.18,6.113,9.18l.756,2.379s-.67,1.259-1.1,1.205a7.7,7.7,0,0,1-1.745-1.053l-.342-1.313-.526-.148-.693-.634-.337-1.044-.733.333-1.044-.414-.481-.972-.207-.094-3.1-4.993,1.1-.472Z" transform="translate(-210.652 -186.605)" fill="#fe9f73"/>
    <path id="Path_22023" data-name="Path 22023" d="M463.184,406.706a3.476,3.476,0,0,1-1.547-.652,8.211,8.211,0,0,0-1.2-.63,2.721,2.721,0,0,0-1.8-.27.18.18,0,0,1-.225-.094.171.171,0,0,1,.09-.22,3,3,0,0,1,2.042.265,8.213,8.213,0,0,1,1.246.657c.868.522,1.417.819,1.8.409a1.615,1.615,0,0,0,.427-1.277c-.094-1.03-1.066-2.348-2.6-3.522a3.668,3.668,0,0,0-3.621-.7.171.171,0,0,1-.225-.085.166.166,0,0,1,.085-.225,4,4,0,0,1,3.967.738c1.637,1.25,2.631,2.622,2.739,3.765a1.966,1.966,0,0,1-.513,1.534.873.873,0,0,1-.666.306Z" transform="translate(-207.446 -187.885)" fill="#f07162"/>
    <path id="Path_22024" data-name="Path 22024" d="M471.158,403.673a.157.157,0,0,1-.117-.045.171.171,0,0,1,0-.238l3.149-3.459a.175.175,0,0,1,.243,0,.166.166,0,0,1,0,.238l-3.149,3.454a.166.166,0,0,1-.126.058Z" transform="translate(-214.84 -187.747)" fill="#f07162"/>
    <path id="Path_22025" data-name="Path 22025" d="M477.172,415.027a1.071,1.071,0,0,1-.679-.238,1.651,1.651,0,0,1-.783-1.75.171.171,0,0,1,.333.076,1.349,1.349,0,0,0,.639,1.39.774.774,0,0,0,.67.162c1.687-.319,4.165-4.606,4.192-4.651a.175.175,0,0,1,.234-.063.18.18,0,0,1,.063.234c-.108.18-2.586,4.462-4.426,4.813a1.151,1.151,0,0,1-.243.027Z" transform="translate(-217.418 -193.277)" fill="#f07162"/>
    <path id="Path_22026" data-name="Path 22026" d="M471.938,410.872a1.48,1.48,0,0,1-.958-.315,2.1,2.1,0,0,1-.67-1.349.171.171,0,0,1,.157-.184.175.175,0,0,1,.184.153,1.754,1.754,0,0,0,.54,1.093,1.291,1.291,0,0,0,1,.225c1.237-.171,3.6-3.882,4.408-5.3a.166.166,0,0,1,.229-.063.171.171,0,0,1,.067.234c-.121.211-3,5.236-4.66,5.465a2.3,2.3,0,0,1-.3,0Z" transform="translate(-214.464 -190.624)" fill="#f07162"/>
    <path id="Path_22027" data-name="Path 22027" d="M258.344,508.931l.2-.256-1.048-58.658s19.3,12.941,25.076,13.188,29.686-35.232,29.686-35.232a22.079,22.079,0,0,0-15.648-13.17l-19.737,21.635-23.128-20.978c-3.081-1.871-26.785-2.276-26.785-2.276s-26.988-.612-30.064,1.259-14.425,32.7-16.193,46.689,0,23.048,10.683,24.7l3.886.085.3,23.012s21.532,4.849,62.773,0Z" transform="translate(-54.792 -195.013)" fill="#aac9f8"/>
    <path id="Path_22028" data-name="Path 22028" d="M296.6,414.925,276.866,436.56l-23.128-20.978c-1.156-.7-5.227-1.2-9.855-1.543l-13.9,33.109L209,413.31c-7.35.067-10.516.288-12.113,1.259-3.086,1.871-14.425,32.7-16.193,46.689s0,23.047,10.683,24.7l3.886.085.3,23.012s21.532,4.849,62.773,0l.2-.256-1.048-58.658s19.3,12.941,25.076,13.188,29.686-35.232,29.686-35.232a22.079,22.079,0,0,0-15.648-13.17Z" transform="translate(-54.786 -195.136)" fill="#ff424d"/>
    <path id="Path_22029" data-name="Path 22029" d="M301.936,539.606H278.25a2.6,2.6,0,0,1-2.6-2.6v-31.3a2.6,2.6,0,0,1,2.6-2.6h23.7a2.6,2.6,0,0,1,2.6,2.6V537a2.609,2.609,0,0,1-2.609,2.6Z" transform="translate(-107.362 -244.544)" fill="#49263e"/>
    <path id="Path_22030" data-name="Path 22030" d="M305.72,500.21h-13.4a1.349,1.349,0,0,0-1.376,1.3h16.166a1.349,1.349,0,0,0-1.376-1.3Z" transform="translate(-115.774 -242.948)" fill="#d6e8f4"/>
    <path id="Path_22031" data-name="Path 22031" d="M309.1,533.872c3.113-2.739-.148-3.2-.148-3.2,1.52-1.642,1.169-2.406.607-2.762a1.511,1.511,0,0,0-1.349-.112c-1.43.553-5.793,2.249-8.456,3.495-1.894-.13-1.291-3.324-.45-4.948.45-.841.45-2.249-1.588-.832-1.678,1.147-4.2,4.916-4.2,4.916l-10.557-1.012,1.57,14.546s12.05-.166,13.867-.18,7.9-2.083,9.734-3.684c3.333-2.9,1.237-3.05,1.237-3.05,3.18-3.337-.252-3.149-.252-3.149Z" transform="translate(-111.384 -256.537)" fill="#fe9f73"/>
    <path id="Path_22032" data-name="Path 22032" d="M332,539.856a.22.22,0,0,1-.216-.135.216.216,0,0,1,.117-.283,26.73,26.73,0,0,0,3.787-2.164.216.216,0,0,1,.3.059.211.211,0,0,1-.054.3,27.17,27.17,0,0,1-3.868,2.208H332Z" transform="translate(-138.235 -263.321)" fill="#f07162"/>
    <path id="Path_22033" data-name="Path 22033" d="M332.444,546.526a.228.228,0,1,1-.076-.45,13.461,13.461,0,0,0,3.693-1.7.22.22,0,0,1,.247.36,13.886,13.886,0,0,1-3.828,1.768h-.036Z" transform="translate(-138.463 -267.233)" fill="#f07162"/>
    <path id="Path_22034" data-name="Path 22034" d="M334.1,553.525a.216.216,0,0,1-.225-.153.221.221,0,0,1,.144-.274,11.617,11.617,0,0,0,3.207-1.642.22.22,0,0,1,.265.346,11.825,11.825,0,0,1-3.346,1.714H334.1Z" transform="translate(-139.394 -271.129)" fill="#f07162"/>
    <path id="Path_22035" data-name="Path 22035" d="M226.391,499.373l-.441-.522,4.3-3.63,1.642-19.921.679.054-1.664,20.2-4.511,3.814Z" transform="translate(-80.016 -229.243)" fill="#21111d"/>
    <path id="Path_22036" data-name="Path 22036" d="M194.809,544.982l-3.931-.085c-5.24-.814-8.6-3.41-10.273-7.943-1.448-3.931-1.669-9.374-.693-17.133l.675.085c-1.993,15.81,1.017,22.854,10.377,24.289l3.864.085v.679Z" transform="translate(-54.359 -253.738)" fill="#21111d"/>
    <path id="Path_22037" data-name="Path 22037" d="M268.982,522.315l10.624.679s2.146,6.774-.45,20.506c-.247,1.349-.778,3.6-.778,3.6s-10.8.859-12.477-2.64c-1.061-2.2,1.264-11.695,1.264-11.695l1.8-10.453Z" transform="translate(-101.845 -255.108)" fill="#ff424d"/>
    <path id="Path_22038" data-name="Path 22038" d="M250.121,545.751,213.76,544.64v-.679l35.813,1.093c.513-2.119,3.792-16.382,1.237-23.443l-26.988-1.727.04-.684,27.437,1.759.076.2c2.978,7.723-1.026,23.65-1.2,24.325l-.067.265Z" transform="translate(-73.309 -253.397)" fill="#21111d"/>
    <path id="Path_22039" data-name="Path 22039" d="M361.964,443.33l-.567-5.622-22.391-20.317c-1.642-1.489-4.831-1.507-4.867-1.507V415.2h0c.144,0,3.481.022,5.317,1.687l22.589,20.488.594,5.888-.679.068Z" transform="translate(-139.543 -196.176)" fill="#21111d"/>
    <path id="Path_22040" data-name="Path 22040" d="M395.134,438.334l-.5-.45,19.863-21.775.184.031a23.265,23.265,0,0,1,15.9,13.359l-.621.283a22.761,22.761,0,0,0-15.212-12.936l-19.611,21.5Z" transform="translate(-172.825 -196.676)" fill="#21111d"/>
    <path id="Path_22041" data-name="Path 22041" d="M296.048,549.746h-.6v-.679c8.524.09,23.727-1.7,26.061-1.979l-.841-64.258h.625l.859,64.847-.3.04c-.166,0-16.471,2.024-25.8,2.024Z" transform="translate(-118.256 -233.386)" fill="#21111d"/>
    <path id="Path_22042" data-name="Path 22042" d="M261.272,429.974a16.116,16.116,0,0,1-7.012-9.315l.657-.189a15.414,15.414,0,0,0,6.715,8.928Z" transform="translate(-95.593 -199.075)" fill="#21111d"/>
    <path id="Path_22043" data-name="Path 22043" d="M273.459,357.643s4.979-2.119,9.306-.5a6.1,6.1,0,0,1,3.891,5.735v2.559l-13.161-5.622s-2.083.985-1.916.688,1.88-2.861,1.88-2.861Z" transform="translate(-105.116 -163.898)" fill="#fe9f73"/>
    <path id="Path_22044" data-name="Path 22044" d="M286.96,364.944v10.8s.162,3.855-3.212,4.336l.63,5.141a4.012,4.012,0,0,1-2.744,4.323,10.516,10.516,0,0,1-3.18.49,6.442,6.442,0,0,1-6.266-4.336c-.324-1.448.643-8.348.643-8.348l-.117-3.391.45-13.143Z" transform="translate(-105.421 -166.25)" fill="#fe9f73"/>
    <path id="Path_22045" data-name="Path 22045" d="M284.126,379.406a.162.162,0,0,1-.117-.27c.022-.022,2.249-2.285,4.251-.657a.162.162,0,0,1,.022.225.157.157,0,0,1-.225.022c-1.8-1.439-3.733.544-3.814.63A.153.153,0,0,1,284.126,379.406Z" transform="translate(-111.938 -175.648)" fill="#21111d"/>
    <path id="Path_22046" data-name="Path 22046" d="M298.793,377.791a.167.167,0,0,1-.121-.283c.063-.054,1.6-1.349,2.564-.535a.162.162,0,0,1,0,.229.157.157,0,0,1-.225,0c-.76-.648-2.132.526-2.146.535a.162.162,0,0,1-.108.04Z" transform="translate(-120.002 -174.995)" fill="#21111d"/>
    <path id="Path_22047" data-name="Path 22047" d="M290.352,382.111a.486.486,0,1,1-.481-.481A.486.486,0,0,1,290.352,382.111Z" transform="translate(-114.916 -177.705)"/>
    <path id="Path_22048" data-name="Path 22048" d="M301.743,381.041a.481.481,0,1,1-.481-.481A.481.481,0,0,1,301.743,381.041Z" transform="translate(-121.188 -177.117)"/>
    <path id="Path_22049" data-name="Path 22049" d="M269.012,358.578s-4.075-.2-5.11,3.369.729,5.456.76,6.518-.684,8.236,4.35,7.7l1.349-11.843-1.754-4.718.391-1.026Z" transform="translate(-100.719 -165.021)" fill="#21111d"/>
    <path id="Path_22050" data-name="Path 22050" d="M275.614,378.8a2.892,2.892,0,1,1-2.888-2.888A2.892,2.892,0,0,1,275.614,378.8Z" transform="translate(-104.159 -174.558)" fill="#fe9f73"/>
    <path id="Path_22051" data-name="Path 22051" d="M274.325,382.3a1.165,1.165,0,0,1-1.133-.9,1.124,1.124,0,0,1,.45-1.318,1.349,1.349,0,0,1,1.516.054,1.322,1.322,0,0,0-.585-.715,1.84,1.84,0,0,0-1.282-.081.086.086,0,0,1-.1-.049.081.081,0,0,1,.054-.1,1.952,1.952,0,0,1,1.408.094,1.57,1.57,0,0,1,.738,1.053l.072.279-.207-.2a1.259,1.259,0,0,0-1.529-.193.985.985,0,0,0-.387,1.138.9.9,0,0,0,.981.711h0c.04.076.076.112.081.157a.055.055,0,0,1-.081.058Z" transform="translate(-105.974 -176.315)" fill="#f07162"/>
    <path id="Path_22052" data-name="Path 22052" d="M280.48,396.29s.234,6.45,8.281,7.066l-.45-3.792s-5.222,1.048-7.817-3.275Z" transform="translate(-110.019 -185.771)" fill="#f07162"/>
    <path id="Path_22053" data-name="Path 22053" d="M295.211,384.372a.085.085,0,0,1-.076-.054.081.081,0,0,1,.054-.1l1.61-.531-.508-3.778a.081.081,0,0,1,.157-.022l.526,3.918-1.736.576Z" transform="translate(-118.08 -176.714)" fill="#f07162"/>
    <path id="Path_22054" data-name="Path 22054" d="M273.34,392.848l.558-5.438,1.349.148v5.447l-1.907-.157Z" transform="translate(-106.091 -180.885)" fill="#fe9f73"/>
    <path id="Path_22055" data-name="Path 22055" d="M273.213,358.22s-.945,2.249.607,6.018-3.981-1.4-3.981-1.4S270.222,357.325,273.213,358.22Z" transform="translate(-104.165 -164.771)" fill="#21111d"/>
    <path id="Path_22056" data-name="Path 22056" d="M481.442,423.25h-.027a2.834,2.834,0,0,1-1.979-1.084,1.993,1.993,0,0,1-.3-1.439.175.175,0,0,1,.2-.13.171.171,0,0,1,.13.2,1.7,1.7,0,0,0,.252,1.183,2.505,2.505,0,0,0,1.75.931.172.172,0,0,1-.027.342Z" transform="translate(-219.303 -199.143)" fill="#f07162"/>
    <path id="Path_22057" data-name="Path 22057" d="M272.463,359.919s12.27-.729,13.044-3.6a2.176,2.176,0,0,0-2.128-2.951s.54-4.084-3.149-2.874-10.575,1.052-12.509,4.5,4.777,4.948,4.777,4.948Z" transform="translate(-102.807 -160.452)" fill="#21111d"/>
    <path id="Path_22058" data-name="Path 22058" d="M465.65,305.52a1.385,1.385,0,1,0,.982.4A1.39,1.39,0,0,0,465.65,305.52Z" transform="translate(-211.136 -135.829)" fill="#f75553"/>
    <path id="Path_22059" data-name="Path 22059" d="M471.82,324.75a1.39,1.39,0,1,0,1.39,1.39A1.39,1.39,0,0,0,471.82,324.75Z" transform="translate(-214.531 -146.41)" fill="#f75553"/>
    <path id="Path_22060" data-name="Path 22060" d="M386.751,271.054l-2.029,1.484-1.961-6.688Zm-3.445,2.519-2.393,1.75a.833.833,0,0,0,.976,1.349l1.912-1.4,1.682,5.735a.823.823,0,0,0,.792.594.859.859,0,0,0,.234-.031.828.828,0,0,0,.558-1.026l-1.849-6.3,2.537-1.853,3,3.918a.828.828,0,1,0,1.313-1l-2.982-3.891,1.615-1.183a.833.833,0,0,0-.976-1.349l-1.642,1.2-5.577-7.282a1.174,1.174,0,0,0-2.056,1.044l2.852,9.734Z" transform="translate(-165 -112.078)" fill="#f75553"/>
    <path id="Path_22061" data-name="Path 22061" d="M409.607,235.737a.7.7,0,0,1,.139.153c.589.832.252,3.086-.45,5.564l-1.147-3.922c.81-1.417,1.241-1.754,1.457-1.8Zm5.991,6.351a2.155,2.155,0,0,1,1.588,1.349,3.023,3.023,0,0,1,.144,2.487c-.814,2.249-3.805,4.1-5.294,4.9l-1.754-6.068c1.286-1.165,3.657-2.937,5.339-2.672Zm-9.994-.544c.585,0,.738-.337,1.25-1.448.072-.144.135-.283.2-.423l1.349,4.574-.049.144a.837.837,0,0,0-.063.166c-.333.9-.679,1.754-1.021,2.519a.823.823,0,0,0,.423,1.089.792.792,0,0,0,.333.072.823.823,0,0,0,.756-.49c.09-.2.225-.508.382-.9l1.948,6.661a.823.823,0,0,0,.792.6.846.846,0,0,0,.234-.036.828.828,0,0,0,.562-1.026l-.175-.594c1.534-.787,5.3-2.973,6.378-5.955a4.7,4.7,0,0,0-.216-3.787,3.7,3.7,0,0,0-2.816-2.249c-1.718-.27-3.6.7-5.029,1.723.81-2.771,1.3-5.784.265-7.246a1.741,1.741,0,0,0-1.615-.841,3.142,3.142,0,0,0-2.038,1.5.828.828,0,0,0-1.322.868l.252.873c-.346.652-.684,1.349-1.012,2.069-.135.288-.283.612-.36.751a.837.837,0,0,0-.22.562.828.828,0,0,0,.828.828Z" transform="translate(-178.415 -96.528)" fill="#258d8c"/>
    <path id="Path_22062" data-name="Path 22062" d="M453.595,249.7a15.021,15.021,0,0,0,3.072-.351.828.828,0,0,0-.337-1.619q-5.8,1.214-7.282-2.213c-1.606-3.769,1.1-10.17,3.018-11.474a2.82,2.82,0,0,1,2.294-.576,3.985,3.985,0,0,1,2.132,1.894.828.828,0,0,0,1.48-.738,5.616,5.616,0,0,0-3.189-2.753,4.372,4.372,0,0,0-3.648.805c-2.663,1.8-5.452,9.167-3.6,13.494.733,1.718,2.379,3.535,6.072,3.535Z" transform="translate(-201.604 -95.238)" fill="#397fa1"/>
    <path id="Path_22063" data-name="Path 22063" d="M401.294,298.294l-17.542,12.05-.72,7.17-3.6-5.083-4.457,3.167a.83.83,0,1,0,.967,1.349l3.077-2.213,5.222,7.332,1.079-10.8,16.912-11.614a.828.828,0,1,0-.94-1.349Z" transform="translate(-161.821 -131.747)" fill="#61a3c5"/>
    <path id="Path_22064" data-name="Path 22064" d="M467.9,309.644a.823.823,0,0,0-1.075-.45l-15.262,6.2a.828.828,0,0,0,.621,1.534l15.262-6.207a.823.823,0,0,0,.45-1.075Z" transform="translate(-203.876 -137.817)" fill="#f75553"/>
    <path id="Path_22065" data-name="Path 22065" d="M457.059,205.746a.814.814,0,0,0,.576.234.828.828,0,0,0,.594-.252l4.179-4.341,4.179,4.341a.837.837,0,0,0,.6.252.828.828,0,0,0,.594-1.4l-4.224-4.385,4.224-4.385a.828.828,0,0,0-1.192-1.147L462.408,199l-4.174-4.341a.828.828,0,1,0-1.192,1.147l4.224,4.385-4.224,4.385a.823.823,0,0,0,.022,1.165Z" transform="translate(-207.025 -74.683)" fill="#fe9f73"/>
    <path id="Path_22066" data-name="Path 22066" d="M177.347,688.127a1.286,1.286,0,0,0,1.268-1.111c0-.112,1.664-11.695,7.7-21.14a1.283,1.283,0,1,0-2.164-1.381c-6.347,9.949-8.011,21.694-8.1,22.188a1.286,1.286,0,0,0,1.1,1.444h.175Z" transform="translate(-52.558 -333.013)" fill="#21111d"/>
    <path id="Path_22067" data-name="Path 22067" d="M99.211,702.459c7.4-13.107,18.8-11.965,25.067-8.546a31.448,31.448,0,0,0,11.128,3.652,31.448,31.448,0,0,0,11.128-3.652c6.266-3.418,17.663-4.561,25.067,8.546s-4.84,59.251-22.787,61.249h-7.408c-.792,0-1.8-.045-2.955-.081a.288.288,0,0,1-.216.081c-.954-.081-1.907-.117-2.829-.126s-1.876.045-2.834.126a.288.288,0,0,1-.211-.081c-1.151.036-2.163.081-2.955.081H122C104.051,761.71,91.8,715.579,99.211,702.459Z" transform="translate(-9.074 -348.284)" fill="#ff424d"/>
    <path id="Path_22068" data-name="Path 22068" d="M238.3,711.744a.386.386,0,0,0,.121,0,.3.3,0,0,0,.153-.391,14.91,14.91,0,0,0-9.716-7.822.3.3,0,0,0-.13.58,14.37,14.37,0,0,1,9.3,7.48.292.292,0,0,0,.27.176Z" transform="translate(-81.416 -354.813)" fill="#21111d"/>
    <path id="Path_22069" data-name="Path 22069" d="M234.582,717.915a.277.277,0,0,0,.117-.027.292.292,0,0,0,.153-.391,14.974,14.974,0,0,0-9.716-7.817.293.293,0,0,0-.355.22.3.3,0,0,0,.225.36,14.355,14.355,0,0,1,9.3,7.48A.292.292,0,0,0,234.582,717.915Z" transform="translate(-79.369 -358.195)" fill="#21111d"/>
    <path id="Path_22070" data-name="Path 22070" d="M110.8,693.15c12.293,16.971,35.934,46.212,56.5,51.375-4.5,10.62-10.993,19.166-18.491,20h-7.408c-.792,0-1.8-.045-2.955-.081a.288.288,0,0,1-.216.081c-.954-.081-1.907-.117-2.829-.126s-1.876.045-2.834.126a.288.288,0,0,1-.211-.081c-1.151.036-2.163.081-2.955.081H122c-17.947-2-30.195-48.128-22.787-61.249,3.333-5.9,7.471-8.91,11.591-10.129Z" transform="translate(-9.074 -349.105)" fill="#ef3a4c"/>
    <path id="Path_22071" data-name="Path 22071" d="M119.415,717.065c1.017,1.763,4.831,1.462,8.519-.666s5.847-5.285,4.84-7.044-4.835-1.466-8.524.666S118.4,715.306,119.415,717.065Z" transform="translate(-21.263 -357.39)" fill="#f46e6e"/>
    <path id="Path_22072" data-name="Path 22072" d="M178.041,763.873h7.44c7.557-.9,13.215-9.041,16.642-15.716,8.06-15.743,11.105-37.706,6.392-46.05-3.319-5.847-7.867-9.536-13.161-10.611a18.469,18.469,0,0,0-12.311,1.952,30.827,30.827,0,0,1-11.015,3.6c-.04,0-3.481.423-7.984-2.186a.3.3,0,0,0-.3.517c4.691,2.7,8.2,2.28,8.353,2.249a31.542,31.542,0,0,0,11.245-3.684c5.649-3.081,17.2-4.772,24.667,8.429,2.213,3.922,2.753,11.245,1.475,20.151a84.26,84.26,0,0,1-7.88,25.337c-4.723,9.239-10.458,14.677-16.143,15.333h-7.422a.274.274,0,0,0-.3.283.3.3,0,0,0,.3.3Z" transform="translate(-45.709 -348.018)" fill="#21111d"/>
    <path id="Path_22073" data-name="Path 22073" d="M342.626,774.07s-7.2,18.059-1.156,31.72l-137.984,1.16-12.734-1.16-11.222-6.954V788.193l3.122-8.8,10.188-5.326Z" transform="translate(-54.476 -393.628)" fill="#fff"/>
    <path id="Path_22074" data-name="Path 22074" d="M194.133,805.159H343.519a1.741,1.741,0,0,0,1.736-1.849,1.8,1.8,0,0,0-1.8-1.628H194.16c-9.036,0-16.391-6.823-16.391-15.208s7.354-15.208,16.391-15.208H343.451a1.8,1.8,0,0,0,1.8-1.624,1.741,1.741,0,0,0-1.732-1.853H194.133c-10.953,0-19.863,8.384-19.863,18.684S183.18,805.159,194.133,805.159Z" transform="translate(-51.582 -390.172)" fill="#49263e"/>
    <path id="Path_22075" data-name="Path 22075" d="M374.831,809.266h73.317a.4.4,0,0,0,.391-.4.549.549,0,0,0-.391-.45H374.831a.549.549,0,0,0-.391.45.387.387,0,0,0,.391.391Z" transform="translate(-161.716 -412.527)" fill="#aac9f8"/>
    <path id="Path_22076" data-name="Path 22076" d="M193.521,809.266h71.23a.4.4,0,0,0,.391-.4.549.549,0,0,0-.391-.45h-71.23a.549.549,0,0,0-.391.45.387.387,0,0,0,.391.391Z" transform="translate(-61.959 -412.527)" fill="#aac9f8"/>
    <path id="Path_22077" data-name="Path 22077" d="M197.811,824.688h36.537a.31.31,0,0,0,.391-.328.715.715,0,0,0-.391-.54H197.811a.729.729,0,0,0-.391.54.391.391,0,0,0,.391.391Z" transform="translate(-64.319 -421)" fill="#aac9f8"/>
    <path id="Path_22078" data-name="Path 22078" d="M290.961,824.688H401.989a.315.315,0,0,0,.391-.328.729.729,0,0,0-.391-.54H290.961a.729.729,0,0,0-.391.54.391.391,0,0,0,.391.391Z" transform="translate(-115.571 -421)" fill="#aac9f8"/>
    <path id="Path_22079" data-name="Path 22079" d="M193.649,805.04H342.981s2.155-.958,2.155-2.146a2.155,2.155,0,0,0-2.155-2.15.391.391,0,1,0,0,.783,1.349,1.349,0,0,1,1.372,1.349c0,.756-1.372,1.493-1.372,1.493H193.649c-10.8,0-19.544-8.236-19.544-18.361s8.766-18.356,19.544-18.356H342.981s1.372.6,1.372,1.349a1.349,1.349,0,0,1-1.372,1.372.391.391,0,0,0,0,.783A2.155,2.155,0,0,0,345.136,769c0-1.183-2.154-2.222-2.154-2.222H193.649c-11.191,0-20.3,8.573-20.3,19.116s9.108,19.121,20.3,19.121Z" transform="translate(-51.076 -389.617)" fill="#21111d"/>
    <path id="Path_22080" data-name="Path 22080" d="M432.614,793.88s4.7,11.695,1.993,20.344l-3.819-5.9a50.376,50.376,0,0,0-4.21,5.906s-2.919-19.269-8.578-20.344Z" transform="translate(-185.683 -404.527)" fill="#4cb7d8"/>
    <path id="Path_22081" data-name="Path 22081" d="M197.811,793.789h152.93a.513.513,0,0,0,.391-.45.418.418,0,0,0-.391-.409H197.811a.418.418,0,0,0-.391.409.391.391,0,0,0,.391.391Z" transform="translate(-64.319 -404.005)" fill="#aac9f8"/>
    <path id="Path_22082" data-name="Path 22082" d="M511.766,471.71v58.878H467.88V481.4l9.45-9.689Z" transform="translate(-213.127 -227.268)" fill="#fff"/>
    <path id="Path_22083" data-name="Path 22083" d="M467.82,481.593l9.369-9.693v9.693Z" transform="translate(-213.094 -227.372)" fill="#3aa1c9"/>
    <path id="Path_22084" data-name="Path 22084" d="M497.523,486.808h19.071a.517.517,0,0,0,.49-.324.544.544,0,0,0-.45-.765H497.55a.513.513,0,0,0-.486.328.544.544,0,0,0,.45.76Z" transform="translate(-229.16 -234.976)" fill="#3aa1c9"/>
    <path id="Path_22085" data-name="Path 22085" d="M491.745,495.5h24.289a.513.513,0,0,0,.486-.328.54.54,0,0,0-.45-.756H491.745a.544.544,0,0,0,0,1.084Z" transform="translate(-225.986 -239.763)" fill="#3aa1c9"/>
    <path id="Path_22086" data-name="Path 22086" d="M477.389,515.788h35.228a.544.544,0,0,0,0-1.088h-35.2a.508.508,0,0,0-.481.319.544.544,0,0,0,.45.769Z" transform="translate(-218.085 -250.921)" fill="#3aa1c9"/>
    <path id="Path_22087" data-name="Path 22087" d="M477.386,525.449h35.228a.544.544,0,0,0,0-1.089H477.422a.526.526,0,0,0-.49.324.544.544,0,0,0,.45.765Z" transform="translate(-218.082 -256.236)" fill="#3aa1c9"/>
    <path id="Path_22088" data-name="Path 22088" d="M477.389,535.108h35.228a.544.544,0,0,0,0-1.089h-35.2a.508.508,0,0,0-.481.319.544.544,0,0,0,.45.769Z" transform="translate(-218.085 -261.551)" fill="#3aa1c9"/>
    <path id="Path_22089" data-name="Path 22089" d="M477.389,554.428h35.2a.513.513,0,0,0,.486-.324.544.544,0,0,0-.45-.765H477.42a.5.5,0,0,0-.486.328.544.544,0,0,0,.45.76Z" transform="translate(-218.084 -272.181)" fill="#3aa1c9"/>
    <path id="Path_22090" data-name="Path 22090" d="M477.386,564.088h35.228a.544.544,0,1,0,0-1.089h-35.2a.513.513,0,0,0-.486.324.544.544,0,0,0,.45.765Z" transform="translate(-218.082 -277.496)" fill="#3aa1c9"/>
    <path id="Path_22091" data-name="Path 22091" d="M477.389,589.2h35.228a.544.544,0,0,0,0-1.084h-35.2a.508.508,0,0,0-.481.319.54.54,0,0,0,.45.765Z" transform="translate(-218.084 -291.317)" fill="#3aa1c9"/>
    <path id="Path_22092" data-name="Path 22092" d="M275.385,371.722l.531,2.249.531-.67s1.053-3.216.328-4.759-3.625.675-3.625.675l2.249,2.514Z" transform="translate(-105.986 -170.204)" fill="#21111d"/>
    <path id="Path_22093" data-name="Path 22093" d="M268.027,410.39l7.143,5.033,4.781-4.642L282.794,412l-2.492,8.245-4.925-3.027-4.579,3.027L264.64,411.7l3.387-1.313Z" transform="translate(-101.304 -193.529)" fill="#edfcfb"/>
    <path id="Path_22094" data-name="Path 22094" d="M353.6,620.96H166.98v16.3H353.6v-16.3Z" transform="translate(-47.571 -309.386)" fill="#fec786"/>
    <path id="Path_22095" data-name="Path 22095" d="M341.839,642.279H185.558a.8.8,0,0,1-.8-.63.774.774,0,0,1,.783-.9h156.3a.76.76,0,0,1,0,1.52Z" transform="translate(-57.346 -320.274)" fill="#fff"/>
    <path id="Path_22096" data-name="Path 22096" d="M271,642.279H185.558a.8.8,0,0,1-.8-.63.774.774,0,0,1,.783-.9H271a.8.8,0,0,1,.8.625.774.774,0,0,1-.783.9Z" transform="translate(-57.346 -320.274)" fill="#ef3a4c"/>
    <path id="Path_22097" data-name="Path 22097" d="M377.065,640.517a1.547,1.547,0,1,1-1.547-1.547A1.547,1.547,0,0,1,377.065,640.517Z" transform="translate(-161.458 -319.295)" fill="#d82540"/>
    <path id="Path_22098" data-name="Path 22098" d="M549.364,641.876h-1.3V634.49h1.3v7.386Z" transform="translate(-257.243 -316.83)" fill="#ef3a4c"/>
    <path id="Path_22099" data-name="Path 22099" d="M557.094,641.876h-1.3V634.49h1.3v7.386Z" transform="translate(-261.496 -316.83)" fill="#ef3a4c"/>
    <path id="Path_22100" data-name="Path 22100" d="M721.12,774.07s7.2,18.059,1.156,31.72l137.979,1.156,12.734-1.156,11.245-6.954V788.193l-3.117-8.8-10.188-5.326Z" transform="translate(-352.461 -393.628)" fill="#fff"/>
    <path id="Path_22101" data-name="Path 22101" d="M859.847,805.159H710.515a1.8,1.8,0,0,1-1.8-1.628,1.741,1.741,0,0,1,1.736-1.849H859.815c9.036,0,16.386-6.823,16.386-15.208s-7.35-15.208-16.386-15.208H710.529a1.8,1.8,0,0,1-1.8-1.628,1.741,1.741,0,0,1,1.736-1.849H859.851c10.953,0,19.863,8.384,19.863,18.684s-8.91,18.684-19.863,18.684Z" transform="translate(-345.635 -390.172)" fill="#f75553"/>
    <path id="Path_22102" data-name="Path 22102" d="M724.391,809.266h73.317a.4.4,0,0,0,.391-.4.549.549,0,0,0-.391-.45H724.391a.549.549,0,0,0-.391.45.391.391,0,0,0,.391.391Z" transform="translate(-354.046 -412.527)" fill="#aac9f8"/>
    <path id="Path_22103" data-name="Path 22103" d="M910.311,809.266h71.216a.4.4,0,0,0,.391-.4.549.549,0,0,0-.391-.45H910.311a.549.549,0,0,0-.391.45.391.391,0,0,0,.391.391Z" transform="translate(-456.34 -412.527)" fill="#aac9f8"/>
    <path id="Path_22104" data-name="Path 22104" d="M983.151,824.688h36.541a.315.315,0,0,0,.391-.328c0-.22-.18-.391-.391-.54H983.151c-.216.148-.391.319-.391.54a.391.391,0,0,0,.391.391Z" transform="translate(-496.417 -421)" fill="#aac9f8"/>
    <path id="Path_22105" data-name="Path 22105" d="M724.391,824.688H835.419a.315.315,0,0,0,.391-.328c0-.22-.175-.391-.391-.54H724.391c-.216.148-.391.319-.391.54a.391.391,0,0,0,.391.391Z" transform="translate(-354.046 -421)" fill="#aac9f8"/>
    <path id="Path_22106" data-name="Path 22106" d="M709.99,805.067H859.344c11.191,0,20.3-8.578,20.3-19.121s-9.108-19.116-20.3-19.116H709.99s-2.15,1.039-2.15,2.222,1.021,1.214,2.208,1.214a.391.391,0,1,0,0-.783c-.756,0-1.426.328-1.426-.45s1.349-1.349,1.349-1.349H859.3c10.773,0,19.539,8.236,19.539,18.356S870.076,804.4,859.3,804.4H709.972s-1.349-.738-1.349-1.493a1.349,1.349,0,0,1,1.349-1.349.391.391,0,0,0,0-.783,2.155,2.155,0,0,0,0,4.3Z" transform="translate(-345.155 -389.644)" fill="#21111d"/>
    <path id="Path_22107" data-name="Path 22107" d="M761.79,793.88s-4.709,11.695-1.993,20.344l3.819-5.9a50.965,50.965,0,0,1,4.21,5.906s2.924-19.269,8.578-20.344Z" transform="translate(-373.277 -404.527)" fill="#7fc6a6"/>
    <path id="Path_22108" data-name="Path 22108" d="M724.391,793.789h152.93a.517.517,0,0,0,.391-.45.423.423,0,0,0-.391-.409H724.391a.418.418,0,0,0-.391.409.391.391,0,0,0,.391.391Z" transform="translate(-354.046 -404.005)" fill="#aac9f8"/>
    <path id="Path_22109" data-name="Path 22109" d="M906.3,690.51s-7.2,18.064-1.161,31.719L767.156,723.39l-12.734-1.174-11.222-6.94V704.638l3.117-8.8,10.188-5.326Z" transform="translate(-364.61 -347.653)" fill="#fff"/>
    <path id="Path_22110" data-name="Path 22110" d="M758.053,722.084H907.385a1.8,1.8,0,0,0,1.8-1.624,1.732,1.732,0,0,0-1.732-1.849H758.08c-9.036,0-16.39-6.823-16.39-15.208s7.354-15.208,16.39-15.208h149.3a1.8,1.8,0,0,0,1.8-1.633,1.736,1.736,0,0,0-1.732-1.844H758.053c-10.953,0-19.863,8.38-19.863,18.684S747.1,722.084,758.053,722.084Z" transform="translate(-361.853 -344.467)" fill="#3f9896"/>
    <path id="Path_22111" data-name="Path 22111" d="M1012.038,726.158H938.721a.567.567,0,0,1-.391-.481.387.387,0,0,1,.391-.387h73.317a.387.387,0,0,1,.391.387.391.391,0,0,1-.391.391Z" transform="translate(-471.971 -366.789)" fill="#aac9f8"/>
    <path id="Path_22112" data-name="Path 22112" d="M828.715,726.158H757.521a.567.567,0,0,1-.391-.481.387.387,0,0,1,.391-.387h71.193a.387.387,0,0,1,.391.387.391.391,0,0,1-.391.391Z" transform="translate(-372.274 -366.789)" fill="#aac9f8"/>
    <path id="Path_22113" data-name="Path 22113" d="M798.268,741.613H761.731a.45.45,0,0,1-.391-.423.486.486,0,0,1,.391-.45h36.537a.486.486,0,0,1,.391.45.387.387,0,0,1-.391.391Z" transform="translate(-374.591 -375.289)" fill="#aac9f8"/>
    <path id="Path_22114" data-name="Path 22114" d="M965.909,741.613H854.881a.45.45,0,0,1-.391-.423.486.486,0,0,1,.391-.45H965.909a.486.486,0,0,1,.391.45.387.387,0,0,1-.391.391Z" transform="translate(-425.842 -375.289)" fill="#aac9f8"/>
    <path id="Path_22115" data-name="Path 22115" d="M906.924,721.987H757.569c-11.191,0-20.3-8.578-20.3-19.116s9.108-19.121,20.3-19.121H906.924s2.155.949,2.155,2.136a2.159,2.159,0,0,1-2.155,2.155.391.391,0,1,1,0-.783,1.349,1.349,0,0,0,1.349-1.349c0-.756-1.349-1.268-1.349-1.268h-149.4c-10.71,0-19.427,8.186-19.427,18.253s8.717,18.248,19.427,18.248h149.4s1.349-.607,1.349-1.349a1.349,1.349,0,0,0-1.349-1.349.391.391,0,1,1,0-.783,2.155,2.155,0,1,1,0,4.3Z" transform="translate(-361.347 -343.933)" fill="#21111d"/>
    <path id="Path_22116" data-name="Path 22116" d="M1043.938,710.32s4.7,11.695,1.992,20.344l-3.823-5.906a50.959,50.959,0,0,0-4.21,5.906s-2.919-19.269-8.578-20.344Z" transform="translate(-522.035 -358.552)" fill="#ff424d"/>
    <path id="Path_22117" data-name="Path 22117" d="M914.65,710.218H761.72a.315.315,0,0,1-.391-.328.729.729,0,0,1,.391-.54H914.65a.729.729,0,0,1,.391.54.391.391,0,0,1-.391.391Z" transform="translate(-374.584 -358.019)" fill="#aac9f8"/>
    <path id="Path_22118" data-name="Path 22118" d="M776.619,808.539h1.039l-2.285-37.369H772.8l3.819,37.369Z" transform="translate(-380.896 -392.032)" fill="#4c222e"/>
    <path id="Path_22119" data-name="Path 22119" d="M699.393,808.539H698.35l2.285-37.369h2.573l-3.814,37.369Z" transform="translate(-339.933 -392.032)" fill="#4c222e"/>
    <path id="Path_22120" data-name="Path 22120" d="M757.984,655.25H735.63L723.8,707.9l25.62-2.73,8.564-49.918Z" transform="translate(-353.936 -328.252)" fill="#fec786"/>
    <path id="Path_22121" data-name="Path 22121" d="M681.758,701.561s29.484.747,38.233.747a2.96,2.96,0,0,0,2.888-2.456l7.795-43.18a2.042,2.042,0,0,1,2.451-1.66,2.123,2.123,0,0,1,1.556,2.469l-8.816,48.911a2.123,2.123,0,0,1-.45.985,3.364,3.364,0,0,1-2.969,1.8H681.884a3.4,3.4,0,0,1-3.364-3.441c0-1.9,1.4-4.188,3.261-4.188Z" transform="translate(-329.022 -328.095)" fill="#f99247"/>
    <path id="Path_22122" data-name="Path 22122" d="M770.584,702.523a3.113,3.113,0,0,0,3.045-2.591l7.795-43.153a1.916,1.916,0,0,1,.814-1.255,1.826,1.826,0,0,1,1.444-.274.166.166,0,0,0,.2-.126.171.171,0,0,0-.144-.189,2.155,2.155,0,0,0-1.7.324,2.213,2.213,0,0,0-.954,1.471l-7.781,43.14a2.784,2.784,0,0,1-2.7,2.321.166.166,0,0,0,0,.333Z" transform="translate(-379.598 -328.049)" fill="#21111d"/>
    <path id="Path_22123" data-name="Path 22123" d="M738.1,765.25H754.01a4.3,4.3,0,0,0,4.822-3.733l.945-5.236a.166.166,0,1,0-.324-.063l-.949,5.254c0,.153-.409,3.648-4.471,3.342H738.1c-.095-.04-.166.036-.166.126a.166.166,0,0,0,.166.171Z" transform="translate(-361.71 -383.72)" fill="#21111d"/>
    <path id="Path_22124" data-name="Path 22124" d="M780.452,655.206h7.8a.234.234,0,0,0,.162-.207.288.288,0,0,0-.162-.229h-7.8c-.09.072-.166.148-.162.238a.166.166,0,0,0,.162.171Z" transform="translate(-385.017 -327.988)" fill="#21111d"/>
    <path id="Path_22125" data-name="Path 22125" d="M711.474,693.549l-2.555,1.1L706.071,696s-4.417.769-4.5.756l.369.657c-5.483.675-22.764,1.385-25.6,1.7-1.714.189-3.355,2.316-4.394,3.976l1.408.949s15.091-.666,15.059-.351c0,.1-.45,1.6-1.1,3.562,9.324.621,22.377.562,24.8-3.279,1.993-3.149.05-7.673-.657-10.431Z" transform="translate(-325.408 -349.32)" fill="#fe9f73"/>
    <path id="Path_22126" data-name="Path 22126" d="M629.69,829.458l11.3.157.162-10.719L629.69,817.48v11.978Z" transform="translate(-302.156 -417.512)" fill="#fe9f73"/>
    <path id="Path_22127" data-name="Path 22127" d="M603.218,842.164l23.389-.036v-4.673a3.617,3.617,0,0,0-4.3-1.089,5.779,5.779,0,0,1-7.3-.526l-8.668,3.7s-3.149,1.035-3.149,2.622Z" transform="translate(-287.581 -427.614)" fill="#3aa1c9"/>
    <path id="Path_22128" data-name="Path 22128" d="M625.756,851.91l-24.289.041a.247.247,0,0,1-.247-.247v-1.066a.247.247,0,0,1,.247-.247h24.086l.216,1.453Z" transform="translate(-286.492 -435.62)" fill="#472a31"/>
    <path id="Path_22129" data-name="Path 22129" d="M623.84,837.675c.792,1.214,2.37,3.652,3.378,5.2h1.592c-.9-1.39-2.78-4.3-3.715-5.739Z" transform="translate(-298.938 -428.329)" fill="#d7e4f7"/>
    <path id="Path_22130" data-name="Path 22130" d="M622.227,843.925h1.592l-3.149-4.885-1.25.531c.846,1.309,2.02,3.126,2.82,4.354Z" transform="translate(-296.506 -429.375)" fill="#d7e4f7"/>
    <path id="Path_22131" data-name="Path 22131" d="M706.437,725.637s9.9.166,16.791-.072a42.928,42.928,0,0,0,5.37-.18c4.813-1.07,6-16.1.531-25.31s-24.6,19.067-24.6,19.067Z" transform="translate(-343.334 -351.901)" fill="#4cb7d8"/>
    <path id="Path_22132" data-name="Path 22132" d="M668.91,829.458l11.47.157.162-10.719-11.42-1.417-.211,11.978Z" transform="translate(-323.735 -417.512)" fill="#fe9f73"/>
    <path id="Path_22133" data-name="Path 22133" d="M642.84,842.17l23.416-.036v-4.669a3.624,3.624,0,0,0-4.3-1.089,5.779,5.779,0,0,1-7.3-.526l-8.663,3.7s-3.149,1.03-3.149,2.618Z" transform="translate(-309.391 -427.619)" fill="#4cb7d8"/>
    <path id="Path_22134" data-name="Path 22134" d="M665.366,851.91l-24.289.036a.247.247,0,0,1-.247-.247v-1.066a.243.243,0,0,1,.243-.243H665.15l.216,1.453Z" transform="translate(-308.285 -435.62)" fill="#683d46"/>
    <path id="Path_22135" data-name="Path 22135" d="M663.45,837.675l3.4,5.2h1.6l-3.72-5.739-1.255.535Z" transform="translate(-320.731 -428.329)" fill="#d7e4f7"/>
    <path id="Path_22136" data-name="Path 22136" d="M661.82,843.925h1.6l-3.149-4.885-1.268.531c.846,1.309,2.02,3.126,2.82,4.354Z" transform="translate(-318.283 -429.375)" fill="#d7e4f7"/>
    <path id="Path_22137" data-name="Path 22137" d="M652.49,711.271s-24.248,1.552-24.946,4.349-2.7,32.57-1.205,45.272c0,0,9.2.634,13.6-.45l1.071-30.928,7.264-.837,16.642-20-12.419,2.613Z" transform="translate(-300.015 -357.65)" fill="#3aa1c9"/>
    <path id="Path_22138" data-name="Path 22138" d="M685.14,713.42s-18.7,5.281-19.4,8.1-2.7,29.367-1.192,42.065c0,0,9.9.571,14.294-.5l1.183-29.21,4.269.148,10.345-18.2Z" transform="translate(-321.033 -360.258)" fill="#4cb7d8"/>
    <path id="Path_22139" data-name="Path 22139" d="M681.028,788.828c4.372,0,5.928-.657,6-.688l.094-.045L688.3,758.71l-1.8.855.144.306,1.3-.616-1.12,28.611c-.45.162-2.739.819-8.1.571v.337c.855.036,1.633.054,2.339.054Z" transform="translate(-329.138 -385.177)" fill="#21111d"/>
    <path id="Path_22140" data-name="Path 22140" d="M692.6,786.927c.45-1.8.6-19.341.6-20.1h-.337c0,.184-.139,18.257-.594,20.016l.328.085Z" transform="translate(-336.588 -389.644)" fill="#21111d"/>
    <path id="Path_22141" data-name="Path 22141" d="M654.2,754.995a23.151,23.151,0,0,1,5.3-.828v-.337a23.532,23.532,0,0,0-5.4.841l.1.324Z" transform="translate(-315.587 -382.492)" fill="#21111d"/>
    <path id="Path_22142" data-name="Path 22142" d="M643.058,786.438a30.241,30.241,0,0,0,6.338-.616l.126-.031,1.084-31.31-1.381,1.133.211.265.805-.652-1.048,30.316a30.433,30.433,0,0,1-6.464.58v.337Z" transform="translate(-309.331 -382.849)" fill="#21111d"/>
    <path id="Path_22143" data-name="Path 22143" d="M653.267,786.211c.45-2.7.022-21.118,0-21.9h-.337c0,.189.45,19.148,0,21.833l.333.058Z" transform="translate(-314.943 -388.258)" fill="#21111d"/>
    <path id="Path_22144" data-name="Path 22144" d="M708.432,758.743c4.309,0,9.468-.144,15.293-.58l-.027-.333a173.631,173.631,0,0,1-29.012,0l-.036.333a137.486,137.486,0,0,0,13.8.58Z" transform="translate(-337.897 -384.692)" fill="#21111d"/>
    <path id="Path_22145" data-name="Path 22145" d="M695.288,692.46c-.337,0-13.768,5.771-13.768,5.771l2.7,5.182,7.539-1.655,3.522-9.3Z" transform="translate(-330.673 -348.726)" fill="#fd7583"/>
    <path id="Path_22146" data-name="Path 22146" d="M755.39,638.93s5.712-.2,8.438,1.349c4.071,2.3,2.622,15.509,2.622,15.509s-3.459-1.889-3.666-2.519-7.395-14.335-7.395-14.335Z" transform="translate(-371.317 -319.269)" fill="#fd7583"/>
    <path id="Path_22147" data-name="Path 22147" d="M753.065,702.27h-.022l-4.2.958a.157.157,0,1,1-.072-.306l4.2-.958a.153.153,0,0,1,.189.117.157.157,0,0,1-.094.18Z" transform="translate(-367.602 -353.952)" fill="#21111d"/>
    <path id="Path_22148" data-name="Path 22148" d="M715.008,697.1l-2.559,1.107-2.847,1.349s-4.417.765-4.5.751l.364.657c-5.483.679-22.764,1.385-25.6,1.7-1.709.189-3.355,2.316-4.39,3.976l1.4.949s15.091-.666,15.064-.351c0,.1-.45,1.6-1.1,3.562,9.32.621,22.373.562,24.8-3.279,1.988-3.149.049-7.673-.657-10.426Z" transform="translate(-327.35 -351.278)" fill="#f9b59d"/>
    <path id="Path_22149" data-name="Path 22149" d="M726.438,640.3c-3.248-.45-11.812-.76-11.812-.76s-1.138.3-.774.13c-9.446,1.669-10.507,8.686-10.507,8.686l-4.619,20.268-5.137.279c-1.66,3.149-.45,11.65-.45,11.65l24.892,2.825s5.4.9,9.931-4.948c3.009-3.859,4.048-15.711,4.048-24.37,0,0-.517-13.044-5.559-13.737Z" transform="translate(-336.832 -319.609)" fill="#fd7583"/>
    <path id="Path_22150" data-name="Path 22150" d="M612.66,676.02h23.727l8.276,21.077H620.936L612.66,676.02Z" transform="translate(-292.786 -339.68)" fill="#e23e3d"/>
    <path id="Path_22151" data-name="Path 22151" d="M672.133,697.1H670.9L662.62,676.02h1.241l8.272,21.077Z" transform="translate(-320.274 -339.68)" fill="#cc2323"/>
    <path id="Path_22152" data-name="Path 22152" d="M644.2,696.293c.328.967.085,1.921-.54,2.132s-1.4-.4-1.727-1.349-.085-1.925.54-2.136,1.394.4,1.727,1.349Z" transform="translate(-308.811 -350.066)" fill="#e2f2f1"/>
    <path id="Path_22153" data-name="Path 22153" d="M690.429,719H681.37v1.741h9.036a.873.873,0,1,0,0-1.741Z" transform="translate(-330.591 -363.325)" fill="#cc2323"/>
    <path id="Path_22154" data-name="Path 22154" d="M689.435,720.676H683.79v-.216h5.645v.216Z" transform="translate(-331.922 -364.131)" fill="#e23e3d"/>
    <path id="Path_22155" data-name="Path 22155" d="M748.827,682.428a.167.167,0,0,1-.094,0,.162.162,0,0,1-.117-.189c.027-.112,2.631-11.173,3.733-18.127a.162.162,0,0,1,.184-.135.171.171,0,0,1,.13.18c-1.111,6.972-3.715,18.041-3.742,18.149a.162.162,0,0,1-.094.112Z" transform="translate(-367.588 -333.053)" fill="#21111d"/>
    <path id="Path_22156" data-name="Path 22156" d="M713.037,683.879a.161.161,0,0,1-.1,0,.148.148,0,0,1-.1-.193c.04-.126,3.9-12.369,4.7-16.6a.162.162,0,0,1,.184-.126.153.153,0,0,1,.121.184c-.805,4.251-4.673,16.512-4.709,16.642a.166.166,0,0,1-.094.1Z" transform="translate(-347.895 -334.693)" fill="#21111d"/>
    <path id="Path_22157" data-name="Path 22157" d="M747.552,646.976l-.373.031a.13.13,0,0,1-.139-.121.126.126,0,0,1,.121-.139c5.4-.378,6.419-4.341,6.428-4.381a.126.126,0,0,1,.148-.108.13.13,0,0,1,.108.148c0,.041-1,4.021-6.3,4.57Z" transform="translate(-366.722 -321.103)" fill="#21111d"/>
    <path id="Path_22158" data-name="Path 22158" d="M709.316,665.677a.153.153,0,0,1-.189-.067l-1.057-1.8v-.058l3.558-15.608a9.446,9.446,0,0,1,1.871-3.967c1.448-1.88,4.3-4.273,9.666-4.988a.159.159,0,1,1,.04.315c-5.254.7-8.038,3.023-9.446,4.849a9.257,9.257,0,0,0-1.8,3.841h0l-3.544,15.549.994,1.7a.149.149,0,0,1-.058.211h0Z" transform="translate(-345.281 -319.414)" fill="#21111d"/>
    <path id="Path_22159" data-name="Path 22159" d="M698.227,695.638a.157.157,0,0,1-.112-.292l4.538-1.8a.157.157,0,0,1,.117.292l-4.538,1.8Z" transform="translate(-339.756 -349.317)" fill="#21111d"/>
    <path id="Path_22160" data-name="Path 22160" d="M693.579,704.82s-1.642,3.877-.45,11.65l6-3.221-1.8-5.811-3.783-2.618Z" transform="translate(-336.822 -355.526)" fill="#fd7583"/>
    <path id="Path_22161" data-name="Path 22161" d="M723.332,704.522h-.063c-.225,0-22.463-.67-29.736-.072a19.494,19.494,0,0,0-.774,7.462.153.153,0,0,1-.148.162.157.157,0,0,1-.162-.148c-.261-5.114.783-7.583.828-7.687l.036-.085h.094c7.2-.616,29.646.058,29.871.063a.162.162,0,0,1,.153.166.157.157,0,0,1-.1.139Z" transform="translate(-336.663 -355.016)" fill="#21111d"/>
    <path id="Path_22162" data-name="Path 22162" d="M738.277,611.5l-.18,6.841s-.144,2.2,1.772,2.519l-.45,2.928a2.289,2.289,0,0,0,1.5,2.505,6.006,6.006,0,0,0,1.8.328,3.679,3.679,0,0,0,3.639-2.384,27.557,27.557,0,0,0-.211-4.79l.117-1.934-.054-7.507-7.925,1.475Z" transform="translate(-361.801 -303.361)" fill="#fe9f73"/>
    <path id="Path_22163" data-name="Path 22163" d="M746.2,630.25s-.225,3.675-4.831,3.909l.324-2.159a4.368,4.368,0,0,0,4.5-1.75Z" transform="translate(-363.603 -314.497)" fill="#f07162"/>
    <path id="Path_22164" data-name="Path 22164" d="M747.244,620.5a.09.09,0,0,0,.063-.027.1.1,0,0,0,0-.13s-1.237-1.349-2.411-.45a.091.091,0,0,0,.126.13c1.044-.8,2.123.364,2.168.414a.1.1,0,0,0,.068.031Z" transform="translate(-365.528 -308.628)" fill="#49263e"/>
    <path id="Path_22165" data-name="Path 22165" d="M754.342,615.622l-1.988.36-.364.36a18.849,18.849,0,0,1,.643-3.949c.387-.639,1.709,3.229,1.709,3.229Z" transform="translate(-369.446 -304.633)" fill="#e23e3d"/>
    <path id="Path_22166" data-name="Path 22166" d="M740.046,619.386a.108.108,0,0,0,.072-.031.1.1,0,0,0,0-.13c-.036-.031-.9-.8-1.457-.342a.091.091,0,0,0,.117.139c.45-.36,1.205.333,1.214.337a.081.081,0,0,0,.058.027Z" transform="translate(-362.094 -308.162)" fill="#49263e"/>
    <path id="Path_22167" data-name="Path 22167" d="M745.983,622.005a.27.27,0,1,0,.265-.265.265.265,0,0,0-.279.265Z" transform="translate(-366.134 -309.815)"/>
    <path id="Path_22168" data-name="Path 22168" d="M739.53,621.231a.268.268,0,1,1,0,.013Z" transform="translate(-362.591 -309.391)"/>
    <path id="Path_22169" data-name="Path 22169" d="M751.059,620.285a1.651,1.651,0,1,0,1.691-1.606,1.651,1.651,0,0,0-1.691,1.606Z" transform="translate(-368.934 -308.131)" fill="#fe9f73"/>
    <path id="Path_22170" data-name="Path 22170" d="M754.539,622.131a.684.684,0,0,0,.418-1.232.769.769,0,0,0-.868,0,.76.76,0,0,1,.342-.4,1.039,1.039,0,0,1,.733-.027.045.045,0,0,0,.035,0,.046.046,0,0,0,0-.084,1.115,1.115,0,0,0-.805.032.9.9,0,0,0-.45.589l-.041.157.117-.112a.715.715,0,0,1,.873-.085.558.558,0,0,1,.207.657.391.391,0,0,1-.571.283h0c-.027.148-.045.166-.045.193s0,.045.04.022Z" transform="translate(-370.497 -309.037)" fill="#f07162"/>
    <path id="Path_22171" data-name="Path 22171" d="M742.535,623.192l.049-.031a.049.049,0,0,0-.031-.058l-.9-.328.346-2.155a.045.045,0,0,0-.01-.033.045.045,0,0,0-.031-.016.05.05,0,0,0-.054.036l-.355,2.249.981.355Z" transform="translate(-363.702 -309.171)" fill="#f07162"/>
    <path id="Path_22172" data-name="Path 22172" d="M743.069,628.3l-1.8-.094s.207.742.868.778a1.057,1.057,0,0,0,.945-.684Z" transform="translate(-363.548 -313.375)" fill="#fbfdfc"/>
    <path id="Path_22173" data-name="Path 22173" d="M744.443,610.615s.639-3.2-.31-4.422-6.54-3.459-7.237-2.879a.913.913,0,0,0-.036,1.322s-2.249-.783-2.816,1.21,4.287,2.978,7.2,2.114a6.5,6.5,0,0,1,3.18,2.654Z" transform="translate(-359.547 -299.625)" fill="#e23e3d"/>
    <path id="Path_22174" data-name="Path 22174" d="M753.156,700.855a10.856,10.856,0,0,1-1.035.333,8.653,8.653,0,0,1-3.324.288.153.153,0,0,1-.13-.18.157.157,0,0,1,.18-.13,8.493,8.493,0,0,0,3.207-.288,12.381,12.381,0,0,0,6.571-4.6c2.91-3.733,3.972-15.221,4-23.929a.157.157,0,1,1,.315,0c0,8.758-1.106,20.326-4.048,24.123a13.224,13.224,0,0,1-5.717,4.385Z" transform="translate(-367.616 -337.573)" fill="#21111d"/>
    <path id="Path_22175" data-name="Path 22175" d="M851.447,554.533s.855,7.7,2,7.777-.792,9.09-3.841,4.673c-1.066-1.547-1.017-11.672,1.529-13.84S851.447,554.533,851.447,554.533Z" transform="translate(-422.795 -271.688)" fill="#49263e"/>
    <path id="Path_22176" data-name="Path 22176" d="M853.126,550.27s-1.057,7.269-.1,8.546a2.006,2.006,0,0,0,1.6.724l-.09,4.277,5.137-.589.171-12.144s-1.462-3-1.466-2.879-5.249,2.06-5.249,2.06Z" transform="translate(-424.816 -269.354)" fill="#fe9f73"/>
    <path id="Path_22177" data-name="Path 22177" d="M856.533,563.035s.027,0,.032-.036a.054.054,0,0,0,0-.058c-.216-.068-.342-.45-.382-.558a1.35,1.35,0,0,0,.562-.868,1.971,1.971,0,0,0-.157-1.129s-.027-.027-.045,0a.059.059,0,0,0,0,.063,1.9,1.9,0,0,1,.148,1.053,1.282,1.282,0,0,1-.553.828h-.027v.04s.144.562.45.652Z" transform="translate(-426.734 -276.051)" fill="#f07162"/>
    <path id="Path_22178" data-name="Path 22178" d="M856.678,573.636v-1.457a9.975,9.975,0,0,0,3.981-1.039,12.4,12.4,0,0,1-4,2.5Z" transform="translate(-427.036 -281.975)" fill="#f07162"/>
    <path id="Path_22179" data-name="Path 22179" d="M861.852,559.895a.081.081,0,0,0,.063-.027.089.089,0,0,0,.028-.065.091.091,0,0,0-.028-.065s-1.183-1.246-2.285-.387a.1.1,0,0,0,0,.13.094.094,0,0,0,.13,0c.967-.756,2,.319,2.038.364a.085.085,0,0,0,.068.032Z" transform="translate(-428.657 -275.322)" fill="#49263e"/>
    <path id="Path_22180" data-name="Path 22180" d="M854.472,559.628a.1.1,0,0,0,.072-.036.09.09,0,0,0,0-.13c-.032-.027-.85-.747-1.381-.306a.094.094,0,0,0,.117.144c.409-.342,1.134.3,1.143.3a.085.085,0,0,0,.059.027Z" transform="translate(-425.1 -275.302)" fill="#49263e"/>
    <path id="Path_22181" data-name="Path 22181" d="M860.45,561.675a.261.261,0,1,0,.522,0,.261.261,0,0,0-.522-.009Z" transform="translate(-429.121 -276.621)"/>
    <path id="Path_22182" data-name="Path 22182" d="M853.709,561.686a.252.252,0,0,0,.252.256.256.256,0,1,0-.261-.256Z" transform="translate(-425.408 -276.632)"/>
    <path id="Path_22183" data-name="Path 22183" d="M857.641,567.24l-1.831.2a1.079,1.079,0,0,0,1,.639c.666-.072.832-.841.832-.841Z" transform="translate(-426.569 -279.829)" fill="#fbfdfc"/>
    <path id="Path_22184" data-name="Path 22184" d="M857.787,550.992l1.246-1.732a12.368,12.368,0,0,0-1.835,1.3,3.183,3.183,0,0,1,.589.45Z" transform="translate(-427.327 -269.936)" fill="#fe9f73"/>
    <path id="Path_22185" data-name="Path 22185" d="M858.175,548.361s-.36,2.7-6.855,3.257c0,0-1.507-4.012,3.212-5.353s5.141,2.276,5.051,2.249-1.408-.144-1.408-.144Z" transform="translate(-423.972 -268.124)" fill="#49263e"/>
    <path id="Path_22186" data-name="Path 22186" d="M863.687,550.27a24.627,24.627,0,0,1,1.759,3.072s-2.172,11.362,2.2,10.723h.783c3.868-.054,1.188-8.425,1.125-12.869-.04-2.784-3.418-5.609-5.618-3.913s-.252,3-.252,3Z" transform="translate(-430.465 -268.566)" fill="#49263e"/>
    <path id="Path_22187" data-name="Path 22187" d="M866.1,562.83a1.448,1.448,0,1,0,.438-1.02,1.453,1.453,0,0,0-.438,1.02Z" transform="translate(-432.23 -276.615)" fill="#fe9f73"/>
    <path id="Path_22188" data-name="Path 22188" d="M868.836,564.4a.612.612,0,0,0,.58-.45.571.571,0,0,0-.225-.67.683.683,0,0,0-.751,0,.643.643,0,0,1,.288-.333.9.9,0,0,1,.639-.031.045.045,0,0,0,.058-.027.04.04,0,0,0,0-.036.041.041,0,0,0-.028-.023.963.963,0,0,0-.715.036.792.792,0,0,0-.378.526l-.045.162.121-.117a.625.625,0,0,1,.76-.085.49.49,0,0,1,.184.571.517.517,0,0,1-.5.382.04.04,0,0,0-.045.045.045.045,0,0,0,.045.045Z" transform="translate(-433.419 -277.372)" fill="#f07162"/>
    <path id="Path_22189" data-name="Path 22189" d="M850.7,550.06s-2.249,2.379-1.736,9.216l1.556-6.747.18-2.469Z" transform="translate(-422.762 -270.376)" fill="#49263e"/>
    <path id="Path_22190" data-name="Path 22190" d="M835.829,757.546l8.285-2.591-3.032-9.716-8.623,1.448,3.369,10.858Z" transform="translate(-413.721 -377.765)" fill="#fe9f73"/>
    <path id="Path_22191" data-name="Path 22191" d="M827.472,773.684l14.879-8.96-1.8-2.969a2.7,2.7,0,0,0-3.149.949,4.293,4.293,0,0,1-4.84,2.451l-4.1,5.663s-1.61,1.858-1,2.865Z" transform="translate(-410.896 -386.756)" fill="#fecc86"/>
    <path id="Path_22192" data-name="Path 22192" d="M842.569,769.609l-15.154,9.126a.45.45,0,0,1-.594-.148l-.18-.3a.45.45,0,0,1,.148-.594l15.154-9.126Z" transform="translate(-410.489 -390.602)" fill="#683d46"/>
    <path id="Path_22193" data-name="Path 22193" d="M840.971,697.695l-3.841-7.808,8.267-4.066,3.841,7.8-8.267,4.071Z" transform="translate(-416.291 -345.072)" fill="#fe9f73"/>
    <path id="Path_22194" data-name="Path 22194" d="M837.1,658.117c-.193,0-7.219,3.113-7.219,3.113l-2.249,1.462s3.427,23.322,4.048,29.547c0,0-4.948,3.495-9.976,3.625,0,0-10.345-36.105-10.345-40.693s22.04-15.45,22.04-15.45l10.026,5.784s15.064,1.237,18.527,3.6-26.916,16.089-26.916,16.089l2.047-7.075Z" transform="translate(-402.112 -319.708)" fill="#ff424d"/>
    <path id="Path_22195" data-name="Path 22195" d="M851.38,670.41s17-10.138,22.85-11.717,10.039-.247,10.674,1.6,1.273,7.053,0,8.766-23.448,9.9-28.53,11.312C856.373,680.369,851.848,675.115,851.38,670.41Z" transform="translate(-424.131 -329.761)" fill="#ff424d"/>
    <path id="Path_22196" data-name="Path 22196" d="M889.177,653.415ZM889.136,653.415Zm16.157,3.972c-1.349-2.7-15.338-4.1-16.148-3.976a.157.157,0,0,1-.189-.058.162.162,0,0,1,.045-.225,31.9,31.9,0,0,1,4.206.315,61.793,61.793,0,0,1,7.606,1.376c2.7.72,4.327,1.534,4.768,2.424a.157.157,0,0,1-.072.216.153.153,0,0,1-.072,0,.166.166,0,0,1-.144-.09Z" transform="translate(-444.791 -327.065)" fill="#21111d"/>
    <path id="Path_22197" data-name="Path 22197" d="M852.845,674.784a.2.2,0,0,0,.085,0,.171.171,0,0,0,.049-.225,11.618,11.618,0,0,1-1.687-4.948,155.339,155.339,0,0,1,23.592-12.527.159.159,0,1,0-.126-.292,154.818,154.818,0,0,0-23.722,12.594l-.077.054v.09a11.7,11.7,0,0,0,1.741,5.186.162.162,0,0,0,.139.072Z" transform="translate(-423.9 -329.093)" fill="#21111d"/>
    <path id="Path_22198" data-name="Path 22198" d="M897.225,658.021a.162.162,0,0,0,.126-.059,7.263,7.263,0,0,1,1.768-1.462.162.162,0,0,0-.162-.279,7.519,7.519,0,0,0-1.858,1.538.162.162,0,0,0,.027.225A.149.149,0,0,0,897.225,658.021Z" transform="translate(-449.268 -328.779)" fill="#21111d"/>
    <path id="Path_22199" data-name="Path 22199" d="M814.853,684.3h.036a.162.162,0,0,0,.121-.211c-.031-.139-3.324-13.773-3.733-16.121-.391-2.249,4.448-5.555,4.5-5.586a.162.162,0,1,0-.18-.27c-.207.139-5.065,3.454-4.637,5.91.409,2.361,3.711,16,3.742,16.139a.162.162,0,0,0,.157.126Z" transform="translate(-401.876 -332.01)" fill="#21111d"/>
    <path id="Path_22200" data-name="Path 22200" d="M842.807,690.4a.147.147,0,0,0,.085-.027l3.918-2.5a.166.166,0,0,0,.045-.225.157.157,0,0,0-.22-.049l-3.913,2.5a.162.162,0,0,0,.085.3Z" transform="translate(-419.327 -346.037)" fill="#21111d"/>
    <path id="Path_22201" data-name="Path 22201" d="M834.123,723.741h0c.288-.036,7.138-.99,10.062-3.661l.063-.058v-.081l-2.955-21.923-.9-7.8a.162.162,0,0,0-.319.036l.9,7.8L843.92,719.9c-2.892,2.559-9.76,3.513-9.828,3.522a.162.162,0,1,0,0,.324Z" transform="translate(-414.53 -347.424)" fill="#21111d"/>
    <path id="Path_22202" data-name="Path 22202" d="M920.287,679.928a.149.149,0,0,0,.094-.031c1.835-1.349,1.8-2.51,1.8-2.559a.157.157,0,0,0-.162-.157.162.162,0,0,0-.157.166s0,1.057-1.687,2.294a.157.157,0,0,0,.094.288Z" transform="translate(-461.944 -340.318)" fill="#21111d"/>
    <path id="Path_22203" data-name="Path 22203" d="M916.66,679.648a.144.144,0,0,0,.072,0c2.011-1.066,2.168-2.222,2.173-2.249a.162.162,0,0,0-.139-.18.166.166,0,0,0-.18.14s-.166,1.048-2,2.024a.157.157,0,0,0-.068.216.162.162,0,0,0,.144.085Z" transform="translate(-459.959 -340.339)" fill="#21111d"/>
    <path id="Path_22204" data-name="Path 22204" d="M856.27,593.538l3.149-13.147h8.546a6.4,6.4,0,0,1,2.2.625c3.423,1.822,12.837,12.2,12.369,18.738-.45,5.937-9,4.759-17.493,6.131l-1.889-7.871,3.081-.823-9.936-3.652Z" transform="translate(-426.822 -287.064)" fill="#4cb7d8"/>
    <path id="Path_22205" data-name="Path 22205" d="M832.759,595.476V580.39h-8.546a6.361,6.361,0,0,0-2.2.625c-3.423,1.822-14.02,12.527-13.548,19.067.423,5.937,10.417,5.7,15.1,7.143l2.6-9.41-.234-.481,6.814-1.858Z" transform="translate(-400.509 -287.064)" fill="#4cb7d8"/>
    <path id="Path_22206" data-name="Path 22206" d="M831.58,609.737l.108,16.453s14.9,2.7,28.157-.805c.328-.085-.621-13.6-.621-13.6s0-2.618-1.385-3.427-12.662-5.816-12.927-5.816-13.332,7.2-13.332,7.2Z" transform="translate(-413.237 -299.251)" fill="#4cb7d8"/>
    <path id="Path_22207" data-name="Path 22207" d="M863.362,585.505a.157.157,0,0,1-.162-.148.162.162,0,0,1,.153-.171c4.894-.306,6.491-3.661,6.5-3.693a.163.163,0,0,1,.3.135c0,.031-1.687,3.558-6.783,3.877Z" transform="translate(-430.634 -287.618)" fill="#21111d"/>
    <path id="Path_22208" data-name="Path 22208" d="M851.57,580.39h10.8s-1.948,3.378-5.676,3.364c-1.709,0-3.54-.634-5.11-3.364Z" transform="translate(-424.236 -287.064)" fill="#fe9f73"/>
    <path id="Path_22209" data-name="Path 22209" d="M851.3,623.5a1.251,1.251,0,0,0,.049-1.57,2.14,2.14,0,0,0-.027-1.511s-2.879.855-4.5,1.457a1.89,1.89,0,0,1-1.25-.585l-.023.036c0-.8-.04-1.8-.04-1.912,0-.189-.306-.495-.783.108s-1.4,2.222-1.4,2.222l-2.384-1.4L839,627.055s5.78.819,6.671.9a11.031,11.031,0,0,0,4.907-1.426c.922-.76.724-1.448.724-1.448a1.17,1.17,0,0,0,0-1.561Z" transform="translate(-417.32 -308.401)" fill="#f78c63"/>
    <path id="Path_22210" data-name="Path 22210" d="M852.35,618.285v2.078a1.885,1.885,0,0,0,1.8.733l.9-.328-.706-3.018-1.979.535Z" transform="translate(-424.665 -307.62)" fill="#fd7583"/>
    <path id="Path_22211" data-name="Path 22211" d="M861.986,626.217a.108.108,0,0,1-.036-.207,13.59,13.59,0,0,0,1.939-.9.108.108,0,0,1,.149.036.112.112,0,0,1-.041.148,13.233,13.233,0,0,1-1.979.931Z" transform="translate(-429.911 -311.661)" fill="#f07162"/>
    <path id="Path_22212" data-name="Path 22212" d="M861.976,629.485a.107.107,0,0,1-.022-.211,6.709,6.709,0,0,0,1.876-.693.1.1,0,0,1,.144.036.108.108,0,0,1-.036.148,6.786,6.786,0,0,1-1.943.72Z" transform="translate(-429.9 -313.57)" fill="#f07162"/>
    <path id="Path_22213" data-name="Path 22213" d="M862.5,632.944a.108.108,0,0,1-.1-.086.112.112,0,0,1,.085-.13,5.681,5.681,0,0,0,1.633-.679.106.106,0,1,1,.113.18,5.765,5.765,0,0,1-1.7.711Z" transform="translate(-430.192 -315.478)" fill="#f07162"/>
    <path id="Path_22214" data-name="Path 22214" d="M840.842,621.069l-3.283-.819s-1.849,4.588-1.849,4.741a34.889,34.889,0,0,0,1.039,4.183,12.742,12.742,0,0,0,1.165-1.107Z" transform="translate(-415.509 -308.995)" fill="#4cb7d8"/>
    <path id="Path_22215" data-name="Path 22215" d="M831.529,609.032l-1.619-.261a.194.194,0,1,1,.063-.382l1.349.216,3.063-4.709a.2.2,0,0,1,.27-.054.193.193,0,0,1,.054.27l-3.18,4.9Z" transform="translate(-412.228 -299.95)" fill="#21111d"/>
    <path id="Path_22216" data-name="Path 22216" d="M834.856,587.127a.171.171,0,0,0,.135-.067c1.21-1.745,2.249-1.75,2.249-1.75h0a.16.16,0,1,0,0-.319h0c-.063,0-1.219.027-2.514,1.885a.158.158,0,0,0,.04.22A.144.144,0,0,0,834.856,587.127Z" transform="translate(-414.952 -289.595)" fill="#21111d"/>
    <path id="Path_22217" data-name="Path 22217" d="M835.623,590.588a.157.157,0,0,0,.144-.09c.931-1.867,1.961-2.051,1.97-2.056a.159.159,0,1,0-.045-.315c-.054,0-1.2.193-2.213,2.249a.166.166,0,0,0,.072.22h.072Z" transform="translate(-415.373 -291.321)" fill="#21111d"/>
    <path id="Path_22218" data-name="Path 22218" d="M853.788,620.84a.112.112,0,0,0,.117-.054.1.1,0,0,0-.041-.144,13.071,13.071,0,0,1-1.7-1.3.108.108,0,1,0-.144.162,12.959,12.959,0,0,0,1.745,1.318h.027Z" transform="translate(-424.461 -308.483)" fill="#f07162"/>
    <path id="Path_22219" data-name="Path 22219" d="M853.151,624.06a.1.1,0,0,0,.121-.063.108.108,0,0,0-.058-.139,6.7,6.7,0,0,1-1.687-1.066.107.107,0,0,0-.153.148,6.858,6.858,0,0,0,1.754,1.107Z" transform="translate(-424.111 -310.376)" fill="#f07162"/>
    <path id="Path_22220" data-name="Path 22220" d="M852.2,627.4a.108.108,0,0,0,.068-.2,5.717,5.717,0,0,1-1.457-1,.108.108,0,0,0-.153.153,5.947,5.947,0,0,0,1.52,1.048Z" transform="translate(-423.718 -312.247)" fill="#f07162"/>
    <path id="Path_22221" data-name="Path 22221" d="M884.1,608.191l1.633.081a.2.2,0,0,0,0-.391l-1.381-.068-2.015-5.222a.194.194,0,1,0-.36.144l2.1,5.456Z" transform="translate(-440.956 -299.212)" fill="#21111d"/>
    <path id="Path_22222" data-name="Path 22222" d="M871.51,619.61l1.687,8.1s3.468-2.825,3.468-3.149a35.069,35.069,0,0,0-1.215-4.138C875.338,620.348,871.51,619.61,871.51,619.61Z" transform="translate(-435.207 -308.643)" fill="#4cb7d8"/>
    <path id="Path_22223" data-name="Path 22223" d="M873.074,624.98h.171A30.016,30.016,0,0,0,882,622.758a.195.195,0,1,0-.148-.36,29.847,29.847,0,0,1-8.465,2.177l-1.444-7.61,6.589-2.249a.195.195,0,1,0-.126-.369l-6.909,2.361Z" transform="translate(-435.201 -305.742)" fill="#21111d"/>
    <path id="Path_22224" data-name="Path 22224" d="M834.136,624.98h-.171a30.027,30.027,0,0,1-8.762-2.222.193.193,0,0,1-.1-.256.189.189,0,0,1,.252-.1,29.883,29.883,0,0,0,8.465,2.177l1.444-7.61-6.589-2.249a.2.2,0,0,1-.121-.247.193.193,0,0,1,.247-.122l6.909,2.362Z" transform="translate(-409.663 -305.741)" fill="#21111d"/>
    <path id="Path_22225" data-name="Path 22225" d="M856.234,633.295H825.729a1.349,1.349,0,0,1-1.349-1.372V615.109a1.349,1.349,0,0,1,1.349-1.349h30.505a1.349,1.349,0,0,1,1.349,1.349v16.813a1.349,1.349,0,0,1-1.349,1.372Z" transform="translate(-409.275 -305.424)" fill="#49263e"/>
    <path id="Path_22226" data-name="Path 22226" d="M861.519,630.349a1.349,1.349,0,1,0-1.349,1.349,1.327,1.327,0,0,0,1.349-1.349Z" transform="translate(-428.225 -313.81)" fill="#fff"/>
    <path id="Path_22227" data-name="Path 22227" d="M779.445,424.8a14.974,14.974,0,1,1,13.1-16.642A14.974,14.974,0,0,1,779.445,424.8Zm18.981-22.422a21.92,21.92,0,0,0-3.486-6.207L797.666,391l-3.149-2.469-3.149-2.469-4.385,3.859a21.9,21.9,0,0,0-6.855-1.93l-1.709-5.582-3.963.45-3.963.45-.373,5.847a22,22,0,0,0-6.216,3.481l-5.164-2.721-2.469,3.149-2.469,3.149,3.855,4.386a21.9,21.9,0,0,0-1.925,6.855l-5.582,1.727.472,3.963.45,3.967,5.847.373a21.983,21.983,0,0,0,3.508,6.207l-2.721,5.164,3.149,2.469L764,433.795l4.381-3.855a21.963,21.963,0,0,0,6.859,1.93l1.727,5.577,3.963-.45,3.967-.45.369-5.847a21.994,21.994,0,0,0,6.194-3.495l5.164,2.7,2.469-3.149,2.469-3.149-3.855-4.381a22.086,22.086,0,0,0,1.93-6.855l5.577-1.732-.45-3.963-.472-3.963-5.825-.373Z" transform="translate(-368.434 -178.134)" fill="#4cb7d8"/>
    <path id="Path_22228" data-name="Path 22228" d="M804.426,407.245a.225.225,0,0,1-.225-.2l-.45-3.774-5.789-.373-.049-.148a21.837,21.837,0,0,0-3.446-6.149l-.094-.117,2.7-5.128-5.973-4.7-4.354,3.832-.135-.063a21.717,21.717,0,0,0-6.783-1.912.229.229,0,0,1,.049-.45,22.137,22.137,0,0,1,6.792,1.889l4.413-3.886,6.571,5.177-2.739,5.2a22.266,22.266,0,0,1,3.374,6.018l5.847.378.495,4.152a.225.225,0,0,1-.2.252Zm-41.921,4.948a.225.225,0,0,1-.225-.2,15.2,15.2,0,1,1,30.195-3.6.229.229,0,0,1-.45.054,14.746,14.746,0,1,0-29.286,3.481.229.229,0,0,1-.2.252Zm-2.375,12.01a.238.238,0,0,1-.18-.086,22.258,22.258,0,0,1-3.468-6.14l-5.888-.387-.985-8.308,5.618-1.741A22.177,22.177,0,0,1,757.1,400.9l-3.886-4.412,5.177-6.567,5.2,2.739a22.08,22.08,0,0,1,6.018-3.373l.378-5.87,4.152-.495a.229.229,0,0,1,.054.45l-3.778.45-.387,5.8-.139.049a21.68,21.68,0,0,0-6.149,3.45l-.117.09-5.128-2.7-4.7,5.978,3.828,4.349-.063.135a21.614,21.614,0,0,0-1.907,6.787v.148l-5.537,1.714.9,7.552,5.789.369.049.144a21.837,21.837,0,0,0,3.445,6.149.225.225,0,0,1-.036.319.229.229,0,0,1-.139.049Zm3.558,10.174-3.288-2.591a.234.234,0,0,1-.036-.319.225.225,0,0,1,.319-.036l2.987,2.352,4.354-3.832.135.063a21.741,21.741,0,0,0,6.787,1.912.229.229,0,0,1,.2.252.22.22,0,0,1-.252.2,22,22,0,0,1-6.792-1.885l-4.413,3.886Zm16.921,3.041a.229.229,0,0,1-.225-.2.225.225,0,0,1,.2-.252l3.774-.45.373-5.789.139-.049a21.59,21.59,0,0,0,6.149-3.445l.117-.09,5.128,2.7,4.687-5.951-3.828-4.354.063-.135a21.555,21.555,0,0,0,1.907-6.783.234.234,0,0,1,.252-.2.229.229,0,0,1,.2.252,22.256,22.256,0,0,1-1.885,6.792l3.882,4.413-5.173,6.572-5.2-2.762a22.011,22.011,0,0,1-6.018,3.373l-.373,5.847-4.156.5Z" transform="translate(-368.137 -178.415)"/>
    <path id="Path_22229" data-name="Path 22229" d="M575.214,254.927s-7.264-12.01-24.694-8.9C550.52,246.03,562.255,263.432,575.214,254.927Z" transform="translate(-258.596 -102.814)" fill="#3f9896"/>
    <path id="Path_22230" data-name="Path 22230" d="M592.126,233.826s-2.164-24.073-31.486-32.426C560.64,201.4,565.646,237.19,592.126,233.826Z" transform="translate(-264.165 -78.542)" fill="#7fc6a6"/>
    <path id="Path_22231" data-name="Path 22231" d="M616.7,287.1a27.685,27.685,0,1,1,24.253-30.734A27.685,27.685,0,0,1,616.7,287.1Zm37.189-21.909a40.438,40.438,0,0,0-.324-13.161l8.91-6.09-2.991-6.747-2.991-6.747L646,234.964a40.549,40.549,0,0,0-9.54-9.077l2-10.606-6.886-2.654L624.687,210l-5.64,9.176a40.689,40.689,0,0,0-13.161.324l-6.09-8.906-6.747,2.991-6.747,2.991,2.519,10.516a40.527,40.527,0,0,0-9.077,9.536l-10.606-1.993-2.654,6.85-2.654,6.882,9.2,5.645a40.562,40.562,0,0,0,.324,13.161l-8.91,6.09,2.991,6.747,2.991,6.747,10.5-2.514a40.528,40.528,0,0,0,9.522,9.086l-1.993,10.606,6.882,2.654,6.886,2.654,5.645-9.2a40.689,40.689,0,0,0,13.161-.324l6.09,8.906,6.747-2.991,6.747-2.991-2.487-10.494a40.418,40.418,0,0,0,9.072-9.536l10.611,1.993,2.654-6.886,2.654-6.882-9.2-5.645Z" transform="translate(-265.92 -83.274)" fill="#f7ab48"/>
    <path id="Path_22232" data-name="Path 22232" d="M636.116,225.8h-.041a.234.234,0,0,1-.184-.265l1.961-10.422-13.413-5.173-5.622,9.185h-.148a40.451,40.451,0,0,0-13.089.324.229.229,0,0,1-.265-.18.225.225,0,0,1,.18-.265,40.586,40.586,0,0,1,13.089-.346l5.663-9.239,14.124,5.447-2.029,10.8a.225.225,0,0,1-.225.184Zm-50.494,36.955a.229.229,0,0,1-.225-.2,27.911,27.911,0,1,1,55.437-6.545.229.229,0,0,1-.454.054,27.453,27.453,0,1,0-54.529,6.428.229.229,0,0,1-.2.252Zm-18.531,17.169a.22.22,0,0,1-.207-.135l-3.072-6.918,8.946-6.113a40.69,40.69,0,0,1-.319-12.941l-9.239-5.658,5.447-14.128,10.656,2a40.7,40.7,0,0,1,8.924-9.374L585.7,216.126l6.918-3.072a.234.234,0,0,1,.3.117.229.229,0,0,1-.117.3l-6.571,2.915,2.514,10.453-.121.09a40.271,40.271,0,0,0-9.023,9.486l-.085.121-10.561-1.984-5.173,13.413,9.167,5.622-.022.148a40.453,40.453,0,0,0,.324,13.089l.027.144-8.874,6.068,2.915,6.572a.229.229,0,0,1-.117.3.217.217,0,0,1-.09,0Zm66.435,25.616a.225.225,0,0,1-.207-.135.229.229,0,0,1,.117-.3l6.589-2.91-2.505-10.453.117-.09a40.376,40.376,0,0,0,9.027-9.486l.081-.121,10.57,1.984,5.173-13.413-9.185-5.609.022-.148A40.455,40.455,0,0,0,653,251.768l-.031-.144,8.879-6.068-5.906-13.318a.227.227,0,1,1,.414-.184l6.059,13.665-8.942,6.1a40.688,40.688,0,0,1,.319,12.941l9.239,5.645-5.465,14.142-10.629-2a40.728,40.728,0,0,1-8.924,9.378l2.523,10.534-6.918,3.068a.171.171,0,0,1-.094.022ZM601.981,309.2l-14.133-5.438,2-10.647a40.818,40.818,0,0,1-9.468-9.045.225.225,0,0,1,.045-.315.229.229,0,0,1,.319.04,40.378,40.378,0,0,0,9.486,9.027l.121.081-1.988,10.57,13.426,5.164,5.622-9.167.148.022a40.423,40.423,0,0,0,13.085-.324.234.234,0,0,1,.27.18.225.225,0,0,1-.184.265,40.555,40.555,0,0,1-13.085.346l-5.667,9.234Z" transform="translate(-265.573 -82.954)"/>
    <path id="Path_22233" data-name="Path 22233" d="M889.158,330.768a10.156,10.156,0,1,1,3.751-13.863A10.156,10.156,0,0,1,889.158,330.768Zm5.883-19.035a15.009,15.009,0,0,0-3.828-2.951l.328-3.945-2.6-.7-2.613-.706L884.615,307a14.921,14.921,0,0,0-4.79.621l-2.559-3.036-2.348,1.349-2.348,1.349,1.318,3.733a14.714,14.714,0,0,0-2.951,3.823l-3.945-.324-.706,2.613-.706,2.613,3.567,1.709a14.894,14.894,0,0,0,.621,4.786l-3.018,2.564,1.349,2.348,1.349,2.348,3.733-1.318A15.066,15.066,0,0,0,877,335.132l-.324,3.945,2.613.706,2.613.706,1.709-3.571a14.921,14.921,0,0,0,4.79-.621l2.559,3.023,2.348-1.349,2.348-1.349-1.318-3.733a14.812,14.812,0,0,0,2.951-3.823l3.945.324.706-2.613.706-2.613-3.571-1.709a14.764,14.764,0,0,0-.616-4.786l3.018-2.564-1.349-2.348-1.349-2.348-3.733,1.318Z" transform="translate(-431.944 -134.679)" fill="#fd7583"/>
    <path id="Path_22234" data-name="Path 22234" d="M671.19,549.729H625.639a1.772,1.772,0,0,1-1.8-1.772V521.3a1.772,1.772,0,0,1,1.8-1.772H671.19a1.772,1.772,0,0,1,1.772,1.772v26.655A1.772,1.772,0,0,1,671.19,549.729Z" transform="translate(-298.937 -253.578)" fill="#fff"/>
    <path id="Path_22235" data-name="Path 22235" d="M672.075,530.764H631.143a.522.522,0,0,1-.5-.328.54.54,0,0,1,.45-.756h40.931a.531.531,0,0,1,.5.328.544.544,0,0,1-.472.76Z" transform="translate(-302.656 -259.163)" fill="#61a3c5"/>
    <path id="Path_22236" data-name="Path 22236" d="M672.069,543.8H631.138a.531.531,0,0,1-.5-.324.544.544,0,0,1,.45-.76h40.931a.544.544,0,0,1,0,1.084Z" transform="translate(-302.651 -266.338)" fill="#61a3c5"/>
    <path id="Path_22237" data-name="Path 22237" d="M657.734,556.357H631.156a.531.531,0,0,1-.5-.324.544.544,0,0,1,.45-.765h26.587a.531.531,0,0,1,.531.328.549.549,0,0,1-.477.76Z" transform="translate(-302.659 -273.241)" fill="#61a3c5"/>
    <path id="Path_22238" data-name="Path 22238" d="M709.864,556.358h-10.62a.549.549,0,0,1-.477-.76.531.531,0,0,1,.5-.328h10.57a.526.526,0,0,1,.5.328.544.544,0,0,1-.45.76Z" transform="translate(-340.14 -273.243)" fill="#61a3c5"/>
    <path id="Path_22239" data-name="Path 22239" d="M647.874,569.4H631.151a.526.526,0,0,1-.5-.324.54.54,0,0,1,.45-.76h16.773a.544.544,0,0,1,0,1.084Z" transform="translate(-302.659 -280.423)" fill="#61a3c5"/>
    <path id="Path_22240" data-name="Path 22240" d="M697.437,569.4H676.683a.522.522,0,0,1-.5-.324.544.544,0,0,1,.45-.76h20.754a.517.517,0,0,1,.5.333.544.544,0,0,1-.45.756Z" transform="translate(-327.712 -280.423)" fill="#61a3c5"/>
    <path id="Path_22241" data-name="Path 22241" d="M699.67,582.949c.054.207,7.961,10.494,8.011,10.192s-.9-11.052-.9-11.052Z" transform="translate(-340.659 -287.999)" fill="#fff"/>
    <path id="Path_22242" data-name="Path 22242" d="M970.165,477.121H924.619a1.772,1.772,0,0,1-1.8-1.772V456.1a1.772,1.772,0,0,1,1.8-1.772h45.546a1.772,1.772,0,0,1,1.8,1.772v19.269a1.772,1.772,0,0,1-1.8,1.768Z" transform="translate(-463.438 -217.705)" fill="#fff"/>
    <path id="Path_22243" data-name="Path 22243" d="M971.125,465.074H930.193a.526.526,0,0,1-.5-.328.54.54,0,0,1,.45-.756H971.1a.544.544,0,0,1,0,1.084Z" transform="translate(-467.195 -223.02)" fill="#61a3c5"/>
    <path id="Path_22244" data-name="Path 22244" d="M971.127,478.114H930.2a.526.526,0,0,1-.5-.328.544.544,0,0,1,.45-.756H971.1a.544.544,0,0,1,0,1.084Z" transform="translate(-467.197 -230.195)" fill="#61a3c5"/>
    <path id="Path_22245" data-name="Path 22245" d="M1008.921,491.154H998.333a.522.522,0,0,1-.5-.328.54.54,0,0,1,.45-.756h10.588a.531.531,0,0,1,.5.324.544.544,0,0,1-.472.76Z" transform="translate(-504.686 -237.369)" fill="#61a3c5"/>
    <path id="Path_22246" data-name="Path 22246" d="M998.73,502.439c.049.2,7.957,10.494,8.006,10.188s-.9-11.047-.9-11.047l-7.093.859Z" transform="translate(-505.204 -243.702)" fill="#fff"/>
    <path id="Path_22247" data-name="Path 22247" d="M957.584,491.154H932.665c-.666,0-1.205-.243-1.205-.54s.54-.544,1.205-.544h24.919c.666,0,1.206.243,1.206.544S958.25,491.154,957.584,491.154Z" transform="translate(-468.192 -237.37)" fill="#61a3c5"/>
    <path id="Path_22248" data-name="Path 22248" d="M987.108,742.411l3.832,2.154,4.583-4.507.121-.729-1.12-8.2-8.915,1.66,1.5,9.621Z" transform="translate(-497.985 -370.002)" fill="#fe9f73"/>
    <path id="Path_22249" data-name="Path 22249" d="M986.96,754.856l-12.293,1.673a1.515,1.515,0,0,1-.274,0c-1.205-.2-.927-.985-.927-.985l5.4-4.453.041-.549a1.252,1.252,0,0,1,1.948-.859l2.249,1.223s5.321.076,5.847-1.507l.486,3.868s.567,1.174-2.469,1.61Z" transform="translate(-491.288 -380.054)" fill="#3a1f33"/>
    <path id="Path_22250" data-name="Path 22250" d="M951.8,743.575l3.832,2.154,4.579-4.507.126-.729-1.12-8.2-8.919,1.664,1.5,9.621Z" transform="translate(-478.557 -370.64)" fill="#fe9f73"/>
    <path id="Path_22251" data-name="Path 22251" d="M951.65,756.026,939.361,757.7h-.279c-1.205-.2-.927-.985-.927-.985l5.4-4.453.041-.549a1.246,1.246,0,0,1,1.952-.859l2.249,1.223s5.321.076,5.847-1.507l.481,3.864s.567,1.174-2.474,1.61Z" transform="translate(-471.86 -380.698)" fill="#3a1f33"/>
    <path id="Path_22252" data-name="Path 22252" d="M1018.539,654.933s15.333.72,19.589-.225,5.308-14.231.45-22.373-21.748,16.854-21.748,16.854l1.687,5.744Z" transform="translate(-515.163 -314.748)" fill="#49263e"/>
    <path id="Path_22253" data-name="Path 22253" d="M970.788,640.276s-21.347,3.32-21.968,5.793-2.388,28.787-1.066,40.032c0,0,8.137.562,12.023-.382l1.1-25.719,6.544.121,14.429-20.191-11.065.36Z" transform="translate(-476.893 -319.823)" fill="#3a1f33"/>
    <path id="Path_22254" data-name="Path 22254" d="M999.782,644.124s-16.53,4.664-17.151,7.134-2.379,25.962-1.053,37.185c0,0,8.744.5,12.635-.45l1.048-25.823,3.774.13,9.144-16.089-8.4-2.1Z" transform="translate(-495.501 -322.123)" fill="#49263e"/>
    <path id="Path_22255" data-name="Path 22255" d="M1018.332,573.8s7.3.121,9,1.125,9.473,13.822,11.155,19.256a17.732,17.732,0,0,1-10.048,3.994l-1.349-2.564.774,5.249-14.816,4.377a24.289,24.289,0,0,1-15.324-.5l-1.538-.567s.023-24.941,4.5-27.577c3.967-2.348,12.563-3.6,17.672-2.811Z" transform="translate(-503.801 -283.299)" fill="#febac7"/>
    <path id="Path_22256" data-name="Path 22256" d="M1024.779,544.191v7.057s-.1,2.388,1.988,2.7l-.387,3.185a2.483,2.483,0,0,0,1.7,2.676,6.378,6.378,0,0,0,1.97.306,3.985,3.985,0,0,0,3.877-2.7,33.172,33.172,0,0,0-.4-5.168l.072-2.105L1033.33,542l-8.546,2.19Z" transform="translate(-519.536 -265.942)" fill="#fe9f73"/>
    <path id="Path_22257" data-name="Path 22257" d="M1034.654,553.566a.089.089,0,0,0,.072-.027.1.1,0,0,0,0-.139s-1.381-1.412-2.631-.409a.1.1,0,0,0,0,.144.1.1,0,0,0,.14,0c1.106-.9,2.312.337,2.361.391a.113.113,0,0,0,.072.027Z" transform="translate(-523.545 -271.79)" fill="#21111d"/>
    <path id="Path_22258" data-name="Path 22258" d="M1026.826,552.561a.113.113,0,0,0,.076-.036.094.094,0,0,0,0-.139c-.036-.036-.985-.846-1.588-.333a.1.1,0,0,0,0,.144.1.1,0,0,0,.14,0c.472-.4,1.318.324,1.349.328a.109.109,0,0,0,.068.027Z" transform="translate(-519.815 -271.379)" fill="#21111d"/>
    <path id="Path_22259" data-name="Path 22259" d="M1033.35,555.247a.3.3,0,1,0,.3-.3.3.3,0,0,0-.3.3Z" transform="translate(-524.252 -273.067)"/>
    <path id="Path_22260" data-name="Path 22260" d="M1026.3,554.631a.3.3,0,1,0,.3-.3.3.3,0,0,0-.3.3Z" transform="translate(-520.373 -272.726)"/>
    <path id="Path_22261" data-name="Path 22261" d="M1029.844,538.161l-1.664,2.357s-5.047,1.961-7.647-.36-1.8-3.436-1.03-4.6a3.691,3.691,0,0,1,4.345-.765c1.2.526,2.078-1.052,3.468-.256s3.036,2.173,2.852,2.7-.337.9-.337.9Z" transform="translate(-516.221 -261.711)" fill="#21111d"/>
    <path id="Path_22262" data-name="Path 22262" d="M1042.146,540.659a2.967,2.967,0,0,1,2.937,2.1c.639,2.208-.22,3.369-.243,4.026s.427,5.1-2.7,4.772l-.841-7.341,1.089-2.919-.247-.639Z" transform="translate(-528.626 -265.203)" fill="#21111d"/>
    <path id="Path_22263" data-name="Path 22263" d="M1038.83,553.179a1.8,1.8,0,1,0,1.8-1.8A1.8,1.8,0,0,0,1038.83,553.179Z" transform="translate(-527.267 -271.103)" fill="#fe9f73"/>
    <path id="Path_22264" data-name="Path 22264" d="M1042.257,555.535a1.205,1.205,0,0,0,.7-.72.711.711,0,0,0-.283-.819.846.846,0,0,0-.94.036.81.81,0,0,1,.36-.45,1.147,1.147,0,0,1,.8-.054.05.05,0,0,0,.063-.027.05.05,0,0,0-.031-.063,1.2,1.2,0,0,0-.873.054.981.981,0,0,0-.45.657l-.04.171.126-.126a.778.778,0,0,1,.945-.121.612.612,0,0,1,.238.706.733.733,0,0,1-.6.531h0c-.027-.045-.049-.023-.049,0a.689.689,0,0,0,.049.211Z" transform="translate(-528.769 -272.204)" fill="#f07162"/>
    <path id="Path_22265" data-name="Path 22265" d="M1033.927,564s-.139,3.994-5.128,4.372l.283-2.348S1032.322,566.676,1033.927,564Z" transform="translate(-521.749 -278.046)" fill="#f07162"/>
    <path id="Path_22266" data-name="Path 22266" d="M1065.275,617.328a18.89,18.89,0,0,0,9.864-4.691l-.211-.207a18.6,18.6,0,0,1-9.7,4.6Z" transform="translate(-541.793 -304.693)" fill="#21111d"/>
    <path id="Path_22267" data-name="Path 22267" d="M996.081,710.793c3.864,0,5.245-.58,5.308-.607l.085-.04,1.017-25.976-1.6.756.126.27,1.151-.544-.99,25.292c-.414.144-2.42.724-7.152.5v.3c.756.036,1.444.049,2.065.049Z" transform="translate(-502.618 -344.164)" fill="#21111d"/>
    <path id="Path_22268" data-name="Path 22268" d="M1006.3,709.267c.414-1.592.531-17.092.535-17.767h-.3c0,.157-.126,16.134-.526,17.69Z" transform="translate(-509.209 -348.197)" fill="#21111d"/>
    <path id="Path_22269" data-name="Path 22269" d="M962.288,711.085a27.158,27.158,0,0,0,5.712-.576l.958-25.989-1.219.846.184.234.715-.571-.927,25.242a27.256,27.256,0,0,1-5.712.513v.3Z" transform="translate(-484.995 -344.357)" fill="#21111d"/>
    <path id="Path_22270" data-name="Path 22270" d="M971.567,708.531c.414-2.4.022-18.666,0-19.341h-.3c0,.166.4,16.926,0,19.3l.292.049Z" transform="translate(-490.095 -346.926)" fill="#21111d"/>
    <path id="Path_22271" data-name="Path 22271" d="M1004.693,633.064l1.691-2.622c.931-1.507,2.433-3.481,4-3.652,2.555-.288,18.122-.927,23.061-1.534l-.328-.594c.058,0,4.048-.679,4.048-.679l2.564-1.214,2.3-1c.639,2.483,2.384,6.558.594,9.4-3.311,5.245-28.629,2.663-30.878,1.975l-2.069,2.249-.4.625a.684.684,0,0,1-.828.274.661.661,0,0,1-.3-.972l-.166.252a.918.918,0,0,0-1.6-.407.661.661,0,0,1-.535-.178.688.688,0,0,1-.085-.868l.162-.247a.661.661,0,0,1-.9.193l-.036-.027h0a.911.911,0,0,1-.108-.117.729.729,0,0,1-.126-.828Z" transform="translate(-508.472 -309.832)" fill="#fe9f73"/>
    <path id="Path_22272" data-name="Path 22272" d="M1065.975,615.066h.094c5.033-.117,10.089-3.985,10.138-4.048l.094-.072-3.194-7.066-.27.121,3.095,6.855c-.706.517-5.249,3.738-9.774,3.886l-1.349-2.784-.27.13,1.453,2.955Z" transform="translate(-541.413 -299.988)" fill="#21111d"/>
    <path id="Path_22273" data-name="Path 22273" d="M1070.292,631.942a.076.076,0,0,0,.081,0,.094.094,0,0,0,0-.135l-1.8-2.334a.095.095,0,0,0-.14,0,.1.1,0,0,0,0,.14l1.8,2.334a.121.121,0,0,0,.059.031Z" transform="translate(-543.54 -314.053)" fill="#f07162"/>
    <path id="Path_22274" data-name="Path 22274" d="M1006.7,645.363a.09.09,0,0,0,.1-.04l2.375-3.257a.1.1,0,0,0-.139-.139l-2.37,3.256a.1.1,0,0,0,0,.14h.041Z" transform="translate(-509.556 -320.907)" fill="#f07162"/>
    <path id="Path_22275" data-name="Path 22275" d="M1009,647.37a.108.108,0,0,0,.108-.045l2.249-3.355a.1.1,0,1,0-.166-.108l-2.249,3.355a.1.1,0,0,0,.027.139H1009Z" transform="translate(-510.813 -321.96)" fill="#f07162"/>
    <path id="Path_22276" data-name="Path 22276" d="M1011.784,649.345a.094.094,0,0,0,.1-.045l1.885-2.847a.095.095,0,0,0-.027-.135.1.1,0,0,0-.14.027l-1.88,2.847a.095.095,0,0,0,0,.135h.036Z" transform="translate(-512.338 -323.328)" fill="#f07162"/>
    <path id="Path_22277" data-name="Path 22277" d="M1020.308,684.2a120.1,120.1,0,0,1-12.2-.517l.036-.292a153,153,0,0,0,25.638,0l.027.3c-5.132.387-9.7.513-13.494.513Z" transform="translate(-510.365 -343.735)" fill="#21111d"/>
    <path id="Path_22278" data-name="Path 22278" d="M1011.071,608.92l-.3-.009.4-12.671.3.014-.4,12.666Z" transform="translate(-511.828 -295.785)" fill="#21111d"/>
    <path id="Path_22279" data-name="Path 22279" d="M1060.4,612.06l-5.919-13.629.274-.121,5.919,13.633-.274.117Z" transform="translate(-535.878 -296.924)" fill="#21111d"/>
    <path id="Path_22280" data-name="Path 22280" d="M1064.831,624.9l-.661-4.084.3-.049.661,4.089-.3.045Z" transform="translate(-541.209 -309.281)" fill="#21111d"/>
    <path id="Path_22281" data-name="Path 22281" d="M1029.668,556.619a.048.048,0,0,0,.018-.094l-1-.333.315-2.343a.05.05,0,0,0-.008-.038.049.049,0,0,0-.032-.021.054.054,0,0,0-.058.045l-.324,2.424,1.075.36Z" transform="translate(-521.628 -272.428)" fill="#f07162"/>
    <path id="Path_22282" data-name="Path 22282" d="M1030.32,562.174l-1.97-.054s.243.8.967.819A1.142,1.142,0,0,0,1030.32,562.174Z" transform="translate(-521.501 -277.012)" fill="#fbfdfc"/>
    <path id="Path_22283" data-name="Path 22283" d="M940.49,604.06h23.722l8.276,21.073H948.762L940.49,604.06Z" transform="translate(-473.16 -300.087)" fill="#4cb7d8"/>
    <path id="Path_22284" data-name="Path 22284" d="M999.963,625.133h-1.237L990.45,604.06h1.237l8.276,21.073Z" transform="translate(-500.648 -300.087)" fill="#3aa1c9"/>
    <path id="Path_22285" data-name="Path 22285" d="M972.052,624.133c.328.967.09,1.925-.535,2.137s-1.4-.4-1.727-1.349-.09-1.921.54-2.132,1.394.4,1.723,1.349Z" transform="translate(-489.2 -310.369)" fill="#e2f2f1"/>
    <path id="Path_22286" data-name="Path 22286" d="M1018.375,647h-9.045v1.741h9.036a.873.873,0,1,0,0-1.741Z" transform="translate(-511.036 -323.71)" fill="#3aa1c9"/>
    <path id="Path_22287" data-name="Path 22287" d="M1017.39,648.71h-5.65v-.22h5.65v.22Z" transform="translate(-512.362 -324.533)" fill="#4cb7d8"/>
    <path id="Path_22288" data-name="Path 22288" d="M1004.01,650.91h10.431V654.6H1004.01V650.91Z" transform="translate(-508.109 -325.865)" fill="#49263e"/>
    <path id="Path_22289" data-name="Path 22289" d="M604.888,137.016c7.817-.09,26.133,0,41.916,2.186,6.531.9,12.554-4.376,12.846-11.375a18.55,18.55,0,0,0-2.9-10.138c-8.722-15-26.354-1.957-26.655,5.425,0,0-2.7-11.245-13.1-9.833s-7.79,17.767-7.79,17.767-3.275-.9-5.681.643-1.385,5.357,1.349,5.326Z" transform="translate(-287.015 -28.686)" fill="#fff"/>
    <path id="Path_22290" data-name="Path 22290" d="M159.222,228.748c12.63-1,43.45-3,62.072-.423a2.955,2.955,0,0,0,2.64-4.826c-1.286-1.475-3.553-2.7-7.53-2.843,0,0,3.5-17.277-13.188-18.734C186.061,200.42,186,218.564,186,218.564s-10.111-9.41-14.843,2.411c0,0-10.629-4.529-15.374,1.268a4.017,4.017,0,0,0,3.445,6.531Z" transform="translate(-40.919 -78.78)" fill="#fff"/>
    <path id="Path_22291" data-name="Path 22291" d="M1175.709,332.031a47.125,47.125,0,1,0-80.648,33.114h0s14.263,15.248,19.08,31.872c0,0,8.231,2.793,14.447,2.951,6.212-.157,14.447-2.951,14.447-2.951,4.817-16.642,19.076-31.872,19.076-31.872h0a46.971,46.971,0,0,0,13.6-33.114" transform="translate(-550.721 -124.481)" fill="#fecc86"/>
    <path id="Path_22292" data-name="Path 22292" d="M1177.227,586.747h0a7.327,7.327,0,0,1-7.327-7.327h14.65A7.323,7.323,0,0,1,1177.227,586.747Z" transform="translate(-599.382 -286.53)" fill="#4cb7d8"/>
    <path id="Path_22293" data-name="Path 22293" d="M1169.578,551.88h-5.051a13.2,13.2,0,0,1-13.2-13.2V525.81h31.486v12.9a13.2,13.2,0,0,1-13.192,13.17" transform="translate(-589.165 -257.034)" fill="#4cb7d8"/>
    <path id="Path_22294" data-name="Path 22294" d="M1167.4,491.455h0c5.461-14.578,17-27.222,17.789-28.072-.792.85-12.333,13.494-17.789,28.072m-31.292,0h0a85.311,85.311,0,0,0-10.314-18.725,84.755,84.755,0,0,1,10.314,18.725m-10.345-18.743h0m-.027-.036h0m-.027-.041h0m-.027-.031h0m-.027-.04h0m0-.031h0m0-.036h0m-.027-.036h0m-1.349-1.867-.6-.787h0l.6.787m61.06-7.2v0m0-.027h0m0,0h0m0,0h0m0,0h0m.1.081h0m-.1-.081h0" transform="translate(-573.952 -222.679)" fill="#fee1bd"/>
    <path id="Path_22295" data-name="Path 22295" d="M1290.887,386.9h0m0,0h0m0-.216h0m0,0h0m0,0h0m0-.216h0m0,0h0m0,0h0m0-.216h0m0,0h0m0-.085h0m0-.135h0m0-.022a.139.139,0,0,1,0-.045.139.139,0,0,0,0,.045m0-.072h0m0-.121h0m0,0h0m0,0h0m0-.184a.187.187,0,0,1,0-.049.172.172,0,0,0,0,.049m0-.031h0m0-.117a.085.085,0,0,1,0-.036.081.081,0,0,0,0,.036m0-.1h0m0,0h0m0-.216h0m0,0h0m0,0h0m0-.216h0m0,0h0m-.027-.252h0" transform="translate(-665.935 -179.394)" fill="#fff0da"/>
    <path id="Path_22296" data-name="Path 22296" d="M1167.576,419.142h-31.292s-6.747-13.683-10.314-18.716h0a.041.041,0,0,0,0-.027h0a.044.044,0,0,0,0-.022h0l-.023-.027h0v-.027h0V400.3h0v-.031h0c-.45-.652-.927-1.273-1.349-1.867l-.6-.787c31.666-8.861,53.647-31.7,67.429-65.67a46.908,46.908,0,0,1,7.813,23.839h0c0,.054,0,.108-.193.157h0c.2,0,.22.049.22.049h0l-.22.148h0l.22.045h0l-.22.076h0l.22.036v.031l.216.036v.031a.955.955,0,0,0-.216.054v.1a.091.091,0,0,1,0,.031.9.9,0,0,0,.211.049v.076c-.207,0-.216.031-.216.031v.036l.216.027v.09c-.2,0-.216.04-.216.04v.027l.216.045v.112c-.2,0-.216.045-.216.045v.076h.216v.157c-.193,0-.216.054-.216.054v.234h.216v.31h0a46.818,46.818,0,0,1-13.858,33.123h0v-.086h0v.023h0c-.783.85-12.329,13.494-17.785,28.072" transform="translate(-574.128 -150.366)" fill="#fec073"/>
    <path id="Path_22297" data-name="Path 22297" d="M1170.372,372.149c-1.435,3.284-1.093,8.438.2,10.39.508.765.9.643,1.026.6,1.511-.486,2.825-2.964,2.37-5.874a7.057,7.057,0,0,0-3.6-5.114Zm-15.576,0a7.058,7.058,0,0,0-3.6,5.114c-.45,2.91.859,5.4,2.37,5.874.14.045.517.166,1.021-.6,1.291-1.952,1.633-7.107.2-10.39Zm15.9,66.956-1.349-.364c.04-.162,4.439-16.323,7.485-32.871,5.29-28.719,2.249-34.81-.031-35.885s-4.174-.9-5.461.585c-.094.108-.184.225-.27.342a8.717,8.717,0,0,1,4.282,6.135c.522,3.333-.972,6.661-3.324,7.422a2.2,2.2,0,0,1-2.618-1.16c-1.507-2.28-1.979-7.975-.288-11.776a16.279,16.279,0,0,0-5.847-1.048h-1.349a16.251,16.251,0,0,0-5.847,1.048c1.687,3.8,1.219,9.5-.288,11.776a2.193,2.193,0,0,1-2.618,1.16c-2.357-.76-3.846-4.089-3.324-7.422a8.717,8.717,0,0,1,4.282-6.135c-.09-.117-.18-.234-.27-.342-1.286-1.484-3.126-1.682-5.461-.585s-5.321,7.165-.036,35.885c3.05,16.548,7.444,32.709,7.489,32.871l-1.349.364c-.045-.162-4.453-16.368-7.511-32.974-4.224-22.94-3.958-35.165.814-37.409,3.7-1.741,5.91-.45,7.111.936a6.658,6.658,0,0,1,.45.621,15.693,15.693,0,0,1,6.54-1.1h1.349a15.716,15.716,0,0,1,6.545,1.1,5.934,5.934,0,0,1,.472-.621c1.2-1.39,3.409-2.676,7.111-.936,4.768,2.249,5.033,14.483.814,37.409-3.063,16.606-7.471,32.813-7.512,32.974Z" transform="translate(-585.137 -170.14)" fill="#f99247"/>
    <path id="Path_22298" data-name="Path 22298" d="M1112.151,393.151c-.373-1.075-.544-1.466-.9-2.33l-.2-.45c-5.888-13.737-16.606-25.292-16.714-25.4l-.036-.036a47.476,47.476,0,1,1,73.546-59.292l-.585.382a46.779,46.779,0,1,0-72.417,58.473l.45.45h-.031c2.055,2.294,11.159,12.851,16.427,25.148l.2.45c.378.9.553,1.277.936,2.375l-.661.234Z" transform="translate(-550.247 -124.038)" fill="#21111d"/>
    <path id="Path_22299" data-name="Path 22299" d="M1112.18,321.419l-.67-.193c.036-.117,3.517-11.717,15.244-16.076l.243.652C1115.608,310.039,1112.212,321.307,1112.18,321.419Z" transform="translate(-567.256 -135.626)" fill="#21111d"/>
    <path id="Path_22300" data-name="Path 22300" d="M1117.025,330.744l-.675-.2c.036-.117,3.517-11.695,15.244-16.076l.243.657C1120.452,319.359,1117.056,330.631,1117.025,330.744Z" transform="translate(-569.919 -140.753)" fill="#21111d"/>
    <path id="Path_22301" data-name="Path 22301" d="M1168.2,552.052h-3.477A14.348,14.348,0,0,1,1150.37,537.7V525.33h31.72v.652h-31.067v11.695s6.225,13.647,13.75,13.714h3.423a13.943,13.943,0,0,0,9.572-3.985l.49.5a14.272,14.272,0,0,1-10.062,4.116Z" transform="translate(-588.637 -256.77)" fill="#21111d"/>
    <path id="Path_22302" data-name="Path 22302" d="M1177.094,588.245c-6.81,0-7.79-6.6-7.8-6.67l.693-.094c.036.252.945,6.212,7.336,6.063v.7Z" transform="translate(-599.047 -287.664)" fill="#21111d"/>
    <path id="Path_22303" data-name="Path 22303" d="M1257.538,432.489l-.418-.562c6.221-4.615,7.2-12.315,7.2-12.4l.7.085c0,.076-1.021,8.074-7.489,12.873Z" transform="translate(-647.372 -198.558)" fill="#21111d"/>
    <path id="Path_22304" data-name="Path 22304" d="M1254.494,429.133l-.414-.562a14.577,14.577,0,0,0,5.254-9.041l.693.085A14.988,14.988,0,0,1,1254.494,429.133Z" transform="translate(-645.699 -198.558)" fill="#21111d"/>
    <path id="Path_22305" data-name="Path 22305" d="M1148,534.69v-.7c.265,0,26.758-.342,35.147-3.468l.248.652c-8.506,3.149-34.292,3.5-35.385,3.517Z" transform="translate(-587.333 -259.625)" fill="#21111d"/>
    <path id="Path_22306" data-name="Path 22306" d="M1148.06,547.832v-.7c.288,0,29.039-.576,34.414-3.454l.328.616c-5.524,2.96-33.541,3.513-34.729,3.535Z" transform="translate(-587.366 -266.866)" fill="#21111d"/>
    <path id="Path_22307" data-name="Path 22307" d="M1151.33,560.823v-.7c.261,0,26.057-.27,32.965-3.846l.319.625C1177.557,560.553,1152.4,560.814,1151.33,560.823Z" transform="translate(-589.165 -273.799)" fill="#21111d"/>
    <path id="Path_22308" data-name="Path 22308" d="M1033.044,368.876h-.09l-16.678-1.439a1.05,1.05,0,1,1,.18-2.092l16.678,1.421a1.048,1.048,0,0,1-.09,2.092Z" transform="translate(-514.33 -168.743)" fill="#f99247"/>
    <path id="Path_22309" data-name="Path 22309" d="M1055.682,299.981a1.066,1.066,0,0,1-.594-.18l-13.809-9.446a1.048,1.048,0,1,1,1.183-1.727l13.813,9.446a1.048,1.048,0,0,1-.594,1.912Z" transform="translate(-528.34 -126.418)" fill="#f99247"/>
    <path id="Path_22310" data-name="Path 22310" d="M1120.447,250.29a1.048,1.048,0,0,1-.972-.657l-6.3-15.5a1.052,1.052,0,0,1,1.948-.792l6.3,15.509a1.057,1.057,0,0,1-.972,1.444Z" transform="translate(-568.141 -95.779)" fill="#f99247"/>
    <path id="Path_22311" data-name="Path 22311" d="M1314.5,376.005a1.049,1.049,0,0,1-.068-2.1l16.7-1.1a1.048,1.048,0,0,1,.14,2.092l-16.692,1.1Z" transform="translate(-678.344 -172.85)" fill="#f99247"/>
    <path id="Path_22312" data-name="Path 22312" d="M1296.48,306.7a1.048,1.048,0,0,1-.58-1.925l13.993-9.189a1.048,1.048,0,1,1,1.147,1.754l-14.007,9.189a1.033,1.033,0,0,1-.571.171Z" transform="translate(-668.447 -130.266)" fill="#f99247"/>
    <path id="Path_22313" data-name="Path 22313" d="M1248.978,250.191a1.035,1.035,0,0,1-.414-.085,1.048,1.048,0,0,1-.549-1.376l6.594-15.383a1.048,1.048,0,1,1,1.925.823l-6.589,15.383A1.057,1.057,0,0,1,1248.978,250.191Z" transform="translate(-642.315 -95.743)" fill="#f99247"/>
    <path id="Path_22314" data-name="Path 22314" d="M1189.084,230.269h0A1.057,1.057,0,0,1,1188,229.19l.261-16.8a1.057,1.057,0,0,1,1.062-1.035h0a1.057,1.057,0,0,1,1.048,1.066l-.261,16.8a1.061,1.061,0,0,1-1.062,1.035Z" transform="translate(-609.341 -84.022)" fill="#f99247"/>
    <path id="Path_22315" data-name="Path 22315" d="M1228.573,323.537a17.772,17.772,0,0,1-9-3.149c-5.362-3.454-8.371-8.33-6.72-10.89.666-1.035,1.988-1.529,3.684-1.529a17.757,17.757,0,0,1,9,3.149c5.362,3.454,8.371,8.33,6.72,10.89-.666,1.035-1.988,1.534-3.679,1.534" transform="translate(-622.769 -137.177)" fill="#f8e6c2"/>
    <path id="Path_22316" data-name="Path 22316" d="M80.52,851.84H634.942v1.52H80.52v-1.52Z" transform="translate(0 -436.417)" fill="#21111d"/>
    <path id="Path_22317" data-name="Path 22317" d="M295.89,392.571c-.054,0-3.36-.3-3.36-.3s.333,1.394,1.561,1.507A1.97,1.97,0,0,0,295.89,392.571Z" transform="translate(-116.649 -183.559)" fill="#fbfdfc"/>
  </g>
</svg>
