<svg xmlns="http://www.w3.org/2000/svg" width="388.744" height="235.555" viewBox="0 0 388.744 235.555">
  <g id="Untitled-1-01" transform="translate(-63.746 -38.026)">
    <path id="Path_4" data-name="Path 4" d="M101.352,273.119S57,217.906,97.083,174.766c48.7-52.423-3.382-82.33,34.64-117.313,31.106-28.62,68.25-23.445,139.759,1.379,55.292,19.194,77.165-32.693,133.046-6.206,36.528,17.314,9.843,70.437,30.77,105.408,24.365,40.719,24.365,93.616-6.989,115.085Z" transform="translate(-7.161)" fill="#b8d8f5"/>
    <path id="Path_5" data-name="Path 5" d="M616.793,278.509s-4.439-5.179-.274-8.469c0,0,3.043-1.842,5.524-1.692,0,0-3.516,5.894-2.378,6.48s3.443-6.85,3.443-6.85,6.924-.672,9.151.4c0,0-5.919,4.843-4.672,5.131s7.639-4.465,7.639-4.465,6.445,1.1,6.1,5.028-2.563,5.145-3.541,5.04-6.684-2.284-6.808-1.484,3.312,3.413,5.719,3.536c0,0-4.544,5.01-7.564,3.564s-3.277-3.738-5.159-4.6-3.488-.857-2.711.02,4.183,1.728,5.259,3.633,2.042,3.188-1.082,2.717-8.2-2.756-8.424-5.373l-.224-2.617Z" transform="translate(-238.171 -99.309)" fill="#c8dbf4"/>
    <path id="Path_6" data-name="Path 6" d="M636.762,279.033s-17.5-.675-21.369,4.331a12.664,12.664,0,0,1-3.485,4.891l-.41,1.118s3.032-3.2,4.119-3.391c0,0-1.7-6.2,21.145-6.949Z" transform="translate(-236.772 -104.165)" fill="#c8dbf4"/>
    <path id="Path_7" data-name="Path 7" d="M609.16,294.964a10.986,10.986,0,0,0-4.019,7.743l.683.062s1.2-5.133,3.368-7.141-.032-.663-.032-.663Z" transform="translate(-234.024 -110.873)" fill="#c8dbf4"/>
    <path id="Path_8" data-name="Path 8" d="M571.3,261.288s7.061-3.954,3.766-9.321c0,0-2.636-3.3-5.461-4.143,0,0,1.508,8,0,8.193s-1.036-9.039-1.036-9.039-7.437-3.579-10.357-3.3c0,0,4.613,7.814,3.107,7.626s-6.685-8.1-6.685-8.1-7.627-1.412-8.851,3.107.754,6.779,1.884,7.061,8.379.188,8.191,1.13-5.085,2.448-7.815,1.6c0,0,3.013,7.437,6.967,7.061s5.179-2.825,7.627-3.013,4.237.472,3.013,1.13-5.367.216-7.345,1.9-3.578,2.716.094,3.47,10.263.282,11.582-2.542l1.318-2.825Z" transform="translate(-208.199 -88.603)" fill="#c8dbf4"/>
    <path id="Path_9" data-name="Path 9" d="M552.134,251.33s19.773,6.4,22.033,13.558a15.028,15.028,0,0,0,1.882,6.873v1.413s-2.07-4.8-3.2-5.461c0,0,4.424-6.215-20.715-16.384Z" transform="translate(-211.111 -92.203)" fill="#c8dbf4"/>
    <path id="Path_10" data-name="Path 10" d="M593.618,286.648a13.046,13.046,0,0,1,1.312,10.267l-.785-.211s.761-6.207-.834-9.33S593.618,286.648,593.618,286.648Z" transform="translate(-228.635 -107.089)" fill="#c8dbf4"/>
    <path id="Path_11" data-name="Path 11" d="M606.15,247.252s-9.309-5.213-4.965-12.287c0,0,3.476-4.344,7.2-5.461,0,0-1.985,10.55,0,10.8s1.366-11.915,1.366-11.915,9.8-4.716,13.652-4.344c0,0-6.081,10.3-4.1,10.053s8.812-10.674,8.812-10.674,10.053-1.862,11.667,4.1-.993,8.936-2.483,9.308-11.046.248-10.8,1.491,6.7,3.226,10.3,2.109c0,0-3.971,9.8-9.184,9.309s-6.827-3.723-10.053-3.971-5.586.62-3.972,1.489,7.075.285,9.682,2.5,4.715,3.581-.125,4.575-13.528.371-15.266-3.351l-1.737-3.724Z" transform="translate(-231.814 -80.02)" fill="#d4e4f8"/>
    <path id="Path_12" data-name="Path 12" d="M638,234.126s-26.064,8.44-29.042,17.872a19.791,19.791,0,0,1-2.482,9.06v1.862s2.73-6.331,4.219-7.2c0,0-5.833-8.193,27.3-21.6Z" transform="translate(-234.6 -84.766)" fill="#d4e4f8"/>
    <path id="Path_13" data-name="Path 13" d="M604.584,280.682a17.187,17.187,0,0,0-1.728,13.534l1.034-.277s-1.005-8.183,1.1-12.3-.405-.956-.405-.956Z" transform="translate(-232.731 -104.389)" fill="#d4e4f8"/>
    <path id="Path_14" data-name="Path 14" d="M596.373,319.934A18.233,18.233,0,0,0,614.607,301.7H578.139a18.234,18.234,0,0,0,18.235,18.233Z" transform="translate(-222.352 -113.976)" fill="#d4e4f8"/>
    <path id="Path_15" data-name="Path 15" d="M614.667,333.606H577.7a2.281,2.281,0,0,1,2.249-2.312h32.473a2.281,2.281,0,0,1,2.249,2.312Z" transform="translate(-222.16 -126.768)" fill="#d4e4f8"/>
    <path id="Path_16" data-name="Path 16" d="M614.609,302.317H577.153V301.7h37.456v.617Z" transform="translate(-221.926 -113.976)" fill="#9fc1f4"/>
    <path id="Path_17" data-name="Path 17" d="M136.838,388.979h64.055l-10.05-81.849H126.788l10.05,81.849Z" transform="translate(-27.251 -116.323)" fill="#a4c4e0"/>
    <path id="Path_18" data-name="Path 18" d="M141.724,388.979h64.055l-10.05-81.849H131.674l10.05,81.849Z" transform="translate(-29.363 -116.323)" fill="#c8dbf4"/>
    <path id="Path_19" data-name="Path 19" d="M148.217,387.6h56.5l-9.046-73.679h-56.5l9.046,73.679Z" transform="translate(-32.603 -119.257)" fill="#d4e4f8"/>
    <path id="Path_20" data-name="Path 20" d="M145.39,379.711h58.546l-.507-4.161H144.883l.507,4.161Z" transform="translate(-35.072 -145.898)" fill="#c8dbf4"/>
    <path id="Path_21" data-name="Path 21" d="M236.7,319.324l-1.5-12.194H223.01L236.7,319.324Z" transform="translate(-68.844 -116.323)" fill="#b7cfea"/>
    <path id="Path_22" data-name="Path 22" d="M133.184,319.324l-1.5-12.194h12.194l-10.7,12.194Z" transform="translate(-29.368 -116.323)" fill="#b7cfea"/>
    <path id="Path_23" data-name="Path 23" d="M240.709,442.013H252.9l-1.5-12.194-10.7,12.194Z" transform="translate(-76.494 -169.357)" fill="#b7cfea"/>
    <path id="Path_24" data-name="Path 24" d="M160.441,442.013H148.247l-1.5-12.194,13.691,12.194Z" transform="translate(-35.879 -169.357)" fill="#b7cfea"/>
    <path id="Path_25" data-name="Path 25" d="M191.626,406.818h45.72l-7.174-58.42H184.453l7.173,58.42Z" transform="translate(-52.177 -134.162)" fill="#a4c4e0"/>
    <path id="Path_26" data-name="Path 26" d="M195.111,406.818H240.83l-7.172-58.42H187.938l7.173,58.42Z" transform="translate(-53.683 -134.162)" fill="#c8dbf4"/>
    <path id="Path_27" data-name="Path 27" d="M199.764,405.847h40.307l-6.453-52.562H193.31l6.454,52.562Z" transform="translate(-56.005 -136.274)" fill="#d4e4f8"/>
    <path id="Path_28" data-name="Path 28" d="M197.963,400.2h41.52l-.359-2.928H197.6l.359,2.928Z" transform="translate(-57.862 -155.287)" fill="#c8dbf4"/>
    <path id="Path_29" data-name="Path 29" d="M262.884,357.1l-1.069-8.7h-8.7l9.766,8.7Z" transform="translate(-81.858 -134.162)" fill="#b7cfea"/>
    <path id="Path_30" data-name="Path 30" d="M189.045,357.1l-1.068-8.7h8.7l-7.63,8.7Z" transform="translate(-53.7 -134.162)" fill="#b7cfea"/>
    <path id="Path_31" data-name="Path 31" d="M265.743,444.674h8.7l-1.068-8.7-7.63,8.7Z" transform="translate(-87.315 -172.018)" fill="#b7cfea"/>
    <path id="Path_32" data-name="Path 32" d="M208.487,444.674h-8.7l-1.068-8.7,9.766,8.7Z" transform="translate(-58.344 -172.018)" fill="#b7cfea"/>
    <path id="Path_33" data-name="Path 33" d="M226.377,116.767H199.562a2.244,2.244,0,0,1-2.238-2.238V88.639a2.244,2.244,0,0,1,2.238-2.238h26.815a2.244,2.244,0,0,1,2.238,2.238v25.889a2.245,2.245,0,0,1-2.238,2.239Z" transform="translate(-57.741 -20.91)" fill="#c0d8fb"/>
    <path id="Path_34" data-name="Path 34" d="M226.244,116.589H201.812a2.05,2.05,0,0,1-2.044-2.044V90.888a2.05,2.05,0,0,1,2.044-2.044H226.24a2.05,2.05,0,0,1,2.044,2.044v23.656a2.049,2.049,0,0,1-2.04,2.046Z" transform="translate(-58.797 -21.967)" fill="#dfebfd"/>
    <path id="Path_35" data-name="Path 35" d="M223.607,93.22a.648.648,0,1,1,.648.648.648.648,0,0,1-.648-.648Z" transform="translate(-69.102 -23.578)" fill="#b7d3f3"/>
    <path id="Path_36" data-name="Path 36" d="M232.756,95.073a.648.648,0,1,1,.252.881A.648.648,0,0,1,232.756,95.073Z" transform="translate(-73.021 -24.515)" fill="#b7d3f3"/>
    <path id="Path_37" data-name="Path 37" d="M240.483,101.517a.648.648,0,1,1-.193.9.648.648,0,0,1,.193-.9Z" transform="translate(-76.268 -27.4)" fill="#b7d3f3"/>
    <path id="Path_38" data-name="Path 38" d="M244.124,111.3a.648.648,0,1,1-.648.648.648.648,0,0,1,.648-.648Z" transform="translate(-77.69 -31.673)" fill="#b7d3f3"/>
    <path id="Path_39" data-name="Path 39" d="M241.78,122.415a.648.648,0,1,1-.917,0A.648.648,0,0,1,241.78,122.415Z" transform="translate(-76.479 -36.396)" fill="#b7d3f3"/>
    <path id="Path_40" data-name="Path 40" d="M234.612,129.6a.648.648,0,1,1-.916,0A.648.648,0,0,1,234.612,129.6Z" transform="translate(-73.38 -39.502)" fill="#b7d3f3"/>
    <path id="Path_41" data-name="Path 41" d="M223.607,132.958a.648.648,0,1,1,.648.648.648.648,0,0,1-.648-.648Z" transform="translate(-69.102 -40.755)" fill="#b7d3f3"/>
    <path id="Path_42" data-name="Path 42" d="M215.718,95.073a.648.648,0,1,0-.252.881A.648.648,0,0,0,215.718,95.073Z" transform="translate(-65.167 -24.515)" fill="#b7d3f3"/>
    <path id="Path_43" data-name="Path 43" d="M207.991,101.517a.648.648,0,1,0,.193.9A.648.648,0,0,0,207.991,101.517Z" transform="translate(-61.92 -27.4)" fill="#b7d3f3"/>
    <path id="Path_44" data-name="Path 44" d="M204.351,111.3a.648.648,0,1,0,.648.648.648.648,0,0,0-.648-.648Z" transform="translate(-60.498 -31.673)" fill="#b7d3f3"/>
    <path id="Path_45" data-name="Path 45" d="M206.7,122.415a.648.648,0,1,0,.917,0A.648.648,0,0,0,206.7,122.415Z" transform="translate(-61.709 -36.396)" fill="#b7d3f3"/>
    <path id="Path_46" data-name="Path 46" d="M213.862,129.6a.648.648,0,1,0,.916,0A.648.648,0,0,0,213.862,129.6Z" transform="translate(-64.807 -39.502)" fill="#b7d3f3"/>
    <path id="Path_47" data-name="Path 47" d="M224.441,111.948a.648.648,0,1,1,.648.648.648.648,0,0,1-.648-.648Z" transform="translate(-69.462 -31.673)" fill="#b7d3f3"/>
    <path id="Path_48" data-name="Path 48" d="M225.714,106.245h-.154v-8.17h.154v8.17Z" transform="translate(-69.946 -25.957)" fill="#b7d3f3"/>
    <path id="Path_49" data-name="Path 49" d="M225.478,109.9l-.328-.417,4.292-3.37.328.418-4.292,3.369Z" transform="translate(-69.769 -29.433)" fill="#b7d3f3"/>
    <path id="Path_50" data-name="Path 50" d="M566.292,336.4v1.628c0,.571.187,1.036.413,1.036h59.9c.227,0,.413-.465.413-1.036V336.4c0-.569-.187-1.036-.413-1.036h-59.9c-.227,0-.413.467-.413,1.036Z" transform="translate(-217.231 -128.529)" fill="#9abfe2"/>
    <path id="Path_51" data-name="Path 51" d="M566.292,336.4v1.628c0,.571.171,1.036.379,1.036h47.489c.209,0,.379-.465.379-1.036V336.4c0-.569-.169-1.036-.379-1.036H566.671c-.208,0-.379.467-.379,1.036Z" transform="translate(-217.231 -128.529)" fill="#bad4f4"/>
    <path id="Path_52" data-name="Path 52" d="M592.9,403.847h42.544V341.882H592.9v61.965Z" transform="translate(-228.732 -131.345)" fill="#c8dbf4"/>
    <path id="Path_53" data-name="Path 53" d="M571.994,403.847h42.543V341.882H571.994v61.965Z" transform="translate(-219.696 -131.345)" fill="#dfebfd"/>
    <path id="Path_54" data-name="Path 54" d="M613.677,345.449H576.529V401.4h37.148V345.449Zm-37.61-.308h37.919v56.724H576.067Z" transform="translate(-221.456 -132.754)" fill="#b7d3f3"/>
    <path id="Path_55" data-name="Path 55" d="M576.61,378.454h37.456v-.462H576.61v.462Z" transform="translate(-221.691 -146.954)" fill="#b7d3f3"/>
    <path id="Path_56" data-name="Path 56" d="M576.61,412.392h37.456v-.463H576.61v.463Z" transform="translate(-221.691 -161.623)" fill="#b7d3f3"/>
    <path id="Path_57" data-name="Path 57" d="M602.206,350.446h6.982a.618.618,0,0,0,.615-.617h0a.618.618,0,0,0-.615-.616h-6.982a.619.619,0,0,0-.617.616h0A.619.619,0,0,0,602.206,350.446Z" transform="translate(-232.488 -134.514)" fill="#b7d3f3"/>
    <path id="Path_58" data-name="Path 58" d="M602.2,383.569h6.991a.618.618,0,0,0,.616-.617h0a.618.618,0,0,0-.616-.616H602.2a.619.619,0,0,0-.617.616h0a.619.619,0,0,0,.617.617Z" transform="translate(-232.484 -148.832)" fill="#b7d3f3"/>
    <path id="Path_59" data-name="Path 59" d="M602.2,418.049h6.99a.619.619,0,0,0,.616-.617h0a.617.617,0,0,0-.616-.616H602.2a.619.619,0,0,0-.617.616h0A.62.62,0,0,0,602.2,418.049Z" transform="translate(-232.484 -163.736)" fill="#b7d3f3"/>
    <path id="Path_60" data-name="Path 60" d="M642.5,310.994l-1.417.227L638.4,294.513l1.418-.227,2.682,16.707Z" transform="translate(-248.401 -110.771)" fill="#9abfe2"/>
    <path id="Path_61" data-name="Path 61" d="M638.637,289.3l-.236,3.055,1.418-.227-1.183-2.829Z" transform="translate(-248.401 -108.618)" fill="#b7cfea"/>
    <path id="Path_62" data-name="Path 62" d="M651.564,311.206l-1.41-.262,3.083-16.638,1.412.262-3.084,16.638Z" transform="translate(-253.481 -110.78)" fill="#9abfe2"/>
    <path id="Path_63" data-name="Path 63" d="M656.833,289.378l-1.249,2.8,1.412.262-.163-3.06Z" transform="translate(-255.828 -108.649)" fill="#b7cfea"/>
    <path id="Path_64" data-name="Path 64" d="M660.33,306.824l-1.412-.262L662,289.924l1.41.262-3.083,16.638Z" transform="translate(-257.27 -108.886)" fill="#87a6d8"/>
    <path id="Path_65" data-name="Path 65" d="M665.6,284.993l-1.248,2.8,1.41.262-.162-3.061Z" transform="translate(-259.618 -106.754)" fill="#b7cfea"/>
    <path id="Path_66" data-name="Path 66" d="M658.995,322.927H647.743v-16.34h11.252v16.34Z" transform="translate(-252.439 -116.088)" fill="#91b2e2"/>
    <path id="Path_67" data-name="Path 67" d="M649.221,322.927H637.969v-16.34h11.252v16.34Z" transform="translate(-248.214 -116.088)" fill="#b7cfea"/>
    <path id="Path_68" data-name="Path 68" d="M372.39,211.784s3.684-2.147,5.712-1.409,5.441,3.135,3.966,4.149-3.277.07-3.874,0-1.726,2.441-5.2,1.636-.607-4.376-.607-4.376Z" transform="translate(-132.935 -74.433)" fill="#ffb27d"/>
    <path id="Path_69" data-name="Path 69" d="M305.785,120.42s-6.406-5.006-13.322-3.039a5.809,5.809,0,0,0-7.468-1.929c-6.7,3.135-1.905,10.167,1.538,8.691a16.152,16.152,0,0,1-1.814,5.317c-1.722,3.565,1.837,11.122,9.017,8.619s13.369-5.312,13.369-5.312,5.706-8.317-1.319-12.348Z" transform="translate(-94.181 -33.183)" fill="#163560"/>
    <path id="Path_70" data-name="Path 70" d="M323.325,198.427a29.036,29.036,0,0,0,2.969,4.49c2.308,2.889,5.864,6.227,10.329,6.886a11.083,11.083,0,0,0,6.136-1l.008,0c5.424-2.408,9.5-7.944,9.5-7.944a4.457,4.457,0,0,0-.607-4.376s-10.952,2.463-12,1.942-7.174-15.3-8.39-17.643a12.522,12.522,0,0,0-6.573-5.956l-1.378,23.6Z" transform="translate(-112.206 -59.134)" fill="#739af0"/>
    <path id="Path_71" data-name="Path 71" d="M328.292,219.884a13.57,13.57,0,0,0,10.329,6.886,11.083,11.083,0,0,0,6.136-1c-.211.028-5.628.7-7.787-3.166-2.2-3.941-4.584-10.2-7.855-8.113-1.412.9-1.35,3.138-.823,5.389Z" transform="translate(-114.204 -76.101)" fill="#5d81db"/>
    <path id="Path_72" data-name="Path 72" d="M249.244,423.586s-3.342,3.049-2.69,5.216,3.668,3.612,4.075,6.26,2.038,4.094,3.5,4.094h7s1.079-1.864-1.529-2.426-3.592-3.673-3.428-6.563a50.946,50.946,0,0,0-.245-6.742l-5.542-1.284-1.141,1.446Z" transform="translate(-78.984 -166.037)" fill="#294a7f"/>
    <path id="Path_73" data-name="Path 73" d="M300.823,427.538s-1.2,12.92.265,13.643l18.776-.038s0-2.167-3.015-2.648-8.314-2.247-9.211-6.181-6.815-4.775-6.815-4.775Z" transform="translate(-102.279 -168.371)" fill="#294a7f"/>
    <path id="Path_74" data-name="Path 74" d="M305.942,212.972,290.53,211.95l-8.686-.577s-.977-6.167-1.414-8.974c-.493-3.168-1.1-5.387-1.507-7.448a22.8,22.8,0,0,1-.415-3.046c-.281-4.734-2.771-3.567-2.771-3.567l7.863-15.625a37.157,37.157,0,0,1,20.533.741,60.12,60.12,0,0,1,5.053,13.254c2,7.823-3.243,26.264-3.243,26.264Z" transform="translate(-91.635 -57.76)" fill="#739af0"/>
    <path id="Path_75" data-name="Path 75" d="M295.342,226.068l-11.081-.1s-.977-6.167-1.413-8.974c-.493-3.168-1.1-5.387-1.508-7.448l-.012-.391s2.876-4.068,4.472-3.57-1.279,7.967,1.127,10.641c1.743,1.936,7.881,3.6,8.416,9.847Z" transform="translate(-94.052 -72.409)" fill="#5d81db"/>
    <path id="Path_76" data-name="Path 76" d="M314.373,240.07s5.412,16.849,5.76,22.587-10.348,81.494-10.778,84.138c-.405,2.491-3.5,4.08-3.5,4.08a4.682,4.682,0,0,1-3.453.265,8.528,8.528,0,0,1-3.709-1.748s-4.214-54.03-1.606-73.331a305.813,305.813,0,0,0,2.638-35.991Z" transform="translate(-100.496 -87.336)" fill="#ed7d2b"/>
    <path id="Path_77" data-name="Path 77" d="M272.906,239.262s-8.257,11.08-9.027,18.568-1.207,33.8-2.848,41.1-7.666,21.352-7.666,44.125a4.542,4.542,0,0,0,2.56,2,21.3,21.3,0,0,0,2.251.623,3.539,3.539,0,0,0,3.959-1.879c4.073-8.2,17.05-34.657,17.716-40.148.47-3.886,4.567-29.606,13.5-44.7,2.146-3.624-2.127-12.489-2.127-12.489l-18.324-7.2Z" transform="translate(-81.965 -86.986)" fill="#f99746"/>
    <path id="Path_78" data-name="Path 78" d="M299.516,164.9A32.788,32.788,0,0,0,301,155.637l.495.09,8.322,1.516s-.19,2.41-.2,4.68v.056a18.017,18.017,0,0,1-.216,4.094C308.61,167.966,298.97,166.309,299.516,164.9Z" transform="translate(-101.905 -50.839)" fill="#ffb27d"/>
    <path id="Path_79" data-name="Path 79" d="M311.277,157.312s-.19,2.41-.2,4.68c-4.657-.121-7.118-4.029-8.126-6.2l8.322,1.516Z" transform="translate(-103.401 -50.907)" fill="#e8945b"/>
    <path id="Path_80" data-name="Path 80" d="M311.863,148.672s-11.018.182-11.026-6.681-1.435-11.462,5.6-11.868,8.4,2.211,8.963,4.5S314.728,148.448,311.863,148.672Z" transform="translate(-102.432 -39.791)" fill="#ffb27d"/>
    <path id="Path_81" data-name="Path 81" d="M308.757,128.8s-3.017,8.052-7.647,9.242-6.637-.05-6.637-.05a13.109,13.109,0,0,0,4.288-7.746s7.721-5.279,10-1.447Z" transform="translate(-99.734 -38.633)" fill="#163560"/>
    <path id="Path_82" data-name="Path 82" d="M318.316,130.009a6.841,6.841,0,0,1,3.158,2.468,11.1,11.1,0,0,1,1.489,6.3s2.272-5.473-.282-8.569c-2.708-3.283-4.365-.2-4.365-.2Z" transform="translate(-110.041 -39.193)" fill="#163560"/>
    <path id="Path_83" data-name="Path 83" d="M316.56,155.252s.191.809,2.2.684c0,0,1.689-.1,1.638-.993A5.438,5.438,0,0,0,316.56,155.252Z" transform="translate(-109.282 -50.446)" fill="#fff"/>
    <path id="Path_84" data-name="Path 84" d="M292.191,240.377s9.108-3.042,12.764,2.4c.775,1.154-4.939,1.727-7.992,1.322-.728-.1-5.884-1.133-5.884-1.133l1.111-2.587Z" transform="translate(-98.267 -87.102)" fill="#ffb27d"/>
    <path id="Path_85" data-name="Path 85" d="M274.735,173.524s-6.246,1.129-10.516,9.278c-3.657,6.98-8.991,18.084-8.991,20.142s3.177,8.4,20.243,12.053c0,0,1.765-1.857,1.657-3.325,0,0-10.653-9.15-10.623-10.219.054-2.023,1.746-4.693,11.1-14.049,2.542-2.543-2.87-13.88-2.87-13.88Z" transform="translate(-82.77 -58.57)" fill="#739af0"/>
    <path id="Path_86" data-name="Path 86" d="M298.437,236.2a2.234,2.234,0,1,1-2.716-.646A2,2,0,0,1,298.437,236.2Zm20.712-2.315c-5.976-10.576-28.874-9.4-29.532-6.652s5.2,5.518,3.755,8.007c-2.545,4.376-9.355,1.338-11.246,5.027s11.4,19.263,23.687,18.349a16.61,16.61,0,0,0,13.336-24.73Z" transform="translate(-94.319 -80.97)" fill="#ffe3ca"/>
    <path id="Path_87" data-name="Path 87" d="M299.588,265.741a2.588,2.588,0,0,1-.839-1.874,1.835,1.835,0,0,1,1.332-1.407,5.388,5.388,0,0,1,2.033-.1l1.247.094a1.762,1.762,0,0,1,.774.182,1.652,1.652,0,0,1,.5.553,2.46,2.46,0,0,1,.331.641C305.69,266.3,300.831,267.184,299.588,265.741Z" transform="translate(-101.583 -96.946)" fill="#233862"/>
    <path id="Path_88" data-name="Path 88" d="M341.19,255.494a2.583,2.583,0,0,1-2.052.031,1.833,1.833,0,0,1-.766-1.78,5.4,5.4,0,0,1,.706-1.908l.581-1.108a1.732,1.732,0,0,1,.472-.64,1.686,1.686,0,0,1,.706-.244,2.419,2.419,0,0,1,.721-.05c2.556.314,1.449,5.125-.368,5.7Z" transform="translate(-118.701 -91.536)" fill="#b7cfea"/>
    <path id="Path_89" data-name="Path 89" d="M313.958,270.1a2.344,2.344,0,0,1,1.891-.486,10.19,10.19,0,0,1,.987.356,4.913,4.913,0,0,1,1.645.584,2.219,2.219,0,0,1,.6,1.913,3.292,3.292,0,0,1-.305,1.25,2.9,2.9,0,0,1-3.383,1.241,3.8,3.8,0,0,1-2.42-2.326A2.123,2.123,0,0,1,313.958,270.1Z" transform="translate(-107.672 -100.093)" fill="#f78248"/>
    <path id="Path_90" data-name="Path 90" d="M332.945,239.031a1.851,1.851,0,0,1,1.491-.383,8.134,8.134,0,0,1,.778.281,3.875,3.875,0,0,1,1.3.461,1.75,1.75,0,0,1,.473,1.508,2.609,2.609,0,0,1-.24.986,2.288,2.288,0,0,1-2.668.979,3,3,0,0,1-1.908-1.834,1.673,1.673,0,0,1,.778-2Z" transform="translate(-115.982 -86.708)" fill="#739af0"/>
    <path id="Path_91" data-name="Path 91" d="M319.571,233.039a1.85,1.85,0,0,1,1.491-.383,8.19,8.19,0,0,1,.779.281,3.878,3.878,0,0,1,1.3.461,1.746,1.746,0,0,1,.473,1.508,2.608,2.608,0,0,1-.24.985,2.287,2.287,0,0,1-2.668.979,3,3,0,0,1-1.908-1.834A1.673,1.673,0,0,1,319.571,233.039Z" transform="translate(-110.201 -84.118)" fill="#ebf3fa"/>
    <path id="Path_92" data-name="Path 92" d="M330.245,269.421a1.975,1.975,0,0,1-.2-2,4.816,4.816,0,0,1,1.295-1.646,4.4,4.4,0,0,1,1.2-.846,1.757,1.757,0,0,1,1.429-.034,1.113,1.113,0,0,1,.637,1.2c-.159.649-.877,1.138-1.184,1.731-.294.566-.29,1.241-.567,1.791a1.327,1.327,0,0,1-1.108.889c-.9.112-.993-.484-1.5-1.09Z" transform="translate(-115.033 -98.009)" fill="#f99746"/>
    <path id="Path_93" data-name="Path 93" d="M297.788,239.483a27.228,27.228,0,0,1,3.783-.58,20.065,20.065,0,0,1,3.276.718c.233.166-1.224,1.085-2.389.924-.794-.109-2.457,1.027-3.034,1.4S297.788,239.483,297.788,239.483Z" transform="translate(-101.167 -86.828)" fill="#ffb27d"/>
    <path id="Path_94" data-name="Path 94" d="M375.37,207.092l-1.68,1.825L350.747,187.4a.547.547,0,0,1-.028-.767h0a.476.476,0,0,1,.66-.039l23.991,20.5Z" transform="translate(-123.985 -64.169)" fill="#f99746"/>
    <path id="Path_95" data-name="Path 95" d="M389.806,223.225l1.68-1.825-2.135-1.824-1.49,1.825,1.945,1.825Z" transform="translate(-140.102 -78.477)" fill="#739af0"/>
    <path id="Path_96" data-name="Path 96" d="M392.968,222.644s1.306-.775,3.579.8,3.9,1.03,3.9,1.03a7.994,7.994,0,0,1-4.277,2c-2.329.162-4.076-.053-4.882-2Z" transform="translate(-141.583 -79.72)" fill="#163560"/>
    <path id="Path_97" data-name="Path 97" d="M377.289,215.015l.3-.037c1.07-.131,4.664-.576,5.264-.707.708-.154-.422,1.069-1.629,1.414s-.438,1.322-1.771,1.2S377.289,215.015,377.289,215.015Z" transform="translate(-135.532 -76.178)" fill="#ffb27d"/>
    <path id="Path_98" data-name="Path 98" d="M464.677,239.351h-77.2l12.112-98.65h77.2l-12.112,98.65Z" transform="translate(-139.934 -44.382)" fill="#916140"/>
    <path id="Path_99" data-name="Path 99" d="M470.793,239.351h-77.2L405.7,140.7h77.2l-12.112,98.65Z" transform="translate(-142.579 -44.382)" fill="#d8a27d"/>
    <path id="Path_100" data-name="Path 100" d="M470.815,237.785h-68.2l10.92-88.939h68.2l-10.921,88.939Z" transform="translate(-146.478 -47.903)" fill="#e5bd9e"/>
    <path id="Path_101" data-name="Path 101" d="M480.185,228.17H409.6l.612-4.933H480.8l-.612,4.933Z" transform="translate(-149.501 -80.059)" fill="#d8a27d"/>
    <path id="Path_102" data-name="Path 102" d="M411.745,155.4l1.8-14.7h14.7l-16.505,14.7Z" transform="translate(-150.426 -44.382)" fill="#c6916d"/>
    <path id="Path_103" data-name="Path 103" d="M537.91,155.4l1.8-14.7h-14.7l12.9,14.7Z" transform="translate(-199.389 -44.382)" fill="#c6916d"/>
    <path id="Path_104" data-name="Path 104" d="M408.284,303.268h-14.7l1.8-14.7,12.9,14.7Z" transform="translate(-142.576 -108.299)" fill="#c6916d"/>
    <path id="Path_105" data-name="Path 105" d="M503.677,303.268h14.7l1.805-14.7-16.506,14.7Z" transform="translate(-190.165 -108.299)" fill="#c6916d"/>
    <path id="Path_106" data-name="Path 106" d="M409.437,341.136h0a.887.887,0,0,1-.868-1.074l30.68-142.16a1.613,1.613,0,0,1,1.577-1.272h.959a1.193,1.193,0,0,1,1.164,1.453L410.48,340.3a1.07,1.07,0,0,1-1.044.832Z" transform="translate(-149.045 -68.558)" fill="#163560"/>
    <path id="Path_107" data-name="Path 107" d="M489.355,341.626h0a1,1,0,0,1-.983-.993l.512-142.258a1.222,1.222,0,0,1,1.244-1.2l.842.009a1.261,1.261,0,0,1,1.255,1.268l-2.044,142.388a.805.805,0,0,1-.826.788Z" transform="translate(-183.549 -68.793)" fill="#163560"/>
    <path id="Path_108" data-name="Path 108" d="M464.725,356.449l-33.911-.014,0-2.606,33.909.014v2.607Z" transform="translate(-158.669 -136.509)" fill="#163560"/>
    <path id="Path_109" data-name="Path 109" d="M460.96,254.829l-2.566-.32L474.913,121.3l2.567.319L460.96,254.829Z" transform="translate(-170.591 -35.995)" fill="#163560"/>
    <path id="Path_110" data-name="Path 110" d="M478.088,214.454H459.233l1.294-2.62h17.407l.154,2.533Z" transform="translate(-170.954 -75.13)" fill="#163560"/>
    <path id="Path_111" data-name="Path 111" d="M510.979,355.67l-35.65-120.859a.9.9,0,0,1,.025-.584l.718-1.836a.9.9,0,0,1,1.706.082l34.933,122.7a.9.9,0,0,1-.868,1.147h0a.9.9,0,0,1-.865-.646Z" transform="translate(-177.895 -83.769)" fill="#163560"/>
    <path id="Path_112" data-name="Path 112" d="M463.859,316H389.167a.672.672,0,0,1-.677-.668h0a1.964,1.964,0,0,1,1.975-1.952h74.154a.925.925,0,0,1,.925.925v.031A1.675,1.675,0,0,1,463.859,316Z" transform="translate(-140.374 -119.023)" fill="#163560"/>
    <path id="Path_113" data-name="Path 113" d="M489.484,139.176H475.611v-2h13.873v2Z" transform="translate(-178.033 -42.857)" fill="#163560"/>
    <path id="Path_114" data-name="Path 114" d="M452.041,452.1H64.194a.449.449,0,0,1-.448-.448v-.183a.449.449,0,0,1,.448-.448H452.041a.45.45,0,0,1,.449.448v.177a.452.452,0,0,1-.449.453Z" transform="translate(0 -178.523)" fill="#2e3552"/>
  </g>
</svg>
