<svg xmlns="http://www.w3.org/2000/svg" width="278.995" height="293.693" viewBox="0 0 278.995 293.693">
  <g id="Untitled-1-05" transform="translate(-330.5 -115.2)">
    <path id="Path_4405" data-name="Path 4405" d="M344.837,406.11s-16.022,12.793-1.038,28.8l72.241-21.277-71.2-7.522" transform="translate(-1.008 -42.504)" fill="#3f90a8"/>
    <path id="Path_4406" data-name="Path 4406" d="M591.909,410.336l-127.561,39L344.889,433.268l7.858-2.5L473.655,392h.087l56.835,11.882,55.493,5.839,5.839.615" transform="translate(-2.102 -40.443)" fill="#3f90a8"/>
    <path id="Path_4407" data-name="Path 4407" d="M590.594,386.074l-6.542,3.249,6.5-2.327-.044,1.888L565.92,399.376l24.542-9.57-.351,9.615-9.439,4.127,9.395-2.5-.219,6.1-3.775,1.317L464.744,445.27l-.307-.044L352.749,429.508l-5.839-.834c-3.073-7.551-2.5-15.5.878-23.751l125.869-14.18h.087l111.01-6.689,5.927-.658-.087,2.678" transform="translate(-2.104 -39.185)" fill="#f4f1e5"/>
    <path id="Path_4408" data-name="Path 4408" d="M348.259,403.125l130.792-29.06,112.131,7.567L467.715,419.179,348.259,403.125" transform="translate(-2.595 -37.822)" fill="#f8dcc2"/>
    <path id="Path_4409" data-name="Path 4409" d="M465.841,420.174l-117.582-15.8,4.066-.9,113.555,15.26L587.1,382.6l4,.27-5.854.651-25.121,8.611L500.44,409.922l-34.546,8.828-.053,1.425M591.4,382.942v-.063h.011l-.011,0" transform="translate(-2.595 -39.07)" fill="#f1be94"/>
    <path id="Path_4410" data-name="Path 4410" d="M346.11,401.19l121.856-25.9a49.8,49.8,0,0,1,18.407-2.819l106.655,6.787L465.566,417.244,346.11,401.191" transform="translate(-2.281 -37.585)" fill="#3f90a8"/>
    <path id="Path_4411" data-name="Path 4411" d="M484.788,451.883l.088-2.854.307.044L606.51,412.268l5.839.615-127.561,39" transform="translate(-22.543 -43.404)" fill="#3d7c80"/>
    <path id="Path_4412" data-name="Path 4412" d="M485.2,444.788l-.307-.044.913-24.521,1.874.252,44.105-13.412,19.249-4.919,24.164-8.284,35.938-10.928-.087,2.661-6.542,3.249,6.5-2.327-.044,1.888-24.585,10.492,24.542-9.57-.351,9.615-9.439,4.127,9.395-2.5-.219,6.1-3.775,1.317L485.2,444.788" transform="translate(-22.558 -39.118)" fill="#edd0ae"/>
    <path id="Path_4413" data-name="Path 4413" d="M632.988,382.924l-.073-.005.073-.008v.076" transform="translate(-44.185 -39.115)" fill="#edd0ae"/>
    <path id="Path_4414" data-name="Path 4414" d="M487.834,420.474l-1.874-.252h0l.135.018,34.464-10.271,11.381-2.908-44.105,13.412m87.519-26.615,4.89-1.676,31.048-9.252h0l-35.938,10.928" transform="translate(-22.714 -39.118)" fill="#f1be94"/>
    <path id="Path_4415" data-name="Path 4415" d="M486.095,420.238l-.135-.018.053-1.425,34.546-8.828-34.464,10.271m94.374-28.057,25.121-8.611,5.854-.651.073.005v0l-31.047,9.252" transform="translate(-22.714 -39.116)" fill="#eaa471"/>
    <path id="Path_4416" data-name="Path 4416" d="M337.938,366.589s-16.022,12.793-1.037,28.8l72.24-21.276-71.2-7.523" transform="translate(0 -36.73)" fill="#ec925d"/>
    <path id="Path_4417" data-name="Path 4417" d="M585.01,370.336l-127.561,39L337.99,393.269l7.859-2.5L466.756,352h.087l56.835,11.884,55.493,5.838,5.839.615" transform="translate(-1.094 -34.598)" fill="#ec925d"/>
    <path id="Path_4418" data-name="Path 4418" d="M583.695,346.075l-6.542,3.249,6.5-2.327-.044,1.887-24.586,10.493,24.542-9.57-.351,9.615-9.439,4.126,9.395-2.5-.219,6.1-3.775,1.317L457.845,405.27l-.307-.044L345.851,389.51l-5.839-.834c-3.073-7.552-2.5-15.5.878-23.751l125.868-14.181h.087l111.01-6.689,5.927-.657-.087,2.678" transform="translate(-1.096 -33.341)" fill="#f4f1e5"/>
    <path id="Path_4419" data-name="Path 4419" d="M341.36,363.6l130.792-29.06,112.132,7.567L460.817,379.658,341.36,363.6" transform="translate(-1.587 -32.048)" fill="#f8dcc2"/>
    <path id="Path_4420" data-name="Path 4420" d="M458.942,384.224l-117.582-15.8,4.067-.9,113.554,15.26,3.173-.945.407.055L459,382.8l-.054,1.425" transform="translate(-1.587 -36.866)" fill="#f1be94"/>
    <path id="Path_4421" data-name="Path 4421" d="M339.211,361.67l121.857-25.9a49.813,49.813,0,0,1,18.407-2.818l106.655,6.787L458.667,377.723,339.211,361.67" transform="translate(-1.273 -31.81)" fill="#ec925d"/>
    <path id="Path_4422" data-name="Path 4422" d="M477.889,412.384l.088-2.854.307.044,109.947-33.353q.456.154.906.278a21.9,21.9,0,0,0,3.723.734L477.889,412.384m121.237-37.067c.187-.135.377-.272.573-.412a2.426,2.426,0,0,0,1.1-2.011l4.647.489-6.324,1.933" transform="translate(-21.535 -37.651)" fill="#e67e47"/>
    <path id="Path_4423" data-name="Path 4423" d="M478.3,405.917l-.307-.044.913-24.521,1.875.252,6.435-1.957,8.987,1.209,18.15-5.549c.04.078.081.155.121.231h0l.006.05a28.869,28.869,0,0,0,1.958,3.463c3.443,3.891,11.44,5.934,14.714,5.934a3.593,3.593,0,0,0,1.093-.127c6.951-2.379.054-6.42-4.287-12.643q-.182-.489-.342-.962l40.2-12.291c-.059,1.027-.1,1.878-.1,2.4a2.519,2.519,0,0,0,.032.517c.193.675.439,2.438,5.719,3.885h0l.172.073c.385.12.815.21,1.269.321a14.4,14.4,0,0,1,4.316,1.766,47.969,47.969,0,0,0,9.023,4.642L478.3,405.917m122.458-37.2a4.2,4.2,0,0,0-1.721-2.317c-.623-.469-1.879-1.4-3.4-2.583l7.981-2.125-.219,6.1-2.645.923m-5.315-5.054a87.223,87.223,0,0,1-7.407-6.36c-.148-.149-.295-.3-.438-.447l16.419-6.4-.351,9.615-8.224,3.595m-8.046-7.02a32.5,32.5,0,0,1-2.428-2.927l13.257-4.053-.617.307,2.252-.807,4.24-1.3-.038,1.663L587.4,356.644" transform="translate(-21.55 -33.995)" fill="#edd0ae"/>
    <path id="Path_4424" data-name="Path 4424" d="M480.936,387l-1.875-.252h0l.136.018,6.526-1.945,1.648.222L480.936,387" transform="translate(-21.706 -39.394)" fill="#f1be94"/>
    <path id="Path_4425" data-name="Path 4425" d="M479.2,386.7l-.136-.018.054-1.425,3.566-.911,3.042.409L479.2,386.7" transform="translate(-21.706 -39.324)" fill="#eaa471"/>
    <path id="Path_4426" data-name="Path 4426" d="M359.367,333.949s-16.022,12.793-1.038,28.8l72.241-21.278-71.2-7.522" transform="translate(-3.131 -31.961)" fill="#a64c49"/>
    <path id="Path_4427" data-name="Path 4427" d="M606.439,337.336l-127.561,39L359.42,360.269l7.858-2.5L488.186,319h.087l56.834,11.883,55.493,5.839,5.839.615" transform="translate(-4.225 -29.777)" fill="#a64c49"/>
    <path id="Path_4428" data-name="Path 4428" d="M605.124,313.075l-6.542,3.248,6.5-2.326-.044,1.887L580.45,326.378l24.542-9.571-.351,9.615-9.439,4.127,9.4-2.5-.22,6.1-3.775,1.317L479.274,372.27l-.307-.044L367.279,356.509l-5.839-.833c-3.073-7.552-2.5-15.5.878-23.752l125.87-14.181h.087l111.01-6.688,5.927-.658-.088,2.678" transform="translate(-4.227 -28.52)" fill="#f4f1e5"/>
    <path id="Path_4429" data-name="Path 4429" d="M362.789,330.964,493.581,301.9l112.132,7.567L482.246,347.018,362.789,330.964" transform="translate(-4.718 -27.279)" fill="#f8dcc2"/>
    <path id="Path_4430" data-name="Path 4430" d="M480.372,351.584l-117.583-15.8,4.067-.9,113.554,15.26,14.327-4.269,4.017-.631-.18.283-18.149,4.637-.053,1.425" transform="translate(-4.718 -32.097)" fill="#f1be94"/>
    <path id="Path_4431" data-name="Path 4431" d="M360.64,329.029l121.857-25.9A49.836,49.836,0,0,1,500.9,300.31L607.561,307.1,480.1,345.083,360.641,329.029" transform="translate(-4.404 -27.041)" fill="#a64c49"/>
    <path id="Path_4432" data-name="Path 4432" d="M499.318,379.722l.088-2.854.307.044,16.531-5.015c.425.77.839,1.547,1.224,2.276l-18.15,5.549m31.413-9.6c-.284-.833-.521-1.633-.718-2.4l41.082-12.463c-.063.914-.12,1.792-.166,2.569l-40.2,12.291m57.352-17.536c-.075-.1-.147-.2-.218-.3-.008-.018-.013-.027-.013-.027l-.1-.136c-.159-.223-.306-.435-.439-.631a2.475,2.475,0,0,0,.363-.466c-.033-.22-.06-.478-.08-.771l33.448-10.147,5.839.615-19.664,6.012-4.24,1.3-14.891,4.553" transform="translate(-24.666 -32.861)" fill="#a14238"/>
    <path id="Path_4433" data-name="Path 4433" d="M499.728,375.06l-.307-.044.914-24.521,1.874.252,15.262-4.641c-.494.776-.762,1.2-.762,1.2a2.552,2.552,0,0,0-.318,2.034c-3.288,2.679-6.907,5.754-7.332,6.636a2.406,2.406,0,0,0-.179,1.018c0,2.265,1.713,6.465,3.679,7.8,1.058.727,2.434,2.96,3.7,5.253l-16.531,5.015m30.3-9.191a27.983,27.983,0,0,1-.713-3.811c-.094-.831-.141-1.6-.154-2.314a2.311,2.311,0,0,0,2-1.178c.757-1.352,10.751-9.681,20.838-19.645l16.579-2.6c1.056,6.534,2.025,12.632,2.586,16.25-.021.282-.04.564-.06.841l-41.082,12.463m41.154-13.481c-.029-.389-.049-.812-.061-1.265a1.3,1.3,0,0,0,.143.161c-.027.366-.055.736-.081,1.1m16.426-3.986c-.187-2.668.135-8.255.585-15.167l36.968-5.807-.066,1.784-9.439,4.127,9.4-2.5-.22,6.1-3.775,1.317L587.608,348.4" transform="translate(-24.681 -31.008)" fill="#edd0ae"/>
    <path id="Path_4434" data-name="Path 4434" d="M502.365,353.8l-1.874-.252h0l.134.018,17.519-5.221-.518.814L502.365,353.8" transform="translate(-24.837 -34.065)" fill="#f1be94"/>
    <path id="Path_4435" data-name="Path 4435" d="M500.625,353.423l-.134-.018.053-1.425,18.149-4.638-.548.86-17.519,5.221" transform="translate(-24.837 -33.918)" fill="#eaa471"/>
    <path id="Path_4436" data-name="Path 4436" d="M638.525,321.774,629,319.656l-67.1-15.033,4.894-.747,7.207-1.137,8.824-1.415,45.256-7.115,5.941-.916s17.433,10.8,4.493,28.482" transform="translate(-33.811 -26.021)" fill="#3f90a8"/>
    <path id="Path_4437" data-name="Path 4437" d="M608.859,320.274l-118.011,18.54-131.984-24.4,57.863-12.568,4.834-1.184,26.532-11.095,26.607-6.534,27.929,8.267,38.206,8.882,3.153.941.355.119.444.116,56.123,16.569,7.948,2.35" transform="translate(-4.144 -24.521)" fill="#3f90a8"/>
    <path id="Path_4438" data-name="Path 4438" d="M368.223,309.178l-9.862-2.977-1.493-9.5,25.52,6.55-25.663-7.46-.3-1.886,6.742,1.57L356.287,293l247.72.579c4.69,17.629,4.246,17.547,2.072,25.381l-116.12,18.316L359.565,313.855l-.953-6.058,9.611,1.38" transform="translate(-3.768 -25.978)" fill="#f8dcc2"/>
    <path id="Path_4439" data-name="Path 4439" d="M602.318,292.319l-132.9-18.745L355.8,287.214l128.5,23.658,118.013-18.553" transform="translate(-3.697 -23.14)" fill="#f8dcc2"/>
    <path id="Path_4440" data-name="Path 4440" d="M508.48,316.941l-.1-.018.1-.015.005.032" transform="translate(-25.989 -29.471)" fill="#f1be94"/>
    <path id="Path_4441" data-name="Path 4441" d="M646.394,293.306l-.011-.008h.009l0,.009" transform="translate(-46.153 -26.021)" fill="#f1be94"/>
    <path id="Path_4442" data-name="Path 4442" d="M486.087,312.84,355.8,289.463l4.164-.5,125.944,22.251.271,1.612-.1.015" transform="translate(-3.697 -25.388)" fill="#f1be94"/>
    <path id="Path_4443" data-name="Path 4443" d="M603.558,290.238l-123.65-16.676a49.818,49.818,0,0,0-18.612-.6L353.217,285.411l132.329,23.38,118.012-18.552" transform="translate(-3.319 -22.962)" fill="#3f90a8"/>
    <path id="Path_4444" data-name="Path 4444" d="M650.324,321.776h0l-7.665-2.266,5.26-.83c2.135-7.688,2.6-7.754-1.816-24.422h0l-.076-.286-.177-.664c.468.3,9.258,6,9.253,15.706,0,3.7-1.279,7.979-4.779,12.762" transform="translate(-45.609 -26.023)" fill="#3d7c80"/>
    <path id="Path_4445" data-name="Path 4445" d="M513.344,344.8h0l-.514-3.32,10.268-1.62c-.939,1.465-1.755,2.743-2.422,3.789l-7.331,1.151m40.62-6.381c1.346-1.33,2.691-2.685,4.018-4.061L570,332.462c.183,1.123.365,2.243.544,3.352l-16.579,2.6m36.188-5.685q.11-1.693.23-3.486l33.309-5.254,7.665,2.266-41.2,6.473" transform="translate(-26.64 -30.506)" fill="#3d7c80"/>
    <path id="Path_4446" data-name="Path 4446" d="M512.2,337h0l-3.7-23.5,5.859-.955,25.6-4.025c-1.508,2.258-2.992,4.527-4.442,6.752-1.4,2.1-2.758,4.176-4.07,6.193l-.063.108c-3.469,5.329-6.578,10.155-8.92,13.81L512.2,337m45.152-7.122a136.832,136.832,0,0,0,10.294-11.779c.42,2.329.846,4.709,1.262,7.053.154.941.308,1.887.461,2.831l-12.017,1.895m32.4-5.11c.5-7.541,1.068-16.219,1.294-24.281l33.584-5.28-2.1-.3,3.977-.648c4.417,16.668,3.951,16.734,1.816,24.422l-5.26.83-33.309,5.254m36.676-30.792-.177-.664h0l.177.664" transform="translate(-26.007 -26.023)" fill="#f1be94"/>
    <path id="Path_4447" data-name="Path 4447" d="M515.358,312.812l25.715-4.192-.111.167-25.6,4.025m76.687-12.056c0-.149.009-.3.012-.447l31.469-5.13,2.1.3-33.584,5.28" transform="translate(-27.009 -26.296)" fill="#f1be94"/>
    <path id="Path_4448" data-name="Path 4448" d="M508.5,316.784h0l-.005-.032,5.864-.922-5.858.955" transform="translate(-26.006 -29.313)" fill="#eaa471"/>
    <path id="Path_4449" data-name="Path 4449" d="M646.679,294.371l-.076-.286.076.286" transform="translate(-46.185 -26.136)" fill="#3b6b61"/>
    <path id="Path_4450" data-name="Path 4450" d="M641.448,294.9l-3.428-.483,7.141-1.123.011.008.177.664.076.286-3.977.648" transform="translate(-44.931 -26.021)" fill="#eaa471"/>
    <path id="Path_4451" data-name="Path 4451" d="M508.445,313.651l-.271-1.612.012,0,30.036-4.722q1.131.264,2.268.523h0c-.026.031-.186.27-.458.682l-.009.013-25.715,4.192-5.864.922m82.563-13.425c.011-.406.021-.808.03-1.21l28.011-4.4,3.428.483-31.469,5.13" transform="translate(-25.96 -26.214)" fill="#eaa471"/>
    <path id="Path_4452" data-name="Path 4452" d="M646,293h.314" transform="translate(-46.097 -25.978)" fill="#f8dcc2"/>
    <path id="Path_4453" data-name="Path 4453" d="M646.376,293.295l-.008,0h0l0,0" transform="translate(-46.151 -26.021)" fill="#3d7c80"/>
    <path id="Path_4454" data-name="Path 4454" d="M508.186,311.806l-.012,0,0-.015,27.934-5.206q1.055.254,2.116.5l-30.036,4.722m82.852-13.276c.006-.3.013-.6.018-.891l28.786-3.8,6.334-.842h0l.008,0,.005,0-7.141,1.123-28.011,4.4" transform="translate(-25.959 -25.978)" fill="#3d7c80"/>
    <path id="Path_4455" data-name="Path 4455" d="M615.067,371.265c-2.539,1.8-4.041,3.386-10.562,1.593-3.557-.978-7.555-3.468-9.929-4.919a14.4,14.4,0,0,0-4.316-1.766c-.454-.111-.884-.2-1.269-.321l-.172-.073c-5.28-1.447-5.526-3.21-5.719-3.885-.23-.788.885-13.912.885-13.912l14.615,3.178a32.769,32.769,0,0,0,4.785,6.162,115.883,115.883,0,0,0,11,9.1c2.441,1.836,2.08,3.874.679,4.847" transform="translate(-36.902 -34.011)" fill="#3b5765"/>
    <path id="Path_4456" data-name="Path 4456" d="M603,354.341l-.117-.163.1.136s.005.009.013.027" transform="translate(-39.797 -34.916)" fill="#7e362f"/>
    <path id="Path_4457" data-name="Path 4457" d="M588.82,366.578c-5.28-1.447-5.526-3.21-5.719-3.885a2.52,2.52,0,0,1-.032-.517c0-1.033.146-3.37.321-5.808.023.149.045.294.067.434h0q-.032-.289-.055-.611c.026-.368.054-.738.081-1.1.773.741,2.84,1.092,5.268,1.092,4.03,0,9.054-.968,10.782-2.724q.2.288.451.618l.117.163c.136.307,1.067,3.166-10.9,4.022-7.852.561-1.962,7.5-.382,8.321" transform="translate(-36.902 -34.811)" fill="#2e4754"/>
    <path id="Path_4458" data-name="Path 4458" d="M590.61,285.542c-.233,5.788-3.937,7.557-6.49,12a43.2,43.2,0,0,0-7.645-1.09c-3.037-.253-6.635-.394-10.516-.5-19.867-.635-47.579-.333-51.678-5.312-1.106-1.331-5.989-20.6-6.769-21.988a19.556,19.556,0,0,1-2.6-8.827c-.125-5.1,2.276-9.4,7.167-11.128,2.775-1.008,6.39-1.131,10.739-.049.89.336,2.215-.069,3.543-.476a6.816,6.816,0,0,1,3.461-.51c1.584.488,3.147,1,4.712,1.542,3.82,1.262,7.581,2.627,11.276,4.046A327.286,327.286,0,0,1,583.872,270.8c5.6,3.71,6.964,9.1,6.737,14.745" transform="translate(-25.482 -19.34)" fill="#ec925d"/>
    <path id="Path_4459" data-name="Path 4459" d="M600.529,287.023c.749,19.094-2.894,50.24-2.026,55.992-2.043,3.456-16.327,4.339-16.74,1.544-.289-2.282-.282-2.358-.319-2.688-1.527-9.88-7.181-41.162-8-44.388a.567.567,0,0,1,.107-.322c.663-1.317,5.207-5.033,10.154-8.793,6.486-4.914,16.767-2.839,16.826-1.345" transform="translate(-35.496 -24.851)" fill="#ec925d"/>
    <path id="Path_4460" data-name="Path 4460" d="M583,354.083c-.561-3.618-1.529-9.716-2.586-16.25l.079-.013c.839,4.82,1.553,9.056,1.966,11.726.038.33.031.406.319,2.688a.9.9,0,0,0,.173.406c.013.453.032.876.061,1.265l-.013.178" transform="translate(-36.515 -32.527)" fill="#e6ac82"/>
    <path id="Path_4461" data-name="Path 4461" d="M580.325,337.262c-.179-1.108-.361-2.229-.544-3.352l.038-.006q.3,1.707.586,3.345l-.079.013" transform="translate(-36.422 -31.954)" fill="#3b6760"/>
    <path id="Path_4462" data-name="Path 4462" d="M579.7,333.427c-.153-.944-.307-1.89-.461-2.831.168.95.336,1.894.5,2.825l-.038.006" transform="translate(-36.343 -31.471)" fill="#ea9e6e"/>
    <path id="Path_4463" data-name="Path 4463" d="M583.513,357.269c-.022-.14-.044-.285-.067-.434l.013-.178q.023.321.055.611" transform="translate(-36.957 -35.279)" fill="#2d3b3f"/>
    <path id="Path_4464" data-name="Path 4464" d="M552.891,254.254l-.083-.032a.361.361,0,0,1,.083.032" transform="translate(-32.481 -20.312)" fill="#f7d3be"/>
    <path id="Path_4465" data-name="Path 4465" d="M575.948,285.519a35.726,35.726,0,0,0-5.076-4.908h0a1.018,1.018,0,0,0-.253-.224l-.11-.083,3.247-1.441a52.561,52.561,0,0,1,5.078,4.428c-.988.751-1.958,1.5-2.886,2.228m-30.43-22.175q-1.556-.99-3.228-2.047l-2.173-1.376c6.994-4.87,4.287-7.245,4.287-7.245a6.493,6.493,0,0,1-2.061-2.137c2.907,1,5.778,2.058,8.611,3.146h0l.083.032c.279.144,1.048.9-1.12,4.563-.446.753-.13,2,.512,3.265l-4.91,1.8" transform="translate(-30.627 -19.774)" fill="#e57945"/>
    <path id="Path_4466" data-name="Path 4466" d="M582.581,345.492a.9.9,0,0,1-.173-.406c-.289-2.282-.282-2.358-.319-2.688-.412-2.67-1.127-6.905-1.966-11.726h0q-.284-1.634-.586-3.345c-.163-.931-.331-1.875-.5-2.825-.4-2.45-.8-4.871-1.18-7.162,3.1-4.093,5.473-8.009,6.521-11.407,1.909-4.407,1.634-9.325-2.918-14.812.928-.728,1.9-1.477,2.886-2.228h0c4.14,4.2,5.34,12.663,3.464,18.948-2.919,9.78-5.466,29.11-5.232,37.649" transform="translate(-36.141 -25.378)" fill="#e57945"/>
    <path id="Path_4467" data-name="Path 4467" d="M553.119,184.57c-.25,1.462-5.309,22.722-7.4,31.514v.042c-.523,2.235-.865,3.655-.865,3.717-4.534-.585-13.123-2.8-16.724-7.288a6.725,6.725,0,0,1-1.5-5.576c.66-3.676,3.622-12.176,4.556-15.642a41.334,41.334,0,0,1,4.967-11.862c2.21-3.445,4.807-5.639,7.678-6.432,6.789-1.859,8.521,1.92,9.8,5.325.661,1.817-.342,5.388-.5,6.2" transform="translate(-28.639 -8.379)" fill="#f8c650"/>
    <path id="Path_4468" data-name="Path 4468" d="M572.4,250.726s3.422,3.585,5.214,4.236a10.353,10.353,0,0,0,3.947.04,21.16,21.16,0,0,1,4.852-.04c3.585.488,4.582,5.373,5.214,6.517s.794,4.7-2.861,4.875c-1.581.076-3.248-.921-4.639-1.918-1.826-1.309-3.176-2.618-3.23-1.5,1.385,2.439,2.537,3.872.792,3.918s-4.462-5.049-7.038-5.843-4.531-1.725-5.182-3.317,2.932-6.969,2.932-6.969" transform="translate(-34.904 -19.801)" fill="#fcc7a9"/>
    <path id="Path_4469" data-name="Path 4469" d="M559.786,253.577s-.934-.542-2.483-1.42l-.068-.042c-6.744-3.821-24.561-13.992-26.52-15.12-2.393-1.378-6.106-6.2-7.268-7.915a14.926,14.926,0,0,1,4.329-10.149c4.579-4.24,11.847-3.906,17.589,3.571.023.062,22.214,23.244,23.011,23.87.866.69-5.312,8.658-8.589,7.205" transform="translate(-28.191 -14.757)" fill="#f8c650"/>
    <path id="Path_4470" data-name="Path 4470" d="M525.825,163.889l-2.12-3A6.414,6.414,0,0,1,530,160l-4.175,3.886" transform="translate(-28.229 -6.48)" fill="#f8c650"/>
    <path id="Path_4471" data-name="Path 4471" d="M524.65,160.441a7.138,7.138,0,0,1,.739-.352c-.285.121-.541.248-.739.352" transform="translate(-28.367 -6.558)" fill="#f19a19"/>
    <path id="Path_4472" data-name="Path 4472" d="M558.157,137.131c-6.322,5.4-7.145,14.515-19.3,14.515s-10.017,3.01-13.572-4.51c-3.463-7.327-3.661-11.261-4.21-18.419-.271-3.536,3.729-8.836,11.633-11.064,9.129-5.612,16.864.015,21.555,1.064,6.871,1.537,7.467,5.768,6.613,8.265.068,6.436-.574,6.876-2.72,10.149Z" transform="translate(-27.843)" fill="#3b5765"/>
    <path id="Path_4473" data-name="Path 4473" d="M561.672,280.059c.073.647-3.009,7.966-5.842,14.372-.161.371-.32.743-.5,1.118-2.045,4.675-3.848,8.591-3.972,8.606-3.927-.792-7.8-1.589-11.616-2.469-1.266-.26-2.508-.523-3.78-.833-15.032-3.42-29.336-7.554-43.524-13.771-11.847-5.169-16.391-17.631-15.066-25.532.148-.926.3-1.8.435-2.625,2.17-12.92,2.3-12.657,19.26-11.829,3.07.131,11.046,3.67,14.057,4.615,3.433,1.113,4.815.907,5.866.7,1.3-.253,2.1-.506,5.644,1.729.38.235.763.494,1.143.728,3.124,1.943,5.982,3.766,8.62,5.435,11.966,7.555,19.365,12.472,25.338,16.818a8.9,8.9,0,0,1,.8.567c.991.72,1.957,1.444,2.895,2.146a1.019,1.019,0,0,1,.253.224" transform="translate(-21.426 -19.222)" fill="#ec925d"/>
    <path id="Path_4474" data-name="Path 4474" d="M536.994,384.869c-1.968.678-11.869-1.355-15.807-5.806a28.876,28.876,0,0,1-1.958-3.463l-.006-.05c-1.545-2.931-3.595-6.763-5.046-7.759-2.325-1.579-4.3-7.162-3.5-8.818s12.837-11.025,12.837-11.025l8.068,9.032s-1.234,2.918-.649,8.077a30.392,30.392,0,0,0,1.773,7.171c4.341,6.223,11.238,10.264,4.287,12.643" transform="translate(-26.299 -34.006)" fill="#3b5765"/>
    <path id="Path_4475" data-name="Path 4475" d="M519.223,376.3c-.418-.794-.874-1.654-1.345-2.506-1.267-2.293-2.644-4.526-3.7-5.253-1.966-1.335-3.679-5.535-3.679-7.8a2.4,2.4,0,0,1,.179-1.018c.425-.882,4.045-3.957,7.332-6.636.587,2.893,4.511,6.893,8.23,8.995a10.344,10.344,0,0,0,3.825,1.4h0l.05-.005a4.335,4.335,0,0,0,.441.023c.076,0,.151,0,.225-.007.013.711.06,1.483.154,2.314a5.108,5.108,0,0,1-1.5.208c-1.537,0-3.755-.553-6.853-2.416-2.372-1.426-4.024-1.948-5.168-1.948-2.5,0-2.565,2.493-2.387,3.461.265,1.434,2.562,6.551,4.2,11.188" transform="translate(-26.299 -34.757)" fill="#2e4754"/>
    <path id="Path_4476" data-name="Path 4476" d="M575.81,304.252c-5.021,16.273-40.305,44.413-41.754,47a2.519,2.519,0,0,1-2.671,1.162l-.049.005c-5.057-.511-14.128-9.026-11.737-12.428,0,0,5.824-9.194,13.35-20.753l.063-.108c1.312-2.017,2.667-4.09,4.07-6.193,1.634-2.508,3.312-5.072,5.019-7.613.173-.247.345-.518.54-.793,1.593-2.428,3.211-4.859,4.813-7.212.447-1.616,9.075-18.147,9.5-19.938q3.878,2.135,6.917,4.214a8.9,8.9,0,0,1,.8.567c.991.72,1.957,1.444,2.895,2.146a1.019,1.019,0,0,1,.253.224c9.283,7.5,10.454,14.038,7.993,19.72" transform="translate(-27.571 -23.696)" fill="#ec925d"/>
    <path id="Path_4477" data-name="Path 4477" d="M532.757,365.021a10.345,10.345,0,0,1-3.826-1.4,10.345,10.345,0,0,0,3.826,1.4h0" transform="translate(-28.992 -36.296)" fill="#2d3a3d"/>
    <path id="Path_4478" data-name="Path 4478" d="M545.484,310.788c.272-.412.431-.652.458-.682l-.458.682" transform="translate(-31.411 -28.477)" fill="#e38652"/>
    <path id="Path_4479" data-name="Path 4479" d="M531.677,303.7a229.425,229.425,0,0,1-39.14-12.747,25.736,25.736,0,0,1-14.673-17.667h0a25.736,25.736,0,0,0,14.673,17.667,229.422,229.422,0,0,0,39.14,12.747h0" transform="translate(-21.531 -23.098)" fill="#3d757a"/>
    <path id="Path_4480" data-name="Path 4480" d="M545.631,310.017q-1.137-.259-2.268-.523h0q1.131.264,2.268.523h0" transform="translate(-31.101 -28.388)" fill="#e38652"/>
    <path id="Path_4481" data-name="Path 4481" d="M543,309.408q-1.061-.248-2.116-.5h0q1.055.254,2.116.5h0" transform="translate(-30.739 -28.302)" fill="#3b655d"/>
    <path id="Path_4482" data-name="Path 4482" d="M542.29,262.9l-.7-.441-1.476-.934h0l2.173,1.376" transform="translate(-30.627 -21.379)" fill="#de6332"/>
    <path id="Path_4483" data-name="Path 4483" d="M535.973,302.919h0q-1.137-.259-2.268-.523-1.061-.248-2.116-.5a229.416,229.416,0,0,1-39.14-12.747,25.736,25.736,0,0,1-14.673-17.667,23.473,23.473,0,0,1-.514-3.059,66.466,66.466,0,0,0,6.537,1.984l.006,0a55.012,55.012,0,0,0,14.046,1.756h.071q2.1,0,4.2-.149h0c.114,0,.206-.021.319-.021,7.017-.522,15.63-1.774,16.7-4.761a10.53,10.53,0,0,1,.2-3.007c.068-.292.137-.626.228-.981h0a1.046,1.046,0,0,1,.407-.065,14.623,14.623,0,0,1,4.537,1.464,5.052,5.052,0,0,1,.5.25h0a50.2,50.2,0,0,0,5.918-3.456l1.476.934.7.441.318.2c.19,1.42-2.195,3.343-9.73,6.481l-4.646,1.7a.5.5,0,0,0-.277.241c-2.977,1.125-6.5,2.38-10.633,3.785-12.054,4.094,15.849,17.138,31.462,22.245-1.031,1.539-2.064,3.1-3.087,4.656-.2.275-.367.547-.541.793" transform="translate(-21.443 -21.366)" fill="#e47744"/>
    <path id="Path_4484" data-name="Path 4484" d="M531.336,356.269a10.345,10.345,0,0,1-3.825-1.4c-4.718-2.668-9.767-8.389-7.911-11.029,0,0,18.84-29.119,22.044-33.985l.458-.682h0c.173-.247.345-.518.541-.793,1.023-1.558,2.055-3.118,3.087-4.656,3.956,1.294,7.124,2.078,8.652,2.078a2.545,2.545,0,0,0,.578-.055c-9.98,3.888-5.1,12.7-11.252,18.163a187.068,187.068,0,0,1-18.153,20.023c-3.206,3.132,3.3,10.674,5.783,12.335" transform="translate(-27.571 -27.545)" fill="#e47744"/>
    <path id="Path_4485" data-name="Path 4485" d="M549.03,223.607l-.03-.033h0v-.042h0s.01.027.03.075" transform="translate(-31.925 -15.828)" fill="#fbe2a6"/>
    <path id="Path_4486" data-name="Path 4486" d="M548.8,222.551q-.569-.74-1.156-1.389c.542-1.489,1.1-3.038,1.656-4.628a50.676,50.676,0,0,1-.5,5.976h0v.042h0" transform="translate(-31.727 -14.806)" fill="#f4b034"/>
    <path id="Path_4487" data-name="Path 4487" d="M559.827,252.956c-4.107-2.327-12.322-7.01-18.56-10.57a16.777,16.777,0,0,1,.242-4.821c.2-2.176,2.57-8.146,5.292-15.611q.587.648,1.156,1.389h0l.03.033a30.142,30.142,0,0,1,1.859,6.846c.416,3.162,3.01,18.348,9.982,22.733" transform="translate(-30.784 -15.598)" fill="#f4b034"/>
    <path id="Path_4488" data-name="Path 4488" d="M545.463,177.67c0,.272,0,.543-.022.794v.188c.022,17.125-13.283,44.775-13.762,50.059,0,.042-1.778,7.823,3.053,10.934,0,0,3.983,3.5-10.207,10.7a5.065,5.065,0,0,0-.5-.25,10.4,10.4,0,0,1-2.893-1.984,3.039,3.039,0,0,1-.684-3.279,26.917,26.917,0,0,0-1.367,3.864c-.091.355-.16.689-.228.981a10.532,10.532,0,0,0-.2,3.007c-1.071,2.987-9.683,4.24-16.7,4.761-.114,0-.2.021-.319.021a57.538,57.538,0,0,1-18.318-1.608c-5.445-1.4-11.6-3.4-11.255-5.514,2.028-11.9,7.906-21.615,9.979-46.7.137-1.879,8.726-23.953,14.764-31.075a10.027,10.027,0,0,1,1.846-1.733c.387-.25.683-.459.933-.647a40.409,40.409,0,0,1,5.286-3.321c.615-.334,1.321-.689,2.164-1.107,15.4-7.5,30.3-5.952,37.593,8.563a6.965,6.965,0,0,1,.593,1.692,8.21,8.21,0,0,1,.25,1.649" transform="translate(-20.68 -6.743)" fill="#f8c650"/>
    <path id="Path_4489" data-name="Path 4489" d="M548.329,162.353l-6.038,5.545c-.025.879-.073,1.876-.132,2.935-.265,4.523-.915,9.972-2.634,10.4-.4-5.148-1.48-8.733-3.187-11.464a16.867,16.867,0,0,0-3.873-4.318,56.627,56.627,0,0,0-8-5.064c.169-.325,7.651-10.453,7.651-10.453,2.153-2.959,17.753,9.539,16.214,12.413" transform="translate(-28.34 -5.01)" fill="#fcc7a9"/>
    <path id="Path_4490" data-name="Path 4490" d="M539.74,183.251l.044-.021v.015l-.044.006m.116-.02a2.025,2.025,0,0,0,1.017-1.127c-.287.614-.623,1.025-1.017,1.127m2.48-9.113c.032-.429.059-.854.084-1.271.025-.433.047-.856.067-1.265-.023.561-.068,1.468-.15,2.536m-4.912-.841q-.2-.108-.4-.227c.007-.2.024-.365.037-.465q.186.338.359.693m-.459-.872c-.229-.122-.605-.319-1.084-.582a16.8,16.8,0,0,0-3.2-3.038c-.763-.093-1.452-.208-2.071-.339-1.982-1.524-3.784-3.334-4.359-5.178a46.047,46.047,0,0,1,6.476,4.2,16.867,16.867,0,0,1,3.873,4.318q.188.3.366.617" transform="translate(-28.6 -7.023)" fill="#f7b546"/>
    <path id="Path_4491" data-name="Path 4491" d="M550.318,167.707c-.257-.238-.517-.469-.781-.692l1.137-1.043,1.273.364-1.628,1.371" transform="translate(-32.003 -7.418)" fill="#fee9de"/>
    <path id="Path_4492" data-name="Path 4492" d="M545.294,171.592c.017-.385.031-.756.04-1.107l3.583-3.291q.4.334.781.692l-4.4,3.707" transform="translate(-31.383 -7.597)" fill="#f7b546"/>
    <path id="Path_4493" data-name="Path 4493" d="M539.755,182.694v-.015c.985-.535,1.628-3.8,1.891-5.724.278-2.041.167-3.624-2.753-3.626a6.934,6.934,0,0,1-1.5-.6q-.174-.355-.359-.692.005-.031.008-.054l-.008-.014-.005-.047a.071.071,0,0,0-.035-.022l-.009-.014.006,0h0l-.007,0h0l-.046-.025q-.178-.315-.366-.617a16.867,16.867,0,0,0-3.873-4.318,46.052,46.052,0,0,0-6.476-4.2,4.2,4.2,0,0,1-.17-.8,9.481,9.481,0,0,1,1.366-1.926c.361-.248.587-.331.365-.383.072-.071.113-.109.113-.109l19.349,5.529-1.137,1.043-3.583,3.291c-.009.352-.023.722-.04,1.107l-.005.005c0,.083-.009.277-.02.558-.02.409-.042.832-.067,1.265-.025.418-.052.843-.084,1.271-.2,2.609-.617,6.178-1.463,7.986a2.025,2.025,0,0,1-1.017,1.127.706.706,0,0,1-.072.015" transform="translate(-28.571 -6.472)" fill="#fbb693"/>
    <path id="Path_4494" data-name="Path 4494" d="M537.817,174.049a5.558,5.558,0,0,0,.366,2.842s-5.3-.1-6.66-1.936c-1.328-1.793,5.444-1.291,6.236-1.006l.058.1" transform="translate(-29.346 -8.541)" fill="#f8c650"/>
    <path id="Path_4495" data-name="Path 4495" d="M502.875,171.124c.387-.25,1.76-1.316,2.021-1.557h0a24.281,24.281,0,0,1,2.115-1.248c-1.2.731-1.959,1.318-3.2,2.157-.25.188-.546.4-.933.647m9.637-5.665a27.338,27.338,0,0,1,5.643-2.171l-.008.006a47.7,47.7,0,0,0-5.635,2.165" transform="translate(-25.185 -7.026)" fill="#fbe2a6"/>
    <path id="Path_4496" data-name="Path 4496" d="M497.532,271.826h.389m0,.076q2.1,0,4.2-.149h0q-2.1.15-4.2.149m-14.065-1.743-.057-.015a66.47,66.47,0,0,1-6.537-1.984h0a66.47,66.47,0,0,0,6.537,1.984l.057.015m41.158-5.528a5.045,5.045,0,0,0-.5-.25,14.623,14.623,0,0,0-4.537-1.464,1.046,1.046,0,0,0-.407.065h0a26.94,26.94,0,0,1,1.367-3.864h0a3.039,3.039,0,0,0,.684,3.279,10.4,10.4,0,0,0,2.893,1.984,5.061,5.061,0,0,1,.5.25h0" transform="translate(-21.443 -21.027)" fill="#e1692c"/>
    <path id="Path_4497" data-name="Path 4497" d="M496.715,257.782h.313a57.649,57.649,0,0,1-14.046-1.756l-.019,0a66.589,66.589,0,0,1-6.549-1.988c-2.729-1.025-4.744-2.178-4.741-3.369a1.212,1.212,0,0,1,.014-.167c2.032-11.926,7.921-21.655,10-46.784.137-1.883,8.742-24,14.791-31.133a10.047,10.047,0,0,1,1.85-1.737h0c.388-.251.684-.46.935-.648,1.244-.841,2-1.429,3.206-2.161,1.463-.815,3.5-1.9,5.514-2.866A47.8,47.8,0,0,1,513.627,163a7.582,7.582,0,0,0-1.546,1.542c-2.023.09-5.712,2.876-4.376,4.341,1.795,2.326,2.791,7.007,1.874,16.4-.891,9.122,2.718,19.542-1.3,28.685-2.6,5.912,5.765,13.3,12.47,18.877a101.407,101.407,0,0,0-.6,12.13h.027a26.992,26.992,0,0,0-1.37,3.871h0l-.091.042c-9.539-.37-29.618-10.492-34.23-10.492a1.3,1.3,0,0,0-.762.176c-18.368,13.722,10.591,17.659,17.6,19.061q-2.1.15-4.2.15h0m27.086-7.195a5.056,5.056,0,0,0-.5-.25,10.4,10.4,0,0,1-2.893-1.984,3.039,3.039,0,0,1-.684-3.279h.027q.291-5.883,1.018-11.72c3.879,3.216,7.086,5.781,7.069,7.029-.022,1.921,1.137,6.549-4.035,10.2h0m-7.7-69.8s-1.741-9.3-4.993-11.745c-.708-.582-1.685-2.694.248-3.764-.464.956-.372,2.043,1.113,3.117,3.753,2.723,3.632,12.393,3.632,12.393h0m0,0s1.66-1.411,3.778-3.088h0c1.336-1.052,2.859-2.208,4.27-3.176a13.349,13.349,0,0,0,2.68.62c-3.615,1.241-10.727,5.643-10.727,5.643" transform="translate(-20.627 -6.984)" fill="#f4b034"/>
    <path id="Path_4498" data-name="Path 4498" d="M536.276,177.164a13.346,13.346,0,0,1-2.68-.62c.321-.22.636-.431.942-.628a11.251,11.251,0,0,1,1.541.278,6.057,6.057,0,0,0,1.659.647h-.013a4.9,4.9,0,0,0-1.45.323" transform="translate(-29.674 -8.871)" fill="#f4b034"/>
    <path id="Path_4499" data-name="Path 4499" d="M538.907,174.087l-.04-.069a.071.071,0,0,1,.035.022l.005.047" transform="translate(-30.444 -8.594)" fill="#f48d2e"/>
    <path id="Path_4500" data-name="Path 4500" d="M538.76,176.937a6.369,6.369,0,0,0-2.431-1.16c-.325-.172-.671-.374-1.031-.6a8.81,8.81,0,0,1,2.549-1.191l.177,0a1.164,1.164,0,0,1,.323.028l.04.069,0,.015a5.485,5.485,0,0,0,.372,2.841" transform="translate(-29.922 -8.589)" fill="#f19a19"/>
    <path id="Path_4501" data-name="Path 4501" d="M536.241,175.982a11.251,11.251,0,0,0-1.541-.278q.231-.147.453-.286h0l.057-.035c.36.225.706.427,1.031.6" transform="translate(-29.835 -8.793)" fill="#ed8910"/>
    <path id="Path_4502" data-name="Path 4502" d="M535.691,171.894c-.518-.187-1.684.342-3.1,1.213a67.888,67.888,0,0,0-5.665,4.09c-2.118,1.676-3.778,3.088-3.778,3.088s.12-9.669-3.633-12.393c-3.705-2.68,1.263-5.447,1.9-6.02a9.518,9.518,0,0,1,1.732-1.268v-.012a6.715,6.715,0,0,1,3.055-1.014c1.2.11-.89.2-1.456,2.315.458,4.609,9.5,9.229,10.946,10" transform="translate(-27.418 -6.483)" fill="#f8c650"/>
    <path id="Path_4503" data-name="Path 4503" d="M549.774,181.693c-1.523-.979-3.229-5.634-4.352-5.634a.406.406,0,0,0-.245.084,4.5,4.5,0,0,1,2.106-2.876c.5-.238.538-.322.336-.322a2.043,2.043,0,0,0-.279.026,3.936,3.936,0,0,1,2.332-.838,3.491,3.491,0,0,1,1.634.419c-.169,1.374-.894,6.152-1.532,9.14m-4.641-5.515,0-.009v.008l0,0" transform="translate(-31.36 -8.318)" fill="#f4ae32"/>
    <path id="Path_4504" data-name="Path 4504" d="M545.126,176.492l.008-.172c.014-.012.028-.023.042-.033-.035.13-.049.206-.049.206m.009-.18.121-2.622.112-.137c.338-.087,1.391-.354,1.971-.438a6.2,6.2,0,0,0-2.2,3.2" transform="translate(-31.359 -8.462)" fill="#f19a19"/>
    <path id="Path_4505" data-name="Path 4505" d="M545.135,176.315v-.008a6.2,6.2,0,0,1,2.2-3.2,2.038,2.038,0,0,1,.279-.026c.2,0,.166.084-.336.322a4.5,4.5,0,0,0-2.106,2.876c-.014.01-.028.021-.042.033" transform="translate(-31.36 -8.457)" fill="#ed8710"/>
    <path id="Path_4506" data-name="Path 4506" d="M545.34,173.024s.956-.467,2.191,3.229,2.225,4.527,2.225,4.527.248-6.557,1.072-7.433S550,169.3,550,169.3Z" transform="translate(-31.39 -7.904)" fill="#f8c650"/>
    <path id="Path_4507" data-name="Path 4507" d="M557.2,142.132a6.246,6.246,0,0,0-.538,3.023c.247,3.508-1.133,6.921-3.43,10.862-6.258,10.737-6.733,9.291-12.279,8.028a17.612,17.612,0,0,1-8.939-5.126c-3.325-3.548-6.256-8.518-8.711-15.7a10.519,10.519,0,0,1,.541-8.18c6.367-12.445,18.339-7.34,29.013-4.979,8.04,1.778,6.116,8.167,4.344,12.07Z" transform="translate(-28.085 -1.724)" fill="#fcc7a9"/>
    <path id="Path_4508" data-name="Path 4508" d="M558.124,137.375s-8.641-4.031-7.07-7.552c.514-1.153-1.866-1.758-3.127-1.809-7.469-.308-12.747,3.049-14.286,7.478a8.3,8.3,0,0,0-.457,2.827c.108,7.169-4.535,3.7-5.678,6.412-.625,1.467-1.66,1.792-1.852,3.512-2.524-3.839-3.784-11.517-4.82-16.852.107-5.285,2.306-9.2,8.609-12.209,10.537-5.04,19.57-.963,24.225,3.777l.013.024C564.271,125.518,566.445,132.552,558.124,137.375Z" transform="translate(-27.809 -0.243)" fill="#3b5765"/>
    <path id="Path_4509" data-name="Path 4509" d="M527.618,145.119c-.624,1.477-.138,4.711-.333,6.434-4.82-7.334-10.948-25.659,2.266-31.981Z" transform="translate(-27.918 -0.639)" fill="#3b5765"/>
    <path id="Path_4510" data-name="Path 4510" d="M530.5,147.343c-1.3,2.352.614,5.48-.956,6.072s-3.688-1.166-4.73-3.927-1.886-5,.956-6.072C529.4,142.048,531.924,144.759,530.5,147.343Z" transform="translate(-28.248 -4.069)" fill="#fcc7a9"/>
    <path id="Path_4511" data-name="Path 4511" d="M498.935,217.5l7.886-22.407c8.071-16.473,3.071-23.555,2.224-24.507-1.065-1.195-4.047-1.477-5.4-1.142-6.324,1.57-13.906,9.6-21.519,30.849-.12.335-5.852,18.062-6.008,18.614-.064.255,15.28-2.71,22.819-1.408Z" transform="translate(-21.276 -7.907)" fill="#f8c650"/>
    <path id="Path_4512" data-name="Path 4512" d="M529.553,236.973l-.469-.389q.2-1.721.458-3.434a53.38,53.38,0,0,1,4.173-15,45.144,45.144,0,0,0,4.776-14.7A126.2,126.2,0,0,0,540.127,188h.055c.15,10.352-1.524,20.947-6.195,30.274a61.11,61.11,0,0,0-3.918,14.957q-.281,1.867-.516,3.743" transform="translate(-29.015 -10.636)" fill="#f3a82a"/>
    <path id="Path_4513" data-name="Path 4513" d="M528.431,256.929h-.055a101.2,101.2,0,0,1,.6-12.107l.469.389q-.729,5.832-1.018,11.72" transform="translate(-28.91 -18.939)" fill="#ef951b"/>
    <path id="Path_4514" data-name="Path 4514" d="M528.091,178.395a1.1,1.1,0,0,1,0-.353c.358-3.258-4.2-10.28-2.613-10.28a1.21,1.21,0,0,1,.447.114c1.652,3.249,6.146,5.27,7.83,6.428q-.222.138-.453.286c-.306.2-.621.408-.942.628-1.411.967-2.935,2.124-4.27,3.176h0" transform="translate(-28.439 -7.68)" fill="#f7c048"/>
    <path id="Path_4515" data-name="Path 4515" d="M561.373,259.456a2.532,2.532,0,0,0-1.615.043L526.81,271.58c-.2-.167-.56-.453-.622-.353a2.687,2.687,0,0,0-.188,1v.041h.009a.491.491,0,0,0,.322.442l33.189,12.317a1.384,1.384,0,0,0,1.032-.027L594.8,269.76l-33.428-10.3" transform="translate(-28.564 -21.061)" fill="#3b5765"/>
    <path id="Path_4516" data-name="Path 4516" d="M560.361,284.081l34.823-15.064-34-10.481a2.526,2.526,0,0,0-1.615.043l-33.426,12.256a.51.51,0,0,0,0,.956l33.189,12.317a1.386,1.386,0,0,0,1.033-.027" transform="translate(-28.536 -20.926)" fill="#abe3ef"/>
    <path id="Path_4517" data-name="Path 4517" d="M615.006,228.919c-.874-.99-1.118-.89-1.566-.745l-34.991,11.582a2.525,2.525,0,0,0-1.612,1.628L564.8,278.991a.7.7,0,0,0,.956.857l35.18-15.618a2.526,2.526,0,0,0,1.354-1.459l11.943-33.45a1.691,1.691,0,0,0,.768-.4" transform="translate(-34.229 -16.493)" fill="#3b5765"/>
    <path id="Path_4518" data-name="Path 4518" d="M559.225,284.07l-33.086-12.279a.51.51,0,0,1,0-.956l33.426-12.256a2.53,2.53,0,0,1,1.615-.043l5.364,1.653-1.673,5.228-24.889,9.126a.461.461,0,0,0,0,.866l19.441,7.043-.311.972a.692.692,0,0,0,.114.646m-5.319-20.677-.481.005-9.521,3.491v.272l6.46,2.341.32,0,9.858-3.453a.2.2,0,0,0,0-.377l-6.635-2.281" transform="translate(-28.536 -20.926)" fill="#73cae0"/>
    <path id="Path_4519" data-name="Path 4519" d="M565.794,284.5a1.382,1.382,0,0,1-.482-.086l-.1-.038h0a.692.692,0,0,1-.114-.646l.311-.972.87.315-.377,1.182a.716.716,0,0,0-.035.219v.024c-.022,0-.045,0-.068,0m4.814-18.777,1.673-5.228.884.272-1.457,4.553-1.1.4" transform="translate(-34.271 -21.228)" fill="#284d5f"/>
    <path id="Path_4520" data-name="Path 4520" d="M561.8,283.649l-19.441-7.043a.461.461,0,0,1,0-.866l24.889-9.126L561.8,283.649" transform="translate(-30.91 -22.123)" fill="#4db4d2"/>
    <path id="Path_4521" data-name="Path 4521" d="M566.043,283.9l-.87-.315,5.451-17.035,1.1-.4-5,15.626h0l-.681,2.127" transform="translate(-34.288 -22.054)" fill="#1b4559"/>
    <path id="Path_4522" data-name="Path 4522" d="M553.78,270.353l-.32,0L547,268.011v-.272l9.522-3.491.48,0,6.636,2.281a.2.2,0,0,1,0,.376l-9.858,3.453" transform="translate(-31.632 -21.776)" fill="#4db4d2"/>
    <path id="Path_4523" data-name="Path 4523" d="M566.7,280.473l35.18-15.617a2.53,2.53,0,0,0,1.354-1.46l12.03-33.692a.7.7,0,0,0-.884-.905L579.39,240.381a2.525,2.525,0,0,0-1.612,1.628l-12.033,37.606a.7.7,0,0,0,.956.857" transform="translate(-34.366 -16.592)" fill="#abe3ef"/>
    <path id="Path_4524" data-name="Path 4524" d="M593.533,261.2c-.183,0-.368-.006-.555-.016-2.608-.15-4.661-1.316-4.587-2.6.067-1.166,1.863-2.024,4.138-2.064a8.822,8.822,0,0,1,1.124-1.685,5.994,5.994,0,0,1,3.915-2.409,1.383,1.383,0,0,1,.92.3c.985.833.418,3.124-1.268,5.12l-.024.025a1.616,1.616,0,0,1,.639,1.255c-.069,1.195-1.947,2.075-4.3,2.075" transform="translate(-37.679 -20.049)" fill="#c9f1f7"/>
    <path id="Path_4525" data-name="Path 4525" d="M598.261,274.6h0l8.375-3.718a2.524,2.524,0,0,0,1.064-.889,2.525,2.525,0,0,1-1.064.889l-8.375,3.718" transform="translate(-39.122 -22.616)" fill="#d9f2f8"/>
    <path id="Path_4526" data-name="Path 4526" d="M579.512,282.493h0l16.01-7.107h0l-16.01,7.107" transform="translate(-36.383 -23.404)" fill="#c98b5a"/>
    <path id="Path_4527" data-name="Path 4527" d="M575.71,285.15h0l3.246-1.441h0l-3.246,1.441" transform="translate(-35.827 -24.62)" fill="#c37343"/>
    <path id="Path_4528" data-name="Path 4528" d="M566.488,288.81a.682.682,0,0,1-.256-.05h0a.681.681,0,0,0,.256.05.709.709,0,0,0,.288-.062l7.549-3.351h0l-7.549,3.351a.709.709,0,0,1-.288.062" transform="translate(-34.442 -24.867)" fill="#c98b5a"/>
    <path id="Path_4529" data-name="Path 4529" d="M565.964,288.7v-.34h0m-.213-.243.377-1.182h0l-.377,1.182" transform="translate(-34.372 -25.091)" fill="#22495c"/>
    <path id="Path_4530" data-name="Path 4530" d="M566.192,286.569h0l.681-2.127-.681,2.127" transform="translate(-34.436 -24.728)" fill="#174156"/>
    <path id="Path_4531" data-name="Path 4531" d="M621.845,229.049h0l.737-.244-.737.244" transform="translate(-42.568 -16.599)" fill="#325262"/>
    <path id="Path_4532" data-name="Path 4532" d="M566.7,280.535a.682.682,0,0,1-.256-.05.711.711,0,0,1-.447-.627v-.024a.715.715,0,0,1,.035-.219h0l.377-1.182.681-2.127,17.945-8.655A41.291,41.291,0,0,0,603.6,249.761c5.023-9.5,10.306-20.588,10.306-20.588l.025-.13.737-.244a.7.7,0,0,1,.884.905h0L603.524,263.4a2.521,2.521,0,0,1-1.353,1.46l-8.375,3.718-16.01,7.107-3.247,1.441-7.549,3.351a.708.708,0,0,1-.288.062" transform="translate(-34.408 -16.592)" fill="#92d8e8"/>
    <path id="Path_4533" data-name="Path 4533" d="M521.8,247.571s10.625,7.148,12.471,7.631a60.946,60.946,0,0,0,8.251.839c1.7.089,6.827,5.578,7.686,8.3s.878,5.7.049,6.687-5.71.525-9.353-.907-5.1-5.709-6.378-6.237-18.8-8.857-18.8-8.857l6.076-7.454Z" transform="translate(-27.063 -19.34)" fill="#fcc7a9"/>
    <path id="Path_4534" data-name="Path 4534" d="M498.773,227.554l.547-3.252c-6.75,3.344-17.535-6.2-22.987,2.006a10.9,10.9,0,0,0,0,4.239,15.332,15.332,0,0,0,3.942,7.184,19.613,19.613,0,0,0,4.661,2.97c7.652,6.378,20.431,12.506,37.233,18.439,2.867,1.191,7.548-8.979,6.715-10.006l-30.111-21.579Z" transform="translate(-21.277 -15.733)" fill="#f8c650"/>
    <path id="Path_4535" data-name="Path 4535" d="M546.682,257.983c1.095.232,2.275.427,3.391.551.557.056,1.117.1,1.625.1.462.035,1.069-.139.9-.023a1.553,1.553,0,1,1,1.869,2.48,5.206,5.206,0,0,1-2.588.815,19.644,19.644,0,0,1-2,.07c-1.3-.022-2.529-.107-3.825-.254a1.9,1.9,0,0,1,.431-3.772l.2.033Z" transform="translate(-31.248 -20.855)" fill="#fcc7a9"/>
  </g>
</svg>
