<svg xmlns="http://www.w3.org/2000/svg" width="552" height="545.983" viewBox="0 0 552 545.983">
  <g id="books1" transform="translate(-0.022 0.001)">
    <g id="Background_Complete" data-name="Background Complete" transform="translate(60.019 29.235)">
      <path id="Path_9700" data-name="Path 9700" d="M379.685,517.826c-28.56-19.957-35.044-56.99-33.907-90.278.181-5.567-.426-11.419,2.209-16.3s8.822-8.2,13.8-5.864c4.121,1.95,5.929,6.743,8.228,10.721a32.551,32.551,0,0,0,13.033,12.439c3.539,1.834,7.918,2.958,11.419,1.033,4.792-2.648,5.361-9.262,5.322-14.79l-.194-30.911c0-5.516,0-11.16,1.666-16.418s5.516-10.114,10.773-11.625,11.768,1.563,12.917,6.975c.465,2.248,0,4.586.155,6.872s1.227,4.844,3.4,5.477,4.418-.917,6.071-2.583c5.709-5.58,9.584-12.775,13.2-19.918s7.13-14.48,12.3-20.564,12.336-10.9,20.254-11.354,16.353,4.431,18.355,12.207-2.583,15.694-7.492,21.959a123.13,123.13,0,0,1-25.692,24.478c-1.731,1.292-3.63,2.583-4.289,4.624-1.2,3.681,2.286,7.337,5.929,8.551,4.121,1.382,8.59.943,12.917,1.46s9.042,2.4,10.618,6.459c2.261,5.658-2.467,11.625-7.117,15.5a105.174,105.174,0,0,1-31.272,18.084c-4.069,1.485-8.344,2.8-11.625,5.658s-5.335,7.957-3.358,11.832,7.066,5.167,11.328,4.353,8.073-3.1,12.129-4.637c7.6-2.868,17.4-2.338,22.269,4.224,3.2,4.314,3.475,10.334,1.86,15.5s-4.9,9.584-8.37,13.666c-12.181,14.286-27.759,25.834-45.391,31.892s-33.946,7.75-51.449,1.356" transform="translate(-7.155 -6.776)" fill="#a8a8a8"/>
      <path id="Path_9701" data-name="Path 9701" d="M378.64,495.881a496.45,496.45,0,0,1,19.66-53.322q2.984-6.936,5.877-13.7c1.938-4.5,3.875-8.964,6.006-13.2a244.979,244.979,0,0,1,13.744-23.69c4.728-7.324,9.494-14.093,13.989-20.4s8.835-12.09,12.995-17.193a195.048,195.048,0,0,1,21.4-22.631c2.725-2.467,4.9-4.3,6.394-5.529l1.7-1.4a4.527,4.527,0,0,1,.607-.439,4.776,4.776,0,0,1-.543.53l-1.64,1.46c-1.447,1.292-3.578,3.165-6.265,5.671a207.124,207.124,0,0,0-21.132,22.85c-4.121,5.167-8.4,10.928-12.917,17.231s-9.2,13.111-13.9,20.422a249.305,249.305,0,0,0-13.641,23.625c-2.131,4.224-4.03,8.642-5.968,13.15s-3.875,9.042-5.864,13.718a509.811,509.811,0,0,0-19.7,53.18" transform="translate(2.467 -5.705)" fill="#8a9094"/>
      <path id="Path_9702" data-name="Path 9702" d="M405.1,408.722a11.376,11.376,0,0,1-.542-2.364c-.284-1.524-.633-3.746-1.021-6.459-.788-5.5-1.6-13.15-2.48-21.572s-1.8-16.03-2.661-21.507c-.413-2.738-.788-4.947-1.059-6.459a12.058,12.058,0,0,1-.31-2.4,9.932,9.932,0,0,1,.7,2.312c.388,1.511.866,3.707,1.382,6.459,1.046,5.464,2.093,13.085,2.971,21.52s1.589,15.836,2.17,21.585c.284,2.583.517,4.779.71,6.536a10.628,10.628,0,0,1,.142,2.351Z" transform="translate(7.831 1.174)" fill="#8a9094"/>
      <path id="Path_9703" data-name="Path 9703" d="M474.359,384.758a17.047,17.047,0,0,1-2.842.336c-1.821.155-4.456.375-7.75.762-6.458.7-15.5,1.989-25.292,3.875s-18.627,3.94-24.956,5.619c-3.178.814-5.722,1.55-7.492,2.041a15.649,15.649,0,0,1-2.777.685A13.832,13.832,0,0,1,405.911,397c1.731-.607,4.25-1.447,7.414-2.364,6.3-1.86,15.126-4.043,24.969-5.929a251.66,251.66,0,0,1,25.447-3.6c3.268-.284,5.916-.4,7.75-.439A14.553,14.553,0,0,1,474.359,384.758Z" transform="translate(9.646 11.872)" fill="#8a9094"/>
      <path id="Path_9704" data-name="Path 9704" d="M387.4,476.644a3.206,3.206,0,0,1-.491-.865c-.323-.7-.723-1.55-1.214-2.583-1.046-2.235-2.48-5.516-4.185-9.585-3.423-8.138-7.815-19.531-12.478-32.177s-8.939-24.065-12.194-32.293c-1.589-3.978-2.906-7.259-3.875-9.7-.426-1.059-.762-1.925-1.046-2.648a3.1,3.1,0,0,1-.3-.943,4.4,4.4,0,0,1,.491.865c.323.7.723,1.537,1.214,2.583,1.046,2.235,2.467,5.516,4.185,9.585,3.423,8.138,7.75,19.531,12.478,32.177s8.939,24.065,12.181,32.293c1.6,3.978,2.906,7.259,3.875,9.688.413,1.059.762,1.938,1.046,2.583A4.7,4.7,0,0,1,387.4,476.644Z" transform="translate(-5.415 12.227)" fill="#8a9094"/>
      <path id="Path_9705" data-name="Path 9705" d="M473.744,432.58a3.394,3.394,0,0,1-.93.388l-2.751.917-10.1,3.281c-8.538,2.764-20.293,6.73-33.275,11.122s-24.775,8.241-33.365,10.837c-4.3,1.292-7.75,2.312-10.217,2.971l-2.79.736a3.437,3.437,0,0,1-.995.181,3.4,3.4,0,0,1,.93-.388l2.751-.917,10.1-3.281c8.538-2.764,20.293-6.73,33.274-11.122s24.762-8.241,33.365-10.837c4.3-1.292,7.75-2.312,10.217-2.971l2.79-.736a3.373,3.373,0,0,1,.995-.181Z" transform="translate(2.665 25.858)" fill="#8a9094"/>
      <path id="Path_9706" data-name="Path 9706" d="M87.57,141.261l.142,2.777s14.764-6.2,23.612-1.666h0a1.937,1.937,0,0,0,1.511.995l3.668.323a1.912,1.912,0,0,0,1.873-1.111h0a21.223,21.223,0,0,1,17.748.633l3.423,1.55-6.691-35.225L90.709,101.45Z" transform="translate(-82.442 -70.736)" fill="#e8505b"/>
      <path id="Path_9707" data-name="Path 9707" d="M85.74,133.48l.142,5s14.609-8.732,29.257.284l-3.72-24.013S86.851,128.391,85.74,133.48Z" transform="translate(-82.976 -66.857)" fill="#ebebeb"/>
      <path id="Path_9708" data-name="Path 9708" d="M83.6,102.295s17.541-13.473,30.794,5.348l1.369,36.168s-16.03-16.276-31-4.211Z" transform="translate(-83.6 -71.852)" fill="#f5f5f5"/>
      <path id="Path_9709" data-name="Path 9709" d="M108.8,141.213s15.113-9.636,26.041.568l-3.152-32.965L107.48,106.35Z" transform="translate(-76.634 -69.307)" fill="#ebebeb"/>
      <path id="Path_9710" data-name="Path 9710" d="M107.42,107.8s5.167-11.625,16.3-10.54l7.092.969,3.8,33.132s-17.373-2-25.834,12.555Z" transform="translate(-76.651 -71.981)" fill="#f5f5f5"/>
      <path id="Path_9711" data-name="Path 9711" d="M108.88,141.476a7.132,7.132,0,0,1-.155-1.421c0-1.02-.129-2.312-.207-3.875-.155-3.384-.349-7.75-.555-12.71l-.555-12.723c0-1.537-.116-2.829-.168-3.875a6.033,6.033,0,0,1,0-1.421,6.457,6.457,0,0,1,.22,1.4c.1.9.22,2.222.349,3.875.258,3.255.517,7.75.723,12.723s.336,9.468.387,12.723v3.875a6.86,6.86,0,0,1-.039,1.434Z" transform="translate(-76.716 -69.569)" fill="#263238"/>
      <path id="Path_9712" data-name="Path 9712" d="M126.568,102.318c0,.1-1.124-.1-2.932,0a18.471,18.471,0,0,0-12.581,5.309c-1.292,1.292-1.9,2.222-1.989,2.157s.09-.271.362-.71a11.367,11.367,0,0,1,1.292-1.731,16.908,16.908,0,0,1,12.917-5.451,12.26,12.26,0,0,1,2.157.258C126.31,102.2,126.581,102.279,126.568,102.318Z" transform="translate(-76.178 -70.61)" fill="#263238"/>
      <path id="Path_9713" data-name="Path 9713" d="M127.286,105.239c0,.1-1.137-.1-2.932-.077a18.574,18.574,0,0,0-6.807,1.46,18.808,18.808,0,0,0-5.787,3.875c-1.292,1.292-1.9,2.209-1.989,2.157a2.415,2.415,0,0,1,.375-.71,11.351,11.351,0,0,1,1.292-1.731,16.909,16.909,0,0,1,12.917-5.451,11.289,11.289,0,0,1,2.17.258,2.067,2.067,0,0,1,.762.22Z" transform="translate(-75.966 -69.772)" fill="#263238"/>
      <path id="Path_9714" data-name="Path 9714" d="M127.458,108.4c0,.1-1.137-.1-2.932,0a18.342,18.342,0,0,0-12.581,5.322c-1.292,1.292-1.9,2.209-1.989,2.144s.09-.271.362-.71a12.021,12.021,0,0,1,1.292-1.731,16.96,16.96,0,0,1,12.917-5.451,12.257,12.257,0,0,1,2.157.258C127.2,108.281,127.471,108.359,127.458,108.4Z" transform="translate(-75.919 -68.836)" fill="#263238"/>
      <path id="Path_9715" data-name="Path 9715" d="M128.058,111.357c0,.1-1.124-.1-2.919-.078a18.743,18.743,0,0,0-6.807,1.447,19.039,19.039,0,0,0-5.787,3.875c-1.292,1.292-1.9,2.209-1.989,2.157s.1-.284.362-.71a10.772,10.772,0,0,1,1.292-1.731,16.689,16.689,0,0,1,5.851-4.133,16.9,16.9,0,0,1,7.04-1.292,11.007,11.007,0,0,1,2.157.258C127.8,111.228,128.071,111.318,128.058,111.357Z" transform="translate(-75.743 -67.985)" fill="#263238"/>
      <path id="Path_9716" data-name="Path 9716" d="M128.756,114.448c0,.1-1.137-.1-2.932,0a18.394,18.394,0,0,0-12.594,5.322c-1.292,1.292-1.9,2.209-1.989,2.144a2.415,2.415,0,0,1,.375-.71,12.024,12.024,0,0,1,1.292-1.731,16.909,16.909,0,0,1,12.917-5.451,12.1,12.1,0,0,1,2.157.258A2.441,2.441,0,0,1,128.756,114.448Z" transform="translate(-75.537 -67.071)" fill="#263238"/>
      <path id="Path_9717" data-name="Path 9717" d="M130.061,117.927c0,.1-1.292-.129-3.191,0a21.055,21.055,0,0,0-3.4.388,23.38,23.38,0,0,0-7.75,3,19.269,19.269,0,0,0-2.751,2.041c-1.46,1.292-2.131,2.338-2.222,2.273a3.1,3.1,0,0,1,.413-.762,5.49,5.49,0,0,1,.607-.814,8.963,8.963,0,0,1,.917-.995,16.365,16.365,0,0,1,2.738-2.2,22.784,22.784,0,0,1,3.875-1.938,24.544,24.544,0,0,1,4.146-1.15,19.712,19.712,0,0,1,3.5-.271,10.154,10.154,0,0,1,1.292.09,6.084,6.084,0,0,1,1.008.142C129.777,117.8,130.074,117.888,130.061,117.927Z" transform="translate(-75.68 -66.055)" fill="#263238"/>
      <path id="Path_9718" data-name="Path 9718" d="M130.184,120.714c0,.116-1.292-.129-3.191,0a21.96,21.96,0,0,0-3.41.465,28.751,28.751,0,0,0-4,1.292,27.929,27.929,0,0,0-3.733,1.963,22.634,22.634,0,0,0-2.713,2.118c-1.447,1.292-2.118,2.364-2.209,2.312s.116-.3.413-.775a6.276,6.276,0,0,1,.607-.827,10.046,10.046,0,0,1,.9-1.008,18.086,18.086,0,0,1,2.7-2.261,22.244,22.244,0,0,1,7.918-3.358,18.408,18.408,0,0,1,3.513-.362,10.854,10.854,0,0,1,1.356,0,6.084,6.084,0,0,1,1.008.142A3.623,3.623,0,0,1,130.184,120.714Z" transform="translate(-75.635 -65.251)" fill="#263238"/>
      <path id="Path_9719" data-name="Path 9719" d="M109.13,127.668c-.078,0-.827-.969-2.39-2.26a16.521,16.521,0,0,0-14.751-3.4c-1.963.491-3.087,1.085-3.139.982a2.842,2.842,0,0,1,.762-.478,12.451,12.451,0,0,1,2.273-.9,15.785,15.785,0,0,1,8.022-.271,15.966,15.966,0,0,1,7.117,3.746,13.819,13.819,0,0,1,1.64,1.808C109.014,127.358,109.169,127.642,109.13,127.668Z" transform="translate(-82.068 -65.049)" fill="#263238"/>
      <path id="Path_9720" data-name="Path 9720" d="M108.91,124.079c-.078,0-.827-.969-2.39-2.26a16.521,16.521,0,0,0-14.751-3.4c-1.963.491-3.1,1.085-3.139.982a2.842,2.842,0,0,1,.762-.478,12.647,12.647,0,0,1,2.261-.9A15.694,15.694,0,0,1,106.8,121.5a13.821,13.821,0,0,1,1.679,1.86C108.794,123.769,108.949,124.053,108.91,124.079Z" transform="translate(-82.133 -66.097)" fill="#263238"/>
      <path id="Path_9721" data-name="Path 9721" d="M108.69,120.521c-.078,0-.84-.969-2.39-2.26a16.521,16.521,0,0,0-14.751-3.4c-1.963.491-3.1,1.085-3.139.982a2.842,2.842,0,0,1,.762-.491,12.646,12.646,0,0,1,2.26-.9,15.694,15.694,0,0,1,15.152,3.488,13.823,13.823,0,0,1,1.64,1.808A2.4,2.4,0,0,1,108.69,120.521Z" transform="translate(-82.197 -67.138)" fill="#263238"/>
      <path id="Path_9722" data-name="Path 9722" d="M108.47,116.9c-.077.065-.84-.969-2.39-2.26a16.521,16.521,0,0,0-14.751-3.4c-1.963.491-3.1,1.085-3.139.982a2.88,2.88,0,0,1,.749-.478,13.282,13.282,0,0,1,2.273-.9,15.656,15.656,0,0,1,15.139,3.475A13.189,13.189,0,0,1,108,116.124C108.354,116.589,108.509,116.874,108.47,116.9Z" transform="translate(-82.261 -68.192)" fill="#263238"/>
      <path id="Path_9723" data-name="Path 9723" d="M108.25,113.307c-.077,0-.84-.969-2.39-2.26a16.521,16.521,0,0,0-14.751-3.4c-1.963.491-3.1,1.085-3.139.982a2.881,2.881,0,0,1,.749-.478,13.278,13.278,0,0,1,2.273-.9,15.656,15.656,0,0,1,15.1,3.475,13.187,13.187,0,0,1,1.653,1.808,2.584,2.584,0,0,1,.5.775Z" transform="translate(-82.325 -69.237)" fill="#263238"/>
      <path id="Path_9724" data-name="Path 9724" d="M108.031,109.719c-.077,0-.84-.969-2.39-2.26a16.521,16.521,0,0,0-14.751-3.4c-1.963.491-3.1,1.085-3.139.982s.245-.207.749-.478a12.917,12.917,0,0,1,2.273-.9,15.656,15.656,0,0,1,15.139,3.475,14.094,14.094,0,0,1,1.653,1.808A2.583,2.583,0,0,1,108.031,109.719Z" transform="translate(-82.39 -70.287)" fill="#263238"/>
      <path id="Path_9725" data-name="Path 9725" d="M437.333,128.01l.077,3.255s-17.8-5.929-27.733.155h0A2.286,2.286,0,0,1,408,132.712l-4.25.71a2.248,2.248,0,0,1-2.286-1.137h0A24.9,24.9,0,0,0,380.8,134.6l-3.875,2.118L381.6,94.981l48.581-13.2Z" transform="translate(1.965 -76.474)" fill="#e8505b"/>
      <path id="Path_9726" data-name="Path 9726" d="M433.212,118.314l.284,5.851s-17.851-8.9-34.166,2.932l2.209-28.418S431.455,112.463,433.212,118.314Z" transform="translate(8.502 -71.544)" fill="#e0e0e0"/>
      <path id="Path_9727" data-name="Path 9727" d="M433.576,81.971s-21.688-14.209-35.5,9.042l1.615,42.316s17.283-20.448,35.884-7.673Z" transform="translate(8.138 -77.673)" fill="#f5f5f5"/>
      <path id="Path_9728" data-name="Path 9728" d="M406.191,129.892s-18.51-9.92-30.381,3l.749-38.751L404.628,89.1Z" transform="translate(1.641 -74.339)" fill="#e0e0e0"/>
      <path id="Path_9729" data-name="Path 9729" d="M405.825,90.142a26.041,26.041,0,0,0-22.579-9.365l-9.688,1.382-1.938,38.984s24.659-5,35.819,11.264Z" transform="translate(0.419 -76.802)" fill="#f5f5f5"/>
      <path id="Path_9730" data-name="Path 9730" d="M399.68,130.2a7.222,7.222,0,0,0,0-1.653c0-1.214,0-2.726-.09-4.534-.129-3.953-.3-9.158-.491-14.906s-.362-10.941-.491-14.906c0-1.8-.1-3.307-.142-4.521a8.438,8.438,0,0,0-.129-1.653,6.76,6.76,0,0,0-.142,1.653c0,1.072-.065,2.583-.065,4.521,0,3.875.077,9.042.284,14.932s.452,11.1.685,14.906c.116,1.912.22,3.449.31,4.508a7.956,7.956,0,0,0,.271,1.653Z" transform="translate(8.152 -74.651)" fill="#263238"/>
      <path id="Path_9731" data-name="Path 9731" d="M380.07,85.774c0,.116,1.292-.22,3.41-.349a21.688,21.688,0,0,1,15.19,5.167c1.6,1.369,2.415,2.415,2.519,2.338s-.142-.31-.491-.8a14.76,14.76,0,0,0-1.705-1.938,19.737,19.737,0,0,0-15.5-5.167,12.193,12.193,0,0,0-2.493.491C380.367,85.606,380.057,85.722,380.07,85.774Z" transform="translate(2.884 -75.56)" fill="#263238"/>
      <path id="Path_9732" data-name="Path 9732" d="M379.49,89.185c0,.116,1.292-.22,3.423-.349A21.688,21.688,0,0,1,398.091,94c1.6,1.369,2.415,2.416,2.519,2.338s-.142-.31-.491-.8a13.826,13.826,0,0,0-1.705-1.9,19.725,19.725,0,0,0-15.5-5.167,12.363,12.363,0,0,0-2.506.491A4.706,4.706,0,0,0,379.49,89.185Z" transform="translate(2.715 -74.553)" fill="#263238"/>
      <path id="Path_9733" data-name="Path 9733" d="M379.57,92.96c0,.129,1.292-.22,3.423-.336a21.519,21.519,0,0,1,8.073,1.085,21.959,21.959,0,0,1,7.1,4c1.6,1.369,2.416,2.416,2.519,2.338s-.142-.31-.491-.8a13.83,13.83,0,0,0-1.705-1.9,19.725,19.725,0,0,0-15.5-5.167,13.33,13.33,0,0,0-2.506.491,2.868,2.868,0,0,0-.917.284Z" transform="translate(2.738 -73.471)" fill="#263238"/>
      <path id="Path_9734" data-name="Path 9734" d="M379.13,96.445c0,.116,1.292-.22,3.41-.349a21.688,21.688,0,0,1,15.19,5.167c1.6,1.369,2.416,2.415,2.583,2.338s-.142-.31-.491-.8a13.932,13.932,0,0,0-1.705-1.9,19.737,19.737,0,0,0-15.5-5.167,12.192,12.192,0,0,0-2.493.491C379.427,96.277,379.117,96.393,379.13,96.445Z" transform="translate(2.61 -72.435)" fill="#263238"/>
      <path id="Path_9735" data-name="Path 9735" d="M378.6,100.214c0,.116,1.292-.22,3.41-.349A21.688,21.688,0,0,1,397.2,104.9c1.6,1.369,2.416,2.415,2.506,2.338s-.129-.31-.491-.8a12.909,12.909,0,0,0-1.692-1.9,19.737,19.737,0,0,0-15.5-5.167,12.542,12.542,0,0,0-2.506.491C378.9,99.982,378.587,100.1,378.6,100.214Z" transform="translate(2.455 -71.373)" fill="#263238"/>
      <path id="Path_9736" data-name="Path 9736" d="M377.85,104.3c0,.129,1.421-.245,3.72-.349a26.182,26.182,0,0,1,4.017.155,31.263,31.263,0,0,1,4.805.995,30.658,30.658,0,0,1,4.573,1.821,22.9,22.9,0,0,1,3.4,2.131c1.808,1.4,2.687,2.583,2.79,2.467s-.155-.323-.555-.853a7.128,7.128,0,0,0-.775-.9,10.773,10.773,0,0,0-1.162-1.085,20.085,20.085,0,0,0-3.4-2.325,26.6,26.6,0,0,0-4.663-1.912,28.755,28.755,0,0,0-4.947-.969,21.854,21.854,0,0,0-4.121,0,10.216,10.216,0,0,0-1.563.207,7.752,7.752,0,0,0-1.163.271A3.035,3.035,0,0,0,377.85,104.3Z" transform="translate(2.236 -70.175)" fill="#263238"/>
      <path id="Path_9737" data-name="Path 9737" d="M377.94,107.553c0,.116,1.434-.258,3.733-.31a24.3,24.3,0,0,1,4.03.245,32.539,32.539,0,0,1,4.792,1.163,31.46,31.46,0,0,1,4.534,1.976,25.215,25.215,0,0,1,3.358,2.222c1.808,1.434,2.687,2.583,2.79,2.506s-.155-.336-.555-.865a7.132,7.132,0,0,0-.775-.9,11.944,11.944,0,0,0-1.15-1.111,20.964,20.964,0,0,0-3.358-2.4,28.943,28.943,0,0,0-4.624-2.08,29.244,29.244,0,0,0-4.934-1.137,21.713,21.713,0,0,0-4.133-.1,10.718,10.718,0,0,0-1.576.194,7.026,7.026,0,0,0-1.175.258C378.263,107.385,377.927,107.5,377.94,107.553Z" transform="translate(2.262 -69.205)" fill="#263238"/>
      <path id="Path_9738" data-name="Path 9738" d="M403.3,113.974c.1,0,.891-1.2,2.583-2.855a19.376,19.376,0,0,1,16.934-5.283c2.338.4,3.707.995,3.759.878a3.011,3.011,0,0,0-.93-.5,14.852,14.852,0,0,0-2.738-.853,18.355,18.355,0,0,0-17.412,5.412,16.943,16.943,0,0,0-1.77,2.261A3.149,3.149,0,0,0,403.3,113.974Z" transform="translate(9.659 -69.723)" fill="#263238"/>
      <path id="Path_9739" data-name="Path 9739" d="M403.241,109.764c.1,0,.891-1.2,2.583-2.855a19.376,19.376,0,0,1,16.947-5.283c2.338.388,3.707.982,3.759.865a3.2,3.2,0,0,0-.93-.491,15.76,15.76,0,0,0-2.738-.865,18.433,18.433,0,0,0-17.386,5.425,16.112,16.112,0,0,0-1.757,2.26C403.358,109.389,403.2,109.738,403.241,109.764Z" transform="translate(9.642 -70.951)" fill="#263238"/>
      <path id="Path_9740" data-name="Path 9740" d="M403.181,105.543c.09,0,.891-1.2,2.583-2.855a19.376,19.376,0,0,1,16.947-5.283c2.338.4,3.707.995,3.746.878s-.3-.233-.917-.5a14.854,14.854,0,0,0-2.738-.853,18.329,18.329,0,0,0-17.386,5.425,14.348,14.348,0,0,0-1.757,2.26C403.3,105.182,403.143,105.518,403.181,105.543Z" transform="translate(9.624 -72.182)" fill="#263238"/>
      <path id="Path_9741" data-name="Path 9741" d="M403.11,101.33c.1,0,.9-1.2,2.583-2.855a19.376,19.376,0,0,1,16.96-5.27c2.338.388,3.707.982,3.746.878s-.3-.232-.93-.5a15,15,0,0,0-2.726-.853,18.355,18.355,0,0,0-17.386,5.412,14.977,14.977,0,0,0-1.757,2.26,3.192,3.192,0,0,0-.491.93Z" transform="translate(9.605 -73.407)" fill="#263238"/>
      <path id="Path_9742" data-name="Path 9742" d="M403.05,97.113c.1.077.891-1.2,2.583-2.855a19.376,19.376,0,0,1,16.934-5.283c2.338.4,3.72.995,3.759.878a3.009,3.009,0,0,0-.93-.5,17.387,17.387,0,0,0-2.725-.853,18.329,18.329,0,0,0-17.386,5.425,15.415,15.415,0,0,0-1.77,2.261A2.959,2.959,0,0,0,403.05,97.113Z" transform="translate(9.587 -74.641)" fill="#263238"/>
      <path id="Path_9743" data-name="Path 9743" d="M403,92.9c.1,0,.891-1.2,2.583-2.855a19.376,19.376,0,0,1,16.934-5.283c2.338.387,3.707.982,3.759.878a3.011,3.011,0,0,0-.93-.5,14.854,14.854,0,0,0-2.738-.853A18.355,18.355,0,0,0,405.235,89.7a16.144,16.144,0,0,0-1.77,2.261A3.672,3.672,0,0,0,403,92.9Z" transform="translate(9.573 -75.868)" fill="#263238"/>
    </g>
    <g id="Floor" transform="translate(1.505 545.31)">
      <path id="Path_9744" data-name="Path 9744" d="M575.872,477.536c0,.181-120.349.336-268.767.336S38.3,477.717,38.3,477.536s120.323-.336,268.805-.336S575.872,477.342,575.872,477.536Z" transform="translate(-38.3 -477.2)" fill="#263238"/>
    </g>
    <g id="Big_Books" data-name="Big Books" transform="translate(111.869 305.051)">
      <rect id="Rectangle_733" data-name="Rectangle 733" width="56.629" height="67.324" transform="translate(269.399 4.392)" fill="#f5f5f5"/>
      <rect id="Rectangle_734" data-name="Rectangle 734" width="255.927" height="75.953" transform="translate(15.423 0)" fill="#e8505b"/>
      <path id="Path_9745" data-name="Path 9745" d="M391.764,297.581H328.47V291.2h63.294a3.178,3.178,0,0,1,3.191,3.19h0a3.191,3.191,0,0,1-3.191,3.191Z" transform="translate(-64.018 -291.2)" fill="#e8505b"/>
      <path id="Path_9746" data-name="Path 9746" d="M391.764,351.441H328.47V345.06h63.294a3.191,3.191,0,0,1,3.19,3.191h0a3.178,3.178,0,0,1-3.191,3.191Z" transform="translate(-64.018 -275.488)" fill="#e8505b"/>
      <g id="Group_711" data-name="Group 711" transform="translate(220.999 0)" opacity="0.4">
        <rect id="Rectangle_735" data-name="Rectangle 735" width="30.239" height="75.953" transform="translate(0)"/>
      </g>
      <g id="Group_712" data-name="Group 712" transform="translate(38.131 0)" opacity="0.4">
        <rect id="Rectangle_736" data-name="Rectangle 736" width="30.239" height="75.953"/>
      </g>
      <path id="Path_9747" data-name="Path 9747" d="M388.5,303.284c0,.181-12.258.336-27.371.336s-27.371-.155-27.371-.336S346.018,303,361.2,303,388.5,303.09,388.5,303.284Z" transform="translate(-62.475 -287.758)" fill="#b3b3b3"/>
      <path id="Path_9748" data-name="Path 9748" d="M388.5,311.076c0,.194-12.258.336-27.371.336s-27.371-.142-27.371-.336,12.258-.336,27.371-.336S388.5,310.934,388.5,311.076Z" transform="translate(-62.475 -285.5)" fill="#b3b3b3"/>
      <path id="Path_9749" data-name="Path 9749" d="M388.5,320.726c0,.194-12.258.349-27.371.349s-27.371-.155-27.371-.349,12.258-.336,27.371-.336S388.5,320.545,388.5,320.726Z" transform="translate(-62.475 -282.685)" fill="#b3b3b3"/>
      <path id="Path_9750" data-name="Path 9750" d="M388.5,330.362c0,.181-12.258.336-27.371.336s-27.371-.155-27.371-.336S346.018,330,361.2,330,388.5,330.168,388.5,330.362Z" transform="translate(-62.475 -279.882)" fill="#b3b3b3"/>
      <path id="Path_9751" data-name="Path 9751" d="M388.5,339.976c0,.194-12.258.336-27.371.336s-27.371-.142-27.371-.336,12.258-.336,27.371-.336S388.5,339.8,388.5,339.976Z" transform="translate(-62.475 -277.069)" fill="#b3b3b3"/>
      <g id="Group_713" data-name="Group 713" transform="translate(89.606 31.208)" opacity="0.2">
        <rect id="Rectangle_737" data-name="Rectangle 737" width="115.143" height="13.679"/>
      </g>
      <rect id="Rectangle_738" data-name="Rectangle 738" width="57.494" height="41.025" transform="translate(267.953 77.438)" fill="#fafafa"/>
      <rect id="Rectangle_739" data-name="Rectangle 739" width="244.702" height="43.996" transform="translate(23.897 75.953)" fill="#455a64"/>
      <path id="Path_9752" data-name="Path 9752" d="M330.3,352.974h61.808a1.485,1.485,0,0,0,1.485-1.485h0a1.486,1.486,0,0,0-1.485-1.5H330.3Z" transform="translate(-63.484 -274.05)" fill="#455a64"/>
      <path id="Path_9753" data-name="Path 9753" d="M293.17,326.713h61.783a1.485,1.485,0,0,1,1.485,1.486h0a1.485,1.485,0,0,1-1.485,1.472H293.17v-2.958Z" transform="translate(-26.354 -209.748)" fill="#455a64"/>
      <path id="Path_9754" data-name="Path 9754" d="M388.535,357.256c0,.181-12.736.336-28.418.336s-28.418-.155-28.418-.336,12.723-.336,28.418-.336S388.535,357.023,388.535,357.256Z" transform="translate(-63.076 -272.029)" fill="#b3b3b3"/>
      <path id="Path_9755" data-name="Path 9755" d="M388.535,363.266c0,.181-12.736.336-28.418.336s-28.418-.155-28.418-.336,12.723-.336,28.418-.336S388.535,363.02,388.535,363.266Z" transform="translate(-63.076 -270.275)" fill="#b3b3b3"/>
      <path id="Path_9756" data-name="Path 9756" d="M388.535,369.266c0,.194-12.736.336-28.418.336s-28.418-.142-28.418-.336,12.723-.336,28.418-.336S388.535,369.085,388.535,369.266Z" transform="translate(-63.076 -268.525)" fill="#b3b3b3"/>
      <path id="Path_9757" data-name="Path 9757" d="M388.535,375.276c0,.194-12.736.336-28.418.336s-28.418-.142-28.418-.336,12.723-.336,28.418-.336S388.535,375.1,388.535,375.276Z" transform="translate(-63.076 -266.772)" fill="#b3b3b3"/>
      <rect id="Rectangle_740" data-name="Rectangle 740" width="168.749" height="11.483" transform="translate(62.041 91.699)" fill="#263238"/>
      <rect id="Rectangle_741" data-name="Rectangle 741" width="58.695" height="111.203" transform="translate(275.483 123.849)" fill="#ebebeb"/>
      <rect id="Rectangle_742" data-name="Rectangle 742" width="275.483" height="120.568" transform="translate(0 119.948)" fill="#e8505b"/>
      <path id="Path_9758" data-name="Path 9758" d="M401.992,479.15H331.18V471.4h70.812a3.875,3.875,0,0,1,3.875,3.875h0A3.875,3.875,0,0,1,401.992,479.15Z" transform="translate(-63.227 -238.633)" fill="#e8505b"/>
      <path id="Path_9759" data-name="Path 9759" d="M294.05,329h70.812a3.875,3.875,0,0,1,3.875,3.875h0a3.875,3.875,0,0,1-3.875,3.875H294.05Z" transform="translate(-26.097 -209.077)" fill="#e8505b"/>
      <g id="Group_714" data-name="Group 714" transform="translate(158.286 119.948)" opacity="0.4">
        <path id="Path_9760" data-name="Path 9760" d="M267.1,329.02,209.15,449.588h48.956L313.042,329.02Z" transform="translate(-209.15 -329.02)" fill="#fff"/>
      </g>
      <g id="Group_715" data-name="Group 715" transform="translate(66.885 119.948)" opacity="0.4">
        <path id="Path_9761" data-name="Path 9761" d="M196.336,329.02,138.39,449.588h48.956L242.282,329.02Z" transform="translate(-138.39 -329.02)" fill="#fff"/>
      </g>
      <path id="Path_9762" data-name="Path 9762" d="M395.705,398.7c0,.194-13.137.336-29.348.336s-29.348-.142-29.348-.336,13.137-.336,29.348-.336S395.705,398.515,395.705,398.7Z" transform="translate(-61.527 -259.94)" fill="#b3b3b3"/>
      <path id="Path_9763" data-name="Path 9763" d="M395.705,409.736c0,.194-13.137.336-29.348.336s-29.348-.142-29.348-.336,13.137-.336,29.348-.336S395.705,409.555,395.705,409.736Z" transform="translate(-61.527 -256.72)" fill="#b3b3b3"/>
      <path id="Path_9764" data-name="Path 9764" d="M395.705,420.786c0,.181-13.137.336-29.348.336s-29.348-.155-29.348-.336,13.137-.336,29.348-.336S395.705,420.592,395.705,420.786Z" transform="translate(-61.527 -253.496)" fill="#b3b3b3"/>
      <path id="Path_9765" data-name="Path 9765" d="M395.705,431.826c0,.181-13.137.336-29.348.336s-29.348-.155-29.348-.336,13.137-.336,29.348-.336S395.705,431.632,395.705,431.826Z" transform="translate(-61.527 -250.276)" fill="#b3b3b3"/>
      <path id="Path_9766" data-name="Path 9766" d="M395.705,442.866c0,.181-13.137.336-29.348.336s-29.348-.155-29.348-.336,13.137-.336,29.348-.336S395.705,442.685,395.705,442.866Z" transform="translate(-61.527 -247.055)" fill="#b3b3b3"/>
      <path id="Path_9767" data-name="Path 9767" d="M395.708,453.906c0,.181-13.137.336-29.348.336S337,454.125,337,453.906s13.137-.336,29.348-.336S395.708,453.725,395.708,453.906Z" transform="translate(-61.529 -243.835)" fill="#b3b3b3"/>
      <path id="Path_9768" data-name="Path 9768" d="M395.708,464.946c0,.194-13.137.336-29.348.336S337,465.114,337,464.946s13.137-.336,29.348-.336S395.708,464.765,395.708,464.946Z" transform="translate(-61.529 -240.614)" fill="#b3b3b3"/>
    </g>
    <g id="Character" transform="translate(189.901 34.374)">
      <path id="Path_9769" data-name="Path 9769" d="M363.846,139.9l-17.981-28.857a1.02,1.02,0,0,0-1.731,0l-17.645,30.51Z" transform="translate(-142.628 -73.219)" fill="#e8505b"/>
      <g id="Group_716" data-name="Group 716" transform="translate(183.862 37.34)" opacity="0.3">
        <path id="Path_9770" data-name="Path 9770" d="M363.846,139.9l-17.981-28.857a1.02,1.02,0,0,0-1.731,0l-17.645,30.51Z" transform="translate(-326.49 -110.559)"/>
      </g>
      <path id="Path_9771" data-name="Path 9771" d="M307.726,56.95l16.805,27.371-4.276-.672L292.82,79.335,303.038,57.8Z" transform="translate(-104.488 -17.761)" fill="#ebebeb"/>
      <path id="Path_9772" data-name="Path 9772" d="M354.872,161.358l16.185-26.325-41.916-7.75a3.294,3.294,0,0,0-3.449,1.576L302.054,168.9a2.054,2.054,0,0,0,1.408,3.061l39.4,6.988Z" transform="translate(-149.838 -68.356)" fill="#e8505b"/>
      <path id="Path_9773" data-name="Path 9773" d="M299.465,58.23l23.264,25.188L288.95,77.089Z" transform="translate(-105.617 -17.388)" fill="#ebebeb"/>
      <path id="Path_9774" data-name="Path 9774" d="M326.08,132.31a1.38,1.38,0,0,1,.155-.375l.517-1.02,2.067-3.875c1.86-3.371,4.444-8.086,7.531-13.731l.194-.349.271.3,15.165,16.353,8.112,8.81-.5.4c-5.3-7.5-9.895-14-13.214-18.691l-3.785-5.477-.982-1.473a3.259,3.259,0,0,1-.323-.53,4.524,4.524,0,0,1,.413.465l1.072,1.421,3.94,5.348,13.408,18.562-.5.413-8.125-8.784-15.1-16.431h.465c-3.178,5.593-5.826,10.334-7.75,13.615l-2.209,3.8-.594.982C326.17,132.207,326.093,132.323,326.08,132.31Z" transform="translate(-142.747 -72.608)" fill="#263238"/>
      <g id="Group_717" data-name="Group 717" transform="translate(169.692 70.655)" opacity="0.3">
        <path id="Path_9775" data-name="Path 9775" d="M329.626,136.35c-.362.543-14.106,23.445-14.106,23.445l22.4,4.185,14.868-23.755Z" transform="translate(-315.52 -136.35)" fill="#fff"/>
      </g>
      <path id="Path_9776" data-name="Path 9776" d="M199.457,442.619l12.31-16.082.646-.827,20.977,15.6-19.376,21.339.71,21.6c10.812,2.8,12.439,8.2,12.439,8.2H204.675L184.15,453.081Z" transform="translate(-184.15 18.715)" fill="#455a64"/>
      <path id="Path_9777" data-name="Path 9777" d="M184.15,447.393l20.474,39.346h22.489a9.287,9.287,0,0,0-2.583-3.384l-18.291-.956L187.392,445.21Z" transform="translate(-184.15 24.403)" fill="#ebebeb"/>
      <path id="Path_9778" data-name="Path 9778" d="M209.078,463.7c-.168.232-1.46-.5-3.2-.465s-3.01.775-3.19.542,1.059-1.511,3.178-1.524S209.285,463.516,209.078,463.7Z" transform="translate(-178.749 29.374)" fill="#263238"/>
      <path id="Path_9779" data-name="Path 9779" d="M208.8,459.8c-.22.155-1.227-1.163-3.023-1.524s-3.216.478-3.371.245.194-.478.814-.827a4.185,4.185,0,0,1,2.764-.388,4.263,4.263,0,0,1,2.39,1.421C208.815,459.3,208.919,459.737,208.8,459.8Z" transform="translate(-178.835 27.908)" fill="#263238"/>
      <path id="Path_9780" data-name="Path 9780" d="M208.756,454.541c-.245.129-1.008-1.175-2.583-1.718s-2.971,0-3.087-.284.233-.426.853-.659a3.875,3.875,0,0,1,2.583,0,3.939,3.939,0,0,1,2,1.6C208.846,454.076,208.872,454.5,208.756,454.541Z" transform="translate(-178.633 26.284)" fill="#263238"/>
      <path id="Path_9781" data-name="Path 9781" d="M213.282,450.6c-.271.09-.891-1.188-2.286-2.093s-2.8-1.046-2.816-1.292,1.666-.646,3.358.491S213.554,450.557,213.282,450.6Z" transform="translate(-177.14 24.907)" fill="#263238"/>
      <path id="Path_9782" data-name="Path 9782" d="M215.535,448.213c-.116.077-.865-.827-1.963-2.351l-1.9-2.7a6.835,6.835,0,0,1-1.046-1.821,1.835,1.835,0,0,1,.142-1.369,1.4,1.4,0,0,1,1.356-.71,4.056,4.056,0,0,1,2.093,1.1,7.043,7.043,0,0,1,1.369,1.563,7.583,7.583,0,0,1,1.175,3.242,4.211,4.211,0,0,1-.5,3.074,26.909,26.909,0,0,0-.181-2.958,7.285,7.285,0,0,0-2.48-4.185,3.616,3.616,0,0,0-1.55-.84.387.387,0,0,0-.426.194.969.969,0,0,0,0,.646,7.468,7.468,0,0,0,.878,1.563c.581.956,1.15,1.9,1.718,2.816A10.333,10.333,0,0,1,215.535,448.213Z" transform="translate(-176.448 22.666)" fill="#263238"/>
      <path id="Path_9783" data-name="Path 9783" d="M215.044,447.7c-.1,0,0-1.188,1.2-2.583a5.632,5.632,0,0,1,6.665-1.188,1.034,1.034,0,0,1,.349.8,1.292,1.292,0,0,1-.271.71,3.878,3.878,0,0,1-.814.71,10.323,10.323,0,0,1-1.589.9,9.442,9.442,0,0,1-2.958.827,4.663,4.663,0,0,1-2.777-.258,24.256,24.256,0,0,1,2.661-.439,10.747,10.747,0,0,0,2.687-.956,10.459,10.459,0,0,0,1.421-.866,3.463,3.463,0,0,0,.581-.5c.1-.207.077-.142,0-.207a1.8,1.8,0,0,0-.646-.245,6.3,6.3,0,0,0-.84-.129,5.927,5.927,0,0,0-1.6.116,5.594,5.594,0,0,0-2.428,1.227C215.56,446.782,215.225,447.763,215.044,447.7Z" transform="translate(-175.194 23.852)" fill="#263238"/>
      <path id="Path_9784" data-name="Path 9784" d="M199.208,446.984a2.674,2.674,0,1,1-2.674-2.674A2.674,2.674,0,0,1,199.208,446.984Z" transform="translate(-181.317 24.141)" fill="#ebebeb"/>
      <g id="Group_718" data-name="Group 718" transform="translate(24.749 445.639)" opacity="0.3">
        <path id="Path_9785" data-name="Path 9785" d="M188.656,388.144l-4.314,4.741L166.18,374.9l2.532-3.294Z" transform="translate(-166.18 -371.61)"/>
      </g>
      <path id="Path_9786" data-name="Path 9786" d="M270.513,445.433l-2.3,27.346S295.237,482,295.34,487.091l-53.18-.245,1.834-42.756Z" transform="translate(-167.228 24.077)" fill="#455a64"/>
      <path id="Path_9787" data-name="Path 9787" d="M250.05,463.91a2.17,2.17,0,0,0-1.615,2.416,2.093,2.093,0,0,0,2.364,1.628,2.3,2.3,0,0,0,1.705-2.584,2.17,2.17,0,0,0-2.661-1.421" transform="translate(-165.404 29.845)" fill="#ebebeb"/>
      <path id="Path_9788" data-name="Path 9788" d="M242.13,478.153l.181-4.263,50.377,1.2s2.674,2.144,2.648,3.307Z" transform="translate(-167.237 32.77)" fill="#ebebeb"/>
      <path id="Path_9789" data-name="Path 9789" d="M264.113,466.181c0,.258-1.292.323-2.583,1.1s-2.054,1.821-2.286,1.718.22-1.6,1.834-2.506S264.19,465.949,264.113,466.181Z" transform="translate(-162.261 30.442)" fill="#263238"/>
      <path id="Path_9790" data-name="Path 9790" d="M268.072,468.148c0,.245-1.111.633-2.041,1.692s-1.292,2.209-1.5,2.183-.362-1.5.827-2.79S268.072,467.89,268.072,468.148Z" transform="translate(-160.743 31.058)" fill="#263238"/>
      <path id="Path_9791" data-name="Path 9791" d="M269.5,474.391c-.245,0-.543-1.292.194-2.661s1.976-1.9,2.08-1.679-.685.956-1.292,2.105S269.76,474.378,269.5,474.391Z" transform="translate(-159.331 31.636)" fill="#263238"/>
      <path id="Path_9792" data-name="Path 9792" d="M264.123,461.489c-.116.232-1.292-.181-2.764-.155s-2.583.439-2.764.207,1.02-1.1,2.751-1.111S264.291,461.3,264.123,461.489Z" transform="translate(-162.439 28.843)" fill="#263238"/>
      <path id="Path_9793" data-name="Path 9793" d="M264.936,458.042a5.167,5.167,0,0,1-2.661-.142,12.3,12.3,0,0,1-2.738-.995,11.416,11.416,0,0,1-1.5-.891,3.4,3.4,0,0,1-.775-.659,1.137,1.137,0,0,1,0-1.382,1.421,1.421,0,0,1,1.175-.543,3.5,3.5,0,0,1,.982.181,10.429,10.429,0,0,1,1.628.646,9.751,9.751,0,0,1,2.39,1.731c1.176,1.2,1.55,2.2,1.46,2.248s-.685-.762-1.9-1.77a10.983,10.983,0,0,0-2.312-1.46,10.239,10.239,0,0,0-1.5-.543c-.555-.168-1.046-.194-1.2,0s-.065.142,0,.31a2.814,2.814,0,0,0,.568.478,13.527,13.527,0,0,0,1.369.878,14.513,14.513,0,0,0,2.583,1.111A16.163,16.163,0,0,1,264.936,458.042Z" transform="translate(-162.89 26.801)" fill="#263238"/>
      <path id="Path_9794" data-name="Path 9794" d="M263.011,459.137a4.212,4.212,0,0,1-.581-2.583,8.745,8.745,0,0,1,.5-2.893,9.808,9.808,0,0,1,.749-1.589,2.286,2.286,0,0,1,1.77-1.292,1.292,1.292,0,0,1,1.072.8,3.541,3.541,0,0,1,.232.995,5.919,5.919,0,0,1-.09,1.8,5.994,5.994,0,0,1-1.292,2.687c-1.111,1.292-2.209,1.589-2.222,1.5a10.9,10.9,0,0,0,1.705-1.873,6.214,6.214,0,0,0,.969-2.467,5.544,5.544,0,0,0,0-1.537c-.065-.568-.245-1.033-.465-.995a1.814,1.814,0,0,0-.969.84,8.146,8.146,0,0,0-.736,1.408,9.88,9.88,0,0,0-.646,2.583C262.921,458.117,263.166,459.112,263.011,459.137Z" transform="translate(-161.315 26.028)" fill="#263238"/>
      <path id="Path_9795" data-name="Path 9795" d="M357.189,165.09a6.588,6.588,0,0,0-.181-4.689c-2.2-5.167-7.363-16.792-9.236-16.469-1.653.3-2.868,3.449-.982,6.924l-6.084-5.167a1.757,1.757,0,0,0-2.881,1.6,9.375,9.375,0,0,0,.749,2.26c1.886,4,7.13,7.75,7.13,7.75l-10.592.065s-1.976,2.764,1.653,4.624a7.415,7.415,0,0,0,2.583.723l5.477.555s-9.895,10.941-10.23,11.961a22.361,22.361,0,0,0-.878,5.038L314.73,201.387l5.076,32.112,34.308-59.419Z" transform="translate(-146.058 -63.485)" fill="#b78876"/>
      <path id="Path_9796" data-name="Path 9796" d="M347.7,157.3c-.09.065-.439-.439-1.188-1.008a7.97,7.97,0,0,0-3.346-1.4,18.833,18.833,0,0,0-3.733-.207,4.379,4.379,0,0,1-1.6-.09c0-.09.581-.245,1.563-.388a12.635,12.635,0,0,1,3.875,0,6.885,6.885,0,0,1,3.539,1.692C347.557,156.655,347.763,157.275,347.7,157.3Z" transform="translate(-139.32 -60.527)" fill="#aa6550"/>
      <path id="Path_9797" data-name="Path 9797" d="M347.447,155.459a20.226,20.226,0,0,1-4.3-2.958,19.907,19.907,0,0,1-3.875-3.5,21.12,21.12,0,0,1,4.314,2.971A20.746,20.746,0,0,1,347.447,155.459Z" transform="translate(-138.9 -62.005)" fill="#aa6550"/>
      <path id="Path_9798" data-name="Path 9798" d="M296.2,285.378c.284,0,1.292,63.294,1.705,91.8a49.551,49.551,0,0,1-6.691,25.589L229.409,511.35,193.9,481.808l57.417-97.033L230.2,282.5l41.851-35.987Z" transform="translate(-181.306 -33.56)" fill="#263238"/>
      <path id="Path_9799" data-name="Path 9799" d="M313.269,266.92c-.181,3.643-33.585,238.373-33.585,238.373l-41.335-2.945L253.515,265.46Z" transform="translate(-168.339 -28.032)" fill="#263238"/>
      <path id="Path_9800" data-name="Path 9800" d="M283.6,279.34a3.649,3.649,0,0,0,.077.62c.077.4.1,1.033.181,1.808.129,1.628.336,3.966.581,6.975.478,6.084,1.176,14.829,2.015,25.628s1.757,23.729,2.816,38.041q.349,5.386.723,11.005c.1,1.873.271,3.785.207,5.709a42.343,42.343,0,0,1-.568,5.826,43.733,43.733,0,0,1-3.591,11.419c-.853,1.847-1.873,3.6-2.868,5.4l-3.01,5.386-41.438,74.054c-5.322,9.43-9.636,17.076-12.62,22.4-1.5,2.583-2.661,4.663-3.475,6.071l-.9,1.576-.336.517s.077-.194.271-.555l.853-1.6,3.358-6.136,12.439-22.5c10.566-19,25.15-45.21,41.27-74.144,1.008-1.808,2-3.617,3.01-5.4s2.015-3.539,2.842-5.348a43.625,43.625,0,0,0,3.552-11.251,40.847,40.847,0,0,0,.555-5.722c.077-1.9-.09-3.785-.181-5.658q-.362-5.619-.71-10.993c-1.008-14.325-1.912-27.216-2.661-38.054s-1.382-19.557-1.808-25.653c-.194-3-.349-5.348-.465-6.975,0-.775-.077-1.382-.1-1.821A5.554,5.554,0,0,1,283.6,279.34Z" transform="translate(-173.287 -23.983)" fill="#455a64"/>
      <path id="Path_9801" data-name="Path 9801" d="M250.394,368.877a2.391,2.391,0,0,1-.84-.142,11.093,11.093,0,0,1-2.17-.8,16.327,16.327,0,0,1-8.848-11.832,11.518,11.518,0,0,1-.155-2.312c0-.543,0-.84.1-.84s.116,1.2.517,3.061a17.7,17.7,0,0,0,8.6,11.5C249.271,368.425,250.42,368.761,250.394,368.877Z" transform="translate(-168.332 -2.51)" fill="#455a64"/>
      <path id="Path_9802" data-name="Path 9802" d="M255.089,362.018a7.932,7.932,0,0,1-3.01,0,18.432,18.432,0,0,1-6.859-2.377,18.69,18.69,0,0,1-5.425-4.818,8.1,8.1,0,0,1-1.485-2.583c.1,0,.685.93,1.86,2.325a20.913,20.913,0,0,0,11.987,7.027A25.8,25.8,0,0,1,255.089,362.018Z" transform="translate(-168.351 -2.717)" fill="#455a64"/>
      <path id="Path_9803" data-name="Path 9803" d="M228.741,286.16a2.784,2.784,0,0,0,.995.685,3.733,3.733,0,0,0,3.152-.22,28.477,28.477,0,0,0,4.069-2.906c1.485-1.188,3.061-2.583,4.663-4.043a81,81,0,0,0,7.582-8.28c1.783-2.248,2.8-3.72,2.88-3.656a4.375,4.375,0,0,1-.594,1.111c-.413.685-1.059,1.666-1.912,2.842a62.983,62.983,0,0,1-7.492,8.474c-1.615,1.511-3.229,2.868-4.741,4.043a25.419,25.419,0,0,1-4.263,2.842,3.875,3.875,0,0,1-3.462,0C228.87,286.612,228.715,286.16,228.741,286.16Z" transform="translate(-171.143 -27.367)" fill="#455a64"/>
      <path id="Path_9804" data-name="Path 9804" d="M251.2,280.49a17.634,17.634,0,0,1-1.641,3.643,25.175,25.175,0,0,1-5.942,7.608,14.545,14.545,0,0,1-9.042,3.436,9.493,9.493,0,0,1-2.919-.413,2.752,2.752,0,0,1-.995-.439,18.887,18.887,0,0,0,3.875.375,14.945,14.945,0,0,0,8.577-3.475,28.134,28.134,0,0,0,5.955-7.324A35.562,35.562,0,0,1,251.2,280.49Z" transform="translate(-170.583 -23.647)" fill="#455a64"/>
      <path id="Path_9805" data-name="Path 9805" d="M318.9,302.983s-31.905,14.893-43.35,9.765-18.937-16.96-27.216-14.209-20.913,5.167-25.253,16.96a10.334,10.334,0,0,1-2.751-7.427c0-4.6,3.875-10.837,3.875-10.837l-5.167-53.3.22-89.619s8.887-13.24,32.952-12.452l33.236,4.779s16.96,5.167,21.688,13.808,2.764,70.372,2.764,70.372,10.515,59.884,10.515,64.586A17.993,17.993,0,0,1,318.928,303" transform="translate(-173.972 -64.095)" fill="#e8505b"/>
      <path id="Path_9806" data-name="Path 9806" d="M321.137,196.91l-13.705,12.22-16.973-52.87L276.25,188.1l5.735,51.668a19.815,19.815,0,0,0,15.01,17.064h0a19.841,19.841,0,0,0,17.813-4.431l14.467-12.375a7.75,7.75,0,0,0,2.648-7.169l-5.386-34a3.255,3.255,0,0,0-5.4-1.95Z" transform="translate(-157.283 -59.887)" fill="#e8505b"/>
      <path id="Path_9807" data-name="Path 9807" d="M238.409,178.164c0,1.175-6.368,58.889-6.368,58.889l26.984,58.372c-2.583,5.5-7.647,10.5-13.214,15.384,0,0-6.9-6.3-7.3-19.724,0,0-30.665-36.026-33.817-45.494s5.529-74.131,5.529-74.131Z" transform="translate(-178.358 -55.453)" fill="#b78876"/>
      <path id="Path_9808" data-name="Path 9808" d="M288.9,184.43a4.661,4.661,0,0,1-.555,1.175c-.4.736-.995,1.783-1.744,3.074a49.992,49.992,0,0,1-2.764,4.469,8.164,8.164,0,0,1-2.312,2.183,7.053,7.053,0,0,1-3.307.969,10.049,10.049,0,0,1-6.187-1.963,16.444,16.444,0,0,1-3.656-3.875,30.33,30.33,0,0,1-1.873-3.01,4.921,4.921,0,0,1-.568-1.163c.1-.065,1.046,1.524,2.816,3.875a17.48,17.48,0,0,0,3.63,3.617,9.688,9.688,0,0,0,5.813,1.8,6.277,6.277,0,0,0,2.984-.866,7.829,7.829,0,0,0,2.17-1.989c1.163-1.537,2.028-3.113,2.855-4.353s1.46-2.26,1.925-2.945a4.962,4.962,0,0,1,.775-.995Z" transform="translate(-160.294 -51.669)" fill="#263238"/>
      <path id="Path_9809" data-name="Path 9809" d="M299.706,228.631a4.934,4.934,0,0,1-.517-1.163,28.055,28.055,0,0,1-1.021-3.346,39.7,39.7,0,0,1,1.15-22.786,30.228,30.228,0,0,1,1.356-3.216,4.9,4.9,0,0,1,.633-1.111c.116,0-.659,1.692-1.537,4.482a45.287,45.287,0,0,0-2.028,11.186,45.824,45.824,0,0,0,.878,11.341C299.229,226.874,299.823,228.592,299.706,228.631Z" transform="translate(-151.224 -48)" fill="#263238"/>
      <path id="Path_9810" data-name="Path 9810" d="M306,218.052a12.317,12.317,0,0,1-1.666-2.777,39.036,39.036,0,0,1-4.017-15.036,12.425,12.425,0,0,1,0-3.229,19.96,19.96,0,0,1,.413,3.19,53.276,53.276,0,0,0,1.421,7.6,55,55,0,0,0,2.583,7.285A21.176,21.176,0,0,1,306,218.052Z" transform="translate(-150.294 -48)" fill="#263238"/>
      <path id="Path_9811" data-name="Path 9811" d="M288.308,194.018a4.28,4.28,0,0,1,.3.568,15.811,15.811,0,0,1,.646,1.731,18.873,18.873,0,0,1,.853,6.717,15.009,15.009,0,0,1-3.785,9.236,12.917,12.917,0,0,1-4.921,3.449,11.433,11.433,0,0,1-6.459.543,10.566,10.566,0,0,1-5.671-3.074,11.948,11.948,0,0,1-2.726-5.348,33.08,33.08,0,0,1-.775-5.322c-.129-1.666-.258-3.216-.375-4.65-.194-2.751-.349-5.025-.478-6.717,0-.736-.065-1.292-.09-1.834a2.352,2.352,0,0,1,0-.646,2.9,2.9,0,0,1,.116.633c0,.491.142,1.1.22,1.821.181,1.692.413,3.953.7,6.7.142,1.434.284,2.984.452,4.637a34.011,34.011,0,0,0,.814,5.167,11.355,11.355,0,0,0,2.583,5.051,10,10,0,0,0,5.322,2.868,10.876,10.876,0,0,0,6.045-.5,12.413,12.413,0,0,0,4.689-3.242,14.739,14.739,0,0,0,3.772-8.861,19.735,19.735,0,0,0-.62-6.614A18.72,18.72,0,0,0,288.308,194.018Z" transform="translate(-160.623 -50.433)" fill="#263238"/>
      <g id="Group_719" data-name="Group 719" transform="translate(53.577 129.402)" opacity="0.2">
        <path id="Path_9812" data-name="Path 9812" d="M234.389,252.732a49.085,49.085,0,0,1,3.074-12.271c1.86-4.9,4.288-9.752,4.366-15a34.3,34.3,0,0,0-1.731-9.7l-9.417-33.933q-.542,13.15-1.072,26.325a11.173,11.173,0,0,0,.982,6.252c1.4,2.273,4.25,3.268,5.839,5.4a6.342,6.342,0,0,1,.865,5.826c-.7,1.925-2.428,2.415-4.4,2.893a25.084,25.084,0,0,1-2.738.555c-1.292.207-3.307-.09-3.875,1.137-1.563,3.048.1,4.9.762,6.355,3,6.652,7.4,16.159,7.4,16.159" transform="translate(-225.627 -181.83)"/>
      </g>
      <path id="Path_9813" data-name="Path 9813" d="M230.637,148S202.878,162.028,199,237.051a7.983,7.983,0,0,0,9.442,8.267c11.406-2.17,28.689-5.528,28.573-5.993-.155-.685,6.459-66.019,6.459-66.019Z" transform="translate(-179.821 -62.296)" fill="#e8505b"/>
      <path id="Path_9814" data-name="Path 9814" d="M238.939,166.69v3.875c0,2.493-.207,6.11-.5,10.566s-.749,9.752-1.369,15.617c-.323,2.932-.672,6.006-1.02,9.2-.194,1.6-.387,3.216-.594,4.87s-.7,3.32-.956,4.947a6.536,6.536,0,0,0,0,2.4,4.507,4.507,0,0,0,1.111,2.015c1.059,1.163,2.583,1.77,3.875,2.945a7.75,7.75,0,0,1,2.118,4.366,8.149,8.149,0,0,1,0,2.377,3.178,3.178,0,0,1-3.126,3.074l-2.093.4-3.978.788-7.053,1.421-10.334,2.157-1.628.323-.646.129h-.1v-.155h.388a4.777,4.777,0,0,1,.995-.155,5.232,5.232,0,0,1-.956.284h-.4v-.155h.077l.646-.155,1.615-.388,10.334-2.364,7.13-1.55,3.978-.827,2.093-.426a3.2,3.2,0,0,0,1.692-.594,4.805,4.805,0,0,0,.71-4.03A7.143,7.143,0,0,0,239,223.655c-1.1-1.059-2.687-1.679-3.875-2.971a5.168,5.168,0,0,1-1.292-2.325,7.028,7.028,0,0,1,0-2.648c.271-1.731.814-3.294.956-4.934s.4-3.268.594-4.857c.375-3.178.723-6.252,1.072-9.184.646-5.864,1.15-11.147,1.5-15.591s.581-8.047.723-10.54l.155-2.868A4.754,4.754,0,0,1,238.939,166.69Z" transform="translate(-175.839 -56.844)" fill="#263238"/>
      <path id="Path_9815" data-name="Path 9815" d="M228.193,202.3a2.841,2.841,0,0,1-.168.891,5.385,5.385,0,0,1-.336,1.007,10.823,10.823,0,0,1-.594,1.292,14.117,14.117,0,0,1-2.118,3.023,17.36,17.36,0,0,1-3.475,2.868,17.075,17.075,0,0,1-4.133,1.808,14.21,14.21,0,0,1-3.643.517,9.771,9.771,0,0,1-1.421,0,6.45,6.45,0,0,1-1.046-.155,2.985,2.985,0,0,1-.878-.258c0-.129,1.292.129,3.32,0a16.284,16.284,0,0,0,3.488-.633,19,19,0,0,0,3.966-1.783,18.688,18.688,0,0,0,3.371-2.726,15.839,15.839,0,0,0,2.157-2.829C227.728,203.5,228.064,202.261,228.193,202.3Z" transform="translate(-176.498 -46.457)" fill="#263238"/>
      <g id="Group_720" data-name="Group 720" transform="translate(80.939 216.047)" opacity="0.2">
        <path id="Path_9816" data-name="Path 9816" d="M247.533,255.641c12.917,7.66,28.754,9.494,43.621,7.234a21.365,21.365,0,0,0,7.091-2.054,8.525,8.525,0,0,0,4.444-5.632,5.386,5.386,0,0,0-3.178-6.032c-2.364-.8-4.87.491-7.1,1.615a64.586,64.586,0,0,1-45.6,4.6" transform="translate(-246.81 -248.907)"/>
      </g>
      <path id="Path_9817" data-name="Path 9817" d="M309.047,255.753a3.023,3.023,0,0,1-.555.426c-.388.258-.93.685-1.705,1.124a36.439,36.439,0,0,1-6.769,3.178,53.4,53.4,0,0,1-24.4,2.157,109.316,109.316,0,0,1-23.755-6.381c-2.945-1.111-5.309-2.054-6.936-2.725l-1.873-.788a3.438,3.438,0,0,1-.633-.323,3.953,3.953,0,0,1,.685.194l1.912.672,7.014,2.519a117.3,117.3,0,0,0,23.677,6.161,54.756,54.756,0,0,0,24.155-1.938,41.336,41.336,0,0,0,6.794-2.958C308.194,256.256,309.047,255.753,309.047,255.753Z" transform="translate(-167.152 -31.836)" fill="#263238"/>
      <g id="Group_721" data-name="Group 721" transform="translate(134.694 134.414)" opacity="0.2">
        <path id="Path_9818" data-name="Path 9818" d="M294.89,248.461c3.875-3.875,3.875-10.863,3.1-16.3s-2.881-10.657-3.617-16.121c-.7-5.167-.194-10.45-.426-15.681s-1.356-10.682-4.753-14.648a170.945,170.945,0,0,0,5.7,62.751" transform="translate(-288.425 -185.71)"/>
      </g>
      <g id="Group_722" data-name="Group 722" transform="translate(103.833 140.408)" opacity="0.2">
        <path id="Path_9819" data-name="Path 9819" d="M265.136,190.35c-.594,3.436,0,7.04-.3,10.553a45.765,45.765,0,0,0,0,10.553,15.5,15.5,0,0,0,4.612,9.3,9.52,9.52,0,0,0,9.817,1.989,8.861,8.861,0,0,0,4.96-8.706,14.442,14.442,0,0,1-7.518,1.421,10.579,10.579,0,0,1-6.807-3.281,16.986,16.986,0,0,1-3.785-10.476c-.245-3.772-.71-7.634-1.02-11.354" transform="translate(-264.534 -190.35)"/>
      </g>
      <path id="Path_9820" data-name="Path 9820" d="M239.129,184.72a5.358,5.358,0,0,1-1.4.31c-.9.142-2.209.336-3.875.53a48.258,48.258,0,0,1-12.814,0,23.974,23.974,0,0,1-11.742-5.051,16.056,16.056,0,0,1-2.687-2.842,5.166,5.166,0,0,1-.736-1.227,29.152,29.152,0,0,0,3.72,3.707,25.176,25.176,0,0,0,11.548,4.753,55.208,55.208,0,0,0,12.659.155l3.875-.31a6.238,6.238,0,0,1,1.447-.026Z" transform="translate(-177.811 -54)" fill="#fafafa"/>
      <path id="Path_9821" data-name="Path 9821" d="M238,192.217a6.319,6.319,0,0,1-1.369.491,15.058,15.058,0,0,1-1.653.426c-.646.129-1.382.31-2.222.413a35.911,35.911,0,0,1-5.877.388,40.733,40.733,0,0,1-7.169-.827,40.043,40.043,0,0,1-6.872-2.209,35.289,35.289,0,0,1-5.167-2.777c-.71-.426-1.292-.9-1.847-1.292a13.562,13.562,0,0,1-1.292-1.072,5.943,5.943,0,0,1-1.046-1.008c.09-.1,1.641,1.292,4.482,2.971a39.378,39.378,0,0,0,24.775,5.322C235.989,192.682,237.966,192.088,238,192.217Z" transform="translate(-178.508 -51.577)" fill="#fafafa"/>
      <path id="Path_9822" data-name="Path 9822" d="M273.639,189.547c0,.181-9.378.09-20.926-.207s-20.926-.685-20.913-.878,9.365-.09,20.926.207S273.639,189.354,273.639,189.547Z" transform="translate(-170.25 -50.522)" fill="#fafafa"/>
      <path id="Path_9823" data-name="Path 9823" d="M275.443,197.35a8.668,8.668,0,0,1-1.718.543c-1.111.31-2.738.685-4.779,1.085a89.983,89.983,0,0,1-16.082,1.615,91.122,91.122,0,0,1-16.121-1.292c-2.041-.362-3.681-.7-4.792-.995a8.843,8.843,0,0,1-1.731-.5,10.835,10.835,0,0,1,1.783.245c1.124.22,2.777.491,4.818.775a104.162,104.162,0,0,0,32.047-.336c2.028-.336,3.668-.646,4.805-.878A10.511,10.511,0,0,1,275.443,197.35Z" transform="translate(-170.711 -47.9)" fill="#fafafa"/>
      <path id="Path_9824" data-name="Path 9824" d="M289.268,195.87a2.882,2.882,0,0,1-.426.956,8.1,8.1,0,0,1-1.9,2.157,12.543,12.543,0,0,1-8.977,2.441,22.682,22.682,0,0,1-8.809-3.139,16.534,16.534,0,0,1-3.216-2.157,30.126,30.126,0,0,1,3.436,1.744,25.291,25.291,0,0,0,8.667,2.893,12.646,12.646,0,0,0,8.642-2.144A14.481,14.481,0,0,0,289.268,195.87Z" transform="translate(-160.291 -48.332)" fill="#fafafa"/>
      <path id="Path_9825" data-name="Path 9825" d="M290.054,189.737a9.455,9.455,0,0,1-3.333,1.046,9.132,9.132,0,0,1-3.462.388,9.327,9.327,0,0,1,3.333-1.046A9.133,9.133,0,0,1,290.054,189.737Z" transform="translate(-155.238 -50.13)" fill="#fafafa"/>
      <path id="Path_9826" data-name="Path 9826" d="M301.005,190.053A21.389,21.389,0,0,1,295,193.024a21.622,21.622,0,0,1-6.459,1.6c0-.194,2.842-.969,6.278-2.235S300.915,189.886,301.005,190.053Z" transform="translate(-153.698 -50.033)" fill="#fafafa"/>
      <path id="Path_9827" data-name="Path 9827" d="M296.8,180.471a21.609,21.609,0,0,1-3.966,1.163,20.665,20.665,0,0,1-3.991,1.072A14,14,0,0,1,296.8,180.471Z" transform="translate(-153.611 -52.826)" fill="#fafafa"/>
      <path id="Path_9828" data-name="Path 9828" d="M289.945,176.81a3.389,3.389,0,0,1,0,.762l-.194,2.17c-.09.943-.194,2.093-.284,3.436s-.232,2.868-.3,4.547c-.22,3.384-.323,7.4-.349,11.871s.142,9.391.452,14.532.852,10.037,1.408,14.48,1.227,8.409,1.873,11.729c.3,1.666.62,3.152.891,4.469s.5,2.454.723,3.371.336,1.576.465,2.131a2.762,2.762,0,0,1,.116.749,3.1,3.1,0,0,1-.245-.723l-.594-2.093c-.258-.917-.543-2.041-.84-3.358s-.659-2.8-.982-4.456c-.71-3.32-1.369-7.3-2.015-11.742s-1.124-9.352-1.473-14.506-.426-10.1-.4-14.583.207-8.512.491-11.9c.1-1.692.271-3.216.4-4.56s.271-2.493.4-3.423.233-1.6.31-2.157A2.879,2.879,0,0,1,289.945,176.81Z" transform="translate(-153.798 -53.892)" fill="#263238"/>
      <g id="Group_723" data-name="Group 723" transform="translate(107.961 138.083)" opacity="0.2">
        <path id="Path_9829" data-name="Path 9829" d="M267.73,188.55a13.95,13.95,0,0,0,13.2.969,6.033,6.033,0,0,1,1.55-.568,1.511,1.511,0,0,1,1.46.555,1.912,1.912,0,0,1-.413,2.093,8.164,8.164,0,0,1-8.4,2.583,12.556,12.556,0,0,1-7.169-5.593" transform="translate(-267.73 -188.55)"/>
      </g>
      <path id="Path_9830" data-name="Path 9830" d="M249.34,109.4a45.207,45.207,0,0,1-1.473-8.977,15.384,15.384,0,0,1,2.067-8.745,9.378,9.378,0,0,1,7.466-4.56c1.873,0,3.759.607,5.606.271,2.131-.388,3.8-2,5.619-3.191a15.785,15.785,0,0,1,9.675-2.506,9.261,9.261,0,0,1,4.934,1.705,5.257,5.257,0,0,1,2.273,4.521,25.368,25.368,0,0,1,6.549-.413,8.486,8.486,0,0,1,5.735,2.855,5.167,5.167,0,0,1,.375,6.1,4.185,4.185,0,0,1,5.012,2.441,5.438,5.438,0,0,1-1.292,5.7,10.166,10.166,0,0,1-6.536,2.377,14.752,14.752,0,0,1-6.265-1.292" transform="translate(-165.572 -81.651)" fill="#263238"/>
      <path id="Path_9831" data-name="Path 9831" d="M257.221,174.6h0a15.281,15.281,0,0,0,18.665-13.382c.491-4.921.917-9.042,1.008-9.7,0,0,12.362.232,14.622-11.768S296.528,99.7,296.528,99.7h0a42.446,42.446,0,0,0-42.937-2.08l-2.028,1.059L245.479,158.1A15.281,15.281,0,0,0,257.221,174.6Z" transform="translate(-166.285 -78.406)" fill="#b78876"/>
      <path id="Path_9832" data-name="Path 9832" d="M273.154,139.748a28.327,28.327,0,0,1-14.893-7.208s2.183,9.313,14.377,10.334Z" transform="translate(-162.531 -66.806)" fill="#aa6550"/>
      <path id="Path_9833" data-name="Path 9833" d="M251.668,107.457c-.194-.129-7.841-3.875-9.042,4.379s7.363,7.75,7.414,7.5S251.668,107.457,251.668,107.457Z" transform="translate(-167.126 -74.403)" fill="#b78876"/>
      <path id="Path_9834" data-name="Path 9834" d="M247.5,115.272a2.84,2.84,0,0,1-.413.155,1.473,1.473,0,0,1-1.085-.129,3.591,3.591,0,0,1-1.188-3.436,4.573,4.573,0,0,1,.7-2,1.679,1.679,0,0,1,1.292-.956.736.736,0,0,1,.788.517.671.671,0,0,1,0,.426c0,.013.194-.116.168-.465a.9.9,0,0,0-.245-.568,1.15,1.15,0,0,0-.762-.323,2.08,2.08,0,0,0-1.692,1.072,4.792,4.792,0,0,0-.827,2.235,3.785,3.785,0,0,0,1.589,3.875,1.55,1.55,0,0,0,1.356,0C247.466,115.465,247.531,115.284,247.5,115.272Z" transform="translate(-166.643 -73.822)" fill="#aa6550"/>
      <path id="Path_9835" data-name="Path 9835" d="M281.055,112.876a1.744,1.744,0,0,1-1.963,1.434,1.653,1.653,0,0,1-1.5-1.847,1.744,1.744,0,0,1,1.951-1.46,1.679,1.679,0,0,1,1.511,1.873Z" transform="translate(-156.895 -73.093)" fill="#263238"/>
      <path id="Path_9836" data-name="Path 9836" d="M282.428,111.551c-.258.194-1.382-1.008-3.242-1.292s-3.358.362-3.526.1.207-.491.878-.814a4.8,4.8,0,0,1,2.868-.362,4.612,4.612,0,0,1,2.583,1.292C282.428,111,282.57,111.435,282.428,111.551Z" transform="translate(-157.467 -73.641)" fill="#263238"/>
      <path id="Path_9837" data-name="Path 9837" d="M267.175,110.424a1.757,1.757,0,0,1-1.963,1.447,1.666,1.666,0,0,1-1.5-1.86,1.744,1.744,0,0,1,1.951-1.447,1.679,1.679,0,0,1,1.511,1.86Z" transform="translate(-160.944 -73.805)" fill="#263238"/>
      <path id="Path_9838" data-name="Path 9838" d="M268.3,109.322c-.245.194-1.382-.995-3.229-1.292s-3.371.362-3.526.1.207-.478.866-.8a4.741,4.741,0,0,1,2.88-.375,4.573,4.573,0,0,1,2.519,1.292C268.3,108.8,268.433,109.244,268.3,109.322Z" transform="translate(-161.582 -74.292)" fill="#263238"/>
      <path id="Path_9839" data-name="Path 9839" d="M270.11,123.815a11.845,11.845,0,0,1,3.1,0c.478,0,.943,0,1.072-.3a2.351,2.351,0,0,0,0-1.447c-.245-1.292-.5-2.506-.762-3.875-1.046-5.451-1.718-9.907-1.5-9.946s1.292,4.353,2.286,9.8c.245,1.292.491,2.583.71,3.875a2.842,2.842,0,0,1-.078,1.9,1.188,1.188,0,0,1-.9.555,3.268,3.268,0,0,1-.814,0,12.607,12.607,0,0,1-3.113-.568Z" transform="translate(-159.074 -73.892)" fill="#263238"/>
      <path id="Path_9840" data-name="Path 9840" d="M265.838,120.551c.31,0,0,2.041,1.434,3.772s3.643,1.873,3.6,2.157-.543.31-1.447.168a5,5,0,0,1-3.036-1.692,4.469,4.469,0,0,1-1.072-3.126C265.4,120.977,265.709,120.512,265.838,120.551Z" transform="translate(-160.473 -70.304)" fill="#263238"/>
      <path id="Path_9841" data-name="Path 9841" d="M282.208,108.936c-.4.362-1.589-.3-3.113-.581s-2.881-.22-3.1-.71c-.1-.233.181-.62.814-.917a4.6,4.6,0,0,1,5.012,1.033C282.285,108.29,282.389,108.755,282.208,108.936Z" transform="translate(-157.364 -74.435)" fill="#263238"/>
      <path id="Path_9842" data-name="Path 9842" d="M267.441,103.978c-.245.194-.71,0-1.292-.207a15.109,15.109,0,0,0-2.222-.71,15.682,15.682,0,0,0-2.325-.245c-.633,0-1.124,0-1.292-.323s.129-.749.866-1.163a4.947,4.947,0,0,1,5.942,1.292C267.673,103.242,267.673,103.81,267.441,103.978Z" transform="translate(-161.946 -76.053)" fill="#263238"/>
      <path id="Path_9843" data-name="Path 9843" d="M295.68,104.215a28.754,28.754,0,0,1-17.4-3.966c-5.813-3.449-12.749-5.438-14.39-4.34s-2.416,7.3-8.525,8.68c0,0-.452,11.9-5.167,11.135s-.413-18.936-.413-18.936l11.987-4.818,12.814-1.46,11.832.865,10.76,4.185Z" transform="translate(-165.527 -79.067)" fill="#263238"/>
    </g>
    <g id="Plants" transform="translate(0.023 336.255)">
      <path id="Path_9844" data-name="Path 9844" d="M82.917,375.516c-10.269-15.707-8.771-38.157,3.488-52.366,3.875-4.4,9.132-8.241,14.945-7.75s10.734,5.606,12.543,11.29,1.175,11.845.116,17.709c-1.485,8.215-3.978,16.624-9.688,22.734s-14.08,12.375-21.4,8.37" transform="translate(-25.788 -315.357)" fill="#e8505b"/>
      <path id="Path_9845" data-name="Path 9845" d="M86.167,427.139A23.457,23.457,0,0,1,92.7,400.478c2.364-1.938,5.451-3.423,8.4-2.583s5.025,3.875,5.438,6.962A19.3,19.3,0,0,1,105,413.989c-1.511,4.095-3.552,8.2-7.053,10.838s-8.37,5.1-11.78,2.377" transform="translate(-23.355 -291.35)" fill="#e8505b"/>
      <path id="Path_9846" data-name="Path 9846" d="M74.615,424.912a33.985,33.985,0,0,0-17.128-35.858c-3.875-2.028-8.732-3.242-12.672-1.292s-5.981,6.949-5.658,11.457,2.48,8.667,4.87,12.491C47.386,417.085,51.493,422.3,57.216,425s13.369,4.753,17.4-.116" transform="translate(-36.577 -294.523)" fill="#e8505b"/>
      <path id="Path_9847" data-name="Path 9847" d="M77,397.954c4.909-15.862-3.423-35.109-17.322-44.215-4.314-2.829-9.778-4.792-14.6-2.958s-7.75,7.389-7.918,12.659,1.873,10.334,4.211,15.113c3.255,6.626,7.427,13.176,13.77,16.986S71.7,403.147,77,397.954" transform="translate(-37.153 -305.232)" fill="#e8505b"/>
      <path id="Path_9848" data-name="Path 9848" d="M83.63,462.127a4.521,4.521,0,0,1-.155-.775c-.09-.581-.194-1.292-.336-2.209a13.492,13.492,0,0,0-.22-1.6c-.077-.581-.232-1.214-.362-1.886-.258-1.356-.53-2.906-.969-4.586-.207-.84-.413-1.718-.633-2.648s-.555-1.847-.84-2.829c-.53-1.963-1.292-4-2.041-6.174a119.77,119.77,0,0,0-6.123-13.589,121.717,121.717,0,0,0-7.944-12.62c-1.4-1.808-2.661-3.578-4.017-5.167-.659-.775-1.292-1.524-1.9-2.26l-1.847-1.989c-1.163-1.292-2.3-2.377-3.281-3.346-.491-.478-.956-.917-1.369-1.292s-.853-.736-1.214-1.072l-1.666-1.5a3.475,3.475,0,0,1-.555-.556,3.266,3.266,0,0,1,.646.452l1.731,1.408,1.292,1.033,1.421,1.292c1.008.943,2.183,2,3.358,3.294l1.9,1.976,1.938,2.235c1.382,1.524,2.674,3.307,4.095,5.167A114.788,114.788,0,0,1,72.5,425.52a114.073,114.073,0,0,1,6.11,13.679c.723,2.2,1.485,4.25,2,6.239.271.982.543,1.938.788,2.855s.413,1.821.607,2.674c.413,1.692.646,3.255.878,4.624.1.672.207,1.292.31,1.9s.116,1.124.168,1.615c.078.917.142,1.653.194,2.235a3.334,3.334,0,0,1,.077.788Z" transform="translate(-33.941 -291.824)" fill="#263238"/>
      <path id="Path_9849" data-name="Path 9849" d="M82.919,474.957a.943.943,0,0,1,0-.31A4.157,4.157,0,0,1,83,473.73c.077-.865.181-2.041.323-3.526.077-.775.155-1.628.245-2.583s.1-1.951.155-3.035c.078-2.183.284-4.663.22-7.414v-4.314c0-1.5-.155-3.048-.232-4.663-.1-3.229-.543-6.652-.943-10.256a161.05,161.05,0,0,0-4.857-23.083,160.832,160.832,0,0,0-8.512-21.959c-1.64-3.242-3.139-6.355-4.805-9.12-.814-1.4-1.537-2.777-2.351-4.043l-2.325-3.617c-1.434-2.351-2.958-4.314-4.224-6.1-.633-.878-1.214-1.718-1.783-2.467l-1.589-1.989-2.2-2.777-.581-.723c-.129-.168-.194-.258-.181-.271l.233.22c.155.194.362.413.607.7l2.286,2.7,1.653,1.963c.581.736,1.175,1.563,1.834,2.441,1.292,1.77,2.842,3.72,4.314,6.058.749,1.15,1.55,2.351,2.377,3.6s1.55,2.583,2.39,4.043c1.692,2.764,3.216,5.877,4.883,9.12a155.377,155.377,0,0,1,8.577,22.088,155.383,155.383,0,0,1,4.844,23.186c.375,3.63.788,7.066.878,10.334,0,1.615.194,3.178.194,4.689v4.314c0,2.764-.194,5.244-.31,7.427-.077,1.1-.116,2.118-.207,3.048s-.22,1.77-.31,2.583c-.194,1.485-.336,2.661-.452,3.513a6.5,6.5,0,0,1-.129.917C83,474.983,82.932,474.97,82.919,474.957Z" transform="translate(-33.592 -301.812)" fill="#263238"/>
      <path id="Path_9850" data-name="Path 9850" d="M102.088,330.08a1.394,1.394,0,0,1-.142.3l-.439.827-1.757,3.139c-.375.672-.827,1.421-1.292,2.26l-1.369,2.764c-.5.995-1.02,2.054-1.589,3.165s-1.046,2.364-1.6,3.643-1.175,2.583-1.744,4.017-1.111,2.893-1.705,4.418c-.3.762-.594,1.537-.891,2.338s-.555,1.615-.827,2.441c-.568,1.653-1.137,3.358-1.731,5.167-2.17,7.04-4.237,14.88-5.981,23.251s-2.868,16.366-3.746,23.69-1.292,13.95-1.447,19.531c-.142,2.777-.168,5.309-.181,7.518s0,4.12,0,5.683v4.534a.826.826,0,0,1,0,.31,1.91,1.91,0,0,1,0-.31v-.93c0-.878-.1-2.08-.181-3.591s-.116-3.475-.116-5.7,0-4.741.077-7.531c.09-5.593.594-12.232,1.292-19.582a232.516,232.516,0,0,1,3.694-23.755,238.233,238.233,0,0,1,6.058-23.251l1.744-5.1c.284-.827.568-1.653.853-2.454s.607-1.563.917-2.325c.594-1.537,1.188-3.01,1.744-4.431s1.214-2.725,1.783-4,1.111-2.493,1.653-3.63l1.64-3.152,1.343-2.893c.465-.84.93-1.563,1.292-2.235l1.86-3.087c.207-.31.375-.568.5-.788a1.523,1.523,0,0,1,.284-.245Z" transform="translate(-26.01 -311.062)" fill="#263238"/>
      <path id="Path_9851" data-name="Path 9851" d="M97.029,404.72a13.249,13.249,0,0,1-1.085,1.912c-.749,1.2-1.783,2.984-3,5.167a83.273,83.273,0,0,0-3.875,7.983A106.838,106.838,0,0,0,85.3,429.973a105.462,105.462,0,0,0-2.583,10.54c-.62,3.294-1.046,6.278-1.292,8.8s-.4,4.56-.465,5.981a12.2,12.2,0,0,1-.181,2.2,16.56,16.56,0,0,1-.077-2.209,59.133,59.133,0,0,1,.245-6.007,89.014,89.014,0,0,1,1.163-8.861,91.144,91.144,0,0,1,6.459-20.887,88.168,88.168,0,0,1,4.043-7.957c1.292-2.209,2.364-3.953,3.191-5.167A13.539,13.539,0,0,1,97.029,404.72Z" transform="translate(-24.451 -289.289)" fill="#263238"/>
      <path id="Path_9852" data-name="Path 9852" d="M22.88,386.69H68l-5.464,46.075H28.5Z" transform="translate(6.645 -223.453)" fill="#455a64"/>
      <path id="Path_9853" data-name="Path 9853" d="M24.15,418.51l3.836,4.973H62.165l3.94-4.818Z" transform="translate(7.016 -214.17)" fill="#263238"/>
      <path id="Path_9854" data-name="Path 9854" d="M103.026,452.286c0,.194-9.365.349-20.913.349S61.2,452.48,61.2,452.286s9.352-.336,20.913-.336S103.026,452.105,103.026,452.286Z" transform="translate(-30.138 -275.511)" fill="#fafafa"/>
      <path id="Path_9855" data-name="Path 9855" d="M103.026,454.666c0,.181-9.365.336-20.913.336s-20.913-.155-20.913-.336,9.352-.336,20.913-.336S103.026,454.485,103.026,454.666Z" transform="translate(-30.138 -274.817)" fill="#fafafa"/>
      <path id="Path_9856" data-name="Path 9856" d="M102.256,456.966c0,.181-9.042.336-20.177.336s-20.189-.155-20.189-.336,9.042-.336,20.189-.336S102.256,456.785,102.256,456.966Z" transform="translate(-29.936 -274.146)" fill="#fafafa"/>
      <path id="Path_9857" data-name="Path 9857" d="M437.772,451.71a20.423,20.423,0,0,1,12.711-1.55,10.644,10.644,0,0,1,6.278,2.8c1.563,1.731,1.86,4.779.065,6.265a6.02,6.02,0,0,1-3.966,1.008c-3.358,0-7.091-.633-9.765,1.4-1.537,1.15-2.583,3.061-4.392,3.63a4.3,4.3,0,0,1-4.753-2.118,7.363,7.363,0,0,1-.543-5.451A8.319,8.319,0,0,1,437.772,451.71Z" transform="translate(78.354 -276.15)" fill="#e8505b"/>
      <path id="Path_9858" data-name="Path 9858" d="M430.379,445.911c2.364,3.371,6.962,2.26,9.042.194s3.036-5.051,3.875-7.892c1.873-6.458,3.759-13.331,2.364-19.957a11.16,11.16,0,0,0-2.583-5.438,5.838,5.838,0,0,0-5.5-1.821c-2.312.607-3.746,2.88-4.792,5.038a47.587,47.587,0,0,0-4.7,20.422c0,3.294.375,6.743,2.235,9.455" transform="translate(76.886 -287.492)" fill="#e8505b"/>
      <path id="Path_9859" data-name="Path 9859" d="M430.978,448.335a12.258,12.258,0,0,0,1.912-11.3,21.7,21.7,0,0,0-6.691-9.714,35.988,35.988,0,0,0-11.987-7.079,12.917,12.917,0,0,0-5.4-.917,5.683,5.683,0,0,0-4.521,2.738c-1.292,2.4,0,5.322,1.292,7.75a92.182,92.182,0,0,0,7.88,11.987c2.364,3.048,5.063,6.045,8.654,7.427s7.337,1.214,9.249-1.292" transform="translate(69.79 -285.033)" fill="#e8505b"/>
      <path id="Path_9860" data-name="Path 9860" d="M429.76,484.467a6.949,6.949,0,0,0,.22-1.537c.1-1.111.245-2.519.413-4.185a58.733,58.733,0,0,1,.93-6.136,47.573,47.573,0,0,1,2.235-7.259,27,27,0,0,1,3.707-6.549,13.769,13.769,0,0,1,4.676-3.875,13.5,13.5,0,0,1,3.875-1.227,6.051,6.051,0,0,0,1.524-.22,7.522,7.522,0,0,0-1.55,0,12.269,12.269,0,0,0-4.108,1.072,13.808,13.808,0,0,0-4.934,3.875,26,26,0,0,0-3.875,6.691,44.479,44.479,0,0,0-2.222,7.363,52.4,52.4,0,0,0-.814,6.226c-.129,1.77-.181,3.216-.207,4.211A7.624,7.624,0,0,0,429.76,484.467Z" transform="translate(77.338 -275.077)" fill="#263238"/>
      <path id="Path_9861" data-name="Path 9861" d="M430.082,490.627a3.37,3.37,0,0,0,0-.71v-2.028c0-1.77,0-4.327.09-7.479.155-6.316.7-13.111,1.744-22.7.995-9.042,2.325-19.492,3.733-26.312.31-1.55.607-2.945.9-4.159s.5-2.286.723-3.139.349-1.46.478-1.976a3.984,3.984,0,0,0,.129-.7,2.248,2.248,0,0,0-.258.659l-.581,1.951c-.271.853-.53,1.9-.84,3.113s-.659,2.583-.982,4.159a230.309,230.309,0,0,0-3.94,24.413c-1.046,9.6-1.524,18.342-1.563,24.672,0,3.165,0,5.722.1,7.492,0,.827.1,1.5.129,2.041A2.585,2.585,0,0,0,430.082,490.627Z" transform="translate(77.364 -284.414)" fill="#263238"/>
      <path id="Path_9862" data-name="Path 9862" d="M435.1,472.566a13.961,13.961,0,0,0,0-2.118c-.078-1.369-.271-3.346-.646-5.761a75.407,75.407,0,0,0-1.886-8.4,68.064,68.064,0,0,0-3.5-9.933A53.18,53.18,0,0,0,418.73,430.3a24.741,24.741,0,0,0-2.428-2.247c-.375-.323-.7-.633-1.033-.878l-.943-.646a13.47,13.47,0,0,0-1.8-1.15,64.386,64.386,0,0,1,5.877,5.231A56.179,56.179,0,0,1,428.457,446.6a80.739,80.739,0,0,1,3.526,9.843,83.709,83.709,0,0,1,1.989,8.319c.439,2.39.7,4.34.853,5.7A15.331,15.331,0,0,0,435.1,472.566Z" transform="translate(72.35 -283.262)" fill="#263238"/>
    </g>
    <g id="Books" transform="translate(89.018 -0.001)">
      <path id="Path_9863" data-name="Path 9863" d="M143.762,229.628l2.506,3.19s12.4-19.854,26.79-21.895h0a2.829,2.829,0,0,0,2.583-.09l4.65-2.7a2.816,2.816,0,0,0,1.292-2.906h0s6.936-12.31,21.727-14.209l5.4-1.02L171.6,156,113.82,179.5Z" transform="translate(-103.783 -25.587)" fill="#e8505b"/>
      <path id="Path_9864" data-name="Path 9864" d="M132.3,220.882l4.379,5.851s10.088-22.747,35.186-24.349l-24.7-25.524S129.347,213.868,132.3,220.882Z" transform="translate(-98.488 -19.502)" fill="#ebebeb"/>
      <path id="Path_9865" data-name="Path 9865" d="M106.05,184.286s9.572-30.885,41.335-19.6l32.1,41.968s-32.926-5.968-40.663,21.158Z" transform="translate(-106.05 -23.776)" fill="#f5f5f5"/>
      <path id="Path_9866" data-name="Path 9866" d="M169.861,209.715s9.92-24.258,31.582-21.274l-31.582-36.71-31,17.464Z" transform="translate(-96.479 -26.833)" fill="#ebebeb"/>
      <path id="Path_9867" data-name="Path 9867" d="M138.093,171.209s-3.6-18.342,10.566-26.338l9.287-4.831,32.487,36.375S168,188.673,170.192,213.177Z" transform="translate(-96.822 -30.243)" fill="#f5f5f5"/>
      <path id="Path_9868" data-name="Path 9868" d="M170.141,206.01a10.532,10.532,0,0,1-1.292-1.576c-.9-1.137-2.067-2.583-3.488-4.443-2.971-3.875-6.962-9.042-11.367-14.726l-11.406-14.713-3.475-4.443a11.886,11.886,0,0,1-1.214-1.679,16.086,16.086,0,0,1,1.421,1.511c.878.995,2.118,2.48,3.643,4.314,3.036,3.668,7.13,8.835,11.561,14.6s8.4,11.018,11.225,14.855l3.307,4.573a12.522,12.522,0,0,1,1.085,1.731Z" transform="translate(-96.759 -23.128)" fill="#263238"/>
      <path id="Path_9869" data-name="Path 9869" d="M157.5,148.32a33.2,33.2,0,0,0-3.72,1.731,25.215,25.215,0,0,0-7.169,6.691,24.542,24.542,0,0,0-4.224,8.861c-.555,2.467-.478,4.069-.62,4.069a4.16,4.16,0,0,1-.1-1.124,13.731,13.731,0,0,1,.258-3.048,22.7,22.7,0,0,1,4.146-9.158,23.148,23.148,0,0,1,7.479-6.7,12.916,12.916,0,0,1,2.842-1.15A3.733,3.733,0,0,1,157.5,148.32Z" transform="translate(-95.663 -27.827)" fill="#263238"/>
      <path id="Path_9870" data-name="Path 9870" d="M169.657,160.2c0,.129-1.46.788-3.6,2.338a26.374,26.374,0,0,0-3.475,3.023,28.649,28.649,0,0,0-3.475,4.456,29.334,29.334,0,0,0-2.454,5.076,26.908,26.908,0,0,0-1.163,4.456c-.439,2.583-.375,4.263-.5,4.263a4.276,4.276,0,0,1-.129-1.163,12.136,12.136,0,0,1,0-1.356,13.681,13.681,0,0,1,.142-1.808,23.963,23.963,0,0,1,1.059-4.6,27.98,27.98,0,0,1,2.467-5.167,27.244,27.244,0,0,1,3.591-4.521,23.7,23.7,0,0,1,3.656-2.984,17.267,17.267,0,0,1,1.55-.943,9.659,9.659,0,0,1,1.292-.607,3.965,3.965,0,0,1,1.046-.465Z" transform="translate(-91.819 -24.362)" fill="#263238"/>
      <path id="Path_9871" data-name="Path 9871" d="M174.118,163.59c0,.129-1.6.853-3.875,2.583a31.607,31.607,0,0,0-3.772,3.333A39.7,39.7,0,0,0,162.6,174.3a37.539,37.539,0,0,0-2.945,5.4,27.127,27.127,0,0,0-1.55,4.779c-.62,2.79-.53,4.6-.659,4.6a4.043,4.043,0,0,1-.116-1.292,10.175,10.175,0,0,1,0-1.485,13.111,13.111,0,0,1,.258-1.951,24.8,24.8,0,0,1,1.434-4.921,34.3,34.3,0,0,1,2.971-5.541,35.832,35.832,0,0,1,3.966-4.857,29.144,29.144,0,0,1,3.875-3.281A17.812,17.812,0,0,1,171.5,164.7a10.966,10.966,0,0,1,1.292-.685,5.168,5.168,0,0,1,1.33-.426Z" transform="translate(-91.1 -23.373)" fill="#263238"/>
      <path id="Path_9872" data-name="Path 9872" d="M176.507,166.81c0,.116-1.6.84-3.875,2.583a30.043,30.043,0,0,0-3.694,3.436,37.682,37.682,0,0,0-3.707,4.947,38.184,38.184,0,0,0-2.79,5.516,30.206,30.206,0,0,0-1.447,4.831c-.581,2.816-.491,4.624-.633,4.624a5.166,5.166,0,0,1-.1-1.292,8.539,8.539,0,0,1,0-1.485,13.167,13.167,0,0,1,.233-1.963,26.9,26.9,0,0,1,1.292-4.973,36.786,36.786,0,0,1,2.79-5.645,35.287,35.287,0,0,1,3.875-5,25.839,25.839,0,0,1,3.875-3.4,13.291,13.291,0,0,1,1.653-1.085,9.546,9.546,0,0,1,1.292-.7,3.979,3.979,0,0,1,1.24-.4Z" transform="translate(-90.247 -22.434)" fill="#263238"/>
      <path id="Path_9873" data-name="Path 9873" d="M158.439,191.688c0,.116-1.8-.5-4.754-.762a24.878,24.878,0,0,0-11.3,1.692,24.62,24.62,0,0,0-9.236,6.73c-1.925,2.26-2.751,3.875-2.868,3.875a4.055,4.055,0,0,1,.53-1.2,19.728,19.728,0,0,1,1.963-2.971,23.018,23.018,0,0,1,20.964-8.59,20.072,20.072,0,0,1,3.488.736,4.381,4.381,0,0,1,1.214.491Z" transform="translate(-98.982 -15.587)" fill="#263238"/>
      <path id="Path_9874" data-name="Path 9874" d="M155.149,187.588c0,.116-1.8-.5-4.754-.762a24.026,24.026,0,0,0-20.551,8.422c-1.925,2.261-2.751,3.94-2.855,3.875a4.055,4.055,0,0,1,.53-1.2,19.725,19.725,0,0,1,1.963-2.971,23.018,23.018,0,0,1,20.964-8.59,20.07,20.07,0,0,1,3.488.736,4.379,4.379,0,0,1,1.214.491Z" transform="translate(-99.942 -16.784)" fill="#263238"/>
      <path id="Path_9875" data-name="Path 9875" d="M151.859,183.475c0,.129-1.8-.491-4.754-.749a24.026,24.026,0,0,0-20.551,8.422c-1.925,2.26-2.751,3.875-2.855,3.875a4.03,4.03,0,0,1,.517-1.2,20,20,0,0,1,1.976-2.984,23.044,23.044,0,0,1,20.964-8.577,20.072,20.072,0,0,1,3.488.736A4.676,4.676,0,0,1,151.859,183.475Z" transform="translate(-100.901 -17.979)" fill="#263238"/>
      <path id="Path_9876" data-name="Path 9876" d="M148.572,179.372c0,.129-1.808-.491-4.753-.749a23.987,23.987,0,0,0-20.551,8.422c-1.925,2.261-2.751,3.875-2.868,3.875a5.271,5.271,0,0,1,.53-1.188,19.014,19.014,0,0,1,1.976-2.984,23.044,23.044,0,0,1,20.952-8.577,19.1,19.1,0,0,1,3.5.736,4.674,4.674,0,0,1,1.214.465Z" transform="translate(-101.864 -19.172)" fill="#263238"/>
      <path id="Path_9877" data-name="Path 9877" d="M145.269,175.33c0,.129-1.8-.491-4.754-.749A23.987,23.987,0,0,0,119.978,183c-1.925,2.248-2.751,3.875-2.868,3.875a4.6,4.6,0,0,1,.53-1.188,19.726,19.726,0,0,1,1.963-2.984,23.1,23.1,0,0,1,20.964-8.667,19.881,19.881,0,0,1,3.488.749A3.967,3.967,0,0,1,145.269,175.33Z" transform="translate(-102.824 -20.375)" fill="#263238"/>
      <path id="Path_9878" data-name="Path 9878" d="M141.991,171.18c0,.116-1.8-.491-4.754-.749a23.987,23.987,0,0,0-20.59,8.422c-1.925,2.248-2.751,3.875-2.868,3.875a4.212,4.212,0,0,1,.53-1.2,20.411,20.411,0,0,1,1.963-2.971,23.018,23.018,0,0,1,21.042-8.6,19.88,19.88,0,0,1,3.488.749A4.173,4.173,0,0,1,141.991,171.18Z" transform="translate(-103.795 -21.572)" fill="#263238"/>
      <path id="Path_9879" data-name="Path 9879" d="M144.76,170.1l8.861,9.843s2.764-13.615,14.816-18.781l-9.365-9.985A23.251,23.251,0,0,0,144.76,170.1Z" transform="translate(-94.758 -26.993)" fill="#8c8c8c"/>
      <path id="Path_9880" data-name="Path 9880" d="M169.692,97.5l-1.292,2.881s18.2,1.485,24.775,10.734h0a2.17,2.17,0,0,0,1.008,1.8l3.539,2.26a2.183,2.183,0,0,0,2.48-.142h0A24.258,24.258,0,0,1,217.847,125l2.648,3.371,11.742-39.191L193.718,58.81Z" transform="translate(-87.862 -53.939)" fill="#e8505b"/>
      <path id="Path_9881" data-name="Path 9881" d="M169.693,85.955,167.2,91.122s19.376-1.15,29.477,15.668l8.861-26.261S173.491,81.4,169.693,85.955Z" transform="translate(-88.212 -47.603)" fill="#ebebeb"/>
      <path id="Path_9882" data-name="Path 9882" d="M185.861,55.325s24.84-4.431,28.418,21.6L196.6,114.2s-7.66-24.9-29.206-20.577Z" transform="translate(-88.156 -55.039)" fill="#f5f5f5"/>
      <path id="Path_9883" data-name="Path 9883" d="M190,108.961s20.383-1.808,26.067,14.209l14.209-35.044L207.025,73Z" transform="translate(-81.561 -49.799)" fill="#ebebeb"/>
      <path id="Path_9884" data-name="Path 9884" d="M207.593,73.067s11.432-9.042,22.05-2.105l6.665,4.689-13.576,35.535S206.2,100.038,190,110.333Z" transform="translate(-81.561 -51.158)" fill="#f5f5f5"/>
      <path id="Path_9885" data-name="Path 9885" d="M190,109.259a7.747,7.747,0,0,1,.594-1.511c.478-1.072,1.085-2.416,1.808-4l6.123-13.175,6.136-13.163,1.847-3.991a7.171,7.171,0,0,1,.762-1.434,7.748,7.748,0,0,1-.517,1.537c-.362.982-.943,2.364-1.666,4.082-1.447,3.423-3.552,8.112-5.955,13.253s-4.637,9.765-6.3,13.1c-.827,1.653-1.511,3-2,3.875A6.6,6.6,0,0,1,190,109.259Z" transform="translate(-81.561 -50.097)" fill="#263238"/>
      <path id="Path_9886" data-name="Path 9886" d="M225.543,77.781c-.077.09-1.085-.7-2.932-1.615a21.042,21.042,0,0,0-15.5-1.292c-1.95.607-3.087,1.292-3.139,1.124s.232-.22.736-.53a14.069,14.069,0,0,1,2.248-1.046,18.911,18.911,0,0,1,8.1-1.1,19.285,19.285,0,0,1,7.828,2.351,14.039,14.039,0,0,1,2.054,1.4C225.336,77.523,225.569,77.742,225.543,77.781Z" transform="translate(-77.487 -49.724)" fill="#263238"/>
      <path id="Path_9887" data-name="Path 9887" d="M224.746,81.1c-.078.09-1.1-.7-2.932-1.615a21.042,21.042,0,0,0-15.5-1.292c-1.963.607-3.087,1.292-3.152,1.124s.245-.22.749-.53a13.535,13.535,0,0,1,2.248-1.046,18.846,18.846,0,0,1,8.1-1.1A19.156,19.156,0,0,1,222.073,79a13.356,13.356,0,0,1,2.054,1.4C224.54,80.843,224.772,81.063,224.746,81.1Z" transform="translate(-77.724 -48.755)" fill="#263238"/>
      <path id="Path_9888" data-name="Path 9888" d="M223.252,84.385c-.065.1-1.085-.7-2.919-1.615a21.559,21.559,0,0,0-7.66-2.105,21.236,21.236,0,0,0-7.892.878c-1.95.62-3.087,1.292-3.139,1.137s.245-.233.749-.53a12.442,12.442,0,0,1,2.248-1.059,19.221,19.221,0,0,1,8.086-1.1,19.014,19.014,0,0,1,7.828,2.364,13.083,13.083,0,0,1,2.054,1.4C223.058,84.127,223.29,84.347,223.252,84.385Z" transform="translate(-78.167 -47.777)" fill="#263238"/>
      <path id="Path_9889" data-name="Path 9889" d="M222.316,87.7c-.078.1-1.1-.7-2.932-1.615a21.042,21.042,0,0,0-15.5-1.292c-1.963.62-3.087,1.292-3.152,1.137s.245-.233.749-.53a12.44,12.44,0,0,1,2.248-1.059,19.246,19.246,0,0,1,8.1-1.1,18.949,18.949,0,0,1,7.815,2.364A12.489,12.489,0,0,1,221.7,87C222.11,87.442,222.342,87.661,222.316,87.7Z" transform="translate(-78.433 -46.829)" fill="#263238"/>
      <path id="Path_9890" data-name="Path 9890" d="M221.382,91.2c-.065.09-1.085-.7-2.919-1.615a21.482,21.482,0,0,0-7.66-2.105,21.133,21.133,0,0,0-7.879.878c-1.963.607-3.087,1.292-3.152,1.124s.245-.22.749-.53a13.539,13.539,0,0,1,2.248-1.046,19.246,19.246,0,0,1,8.1-1.1,18.95,18.95,0,0,1,7.75,2.364,12.489,12.489,0,0,1,2.118,1.4C221.189,90.95,221.421,91.157,221.382,91.2Z" transform="translate(-78.713 -45.79)" fill="#263238"/>
      <path id="Path_9891" data-name="Path 9891" d="M220.931,95.283c-.077.1-1.175-.762-3.191-1.718a24.981,24.981,0,0,0-3.656-1.408,31.663,31.663,0,0,0-4.689-.943A28.831,28.831,0,0,0,204.6,91.1a22.215,22.215,0,0,0-3.875.62c-2.157.555-3.384,1.292-3.449,1.137a3.177,3.177,0,0,1,.827-.555,6.643,6.643,0,0,1,1.046-.5,10.8,10.8,0,0,1,1.447-.53,19.67,19.67,0,0,1,3.875-.788,27.332,27.332,0,0,1,4.909.065,27.837,27.837,0,0,1,4.805,1.02,21.392,21.392,0,0,1,3.681,1.576,10.979,10.979,0,0,1,1.292.788,6.976,6.976,0,0,1,.93.685C220.712,95.051,220.957,95.258,220.931,95.283Z" transform="translate(-79.437 -44.724)" fill="#263238"/>
      <path id="Path_9892" data-name="Path 9892" d="M219.635,98.1c-.077.1-1.175-.775-3.216-1.692a24.321,24.321,0,0,0-3.707-1.292,31,31,0,0,0-4.741-.788,29.592,29.592,0,0,0-4.805,0,23.032,23.032,0,0,0-3.875.71c-2.157.581-3.384,1.292-3.449,1.163s.271-.233.827-.555a7.886,7.886,0,0,1,1.046-.517,12.665,12.665,0,0,1,1.447-.555,21.016,21.016,0,0,1,3.875-.865,26.83,26.83,0,0,1,4.921-.09,26.5,26.5,0,0,1,4.857.865,20.01,20.01,0,0,1,3.746,1.485,12.446,12.446,0,0,1,1.292.762,7.2,7.2,0,0,1,.943.685C219.416,97.827,219.674,98.073,219.635,98.1Z" transform="translate(-79.859 -43.806)" fill="#263238"/>
      <path id="Path_9893" data-name="Path 9893" d="M193.882,94.99c-.116,0-.349-1.421-1.227-3.552a19.647,19.647,0,0,0-5.167-7.195,19.273,19.273,0,0,0-7.944-3.991c-2.248-.543-3.694-.543-3.694-.659a2.816,2.816,0,0,1,1.02-.09,15.268,15.268,0,0,1,2.777.284,17.9,17.9,0,0,1,13.5,11.483,13.822,13.822,0,0,1,.71,2.7,2.932,2.932,0,0,1,.026,1.02Z" transform="translate(-85.689 -47.906)" fill="#263238"/>
      <path id="Path_9894" data-name="Path 9894" d="M195.554,91.24c-.116,0-.336-1.421-1.227-3.552a18.859,18.859,0,0,0-13.15-11.2c-2.248-.53-3.707-.53-3.707-.646a2.816,2.816,0,0,1,1.02-.09,16.263,16.263,0,0,1,2.777.271,17.9,17.9,0,0,1,13.5,11.5,15.058,15.058,0,0,1,.723,2.7A2.7,2.7,0,0,1,195.554,91.24Z" transform="translate(-85.216 -49)" fill="#263238"/>
      <path id="Path_9895" data-name="Path 9895" d="M197.224,87.5c-.116,0-.349-1.421-1.292-3.552a18.859,18.859,0,0,0-13.1-11.212c-2.248-.53-3.707-.53-3.694-.646a2.816,2.816,0,0,1,1.02-.09,16.261,16.261,0,0,1,2.777.271A17.967,17.967,0,0,1,191.2,76.24a18.161,18.161,0,0,1,5.231,7.531,14.826,14.826,0,0,1,.71,2.7A2.933,2.933,0,0,1,197.224,87.5Z" transform="translate(-84.729 -50.094)" fill="#263238"/>
      <path id="Path_9896" data-name="Path 9896" d="M198.9,83.74c-.116,0-.336-1.421-1.292-3.552a18.846,18.846,0,0,0-13.163-11.2c-2.235-.53-3.694-.53-3.694-.646a2.816,2.816,0,0,1,1.02-.09,15.037,15.037,0,0,1,2.777.271,17.838,17.838,0,0,1,13.5,11.5,15.266,15.266,0,0,1,.723,2.687,2.765,2.765,0,0,1,.129,1.033Z" transform="translate(-84.259 -51.188)" fill="#263238"/>
      <path id="Path_9897" data-name="Path 9897" d="M200.566,79.99c-.116,0-.349-1.421-1.292-3.552a18.859,18.859,0,0,0-13.15-11.2c-2.248-.53-3.707-.53-3.694-.646a2.816,2.816,0,0,1,1.02-.09,13.976,13.976,0,0,1,2.777.271,17.89,17.89,0,0,1,13.5,11.5,16.231,16.231,0,0,1,.71,2.687A3,3,0,0,1,200.566,79.99Z" transform="translate(-83.769 -52.282)" fill="#263238"/>
      <path id="Path_9898" data-name="Path 9898" d="M202.211,76.228c-.116,0-.336-1.408-1.227-3.539a18.846,18.846,0,0,0-13.15-11.2c-2.248-.543-3.694-.53-3.694-.646a2.816,2.816,0,0,1,1.02-.09,13.978,13.978,0,0,1,2.777.271,17.89,17.89,0,0,1,13.5,11.5,13.976,13.976,0,0,1,.71,2.687A2.918,2.918,0,0,1,202.211,76.228Z" transform="translate(-83.27 -53.376)" fill="#263238"/>
      <path id="Path_9899" data-name="Path 9899" d="M354.79,193.822l-2.17,3.436s22.837,5.076,29.567,17.968h0a2.842,2.842,0,0,0,.969,2.467l4.095,3.488a2.79,2.79,0,0,0,3.165.258h0s13.912,2.441,20.667,15.746L413.821,242l21.8-47.793L392.121,149Z" transform="translate(-34.123 -27.629)" fill="#e8505b"/>
      <path id="Path_9900" data-name="Path 9900" d="M355.589,179.105l-4.069,6.084s24.814,1.938,34.682,25.059l15.836-31.789S361.182,173.977,355.589,179.105Z" transform="translate(-34.443 -19.564)" fill="#ebebeb"/>
      <path id="Path_9901" data-name="Path 9901" d="M382.568,143.331s32.293-1.292,32.293,32.4l-28.883,44.241S380.6,187,352.51,188.735Z" transform="translate(-34.155 -29.285)" fill="#f5f5f5"/>
      <path id="Path_9902" data-name="Path 9902" d="M378.37,212.307s26.183,1.292,30.575,22.7L433.048,193,406.31,169.59Z" transform="translate(-26.611 -21.623)" fill="#e0e0e0"/>
      <path id="Path_9903" data-name="Path 9903" d="M407.213,169.311s16.095-9.52,28.353,1.188l7.647,7.143-23.47,42.782s-19.04-17.064-41.412-6.833Z" transform="translate(-26.623 -22.842)" fill="#f5f5f5"/>
      <path id="Path_9904" data-name="Path 9904" d="M378.37,212.663a11.541,11.541,0,0,1,1.033-1.8l3.023-4.753c2.661-4.095,6.2-9.572,10.114-15.63l10.075-15.656,3.023-4.754a12.352,12.352,0,0,1,1.176-1.705,12.256,12.256,0,0,1-.943,1.834c-.646,1.175-1.628,2.829-2.855,4.883-2.454,4.082-5.955,9.662-9.907,15.759s-7.6,11.625-10.334,15.5l-3.2,4.65A12.251,12.251,0,0,1,378.37,212.663Z" transform="translate(-26.611 -21.979)" fill="#263238"/>
      <path id="Path_9905" data-name="Path 9905" d="M427.629,179.242c-.09.09-1.227-1.111-3.4-2.583a26.172,26.172,0,0,0-4.017-2.273,29.167,29.167,0,0,0-5.348-1.783,29.466,29.466,0,0,0-5.606-.633,26.356,26.356,0,0,0-4.6.387c-2.583.452-4.134,1.072-4.172.943a3.719,3.719,0,0,1,1.046-.5,11.181,11.181,0,0,1,1.292-.452,16.88,16.88,0,0,1,1.744-.452,23.782,23.782,0,0,1,4.689-.543,27.863,27.863,0,0,1,5.748.594,27.233,27.233,0,0,1,5.477,1.873,24.542,24.542,0,0,1,4.03,2.454c.543.388.982.8,1.4,1.15a9.761,9.761,0,0,1,.969.956,4.224,4.224,0,0,1,.749.865Z" transform="translate(-20.158 -21.109)" fill="#263238"/>
      <path id="Path_9906" data-name="Path 9906" d="M426.032,183.32c-.1.09-1.292-1.111-3.4-2.583a26.167,26.167,0,0,0-4.017-2.273,26.7,26.7,0,0,0-10.954-2.4,26.349,26.349,0,0,0-4.6.375c-2.583.452-4.133,1.072-4.185.956a3.759,3.759,0,0,1,1.059-.5,7.208,7.208,0,0,1,1.292-.452,14.884,14.884,0,0,1,1.757-.465,23.862,23.862,0,0,1,4.689-.53,27.021,27.021,0,0,1,5.748.581,27.38,27.38,0,0,1,5.464,1.886,22.707,22.707,0,0,1,4.03,2.441,15.772,15.772,0,0,1,1.395,1.163,7.746,7.746,0,0,1,.982.943,4.066,4.066,0,0,1,.736.865Z" transform="translate(-20.628 -19.916)" fill="#263238"/>
      <path id="Path_9907" data-name="Path 9907" d="M423.549,187.25c-.09.09-1.227-1.111-3.4-2.583a27.289,27.289,0,0,0-4.017-2.273,30.174,30.174,0,0,0-5.348-1.783,29.393,29.393,0,0,0-5.606-.62,27.911,27.911,0,0,0-4.6.375c-2.583.465-4.133,1.072-4.172.956a3.992,3.992,0,0,1,1.046-.5,9.172,9.172,0,0,1,1.292-.452,16.672,16.672,0,0,1,1.744-.465,23.977,23.977,0,0,1,4.689-.53,27.721,27.721,0,0,1,5.748.581,28.072,28.072,0,0,1,5.477,1.886,24,24,0,0,1,4.03,2.454,13.829,13.829,0,0,1,1.4,1.15,10.117,10.117,0,0,1,.982.943C423.316,186.9,423.588,187.211,423.549,187.25Z" transform="translate(-21.349 -18.77)" fill="#263238"/>
      <path id="Path_9908" data-name="Path 9908" d="M415.65,189.49" transform="translate(-15.736 -15.818)" fill="none" stroke="#4e585d" stroke-width="0.05"/>
      <path id="Path_9909" data-name="Path 9909" d="M394.64,184.88" transform="translate(-21.865 -17.162)" fill="none" stroke="#4e585d" stroke-width="0.05"/>
      <path id="Path_9910" data-name="Path 9910" d="M413.85,193.78" transform="translate(-16.261 -14.566)" fill="none" stroke="#4e585d" stroke-width="0.05"/>
      <path id="Path_9911" data-name="Path 9911" d="M392.84,189.17" transform="translate(-22.39 -15.911)" fill="none" stroke="#4e585d" stroke-width="0.05"/>
      <path id="Path_9912" data-name="Path 9912" d="M412,198.7" transform="translate(-16.801 -13.131)" fill="none" stroke="#4e585d" stroke-width="0.05"/>
      <path id="Path_9913" data-name="Path 9913" d="M389.11,193.1" transform="translate(-23.478 -14.765)" fill="none" stroke="#4e585d" stroke-width="0.05"/>
      <path id="Path_9914" data-name="Path 9914" d="M384.3,195.881c-.116,0-.129-1.86-.865-4.728a23.987,23.987,0,0,0-14.79-16.573c-2.764-1.059-4.624-1.292-4.6-1.408a4.534,4.534,0,0,1,1.292.09,21.467,21.467,0,0,1,3.462.865,22.992,22.992,0,0,1,15.087,16.908,18.556,18.556,0,0,1,.465,3.539A3.981,3.981,0,0,1,384.3,195.881Z" transform="translate(-30.788 -20.581)" fill="#263238"/>
      <path id="Path_9915" data-name="Path 9915" d="M387.074,191.411c-.116,0-.129-1.86-.865-4.728a24,24,0,0,0-14.777-16.573c-2.777-1.059-4.637-1.292-4.611-1.408a4.534,4.534,0,0,1,1.292.09,21.472,21.472,0,0,1,3.462.865,22.993,22.993,0,0,1,15.074,16.909,18.562,18.562,0,0,1,.465,3.539A3.579,3.579,0,0,1,387.074,191.411Z" transform="translate(-29.98 -21.885)" fill="#263238"/>
      <path id="Path_9916" data-name="Path 9916" d="M389.844,186.941c-.116,0-.129-1.86-.865-4.728A24,24,0,0,0,374.2,165.641c-2.777-1.059-4.637-1.292-4.612-1.408a4.534,4.534,0,0,1,1.292.09,21.467,21.467,0,0,1,3.462.865A23.044,23.044,0,0,1,389.5,182.1a20.929,20.929,0,0,1,.465,3.539A3.72,3.72,0,0,1,389.844,186.941Z" transform="translate(-29.172 -23.189)" fill="#263238"/>
      <path id="Path_9917" data-name="Path 9917" d="M392.627,182.471c-.129,0-.142-1.86-.878-4.728a24,24,0,0,0-14.777-16.573c-2.777-1.059-4.624-1.292-4.611-1.408a4.534,4.534,0,0,1,1.292.09,21.47,21.47,0,0,1,3.462.865A23.044,23.044,0,0,1,392.2,177.627a20.941,20.941,0,0,1,.465,3.539,4.5,4.5,0,0,1-.039,1.3Z" transform="translate(-28.364 -24.493)" fill="#263238"/>
      <path id="Path_9918" data-name="Path 9918" d="M395.4,178c-.129,0-.142-1.86-.878-4.728A24,24,0,0,0,379.742,156.7c-2.777-1.059-4.624-1.292-4.611-1.408a4.534,4.534,0,0,1,1.292.09,21.149,21.149,0,0,1,3.462.865,23.044,23.044,0,0,1,15.087,16.909,20.953,20.953,0,0,1,.465,3.539,4.5,4.5,0,0,1-.039,1.3Z" transform="translate(-27.556 -25.797)" fill="#263238"/>
      <path id="Path_9919" data-name="Path 9919" d="M398.167,173.531c-.129,0-.142-1.86-.878-4.728a24,24,0,0,0-14.777-16.573c-2.777-1.059-4.624-1.292-4.611-1.408a4.534,4.534,0,0,1,1.292.09,21.142,21.142,0,0,1,3.462.865,23.044,23.044,0,0,1,15.087,16.909,20.948,20.948,0,0,1,.465,3.539A4.5,4.5,0,0,1,398.167,173.531Z" transform="translate(-26.748 -27.101)" fill="#263238"/>
      <path id="Path_9920" data-name="Path 9920" d="M397.532,185.757,389.11,197.95s12.917-1.511,24.155,5.645l7.75-13.059s-11.935-9.378-23.535-4.779" transform="translate(-23.478 -17.277)" fill="#8c8c8c"/>
    </g>
    <g id="Hearts" transform="translate(159.32 8.332)">
      <path id="Path_9921" data-name="Path 9921" d="M342.007,76.138a9.584,9.584,0,0,0-.749-5.684,9.171,9.171,0,0,0-3.643-4.263,7.582,7.582,0,0,0-5.852-.7,7.479,7.479,0,0,0-3.061,1.821,7.337,7.337,0,0,0-1.369-2.945,7.479,7.479,0,0,0-5.167-2.855,9.249,9.249,0,0,0-5.451,1.292,9.571,9.571,0,0,0-3.875,4.185,11.535,11.535,0,0,0-.814,7.234,16.3,16.3,0,0,0,3.759,6.781c2.829,3.255,6.6,7.4,6.6,7.4s4.87-1.666,9.042-2.583a16.521,16.521,0,0,0,7.014-3.307A11.7,11.7,0,0,0,342.007,76.138Z" transform="translate(-116.339 -61.49)" fill="#e8505b"/>
      <path id="Path_9922" data-name="Path 9922" d="M316.594,100.143a4.456,4.456,0,0,0-1.679-2.157,4.276,4.276,0,0,0-2.519-.865,3.488,3.488,0,0,0-3.384,2.583,3.552,3.552,0,0,0-4.082-.814,4.392,4.392,0,0,0-1.912,1.873,4.47,4.47,0,0,0-.594,2.661,5.465,5.465,0,0,0,1.408,3.165,7.75,7.75,0,0,0,3.178,1.873c1.951.646,4.508,1.434,4.508,1.434s1.589-1.847,3.074-3.268a7.84,7.84,0,0,0,2.08-3.061A5.477,5.477,0,0,0,316.594,100.143Z" transform="translate(-119.072 -51.096)" fill="#e8505b"/>
      <path id="Path_9923" data-name="Path 9923" d="M174.807,248.759a4.547,4.547,0,0,0-.284-2.713,4.444,4.444,0,0,0-1.679-2.08,3.539,3.539,0,0,0-4.263.426,3.552,3.552,0,0,0-3.036-2.829,4.3,4.3,0,0,0-2.583.568,4.572,4.572,0,0,0-1.925,1.938,5.464,5.464,0,0,0-.465,3.436,7.841,7.841,0,0,0,1.705,3.281c1.292,1.576,3.061,3.6,3.061,3.6s2.338-.736,4.34-1.163a7.84,7.84,0,0,0,3.384-1.486,5.593,5.593,0,0,0,1.744-2.984Z" transform="translate(-160.475 -8.966)" fill="#e8505b"/>
      <path id="Path_9924" data-name="Path 9924" d="M372.215,248.764a2.945,2.945,0,0,0-1.059-1.292,2.829,2.829,0,0,0-1.589-.543,1.628,1.628,0,0,1-2.919,1.1,2.222,2.222,0,0,0-1.77,0,2.751,2.751,0,0,0-1.2,1.163,2.829,2.829,0,0,0-.375,1.679,3.475,3.475,0,0,0,.891,1.989,4.9,4.9,0,0,0,2,1.175l2.829.9s.995-1.175,1.925-2.067a4.819,4.819,0,0,0,1.292-1.912A3.5,3.5,0,0,0,372.215,248.764Z" transform="translate(-101.311 -7.395)" fill="#e8505b"/>
      <path id="Path_9925" data-name="Path 9925" d="M184.6,215.2a2.815,2.815,0,0,0-1.059-1.356,2.648,2.648,0,0,0-1.589-.543,2.2,2.2,0,0,0-1.615.71,2.273,2.273,0,0,0-.517.93,2.35,2.35,0,0,0-.8-.555,2.248,2.248,0,0,0-1.757,0,2.713,2.713,0,0,0-1.2,1.175,2.79,2.79,0,0,0-.375,1.666,3.436,3.436,0,0,0,.891,1.989,4.767,4.767,0,0,0,2,1.175c1.214.413,2.829.9,2.829.9s.995-1.163,1.925-2.054a4.908,4.908,0,0,0,1.292-1.925A3.462,3.462,0,0,0,184.6,215.2Z" transform="translate(-156.042 -17.205)" fill="#e8505b"/>
      <path id="Path_9926" data-name="Path 9926" d="M359.889,89.274a2.881,2.881,0,0,0-1.059-1.292,2.828,2.828,0,0,0-1.589-.543,2.273,2.273,0,0,0-1.615.71,2.184,2.184,0,0,0-.5.93,2.376,2.376,0,0,0-.8-.543,2.274,2.274,0,0,0-1.77,0A2.984,2.984,0,0,0,351,91.367a3.475,3.475,0,0,0,.891,1.989,4.9,4.9,0,0,0,2,1.175l2.829.9s.995-1.175,1.925-2.067a4.818,4.818,0,0,0,1.292-1.912A3.5,3.5,0,0,0,359.889,89.274Z" transform="translate(-104.898 -53.92)" fill="#e8505b"/>
      <path id="Path_9927" data-name="Path 9927" d="M361.9,227.038a8.28,8.28,0,0,0-1.2-4.831,7.982,7.982,0,0,0-3.578-3.307,6.458,6.458,0,0,0-7.582,1.86,6.6,6.6,0,0,0-1.473-2.4,6.523,6.523,0,0,0-4.741-1.938,7.879,7.879,0,0,0-4.56,1.692,8.254,8.254,0,0,0-2.971,4,10.192,10.192,0,0,0,0,6.329,14.3,14.3,0,0,0,3.875,5.464c2.777,2.583,6.459,5.722,6.459,5.722s4.03-1.925,7.557-3.191a14.351,14.351,0,0,0,5.722-3.565A10.1,10.1,0,0,0,361.9,227.038Z" transform="translate(-109.48 -16.295)" fill="#e8505b"/>
    </g>
  </g>
</svg>
