<svg xmlns="http://www.w3.org/2000/svg" width="414" height="311.784" viewBox="0 0 414 311.784">
  <g id="Group_1752" data-name="Group 1752" transform="translate(0 0.001)">
    <path id="Path_4760" data-name="Path 4760" d="M465.316,208.645c17.832-11.508,42.393-7.037,59.767,5.157a94.646,94.646,0,0,1,15.528,13.855c2.712,2.975,5.284,6.1,7.743,9.329.606.793,1.209,1.593,1.8,2.4q.607.82,1.2,1.651c4.988,6.933,9.561,14.227,14.037,21.455,11.175,18.043,22.642,36.622,39.67,49.29,3.508,2.609,8.4,4.959,12,2.467,3.119-2.164,3.253-6.713,2.543-10.442-2.639-13.814-12.158-25.261-22.271-35.033s-21.308-18.731-28.949-30.539-11.132-27.572-4.439-39.939c5.768-10.657,18.178-16.635,30.292-16.913s23.881,4.433,34.129,10.9,19.257,14.675,28.661,22.316c5.669,4.61,13.583,9.185,19.761,5.281,5.218-3.3,5.625-11.217,2.515-16.549s-8.66-8.683-13.981-11.807q-24.781-14.558-49.563-29.113c-5.069-2.975-10.248-6.044-13.989-10.58s-5.82-10.9-3.757-16.409c2.035-5.425,7.719-8.869,13.469-9.588s11.543.876,16.918,3.035c20.145,8.09,67.579,61.018,80.222,70.067,8.125,5.812,16.659,13.17,17.481,23.125,1.024,12.393-11.308,22.678-23.685,23.88s-24.37-4.175-35.428-9.865-22.343-11.962-34.755-12.752-26.337,5.845-29.279,17.928c-2.559,10.514,3.946,21.363,12.419,28.09,6.632,5.267,14.416,8.775,21.934,12.719,2.088,1.092,4.154,2.221,6.169,3.428a86.635,86.635,0,0,1,14.388,10.817,88.289,88.289,0,0,1,12.388,14.247,86.128,86.128,0,0,1,7.508,13.061q.484,1.046.939,2.121c.288.685.567,1.379.831,2.08,3.451,9.09,4.8,19.277.387,27.764-4.4,8.463-13.922,13.474-23.433,14.169a43.162,43.162,0,0,1-16.241-2.146,65.96,65.96,0,0,1-11.117-4.778c-16.467-8.838-29.5-22.852-41.408-37.26s-23.111-29.576-37.241-41.805-31.836-21.48-50.525-21.34S462,273.943,456.692,291.861c-7.737-13.331-12.968-28.529-12.278-43.925S452.366,217,465.316,208.645Z" transform="translate(-312.165 -125.66)" fill="#202124"/>
    <circle id="Ellipse_25" data-name="Ellipse 25" cx="2.053" cy="2.053" r="2.053" transform="translate(223.603 128.69)" fill="#1a73e8"/>
    <circle id="Ellipse_26" data-name="Ellipse 26" cx="3.174" cy="3.174" r="3.174" transform="translate(145.104 129.383)" fill="#ff6584"/>
    <circle id="Ellipse_27" data-name="Ellipse 27" cx="1.173" cy="1.173" r="1.173" transform="translate(376.548 105.298)" fill="#ff6584"/>
    <circle id="Ellipse_28" data-name="Ellipse 28" cx="1.173" cy="1.173" r="1.173" transform="translate(352.816 42.259)" fill="#ff6584"/>
    <path id="Path_4761" data-name="Path 4761" d="M842.278,453.79a12.54,12.54,0,0,1,1.336-2.732c2.088,1.092,4.154,2.221,6.169,3.428A86.64,86.64,0,0,1,864.17,465.3a12.509,12.509,0,0,1-21.893-11.513Z" transform="translate(-518.469 -294.658)" fill="#ff6584"/>
    <circle id="Ellipse_29" data-name="Ellipse 29" cx="1.2" cy="1.2" r="1.2" transform="translate(173.021 118.561)" fill="#f0f0f0"/>
    <circle id="Ellipse_30" data-name="Ellipse 30" cx="1.2" cy="1.2" r="1.2" transform="translate(319.991 29.808)" fill="#f0f0f0"/>
    <circle id="Ellipse_31" data-name="Ellipse 31" cx="1.2" cy="1.2" r="1.2" transform="translate(309.19 8.44)" fill="#f0f0f0"/>
    <circle id="Ellipse_32" data-name="Ellipse 32" cx="1.2" cy="1.2" r="1.2" transform="translate(394.131 88.089)" fill="#f0f0f0"/>
    <circle id="Ellipse_33" data-name="Ellipse 33" cx="1.2" cy="1.2" r="1.2" transform="translate(331.119 89.813)" fill="#f0f0f0"/>
    <circle id="Ellipse_34" data-name="Ellipse 34" cx="1.2" cy="1.2" r="1.2" transform="translate(297.682 204.23)" fill="#f0f0f0"/>
    <circle id="Ellipse_35" data-name="Ellipse 35" cx="1.2" cy="1.2" r="1.2" transform="translate(259.986 91.704)" fill="#f0f0f0"/>
    <circle id="Ellipse_36" data-name="Ellipse 36" cx="1.2" cy="1.2" r="1.2" transform="translate(258.302 69.021)" fill="#f0f0f0"/>
    <path id="Path_4762" data-name="Path 4762" d="M839.847,532.217c-1.781-.073-3.51-.082-5.177-.024-10.265.355-17.1,3.3-18.759,8.069s1.889,11.318,9.727,17.955q1.163.985,2.424,1.953A38.465,38.465,0,0,1,839.847,532.217Z" transform="translate(-504.928 -336.776)" fill="none"/>
    <path id="Path_4763" data-name="Path 4763" d="M843.749,535.977a38.21,38.21,0,0,1,9.657-15.092q.865-.829,1.78-1.6a38.49,38.49,0,0,1,21.39-8.947,86.126,86.126,0,0,1,7.508,13.061q.484,1.046.939,2.121c.288.685.567,1.379.831,2.08,3.451,9.091,4.8,19.277.387,27.764-4.4,8.463-13.922,13.474-23.433,14.169a43.16,43.16,0,0,1-16.241-2.146,38.4,38.4,0,0,1-4.869-16.37c-.047-.724-.07-1.449-.078-2.177A38.3,38.3,0,0,1,843.749,535.977Z" transform="translate(-518.487 -325.444)" fill="#1a73e8"/>
    <path id="Path_4764" data-name="Path 4764" d="M812.471,536.269c1.927-5.552,9.135-8.82,20.3-9.206,2.234-.079,4.691.85,7.014.114,11.269-3.574,21.492-1.238,29.838,6.234.288.685.567,1.379.831,2.08-.111-.042-.223-.08-.335-.119a115.2,115.2,0,0,0-32.114-6.594c-1.782-.072-3.907-1.1-5.176-.023-10.193,8.675-17.088,5.04-18.759,8.069-2.441,4.424,1.89,11.317,9.728,17.955q1.163.986,2.422,1.952c.007.728.03,1.453.078,2.177q-1.9-1.4-3.594-2.836C814.179,548.852,810.546,541.818,812.471,536.269Z" transform="translate(-503.087 -333.337)" fill="#e4e4e4"/>
    <circle id="Ellipse_37" data-name="Ellipse 37" cx="1.2" cy="1.2" r="1.2" transform="translate(350.42 239.854)" fill="#f0f0f0"/>
    <circle id="Ellipse_38" data-name="Ellipse 38" cx="1.2" cy="1.2" r="1.2" transform="translate(329.196 224.425)" fill="#f0f0f0"/>
    <circle id="Ellipse_39" data-name="Ellipse 39" cx="11.665" cy="11.665" r="11.665" transform="translate(334.968 206.754)" fill="#f0f0f0"/>
    <path id="Path_4765" data-name="Path 4765" d="M509.195,311.783c2.727.128,8.367,1.482,14.479,3.233s12.733,3.891,19.274,6.005q17.175,5.548,34.348,11.093,2.361.761,4.735,1.536c.606.793,1.209,1.593,1.8,2.4-1.391-.492-2.788-.967-4.18-1.421-5.95-1.933-11.112-3.209-16.887-4.968-8.886-2.7-18.261-6.257-27.353-9.565S515.888,313.225,509.195,311.783Z" transform="translate(-345.84 -222.325)" fill="#f0f0f0" opacity="0.3"/>
    <path id="Path_4766" data-name="Path 4766" d="M932.426,261.237l25.753,42.752-24.3-43.6a.889.889,0,1,0-1.453.85Z" transform="translate(-565.488 -195.262)" fill="#f0f0f0" opacity="0.3"/>
    <circle id="Ellipse_40" data-name="Ellipse 40" cx="1.2" cy="1.2" r="1.2" transform="translate(353.177 189.745)" fill="#f0f0f0"/>
    <circle id="Ellipse_41" data-name="Ellipse 41" cx="7.69" cy="7.69" r="7.69" transform="translate(136.281 172.804)" fill="#1a73e8"/>
    <path id="Path_4767" data-name="Path 4767" d="M440.543,467.019a5.5,5.5,0,0,1-3.515-7.664L423.1,445.645l9.931-2.119,11.7,13.343a5.529,5.529,0,0,1-4.191,10.149Z" transform="translate(-301.128 -290.746)" fill="#c8989f"/>
    <path id="Path_4768" data-name="Path 4768" d="M291.516,270.427l7.766,5.118,9.09,2.129s7.209,51.525,10.752,54.615.558,3.384,1.518,7.647,3.182,12.984,3.182,12.984c-21.579,13.376-40.858,15.009-57.305,2.2a3.87,3.87,0,0,1,1.81-4.5c2.781-1.728-3.251-8.5-.975-9.851s-1.746-11.494-1.746-11.494l.7-21.773-1.954-3.34,2.753-21.437,7.1-3.154,2.43-7.2Z" transform="translate(-218.681 -200.846)" fill="#1a73e8"/>
    <path id="Path_4769" data-name="Path 4769" d="M327.867,274.187l12.8,4.264s14.165-1.5,14.739,19.59-2.066,32.4-2.066,32.4S382.81,389.7,350.892,372.2l-9.327-36.726-9.613-57.677Z" transform="translate(-251.667 -202.799)" fill="#2f2e41"/>
    <path id="Path_4770" data-name="Path 4770" d="M354.584,329.208l6.642-.917s.641,10.014,3.818,11.531,2.106,1.767,2.481,3.374-2.825,6.058-.309,7.165S391.729,379.2,391.729,379.2l12.977-12.016c-.892-2.417-5.184-.45-5.453-3.012-.339-3.873-7.132-14.455-8.577-15.812s-.874-3.749-1.623-6.962-.229-.234-1.478-5.589-18.172-32.642-18.761-37.586-7.478-7.855-7.478-7.855l-5.355,1.249Z" transform="translate(-265.542 -211.202)" fill="#2f2e41"/>
    <path id="Path_4771" data-name="Path 4771" d="M68.581,583.417l7.817,2.052,11.638-29.176L76.5,553.264Z" transform="translate(-35.618 -287.341)" fill="#c8989f"/>
    <path id="Path_4772" data-name="Path 4772" d="M232.881,747.355l24.039,6.313.08-.3a9.674,9.674,0,0,0-6.9-11.814h0l-3.516-4.484-9.068,1.18-2.1-.551Z" transform="translate(-202.335 -443.198)" fill="#2f2e41"/>
    <path id="Path_4773" data-name="Path 4773" d="M151.955,594.479h8.082l3.845-31.175H151.953Z" transform="translate(-78.918 -292.555)" fill="#c8989f"/>
    <path id="Path_4774" data-name="Path 4774" d="M320.693,756.852h24.854v-.314a9.674,9.674,0,0,0-9.673-9.674h0l-4.54-3.444-8.47,3.445h-2.17Z" transform="translate(-247.94 -446.497)" fill="#2f2e41"/>
    <path id="Path_4775" data-name="Path 4775" d="M258.658,442.272c-1.952,2.44-.976,10.738-.976,10.738s-3.417,26.845-1.952,29.286-.976,4.393-2.44,7.81-2.929,11.714-2.929,11.714c-8.3,6.833-7.81,38.071-7.81,38.071l-2.929,27.821c.976,2.929,14.643,3.417,16.6,2.929s20.988-69.309,20.988-69.309-.976,66.381-.976,69.309,13.179,1.464,16.107,1.464,21.476-119.583,21.476-119.583v-6.833l-2.44-3.417S260.611,439.831,258.658,442.272Z" transform="translate(-205.836 -289.531)" fill="#2f2e41"/>
    <path id="Path_4776" data-name="Path 4776" d="M269.651,277.187l-11.986,7.637-5.8,4.86,7.69,49.026s-11.684,44.563,6.729,41.816,17.381-42.8,17.381-42.8Z" transform="translate(-212.196 -204.357)" fill="#2f2e41"/>
    <path id="Path_4777" data-name="Path 4777" d="M292.534,410.26a5.5,5.5,0,0,1-7.952-2.8l-19.535.472,5.384-8.61,17.726.872a5.529,5.529,0,0,1,4.378,10.07Z" transform="translate(-219.041 -267.787)" fill="#c8989f"/>
    <circle id="Ellipse_42" data-name="Ellipse 42" cx="15.438" cy="15.438" r="15.438" transform="translate(48.31 35.325)" fill="#c8989f"/>
    <path id="Path_4778" data-name="Path 4778" d="M263.618,195.607a8.5,8.5,0,0,1,8.14-3.967,11.116,11.116,0,0,1,18.625-6.484,3.457,3.457,0,0,1,3.38-.338,7.128,7.128,0,0,1,2.746,2.2,16,16,0,0,1,2.238,16.273c.385-1.4-1.019-2.719-2.437-3.034s-2.907-.017-4.345-.222c-1.844-.262-3.5-1.332-5.348-1.573a12.175,12.175,0,0,0-4.626.595,12.544,12.544,0,0,1-4.625.621c-1.554-.185-3.557,5.706-3.53,9.855.005.786-.157,1.8-.925,1.963-.946.205-1.495-1.1-2.4-1.456a1.666,1.666,0,0,0-2.044,1.087,2.717,2.717,0,0,0,.519,2.433,8.028,8.028,0,0,0,1.946,1.688l-.371.309a2.207,2.207,0,0,1-2.786.346,6.013,6.013,0,0,1-2-2.278,26.8,26.8,0,0,1-3.669-8.792A12.805,12.805,0,0,1,263.618,195.607Z" transform="translate(-217.381 -154.987)" fill="#2f2e41"/>
    <path id="Path_4779" data-name="Path 4779" d="M239.473,299.763l-6.937-5.945s-8.1,2.527-9.473,7.841c-10.81,13.823-16.632,29.966-18.2,48.091,14.113,5.33,31.4,7.221,49.987,7.69l-3.845-14.419-26.435-4.806Z" transform="translate(-187.786 -212.994)" fill="#2f2e41"/>
    <path id="Path_4780" data-name="Path 4780" d="M206.081,745.76l-3.706-5.955-.74,3.4c-.13.6-.26,1.2-.38,1.8-1.053-.9-2.173-1.73-3.268-2.528q-5.047-3.663-10.089-7.335l1.053,6.1a43.31,43.31,0,0,0,2.932,11.031c.178.389.37.774.577,1.149H208.1a5.04,5.04,0,0,0,.26-1.077.374.374,0,0,0,0-.072C208.609,749.951,207.321,747.754,206.081,745.76Z" transform="translate(-178.973 -442.201)" fill="#f2f2f2"/>
    <path id="Path_4781" data-name="Path 4781" d="M508.569,721.3l7.011-11.266,1.4,6.438c.245,1.128.491,2.273.718,3.41,1.991-1.7,4.11-3.274,6.183-4.783q9.548-6.929,19.087-13.876l-1.991,11.548c-1.228,7.111-2.51,14.367-5.547,20.869-.337.737-.7,1.464-1.091,2.173H504.75a9.536,9.536,0,0,1-.491-2.037.7.7,0,0,1-.009-.136C503.786,729.228,506.223,725.072,508.569,721.3Z" transform="translate(-343.242 -424.582)" fill="#e8e8e8"/>
    <path id="Path_4782" data-name="Path 4782" d="M461.092,639.693H428.9a5.539,5.539,0,0,1-5.533-5.533V521.22a5.539,5.539,0,0,1,5.533-5.533h32.192a5.539,5.539,0,0,1,5.533,5.533V634.16a5.539,5.539,0,0,1-5.533,5.533Z" transform="translate(-301.265 -328.223)" fill="#e8e8e8"/>
    <path id="Path_4783" data-name="Path 4783" d="M465.955,510.781H449.446a2.082,2.082,0,0,1-2.079-2.08v-5.934a2.082,2.082,0,0,1,2.08-2.08h16.508a2.082,2.082,0,0,1,2.08,2.08V508.7a2.082,2.082,0,0,1-2.08,2.08Z" transform="translate(-313.73 -320.433)" fill="#3f3d56"/>
    <path id="Path_4784" data-name="Path 4784" d="M368.767,772.8l-198.866.148a.572.572,0,1,1,0-1.145l198.866-.148a.572.572,0,0,1,0,1.145Z" transform="translate(-169.329 -461.16)" fill="#cacaca"/>
  </g>
</svg>
