<svg xmlns="http://www.w3.org/2000/svg" width="536" height="309.896" viewBox="0 0 536 309.896">
  <g id="Group_1757" data-name="Group 1757" transform="translate(0 -0.041)">
    <rect id="Rectangle_1711" data-name="Rectangle 1711" width="134.699" height="1.118" transform="translate(401.301 223.305)" fill="#3f3d56"/>
    <path id="Path_21900" data-name="Path 21900" d="M771.744,380.208l3.912,20.68,8.384,2.236L781.8,378.531Z" transform="translate(-340.404 -166.946)" fill="#a0616a"/>
    <path id="Path_21901" data-name="Path 21901" d="M855.744,380.208l3.912,20.68,8.384,2.236L865.8,378.531Z" transform="translate(-377.455 -166.946)" fill="#a0616a"/>
    <path id="Path_21902" data-name="Path 21902" d="M897.172,584.245s-8.943-.559-8.943,2.236-4.471,12.3-4.471,12.3-3.353,11.178,5.589,10.06,14.532-11.178,14.532-11.178l-2.236-10.619Z" transform="translate(-456.89 -354.216)" fill="#2f2e41"/>
    <path id="Path_21903" data-name="Path 21903" d="M983.995,582.746s-5.965-3.835-5.539-1.278.852,9.374,3.835,9.8,11.93,2.982,12.356,3.835,10.652,4.261,10.652-1.278-6.391-9.8-6.391-9.8l-7.243-5.539s-4.687-.426-5.539,2.556S983.995,582.746,983.995,582.746Z" transform="translate(-498.921 -351.686)" fill="#2f2e41"/>
    <path id="Path_21904" data-name="Path 21904" d="M876.38,335.555s-9.5-13.973-12.855-9.5,8.384,12.855,8.384,12.855Z" transform="translate(-447.971 -239.962)" fill="#a0616a"/>
    <path id="Path_21905" data-name="Path 21905" d="M884.62,355.841C884.06,355.282,874,345.78,874,345.78l7.266-5.03,8.384,8.384Z" transform="translate(-452.857 -246.834)" fill="#575a89"/>
    <path id="Path_21906" data-name="Path 21906" d="M890.183,290.25s-7.266.559-6.707,6.707,5.31,26.549,5.31,26.549l2.795,5.589S901.92,296.957,890.183,290.25Z" transform="translate(-457.023 -224.559)" fill="#575a89"/>
    <path id="Path_21907" data-name="Path 21907" d="M890.015,231.873l2.012,6.707h25.207l.727-7.266,2.18,7.266h3.242l.727-7.266,2.18,7.266H929.7l-3.206-7.722a62.268,62.268,0,0,1-3.38-11.426,21.526,21.526,0,0,0-21.081-17.182h0q-.446,0-.887.018c-14.128.573-23.177,15.368-17.756,28.428l3.272,7.884h2.683Z" transform="translate(-456.297 -185.744)" fill="#2f2e41"/>
    <path id="Path_21908" data-name="Path 21908" d="M885.573,359.75s-17.326,14.532-12.3,34.094,6.707,81.043,6.707,81.043l17.326-1.677V396.08l24.033,45.831,3.912,32.976,19.562-3.353-8.943-40.242-17.2-51.3-1.806-14.8Z" transform="translate(-452.134 -255.215)" fill="#2f2e41"/>
    <circle id="Ellipse_99" data-name="Ellipse 99" cx="11.737" cy="11.737" r="11.737" transform="translate(433.718 23.213)" fill="#a0616a"/>
    <path id="Path_21909" data-name="Path 21909" d="M905,248.427s5.03,18.444,2.236,20.68,19.562-7.266,19.562-7.266-9.5-10.619-8.384-15.091Z" transform="translate(-466.531 -205.372)" fill="#a0616a"/>
    <path id="Path_21910" data-name="Path 21910" d="M919.489,264.927s-8.949,7.7-17.609,8.32c0,0-11.455,6.212-10.9,6.771s2.236,8.384,2.236,8.384,2.795,4.315,2.795,13.414c0,1.118-3.912,16.767-3.912,16.767l32.976,4.471s8.943-29.064,9.5-39.124,3.912-20.68-1.118-21.239S919.489,264.927,919.489,264.927Z" transform="translate(-460.34 -212.371)" fill="#575a89"/>
    <path id="Path_21911" data-name="Path 21911" d="M959.266,266.186s3.912-3.354,6.148,4.471,11.178,32.417,8.943,37.447-15.65,27.387-15.65,27.387L952,331.02l13.414-25.151-7.825-17.885Z" transform="translate(-487.262 -213.63)" fill="#575a89"/>
    <path id="Path_21912" data-name="Path 21912" d="M946.861,381.75s-17.326,10.619-11.737,12.855,15.091-9.5,15.091-9.5Z" transform="translate(-479.328 -264.919)" fill="#a0616a"/>
    <path id="Path_21913" data-name="Path 21913" d="M774,38.5V50.237h4.471l1.677-5.03.419,5.03H793l1.677-5.03.419,5.03h5.17V38.5Z" transform="translate(-341.4 -16.964)" fill="#2f2e41"/>
    <path id="Path_21914" data-name="Path 21914" d="M894.212,310.25s-1.118,11.178.559,13.414S894.212,310.25,894.212,310.25Z" transform="translate(-461.611 -233.381)" opacity="0.2"/>
    <rect id="Rectangle_1712" data-name="Rectangle 1712" width="236.98" height="1.118" transform="translate(98.928 271.93)" fill="#3f3d56"/>
    <path id="Path_21915" data-name="Path 21915" d="M565.939,447.893,497.181,516.65a56.051,56.051,0,0,1-79.265,0c-.928-.928-1.822-1.884-2.672-2.867a54.146,54.146,0,0,1-3.907-5.03,55.209,55.209,0,0,1-8.853-21.239q-.478-2.49-.721-5.03-.26-2.708-.263-5.466a56.31,56.31,0,0,1,2.079-15.214q.713-2.557,1.671-5.03a55.928,55.928,0,0,1,12.665-19.389l30-30a8.382,8.382,0,0,1,11.855,11.855l-30,30a39.61,39.61,0,0,0-5.908,7.534,39,39,0,0,0-5.595,20.244,40.264,40.264,0,0,0,.375,5.466,38.223,38.223,0,0,0,1.04,5.03A39.275,39.275,0,0,0,485.326,504.8l17.282-17.282,30.74-30.74,20.736-20.736a39.349,39.349,0,0,0,4.4-50.314,8.386,8.386,0,1,1,13.755-9.6,56.147,56.147,0,0,1-6.3,71.765Z" transform="translate(-244.445 -260.856)" fill="#3f3d56"/>
    <path id="Path_21916" data-name="Path 21916" d="M745.794,228.816q0,.62-.017,1.241a55.791,55.791,0,0,1-4.656,21.239,54.131,54.131,0,0,1-2.515,5.03,56.2,56.2,0,0,1-9.228,12.123l-30,30a8.383,8.383,0,1,1-11.855-11.855l30-30c.089-.089.179-.179.263-.268A39.054,39.054,0,0,0,729,230.057c.017-.414.022-.827.022-1.241q0-1.912-.179-3.789a39.241,39.241,0,0,0-11.324-23.989c-.6-.6-1.207-1.174-1.839-1.721a39.286,39.286,0,0,0-51.879,0c-.632.548-1.241,1.123-1.839,1.721L593.21,269.8a39.333,39.333,0,0,0,0,55.556,8.382,8.382,0,1,1-11.855,11.855,56.112,56.112,0,0,1,0-79.265l68.758-68.758a56.108,56.108,0,0,1,87.308,10.133,53.779,53.779,0,0,1,2.778,5.03,55.574,55.574,0,0,1,5.466,20.68Q745.791,226.913,745.794,228.816Z" transform="translate(-316.547 -172.75)" fill="#3f3d56"/>
    <path id="Path_21917" data-name="Path 21917" d="M234.64,684.462c-2.56,9.465-11.331,15.327-11.331,15.327s-4.619-9.484-2.058-18.949,11.33-15.327,11.33-15.327S237.2,675,234.64,684.462Z" transform="translate(-164.599 -390.082)" fill="#8ab4f8"/>
    <path id="Path_21918" data-name="Path 21918" d="M203.53,684.462c2.56,9.465,11.331,15.327,11.331,15.327s4.619-9.484,2.058-18.949-11.33-15.327-11.33-15.327S200.969,675,203.53,684.462Z" transform="translate(-156.782 -390.082)" fill="#8ab4f8"/>
    <path id="Path_21919" data-name="Path 21919" d="M197.015,689.925c7.026,6.839,7.884,17.353,7.884,17.353s-10.533-.575-17.559-7.415-7.884-17.353-7.884-17.353S189.989,683.085,197.015,689.925Z" transform="translate(-146.505 -397.579)" fill="#3f3d56"/>
    <path id="Path_21920" data-name="Path 21920" d="M232.862,689.925c-7.026,6.839-7.884,17.353-7.884,17.353s10.533-.575,17.559-7.415,7.884-17.353,7.884-17.353S239.888,683.085,232.862,689.925Z" transform="translate(-166.584 -397.579)" fill="#3f3d56"/>
    <path id="Path_21921" data-name="Path 21921" d="M785.857,262.419a11.306,11.306,0,0,1-.223,2.233,11.2,11.2,0,1,1,.223-2.233Z" transform="translate(-404.117 -207.348)" fill="#3f3d56"/>
    <path id="Path_21922" data-name="Path 21922" d="M490.857,565.419a11.315,11.315,0,0,1-.223,2.233,11.2,11.2,0,1,1,.223-2.233Z" transform="translate(-273.997 -340.996)" fill="#3f3d56"/>
    <rect id="Rectangle_1713" data-name="Rectangle 1713" width="129.109" height="1.118" transform="translate(0 308.819)" fill="#3f3d56"/>
    <path id="Path_21923" data-name="Path 21923" d="M695.21,220.25h23.827c-.632.548-1.241,1.123-1.839,1.721l-3.309,3.309H690.18Z" transform="translate(-371.777 -193.683)" fill="#8ab4f8"/>
    <path id="Path_21924" data-name="Path 21924" d="M859.144,225.28H839.426a39.23,39.23,0,0,0-2.957-3.309c-.6-.6-1.207-1.174-1.839-1.721h21.736A53.807,53.807,0,0,1,859.144,225.28Z" transform="translate(-435.492 -193.683)" fill="#8ab4f8"/>
    <path id="Path_21925" data-name="Path 21925" d="M528.71,93.5h23.709l-5.03,5.03H523.68Z" transform="translate(-230.987 -41.223)" fill="#8ab4f8"/>
    <path id="Path_21926" data-name="Path 21926" d="M785.5,266.25a11.276,11.276,0,0,1,.129,5.03H763.724a11.278,11.278,0,0,1,.128-5.03Z" transform="translate(-404.117 -213.973)" fill="#8ab4f8"/>
    <path id="Path_21927" data-name="Path 21927" d="M875.126,270.039q0,.62-.017,1.241H858.337c.017-.414.022-.827.022-1.241q0-1.911-.179-3.789H875Q875.124,268.136,875.126,270.039Z" transform="translate(-445.879 -213.973)" fill="#8ab4f8"/>
    <path id="Path_21928" data-name="Path 21928" d="M481.71,140.5h23.709l-5.03,5.03H476.68Z" transform="translate(-210.256 -61.954)" fill="#8ab4f8"/>
    <path id="Path_21929" data-name="Path 21929" d="M861.725,313.25a54.111,54.111,0,0,1-2.515,5.03H838.39a38.807,38.807,0,0,0,4.186-5.03Z" transform="translate(-437.15 -234.704)" fill="#8ab4f8"/>
    <path id="Path_21930" data-name="Path 21930" d="M425.5,523.25a38.988,38.988,0,0,0-2.554,5.03H405.22q.713-2.557,1.671-5.03Z" transform="translate(-246.086 -327.332)" fill="#8ab4f8"/>
    <path id="Path_21931" data-name="Path 21931" d="M536.639,350.5l-5.03,5.03H507.9l5.03-5.03Z" transform="translate(-224.027 -154.582)" fill="#8ab4f8"/>
    <path id="Path_21932" data-name="Path 21932" d="M419.889,574.28h-17.2q-.478-2.49-.721-5.03h16.879A38.248,38.248,0,0,0,419.889,574.28Z" transform="translate(-244.652 -347.622)" fill="#8ab4f8"/>
    <path id="Path_21933" data-name="Path 21933" d="M490.857,572.045a11.312,11.312,0,0,1-.223,2.233l-21.91,0a11.275,11.275,0,0,1,.129-5.03H490.5A11.258,11.258,0,0,1,490.857,572.045Z" transform="translate(-273.997 -347.622)" fill="#8ab4f8"/>
    <path id="Path_21934" data-name="Path 21934" d="M490.639,396.5l-5.03,5.03H461.9l5.03-5.03Z" transform="translate(-203.737 -174.872)" fill="#8ab4f8"/>
    <path id="Path_21935" data-name="Path 21935" d="M451.428,621.28H423.007a54.146,54.146,0,0,1-3.907-5.03h23.05A38.888,38.888,0,0,0,451.428,621.28Z" transform="translate(-252.208 -368.353)" fill="#8ab4f8"/>
    <path id="Path_21936" data-name="Path 21936" d="M560.267,616.25l-5.03,5.03H526.62a38.887,38.887,0,0,0,9.278-5.03Z" transform="translate(-299.633 -368.353)" fill="#8ab4f8"/>
    <path id="Path_21937" data-name="Path 21937" d="M410.072,336.5c-4.273-7.22-12.727-7.557-12.727-7.557s-8.238-1.053-13.523,9.943c-4.926,10.25-11.724,20.146-1.094,22.545l1.92-5.976,1.189,6.421a41.6,41.6,0,0,0,4.548.078c11.383-.368,22.224.108,21.875-3.977C411.8,352.546,414.184,343.446,410.072,336.5Z" transform="translate(-233.682 -241.614)" fill="#2f2e41"/>
    <path id="Path_21938" data-name="Path 21938" d="M260.5,454.118l.559,14.532h10.06L270.561,453Z" transform="translate(-114.903 -199.793)" fill="#fbbebe"/>
    <path id="Path_21939" data-name="Path 21939" d="M402.629,442.427l-1.017,3.381-13.179,43.78-1.453,4.818,1.118,51.42L374.124,547.5s-.408-5.4-1.006-13.369c-1.2-15.784-3.169-41.667-4.309-55.752-.419-5.209-.721-8.8-.833-9.686-.559-4.471,6.707-26.828,6.707-26.828l14.532-1.118Z" transform="translate(-229.644 -290.943)" fill="#2f2e41"/>
    <path id="Path_21940" data-name="Path 21940" d="M370.173,648.884s-3.912-4.471-4.471-1.118-7.266,16.209-7.266,16.209-19.562,12.855-2.795,13.973c0,0,8.384-1.118,11.178-5.589,0,0,4.471-2.794,5.589-2.794s7.825-2.236,6.707-5.589-.559-15.65-.559-15.65Z" transform="translate(-221.222 -381.704)" fill="#2f2e41"/>
    <path id="Path_21941" data-name="Path 21941" d="M265.5,426.589l5.03,9.5,7.825-3.912L273.325,421Z" transform="translate(-117.108 -185.679)" fill="#fbbebe"/>
    <path id="Path_21942" data-name="Path 21942" d="M374.81,520.787s-4.169-9.11-5.31-23.2c8.093-9.043,17.885-19,17.885-19l11.737-.559,3.633-.279c.85,8.5-6.338,19.439-13.638,28.158A156.053,156.053,0,0,1,374.81,520.787Z" transform="translate(-230.33 -307.263)" opacity="0.2"/>
    <path id="Path_21943" data-name="Path 21943" d="M380.358,463.312s-35.771,31.3-30.74,44.154,19,28.5,19,28.5l10.8-6.443L369.179,505.79s4.291-3.806,9.515-9.444c8.5-9.176,19.469-23.207,18.431-33.592l-.559-19-9.5,1.118Z" transform="translate(-221.346 -292.266)" fill="#2f2e41"/>
    <path id="Path_21944" data-name="Path 21944" d="M396.31,614.427s-3.912,0-3.353,3.354,1.677,8.943,1.677,8.943-4.471,26.269,6.148,20.121,7.825-22.357,7.825-22.357,3.912-10.06-1.118-11.178-6.707-2.236-7.266-1.677S396.31,614.427,396.31,614.427Z" transform="translate(-240.652 -366.251)" fill="#2f2e41"/>
    <circle id="Ellipse_100" data-name="Ellipse 100" cx="10.06" cy="10.06" r="10.06" transform="translate(153.422 91.121)" fill="#fbbebe"/>
    <path id="Path_21945" data-name="Path 21945" d="M404.236,360.75s4.471,11.737,2.795,12.3S402,376.4,402,376.4l5.589,5.03,14.532-7.825s-6.707-8.943-6.148-12.855Z" transform="translate(-244.665 -255.656)" fill="#fbbebe"/>
    <path id="Path_21946" data-name="Path 21946" d="M409.965,379.75s-11.7,5.765-15.908,2.044c0,0-7.008-.367-8.125,3.545s1.118,7.266-1.677,8.384-4.751,4.192-3.074,9.222,1.4,5.869-.838,7.545-4.471,5.03-4.471,6.148-2.236,1.118-1.118,2.236-1.118,0,1.118,1.118,8.384-8.943,12.855-3.912,18.444,13.414,19.562,8.384,4.471-17.326,4.471-17.326,11.737-21.8,8.384-24.033S409.965,379.75,409.965,379.75Z" transform="translate(-232.509 -264.036)" fill="#cfcce0"/>
    <path id="Path_21947" data-name="Path 21947" d="M423.24,449.633s-6.148-1.118-7.825,2.795-11.178,12.855-5.03,13.414S421,456.34,421,456.34l6.148-1.118Z" transform="translate(-247.461 -294.796)" fill="#fbbebe"/>
    <path id="Path_21948" data-name="Path 21948" d="M440.266,385.75l7.309.407s3.31,3.505,3.869,6.859,11.178,28.5,4.471,31.3-21.239,4.471-21.239,4.471L433,420.962l9.5-3.353-6.707-13.973Z" transform="translate(-258.339 -266.683)" fill="#cfcce0"/>
    <path id="Path_21949" data-name="Path 21949" d="M264.677,374.561l9.194,22.984L263,374.561l9.5-10.06Z" transform="translate(-116.005 -160.757)" opacity="0.2"/>
    <path id="Path_21950" data-name="Path 21950" d="M256.143,427.766l3.832,4.882h-2.795Z" transform="translate(-112.981 -188.663)" opacity="0.2"/>
    <circle id="Ellipse_101" data-name="Ellipse 101" cx="6.113" cy="6.113" r="6.113" transform="translate(158.585 81.252)" fill="#2f2e41"/>
    <path id="Path_21951" data-name="Path 21951" d="M402.07,321.327a6.113,6.113,0,0,1,5.469-6.078,6.113,6.113,0,1,0,0,12.157A6.113,6.113,0,0,1,402.07,321.327Z" transform="translate(-244.129 -235.571)" fill="#2f2e41"/>
    <path id="Path_21952" data-name="Path 21952" d="M294.637,165.037l-8.352-4.375-11.534,1.79-2.387,10.539,5.941-.229,1.659-3.872V172.7l2.741-.106,1.591-6.164.994,6.562,9.744-.2Z" transform="translate(-120.136 -70.847)" fill="#2f2e41"/>
  </g>
</svg>
