<svg xmlns="http://www.w3.org/2000/svg" width="466.446" height="351.281" viewBox="0 0 466.446 351.281">
  <g id="Group_1762" data-name="Group 1762" transform="translate(0 0.001)">
    <path id="Path_4760" data-name="Path 4760" d="M467.972,219.158c20.091-12.966,47.763-7.928,67.338,5.81a106.641,106.641,0,0,1,17.5,15.611c3.056,3.352,5.953,6.871,8.724,10.511.683.893,1.362,1.8,2.029,2.706q.684.924,1.356,1.86c5.62,7.812,10.772,16.029,15.816,24.173,12.591,20.328,25.51,41.261,44.7,55.534,3.953,2.94,9.467,5.587,13.517,2.78,3.514-2.438,3.665-7.564,2.865-11.764-2.973-15.564-13.7-28.461-25.092-39.471S592.707,265.8,584.1,252.5s-12.543-31.065-5-45c6.5-12.007,20.481-18.742,34.129-19.056s26.906,4.994,38.453,12.278,21.7,16.534,32.292,25.143c6.387,5.194,15.3,10.348,22.264,5.95,5.879-3.717,6.338-12.638,2.834-18.646s-9.757-9.782-15.753-13.3q-27.92-16.4-55.841-32.8c-5.711-3.351-11.546-6.81-15.761-11.92s-6.557-12.285-4.233-18.487c2.293-6.112,8.7-9.993,15.176-10.8s13,.987,19.062,3.419c22.7,9.115,76.141,68.748,90.385,78.944,9.154,6.548,18.77,14.838,19.7,26.054,1.153,13.963-12.74,25.551-26.685,26.905s-27.458-4.7-39.916-11.114-25.174-13.477-39.158-14.367-29.673,6.585-32.988,20.2c-2.883,11.846,4.446,24.069,13.992,31.648,7.472,5.934,16.242,9.886,24.713,14.33,2.352,1.23,4.68,2.5,6.95,3.862a97.613,97.613,0,0,1,16.211,12.187,99.468,99.468,0,0,1,13.958,16.052,97.032,97.032,0,0,1,8.459,14.715q.545,1.178,1.058,2.389c.324.772.638,1.554.936,2.344,3.888,10.242,5.4,21.719.436,31.281-4.954,9.535-15.686,15.181-26.4,15.964a48.63,48.63,0,0,1-18.3-2.417,74.318,74.318,0,0,1-12.525-5.383c-18.553-9.957-33.24-25.747-46.654-41.98s-26.038-33.322-41.959-47.1-35.869-24.2-56.926-24.043-42.762,12.985-48.742,33.173c-8.717-15.02-14.611-32.143-13.833-49.49S453.381,228.575,467.972,219.158Z" transform="translate(-295.419 -125.66)" fill="#464646"/>
    <circle id="Ellipse_25" data-name="Ellipse 25" cx="2.313" cy="2.313" r="2.313" transform="translate(251.929 144.993)" fill="#1a73e8"/>
    <circle id="Ellipse_26" data-name="Ellipse 26" cx="3.577" cy="3.577" r="3.577" transform="translate(163.486 145.774)" fill="#ff6584"/>
    <circle id="Ellipse_27" data-name="Ellipse 27" cx="1.322" cy="1.322" r="1.322" transform="translate(424.25 118.637)" fill="#ff6584"/>
    <circle id="Ellipse_28" data-name="Ellipse 28" cx="1.322" cy="1.322" r="1.322" transform="translate(397.511 47.612)" fill="#ff6584"/>
    <path id="Path_4761" data-name="Path 4761" d="M842.365,454.136a14.125,14.125,0,0,1,1.505-3.078c2.352,1.23,4.68,2.5,6.95,3.862a97.613,97.613,0,0,1,16.211,12.187,14.093,14.093,0,0,1-24.666-12.971Z" transform="translate(-477.536 -274.845)" fill="#ff6584"/>
    <circle id="Ellipse_29" data-name="Ellipse 29" cx="1.352" cy="1.352" r="1.352" transform="translate(194.94 133.581)" fill="#f0f0f0"/>
    <circle id="Ellipse_30" data-name="Ellipse 30" cx="1.352" cy="1.352" r="1.352" transform="translate(360.528 33.584)" fill="#f0f0f0"/>
    <circle id="Ellipse_31" data-name="Ellipse 31" cx="1.352" cy="1.352" r="1.352" transform="translate(348.358 9.51)" fill="#f0f0f0"/>
    <circle id="Ellipse_32" data-name="Ellipse 32" cx="1.352" cy="1.352" r="1.352" transform="translate(444.061 99.249)" fill="#f0f0f0"/>
    <circle id="Ellipse_33" data-name="Ellipse 33" cx="1.352" cy="1.352" r="1.352" transform="translate(373.066 101.191)" fill="#f0f0f0"/>
    <circle id="Ellipse_34" data-name="Ellipse 34" cx="1.352" cy="1.352" r="1.352" transform="translate(335.392 230.103)" fill="#f0f0f0"/>
    <circle id="Ellipse_35" data-name="Ellipse 35" cx="1.352" cy="1.352" r="1.352" transform="translate(292.922 103.321)" fill="#f0f0f0"/>
    <circle id="Ellipse_36" data-name="Ellipse 36" cx="1.352" cy="1.352" r="1.352" transform="translate(291.024 77.765)" fill="#f0f0f0"/>
    <path id="Path_4762" data-name="Path 4762" d="M842.929,532.225c-2.007-.082-3.955-.092-5.832-.027-11.565.4-19.268,3.713-21.135,9.091s2.128,12.751,10.959,20.23q1.31,1.109,2.731,2.2A43.338,43.338,0,0,1,842.929,532.225Z" transform="translate(-465.583 -312.025)" fill="none"/>
    <path id="Path_4763" data-name="Path 4763" d="M844.019,539.225a43.053,43.053,0,0,1,10.881-17q.975-.933,2.006-1.8a43.367,43.367,0,0,1,24.1-10.081,97.042,97.042,0,0,1,8.459,14.715q.545,1.178,1.058,2.389c.324.772.638,1.554.936,2.344,3.888,10.242,5.4,21.72.436,31.281-4.954,9.535-15.686,15.181-26.4,15.964a48.629,48.629,0,0,1-18.3-2.417,43.269,43.269,0,0,1-5.486-18.444c-.053-.816-.079-1.632-.087-2.453A43.151,43.151,0,0,1,844.019,539.225Z" transform="translate(-477.552 -302.022)" fill="#8ab4f8"/>
    <path id="Path_4764" data-name="Path 4764" d="M812.535,537.629c2.171-6.255,10.292-9.937,22.872-10.372,2.517-.089,5.286.958,7.9.128,12.7-4.026,24.215-1.4,33.618,7.024.324.772.638,1.554.936,2.344-.125-.047-.251-.091-.377-.134-12.705-4.409-25.318-6.983-36.182-7.429-2.007-.081-4.4-1.242-5.832-.026-11.485,9.774-19.252,5.679-21.136,9.091-2.751,4.984,2.129,12.751,10.96,20.23q1.31,1.111,2.729,2.2c.008.82.034,1.637.087,2.453q-2.137-1.579-4.049-3.2C814.459,551.805,810.365,543.881,812.535,537.629Z" transform="translate(-463.958 -308.99)" fill="#e4e4e4"/>
    <circle id="Ellipse_37" data-name="Ellipse 37" cx="1.352" cy="1.352" r="1.352" transform="translate(394.811 270.239)" fill="#f0f0f0"/>
    <circle id="Ellipse_38" data-name="Ellipse 38" cx="1.352" cy="1.352" r="1.352" transform="translate(370.9 252.856)" fill="#f0f0f0"/>
    <circle id="Ellipse_39" data-name="Ellipse 39" cx="13.143" cy="13.143" r="13.143" transform="translate(377.403 232.946)" fill="#f0f0f0"/>
    <path id="Path_4765" data-name="Path 4765" d="M509.195,311.783c3.072.144,9.427,1.67,16.313,3.643s14.346,4.383,21.716,6.766q19.35,6.251,38.7,12.5,2.66.858,5.335,1.73c.683.893,1.362,1.8,2.028,2.706-1.567-.554-3.141-1.09-4.71-1.6-6.7-2.178-12.52-3.615-19.026-5.6-10.012-3.047-20.574-7.049-30.818-10.776S516.736,313.408,509.195,311.783Z" transform="translate(-325.146 -210.992)" fill="#f0f0f0" opacity="0.3"/>
    <path id="Path_4766" data-name="Path 4766" d="M932.465,261.435,961.48,309.6,934.1,260.477a1,1,0,1,0-1.637.958Z" transform="translate(-519.043 -187.102)" fill="#f0f0f0" opacity="0.3"/>
    <circle id="Ellipse_40" data-name="Ellipse 40" cx="1.352" cy="1.352" r="1.352" transform="translate(397.918 213.782)" fill="#f0f0f0"/>
    <circle id="Ellipse_41" data-name="Ellipse 41" cx="8.665" cy="8.665" r="8.665" transform="translate(153.545 194.695)" fill="#8ab4f8"/>
    <path id="Path_4767" data-name="Path 4767" d="M442.752,469.995a6.2,6.2,0,0,1-3.961-8.635L423.1,445.914l11.189-2.387,13.183,15.034a6.229,6.229,0,0,1-4.722,11.434Z" transform="translate(-285.676 -271.392)" fill="#c8989f"/>
    <path id="Path_4768" data-name="Path 4768" d="M294.957,270.427l8.75,5.767,10.241,2.4s8.123,58.052,12.114,61.534.628,3.812,1.71,8.615,3.585,14.629,3.585,14.629c-24.313,15.071-46.033,16.911-64.565,2.477a4.361,4.361,0,0,1,2.039-5.072c3.133-1.946-3.663-9.572-1.1-11.1s-1.968-12.95-1.968-12.95l.791-24.531-2.2-3.763,3.1-24.153,8-3.554,2.738-8.116Z" transform="translate(-212.895 -192.031)" fill="#8ab4f8"/>
    <path id="Path_4769" data-name="Path 4769" d="M327.867,274.187l14.427,4.8s15.959-1.685,16.606,22.072-2.327,36.506-2.327,36.506,33.2,66.759-2.763,47.042L343.3,343.232,332.47,278.249Z" transform="translate(-242.013 -193.755)" fill="#2f2e41"/>
    <path id="Path_4770" data-name="Path 4770" d="M354.584,334.129l7.483-1.034s.723,11.282,4.3,12.992,2.373,1.991,2.795,3.8-3.183,6.825-.348,8.073,27.618,32.492,27.618,32.492l14.621-13.538c-1-2.723-5.841-.507-6.144-3.394-.382-4.364-8.035-16.286-9.664-17.815s-.985-4.223-1.829-7.844-.258-.263-1.665-6.3-20.474-36.777-21.137-42.348-8.425-8.85-8.425-8.85l-6.034,1.407Z" transform="translate(-254.262 -201.174)" fill="#2f2e41"/>
    <path id="Path_4771" data-name="Path 4771" d="M68.581,587.236l8.807,2.312L90.5,556.677l-13-3.413Z" transform="translate(-31.442 -253.654)" fill="#c8989f"/>
    <path id="Path_4772" data-name="Path 4772" d="M232.881,748.659l27.084,7.112.09-.343a10.9,10.9,0,0,0-7.773-13.31h0l-3.961-5.053L238.1,738.4l-2.364-.621Z" transform="translate(-198.465 -405.97)" fill="#2f2e41"/>
    <path id="Path_4773" data-name="Path 4773" d="M151.955,598.428h9.105l4.332-35.124h-13.44Z" transform="translate(-69.666 -258.256)" fill="#c8989f"/>
    <path id="Path_4774" data-name="Path 4774" d="M320.693,758.554h28V758.2a10.9,10.9,0,0,0-10.9-10.9h0l-5.115-3.88-9.544,3.881h-2.444Z" transform="translate(-238.724 -408.883)" fill="#2f2e41"/>
    <path id="Path_4775" data-name="Path 4775" d="M261.07,442.409c-2.2,2.75-1.1,12.1-1.1,12.1s-3.849,30.246-2.2,33-1.1,4.949-2.75,8.8-3.3,13.2-3.3,13.2c-9.349,7.7-8.8,42.894-8.8,42.894l-3.3,31.346c1.1,3.3,16.5,3.849,18.7,3.3s23.647-78.09,23.647-78.09-1.1,74.79-1.1,78.09,14.848,1.65,18.148,1.65,24.2-134.732,24.2-134.732v-7.7l-2.75-3.849S263.269,439.659,261.07,442.409Z" transform="translate(-201.556 -270.319)" fill="#2f2e41"/>
    <path id="Path_4776" data-name="Path 4776" d="M271.9,277.187l-13.5,8.6-6.532,5.475,8.665,55.236s-13.164,50.209,7.581,47.113S287.7,345.4,287.7,345.4Z" transform="translate(-207.17 -195.131)" fill="#2f2e41"/>
    <path id="Path_4777" data-name="Path 4777" d="M296.016,411.646a6.2,6.2,0,0,1-8.959-3.159l-22.01.532,6.066-9.7,19.971.982a6.229,6.229,0,0,1,4.932,11.345Z" transform="translate(-213.212 -251.124)" fill="#c8989f"/>
    <circle id="Ellipse_42" data-name="Ellipse 42" cx="17.393" cy="17.393" r="17.393" transform="translate(54.43 39.8)" fill="#c8989f"/>
    <path id="Path_4778" data-name="Path 4778" d="M263.842,197.314a9.573,9.573,0,0,1,9.171-4.469A12.524,12.524,0,0,1,294,185.54a3.894,3.894,0,0,1,3.809-.381,8.03,8.03,0,0,1,3.094,2.484,18.022,18.022,0,0,1,2.522,18.335c.434-1.579-1.148-3.064-2.746-3.418s-3.275-.019-4.9-.25c-2.077-.3-3.945-1.5-6.026-1.772a13.718,13.718,0,0,0-5.213.67,14.133,14.133,0,0,1-5.211.7c-1.751-.208-4.007,6.429-3.977,11.1.006.886-.177,2.023-1.042,2.211-1.066.232-1.684-1.24-2.7-1.641a1.877,1.877,0,0,0-2.3,1.224,3.061,3.061,0,0,0,.584,2.741,9.045,9.045,0,0,0,2.193,1.9l-.418.348a2.487,2.487,0,0,1-3.139.39,6.775,6.775,0,0,1-2.254-2.566,30.2,30.2,0,0,1-4.134-9.906A14.427,14.427,0,0,1,263.842,197.314Z" transform="translate(-211.748 -151.549)" fill="#2f2e41"/>
    <path id="Path_4779" data-name="Path 4779" d="M243.857,300.516l-7.816-6.7s-9.126,2.848-10.673,8.834c-12.18,15.574-18.739,33.762-20.5,54.183,15.9,6.006,35.372,8.136,56.319,8.664l-4.332-16.246-29.784-5.415Z" transform="translate(-185.622 -202.756)" fill="#2f2e41"/>
    <path id="Path_4780" data-name="Path 4780" d="M208.384,747.1l-4.175-6.71-.834,3.834c-.146.672-.292,1.354-.428,2.031-1.186-1.013-2.448-1.95-3.682-2.849q-5.686-4.126-11.367-8.264l1.186,6.877c.731,4.235,1.495,8.556,3.3,12.428.2.439.417.872.65,1.294h17.621a5.681,5.681,0,0,0,.292-1.213.421.421,0,0,0,.005-.081C211.233,751.826,209.781,749.351,208.384,747.1Z" transform="translate(-177.842 -405.09)" fill="#343434"/>
    <path id="Path_4781" data-name="Path 4781" d="M509.123,723.842l7.9-12.694L518.6,718.4c.277,1.27.553,2.561.809,3.842,2.244-1.916,4.631-3.688,6.966-5.389q10.757-7.807,21.5-15.634l-2.244,13.011c-1.383,8.012-2.828,16.187-6.25,23.512-.379.83-.789,1.65-1.23,2.449H504.82a10.747,10.747,0,0,1-.553-2.3.788.788,0,0,1-.01-.154C503.734,732.776,506.48,728.093,509.123,723.842Z" transform="translate(-322.853 -389.536)" fill="#343434"/>
    <path id="Path_4782" data-name="Path 4782" d="M465.871,655.4H429.6a6.241,6.241,0,0,1-6.234-6.234V521.921a6.241,6.241,0,0,1,6.234-6.234h36.27a6.241,6.241,0,0,1,6.234,6.234V649.168a6.241,6.241,0,0,1-6.234,6.234Z" transform="translate(-285.797 -304.475)" fill="#343434"/>
    <path id="Path_4783" data-name="Path 4783" d="M468.31,512.059h-18.6a2.346,2.346,0,0,1-2.343-2.343V503.03a2.346,2.346,0,0,1,2.343-2.343h18.6a2.346,2.346,0,0,1,2.343,2.343v6.686a2.346,2.346,0,0,1-2.343,2.343Z" transform="translate(-296.8 -297.598)" fill="#3f3d56"/>
    <path id="Path_4784" data-name="Path 4784" d="M394.032,772.94l-224.059.166a.645.645,0,1,1,0-1.29l224.059-.166a.645.645,0,1,1,0,1.29Z" transform="translate(-169.329 -421.826)" fill="#b5b5b5"/>
  </g>
</svg>
