<svg xmlns="http://www.w3.org/2000/svg" width="351.927" height="283.745" viewBox="0 0 351.927 283.745">
  <g id="Group_1758" data-name="Group 1758" transform="translate(0 0)">
    <path id="Path_21953" data-name="Path 21953" d="M568.885,671.426a16.54,16.54,0,0,0-9.869-6.834c-3.611-.814-7.325-.675-11-.647L501.6,664.3c-3.975.031-7.787,3.475-7.6,7.6a7.73,7.73,0,0,0,7.6,7.6l40.792-.315c3.206-.025,6.413-.083,9.619-.072.72,0,1.437.04,2.156.048.174,0,.3,0,.389,0l.07.021c.375.1.76.174,1.138.272-.132,0,.245.239.434.319.026.051.081.142.174.283.129.242.512.978.528.955a34.094,34.094,0,0,1,1.419,4.463,25,25,0,0,1,1.2,7.19c.161,3.968,3.382,7.791,7.6,7.6,3.981-.178,7.775-3.346,7.6-7.6C574.438,685.5,573.179,677.44,568.885,671.426Z" transform="translate(-368.398 -420.405)" fill="#707070"/>
    <path id="Path_21954" data-name="Path 21954" d="M457.108,568.653c-.872-5.283-1.727-10.57-2.616-15.851-.9-5.357-2.744-10.262-6.912-13.778-1.114-.939-2.269-1.816-3.429-2.691-.408-.307-.815-.615-1.218-.929l-.06-.047-.169-.144c-1.737-1.47-3.416-3.006-5.015-4.639q-2.13-2.175-4.074-4.535-.486-.59-.959-1.19c-.054-.069-.347-.447-.539-.693s-.506-.692-.561-.77q-.553-.782-1.086-1.578A74.175,74.175,0,0,1,424.2,510.35q-.26-.595-.508-1.2l-.178-.489c-.352-.969-.7-1.936-1.026-2.916q-1.026-3.122-1.765-6.337-.365-1.587-.657-3.19-.151-.825-.282-1.652c-.014-.092-.1-.687-.15-1.024s-.106-.937-.116-1.029q-.084-.835-.148-1.671-.146-1.882-.2-3.77-.088-3.355.12-6.71c.079-1.257.191-2.51.329-3.761l.021-.193c.008-.056.018-.119.03-.2.1-.691.21-1.382.33-2.07a75.691,75.691,0,0,1,1.777-7.751q.517-1.81,1.123-3.59.27-.79.557-1.575c-.013.034.562-1.433.569-1.482,2.278-5.383,6-10.29,6.01-16.4,0-4.14-3.5-8.106-7.6-7.915a7.9,7.9,0,0,0-7.6,7.915c0,.093,0,.172,0,.249-.038.129-.07.236-.1.332-.444.965-.989,1.883-1.476,2.824-1.335,2.577-2.475,5.238-3.558,7.939a75.943,75.943,0,0,0-4.053,13.6,86.523,86.523,0,0,0-.46,30.9,79.747,79.747,0,0,0,26.182,46.725c1.173,1,2.374,1.973,3.587,2.922.5.393,1.008.779,1.516,1.162.24.181,1.236.966.8.586a4.843,4.843,0,0,1,1.58,1.8l.148.575c.171.668.332,1.334.467,2.011,1.176,5.916,1.994,11.932,2.976,17.886.675,4.091,5.712,6.754,9.352,5.528C456.035,576.962,457.832,573.037,457.108,568.653Z" transform="translate(-321.176 -300.476)" fill="#707070"/>
    <path id="Path_21955" data-name="Path 21955" d="M514.867,537.2a12.056,12.056,0,0,1-12.088-12v-8.672c-9.079,1.016-40.17.781-49.082-.651v8.976a12.088,12.088,0,1,1-24.176,0V507.23A77.543,77.543,0,0,1,461.49,362.266c2.1-.165,4.22-.248,6.29-.248,7.295,0,40.206,1.127,48.464,3.5l18.829-18.684a1.977,1.977,0,0,1,2.162-.431,1.948,1.948,0,0,1,1.228,1.828V351.2l3.666-3.631a1.972,1.972,0,0,1,2.16-.432,1.949,1.949,0,0,1,1.229,1.828v33.2A77.334,77.334,0,0,1,526.955,509.44V525.2A12.056,12.056,0,0,1,514.867,537.2ZM503.73,515.451v9.75a11.137,11.137,0,1,0,22.275,0V508.84l.271-.129a77.19,77.19,0,0,0,31.612-27.645,76.177,76.177,0,0,0-13.161-98.336l-.158-.142v-33.62a1,1,0,0,0-.638-.948,1.021,1.021,0,0,0-1.132.225l-5.287,5.236v-5.249a1,1,0,0,0-.638-.948,1.024,1.024,0,0,0-1.133.226L516.51,366.595l-.273-.086c-7.676-2.4-41.106-3.542-48.456-3.542-2.046,0-4.137.083-6.216.246a77.009,77.009,0,0,0-41.925,16.509,76.252,76.252,0,0,0,10.588,126.812l.245.136v18.183a11.138,11.138,0,1,0,22.275,0V514.739l.563.106c8.009,1.507,41.733,1.744,49.883.675Z" transform="translate(-313.612 -253.676)" fill="#3f3d56"/>
    <path id="Path_21956" data-name="Path 21956" d="M454.346,270.383,401.729,286.2a6.6,6.6,0,0,0,3.8,12.634l46.046-13.841.965-.29a32.08,32.08,0,0,1,3.939-14.188,2.929,2.929,0,0,0-.95-.247,3.026,3.026,0,0,0-1.178.119Z" transform="translate(-317.506 -213.785)" fill="#8ab4f8"/>
    <path id="Path_21957" data-name="Path 21957" d="M405.689,303.5a3.332,3.332,0,0,1-3.154-2.281l-3.29-9.929a3.326,3.326,0,0,1,2.111-4.2l42.825-14.193a3.326,3.326,0,0,1,4.2,2.111l3.29,9.929a3.314,3.314,0,0,1-1.992,4.162q-.059.022-.12.042l-42.824,14.192A3.328,3.328,0,0,1,405.689,303.5Z" transform="translate(-318.58 -215.083)" fill="#2f2e41"/>
    <path id="Path_21958" data-name="Path 21958" d="M545.05,233.42A33.275,33.275,0,0,0,511.8,265.658c-.009.337-.014.679-.014,1.022a33.26,33.26,0,1,0,33.26-33.26Zm0,65.57a32.344,32.344,0,0,1-32.31-32.31q0-.663.029-1.311A32.309,32.309,0,1,1,545.05,298.99Z" transform="translate(-377.739 -194.455)" fill="#3f3d56"/>
    <path id="Path_21959" data-name="Path 21959" d="M578.857,272.453a28.033,28.033,0,1,1-56.067,0c0-.889.043-1.763.123-2.628a28.033,28.033,0,0,1,55.943,2.628Z" transform="translate(-383.512 -200.228)" fill="#707070"/>
    <path id="Path_21960" data-name="Path 21960" d="M579.746,286.949a6.674,6.674,0,0,0-2.6-2.057,25.246,25.246,0,0,0-3.906-1.283v-7.631a11.116,11.116,0,0,1,5.554,2.533l1.549-3.3a10.246,10.246,0,0,0-3.022-1.867,14.852,14.852,0,0,0-3.834-.984V268.49H569.9V272.4a9.822,9.822,0,0,0-3.92,1.316,7.792,7.792,0,0,0-2.656,2.6,6.543,6.543,0,0,0-.945,3.464,5.921,5.921,0,0,0,1.088,3.706,6.894,6.894,0,0,0,2.708,2.148,25.037,25.037,0,0,0,3.972,1.316v7.312a11.873,11.873,0,0,1-6.609-2.637l-1.549,3.307a11.679,11.679,0,0,0,3.535,2.005,16.234,16.234,0,0,0,4.376.912v3.834h3.587v-3.906a9.283,9.283,0,0,0,5.326-2.442,6.457,6.457,0,0,0,1.986-4.8A5.728,5.728,0,0,0,579.746,286.949Zm-9.6-4.148a6.89,6.89,0,0,1-2.39-1.283,2.528,2.528,0,0,1-.846-1.986,3.2,3.2,0,0,1,.865-2.285,4.372,4.372,0,0,1,2.371-1.231Zm5.345,10.111a4.066,4.066,0,0,1-2.252,1.174V287.8a6.291,6.291,0,0,1,2.252,1.126,2.213,2.213,0,0,1,.774,1.758,3.233,3.233,0,0,1-.775,2.233Z" transform="translate(-404.087 -212.861)" fill="#8ab4f8"/>
    <path id="Path_21961" data-name="Path 21961" d="M410.552,390.852a3.337,3.337,0,0,1-3.219-2.478l-1.791-6.78a3.328,3.328,0,0,1,2.364-4.063L464.42,362.6a3.333,3.333,0,0,1,4.063,2.369L470,370.71l-.284.022a76.1,76.1,0,0,0-39.963,15.143l-.082.04L411.4,390.743A3.307,3.307,0,0,1,410.552,390.852Z" transform="translate(-321.916 -262.197)" fill="#2f2e41"/>
    <path id="Path_21962" data-name="Path 21962" d="M357.932,448.817a46.615,46.615,0,0,1-18.589-7.028,45.393,45.393,0,0,1-7.685-6.286,23.579,23.579,0,0,1-5.625-8.115,12.02,12.02,0,0,1,.157-8.918,11.562,11.562,0,0,1,6.257-6.236,11.937,11.937,0,0,1,9.054-.013,8.119,8.119,0,0,1,3.309,2.664,5.432,5.432,0,0,1,.86,1.786,3.645,3.645,0,0,1,.043,1.786,4.284,4.284,0,0,1-2.268,2.719,11.435,11.435,0,0,1-3.873,1.181c-1.359.185-3.311.354-4.4-.737a2.218,2.218,0,0,1-.519-.765,1.479,1.479,0,0,1-.082-.693c-.016.1.066-.224.061-.211-.017.048-.092.167.014-.015a1.6,1.6,0,0,1,.111-.172c-.036.047-.115.125.026-.009a.932.932,0,0,1,.434-.268c.066-.019.132-.034.2-.052.168-.046-.167,0,0,0,.066,0,.133,0,.2,0,.168-.008-.166-.046,0-.005.063.016.125.031.186.051.134.042-.095-.1,0,.007.106.123-.112-.12.009,0a2.2,2.2,0,0,1,.17.187,1.121,1.121,0,0,0,1.575,0,1.14,1.14,0,0,0,0-1.575c-1.1-1.361-3.268-1.025-4.379.126-1.417,1.467-.856,3.793.522,5.074,1.56,1.45,3.77,1.55,5.777,1.307a14.168,14.168,0,0,0,4.879-1.379,6.841,6.841,0,0,0,3.337-3.605,6.26,6.26,0,0,0-.5-5.117c-1.772-3.331-5.441-5.039-9.068-5.335a14.165,14.165,0,0,0-10.367,3.4,14.328,14.328,0,0,0-4.7,9.539,16.337,16.337,0,0,0,3.307,10.555,40.211,40.211,0,0,0,7.973,8.245,48.689,48.689,0,0,0,20.342,9.594q1.327.274,2.668.469a1.15,1.15,0,0,0,1.37-.778,1.122,1.122,0,0,0-.778-1.37Z" transform="translate(-278.656 -286.67)" fill="#3f3d56"/>
    <path id="Path_21963" data-name="Path 21963" d="M581.012,390.753q-14.569-.206-29.047.74c-3.3.215-6.153,1.381-6.153,3.341,0,1.639,2.832,3.558,6.153,3.341q14.47-.945,29.047-.739C588.934,397.548,588.93,390.865,581.012,390.753Z" transform="translate(-395.595 -277.013)" fill="#707070"/>
    <path id="Path_21964" data-name="Path 21964" d="M561.284,396.551c-1.05,0-25.708-.039-25.708-3.445s24.658-3.445,25.708-3.445,25.708.039,25.708,3.445S562.334,396.551,561.284,396.551Zm-24.744-3.445c.675,1.033,9.739,2.495,24.744,2.495s24.069-1.462,24.744-2.495c-.675-1.032-9.739-2.495-24.744-2.495s-24.069,1.462-24.744,2.495Z" transform="translate(-390.223 -276.459)" fill="#3f3d56"/>
    <path id="Path_21965" data-name="Path 21965" d="M754.234,530.514c5.458-.152,12.252-.341,17.486-4.164A13.429,13.429,0,0,0,777,516.323a9.032,9.032,0,0,0-3.072-7.419c-2.734-2.31-6.725-2.852-11.027-1.588l4.457-32.57-3.272-.448-5.24,38.29,2.732-1.254c3.168-1.453,7.516-2.192,10.217.091a5.8,5.8,0,0,1,1.9,4.781,10.15,10.15,0,0,1-3.932,7.476c-4.073,2.975-9.488,3.359-15.63,3.531Z" transform="translate(-504.939 -320.881)" fill="#3f3d56"/>
    <rect id="Rectangle_1714" data-name="Rectangle 1714" width="17.786" height="3.302" transform="translate(222.464 156.674)" fill="#3f3d56"/>
    <path id="Path_21966" data-name="Path 21966" d="M428.281,429.154a3.332,3.332,0,0,1-3.28-2.812l-1.086-6.928a3.33,3.33,0,0,1,2.771-3.8l57.745-9.048a3.329,3.329,0,0,1,3.8,2.771l1.086,6.929a3.33,3.33,0,0,1-2.771,3.8L428.8,429.113A3.372,3.372,0,0,1,428.281,429.154Z" transform="translate(-331.596 -285.31)" fill="#2f2e41"/>
    <circle id="Ellipse_102" data-name="Ellipse 102" cx="24.232" cy="24.232" r="24.232" transform="translate(48.554 14.185)" fill="#8ab4f8"/>
    <path id="Path_21967" data-name="Path 21967" d="M408.535,228.047a5.747,5.747,0,0,0,2.075-1.272,3.865,3.865,0,0,0,1.071-3.08,2.6,2.6,0,0,0-1.194-1.979,3.362,3.362,0,0,0-3.206.023l-.135-9.459-.95.014.159,11.12.723-.474a2.878,2.878,0,0,1,2.911-.414,1.67,1.67,0,0,1,.747,1.278,2.92,2.92,0,0,1-.8,2.3c-1.03,1.022-2.555,1.365-4.295,1.678l.168.935A15.662,15.662,0,0,0,408.535,228.047Z" transform="translate(-322.029 -183.36)" fill="#2f2e41"/>
    <rect id="Rectangle_1715" data-name="Rectangle 1715" width="5.118" height="0.95" transform="matrix(0.989, -0.15, 0.15, 0.989, 89.844, 29.023)" fill="#2f2e41"/>
    <rect id="Rectangle_1716" data-name="Rectangle 1716" width="5.118" height="0.95" transform="matrix(0.989, -0.15, 0.15, 0.989, 73.872, 31.442)" fill="#2f2e41"/>
    <path id="Path_21968" data-name="Path 21968" d="M392.132,363.468a4.291,4.291,0,0,1-4.008-2.782l-16.708-44.744a22.109,22.109,0,0,1,12.964-28.415l13.585-5.073a4.256,4.256,0,0,1,3.268.113,4.2,4.2,0,0,1,2.221,2.369L434.4,343.372a4.277,4.277,0,0,1-2.5,5.53L393.627,363.2A4.264,4.264,0,0,1,392.132,363.468Z" transform="translate(-303.331 -220.048)" fill="#2f2e41"/>
    <path id="Path_21969" data-name="Path 21969" d="M420.158,283.673l30.708,41.065L430.088,284.1a3.839,3.839,0,0,0-4.917-2.3Z" transform="translate(-329.645 -219.727)" fill="#707070"/>
    <path id="Path_21970" data-name="Path 21970" d="M455.107,333.174l-54.829-3.532a6.595,6.595,0,1,1,.848-13.162l54.829,3.531a3.088,3.088,0,0,1,2.884,3.28l-.451,7A3.089,3.089,0,0,1,455.107,333.174Z" transform="translate(-315.972 -238.042)" fill="#8ab4f8"/>
    <path id="Path_21971" data-name="Path 21971" d="M438.243,332.639q-.109,0-.218-.007h0L393,329.732A3.326,3.326,0,0,1,389.9,326.2l.77-11.954a3.326,3.326,0,0,1,3.533-3.105l45.023,2.9a3.33,3.33,0,0,1,3.105,3.533l-.77,11.954a3.335,3.335,0,0,1-2.16,2.9,3.291,3.291,0,0,1-1.155.209Z" transform="translate(-313.759 -235.243)" fill="#2f2e41"/>
    <path id="Path_21972" data-name="Path 21972" d="M351.153,173.716c3.188-2.742,7.566-.289,11.221-.718,3.5-.411,6.259-3.548,6.965-6.881.823-3.889-1.2-7.784-4.17-10.209a15.442,15.442,0,0,0-11.674-2.926c-4.693.563-8.986,2.751-12.837,5.4a57.9,57.9,0,0,0-10.188,8.633,22.274,22.274,0,0,0-5.787,10.676,14.647,14.647,0,0,0,2.023,10.907,11.5,11.5,0,0,0,4.5,3.709c1.871.919,3.866,1.575,5.679,2.614,2.741,1.57,5.4,4.827,4.546,8.216a4.653,4.653,0,0,1-1.058,1.991c-.613.681-1.719-.219-1.1-.9a3.923,3.923,0,0,0,.462-4.229,7.732,7.732,0,0,0-3.437-3.779c-1.9-1.085-3.992-1.754-5.936-2.742a12.84,12.84,0,0,1-4.709-3.9,15.88,15.88,0,0,1-2.5-11.337,22.459,22.459,0,0,1,5.45-11.252,56.111,56.111,0,0,1,10.288-9.1,33.123,33.123,0,0,1,13.233-6.13,17.745,17.745,0,0,1,12.468,2.006,13.106,13.106,0,0,1,6.341,9.953,10.565,10.565,0,0,1-4.93,9.475,9.076,9.076,0,0,1-5.421,1.256c-2.025-.13-4.052-.75-6.09-.578a4.248,4.248,0,0,0-2.5,1.011c-.7.6-1.527-.561-.836-1.155Z" transform="translate(-278.644 -151.412)" fill="#2f2e41"/>
    <path id="Path_21973" data-name="Path 21973" d="M581.024,747.338h-350.8a.566.566,0,1,1,0-1.131h350.8a.566.566,0,1,1,0,1.131Z" transform="translate(-229.662 -463.594)" fill="#3f3d56"/>
  </g>
</svg>
