<svg xmlns="http://www.w3.org/2000/svg" width="409.886" height="267.257" viewBox="0 0 409.886 267.257">
  <g id="Group_1761" data-name="Group 1761" transform="translate(-0.027 -0.028)">
    <path id="Path_49315" data-name="Path 49315" d="M875.77,671.159h-6.624A3.145,3.145,0,0,1,866,668.018V612.809a3.145,3.145,0,0,1,3.142-3.142h6.624a3.145,3.145,0,0,1,3.142,3.142v55.209a3.145,3.145,0,0,1-3.142,3.142Z" transform="translate(-541.656 -404.357)" fill="#8ab4f8"/>
    <path id="Path_49316" data-name="Path 49316" d="M906.962,671.159h-6.624a3.145,3.145,0,0,1-3.142-3.142V612.809a3.145,3.145,0,0,1,3.142-3.142h6.624a3.145,3.145,0,0,1,3.142,3.142v55.209A3.145,3.145,0,0,1,906.962,671.159Z" transform="translate(-558.849 -404.357)" fill="#8ab4f8"/>
    <path id="Path_49317" data-name="Path 49317" d="M887.857,637.4H862.275a3.819,3.819,0,0,1-3.815-3.815V626.4a3.819,3.819,0,0,1,3.815-3.815h25.582a3.819,3.819,0,0,1,3.815,3.815v7.181a3.819,3.819,0,0,1-3.815,3.815Z" transform="translate(-537.498 -411.477)" fill="#2f2e41"/>
    <path id="Path_49318" data-name="Path 49318" d="M900.8,335.411c.782-7.791,5.9-15.241,13.719-17.269a16.74,16.74,0,0,1,11.433,1.037,15.137,15.137,0,0,1,7.161,7.706,21.534,21.534,0,0,1,1.527,10.462A27.528,27.528,0,0,1,931,348.369a57.212,57.212,0,0,1-7.771,10.24c-2.948,3.22-6.284,6.181-8.765,9.8-2.2,3.206-3.97,7.559-1.8,11.249a8.308,8.308,0,0,0,8.161,3.812,6.92,6.92,0,0,0,2.22-.737c.764-.408,1.445.754.68,1.163a9.312,9.312,0,0,1-9.258-.544,8.965,8.965,0,0,1-3.981-9.222c.676-4.18,3.59-7.769,6.389-10.777,2.923-3.143,5.985-6.144,8.693-9.483a37.892,37.892,0,0,0,6.494-10.959,22.919,22.919,0,0,0,1.171-10.5,16.429,16.429,0,0,0-4.1-9.237,13.964,13.964,0,0,0-10.046-4.239,15.8,15.8,0,0,0-10.588,3.893,19.184,19.184,0,0,0-5.847,9.748,19.753,19.753,0,0,0-.5,2.838c-.086.854-1.433.863-1.346,0Z" transform="translate(-560.834 -243.361)" fill="#2f2e41"/>
    <path id="Path_49319" data-name="Path 49319" d="M900.419,348.117l-6.393-2.111a2.468,2.468,0,1,1,1.548-4.687l6.393,2.111a2.468,2.468,0,0,1-1.548,4.687Z" transform="translate(-556.168 -256.376)" fill="#2f2e41"/>
    <rect id="Rectangle_1813" data-name="Rectangle 1813" width="145.428" height="1.006" transform="translate(264.485 266.28)" fill="#3f3d56"/>
    <path id="Path_49320" data-name="Path 49320" d="M565.514,416.606a51.432,51.432,0,0,1-11.534-1.311,50.766,50.766,0,0,1-5.752-1.7h0l-.079-.027a51.081,51.081,0,0,1-7.018-3.161c-.58-.312-1.166-.646-1.74-.992-.4-.234-.784-.473-1.174-.718a51.167,51.167,0,1,1,78.5-43.259h0a51.42,51.42,0,0,1-24.572,43.716c-.879.536-1.785,1.05-2.77,1.57-1.339.709-2.708,1.354-4.071,1.921l-.253.108c-.472.2-.944.381-1.42.558-.217.084-.445.171-.673.253a51.14,51.14,0,0,1-17.389,3.038Zm-17.13-3.9.075.025a49.778,49.778,0,0,0,5.716,1.69,50.525,50.525,0,0,0,11.34,1.29h.049a50.249,50.249,0,0,0,17.085-2.985c.221-.08.442-.164.658-.248.378-.14.749-.284,1.118-.434h0l.279-.118c1.42-.58,2.849-1.248,4.246-1.988.969-.512,1.859-1.017,2.723-1.544a50.518,50.518,0,0,0,24.142-42.949h0a50.269,50.269,0,1,0-77.121,42.5c.382.24.764.475,1.156.707.565.341,1.138.668,1.707.973a50.2,50.2,0,0,0,6.827,3.081Z" transform="translate(-347.839 -241.537)" fill="#e6e6e6"/>
    <path id="Path_49321" data-name="Path 49321" d="M359.514,254.606a51.432,51.432,0,0,1-11.534-1.311,50.773,50.773,0,0,1-5.752-1.7h0l-.079-.027a51.088,51.088,0,0,1-7.018-3.161c-.58-.312-1.166-.646-1.74-.992-.4-.234-.785-.473-1.174-.718a51.167,51.167,0,1,1,78.5-43.259h0a51.42,51.42,0,0,1-24.572,43.716c-.879.536-1.785,1.05-2.77,1.57-1.339.709-2.708,1.354-4.071,1.921l-.253.108c-.472.2-.944.381-1.42.558-.217.084-.445.171-.673.253a51.14,51.14,0,0,1-17.389,3.038Zm-17.13-3.9.075.025a49.789,49.789,0,0,0,5.716,1.69,50.525,50.525,0,0,0,11.34,1.29h.049a50.248,50.248,0,0,0,17.085-2.985c.221-.08.442-.163.658-.248.378-.14.749-.284,1.119-.434h0l.279-.118c1.42-.58,2.849-1.248,4.246-1.988.969-.512,1.859-1.017,2.723-1.544a50.518,50.518,0,0,0,24.142-42.949h0a50.269,50.269,0,1,0-77.121,42.5c.382.24.764.475,1.156.707.565.341,1.138.668,1.707.973a50.2,50.2,0,0,0,6.826,3.081Z" transform="translate(-234.293 -152.244)" fill="#e6e6e6"/>
    <path id="Path_49322" data-name="Path 49322" d="M194.514,484.606a51.428,51.428,0,0,1-11.534-1.311,50.762,50.762,0,0,1-5.753-1.7h0l-.079-.027a51.09,51.09,0,0,1-7.018-3.161c-.58-.312-1.166-.646-1.74-.992-.4-.234-.785-.473-1.174-.718a51.167,51.167,0,1,1,78.5-43.259h0a51.42,51.42,0,0,1-24.572,43.716c-.879.536-1.785,1.05-2.77,1.57-1.339.709-2.708,1.354-4.071,1.921l-.253.108c-.472.2-.944.381-1.42.558-.217.084-.445.17-.673.253a51.141,51.141,0,0,1-17.389,3.038Zm-17.13-3.9.075.025a49.8,49.8,0,0,0,5.716,1.69,50.526,50.526,0,0,0,11.34,1.29h.049a50.246,50.246,0,0,0,17.085-2.985c.221-.08.442-.163.658-.248.378-.14.749-.284,1.118-.434h0l.279-.118c1.42-.58,2.849-1.248,4.246-1.988.969-.512,1.859-1.017,2.723-1.544a50.518,50.518,0,0,0,24.142-42.949h0a50.269,50.269,0,1,0-77.121,42.5c.382.24.764.475,1.156.707.565.341,1.138.668,1.707.973a50.2,50.2,0,0,0,6.826,3.081Z" transform="translate(-143.346 -279.018)" fill="#e6e6e6"/>
    <circle id="Ellipse_131" data-name="Ellipse 131" cx="7.108" cy="7.108" r="7.108" transform="translate(72.02 104.228)" fill="#727272"/>
    <circle id="Ellipse_132" data-name="Ellipse 132" cx="7.108" cy="7.108" r="7.108" transform="translate(149.214 5.042)" fill="#727272"/>
    <circle id="Ellipse_133" data-name="Ellipse 133" cx="7.108" cy="7.108" r="7.108" transform="translate(249.747 87.174)" fill="#727272"/>
    <circle id="Ellipse_134" data-name="Ellipse 134" cx="24.02" cy="24.02" r="24.02" transform="translate(313.879 92.053)" fill="#8ab4f8"/>
    <path id="Path_49323" data-name="Path 49323" d="M749.21,533.252a3.156,3.156,0,0,1-.968-.153,3.121,3.121,0,0,1-1.832-1.559l-3.018-5.9a3.141,3.141,0,0,1,1.366-4.228L793.9,496.261a3.142,3.142,0,0,1,4.228,1.366l3.018,5.9a3.142,3.142,0,0,1-1.365,4.228l-49.146,25.155A3.115,3.115,0,0,1,749.21,533.252Z" transform="translate(-473.883 -341.658)" fill="#8ab4f8"/>
    <path id="Path_49324" data-name="Path 49324" d="M887.116,545.5H846.275a3.819,3.819,0,0,1-3.815-3.815V498.821a24.236,24.236,0,0,1,48.471,0v42.861A3.819,3.819,0,0,1,887.116,545.5Z" transform="translate(-528.679 -329.901)" fill="#ccc"/>
    <path id="Path_49325" data-name="Path 49325" d="M895.129,546.478h-.094l-6.622-.192a3.142,3.142,0,0,1-3.049-3.232l1.6-55.187a3.124,3.124,0,0,1,.984-2.194c.061-.058.124-.113.189-.164a3.135,3.135,0,0,1,2.059-.691l6.621.191a3.147,3.147,0,0,1,3.05,3.232l-1.6,55.186a3.145,3.145,0,0,1-3.138,3.05Z" transform="translate(-552.327 -335.54)" fill="#8ab4f8"/>
    <path id="Path_49326" data-name="Path 49326" d="M886.245,481.341a2.894,2.894,0,0,1,1.912-.642l6.621.192a2.921,2.921,0,0,1,2.832,3l1.543,25.565a2.92,2.92,0,0,1-3,2.831h0L883.7,512.1a2.917,2.917,0,0,1-2.831-3l2.735-25.083c.023-.779,1.9-1.985,2.47-2.52C886.127,481.439,886.186,481.389,886.245,481.341Z" transform="translate(-549.847 -333.27)" fill="#ccc"/>
    <path id="Path_49327" data-name="Path 49327" d="M837.048,492.019a2.894,2.894,0,0,1,1.479,1.372l3,5.906a2.921,2.921,0,0,1-1.28,3.922L818.533,516.8a2.92,2.92,0,0,1-3.922-1.281h0l-5.79-11.03a2.917,2.917,0,0,1,1.281-3.922l24.5-8.461a2.9,2.9,0,0,1,2.226-.172C836.9,491.963,836.978,491.99,837.048,492.019Z" transform="translate(-509.963 -339.385)" fill="#ccc"/>
    <path id="Path_49328" data-name="Path 49328" d="M870.708,405.145a8.26,8.26,0,0,1-4.753-1.133,3.649,3.649,0,0,1-1.436-2.725,2.455,2.455,0,0,1,.835-2.017,3.169,3.169,0,0,1,3-.431l-1.212-8.853.889-.122,1.424,10.408-.743-.341a2.717,2.717,0,0,0-2.777.025,1.577,1.577,0,0,0-.517,1.3,2.757,2.757,0,0,0,1.069,2.032,7.422,7.422,0,0,0,4.248.96Z" transform="translate(-540.834 -283.203)" fill="#2f2e41"/>
    <rect id="Rectangle_1814" data-name="Rectangle 1814" width="4.835" height="0.898" transform="translate(317.073 107.547)" fill="#2f2e41"/>
    <rect id="Rectangle_1815" data-name="Rectangle 1815" width="4.835" height="0.898" transform="translate(332.332 107.547)" fill="#2f2e41"/>
    <circle id="Ellipse_135" data-name="Ellipse 135" cx="24.02" cy="24.02" r="24.02" transform="translate(191.99 103.639)" fill="#8ab4f8"/>
    <path id="Path_49329" data-name="Path 49329" d="M586.883,373.744c-2.8-.661-5.83-1.551-7.83-3.758-1.7-1.879-2.5-4.779-.992-7.007,1.377-2.034,4.094-2.78,6.381-3.162,2.658-.443,5.39-.508,7.884-1.639a8.157,8.157,0,0,0,3.111-2.468,21.215,21.215,0,0,0,1.969-3.388,12.354,12.354,0,0,1,2.066-3.173,6.252,6.252,0,0,1,3.543-1.73c3.009-.457,5.866.933,8.233,2.66a35.754,35.754,0,0,1,6.2,5.879,38.883,38.883,0,0,1,8.292,17.123c.175.848,1.473.489,1.3-.358a40.151,40.151,0,0,0-7.571-16.392,38.835,38.835,0,0,0-6.331-6.488c-2.44-1.965-5.257-3.678-8.466-3.841a8.724,8.724,0,0,0-4.3.855,7.83,7.83,0,0,0-3,2.793c-1.512,2.293-2.241,5.256-4.681,6.807-2.471,1.571-5.564,1.587-8.367,2.024-2.493.389-5.268,1.21-6.956,3.212a6.636,6.636,0,0,0-.4,7.675c1.549,2.714,4.428,4.195,7.318,5.078.742.227,1.495.418,2.25.6C587.367,375.241,587.727,373.943,586.883,373.744Z" transform="translate(-381.77 -259.019)" fill="#2f2e41"/>
    <path id="Path_49330" data-name="Path 49330" d="M622.3,435.751l-.025-.9a7.424,7.424,0,0,0,4.248-.959,2.76,2.76,0,0,0,1.069-2.032,1.578,1.578,0,0,0-.517-1.3,2.719,2.719,0,0,0-2.777-.025l-.743.341,1.424-10.408.889.122-1.211,8.853a3.169,3.169,0,0,1,3,.431,2.456,2.456,0,0,1,.835,2.016,3.65,3.65,0,0,1-1.436,2.726A8.259,8.259,0,0,1,622.3,435.751Z" transform="translate(-407.312 -300.073)" fill="#2f2e41"/>
    <rect id="Rectangle_1816" data-name="Rectangle 1816" width="4.834" height="0.898" transform="translate(222.951 121.283)" fill="#2f2e41"/>
    <rect id="Rectangle_1817" data-name="Rectangle 1817" width="4.834" height="0.898" transform="translate(207.691 121.283)" fill="#2f2e41"/>
    <circle id="Ellipse_136" data-name="Ellipse 136" cx="24.02" cy="24.02" r="24.02" transform="translate(26.381 134.158)" fill="#8ab4f8"/>
    <path id="Path_49331" data-name="Path 49331" d="M253.3,503.751l-.025-.9a7.424,7.424,0,0,0,4.248-.959,2.759,2.759,0,0,0,1.069-2.032,1.577,1.577,0,0,0-.517-1.3,2.719,2.719,0,0,0-2.777-.025l-.743.341,1.424-10.408.889.122-1.211,8.853a3.169,3.169,0,0,1,3,.431,2.455,2.455,0,0,1,.835,2.016,3.65,3.65,0,0,1-1.436,2.726A8.258,8.258,0,0,1,253.3,503.751Z" transform="translate(-203.922 -337.554)" fill="#2f2e41"/>
    <rect id="Rectangle_1818" data-name="Rectangle 1818" width="4.834" height="0.898" transform="translate(57.341 151.802)" fill="#2f2e41"/>
    <rect id="Rectangle_1819" data-name="Rectangle 1819" width="4.834" height="0.898" transform="translate(42.082 151.802)" fill="#2f2e41"/>
    <circle id="Ellipse_137" data-name="Ellipse 137" cx="24.02" cy="24.02" r="24.02" transform="translate(101.78 30.237)" fill="#b5b5b5"/>
    <path id="Path_49332" data-name="Path 49332" d="M461.406,274.126l-.025-.9a7.423,7.423,0,0,0,4.248-.959,2.759,2.759,0,0,0,1.069-2.032,1.577,1.577,0,0,0-.517-1.3,2.717,2.717,0,0,0-2.777-.025l-.743.341,1.424-10.408.889.122-1.211,8.853a3.167,3.167,0,0,1,3,.431,2.455,2.455,0,0,1,.835,2.016,3.65,3.65,0,0,1-1.436,2.726A8.259,8.259,0,0,1,461.406,274.126Z" transform="translate(-318.631 -210.986)" fill="#2f2e41"/>
    <rect id="Rectangle_1820" data-name="Rectangle 1820" width="4.834" height="0.898" transform="translate(135.483 48.745)" fill="#2f2e41"/>
    <path id="Path_49333" data-name="Path 49333" d="M389.591,194.917a20.569,20.569,0,0,0-8.643-13.049,24.733,24.733,0,0,0-14.595-4.462,31.231,31.231,0,0,0-25.378,14.25c-6,9.4-6.114,21.674-2.061,31.837a39.415,39.415,0,0,0,3.919,7.455,72.374,72.374,0,0,0,5.9,7.181c3.821,4.34,8.2,10.375,5.641,16.43-.946,2.237-2.941,4.27-5.479,4.43a5.662,5.662,0,0,1-5.47-2.9c-1.065-2.257.409-4.928,2.587-5.852a4.493,4.493,0,0,1,5.541,5.828.7.7,0,0,0,.242.921.677.677,0,0,0,.921-.241,6.022,6.022,0,0,0-1.509-6.664,5.33,5.33,0,0,0-6.873-.425,5.787,5.787,0,0,0-2.181,6.868,6.78,6.78,0,0,0,5.491,3.775,7.348,7.348,0,0,0,6.619-2.931,10.74,10.74,0,0,0,2.133-7.751c-.749-6.891-6.255-11.6-10.387-16.645a38.094,38.094,0,0,1-7.571-15.5,35.15,35.15,0,0,1,.145-16.956,28.807,28.807,0,0,1,8.229-13.745,30.467,30.467,0,0,1,13.574-7.273,25.241,25.241,0,0,1,15.12.92,21.194,21.194,0,0,1,11.689,11.036,17.045,17.045,0,0,1,1.1,3.822c.143.853,1.441.491,1.3-.358Z" transform="translate(-249.593 -166.096)" fill="#2f2e41"/>
    <path id="Path_49334" data-name="Path 49334" d="M453.761,212.882a7.545,7.545,0,0,1,8.621-1.011,6.923,6.923,0,0,1,3.207,7.81,7.059,7.059,0,0,1-2.743,4.2c-.706.492-.034,1.659.68,1.163a8.916,8.916,0,0,0,3.272-9.692,8.28,8.28,0,0,0-8.413-5.718,8.471,8.471,0,0,0-5.577,2.3C452.184,212.532,453.137,213.484,453.761,212.882Z" transform="translate(-313.793 -183.858)" fill="#2f2e41"/>
    <path id="Path_49335" data-name="Path 49335" d="M230.788,444.319a8.4,8.4,0,0,0,6.609-4.755,9.735,9.735,0,0,0,.036-8.553,13.693,13.693,0,0,0-6.458-6.376,22.148,22.148,0,0,0-10.573-1.879c-6.787.274-14.264,2.179-18.435,7.966a12.493,12.493,0,0,0-2.375,9.162c.528,3.408,2.6,6.359,4.817,8.9,2.321,2.666,5,5.067,6.834,8.122,1.587,2.643,2.441,5.971,1.379,8.97a6.455,6.455,0,0,1-1.11,1.953c-.549.662.4,1.62.952.952a9.6,9.6,0,0,0,1.695-8.216c-.662-3.157-2.572-5.827-4.661-8.211-4.064-4.64-10.117-9.707-8.409-16.639a13.358,13.358,0,0,1,5.161-7.438,22.254,22.254,0,0,1,9.22-3.642c6.272-1.126,13.868-1.008,18.607,3.879a9.709,9.709,0,0,1,2.961,7.749,7.99,7.99,0,0,1-4.41,6.228,5.864,5.864,0,0,1-1.838.48c-.855.08-.864,1.427,0,1.346Z" transform="translate(-174.271 -301.318)" fill="#2f2e41"/>
  </g>
</svg>
