<svg id="Group_1763" data-name="Group 1763" xmlns="http://www.w3.org/2000/svg" width="381.78" height="379.639" viewBox="0 0 381.78 379.639">
  <path id="Path_24" data-name="Path 24" d="M890.665,732.871c-2.631,9.129-10.315,15.519-18.329,20.947q-1.679,1.137-3.358,2.222c-.008,0-.015.01-.023.014-.054.035-.108.069-.158.1l-.691.445.126.057s.124.066-.012.01l-.123-.049c-4.656-1.878-9.395-3.894-12.963-7.412-3.7-3.653-5.864-9.383-3.86-14.182a9.163,9.163,0,0,1,.992-1.781c.162-.233.338-.455.52-.674a9.821,9.821,0,0,1,16.868,2.984c.589-5.482-3.932-10.075-8.282-13.463s-9.3-7.075-10.139-12.527a10.626,10.626,0,0,1,2.507-8.333c.059-.072.119-.143.18-.213a14.333,14.333,0,0,1,9.212-4.942c6.674-.694,13.156,2.839,18,7.479C888.939,711.024,893.657,722.491,890.665,732.871Z" transform="translate(-529.143 -378.049)" fill="#606060"/>
  <path id="Path_25" data-name="Path 25" d="M879.737,725.534a24.364,24.364,0,0,1,2.919,6.438,21.161,21.161,0,0,1,.731,6.248,27.107,27.107,0,0,1-3.55,12.336,39.014,39.014,0,0,1-5.885,7.864q-1.679,1.137-3.358,2.222c-.008,0-.015.01-.023.014-.054.035-.108.069-.158.1l-.692.445s.249.122.114.067l-.123-.049a21.375,21.375,0,0,0-15.831-23.374c.163-.233.338-.455.52-.674a22.554,22.554,0,0,1,3.722,1.409,22.1,22.1,0,0,1,9.991,9.632,22.591,22.591,0,0,1,2.46,12.4c.191-.173.383-.35.569-.526a39.614,39.614,0,0,0,8.807-11.454,25.218,25.218,0,0,0,2.641-11.931,22.792,22.792,0,0,0-4.569-12.316,52.788,52.788,0,0,0-10.006-10.312,59.979,59.979,0,0,0-12.444-7.683.431.431,0,0,1-.217-.553.367.367,0,0,1,.18-.213.319.319,0,0,1,.277.012c.549.253,1.094.509,1.635.776a60.669,60.669,0,0,1,12.533,8.267A48.821,48.821,0,0,1,879.737,725.534Z" transform="translate(-530.759 -382.652)" fill="#5a5a5a"/>
  <path id="Path_26" data-name="Path 26" d="M239.458,678.5c4.259,14.775,16.695,25.117,29.667,33.9q2.717,1.84,5.435,3.6c.012.005.025.017.037.022.087.056.175.112.256.168l1.119.721-.2.092s-.2.106.019.017c.065-.027.133-.052.2-.079,7.536-3.039,15.206-6.3,20.981-12,5.991-5.912,9.492-15.186,6.248-22.953a14.83,14.83,0,0,0-1.606-2.882c-.263-.377-.547-.737-.842-1.091a15.9,15.9,0,0,0-27.3,4.83c-.953-8.873,6.364-16.306,13.405-21.79s15.049-11.451,16.411-20.275a17.2,17.2,0,0,0-4.057-13.487c-.1-.116-.192-.232-.292-.345a23.2,23.2,0,0,0-14.91-8c-10.8-1.123-21.294,4.595-29.141,12.105C242.252,643.143,234.617,661.7,239.458,678.5Z" transform="translate(-235.651 -341.068)" fill="#606060"/>
  <path id="Path_27" data-name="Path 27" d="M274.339,666.627a39.436,39.436,0,0,0-4.725,10.42,34.243,34.243,0,0,0-1.184,10.114,43.874,43.874,0,0,0,5.746,19.966,63.144,63.144,0,0,0,9.525,12.729q2.717,1.84,5.435,3.6c.012.005.025.017.037.022.087.056.175.112.256.169l1.119.721s-.4.2-.185.109c.065-.027.133-.052.2-.079a34.6,34.6,0,0,1,25.623-37.832c-.263-.377-.547-.737-.842-1.091a36.5,36.5,0,0,0-6.025,2.28,35.764,35.764,0,0,0-16.17,15.59,36.565,36.565,0,0,0-3.981,20.065c-.31-.281-.62-.567-.92-.851a64.112,64.112,0,0,1-14.255-18.539,40.815,40.815,0,0,1-4.274-19.311c.281-7.295,3.187-14.052,7.4-19.934a85.431,85.431,0,0,1,16.195-16.69,97.08,97.08,0,0,1,20.141-12.435.7.7,0,0,0,.351-.9.594.594,0,0,0-.292-.345.517.517,0,0,0-.449.019c-.888.409-1.771.824-2.646,1.256a98.18,98.18,0,0,0-20.285,13.381A79.023,79.023,0,0,0,274.339,666.627Z" transform="translate(-250.228 -348.518)" fill="#575757"/>
  <path id="Path_28" data-name="Path 28" d="M620.376,175.634h-2.083V118.578A33.023,33.023,0,0,0,585.27,85.555H464.389a33.023,33.023,0,0,0-33.023,33.023V431.593a33.023,33.023,0,0,0,33.023,33.023H585.27a33.023,33.023,0,0,0,33.023-33.023V216.248h2.083Z" transform="translate(-328.308 -85.555)" fill="#606060"/>
  <path id="Path_29" data-name="Path 29" d="M619.647,126.712V439.266a24.662,24.662,0,0,1-24.662,24.662H473.524a24.663,24.663,0,0,1-24.662-24.662V126.712a24.662,24.662,0,0,1,24.662-24.662h14.735a11.722,11.722,0,0,0,10.849,16.141H568.36a11.722,11.722,0,0,0,10.849-16.141h15.776a24.662,24.662,0,0,1,24.662,24.662Z" transform="translate(-336.692 -93.459)" fill="#3f3f41"/>
  <path id="Path_30" data-name="Path 30" d="M576.483,321.728c-6.452-2.964-10.693-11.438-10.451-19.795s4.639-16.173,10.7-20.158a21.2,21.2,0,0,1,20.064-1.516c6.51,2.771,15.25,3.526,19.163,10.413,3.007,5.293,1.924,17.1-.205,22.986-1.84,5.087-6.339,7.953-10.727,9.557a36.071,36.071,0,0,1-29.842-2.4Z" transform="translate(-392.829 -177.975)" fill="#2f2e41"/>
  <path id="Path_31" data-name="Path 31" d="M595.548,522.274l-2.724-11.1-.193-.8a3.576,3.576,0,0,0-2.542-2.583l-2.719-.729-2.411-.651-5.2-1.4h-.005l-10.516-2.823-9.307-2.505-2.25-.6-6.182-1.661-3.844-1.031-5.964-1.6-.479-.13a3.6,3.6,0,0,0-4.214,2.026q-.391.9-.766,1.828a130.6,130.6,0,0,0-6.886,23.761c-.068.344-.141.693-.2,1.042h55.21c0,.062,0,.12.005.182.094-.057.188-.115.281-.182H595.8Z" transform="translate(-375.157 -281.521)" fill="#2f2e41"/>
  <circle id="Ellipse_1" data-name="Ellipse 1" cx="19.54" cy="19.54" r="19.54" transform="translate(169.353 132.135) rotate(-45)" fill="#ffb8b8"/>
  <path id="Path_32" data-name="Path 32" d="M597.56,464.4a40.751,40.751,0,0,1-6.8,6.057c-.505.359-1.021.708-1.547,1.042-.094.068-.187.125-.281.182-.005-.062-.005-.12-.005-.182H544.163a2.673,2.673,0,0,1-.255-.24c-.281-.25-.557-.526-.823-.8a25.692,25.692,0,0,1-4.4-6.057l5.469-15.464,2.1-5.964,3.057-8.636,3.292-9.318a22.257,22.257,0,0,1-.7-2.63v-.005c-3.12-15.823,12.234-31.178,12.234-31.178q.18-.141.36-.266a22.679,22.679,0,0,1,4.787-2.708c7.2-2.984,14.734-1.781,19.808-.24a38.764,38.764,0,0,1,5.156,1.958c.594.281.917.458.917.458l.505,15.292.688,20.907.37,11.662.463,14.714.2,6.37Z" transform="translate(-379.732 -229.705)" fill="#8ab4f8"/>
  <path id="Path_33" data-name="Path 33" d="M665.753,468.659l-4.917-24.975-.687-3.49,3.323-14.875-1.557-7.912L656.107,387.9a3.6,3.6,0,0,0-2.906-2.839l-7.1-1.224-6.6-1.141a3.543,3.543,0,0,0-3.422,1.313,3.5,3.5,0,0,0-.776,2.182,3.632,3.632,0,0,0,.3,1.427c4.818,11.235,3.016,31.652,1.276,51.392-.052.578-.1,1.156-.151,1.734-.365,4.1-.708,8.146-.99,12.047-.094,1.3-.177,2.583-.255,3.849-.255,4.219-.4,8.255-.37,12.016,0,.349.005.7.016,1.042,0,.063,0,.12.005.182.094-.057.188-.115.281-.182h30.548Z" transform="translate(-425.929 -227.906)" fill="#2f2e41"/>
  <path id="Path_34" data-name="Path 34" d="M559.607,387.412a3.588,3.588,0,0,0-5.682-1.974l-1.807,1.641L538.4,399.563a3.554,3.554,0,0,0-.9,1.266c-1.276,3.057-3.656,8.813-6.469,15.98-.995,2.542-2.047,5.266-3.125,8.1-1.8,4.734,4.214,11.985,2.411,17.12q-.469,1.352-.995,2.656c-3.651,9.193-8.839,16.959-10.63,24.948-.078.349-.156.7-.229,1.042h19.839c.026-.078.052-.156.078-.24.078-.266.161-.531.245-.8,1.464-4.776,3.1-10.021,4.823-15.532q.359-1.141.719-2.3,1.086-3.461,2.208-7.026c.1-.344.214-.687.323-1.031q.375-1.2.755-2.406.5-1.578,1-3.167c.865-2.75,1.734-5.516,2.6-8.266,3.526-11.193,2.755-21.959,5.412-30.553.042-.125.078-.245.115-.365,1.141-3.7,2.146-6.979,2.958-9.714A3.576,3.576,0,0,0,559.607,387.412Z" transform="translate(-370.045 -228.885)" fill="#2f2e41"/>
  <path id="Path_35" data-name="Path 35" d="M628.779,282.8a3.233,3.233,0,0,0,3.434-1.917,4.655,4.655,0,0,0-.331-4.087,8.543,8.543,0,0,0-3-2.946,9.87,9.87,0,0,0-4.759-1.637,5.936,5.936,0,0,0-4.609,1.75,4.278,4.278,0,0,0-.773,4.716,6.309,6.309,0,0,0,3.674,2.675,21.556,21.556,0,0,0,9.052,1.189Z" transform="translate(-417.901 -174.988)" fill="#2f2e41"/>
  <path id="Path_36" data-name="Path 36" d="M616.91,315.472c-3.045.887-2.879-.754-4.548-3.45s-3.84-5.869-7.006-5.7c-2.6.138-4.4,2.5-6.252,4.321-3.3,3.254-8.083,5.314-12.607,4.321s-8.255-5.661-7.26-10.185a9.5,9.5,0,0,1,4.678-5.94,19.117,19.117,0,0,1,7.418-2.169,39.5,39.5,0,0,1,17.041,1.782c3.784,1.27,7.587,3.323,9.471,6.842s3.532,8.61-.138,10.178Z" transform="translate(-399.083 -186.588)" fill="#2f2e41"/>
  <path id="Path_37" data-name="Path 37" d="M691.409,293.823v17.922c-.349.089-.693.172-1.042.245-2.51.557-5.068.927-7.61,1.234-3.943.479-7.99.833-11.834-.151a20.9,20.9,0,0,1-12.6-10.183,33.111,33.111,0,0,1-3.839-16.021c-.031-4.323.531-8.651.234-12.964s-1.6-8.776-4.724-11.761-8.406-3.969-11.834-1.339a16.22,16.22,0,0,0-1.641,1.526,9.06,9.06,0,0,1-2.307,1.854c-1.552.781-4.005.172-4.109-1.563l1.625-3.037-.161-.208c-2.38-3.281-1.385-8.276,1.557-11.094,3.005-2.885,7.479-3.781,11.625-3.417a23.562,23.562,0,0,1,19.115,13.745c2.625,5.995,2.6,12.855,4.974,18.959a25.875,25.875,0,0,0,14.25,14.443,25.4,25.4,0,0,0,7.281,1.734C690.716,293.782,691.06,293.8,691.409,293.823Z" transform="translate(-423.533 -161.854)" fill="#2f2e41"/>
  <path id="Path_38" data-name="Path 38" d="M608.3,478.246h-.221V472.2a3.5,3.5,0,0,0-3.5-3.5h-12.82a3.5,3.5,0,0,0-3.5,3.5v33.2a3.5,3.5,0,0,0,3.5,3.5h12.82a3.5,3.5,0,0,0,3.5-3.5V482.554h.221Z" transform="translate(-403.48 -269.137)" fill="#3f3d56"/>
  <circle id="Ellipse_2" data-name="Ellipse 2" cx="3.978" cy="3.978" r="3.978" transform="translate(190.816 208.293)" fill="#fff"/>
  <path id="Path_39" data-name="Path 39" d="M562.758,478.324c-.094-.115-.2-.224-.3-.333a8.79,8.79,0,0,0-6.635-2.646,9.126,9.126,0,0,0-1.167.135l-.219-.219-2.25-2.25-5.1-5.1-3.167-3.167-4.662-4.662-3.5-3.495-1.359-1.359,2.4-9.4-6.136-2.453-7.995-3.193-.125-.052-.3.813-2.135,5.922-1.594,4.4a14.345,14.345,0,0,0,3.557,15.151,14.115,14.115,0,0,0,1.443,1.214l5.438,3.625,1.786,1.188,3.354,2.24,5.537,3.693,3.448,2.3,4.375,2.917a8.058,8.058,0,0,0-.016.859,8.756,8.756,0,0,0,3.182,6.4,8.58,8.58,0,0,0,3.958,1.849h.005a8.731,8.731,0,0,0,10-6.146,8.216,8.216,0,0,0,.333-1.823A8.678,8.678,0,0,0,562.758,478.324Z" transform="translate(-369.665 -255.451)" fill="#ffb8b8"/>
  <path id="Path_40" data-name="Path 40" d="M655.285,458.542l-.8-4.813-1.146-6.86-6.542,1.313-8.505,1.708.661,9.682-.49.339-10.646,7.333-6.214,4.276-6.193,4.266-.005.005-.047.031a7.964,7.964,0,0,0-1.12-.344,8.768,8.768,0,0,0-7.005,1.4,8.676,8.676,0,0,0-2.344,2.474,8.474,8.474,0,0,0-.984,2.2,8.955,8.955,0,0,0-.3,1.505,8.733,8.733,0,0,0,2.12,6.719,8.729,8.729,0,0,0,9.682,2.417h.005a8.079,8.079,0,0,0,1.141-.531,8.745,8.745,0,0,0,3.807-4.245,8.356,8.356,0,0,0,.479-1.469,8.493,8.493,0,0,0,.141-.849l2.047-.88,5.255-2.261,17.438-7.5,1.688-.724a14.029,14.029,0,0,0,3.875-2.766,14.336,14.336,0,0,0,4.005-12.427Z" transform="translate(-410.81 -258.681)" fill="#ffb8b8"/>
  <path id="Path_41" data-name="Path 41" d="M557.115,393.086a11.008,11.008,0,0,0-1.2-2.88,10.768,10.768,0,0,0-2.7-3.042,11.332,11.332,0,0,0-1.448-.943,11,11,0,0,0-14.933,4.349L524.135,413.7l-.422.76-2.964,5.406.828.516L529.005,425l8.219,5.11.578.359,5.516-8.813v-.005L555.8,401.7a11.083,11.083,0,0,0,1.146-2.443c.036-.12.073-.245.109-.365a10.91,10.91,0,0,0,.062-5.8Z" transform="translate(-371.137 -228.97)" fill="#2f2e41"/>
  <path id="Path_42" data-name="Path 42" d="M663.094,390.906a11.008,11.008,0,0,0-13.782-6.495q-.508.172-1,.391a10.933,10.933,0,0,0-4.641,3.922,10.748,10.748,0,0,0-1.135,2.2,10.945,10.945,0,0,0,.25,8.417l2.307,5.13,11.391,25.355.313-.12,9.891-3.818,6.13-2.365,2.4-.922Z" transform="translate(-429.146 -228.478)" fill="#2f2e41"/>
  <path id="Path_43" data-name="Path 43" d="M534.865,629.062h-37.5a9.636,9.636,0,1,1,0-19.271h37.5a9.636,9.636,0,0,1,0,19.271Z" transform="translate(-355.314 -336.745)" fill="#8ab4f8"/>
  <path id="Path_44" data-name="Path 44" d="M677.946,629.062h-37.5a9.636,9.636,0,1,1,0-19.271h37.5a9.636,9.636,0,0,1,0,19.271Z" transform="translate(-423.872 -336.745)" fill="#646464"/>
  <path id="Path_45" data-name="Path 45" d="M614.759,813.487H234.021a.521.521,0,1,1,0-1.042H614.759a.521.521,0,0,1,0,1.042Z" transform="translate(-233.5 -433.848)" fill="#3f3d56"/>
  <path id="Path_46" data-name="Path 46" d="M609.584,232.79H486.664a8.867,8.867,0,0,0-8.854,8.854v147.4a8.867,8.867,0,0,0,8.854,8.854h122.92a8.864,8.864,0,0,0,8.854-8.854v-147.4A8.864,8.864,0,0,0,609.584,232.79ZM617.4,389.044a7.822,7.822,0,0,1-7.813,7.813H486.664a7.822,7.822,0,0,1-7.813-7.813v-147.4a7.822,7.822,0,0,1,7.813-7.813h122.92a7.822,7.822,0,0,1,7.813,7.813Z" transform="translate(-350.562 -156.103)" fill="#3f3d56"/>
  <path id="Path_47" data-name="Path 47" d="M422.179,255.381a3.339,3.339,0,0,1-2.372-1l-15.833-20.663a3.929,3.929,0,0,0-3.1-1.531h-91.7a17.448,17.448,0,1,1,0-34.9H423.763a17.449,17.449,0,0,1,4.651,34.266,3.888,3.888,0,0,0-2.828,3.752v16.679a3.333,3.333,0,0,1-2.09,3.128A3.44,3.44,0,0,1,422.179,255.381Z" transform="translate(-261.4 -139.094)" fill="#8ab4f8"/>
  <circle id="Ellipse_3" data-name="Ellipse 3" cx="7.485" cy="7.485" r="7.485" transform="translate(45.693 68.16)" fill="#fff"/>
  <circle id="Ellipse_4" data-name="Ellipse 4" cx="7.485" cy="7.485" r="7.485" transform="translate(68.937 68.16)" fill="#fff"/>
  <circle id="Ellipse_5" data-name="Ellipse 5" cx="7.485" cy="7.485" r="7.485" transform="translate(92.182 68.16)" fill="#fff"/>
</svg>
