<svg xmlns="http://www.w3.org/2000/svg" width="414" height="207.537" viewBox="0 0 414 207.537">
  <g id="Group_1760" data-name="Group 1760" transform="translate(-0.005)">
    <path id="Path_37954" data-name="Path 37954" d="M289.217,445.378q-18.738,0-37.421-.671c-17.8-.639-36.2-1.3-53.3-10.786-11.965-6.636-22.562-17.282-30.645-30.789A103.6,103.6,0,0,1,156.1,373.686a121.053,121.053,0,0,1,.441-57.3,101.773,101.773,0,0,1,6.825-18.7c12.473-25.83,35.224-43.169,62.419-47.571a3.153,3.153,0,0,1,.677-.014c.122.007.244.014.368.008l.16-.051a7.815,7.815,0,0,1,1.26-.323c41.941-6.244,86.28,6.39,128.218,36.534,32.427,23.311,75.4,35.863,131.379,38.374l.795.042c15.583.9,30.657,7.32,43.593,18.58a94.432,94.432,0,0,1,27.724,42.881c.66,2.065,1.265,4.215,1.8,6.389a12.055,12.055,0,0,1-3.213,11.431v0l-.139.143c-.336.334-.689.654-1.05.952l-.424.35a60.2,60.2,0,0,1-9.785,7.083,30.087,30.087,0,0,1-7.138,2.7c-13.641,3.326-27.494,6.409-41.174,9.165-26.567,5.357-53.834,9.775-81.043,13.133a1050.468,1050.468,0,0,1-128.576,7.9Zm-63.07-194.372a1.624,1.624,0,0,0-.25.017c-26.941,4.361-49.476,21.529-61.826,47.1a100.751,100.751,0,0,0-6.757,18.518,119.994,119.994,0,0,0-.436,56.8,102.6,102.6,0,0,0,11.631,29.165c8,13.374,18.493,23.914,30.332,30.479,16.951,9.4,35.267,10.059,52.979,10.7a1049.221,1049.221,0,0,0,165.886-7.22c27.192-3.356,54.441-7.772,80.99-13.125,13.67-2.754,27.514-5.835,41.146-9.159a29.328,29.328,0,0,0,6.966-2.629,59.612,59.612,0,0,0,9.655-7l.424-.349c.31-.256.615-.53.907-.815l.084-.088a11.1,11.1,0,0,0,3.106-10.622h0c-.527-2.151-1.126-4.278-1.779-6.322-10.968-34.6-39.339-59.059-70.6-60.855l-.79-.042c-25.57-1.147-47.946-4.326-68.4-9.718-24.421-6.436-45.741-16.125-63.368-28.8-41.779-30.029-85.932-42.615-127.69-36.4a7.167,7.167,0,0,0-1.148.3l-.288.081a4.342,4.342,0,0,1-.492-.006C226.332,251.012,226.239,251.007,226.147,251.007Z" transform="translate(-152.875 -237.841)" fill="#8e8e8e"/>
    <path id="Path_37955" data-name="Path 37955" d="M398.494,336.5c-1.156-1.109-2.339-7.3-3.816-7.925,1.1,2.439.3,3.085.3,5.762a18.113,18.113,0,0,1-.528,4.511H369.435V319.333a13.355,13.355,0,0,1,13.356-13.355,7.968,7.968,0,0,1,1.979.29,12.7,12.7,0,0,1,8.959,8.983C395.635,322.22,398.668,333.821,398.494,336.5Z" transform="translate(-269.174 -268.886)" fill="#2f2e41"/>
    <path id="Path_37956" data-name="Path 37956" d="M360.764,406.133l.012-15.214-8.943.8,3.156,9.6-1.477,24.119a3.784,3.784,0,1,0,4.579,3.189Z" transform="translate(-259.035 -314.503)" fill="#ffb6b6"/>
    <path id="Path_37957" data-name="Path 37957" d="M257.745,416.594h3.613l1.719-13.936h-5.333Z" transform="translate(-138.416 -216.243)" fill="#ffb6b6"/>
    <path id="Path_37958" data-name="Path 37958" d="M407.143,654.374l5.712-.341v2.447l5.43,3.75a1.529,1.529,0,0,1-.869,2.786h-6.8l-1.172-2.421-.458,2.421h-2.564Z" transform="translate(-289.038 -455.805)" fill="#2f2e41"/>
    <path id="Path_37959" data-name="Path 37959" d="M212.619,416.594h3.613l1.719-13.936h-5.332Z" transform="translate(-114.182 -216.243)" fill="#ffb6b6"/>
    <path id="Path_37960" data-name="Path 37960" d="M362.017,654.374l5.712-.341v2.447l5.43,3.75a1.529,1.529,0,0,1-.869,2.786h-6.8l-1.172-2.421-.458,2.421H361.3Z" transform="translate(-264.803 -455.805)" fill="#2f2e41"/>
    <path id="Path_37961" data-name="Path 37961" d="M375.582,355.43l-7.485.147-5.283,5.577-4.236.621a8.456,8.456,0,0,0-7.212,7.823h0l.734,4.031h4.4l2.547,14.955c-.99,2.524-1.058,4.516.975,5.3l6.311,11.888,18.639-8.365c.945-1.625,1.248-3.257.282-4.845l1.332-22.893h4.48c0-4.282-1.448-7.891-5.7-8.368a50.293,50.293,0,0,0-5.087-.291Z" transform="translate(-259.47 -295.444)" fill="#e6e6e6"/>
    <path id="Path_37962" data-name="Path 37962" d="M381.942,442.008s-18.2,3.229-24.949-3.522c0,0-.685,1.164-1.718,3.093-.3.555-.871.931-1.217,1.6-.315.611-1.125,1.362-1.468,2.055-.276.557.167,1.286-.12,1.888-3.457,7.252-7.5,17.481-6.631,24.235.558,4.356,1.712,14.491,2.927,25.378.095.851-.674,1.943-.578,2.8.09.808,1.044,1.381,1.134,2.192.06.538-.607,1.087-.547,1.624.065.59.857,1.168.922,1.755,1.664,15.031,3.188,29.065,3.188,29.065H361.4L363,502.123l-1.313-11.683,3.082-23.629,4.256,22.455.547,12.638,4.5,32.859h7.87V502.952l.587-1.653-.587-2.119.587-2.283-.587-2.487Z" transform="translate(-256.438 -340.048)" fill="#2f2e41"/>
    <path id="Path_37963" data-name="Path 37963" d="M390.928,330.294a8.484,8.484,0,1,1,1.47-7.09c.024.1.045.2.065.308A8.472,8.472,0,0,1,390.928,330.294Z" transform="translate(-272.52 -274.648)" fill="#ffb6b6"/>
    <path id="Path_37964" data-name="Path 37964" d="M388.878,324.8a4.46,4.46,0,0,0-1.3-2.363,6.084,6.084,0,0,1-.352,2.551,11.757,11.757,0,0,1-6.46-1.28c-1.5-1.016-3.4-.928-5.621,0a8.218,8.218,0,0,1,8.22-8.219h1.467a8.22,8.22,0,0,1,8.219,8.217,24.469,24.469,0,0,1-4.168,1.093Z" transform="translate(-272.238 -273.993)" fill="#2f2e41"/>
    <circle id="Ellipse_125" data-name="Ellipse 125" cx="23.611" cy="23.611" r="23.611" transform="translate(28.821 108.333)" fill="#b5b5b5"/>
    <circle id="Ellipse_126" data-name="Ellipse 126" cx="23.611" cy="23.611" r="23.611" transform="translate(179.284)" fill="#b5b5b5"/>
    <circle id="Ellipse_127" data-name="Ellipse 127" cx="23.611" cy="23.611" r="23.611" transform="translate(366.783 112.036)" fill="#b5b5b5"/>
    <path id="Path_37965" data-name="Path 37965" d="M649.189,277.521v53.54a4.222,4.222,0,0,1-4.178,4.222l-.046,0h-6.232a18.8,18.8,0,0,1-18.8-18.8V277.521a4.224,4.224,0,0,1,4.224-4.224h2.525c-1.17,3.412,14.706,4.849,15.578,0h2.7a4.224,4.224,0,0,1,4.224,4.224Z" transform="translate(-403.702 -251.335)" fill="#8ab4f8"/>
    <path id="Path_37966" data-name="Path 37966" d="M643.182,264.008a.554.554,0,0,1,.554-.554H647.5a.554.554,0,1,1,0,1.107h-3.764A.554.554,0,0,1,643.182,264.008Z" transform="translate(-416.187 -246.049)" fill="#3f3d56"/>
    <path id="Path_37967" data-name="Path 37967" d="M640.483,334.2h-23.8a6.974,6.974,0,0,1-6.966-6.966V289.806a1.012,1.012,0,0,1-.422-.823v-3.764a1.012,1.012,0,0,1,.422-.823v-1.01a1.012,1.012,0,0,1-.422-.823V278.8a1.012,1.012,0,0,1,.422-.823v-1.826a1.011,1.011,0,0,1-.533-.893V271.49a1.011,1.011,0,0,1,.533-.894v-5a6.974,6.974,0,0,1,6.966-6.966h23.8a6.973,6.973,0,0,1,6.966,6.966V276.5a.873.873,0,0,1,.41.74v7.177a.874.874,0,0,1-.41.74v42.075A6.974,6.974,0,0,1,640.483,334.2Zm-23.8-74.644a6.047,6.047,0,0,0-6.04,6.04v5.791l-.445.017a.09.09,0,0,0-.087.089v3.764a.091.091,0,0,0,.087.089l.445.017v3.264l-.352.087a.091.091,0,0,0-.07.086v3.764a.091.091,0,0,0,.07.086l.352.087v2.31l-.352.087a.091.091,0,0,0-.07.086v3.764a.091.091,0,0,0,.07.087l.352.087v38.077a6.047,6.047,0,0,0,6.04,6.04h23.8a6.047,6.047,0,0,0,6.04-6.04V284.364h.41v-7.072h-.41v-11.7a6.047,6.047,0,0,0-6.04-6.04Z" transform="translate(-397.927 -243.457)" fill="#3f3d56"/>
    <circle id="Ellipse_128" data-name="Ellipse 128" cx="0.554" cy="0.554" r="0.554" transform="translate(232.863 17.405)" fill="#3f3d56"/>
    <path id="Path_37968" data-name="Path 37968" d="M321.256,453.552H259.317A3.328,3.328,0,0,1,256,450.233v-30.18a3.328,3.328,0,0,1,3.319-3.319h61.939a3.328,3.328,0,0,1,3.319,3.319v30.18a3.328,3.328,0,0,1-3.319,3.319Z" transform="translate(-208.254 -328.366)" fill="#fff"/>
    <path id="Path_37969" data-name="Path 37969" d="M321.256,453.552H259.317A3.328,3.328,0,0,1,256,450.233v-30.18a3.328,3.328,0,0,1,3.319-3.319h61.939a3.328,3.328,0,0,1,3.319,3.319v30.18a3.328,3.328,0,0,1-3.319,3.319ZM259.317,417.66a2.4,2.4,0,0,0-2.393,2.394v30.179a2.4,2.4,0,0,0,2.394,2.393h61.937a2.4,2.4,0,0,0,2.394-2.394V420.053a2.4,2.4,0,0,0-2.394-2.393Z" transform="translate(-208.254 -328.366)" fill="#3f3d56"/>
    <path id="Path_37970" data-name="Path 37970" d="M300.051,453.675c-12.216,0-24.953-.117-29.706-.192A2.4,2.4,0,0,1,268,451.1V426.114a.847.847,0,0,1,.844-.846h55.776a.847.847,0,0,1,.846.844v16.95a10.575,10.575,0,0,1-10.4,10.533C310.638,453.652,305.393,453.675,300.051,453.675Z" transform="translate(-214.698 -332.949)" fill="#8ab4f8"/>
    <path id="Path_37971" data-name="Path 37971" d="M315.693,436.925H265.3a2.055,2.055,0,0,1-1.928-1.359l-5.7-16a2.048,2.048,0,0,1,1.925-2.735l63-.088a2.048,2.048,0,0,1,2.018,2.406l.049.021-.181.422,0,0-6.9,16.09a2.042,2.042,0,0,1-1.88,1.241Zm6.894-19.258-63,.088a1.122,1.122,0,0,0-1.055,1.5l5.7,16A1.127,1.127,0,0,0,265.3,436h50.4a1.117,1.117,0,0,0,1.029-.679l6.9-16.091.339.145-.339-.145a1.121,1.121,0,0,0-1.03-1.562Z" transform="translate(-209.085 -328.37)" fill="#3f3d56"/>
    <circle id="Ellipse_129" data-name="Ellipse 129" cx="3.946" cy="3.946" r="3.946" transform="translate(77.992 104.146)" fill="#fff"/>
    <circle id="Ellipse_130" data-name="Ellipse 130" cx="3.946" cy="3.946" r="3.946" transform="translate(227.066 69.887)" fill="#fff"/>
    <path id="Path_37972" data-name="Path 37972" d="M948.573,495.048l-10.542-10.407a5.5,5.5,0,0,0-3.9-1.6h-.037a5.516,5.516,0,0,0-3.917,1.648,12.959,12.959,0,0,0-.227,17.981c.111.12.227.236.343.352a12.618,12.618,0,0,0,2.111,1.69,12.813,12.813,0,0,0,7,2.051h.079a12.882,12.882,0,0,0,9.143-3.852A5.566,5.566,0,0,0,948.573,495.048Zm-.611,7.208a12.079,12.079,0,0,1-15.167,1.611,12.4,12.4,0,0,1-1.857-1.5,12.038,12.038,0,0,1-.107-17.023,4.59,4.59,0,0,1,3.269-1.375h.028a4.589,4.589,0,0,1,3.25,1.333l10.542,10.412a4.633,4.633,0,0,1,.042,6.546Z" transform="translate(-568.304 -363.975)" fill="#3f3d56"/>
    <path id="Path_37973" data-name="Path 37973" d="M873.868,421.263l-10.542-10.412a5.522,5.522,0,0,0-3.9-1.6h-.032a5.531,5.531,0,0,0-3.921,1.653,13,13,0,0,0-2.185,15.278l0,0a12.759,12.759,0,0,0,2,2.745c.088.1.19.2.292.306a12.887,12.887,0,0,0,9.106,3.741h.083a12.9,12.9,0,0,0,9.143-3.856,5.555,5.555,0,0,0-.051-7.856Zm-.611,7.208a11.97,11.97,0,0,1-8.486,3.579h-.079a12.037,12.037,0,0,1-8.56-20.5,4.633,4.633,0,0,1,6.546-.042l10.542,10.407a4.638,4.638,0,0,1,.037,6.551Z" transform="translate(-528.187 -324.347)" fill="#3f3d56"/>
    <path id="Path_37974" data-name="Path 37974" d="M952.2,501.383,940.578,489.9a4.04,4.04,0,0,0-5.707.035,10.185,10.185,0,0,0,14.493,14.314Z" transform="translate(-571.257 -367.038)" fill="#8ab4f8"/>
    <path id="Path_37975" data-name="Path 37975" d="M877.494,427.6,865.872,416.12a4.04,4.04,0,0,0-5.707.035,10.185,10.185,0,0,0,14.493,14.314Z" transform="translate(-531.137 -327.412)" fill="#8ab4f8"/>
    <path id="Path_37976" data-name="Path 37976" d="M897.047,481.91l-.278.731q-1.958-.743-3.8-1.491c-21.7-8.856-32.065-19.222-39-38.9l0,0q-.493-1.389-.958-2.843l.731-.236a11.829,11.829,0,0,0,1.065,2.676q.569,1.618,1.171,3.153c6.514,16.606,16.12,26.1,34.537,34.111q1.389.6,2.847,1.2A12.077,12.077,0,0,0,897.047,481.91Z" transform="translate(-528.875 -340.415)" fill="#3f3d56"/>
    <rect id="Rectangle_1769" data-name="Rectangle 1769" width="0.926" height="33.796" transform="translate(334.296 108.445) rotate(-45.355)" fill="#3f3d56"/>
    <path id="Path_37977" data-name="Path 37977" d="M413.222,398.524l.012-15.214-8.943.8,3.156,9.6-11.457,17.368a3.784,3.784,0,1,0,4.579,3.189Z" transform="translate(-281.848 -310.416)" fill="#ffb6b6"/>
  </g>
</svg>
