<svg id="Group_1754" data-name="Group 1754" xmlns="http://www.w3.org/2000/svg" width="552.338" height="389.245" viewBox="0 0 552.338 389.245">
  <circle id="Ellipse_75" data-name="Ellipse 75" cx="30.08" cy="30.08" r="30.08" transform="translate(252.011 328.26)" fill="#8ab4f8"/>
  <path id="Path_21741" data-name="Path 21741" d="M682.246,555.33c16.828-5.054,34.718-10.324,48.064-22.338,11.926-10.736,19.977-27.13,15.036-43.231-4.93-16.068-19.7-26.782-34.946-32.11-8.648-3.022-17.7-4.7-26.739-6.016-9.831-1.432-19.706-2.6-29.576-3.734q-59.948-6.857-120.347-8.377c-19.869-.5-39.734-.488-59.605-.2-17.747.258-36.437.251-52.9-7.291-12.8-5.865-24.422-16.536-27.989-30.559-4.118-16.187,3.477-32.672,14.373-44.395A116.373,116.373,0,0,1,427,340.915c7.512-5.188,15.285-10.009,23.227-14.509a323.448,323.448,0,0,1,48.89-22.539c8.334-3.031,16.793-5.645,25.324-8.057a216.682,216.682,0,0,0,21.393-6.851c13.46-5.364,26.261-14.451,29.684-29.348,3.244-14.119-2.225-29.446-11.813-39.934-11.092-12.135-27.817-17.454-43.851-18.315-18-.966-35.587,3.539-52.506,9.257-18.046,6.1-35.7,13.11-54.129,18.05a364.193,364.193,0,0,1-55.71,10.356c-9.209.981-18.7,2.088-27.959,1.337-7.763-.629-15.487-2.912-21.209-8.422-4.906-4.724-7.828-11.217-6.824-18.069.182-1.244,2.073-.715,1.892.521-1.223,8.341,4.447,16.026,11.433,19.963,8.075,4.55,17.9,4.556,26.89,4.036a351.692,351.692,0,0,0,57.88-8.367c18.7-4.27,36.726-10.375,54.734-16.9,17.1-6.193,34.589-12.238,52.862-13.58,15.855-1.164,32.533,1.146,46.345,9.431a51.27,51.27,0,0,1,23.91,33.361c2.779,13.617-1.07,27.323-11.378,36.826-10.673,9.839-25.307,14.045-38.944,17.919A356.793,356.793,0,0,0,476.529,315.2a317.686,317.686,0,0,0-47.6,26.763c-14.547,9.941-28.9,22.449-33.5,40.183a37.018,37.018,0,0,0,1.839,24.825,45.365,45.365,0,0,0,14.557,17.275c14.6,10.74,32.991,12.945,50.622,13.164,19.8.246,39.6-.422,59.411-.1q60.551.994,120.854,7.371,15.11,1.6,30.183,3.536a272.911,272.911,0,0,1,26.992,4.378c15.8,3.667,31.174,10.719,40.994,24.115a38.133,38.133,0,0,1,3.248,41.7c-7.541,14.837-21.666,24.275-36.667,30.475a260.177,260.177,0,0,1-24.686,8.335.982.982,0,0,1-.522-1.892Z" transform="translate(-220.458 -168.6)" fill="#bebebe"/>
  <circle id="Ellipse_76" data-name="Ellipse 76" cx="15.694" cy="15.694" r="15.694" transform="translate(66.628 29.753)" fill="#707070"/>
  <circle id="Ellipse_77" data-name="Ellipse 77" cx="15.694" cy="15.694" r="15.694" transform="translate(175.504 59.505)" fill="#707070"/>
  <circle id="Ellipse_78" data-name="Ellipse 78" cx="15.694" cy="15.694" r="15.694" transform="translate(267.704)" fill="#707070"/>
  <circle id="Ellipse_79" data-name="Ellipse 79" cx="15.694" cy="15.694" r="15.694" transform="translate(325.248 66.698)" fill="#707070"/>
  <circle id="Ellipse_80" data-name="Ellipse 80" cx="15.694" cy="15.694" r="15.694" transform="translate(247.433 143.859)" fill="#707070"/>
  <circle id="Ellipse_81" data-name="Ellipse 81" cx="15.694" cy="15.694" r="15.694" transform="translate(148.693 181.132)" fill="#707070"/>
  <circle id="Ellipse_82" data-name="Ellipse 82" cx="15.694" cy="15.694" r="15.694" transform="translate(253.318 239.329)" fill="#707070"/>
  <circle id="Ellipse_83" data-name="Ellipse 83" cx="15.694" cy="15.694" r="15.694" transform="translate(365.79 272.025)" fill="#f2f2f2"/>
  <circle id="Ellipse_84" data-name="Ellipse 84" cx="15.694" cy="15.694" r="15.694" transform="translate(497.225 264.832)" fill="#707070"/>
  <path id="Path_21742" data-name="Path 21742" d="M558.516,220.372a87.046,87.046,0,0,0-86.17,85.541c-.006.434-.009,3.486-.009,7.477A22.068,22.068,0,0,0,494.4,335.457h0a22.08,22.08,0,0,0,22.077-22.1c0-2.72,0-4.6,0-4.715A41.85,41.85,0,1,1,580.9,343.879l.008.009s-31.406,20.219-40.981,47.954l.008,0a61.47,61.47,0,0,0-2.533,17.5c0,2.436.143,23.751.42,41.051a22.747,22.747,0,0,0,22.75,22.378h0a22.753,22.753,0,0,0,22.752-22.894c-.1-15.844-.148-34.292-.148-35.631,0-17.031,16.43-34,29.925-45.065a90.764,90.764,0,0,0,31.216-49.7,56.727,56.727,0,0,0,1.634-12.315,86.806,86.806,0,0,0-87.433-86.8Z" transform="translate(-279.648 -175.904)" fill="#8ab4f8"/>
  <path id="Path_21743" data-name="Path 21743" d="M729.223,746.807H178.441a.779.779,0,1,1,0-1.557H729.221a.779.779,0,0,1,0,1.557Z" transform="translate(-177.662 -357.562)" fill="#3f3d56"/>
  <circle id="Ellipse_85" data-name="Ellipse 85" cx="19.617" cy="19.617" r="19.617" transform="translate(391.329 139.279)" fill="#2f2e41"/>
  <path id="Path_21744" data-name="Path 21744" d="M566.75,565.763h-8.016l-3.814-30.922h11.832Z" transform="translate(-192.055 -185.106)" fill="#a0616a"/>
  <path id="Path_21745" data-name="Path 21745" d="M546.844,578.626H562.3v9.735h-25.2a9.735,9.735,0,0,1,9.735-9.735Z" transform="translate(-185.891 -200.259)" fill="#2f2e41"/>
  <path id="Path_21746" data-name="Path 21746" d="M661.75,565.763h-8.016l-3.814-30.922h11.832Z" transform="translate(-224.934 -185.106)" fill="#a0616a"/>
  <path id="Path_21747" data-name="Path 21747" d="M641.844,578.626H657.3v9.735h-25.2A9.735,9.735,0,0,1,641.844,578.626Z" transform="translate(-218.77 -200.259)" fill="#2f2e41"/>
  <circle id="Ellipse_86" data-name="Ellipse 86" cx="16.061" cy="16.061" r="16.061" transform="translate(391.904 146.507)" fill="#a0616a"/>
  <path id="Path_21748" data-name="Path 21748" d="M785.8,480.517l7.186-16.511a20.521,20.521,0,0,0-4.544-23.279,20.847,20.847,0,0,0-2.008-1.746,20.228,20.228,0,0,0-12.417-4.3,21.041,21.041,0,0,0-8.762,1.949c-.236.1-.464.216-.7.327-.451.216-.9.451-1.327.693a20.715,20.715,0,0,0-10.266,15.615l-3.172,26.575c-.8,2.086-29.255,77.416-19.3,134.927a2.921,2.921,0,0,0,2.5,2.4l10.09,1.373a2.94,2.94,0,0,0,3.276-2.308l16.93-80.7a2.291,2.291,0,0,1,4.446-.15l23.92,84.864a2.924,2.924,0,0,0,2.818,2.145,3.355,3.355,0,0,0,.569-.052l12.326-2.374a2.924,2.924,0,0,0,2.374-3.145C807.92,596.625,798.295,495.446,785.8,480.517Z" transform="translate(-368.261 -250.077)" fill="#2f2e41"/>
  <path id="Path_21749" data-name="Path 21749" d="M706.078,418.3a6.575,6.575,0,0,0,6.927,7.326l8.977,21.574,6.791-10.066-9.566-18.944a6.611,6.611,0,0,0-13.13.11Z" transform="translate(-360.529 -242.37)" fill="#a0616a"/>
  <path id="Path_21750" data-name="Path 21750" d="M796.253,523.992a6.576,6.576,0,0,0,5.51-8.444l18.888-13.757-11.372-4.258-16.193,13.717a6.611,6.611,0,0,0,3.167,12.743Z" transform="translate(-389.178 -271.828)" fill="#a0616a"/>
  <path id="Path_21751" data-name="Path 21751" d="M740.815,470.575a11.158,11.158,0,0,1-2.157-.213,10.662,10.662,0,0,1-7.813-6.288l-12.577-15.336A2.943,2.943,0,0,1,719,444.37l8.948-5.539a2.943,2.943,0,0,1,4.064.974l8.865,14.6,16.976-12.546a6.357,6.357,0,0,1,7.4,10.176L748.3,467.5a10.628,10.628,0,0,1-7.485,3.079Z" transform="translate(-364.532 -251.36)" fill="#2f2e41"/>
  <path id="Path_21752" data-name="Path 21752" d="M817.484,496.179h-.069a2.948,2.948,0,0,1-2.165-1.027l-7.956-9.281a2.942,2.942,0,0,1,.6-4.363l14.9-9.931L809.3,455.35a6.357,6.357,0,0,1,9.735-7.966l16.4,16.029a10.806,10.806,0,0,1-2.4,17.616l-13.406,14.225A2.948,2.948,0,0,1,817.484,496.179Z" transform="translate(-395.329 -253.898)" fill="#2f2e41"/>
  <path id="Path_21753" data-name="Path 21753" d="M790.6,457.294a3.024,3.024,0,0,1-.381-.024,2.917,2.917,0,0,1-2.427-2.007l-5.978-18.328a2.016,2.016,0,0,1,1.042-2.436l.194-.092c.176-.084.35-.166.528-.246a21.3,21.3,0,0,1,8.9-1.977,20.485,20.485,0,0,1,11.222,3.372,2.047,2.047,0,0,1,.589,2.808l-11.214,17.569A2.913,2.913,0,0,1,790.6,457.294Z" transform="translate(-386.724 -249.212)" fill="#e6e6e6"/>
  <circle id="Ellipse_87" data-name="Ellipse 87" cx="6.419" cy="6.419" r="6.419" transform="translate(419.993 137.3)" fill="#2f2e41"/>
  <path id="Path_21754" data-name="Path 21754" d="M787.113,361.365h0a17,17,0,0,0-17,17v7.193h8.847l4.231-7.193,1.269,7.193h26.849l-7.193-7.193a17,17,0,0,0-17-17Z" transform="translate(-382.706 -224.702)" fill="#2f2e41"/>
  <path id="Path_21755" data-name="Path 21755" d="M834.809,361.784a9.907,9.907,0,0,1,10.777-6.8c4.091.684,7.325,3.972,9.252,7.645s2.817,7.783,4.113,11.723,3.133,7.9,6.4,10.452,8.29,3.242,11.5.619a13.155,13.155,0,0,1-24.507,4.7c-1.695-3.016-2.133-6.55-2.635-9.973s-1.156-6.964-3.179-9.77-5.812-4.638-9.026-3.36Z" transform="translate(-405.097 -222.462)" fill="#2f2e41"/>
  <path id="Path_21756" data-name="Path 21756" d="M500.469,344.037h0A22.067,22.067,0,0,1,478.4,321.973c0-3.994,0-7.045.009-7.479a85.992,85.992,0,0,1,10.043-39.175,86.187,86.187,0,0,0-16.582,49.637c-.006.434-.009,3.486-.009,7.477A22.068,22.068,0,0,0,493.929,354.5h0a22.084,22.084,0,0,0,21.244-16.08,21.986,21.986,0,0,1-14.705,5.618Z" transform="translate(-279.484 -194.921)" fill="#3f3d56"/>
  <path id="Path_21757" data-name="Path 21757" d="M588.5,285.915a41.852,41.852,0,0,1,36.4,58.468,41.848,41.848,0,1,0-70.246-43.8A41.765,41.765,0,0,1,588.5,285.915Z" transform="translate(-308.135 -194.951)" fill="#3f3d56"/>
  <path id="Path_21758" data-name="Path 21758" d="M601.073,543.176h0a22.748,22.748,0,0,1-22.749-22.383c-.277-17.295-.42-38.609-.42-41.046a61.467,61.467,0,0,1,2.533-17.5l-.008,0a62.15,62.15,0,0,1,3.593-8.305A71.961,71.961,0,0,0,573.89,472.7l.008,0a61.471,61.471,0,0,0-2.533,17.5c0,2.436.143,23.751.42,41.051a22.747,22.747,0,0,0,22.749,22.378h0a22.757,22.757,0,0,0,21.841-16.376A22.664,22.664,0,0,1,601.073,543.176Z" transform="translate(-313.921 -256.74)" fill="#3f3d56"/>
  <path id="Path_21759" data-name="Path 21759" d="M126.54,566.219h8.016L138.37,535.3H126.538Z" transform="translate(-43.794 -185.263)" fill="#ffb8b8"/>
  <path id="Path_21760" data-name="Path 21760" d="M0,0H25.2V9.735H9.735A9.735,9.735,0,0,1,0,0Z" transform="translate(106.221 388.399) rotate(179.997)" fill="#2f2e41"/>
  <path id="Path_21761" data-name="Path 21761" d="M82.54,566.219h8.016L94.37,535.3H82.538Z" transform="translate(-28.566 -185.263)" fill="#ffb8b8"/>
  <path id="Path_21762" data-name="Path 21762" d="M0,0H25.2V9.735H9.735A9.735,9.735,0,0,1,0,0Z" transform="translate(77.45 388.399) rotate(179.997)" fill="#2f2e41"/>
  <path id="Path_21763" data-name="Path 21763" d="M265.24,663.63l-7.831-.412a3.056,3.056,0,0,1-2.889-3.248l9.359-103.622,43.1,11.63,4.152-1.133-12.986,91.733a3.071,3.071,0,0,1-2.85,2.579l-8.441.393a3.056,3.056,0,0,1-3.225-3.136l1.529-55.056a1.019,1.019,0,0,0-2.016-.235L268.393,661.2a3.038,3.038,0,0,1-2.988,2.436C265.35,663.634,265.3,663.633,265.24,663.63Z" transform="translate(-204.26 -292.184)" fill="#2f2e41"/>
  <circle id="Ellipse_88" data-name="Ellipse 88" cx="16.061" cy="16.061" r="16.061" transform="translate(68.125 147.258)" fill="#ffb8b8"/>
  <path id="Path_21764" data-name="Path 21764" d="M265.5,460.819l1.766,38.1.638,13.862a3.036,3.036,0,0,0,2.01,2.73l41.416,15a2.927,2.927,0,0,0,1.046.183,3.036,3.036,0,0,0,3.05-3.131l-1.7-68.508a24.149,24.149,0,0,0-20.1-23.329c-.4-.061-.808-.122-1.216-.177a23.7,23.7,0,0,0-19.071,6.174,24.349,24.349,0,0,0-7.838,19.091Z" transform="translate(-208.052 -250.316)" fill="#ccc"/>
  <path id="Path_21765" data-name="Path 21765" d="M356.563,553.694a6.581,6.581,0,0,1-3.511-9.957l-14.045-18.676,12.12-.75,11.479,17.85a6.612,6.612,0,0,1-6.043,11.533Z" transform="translate(-233.503 -281.096)" fill="#ffb8b8"/>
  <path id="Path_21766" data-name="Path 21766" d="M338.337,515.312a3.037,3.037,0,0,1-1.662-1.647l-21.159-50.412a8.15,8.15,0,1,1,15.03-6.308l21.159,50.413a3.06,3.06,0,0,1-1.635,4l-9.394,3.942a3.035,3.035,0,0,1-2.339.011Z" transform="translate(-225.153 -256.051)" fill="#ccc"/>
  <path id="Path_21767" data-name="Path 21767" d="M298.317,524.63l20.323-38.913a3.19,3.19,0,0,1,4.3-1.349l29.5,15.406a3.19,3.19,0,0,1,1.349,4.3l-20.323,38.913a3.19,3.19,0,0,1-4.3,1.349l-29.5-15.406A3.19,3.19,0,0,1,298.317,524.63Z" transform="translate(-219.295 -267.147)" fill="#3f3d56"/>
  <path id="Path_21768" data-name="Path 21768" d="M303.657,510.563a6.581,6.581,0,0,0-10.147-2.917l-19.472-12.917L274,506.871l18.5,10.4a6.612,6.612,0,0,0,11.156-6.714Z" transform="translate(-211.006 -270.858)" fill="#ffb8b8"/>
  <path id="Path_21769" data-name="Path 21769" d="M269.229,495.751l-15.914-12.606A11.223,11.223,0,0,1,248.2,465.4l14.449-18.937a6.6,6.6,0,0,1,11.2,6.725l-11.433,18.7,16.8,7.969a3.056,3.056,0,0,1,1.274,4.394l-6.782,10.733a3.062,3.062,0,0,1-2.071,1.38l-.051.008A3.07,3.07,0,0,1,269.229,495.751Z" transform="translate(-201.197 -253.316)" fill="#ccc"/>
  <path id="Path_21770" data-name="Path 21770" d="M283.666,400.909a1.4,1.4,0,0,1,1.214-1.843,3.224,3.224,0,0,1,2.273,1.121,9.047,9.047,0,0,0,2.008,1.724,1.728,1.728,0,0,0,2.274-.411,3.162,3.162,0,0,0-.121-2.454,24.132,24.132,0,0,1-1.066-6.389,11.249,11.249,0,0,1,1.608-6.832c1.729-2.436,4.82-3.36,7.746-3.293s5.8.97,8.7,1.541c1,.2,2.176.3,2.845-.478.711-.824.45-2.159.148-3.272-.785-2.889-1.618-5.875-3.443-8.208a12.358,12.358,0,0,0-7.887-4.44,18.923,18.923,0,0,0-8.8,1A23.6,23.6,0,0,0,279.6,376.73a19.117,19.117,0,0,0-3.648,14.124,17.438,17.438,0,0,0,6.464,11.021Z" transform="translate(-211.617 -226.836)" fill="#2f2e41"/>
  <path id="Path_21771" data-name="Path 21771" d="M586.479,710.407a30.076,30.076,0,0,1-11.162-46.747,30.078,30.078,0,1,0,40.914,43.461,30.059,30.059,0,0,1-29.752,3.286Z" transform="translate(-311.017 -329.324)" fill="#3f3d56"/>
</svg>
