<svg xmlns="http://www.w3.org/2000/svg" width="406" height="362.238" viewBox="0 0 406 362.238">
  <g id="Group_1759" data-name="Group 1759" transform="translate(-158.093 -112.593)">
    <path id="Path_33387" data-name="Path 33387" d="M424.723,658.676c2.083-16.747,12.461-33.247,28.433-38.7a77.753,77.753,0,0,0,0,53.383c2.454,6.638,5.875,13.766,3.567,20.457-1.436,4.163-4.95,7.348-8.878,9.34s-8.287,2.941-12.592,3.871l-.847.7C427.576,692.3,422.64,675.423,424.723,658.676Z" transform="translate(-188.409 -234.739)" fill="#5a5a5a"/>
    <path id="Path_33388" data-name="Path 33388" d="M457.259,620.152a66.458,66.458,0,0,0-16.521,37.4,28.617,28.617,0,0,0,.326,8.961,16.413,16.413,0,0,0,4.082,7.613c1.84,2.022,3.956,3.877,5.273,6.31a10.051,10.051,0,0,1,.491,8.2c-1.162,3.334-3.453,6.051-5.786,8.631-2.59,2.864-5.326,5.8-6.427,9.6-.133.46-.839.226-.706-.233,1.916-6.606,8.329-10.359,11.387-16.309,1.427-2.777,2.026-6,.688-8.931-1.17-2.563-3.351-4.477-5.231-6.508a17.517,17.517,0,0,1-4.269-7.3,26.457,26.457,0,0,1-.669-8.915,64.476,64.476,0,0,1,4.709-19.594,67.636,67.636,0,0,1,12.162-19.49c.318-.356.808.2.492.558Z" transform="translate(-192.355 -234.596)" fill="#6e6e6e"/>
    <path id="Path_33389" data-name="Path 33389" d="M439.063,662.241a9.971,9.971,0,0,1-7.59-10.445.372.372,0,0,1,.743.037,9.233,9.233,0,0,0,7.08,9.7C439.761,661.645,439.525,662.35,439.063,662.241Z" transform="translate(-190.478 -243.783)" fill="#6e6e6e"/>
    <path id="Path_33390" data-name="Path 33390" d="M446.464,690.333a19.218,19.218,0,0,0,8.582-11.068c.135-.46.841-.226.706.233A19.99,19.99,0,0,1,446.8,691C446.386,691.241,446.054,690.576,446.464,690.333Z" transform="translate(-194.74 -251.701)" fill="#6e6e6e"/>
    <path id="Path_33391" data-name="Path 33391" d="M452.138,637.822a5.644,5.644,0,0,0,5.349-.272c.409-.25.741.416.335.664a6.324,6.324,0,0,1-5.916.314.384.384,0,0,1-.237-.47A.374.374,0,0,1,452.138,637.822Z" transform="translate(-196.285 -239.772)" fill="#6e6e6e"/>
    <path id="Path_33392" data-name="Path 33392" d="M505.79,661.231c-.251.163-.5.326-.753.5a74.325,74.325,0,0,0-9.5,7.42c-.232.207-.465.421-.691.634a78.359,78.359,0,0,0-17.018,23.3,76.094,76.094,0,0,0-4.168,10.784c-1.538,5.1-2.8,10.759-5.844,14.934a13.061,13.061,0,0,1-1.017,1.255H439.281c-.063-.031-.125-.057-.188-.088l-1.1.05c.044-.195.094-.4.138-.59.025-.113.056-.226.082-.339.019-.075.038-.151.05-.22.006-.025.013-.05.019-.069.013-.069.032-.132.044-.195q.414-1.685.854-3.371c0-.006,0-.006.006-.013A111.885,111.885,0,0,1,448.6,690.5c.126-.232.251-.471.389-.7a72.614,72.614,0,0,1,6.522-9.893,64.169,64.169,0,0,1,4.275-4.89A53.38,53.38,0,0,1,473.148,665c9.868-5.21,21.293-7.206,31.839-4.024C505.257,661.062,505.521,661.143,505.79,661.231Z" transform="translate(-192.361 -246.08)" fill="#5a5a5a"/>
    <path id="Path_33393" data-name="Path 33393" d="M505.78,662.137a66.458,66.458,0,0,0-35.711,19.917,28.618,28.618,0,0,0-5.135,7.351,16.414,16.414,0,0,0-1.324,8.537c.252,2.722.825,5.477.411,8.213A10.051,10.051,0,0,1,459.473,713c-2.935,1.962-6.4,2.753-9.816,3.408-3.792.727-7.743,1.423-10.908,3.792-.383.287-.806-.325-.424-.611,5.507-4.122,12.887-3.257,18.911-6.166,2.811-1.358,5.23-3.571,5.926-6.716.609-2.751.02-5.592-.258-8.346a17.516,17.516,0,0,1,.984-8.4,26.457,26.457,0,0,1,4.834-7.521,64.481,64.481,0,0,1,15.557-12.809,67.636,67.636,0,0,1,21.445-8.24c.468-.093.522.649.057.742Z" transform="translate(-192.412 -246.637)" fill="#6e6e6e"/>
    <path id="Path_33394" data-name="Path 33394" d="M486.044,680.257a9.971,9.971,0,0,1,.228-12.909c.318-.358.889.118.571.477a9.233,9.233,0,0,0-.188,12.009C486.961,680.2,486.347,680.623,486.044,680.257Z" transform="translate(-205.517 -248.313)" fill="#6e6e6e"/>
    <path id="Path_33395" data-name="Path 33395" d="M473.257,709.256a19.218,19.218,0,0,0,13.516-3.67c.384-.286.808.326.424.612a19.991,19.991,0,0,1-14.072,3.791C472.647,709.935,472.783,709.2,473.257,709.256Z" transform="translate(-202.368 -259.314)" fill="#6e6e6e"/>
    <path id="Path_33396" data-name="Path 33396" d="M512.068,668.727a5.644,5.644,0,0,0,4.434,3c.477.047.341.778-.133.732a6.324,6.324,0,0,1-4.913-3.312.384.384,0,0,1,.094-.517.374.374,0,0,1,.518.094Z" transform="translate(-213.449 -248.7)" fill="#fff"/>
    <path id="Path_33397" data-name="Path 33397" d="M417.792,308.215H326.764a10.622,10.622,0,0,1-10.61-10.61V248.027a10.622,10.622,0,0,1,10.61-10.61h91.029a10.622,10.622,0,0,1,10.61,10.61V297.6a10.622,10.622,0,0,1-10.61,10.61Z" transform="translate(-157.354 -124.824)" fill="#5a5a5a"/>
    <path id="Path_33398" data-name="Path 33398" d="M612.792,308.215H521.764a10.622,10.622,0,0,1-10.61-10.61V248.027a10.621,10.621,0,0,1,10.61-10.61h91.029a10.622,10.622,0,0,1,10.61,10.61V297.6a10.622,10.622,0,0,1-10.61,10.61Z" transform="translate(-213.38 -124.824)" fill="#8ab4f8"/>
    <path id="Path_33399" data-name="Path 33399" d="M807.792,308.215H716.764a10.622,10.622,0,0,1-10.61-10.61V248.027a10.622,10.622,0,0,1,10.61-10.61h91.029a10.622,10.622,0,0,1,10.61,10.61V297.6a10.622,10.622,0,0,1-10.61,10.61Z" transform="translate(-269.406 -124.824)" fill="#5a5a5a"/>
    <path id="Path_33400" data-name="Path 33400" d="M417.792,463.215H326.764a10.622,10.622,0,0,1-10.61-10.61V403.027a10.622,10.622,0,0,1,10.61-10.61h91.029a10.622,10.622,0,0,1,10.61,10.61v49.578A10.622,10.622,0,0,1,417.792,463.215Z" transform="translate(-157.354 -169.358)" fill="#5a5a5a"/>
    <path id="Path_33401" data-name="Path 33401" d="M612.792,463.215H521.764a10.622,10.622,0,0,1-10.61-10.61V403.027a10.621,10.621,0,0,1,10.61-10.61h91.029a10.622,10.622,0,0,1,10.61,10.61v49.578A10.622,10.622,0,0,1,612.792,463.215Z" transform="translate(-213.38 -169.358)" fill="#5a5a5a"/>
    <g id="aa405d94-515b-444f-88dd-2c52df39214d" transform="translate(389.582 270.464)">
      <circle id="ede3a9f0-5e02-4455-ac7e-751a5f8c3692" cx="16.258" cy="16.258" r="16.258" fill="#8ab4f8"/>
      <path id="ba039ca8-d148-45ed-9781-bacb7304e881" d="M666.228,477.077H660.7V471.55a1.3,1.3,0,0,0-1.3-1.3h0a1.3,1.3,0,0,0-1.3,1.3v5.528h-5.528a1.3,1.3,0,0,0-1.3,1.3h0a1.3,1.3,0,0,0,1.3,1.3H658.1v5.528a1.3,1.3,0,0,0,1.3,1.3h0a1.3,1.3,0,0,0,1.3-1.3v-5.528h5.528a1.3,1.3,0,0,0,1.3-1.3h0a1.3,1.3,0,0,0-1.3-1.3h0Z" transform="translate(-643.219 -462.184)" fill="#fff"/>
    </g>
    <g id="bbf41f8a-587e-4352-8304-6d86282586e3" transform="translate(530.694 162.849)">
      <circle id="e4c91425-bc08-43ed-9b2d-9a6452dd6ab0" cx="16.258" cy="16.258" r="16.258" fill="#8ab4f8"/>
      <path id="b08e8960-896e-4763-a2dc-6c3da3e5d175" d="M864.228,326.077H858.7v-5.528a1.3,1.3,0,0,0-1.3-1.3h0a1.3,1.3,0,0,0-1.3,1.3v5.528h-5.528a1.3,1.3,0,0,0-1.3,1.3h0a1.3,1.3,0,0,0,1.3,1.3H856.1v5.528a1.3,1.3,0,0,0,1.3,1.3h0a1.3,1.3,0,0,0,1.3-1.3v-5.528h5.528a1.3,1.3,0,0,0,1.3-1.3h0a1.3,1.3,0,0,0-1.3-1.3h0Z" transform="translate(-841.22 -311.184)" fill="#fff"/>
    </g>
    <g id="b77ad267-181d-433f-b31f-af61e58bf4a6" transform="translate(250.608 161.423)">
      <circle id="e8aef769-5476-47e9-8295-ae809767f9aa" cx="16.258" cy="16.258" r="16.258" fill="#8ab4f8"/>
      <path id="efbebd4e-dbd2-4103-8d2c-f0ca8346a3bf" d="M471.228,324.077H465.7V318.55a1.3,1.3,0,0,0-1.3-1.3h0a1.3,1.3,0,0,0-1.3,1.3h0v5.528h-5.528a1.3,1.3,0,0,0-1.3,1.3h0a1.3,1.3,0,0,0,1.3,1.3H463.1v5.528a1.3,1.3,0,0,0,1.3,1.3h0a1.3,1.3,0,0,0,1.3-1.3v-5.528h5.528a1.3,1.3,0,0,0,1.3-1.3h0a1.3,1.3,0,0,0-1.3-1.3h0Z" transform="translate(-448.219 -309.184)" fill="#fff"/>
    </g>
    <path id="Path_33402" data-name="Path 33402" d="M628.471,295.418a6.464,6.464,0,0,1-5.217,8.427l-7.518,51.314L603.4,349.136l12.4-51.221a6.5,6.5,0,0,1,12.663-2.5Z" transform="translate(-239.885 -140.196)" fill="#9e616a"/>
    <path id="Path_33403" data-name="Path 33403" d="M507.826,501.96a6.464,6.464,0,0,0-2.489-9.594l5.072-54.582-10.622,5.445-3.317,52.6a6.5,6.5,0,0,0,11.356,6.134Z" transform="translate(-209.03 -182.392)" fill="#9e616a"/>
    <path id="Path_33404" data-name="Path 33404" d="M322.531,314.994l45.584-1.753,2.63-47.337h-52.6Z" transform="translate(-16.477 -23.032)" fill="#9e616a"/>
    <path id="Path_33405" data-name="Path 33405" d="M312.426,557.243h7.79l3.705-30.045h-11.5Z" transform="translate(-14.833 -98.106)" fill="#9e616a"/>
    <path id="Path_33406" data-name="Path 33406" d="M507.564,717.98l12.314-.735v5.276l11.707,8.085a3.3,3.3,0,0,1-1.873,6.007h-14.66l-2.527-5.218-.987,5.218h-5.527Z" transform="translate(-211.903 -262.685)" fill="#2f2e41"/>
    <path id="Path_33407" data-name="Path 33407" d="M361.04,557.243h7.79l3.705-30.045h-11.5Z" transform="translate(-28.801 -98.106)" fill="#9e616a"/>
    <path id="Path_33408" data-name="Path 33408" d="M518.135,472.359S504.5,483.371,511.89,522.7c-1.126.134.149,2.354.149,2.354l1.067,32.042.824,3.672-2.741,5.926,1.13,6.438-3.484,58.434,12.869,1.664,12.316-60.681,2.345-6.822,2.352-5.98-1.269-6.377,1.041-9.9,7.1-33.374,1.738,57.883L544.9,573.5l1.35,6.066-3.007,3.22-1.188,54.157,13.722.642,11.354-54.594-.88-6.967,1.51-5.151V558.844l2.587-5.679,5.64-30.964s1.7-24.2-10.713-52.681Z" transform="translate(-212.714 -191.511)" fill="#2f2e41"/>
    <path id="Path_33409" data-name="Path 33409" d="M519.576,365.013s-17.227,3.407-20.2,18.1-4.878,47.937-4.878,47.937l.65,4.63,16.664,3.864,10.636-46.583Z" transform="translate(-208.596 -161.484)" fill="#3f3d56"/>
    <path id="Path_33410" data-name="Path 33410" d="M584.847,361.238s1.746-2.447,11.525-2.824c.4-.015-.1-.814-.1-.814l4.7-22.986,15.672,8.677-2.646,24.1L588.252,396.68Z" transform="translate(-234.553 -152.75)" fill="#3f3d56"/>
    <path id="Path_33411" data-name="Path 33411" d="M552.55,435.207c-7.378,0-18.484-.814-35.2-3.3a5.106,5.106,0,0,1-4.286-4.275,3.866,3.866,0,0,1-.65-4.39l.016-.03-.379-.447a4.134,4.134,0,0,1-.276-5l-5.178-37.042a15.6,15.6,0,0,1,10.853-17.12l1.911-.6,7.228-9.455.142,0,23.206.309,7.531,9.563,12.173,2.87.032.185L572.5,382.82c1.47,8.494-1.9,11.835-6.2,19.3l1.263,20.977.573,1.041a2.822,2.822,0,0,1-.676,3.54,5.5,5.5,0,0,1,.075,3.4l-.3.984c0,.028-.079.428-.722.916C565.349,433.865,562.021,435.207,552.55,435.207Z" transform="translate(-212.025 -158.194)" fill="#3f3d56"/>
    <path id="Path_33412" data-name="Path 33412" d="M556.178,717.98l12.314-.735v5.276l11.707,8.085a3.3,3.3,0,0,1-1.872,6.007h-14.66l-2.527-5.218-.987,5.218h-5.527Z" transform="translate(-225.87 -262.685)" fill="#2f2e41"/>
    <circle id="Ellipse_122" data-name="Ellipse 122" cx="18.192" cy="18.192" r="18.192" transform="translate(304.411 186.892) rotate(-80.783)" fill="#9e616a"/>
    <path id="Path_33413" data-name="Path 33413" d="M536.77,287.821c-6.668-4.586-12.54-5.284-17.363-3.984a6.34,6.34,0,0,0-2.536-2.252c-3.762-9.479-15.21-15.171-25.035-12.4-9.888,2.785-16.711,13.738-14.85,23.841,1.153,6.262,5.094,11.685,6.679,17.852,3.069,11.939-4.417,25.614-16.128,29.462,11.088,2.226,23.293-4.546,27.27-15.133,1.932-5.142,2.049-10.756,2.294-16.244a53.852,53.852,0,0,1,1.384-11.248,24.028,24.028,0,0,1,1.79-4.79,16.39,16.39,0,0,1,7.844-7.61,6.256,6.256,0,0,0,.914,5.632c-2.6,3.257-4.016,6.78-4.016,8.89-5.4,9.873,2.323,18.353,12.2,23.754a20.226,20.226,0,0,0,12.923,2.253l.413-1.763.56,1.588,1.868,5.325q3.233,1.564,6.409,3.428c-.8-3.778-1.455-7.55-1.9-11.237-.62-5.019,1.541-12.49,3.1-17.034a26.82,26.82,0,0,0,1.468-8.7v-.13l1.518,4.877,5.527-2.358C548.07,293.937,549.1,287.24,536.77,287.821Z" transform="translate(-200.849 -133.749)" fill="#2f2e41"/>
    <path id="Path_33414" data-name="Path 33414" d="M720.314,745h-404.3a.849.849,0,1,1,0-1.7h404.3a.849.849,0,0,1,0,1.7Z" transform="translate(-157.069 -270.173)" fill="#ccc"/>
    <circle id="e4c91425-bc08-43ed-9b2d-9a6452dd6ab0-2" data-name="e4c91425-bc08-43ed-9b2d-9a6452dd6ab0" cx="16.258" cy="16.258" r="16.258" transform="translate(248.749 272.601)" fill="#8ab4f8"/>
    <path id="Path_33415" data-name="Path 33415" d="M782.745,453.753H725.721a6.654,6.654,0,0,1-6.647-6.647V416.049a6.654,6.654,0,0,1,6.647-6.646h57.024a6.654,6.654,0,0,1,6.647,6.646v31.058A6.654,6.654,0,0,1,782.745,453.753Z" transform="translate(-273.118 -174.238)" fill="#5a5a5a"/>
    <g id="bc9af32e-f7cd-4c85-a4cc-5543d455b8de" transform="translate(501.833 249.632)">
      <circle id="b56288f5-6382-4006-aaf1-aded98dde780" cx="8.634" cy="8.634" r="8.634" fill="#8ab4f8"/>
      <path id="b9aaef6b-2cfc-46ac-8dc0-30fdc28925de" d="M811.42,439.337h-2.936V436.4a.691.691,0,0,0-.691-.691h0a.691.691,0,0,0-.691.691v2.936h-2.935a.691.691,0,0,0-.691.691h0a.691.691,0,0,0,.691.691H807.1v2.936a.691.691,0,0,0,.691.691h0a.691.691,0,0,0,.691-.691v-2.936h2.936a.691.691,0,0,0,.691-.691h0a.691.691,0,0,0-.691-.691Z" transform="translate(-799.201 -431.428)" fill="#fff"/>
    </g>
    <path id="Path_33416" data-name="Path 33416" d="M819.033,444.366H772.04a7.532,7.532,0,0,1-7.523-7.523V408.791a1.386,1.386,0,1,1,2.772,0V416.3l54.585,4.962a4.163,4.163,0,0,1,4.089,4.158,1.391,1.391,0,0,1-.024.255l-2.751,14.67a4.163,4.163,0,0,1-4.155,4.017Zm-51.744-25.278v17.755a4.756,4.756,0,0,0,4.751,4.751h46.993a1.387,1.387,0,0,0,1.386-1.386,1.389,1.389,0,0,1,.024-.255l2.744-14.636a1.388,1.388,0,0,0-1.382-1.279c-.042,0-.084,0-.126-.006Z" transform="translate(-286.175 -173.664)" fill="#8ab4f8"/>
    <circle id="Ellipse_123" data-name="Ellipse 123" cx="2.31" cy="2.31" r="2.31" transform="translate(471.068 279.017)" fill="#8ab4f8"/>
    <circle id="Ellipse_124" data-name="Ellipse 124" cx="2.31" cy="2.31" r="2.31" transform="translate(528.7 279.017)" fill="#8ab4f8"/>
    <path id="Path_33417" data-name="Path 33417" d="M816.19,469.817H754.4a1.386,1.386,0,1,1,0-2.772h61.79a1.386,1.386,0,0,1,0,2.772Z" transform="translate(-282.87 -190.799)" fill="#8ab4f8"/>
    <path id="Path_33418" data-name="Path 33418" d="M766.247,409.53H754.234a1.386,1.386,0,1,1,0-2.772h12.012a1.386,1.386,0,1,1,0,2.772Z" transform="translate(-282.822 -173.478)" fill="#8ab4f8"/>
    <path id="Path_33419" data-name="Path 33419" d="M780.938,465.67a1.38,1.38,0,0,1-.9-.335l-9.11-7.829a1.386,1.386,0,0,1,1.806-2.1l9.11,7.829a1.386,1.386,0,0,1-.9,2.437Z" transform="translate(-287.877 -187.359)" fill="#8ab4f8"/>
    <path id="Path_33420" data-name="Path 33420" d="M787.3,447.984a1.386,1.386,0,0,1-1.386-1.386V424.349a1.386,1.386,0,0,1,2.772,0V446.6a1.386,1.386,0,0,1-1.386,1.386Z" transform="translate(-292.323 -178.134)" fill="#8ab4f8"/>
    <path id="Path_33421" data-name="Path 33421" d="M828.385,448.729A1.386,1.386,0,0,1,827,447.343v-20.4a1.386,1.386,0,1,1,2.772,0v20.4a1.386,1.386,0,0,1-1.386,1.386Z" transform="translate(-304.127 -178.879)" fill="#8ab4f8"/>
  </g>
</svg>
