<svg xmlns="http://www.w3.org/2000/svg" width="434.397" height="293.771" viewBox="0 0 434.397 293.771">
  <g id="Group_1755" data-name="Group 1755" transform="translate(0 0)">
    <path id="Path_21772" data-name="Path 21772" d="M192.884,542.218c-2.063,0-4.13.085-6.148.257l-.294.025c-13.389,1.184-23.183,8.05-22.78,15.973l.078,1.432c.051.906.106,1.879.151,2.959.024.533.751.942,1.656.942h329.34c23.22-.141,46.356-.318,68.762-.527a117.009,117.009,0,0,0,12.58-.652c6.227-.737,10.548-2.2,13.213-4.466h0c3.314-2.813,3.418-6.354,3.218-10.356-.408-8.08-.813-16.568-1.217-25.031-.357-7.458-.712-14.9-1.067-22.018-.22-4.226-.708-7.956-4.471-10.807-4.079-3.083-11.519-4.646-22.112-4.646h-.385c-33.2.118-66.094,11.534-81.855,28.406-1.815,1.943-3.506,4.023-5.141,6.035a81.783,81.783,0,0,1-7.9,8.793A37.116,37.116,0,0,1,463.3,532.6c-.128.089-.274.183-.429.273-.354.231-.725.453-1.086.652a37.714,37.714,0,0,1-6.652,3.025l-.233.078c-.176.063-.366.125-.556.183-1.334.428-2.72.8-4.109,1.1a66.162,66.162,0,0,1-20.3.943,98.116,98.116,0,0,1-20.188-4.114c-6.912-2.184-13.382-4.908-19.639-7.542-2.748-1.157-5.591-2.354-8.43-3.487-.534-.213-1.058-.422-1.591-.63-3.467-1.351-6.611-2.467-9.61-3.412a94.85,94.85,0,0,0-22.9-4.242c-8.257-.452-15.533.4-21.622,2.528a37.134,37.134,0,0,0-4.891,2.107c-7.211,3.745-11.657,9.272-15.956,14.617-5.348,6.648-10.878,13.524-21.8,17.088-12.6,4.116-30.992,2.406-44-.568-4.091-.935-8.177-2.011-12.129-3.052q-2.394-.631-4.791-1.253c-3.141-.811-5.711-1.432-8.089-1.957l-.752-.167c-.418-.091-.837-.182-1.263-.268-2.825-.593-5.455-1.06-8.045-1.427l-.613-.089c-1.229-.162-2.377-.3-3.5-.41l-.45-.045C197.458,542.322,195.173,542.218,192.884,542.218Z" transform="translate(-163.651 -320.845)" fill="#707070"/>
    <path id="Path_21773" data-name="Path 21773" d="M888.068,607.5c9.267-8.351,23.051-12.55,34.613-7.867a57.475,57.475,0,0,0-25.828,29.833c-1.841,4.9-3.378,10.536-7.905,13.158a12.848,12.848,0,0,1-9.48.924,38.155,38.155,0,0,1-8.91-3.929l-.812-.018C873.393,627.674,878.8,615.854,888.068,607.5Z" transform="translate(-518.277 -377.289)" fill="#707070"/>
    <path id="Path_21774" data-name="Path 21774" d="M922.748,601.555a49.125,49.125,0,0,0-27.33,12.907,21.154,21.154,0,0,0-4.154,5.165,12.134,12.134,0,0,0-1.4,6.23,25.121,25.121,0,0,1-.107,6.078,7.43,7.43,0,0,1-3.7,4.823,19.3,19.3,0,0,1-7.41,2.023c-2.833.347-5.782.663-8.234,2.252-.3.193-.579-.28-.282-.472,4.267-2.765,9.666-1.759,14.255-3.6a7.524,7.524,0,0,0,4.706-4.658c.586-2,.294-4.123.226-6.168a12.946,12.946,0,0,1,1.144-6.143,19.555,19.555,0,0,1,3.94-5.306,47.659,47.659,0,0,1,12.112-8.671A50,50,0,0,1,922.743,601c.35-.045.353.505.005.55Z" transform="translate(-518.409 -378.953)" fill="#fff"/>
    <path id="Path_21775" data-name="Path 21775" d="M924.276,613.508a7.37,7.37,0,0,1,.813-9.509c.252-.248.65.132.4.38a6.825,6.825,0,0,0-.738,8.847C924.955,613.513,924.482,613.793,924.276,613.508Z" transform="translate(-544.978 -380.418)" fill="#fff"/>
    <path id="Path_21776" data-name="Path 21776" d="M909.23,646.788a14.206,14.206,0,0,0,10.151-2.033c.3-.191.579.281.282.472a14.776,14.776,0,0,1-10.568,2.094C908.747,647.258,908.883,646.725,909.23,646.788Z" transform="translate(-537.939 -400.905)" fill="#fff"/>
    <path id="Path_21777" data-name="Path 21777" d="M953.144,607.206a4.172,4.172,0,0,0,3.12,2.436c.349.058.213.591-.134.533a4.675,4.675,0,0,1-3.458-2.687.284.284,0,0,1,.1-.377.276.276,0,0,1,.377.1Z" transform="translate(-559.908 -382.002)" fill="#fff"/>
    <path id="Path_21778" data-name="Path 21778" d="M934.746,667.67c-.219-.03-.439-.06-.661-.087a54.94,54.94,0,0,0-8.9-.452c-.23,0-.463.01-.693.02a57.922,57.922,0,0,0-20.782,4.784,56.246,56.246,0,0,0-7.548,4.01c-3.329,2.108-6.771,4.658-10.492,5.518a9.671,9.671,0,0,1-1.176.209L869.12,668.358c-.02-.048-.043-.092-.063-.14l-.638-.5c.119-.087.244-.176.363-.263.069-.051.141-.1.21-.15.047-.033.094-.066.134-.1l.044-.03c.04-.032.081-.058.119-.087q1.047-.741,2.108-1.471s0,0,.01,0a82.7,82.7,0,0,1,17.223-9.258c.183-.069.368-.142.558-.2a53.675,53.675,0,0,1,8.432-2.373,47.455,47.455,0,0,1,4.755-.664,39.461,39.461,0,0,1,12.306.872c8.036,1.863,15.386,6.276,19.739,13.157C934.532,667.317,934.637,667.49,934.746,667.67Z" transform="translate(-517.611 -405.051)" fill="#707070"/>
    <path id="Path_21779" data-name="Path 21779" d="M934.879,675.778a49.126,49.126,0,0,0-29.592-6.149,21.157,21.157,0,0,0-6.427,1.623,12.134,12.134,0,0,0-4.871,4.13,25.111,25.111,0,0,1-3.744,4.788,7.429,7.429,0,0,1-5.854,1.626,19.3,19.3,0,0,1-7.135-2.846c-2.471-1.429-5.016-2.951-7.931-3.159-.353-.025-.293-.572.059-.547,5.072.361,8.777,4.416,13.551,5.7a7.524,7.524,0,0,0,6.562-.886c1.671-1.242,2.717-3.115,3.894-4.789A12.947,12.947,0,0,1,898,671.059a19.554,19.554,0,0,1,6.34-1.864,47.659,47.659,0,0,1,14.891.369,50,50,0,0,1,15.971,5.772c.307.175-.022.616-.327.442Z" transform="translate(-517.948 -412.993)" fill="#fff"/>
    <path id="Path_21780" data-name="Path 21780" d="M948.408,662.206a7.37,7.37,0,0,1,6.374-7.1c.351-.046.439.5.088.543a6.825,6.825,0,0,0-5.916,6.62C948.947,662.619,948.4,662.558,948.408,662.206Z" transform="translate(-557.785 -406.123)" fill="#fff"/>
    <path id="Path_21781" data-name="Path 21781" d="M919.588,680.119a14.206,14.206,0,0,0,9.329,4.489c.353.026.293.573-.059.547a14.777,14.777,0,0,1-9.7-4.691c-.241-.26.189-.6.428-.345Z" transform="translate(-543.06 -418.642)" fill="#fff"/>
    <path id="Path_21782" data-name="Path 21782" d="M979.634,673.278a4.172,4.172,0,0,0,1.025,3.824c.244.257-.186.6-.428.345a4.675,4.675,0,0,1-1.143-4.228.284.284,0,0,1,.3-.244.276.276,0,0,1,.244.3Z" transform="translate(-573.135 -415.1)" fill="#fff"/>
    <path id="Path_21783" data-name="Path 21783" d="M408.432,615.642c7.588-11.51,21.162-19.835,34.831-18.044a63.517,63.517,0,0,0-19.324,39.093c-.606,5.75-.682,12.208-4.795,16.272a14.2,14.2,0,0,1-9.882,3.625,42.169,42.169,0,0,1-10.622-1.724l-.874.206C398.348,641.3,400.843,627.151,408.432,615.642Z" transform="translate(-281.232 -377.122)" fill="#707070"/>
    <path id="Path_21784" data-name="Path 21784" d="M443.259,597.81a54.29,54.29,0,0,0-25.64,21.408,23.379,23.379,0,0,0-3.006,6.68,13.409,13.409,0,0,0,.233,7.053c.616,2.147,1.494,4.271,1.577,6.53a8.21,8.21,0,0,1-2.611,6.186,21.332,21.332,0,0,1-7.362,4.226c-2.934,1.16-6,2.318-8.18,4.7-.264.289-.7-.138-.433-.426,3.794-4.144,9.849-4.57,14.243-7.82a8.315,8.315,0,0,0,3.737-6.291c.071-2.3-.833-4.492-1.475-6.66a14.308,14.308,0,0,1-.485-6.888,21.612,21.612,0,0,1,2.738-6.771,52.669,52.669,0,0,1,10.542-12.643,55.255,55.255,0,0,1,15.962-9.869C443.462,597.078,443.619,597.665,443.259,597.81Z" transform="translate(-281.227 -377.044)" fill="#fff"/>
    <path id="Path_21785" data-name="Path 21785" d="M438.289,624.318a8.145,8.145,0,0,1-1.776-10.4c.2-.336.731-.04.531.3a7.542,7.542,0,0,0,1.672,9.668c.3.25-.127.681-.426.433Z" transform="translate(-300.12 -385.368)" fill="#fff"/>
    <path id="Path_21786" data-name="Path 21786" d="M430.883,661.78a15.7,15.7,0,0,0,10.292-5c.265-.288.7.139.433.427a16.329,16.329,0,0,1-10.72,5.179c-.391.03-.393-.578,0-.608Z" transform="translate(-297.719 -406.92)" fill="#fff"/>
    <path id="Path_21787" data-name="Path 21787" d="M466.251,610.135a4.611,4.611,0,0,0,4.015,1.738c.39-.035.392.573,0,.607a5.167,5.167,0,0,1-4.446-1.912.314.314,0,0,1,0-.43A.305.305,0,0,1,466.251,610.135Z" transform="translate(-315.37 -383.496)" fill="#fff"/>
    <path id="Path_21788" data-name="Path 21788" d="M467.469,668.106c-.243.029-.486.057-.731.09a60.721,60.721,0,0,0-9.646,1.993c-.245.068-.493.14-.735.214a64.013,64.013,0,0,0-20.9,10.9,62.158,62.158,0,0,0-6.957,6.388c-2.974,3.18-5.946,6.865-9.686,8.82a10.681,10.681,0,0,1-1.2.551L397.47,687.1c-.034-.046-.071-.087-.106-.132l-.823-.361c.1-.127.212-.256.315-.382.059-.074.123-.145.182-.219.041-.048.082-.1.116-.143.014-.016.027-.032.039-.044.034-.046.071-.085.1-.127q.914-1.084,1.846-2.159s0,0,.009-.007A91.4,91.4,0,0,1,415,668.832c.176-.125.354-.254.54-.374a59.315,59.315,0,0,1,8.358-4.883,52.439,52.439,0,0,1,4.9-2.033,43.608,43.608,0,0,1,13.4-2.491c9.113-.243,18.2,2.432,24.772,8.581C467.139,667.789,467.3,667.944,467.469,668.106Z" transform="translate(-280.617 -408.1)" fill="#707070"/>
    <path id="Path_21789" data-name="Path 21789" d="M467.61,675.241a54.289,54.289,0,0,0-33.361,1.656,23.379,23.379,0,0,0-6.422,3.524,13.409,13.409,0,0,0-4.06,5.772c-.8,2.085-1.379,4.31-2.673,6.163a8.21,8.21,0,0,1-5.809,3.367,21.331,21.331,0,0,1-8.422-1.059c-3.041-.84-6.185-1.761-9.361-1.173-.385.071-.473-.53-.089-.6,5.525-1.024,10.616,2.281,16.081,2.331a8.315,8.315,0,0,0,6.771-2.773c1.442-1.794,2.04-4.088,2.832-6.205a14.309,14.309,0,0,1,3.76-5.792,21.614,21.614,0,0,1,6.263-3.758,52.674,52.674,0,0,1,16.03-3.748,55.255,55.255,0,0,1,18.687,1.73c.377.1.147.665-.227.564Z" transform="translate(-280.931 -415.001)" fill="#fff"/>
    <path id="Path_21790" data-name="Path 21790" d="M478.2,668.552a8.145,8.145,0,0,1,4.841-9.37c.362-.147.608.409.245.556a7.542,7.542,0,0,0-4.485,8.726c.09.38-.512.467-.6.089Z" transform="translate(-321.524 -408.16)" fill="#fff"/>
    <path id="Path_21791" data-name="Path 21791" d="M450.647,697.446a15.7,15.7,0,0,0,11.226,2.206c.385-.07.473.531.089.6a16.33,16.33,0,0,1-11.677-2.319C449.955,697.722,450.319,697.236,450.647,697.446Z" transform="translate(-307.544 -427.365)" fill="#fff"/>
    <path id="Path_21792" data-name="Path 21792" d="M513.088,673.4a4.61,4.61,0,0,0,2.16,3.8c.332.207-.032.694-.362.488a5.166,5.166,0,0,1-2.4-4.2.314.314,0,0,1,.256-.345.305.305,0,0,1,.345.256Z" transform="translate(-338.848 -415.182)" fill="#fff"/>
    <path id="Path_21793" data-name="Path 21793" d="M519.262,414.523a4.858,4.858,0,0,0-.638-7.422l7.93-38.381-8.556,2.7-6.38,37.13a4.885,4.885,0,0,0,7.644,5.973Z" transform="translate(-338.057 -262.293)" fill="#ffb6b6"/>
    <path id="Path_21794" data-name="Path 21794" d="M539.365,250.59l-5.3-4s-4.675-.331-5.5,8.1-6.012,40.792-6.012,40.792l-8.11,37.563,11.227,2.464,8.686-40.537,8.7-27.966Z" transform="translate(-339.83 -200.953)" fill="#e6e6e6"/>
    <path id="Path_21795" data-name="Path 21795" d="M530.015,348.452l-25.423-19.768a1.9,1.9,0,0,1-.333-2.657l17.3-22.246a1.9,1.9,0,0,1,2.657-.333l25.423,19.768a1.9,1.9,0,0,1,.333,2.657l-17.3,22.247A1.9,1.9,0,0,1,530.015,348.452Z" transform="translate(-334.517 -229.311)" fill="#3f3d56"/>
    <path id="Path_21796" data-name="Path 21796" d="M531.993,348.515l-23.267-18.091a1.683,1.683,0,0,1-.3-2.359L524.112,307.9a1.683,1.683,0,0,1,2.359-.3l23.267,18.091a1.683,1.683,0,0,1,.3,2.359L534.352,348.22a1.683,1.683,0,0,1-2.359.295Z" transform="translate(-336.635 -231.42)" fill="#9f9f9f"/>
    <path id="Path_21797" data-name="Path 21797" d="M515.344,341.753a.421.421,0,0,1-.074-.59l7.911-10.174a.42.42,0,1,1,.664.516l-7.911,10.174A.421.421,0,0,1,515.344,341.753Z" transform="translate(-340.203 -243.261)" fill="#e4e4e4"/>
    <path id="Path_21798" data-name="Path 21798" d="M517.978,343.8a.421.421,0,0,1-.074-.59l7.911-10.174a.42.42,0,1,1,.664.516l-7.911,10.174A.421.421,0,0,1,517.978,343.8Z" transform="translate(-341.526 -244.29)" fill="#e4e4e4"/>
    <path id="Path_21799" data-name="Path 21799" d="M529.616,340.085a.421.421,0,0,1-.074-.59l3.429-4.41a.42.42,0,1,1,.664.516l-3.429,4.41A.421.421,0,0,1,529.616,340.085Z" transform="translate(-347.371 -245.319)" fill="#e4e4e4"/>
    <path id="Path_21800" data-name="Path 21800" d="M533.167,345.716a.421.421,0,0,1-.074-.59l12.489-16.061a.42.42,0,1,1,.664.516l-12.489,16.061A.421.421,0,0,1,533.167,345.716Z" transform="translate(-349.154 -242.295)" fill="#e4e4e4"/>
    <path id="Path_21801" data-name="Path 21801" d="M535.8,347.764a.421.421,0,0,1-.074-.59l12.489-16.061a.42.42,0,0,1,.664.516l-12.489,16.061A.421.421,0,0,1,535.8,347.764Z" transform="translate(-350.477 -243.324)" fill="#e4e4e4"/>
    <path id="Path_21802" data-name="Path 21802" d="M541.78,352.413a.421.421,0,0,1-.074-.59L554.2,335.762a.42.42,0,1,1,.664.516L542.37,352.339a.421.421,0,0,1-.59.074Z" transform="translate(-353.48 -245.658)" fill="#e4e4e4"/>
    <path id="Path_21803" data-name="Path 21803" d="M544.414,354.461a.421.421,0,0,1-.074-.59l12.489-16.061a.42.42,0,1,1,.664.516L545,354.388a.421.421,0,0,1-.59.074Z" transform="translate(-354.803 -246.687)" fill="#e4e4e4"/>
    <path id="Path_21804" data-name="Path 21804" d="M550.394,359.11a.421.421,0,0,1-.074-.59l12.489-16.061a.42.42,0,1,1,.664.516l-12.489,16.061A.421.421,0,0,1,550.394,359.11Z" transform="translate(-357.806 -249.022)" fill="#e4e4e4"/>
    <path id="Path_21805" data-name="Path 21805" d="M553.028,361.158a.421.421,0,0,1-.074-.59l12.489-16.061a.42.42,0,1,1,.664.516l-12.488,16.061A.421.421,0,0,1,553.028,361.158Z" transform="translate(-359.129 -250.05)" fill="#e4e4e4"/>
    <circle id="Ellipse_89" data-name="Ellipse 89" cx="0.173" cy="0.173" r="0.173" transform="translate(172.854 129.415)" fill="#fff"/>
    <path id="Path_21806" data-name="Path 21806" d="M557.137,165.759a41.549,41.549,0,0,1-2.965,9.463c-7.8,16.5,14.416,11.125,22.356,11.125,8.681,0,16.987,4.565,15.718-15.718-.542-8.664-7.037-15.718-15.718-15.718C569.113,154.909,558.687,158.206,557.137,165.759Z" transform="translate(-358.964 -154.909)" fill="#2f2e41"/>
    <path id="Path_21807" data-name="Path 21807" d="M442.326,479.3h-7.4l-3.52-28.528h10.916Z" transform="translate(-216.67 -226.394)" fill="#ffb6b6"/>
    <path id="Path_21808" data-name="Path 21808" d="M598.694,669.986h-5.3l-.947-5.008-2.425,5.008H575.951a3.162,3.162,0,0,1-1.8-5.765l11.234-7.759V651.4l11.816.705Z" transform="translate(-369.135 -404.265)" fill="#2f2e41"/>
    <path id="Path_21809" data-name="Path 21809" d="M515.6,466.235l-5.935,4.414L489.82,449.856l8.76-6.514Z" transform="translate(-246.006 -222.662)" fill="#ffb6b6"/>
    <path id="Path_21810" data-name="Path 21810" d="M703.413,646.642l-4.256,3.165-3.748-3.453,1.042,5.465-11.289,8.394a3.162,3.162,0,0,1-4.882-3.554l4.385-12.93-3.021-4.063,9.9-6.485Z" transform="translate(-423.037 -395.115)" fill="#2f2e41"/>
    <path id="Path_21811" data-name="Path 21811" d="M404.675,217.6l35.11-5.468-6.982-21H404.675Z" transform="translate(-203.243 -95.992)" fill="#ffb6b6"/>
    <path id="Path_21812" data-name="Path 21812" d="M599.108,367.291s14.033,12.124,7.558,46.687l-7.9,33.866,21.536,37.39-10.951,5.973-26.54-36.887-12.145-28.487-6.424-49.927Z" transform="translate(-364.841 -261.575)" fill="#2f2e41"/>
    <path id="Path_21813" data-name="Path 21813" d="M426.09,346.3l-.844,13.072,2.471,38.709,12.267,4.224,2.323-39.661Z" transform="translate(-213.574 -173.925)" fill="#2f2e41"/>
    <path id="Path_21814" data-name="Path 21814" d="M566.927,226.8l13.572.529,5.409,8.978,12.34,2.409-7.367,37.269,1.355,21.213-12.288-.075a35.942,35.942,0,0,0-24.049,9.035h0l.368-27.536-5.285-20.555,1.188-21.554,9.927-1.241Z" transform="translate(-358.182 -191.018)" fill="#e6e6e6"/>
    <circle id="Ellipse_90" data-name="Ellipse 90" cx="12.773" cy="12.773" r="12.773" transform="translate(203.491 5.887)" fill="#ffb6b6"/>
    <path id="Path_21815" data-name="Path 21815" d="M573.624,164.081a14.631,14.631,0,0,1,22.244,12.769c-6.508,1.634-13.346,2.885-20.287.391l-1.639-4.012-.966,4.015c-2.114.864-4.233,1.595-6.352-.008a14.939,14.939,0,0,1,7-13.154Z" transform="translate(-366.034 -158.442)" fill="#2f2e41"/>
    <path id="Path_21816" data-name="Path 21816" d="M641.108,417.48l1.722,15.626a1.907,1.907,0,0,0,1.823,1.347h7.937a1.908,1.908,0,0,0,1.823-1.347l1.426-11.976a2.9,2.9,0,1,0,.747-5.449,1.89,1.89,0,0,0-1.447-.669H642.931a1.908,1.908,0,0,0-1.823,2.468Zm14.98,2.84.874-2.84a1.887,1.887,0,0,0,.029-1.01c.037,0,.073-.011.11-.011a2.068,2.068,0,1,1,0,4.136,2.042,2.042,0,0,1-1.013-.276Z" transform="translate(-403.405 -285.542)" fill="#8ab4f8"/>
    <path id="Path_21817" data-name="Path 21817" d="M658.114,407.839a4.858,4.858,0,0,1,.676-7.419L651.055,362l8.542,2.743,6.192,37.162a4.885,4.885,0,0,1-7.675,5.934Z" transform="translate(-408.443 -258.917)" fill="#ffb6b6"/>
    <path id="Path_21818" data-name="Path 21818" d="M631.577,254.745l5.3-4s4.675-.331,5.5,8.1,6.013,40.792,6.013,40.792L656.5,337.2l-11.226,2.464-8.687-40.537-8.7-27.966Z" transform="translate(-396.811 -203.04)" fill="#e6e6e6"/>
    <circle id="Ellipse_91" data-name="Ellipse 91" cx="3" cy="3" r="3" transform="translate(186.023 80.679)" fill="#8ab4f8"/>
    <path id="Path_21819" data-name="Path 21819" d="M187.544,553.673H193.8l2.975-24.116h-9.228Z" transform="translate(-94.191 -265.962)" fill="#ffb6b6"/>
    <path id="Path_21820" data-name="Path 21820" d="M347.992,725.995h1.76l6.871-2.794,3.682,2.794h0a7.847,7.847,0,0,1,7.847,7.846v.256h-20.16Z" transform="translate(-256.234 -440.326)" fill="#2f2e41"/>
    <path id="Path_21821" data-name="Path 21821" d="M236.221,546.355l6.1,1.377,8.214-22.869-9-2.032Z" transform="translate(-118.639 -262.585)" fill="#ffb6b6"/>
    <path id="Path_21822" data-name="Path 21822" d="M395.85,719.461l1.717.388,7.318-1.212,2.977,3.536h0a7.847,7.847,0,0,1,5.926,9.383l-.056.249-19.665-4.44Z" transform="translate(-279.374 -438.034)" fill="#2f2e41"/>
    <path id="Path_21823" data-name="Path 21823" d="M328.2,472.845l5.654,63.345s-2.118,38.03,4.717,51.412h9.914l4.909-54.885.616-36.839,21.254,31.08-13.538,59.747,12.2,1.091L395.9,522.957l-24.134-60.869Z" transform="translate(-246.294 -309.185)" fill="#2f2e41"/>
    <circle id="Ellipse_92" data-name="Ellipse 92" cx="14.581" cy="14.581" r="14.581" transform="translate(73.247 33.622)" fill="#ffb8b8"/>
    <path id="Path_21824" data-name="Path 21824" d="M342.467,297.545,330.5,292.413l-5.823-6.177-14.547,2.346-3.86,6.618-12.494,11.618,14.639,66.189-.443,14.456s9.369,4.218,50-5.493c.487-.116-.533-.626-.533-.626Z" transform="translate(-229.007 -220.866)" fill="#3f3d56"/>
    <path id="Path_21825" data-name="Path 21825" d="M309.213,267.946q-.152-.208-.3-.419c-.04.085-.072.172-.118.255Z" transform="translate(-236.547 -211.469)" fill="#2f2e41"/>
    <path id="Path_21826" data-name="Path 21826" d="M338.429,223.247a9.3,9.3,0,0,0-4.868-4.7,8.882,8.882,0,0,0-6.659.006,13.413,13.413,0,0,0-6.325-2.3,7.074,7.074,0,0,0-6.03,2.559,9.845,9.845,0,0,1-1.054,1.369c-1.117,1.035-2.815.885-4.3.674l2,1.713-2.419.632,2.823,1.712c-2.732,1.64-3.973,5.218-3.645,8.469a17.909,17.909,0,0,0,3.572,8.392c.708-1.5.556-3.284.544-4.968-.012-1.779.3-3.8,1.728-4.794a5.705,5.705,0,0,1,3.358-.694,154.283,154.283,0,0,1,17.5,1.093,4.927,4.927,0,0,1,2.241.65c1.284.876,1.535,2.685,1.664,4.271a30.947,30.947,0,0,0,.988-8.023,14.788,14.788,0,0,0-1.115-6.055Z" transform="translate(-236.097 -185.709)" fill="#2f2e41"/>
    <circle id="Ellipse_93" data-name="Ellipse 93" cx="22.949" cy="22.949" r="22.949" transform="translate(83.922 162.166)" fill="#9f9f9f"/>
    <path id="Path_21827" data-name="Path 21827" d="M354.684,479.674a23.58,23.58,0,0,0-3.521.265c-.6.087-1.181.2-1.757.337a23.448,23.448,0,0,0-9.94,40.7c.393.331.79.653,1.2.959a23.454,23.454,0,1,0,14.014-42.258Zm0,45.9a22.31,22.31,0,0,1-13.26-4.35c-.418-.306-.821-.622-1.214-.959a22.426,22.426,0,0,1,10.006-39.121c.571-.117,1.142-.209,1.724-.28a22.2,22.2,0,0,1,2.744-.168,22.439,22.439,0,0,1,0,44.879Z" transform="translate(-247.812 -318.018)" fill="#3f3d56"/>
    <rect id="Rectangle_1705" data-name="Rectangle 1705" width="25.499" height="3.06" rx="1.53" transform="translate(119.622 180.526) rotate(180)" fill="#8ab4f8"/>
    <rect id="Rectangle_1706" data-name="Rectangle 1706" width="25.499" height="3.06" rx="1.53" transform="translate(119.622 186.646) rotate(180)" fill="#8ab4f8"/>
    <rect id="Rectangle_1707" data-name="Rectangle 1707" width="25.499" height="3.06" rx="1.53" transform="translate(119.622 192.766) rotate(180)" fill="#8ab4f8"/>
    <path id="Path_21828" data-name="Path 21828" d="M720.758,550.927H714.2l-3.119-25.287h9.676Z" transform="translate(-357.132 -263.995)" fill="#9e616a"/>
    <path id="Path_21829" data-name="Path 21829" d="M658.448,550.927h-6.556l-3.119-25.287h9.676Z" transform="translate(-325.838 -263.995)" fill="#9e616a"/>
    <path id="Path_21830" data-name="Path 21830" d="M811.983,734.1h-20.16v-.255a7.847,7.847,0,0,1,7.846-7.847h0l3.682-2.794,6.871,2.794h1.76Z" transform="translate(-479.142 -440.326)" fill="#2f2e41"/>
    <path id="Path_21831" data-name="Path 21831" d="M875.983,734.1h-20.16v-.255a7.847,7.847,0,0,1,7.846-7.847h0l3.683-2.794,6.871,2.794h1.76Z" transform="translate(-511.285 -440.326)" fill="#2f2e41"/>
    <path id="Path_21832" data-name="Path 21832" d="M808.034,426.465l-9.964,60.669,2.712,9.041-3.558,6.4,5.225,56.232-2.121,4.67,5.926,3.655h12.059l.64-50.907,2.979-7.474v-4.119L828,473.592l1.116,43.473,1.764,7.486-1.482,5.33,1.936,3.734,5.142,34.63h13.522l-1.046-8.057h0a5.954,5.954,0,0,0,3.126-6.589l-.775-3.531,1.764-10.441,3.213-58.25-.906-47-15.818-12.1Z" transform="translate(-481.854 -289.192)" fill="#2f2e41"/>
    <circle id="Ellipse_219" data-name="Ellipse 219" cx="12.563" cy="12.563" r="12.563" transform="translate(336.458 34.24)" fill="#9e616a"/>
    <path id="Path_21833" data-name="Path 21833" d="M800.286,452.141a5.377,5.377,0,0,0-.861-8.2l4.885-18.474-9.412,3.166-3.2,17.058a5.407,5.407,0,0,0,8.584,6.451Z" transform="translate(-478.714 -290.793)" fill="#9e616a"/>
    <path id="Path_1101" data-name="Path 1101" d="M805.447,300.437l-2.02-.419-1.723.954s-4.813,6.417-4.813,12.3-5.883,62.567-5.883,62.567l10.7,4.813,8.556-44.385Z" transform="translate(-478.733 -227.788)" fill="#e6e6e6"/>
    <path id="Path_1104" data-name="Path 1104" d="M860.849,220.674s3.286-6.281-3.943-6.853c0,0-6.163-5.59-12.444-1.022a6.308,6.308,0,0,0-5.3,3.877s-2.695-1.022-3.287,1.713c0,0-1.972,5.71,0,10.85s2.627,5.71,2.627,5.71-3.24-10.775,4.647-11.346,16.712-5.5,17.369.782,1.646,7.829,1.646,7.829S868.407,223.244,860.849,220.674Z" transform="translate(-500.827 -183.082)" fill="#2f2e41"/>
    <path id="Path_21834" data-name="Path 21834" d="M936.866,514.03a3.844,3.844,0,0,1-2.57-.98l-38.02-33.844a3.877,3.877,0,0,1-.318-5.468l24.356-27.361a3.877,3.877,0,0,1,5.468-.318L963.8,479.9a3.873,3.873,0,0,1,.318,5.467l-24.356,27.361a3.846,3.846,0,0,1-2.668,1.292C937.019,514.028,936.942,514.03,936.866,514.03Z" transform="translate(-530.951 -300.644)" fill="#9f9f9f"/>
    <path id="Path_21835" data-name="Path 21835" d="M936.615,514.029a4.091,4.091,0,0,1-2.735-1.043l-38.02-33.844a4.127,4.127,0,0,1-.338-5.82l24.356-27.361a4.127,4.127,0,0,1,5.819-.338l38.02,33.844a4.122,4.122,0,0,1,.338,5.819L939.7,512.647a4.1,4.1,0,0,1-2.84,1.375C936.777,514.026,936.7,514.029,936.615,514.029Zm-13.657-68.451a3.118,3.118,0,0,0-2.337,1.046l-24.356,27.361a3.13,3.13,0,0,0,.256,4.414l38.02,33.844a3.125,3.125,0,0,0,4.413-.257l24.356-27.361a3.126,3.126,0,0,0-.256-4.413l-38.02-33.844a3.113,3.113,0,0,0-2.077-.79Z" transform="translate(-530.7 -300.393)" fill="#3f3d56"/>
    <path id="Path_21836" data-name="Path 21836" d="M975.028,501.355a1.669,1.669,0,0,1-1.113-.423l-29.844-26.566a1.676,1.676,0,0,1,2.228-2.5l29.844,26.566a1.675,1.675,0,0,1-1.115,2.927Z" transform="translate(-555.324 -313.881)" fill="#8ab4f8"/>
    <path id="Path_21837" data-name="Path 21837" d="M963.587,514.2a1.669,1.669,0,0,1-1.113-.423L932.63,487.213a1.676,1.676,0,0,1,2.229-2.5L964.7,511.276a1.675,1.675,0,0,1-1.115,2.926Z" transform="translate(-549.578 -320.334)" fill="#8ab4f8"/>
    <path id="Path_21838" data-name="Path 21838" d="M952.15,527.05a1.667,1.667,0,0,1-1.114-.424L921.192,500.06a1.676,1.676,0,1,1,2.229-2.5l29.844,26.566a1.675,1.675,0,0,1-1.115,2.927Z" transform="translate(-543.834 -326.786)" fill="#8ab4f8"/>
    <path id="Path_21839" data-name="Path 21839" d="M914.7,454.193a5.377,5.377,0,0,1,2.942-7.7l.032-19.109,8.281,5.481-1.3,17.306a5.406,5.406,0,0,1-9.955,4.025Z" transform="translate(-540.513 -291.754)" fill="#9e616a"/>
    <path id="Path_1100" data-name="Path 1100" d="M913.149,307.783l3.7-3.566,2.718,1.961s2.674,3.209,4.813,12.834,0,62.566,0,62.566l-11.765-1.6,1.6-27.807-4.813-23.529Z" transform="translate(-538.196 -229.897)" fill="#e6e6e6"/>
    <path id="Path_21840" data-name="Path 21840" d="M872.749,291.921l-12.464-5.954-8.462-7.849L836.392,278l-4.978,6.471-13.141,4.464,2.19,45.313-1.493,3.484s1.04.94,1.516,1.465-.657,4.926-.657,4.926l-.638,4.787,1.771,1.265-2.3,2.719-.571,4.286s40.177-9.986,47.768,6.557c.4.874-.587-7.668-.587-7.668l-.988-6.253.98-5.613,1.493-1.493-2.5-2.5,1.606-11.884Z" transform="translate(-492.334 -216.731)" fill="#3f3d56"/>
    <path id="Path_21841" data-name="Path 21841" d="M344.9,479.416a5.774,5.774,0,0,0-4.233-7.776l-2.769-20.33-8.028,7.017,3.86,18.23a5.805,5.805,0,0,0,11.169,2.859Z" transform="translate(-247.131 -303.772)" fill="#ffb8b8"/>
    <path id="Path_1101-2" data-name="Path 1101" d="M292.481,326.838l-2.176.417-1.315,1.656s-2.128,8.346.3,14.178,19.948,64.459,19.948,64.459l12.587.365-9.806-47.533Z" transform="translate(-226.167 -241.258)" fill="#3f3d56"/>
    <path id="Path_21842" data-name="Path 21842" d="M392.548,472.836a5.774,5.774,0,0,1,1.028-8.794l-5.011-19.9,10.065,3.518,3.216,18.355a5.805,5.805,0,0,1-9.3,6.817Z" transform="translate(-276.611 -300.174)" fill="#ffb8b8"/>
    <path id="Path_1101-3" data-name="Path 1101" d="M382.062,309.907l2.174-.425,1.838,1.046s5.086,6.951,5.012,13.266,5.524,67.248,5.524,67.248l-11.544,5.032-8.625-47.762Z" transform="translate(-270.522 -232.541)" fill="#3f3d56"/>
  </g>
</svg>
