<svg id="Group_1756" data-name="Group 1756" xmlns="http://www.w3.org/2000/svg" width="592.687" height="428.136" viewBox="0 0 592.687 428.136">
  <path id="Path_21843" data-name="Path 21843" d="M845.831,695.818H254.856a.857.857,0,0,1,0-1.713H845.831a.857.857,0,0,1,0,1.713Z" transform="translate(-254 -270.965)" fill="#ccc"/>
  <path id="Path_21844" data-name="Path 21844" d="M817.5,521.7H469.771a5.567,5.567,0,1,0,0,11.134h9.85V666.021a5.567,5.567,0,0,0,11.134,0l.085-133.183H795.664V666.021a5.567,5.567,0,0,0,11.134,0V535.772l1.62-2.935H817.5a5.567,5.567,0,0,0,0-11.134Z" transform="translate(-284.168 -246.222)" fill="#ccc"/>
  <path id="Path_21845" data-name="Path 21845" d="M676.855,512.81H571.523a7.7,7.7,0,0,1-7.693-7.693V447.125a7.7,7.7,0,0,1,7.693-7.693H676.855a7.7,7.7,0,0,1,7.693,7.693v57.992A7.7,7.7,0,0,1,676.855,512.81Z" transform="translate(-298.465 -234.415)" fill="#3f3d56"/>
  <path id="Path_21846" data-name="Path 21846" d="M677.846,446.345H572.516a1.777,1.777,0,0,0-1.773,1.773v57.993a1.777,1.777,0,0,0,1.773,1.773h105.33a1.776,1.776,0,0,0,1.773-1.773V448.118A1.777,1.777,0,0,0,677.846,446.345Z" transform="translate(-299.458 -235.407)" fill="#fff"/>
  <path id="Path_21847" data-name="Path 21847" d="M641.222,494.15s-12.609-2.906-19.545,2.421,8.827,17.434,8.827,17.434Z" transform="translate(-306.514 -242.154)" fill="#2f2e41"/>
  <circle id="Ellipse_94" data-name="Ellipse 94" cx="11.894" cy="11.894" r="11.894" transform="translate(314.447 222.718)" fill="#a0616a"/>
  <path id="Path_21848" data-name="Path 21848" d="M623.171,453.793a8.477,8.477,0,0,1,7.817-4.159,16.612,16.612,0,0,1,4.724,1.322l7.775,3.033c2.012.785,4.216,1.746,5.089,3.721.81,1.833.206,3.951-.406,5.859l-2.909,9.073a27.616,27.616,0,0,0-1.648-5.993,9.28,9.28,0,0,0-4.029-4.594c-2.02-1.036-4.4-1.015-6.667-.905-3.211.154-6.7.563-8.984,2.828a9.332,9.332,0,0,0-2.368,4.624,27.841,27.841,0,0,0-.5,5.234,43.389,43.389,0,0,1-3.314-7.1,17.58,17.58,0,0,1-1.231-5.751,8.089,8.089,0,0,1,1.854-5.47,5.306,5.306,0,0,1,5.336-1.68Z" transform="translate(-306.027 -235.877)" fill="#2f2e41"/>
  <path id="Path_21849" data-name="Path 21849" d="M658.89,504.344a2.117,2.117,0,0,0-1.773-1.533.744.744,0,0,0-.086-.051l-17.756-9.951a2.258,2.258,0,0,0-3.022.778l-4.856,7.863-7.314-7.314-.116-.116a2.258,2.258,0,0,0-2.892-.253l-14.593,10.219c-.026,0-.051.009-.077.009a3.111,3.111,0,0,0-2.6,2.9l-.377,7.614h58.275Z" transform="translate(-304.149 -242.034)" fill="#8ab4f8"/>
  <path id="Path_21850" data-name="Path 21850" d="M684.939,516.616H673.695a1.183,1.183,0,0,0-1.184-1.183h-3.55a1.184,1.184,0,0,0-1.184,1.183h-3.55a1.184,1.184,0,0,0-1.184-1.183h-3.55a1.183,1.183,0,0,0-1.183,1.183h-3.551a1.183,1.183,0,0,0-1.183-1.183h-3.551a1.183,1.183,0,0,0-1.183,1.183h-3.551a1.184,1.184,0,0,0-1.184-1.184h-3.55a1.183,1.183,0,0,0-1.183,1.184h-3.551a1.183,1.183,0,0,0-1.184-1.184h-3.55a1.183,1.183,0,0,0-1.184,1.184h-3.55a1.183,1.183,0,0,0-1.184-1.184h-3.55a1.184,1.184,0,0,0-1.184,1.184h-3.551a1.183,1.183,0,0,0-1.183-1.184h-3.551a1.183,1.183,0,0,0-1.183,1.184h-3.55a1.183,1.183,0,0,0-1.184-1.184h-3.55a1.184,1.184,0,0,0-1.184,1.183h-3.551a1.183,1.183,0,0,0-1.184-1.184h-3.55a1.183,1.183,0,0,0-1.184,1.184h-3.55a1.183,1.183,0,0,0-1.184-1.184h-3.55a1.184,1.184,0,0,0-1.184,1.184h-3.551a1.183,1.183,0,0,0-1.184-1.184h-3.55a1.183,1.183,0,0,0-1.184,1.184H561.854a3.551,3.551,0,1,0,0,7.1H684.939a3.551,3.551,0,1,0,0-7.1Z" transform="translate(-297.672 -245.322)" fill="#3f3d56"/>
  <path id="Path_21851" data-name="Path 21851" d="M529.137,492.739v23.575H470.072a11.795,11.795,0,1,1,0-23.575Z" transform="translate(-283.258 -242.064)" fill="#b5b5b5"/>
  <path id="Path_21852" data-name="Path 21852" d="M530.375,516.043a.907.907,0,0,1-.907.907H468.807a12.422,12.422,0,1,1,0-24.845h60.661a.907.907,0,0,1,0,1.814H468.807a10.609,10.609,0,1,0,0,21.218h60.661A.907.907,0,0,1,530.375,516.043Z" transform="translate(-283.045 -241.974)" fill="#1a73e8"/>
  <path id="Path_21853" data-name="Path 21853" d="M530.413,499.031H466.941a.181.181,0,0,1,0-.363h63.472a.181.181,0,0,1,0,.363Z" transform="translate(-284.534 -242.916)" fill="#ccc"/>
  <path id="Path_21854" data-name="Path 21854" d="M530.413,504.113H466.941a.181.181,0,1,1,0-.363h63.472a.181.181,0,0,1,0,.363Z" transform="translate(-284.534 -243.646)" fill="#ccc"/>
  <path id="Path_21855" data-name="Path 21855" d="M530.413,509.194H466.941a.181.181,0,1,1,0-.363h63.472a.181.181,0,0,1,0,.363Z" transform="translate(-284.534 -244.375)" fill="#ccc"/>
  <path id="Path_21856" data-name="Path 21856" d="M530.413,514.276H466.941a.181.181,0,1,1,0-.363h63.472a.181.181,0,0,1,0,.363Z" transform="translate(-284.534 -245.104)" fill="#ccc"/>
  <path id="Path_21857" data-name="Path 21857" d="M516.137,463.739v23.575H457.072a11.795,11.795,0,1,1,0-23.575Z" transform="translate(-281.392 -237.902)" fill="#b5b5b5"/>
  <path id="Path_21858" data-name="Path 21858" d="M517.375,487.043a.907.907,0,0,1-.907.907H455.807a12.422,12.422,0,1,1,0-24.845h60.661a.907.907,0,0,1,0,1.814H455.807a10.609,10.609,0,1,0,0,21.218h60.661A.907.907,0,0,1,517.375,487.043Z" transform="translate(-281.18 -237.812)" fill="#3f3d56"/>
  <path id="Path_21859" data-name="Path 21859" d="M517.413,470.031H453.941a.181.181,0,0,1,0-.363h63.472a.181.181,0,0,1,0,.363Z" transform="translate(-282.669 -238.754)" fill="#ccc"/>
  <path id="Path_21860" data-name="Path 21860" d="M517.413,475.113H453.941a.181.181,0,0,1,0-.363h63.472a.181.181,0,1,1,0,.363Z" transform="translate(-282.669 -239.484)" fill="#ccc"/>
  <path id="Path_21861" data-name="Path 21861" d="M517.413,480.194H453.941a.181.181,0,0,1,0-.363h63.472a.181.181,0,0,1,0,.363Z" transform="translate(-282.669 -240.213)" fill="#ccc"/>
  <path id="Path_21862" data-name="Path 21862" d="M517.413,485.276H453.941a.181.181,0,1,1,0-.363h63.472a.181.181,0,1,1,0,.363Z" transform="translate(-282.669 -240.942)" fill="#ccc"/>
  <path id="Path_21863" data-name="Path 21863" d="M594.095,614.087V593.531a3.426,3.426,0,0,0-3.426-3.426h-77.94a3.426,3.426,0,0,0-3.426,3.426v20.556Z" transform="translate(-290.64 -256.039)" fill="#ccc"/>
  <rect id="Rectangle_1709" data-name="Rectangle 1709" width="84.792" height="26.551" transform="translate(218.663 365.756)" fill="#ccc"/>
  <path id="Path_21864" data-name="Path 21864" d="M509.3,667.1v20.556a3.426,3.426,0,0,0,3.426,3.426h77.94a3.426,3.426,0,0,0,3.426-3.426V667.1Z" transform="translate(-290.64 -267.09)" fill="#ccc"/>
  <circle id="Ellipse_95" data-name="Ellipse 95" cx="2.569" cy="2.569" r="2.569" transform="translate(258.061 344.344)" fill="#fff"/>
  <circle id="Ellipse_96" data-name="Ellipse 96" cx="2.569" cy="2.569" r="2.569" transform="translate(258.061 378.603)" fill="#fff"/>
  <circle id="Ellipse_97" data-name="Ellipse 97" cx="2.569" cy="2.569" r="2.569" transform="translate(258.199 412.137)" fill="#fff"/>
  <path id="Path_21865" data-name="Path 21865" d="M585.137,562.739v23.575H526.072a11.795,11.795,0,1,1,0-23.575Z" transform="translate(-291.295 -252.11)" fill="#b5b5b5"/>
  <path id="Path_21866" data-name="Path 21866" d="M586.375,586.043a.907.907,0,0,1-.907.907H524.807a12.422,12.422,0,0,1,0-24.845h60.661a.907.907,0,1,1,0,1.813H524.807a10.609,10.609,0,1,0,0,21.218h60.661A.907.907,0,0,1,586.375,586.043Z" transform="translate(-291.082 -252.021)" fill="#3f3d56"/>
  <path id="Path_21867" data-name="Path 21867" d="M586.413,569.031H522.941a.181.181,0,1,1,0-.363h63.472a.181.181,0,0,1,0,.363Z" transform="translate(-292.571 -252.962)" fill="#ccc"/>
  <path id="Path_21868" data-name="Path 21868" d="M586.413,574.113H522.941a.181.181,0,1,1,0-.363h63.472a.181.181,0,0,1,0,.363Z" transform="translate(-292.571 -253.692)" fill="#ccc"/>
  <path id="Path_21869" data-name="Path 21869" d="M586.413,579.194H522.941a.181.181,0,1,1,0-.363h63.472a.181.181,0,0,1,0,.363Z" transform="translate(-292.571 -254.421)" fill="#ccc"/>
  <path id="Path_21870" data-name="Path 21870" d="M586.413,584.276H522.941a.181.181,0,0,1,0-.363h63.472a.181.181,0,0,1,0,.363Z" transform="translate(-292.571 -255.15)" fill="#ccc"/>
  <path id="Path_21871" data-name="Path 21871" d="M504.11,356.817V206.5a6.449,6.449,0,0,1,6.442-6.442H629.371a6.449,6.449,0,0,1,6.442,6.442V356.817a6.449,6.449,0,0,1-6.442,6.442H510.552a6.449,6.449,0,0,1-6.443-6.442Zm6.442-155.323a5.016,5.016,0,0,0-5.01,5.01V356.817a5.016,5.016,0,0,0,5.01,5.01H629.371a5.016,5.016,0,0,0,5.01-5.01V206.5a5.016,5.016,0,0,0-5.01-5.01Z" transform="translate(-289.895 -200.062)" fill="#e6e6e6"/>
  <path id="Path_21872" data-name="Path 21872" d="M588.776,274.948V244.084A3.225,3.225,0,0,1,592,240.863h26.154a3.225,3.225,0,0,1,3.221,3.221v30.864a3.225,3.225,0,0,1-3.221,3.221H592a3.224,3.224,0,0,1-3.221-3.222Z" transform="translate(-302.046 -205.917)" fill="#8ab4f8"/>
  <path id="Path_21873" data-name="Path 21873" d="M529.44,291.663V260.8a3.225,3.225,0,0,1,3.221-3.221h26.154a3.225,3.225,0,0,1,3.221,3.221v30.864a3.225,3.225,0,0,1-3.221,3.221H532.661a3.224,3.224,0,0,1-3.221-3.221Z" transform="translate(-293.53 -208.316)" fill="#b5b5b5"/>
  <path id="Path_21874" data-name="Path 21874" d="M577.076,342.641V311.777a3.225,3.225,0,0,1,3.221-3.221h26.154a3.225,3.225,0,0,1,3.221,3.221v30.864a3.224,3.224,0,0,1-3.221,3.221H580.3A3.224,3.224,0,0,1,577.076,342.641Z" transform="translate(-300.366 -215.632)" fill="#ff6584"/>
  <path id="Path_21875" data-name="Path 21875" d="M753.666,513.1H726.755a1.664,1.664,0,0,0-.736.171l-6.792,3.4a1.238,1.238,0,0,0,0,2.278l6.792,3.4a1.664,1.664,0,0,0,.736.171h26.911a1.412,1.412,0,0,0,1.49-1.311v-6.8A1.412,1.412,0,0,0,753.666,513.1Z" transform="translate(-320.659 -244.988)" fill="#3f3d56"/>
  <path id="Path_21876" data-name="Path 21876" d="M760.155,514.415v6.8a1.412,1.412,0,0,1-1.49,1.31H753.3V513.1h5.362a1.412,1.412,0,0,1,1.49,1.311Z" transform="translate(-325.658 -244.988)" fill="#8ab4f8"/>
  <path id="Path_21877" data-name="Path 21877" d="M758.373,453.576a9.424,9.424,0,0,1,12.754,5.922,9.057,9.057,0,0,1,.274,1.229l37.632,18.661,8.709-5.771,10.836,12.475-13.3,10.8a9.549,9.549,0,0,1-11.392.439l-38.181-26.4a8.988,8.988,0,0,1-.869.317,9.424,9.424,0,0,1-12-7.332,9.165,9.165,0,0,1-.139-1.147,9.452,9.452,0,0,1,5.675-9.189Z" transform="translate(-325.569 -236.334)" fill="#ffb8b8"/>
  <path id="Path_21878" data-name="Path 21878" d="M836.131,587.853h-41.12c0,1.182-42.379,2.141-42.379,2.141a11.021,11.021,0,0,0-1.807,1.713,10.63,10.63,0,0,0-2.484,6.852v1.713a10.71,10.71,0,0,0,10.706,10.706H836.13a10.715,10.715,0,0,0,10.706-10.706v-1.713A10.721,10.721,0,0,0,836.131,587.853Z" transform="translate(-324.946 -255.716)" fill="#3f3d56"/>
  <rect id="Rectangle_1710" data-name="Rectangle 1710" width="11.134" height="71.945" transform="translate(477.591 426.782) rotate(180)" fill="#3f3d56"/>
  <path id="Path_21879" data-name="Path 21879" d="M761.617,696.1c0,1.2,16.872.465,37.685.465s37.685.738,37.685-.465-16.872-10.743-37.685-10.743S761.617,694.9,761.617,696.1Z" transform="translate(-326.851 -269.709)" fill="#3f3d56"/>
  <path id="Path_21880" data-name="Path 21880" d="M516.757,483.43h-10.5l-5-27.234h15.5Z" transform="translate(-71.939 -65.471)" fill="#ffb8b8"/>
  <path id="Path_21881" data-name="Path 21881" d="M770.807,697.658H736.949v-.428a13.178,13.178,0,0,1,13.178-13.178h20.68Z" transform="translate(-323.311 -269.522)" fill="#2f2e41"/>
  <path id="Path_21882" data-name="Path 21882" d="M751.263,652.1,730.33,605.162a17.2,17.2,0,0,1,7.553-22.084l45.405-24.348,20.719-1.762,19.112-1.737.138.233c.176.3,4.286,7.4,1.508,15.178-2.107,5.9-7.587,10.515-16.289,13.705-20.311,7.447-43.774,13.813-52.919,16.2a2.956,2.956,0,0,0-1.894,1.507,3,3,0,0,0-.168,2.4l19.448,43.693a3.854,3.854,0,0,1-3.263,5.164l-14.532,1.058q-.185.018-.369.018A3.851,3.851,0,0,1,751.263,652.1Z" transform="translate(-322.15 -251.034)" fill="#2f2e41"/>
  <path id="Path_21883" data-name="Path 21883" d="M522.757,483.43h-10.5l-5-27.234h15.5Z" transform="translate(-72.8 -65.471)" fill="#ffb8b8"/>
  <path id="Path_21884" data-name="Path 21884" d="M776.807,697.658H742.95v-.428a13.178,13.178,0,0,1,13.178-13.178h20.679Z" transform="translate(-324.172 -269.522)" fill="#2f2e41"/>
  <path id="Path_21885" data-name="Path 21885" d="M758.263,655.1,737.33,608.162a17.2,17.2,0,0,1,7.553-22.084l45.405-24.348,20.719-1.762,19.112-1.737.138.233c.176.3,4.286,7.4,1.508,15.178-2.107,5.9-7.588,10.515-16.289,13.705-20.311,7.447-43.774,13.813-52.919,16.2a2.956,2.956,0,0,0-1.894,1.507,3,3,0,0,0-.168,2.4l19.448,43.693a3.854,3.854,0,0,1-3.263,5.164l-14.532,1.058q-.185.018-.368.018A3.852,3.852,0,0,1,758.263,655.1Z" transform="translate(-323.154 -251.465)" fill="#2f2e41"/>
  <path id="Path_21886" data-name="Path 21886" d="M746.347,493.939a143.461,143.461,0,0,1-20.62-38.483,3.685,3.685,0,0,1,1.74-4.436l30.1-16.129a3.637,3.637,0,0,1,3.191-.13,3.7,3.7,0,0,1,2.108,2.47,87.64,87.64,0,0,0,19.224,35.879,3.7,3.7,0,0,1,.889,3.123,3.637,3.637,0,0,1-1.875,2.585L751,494.947A3.685,3.685,0,0,1,746.347,493.939Z" transform="translate(-321.672 -233.701)" fill="#ccc"/>
  <path id="Path_21887" data-name="Path 21887" d="M748.831,492.826a1.112,1.112,0,0,0,1.389.287l30.1-16.129a1.067,1.067,0,0,0,.559-.768,1.129,1.129,0,0,0-.279-.966,90.225,90.225,0,0,1-19.791-36.936,1.13,1.13,0,0,0-.649-.767,1.068,1.068,0,0,0-.951.039l-30.1,16.128a1.112,1.112,0,0,0-.531,1.316,140.9,140.9,0,0,0,20.251,37.794Z" transform="translate(-322.102 -234.131)" fill="#fff"/>
  <path id="Path_21888" data-name="Path 21888" d="M861.583,495.559l-23.574,8.958-5.756-15.988a9.566,9.566,0,0,1,4.284-11.562h0a9.565,9.565,0,0,1,12.216,2.385Z" transform="translate(-336.907 -239.623)" fill="#6c63ff"/>
  <path id="Path_21889" data-name="Path 21889" d="M796.061,558.838a4.281,4.281,0,0,1-1.784-3.04c-3.02-28.187-.916-50.245,6.429-67.435a21.4,21.4,0,0,1,14.189-12.145l19.056-.962.1.048a22.273,22.273,0,0,1,12.178,23.628c-6.129,16.156-11.261,32.977-7.347,46.547a4.387,4.387,0,0,1-.414,3.412,4.184,4.184,0,0,1-2.669,1.978L799.5,559.5a4.252,4.252,0,0,1-3.44-.666Z" transform="translate(-331.347 -239.556)" fill="#8ab4f8"/>
  <circle id="Ellipse_98" data-name="Ellipse 98" cx="21.036" cy="21.036" r="21.036" transform="translate(475.208 186.51)" fill="#ffb8b8"/>
  <path id="Path_21890" data-name="Path 21890" d="M761.824,460.86,745.429,468.1a2.572,2.572,0,0,1-3.388-1.313l-.406-.919a2.572,2.572,0,0,1,1.313-3.388l16.394-7.237a2.572,2.572,0,0,1,3.388,1.313l.405.919a2.572,2.572,0,0,1-1.313,3.388Z" transform="translate(-323.952 -236.652)" fill="#ccc"/>
  <path id="Path_21891" data-name="Path 21891" d="M768.824,473.86,752.429,481.1a2.572,2.572,0,0,1-3.388-1.313l-.406-.919a2.572,2.572,0,0,1,1.313-3.388l16.394-7.237a2.572,2.572,0,0,1,3.388,1.313l.406.919A2.572,2.572,0,0,1,768.824,473.86Z" transform="translate(-324.956 -238.518)" fill="#ccc"/>
  <path id="Path_21892" data-name="Path 21892" d="M778.792,517.712l-36.55-28.834a9.006,9.006,0,0,1-.887.262,9.445,9.445,0,0,1-7.552-1.449,9.347,9.347,0,0,1-3.963-6.624,9.422,9.422,0,0,1,18.53-3.255,9.051,9.051,0,0,1,.2,1.244l36.385,20.991,9.055-5.213,10.03,13.132-14.058,10.02a9.371,9.371,0,0,1-11.185-.273Z" transform="translate(-322.281 -238.88)" fill="#ffb8b8"/>
  <path id="Path_21893" data-name="Path 21893" d="M818.192,513.628l-20.854-14.181,9.8-13.881a9.565,9.565,0,0,1,11.93-3.118h0a9.565,9.565,0,0,1,5.049,11.376Z" transform="translate(-331.977 -240.455)" fill="#8ab4f8"/>
  <path id="Path_21894" data-name="Path 21894" d="M820.713,434.378c-5.407,3.7-12.506,7.5-18.028,3.564a10.049,10.049,0,0,1-3.3-11.584c2.644-7.562,9.909-10.89,16.856-13.442,9.031-3.317,18.865-5.956,28.188-3.581s17.563,11.4,15.88,20.875c-1.354,7.618-8.539,13.956-7.519,21.626,1.027,7.719,9.707,11.782,17.371,13.161s16.239,1.823,21.747,7.327c7.026,7.022,5.271,19.573-1.34,26.987s-16.587,10.775-26.254,13.059c-12.808,3.027-26.661,4.618-38.826-.406s-21.631-18.547-18.107-31.227c1.489-5.356,4.995-9.883,8.384-14.29s6.82-9.015,8.113-14.422c1.077-4.506.28-9.737-2.708-13.117a3.8,3.8,0,0,1-.509-4.442Z" transform="translate(-332.182 -229.965)" fill="#2f2e41"/>
  <path id="Path_21895" data-name="Path 21895" d="M353.253,543.284a33.457,33.457,0,0,1-32.308-5.691c-11.316-9.5-14.864-25.145-17.75-39.634L294.657,455.1l17.876,12.309c12.856,8.852,26,17.987,34.9,30.809s12.786,30.324,5.635,44.2" transform="translate(-259.835 -236.664)" fill="#b5b5b5"/>
  <path id="Path_21896" data-name="Path 21896" d="M357,604.292c1.809-13.179,3.67-26.527,2.4-39.848-1.127-11.83-4.736-23.384-12.084-32.858a54.661,54.661,0,0,0-14.024-12.708c-1.4-.885-2.693,1.337-1.3,2.219a51.964,51.964,0,0,1,20.555,24.8c4.475,11.382,5.194,23.79,4.422,35.881-.466,7.312-1.455,14.576-2.451,21.831a1.331,1.331,0,0,0,.9,1.58,1.293,1.293,0,0,0,1.58-.9Z" transform="translate(-265.107 -245.787)" fill="#f2f2f2"/>
  <path id="Path_21897" data-name="Path 21897" d="M328.6,586.942a24.629,24.629,0,0,1-21.459,11.075c-10.863-.516-19.919-8.1-28.071-15.3l-24.113-21.29,15.959-.764c11.477-.549,23.249-1.061,34.18,2.478s21.012,12.057,23.011,23.371" transform="translate(-254.137 -251.758)" fill="#b5b5b5"/>
  <path id="Path_21898" data-name="Path 21898" d="M358.308,620.821c-8.708-15.409-18.81-32.535-36.859-38.008a41.132,41.132,0,0,0-15.5-1.6c-1.646.142-1.235,2.679.408,2.538a38.211,38.211,0,0,1,24.741,6.545c6.976,4.748,12.408,11.35,17,18.351,2.816,4.288,5.338,8.758,7.861,13.222C356.768,623.294,359.124,622.264,358.308,620.821Z" transform="translate(-261.305 -254.74)" fill="#f2f2f2"/>
  <path id="Path_21899" data-name="Path 21899" d="M376.732,642.311a18.649,18.649,0,0,0-11.428-15.62v-8.908H350.363v9.189a18.639,18.639,0,0,0-10.806,15.339l-3.513,40.84h44.2Z" transform="translate(-265.775 -260.011)" fill="#b5b5b5"/>
</svg>
