<svg xmlns="http://www.w3.org/2000/svg" width="1403.913" height="408.991" viewBox="0 0 1403.913 408.991">
  <g id="mindfulness" transform="translate(0.002 -0.043)">
    <g id="OBJECTS" transform="translate(-0.002 0.043)">
      <path id="Path_10031" data-name="Path 10031" d="M867.2,286.613c-12.813-12.017-24.2-27.384-24.981-44.945a29.668,29.668,0,0,1,4.822-18.6c3.785-5.3,10.365-8.863,16.824-7.976,4.1.556,9.163,2.464,11.747-.781a9.011,9.011,0,0,0,1.5-3.891,110.861,110.861,0,0,1,4.011-14.21,21.917,21.917,0,0,1,4.717-8.5c5.663-5.618,15.262-4.356,22.352-.706,1.5.751,3.155,1.622,4.687,1.021a5.287,5.287,0,0,0,2.373-2.509c3.786-6.564,6.219-14,11.221-19.678s13.925-9.013,20.189-4.807c2.869,1.953,5.017,5.333,8.443,5.828,2.6.391,5.062-1.036,7.511-2.028,8.157-3.3,18.552-1.247,23.884,5.753,5.092,6.73,4.717,16.524.916,24.035s-10.44,13.234-17.365,18.026c-3,2.088-6.414,4.627-6.55,8.292s3.26,6.549,4.987,9.884c3.365,6.459,0,14.781-5.768,19.288s-13.114,6.144-20.234,7.646c0,4.612,2.6,8.938,2.6,13.519,0,6.715-5.633,12.213-11.732,15.022C912.069,296.047,886.337,282.272,867.2,286.613Z" transform="translate(378.694 -121.245)" fill="#dcebc2"/>
      <path id="Path_10032" data-name="Path 10032" d="M970.622,194.417a136.409,136.409,0,0,0-24.29,7.856,119.118,119.118,0,0,0-11.146,5.408l1.352-1.322a.691.691,0,0,0,.406-.165,7.513,7.513,0,0,0,1.5-1.637q14.36-13.88,29.728-26.663a1.112,1.112,0,0,0-1.4-1.712q-12.843,10.41-25.011,21.616,1.825-4.506,3.35-9.013a142.348,142.348,0,0,0,4.927-18.837c.165-.856-1.157-.976-1.337-.135a109,109,0,0,1-5.528,18.6c-1.157,2.914-2.448,5.768-3.845,8.577-.721,1.5-1.412,2.9-2.148,4.326-.255.5-.511,1.006-.751,1.5l-3,2.779q-11.777,11.356-22.923,23.374c.526-1.037,1.021-2.073,1.5-3a126.15,126.15,0,0,0,5.062-11.837,151.243,151.243,0,0,0,7.03-24.951c.165-.826-1.127-.946-1.292-.135a138.808,138.808,0,0,1-7.511,24.41c-1.5,3.831-3.335,7.511-5.2,11.266-.962,1.908-1.938,3.8-3,5.663a35.135,35.135,0,0,0-2.569,5.227c-.586.661-1.187,1.307-1.757,1.968-2.719,3.109-5.378,6.249-8.021,9.419.165-1.067.3-2.148.45-3.215.466-3.5.856-7.015,1.2-10.515q1.006-10.68,1.337-21.406c0-.706-1.067-.826-1.081-.12-.271,7.15-.8,14.286-1.637,21.391q-.6,5.257-1.427,10.515c-.27,1.7-.556,3.395-.841,5.092a5.221,5.221,0,0,1-.165.946c-1.022,1.232-2.028,2.494-3,3.74a11.672,11.672,0,0,0-3.11,1.983.946.946,0,0,0,.255,1.5q-6.009,7.586-11.807,15.412-13.129,17.876-24.771,36.8a437.987,437.987,0,0,0-21.286,38.816c-.811,1.667-1.5,3.35-2.268,5.047-.571,1.292,1.352,1.953,2,.781,7.09-13.009,14.075-26.062,21.721-38.771s15.607-24.786,24.155-36.668q8.457-11.762,17.545-23.028c.526-.24,1.036-.481,1.5-.691q3.2-1.4,6.474-2.629c4.416-1.682,8.878-3.185,13.414-4.506a165.378,165.378,0,0,1,27.354-5.813c.6,0,.45-.961-.15-.916a158.213,158.213,0,0,0-28.06,4.506c-4.506,1.2-8.863,2.584-13.2,4.191-1.247.451-2.494.931-3.725,1.427,3.425-4.176,6.91-8.322,10.515-12.393h.105a40.564,40.564,0,0,0,6.1-2.914c2-1.036,4.041-2.013,6.1-3q6.009-2.629,12.167-4.852a119.9,119.9,0,0,1,25.972-6.429c.856-.105.631-1.412-.225-1.322a128.615,128.615,0,0,0-26.633,5.243,95.578,95.578,0,0,0-12.573,5.062q-3,1.5-6.009,3.125l-1.067.586q8.743-9.809,17.921-19.168c.841-.6,1.652-1.247,2.479-1.8,1.772-1.187,3.575-2.313,5.423-3.41,3.575-2.118,7.24-4.1,11.011-5.858a112.456,112.456,0,0,1,23.959-7.811C971.764,195.694,971.538,194.267,970.622,194.417Z" transform="translate(370.839 -116.174)" fill="#a3c2a4"/>
      <path id="Path_10033" data-name="Path 10033" d="M885.765,220.885c-6.249-23.944-28.541-41.264-52.44-47.633-9.884-2.629-20.414-3.68-30.344-1.2S783.8,180.9,779.442,190.076s-2.9,21.391,4.642,28.3c3.155,2.884,7.376,5.077,8.713,9.133,1.5,4.431-1.292,9.223-4.822,12.273s-7.856,5.092-11.236,8.322c-10.515,10.095-7.361,29.082,3.515,38.816s26.648,11.882,41.2,10.74c19.453-1.5,39.221-8.758,52.02-23.494S889.851,236.552,885.765,220.885Z" transform="translate(342.614 -115.468)" fill="#c3ebe9"/>
      <path id="Path_10034" data-name="Path 10034" d="M233.26,161.18c-21.526.691-41.82,15.022-50.5,34.655s-5.768,43.848,6.685,61.408c8.908,12.573,22.007,21.646,35.872,28.391,26.5,12.9,57.548,18.026,85.863,9.824s53.041-30.854,59.636-59.576a40.739,40.739,0,0,0,.451-19.017c-1.5-6.219-5.513-12.017-11.311-14.766-4.972-2.343-10.785-2.238-16.193-1.2-10.71,2.043-20.474,7.406-30.779,10.981s-22.2,5.243-31.786,0A37,37,0,0,1,270,201.678c-5.934-7.676-10.26-16.524-16.133-24.2S239.975,162.938,233.26,161.18Z" transform="translate(45.077 -120.22)" fill="#dcebc2"/>
      <path id="Path_10035" data-name="Path 10035" d="M384.79,214.918c21.962-16.389,45.846-31.125,72.479-37.554s56.526-3.785,78.713,12.3,34.219,47.063,23.9,72.449c-3,7.315-7.391,16.268-2.223,22.232a15.186,15.186,0,0,0,8.2,4.206c10.665,2.539,21.826,1.367,32.777,2.088s22.638,3.876,29.247,12.633c7.841,10.395,5.8,25.777-1.5,36.578s-18.717,18.026-30.043,24.485c-13.82,7.961-28.8,15.607-44.734,15.022-27.039-.916-49.376-29.833-43.473-56.211,3.425-15.262,14.541-28.766,14.09-44.389a11.237,11.237,0,0,0-1.727-6.384c-2.028-2.809-5.783-3.635-9.193-4.266-15.547-2.869-32.687-5.483-46.266,2.6-13.88,8.277-21.331,26.378-36.953,30.464s-31.4-8.908-37.389-24.035C383.348,258.571,386.788,236.084,384.79,214.918Z" transform="translate(149.035 -113.722)" fill="#fff9cf"/>
      <path id="Path_10036" data-name="Path 10036" d="M205.4,153.812a21.45,21.45,0,0,1-4.627,3,24.575,24.575,0,0,1-4.837,2.073,30.87,30.87,0,0,1-10.861,1.232c-8.427-.481-16.253-4.191-23.449-8.337-7.6-4.386-14.8-9.479-22.8-13.129a47.168,47.168,0,0,0-24.125-4.612,51.885,51.885,0,0,0-38.425,24.14,64.368,64.368,0,0,0-9.749,28.751,36.578,36.578,0,0,0-20.114,3.44A29.818,29.818,0,0,0,32.2,204.5,35.5,35.5,0,0,0,30.9,227.944c3.936,15.382,14.646,29.052,27.039,38.59a72.179,72.179,0,0,0,46.9,14.631,67.6,67.6,0,0,0,12.543-1.758c.766-.18.451-1.337-.33-1.187a67.928,67.928,0,0,1-47.528-7.961A79.7,79.7,0,0,1,38.874,238.5c-6.549-12.618-9.118-29.412,1.8-40.453,6.61-6.685,16.419-9.374,25.747-8.487a57.459,57.459,0,0,0,.811,12.859,38.486,38.486,0,0,0,9.013,19.122c4.3,4.747,10.8,8.8,17.47,7.15a8.472,8.472,0,0,0,6.309-6.4c.811-3.74-.27-7.781-1.607-11.266A37.854,37.854,0,0,0,85.8,194.581a38.816,38.816,0,0,0-15.923-7.15,62.506,62.506,0,0,1,7.15-24.4A51.374,51.374,0,0,1,91.1,146.061a47.618,47.618,0,0,1,20.369-8.833,42.06,42.06,0,0,1,22.532,2.479c7.8,3,14.8,7.766,21.886,12.122,12.633,7.751,28.2,15.442,43.157,9.449a23.405,23.405,0,0,0,4.326-2.193,28.314,28.314,0,0,0,3.785-3.56C208.227,154.428,206.514,152.716,205.4,153.812ZM76.638,192.117A36.517,36.517,0,0,1,92.1,204.525a32.732,32.732,0,0,1,4.506,9.013c1.051,3.275,2.163,7.661-.3,10.515-1.788,2.148-4.882,2.373-7.511,1.848a17.215,17.215,0,0,1-7.886-4.116A33.829,33.829,0,0,1,71.11,204.8a51.374,51.374,0,0,1-1.5-14.781,34.185,34.185,0,0,1,7.03,2.1Z" transform="translate(-29.377 -133.913)" fill="#9d9e9d"/>
      <path id="Path_10037" data-name="Path 10037" d="M260.814,256.831a22.112,22.112,0,0,0-2.073-4.386c-.466-.736-.992-1.427-1.5-2.118l-.376-.451-.165-.2c-.21-.225,0,.105.12.165l-.8-1.006a6.012,6.012,0,0,0-.9-1.052,2.524,2.524,0,0,0-3.966,3l1.5,3a9.013,9.013,0,0,0,4.747,5.6,2.343,2.343,0,0,0,2.569-.18A2.3,2.3,0,0,0,260.814,256.831Z" transform="translate(81.786 -77.072)" fill="#4b5753"/>
      <path id="Path_10038" data-name="Path 10038" d="M273.563,256.354a9.362,9.362,0,0,0-.826-2.058,10.854,10.854,0,0,0-1.277-1.8,7.509,7.509,0,0,0-1.727-1.5l-.691-.285a2.223,2.223,0,0,0-1.172,0,2.869,2.869,0,0,0-1.682.811,3.4,3.4,0,0,0-.751,1.292,2.224,2.224,0,0,0,0,1.172,18.922,18.922,0,0,1,.436,2.359,16.332,16.332,0,0,0,1.8,2.388c.255.285.541.556.826.826l.451.391a2.282,2.282,0,0,1,.451.481,2.614,2.614,0,0,0,3.68,0,2.659,2.659,0,0,0,.676-1.157,5.474,5.474,0,0,0,.09-1.4A7.8,7.8,0,0,0,273.563,256.354Z" transform="translate(89.061 -75.303)" fill="#4b5753"/>
      <path id="Path_10039" data-name="Path 10039" d="M266.629,239.84c-.105-.345-.255-.676-.391-1.006l-.406-1.037a10.508,10.508,0,0,0-1.217-2.6c-.15-.2-.285-.391-.436-.571a1.922,1.922,0,0,0-.916-.586,1.276,1.276,0,0,0-.706-.2,2.057,2.057,0,0,0-1.127,0,3.2,3.2,0,0,0-1.247.736,1.969,1.969,0,0,0-.586.9,2.1,2.1,0,0,0-.24,1.1.416.416,0,0,0,0,.135,2.626,2.626,0,0,0,0,1.082,17.3,17.3,0,0,0,1.157,2.373,8.35,8.35,0,0,0,.556.856c.21.27.361.571.541.856a2.749,2.749,0,0,0,1.743,1.247l.721.105a1.967,1.967,0,0,0,1.051-.24,1.352,1.352,0,0,0,.6-.345,2,2,0,0,0,.691-.766,2.81,2.81,0,0,0,.21-2.043Z" transform="translate(86.02 -83.77)" fill="#4b5753"/>
      <path id="Path_10040" data-name="Path 10040" d="M274.787,273.221a14.465,14.465,0,0,0-1.2-1.8c-.346-.466-.706-.946-1.082-1.4l-.33-.406a5.1,5.1,0,0,0-.991-.811,3,3,0,0,0-3,0,3.11,3.11,0,0,0-1.082,1.082,3,3,0,0,0-.406,1.5v.12a5.784,5.784,0,0,0,.12.871,2.374,2.374,0,0,0,.346.886,3.229,3.229,0,0,0,.511.661,9.479,9.479,0,0,0,1.232,1.757,7.513,7.513,0,0,0,1.142,1.037l.105.09a3.245,3.245,0,0,0,2.088.871l.8-.105a2.192,2.192,0,0,0,1.006-.541,1.368,1.368,0,0,0,.526-.526,2.1,2.1,0,0,0,.526-1.006l.105-.8A3,3,0,0,0,274.787,273.221Z" transform="translate(89.73 -66.378)" fill="#4b5753"/>
      <path id="Path_10041" data-name="Path 10041" d="M175.466,399.814c-4.056,3.815-7.511,8.127-11.326,12.243a156.334,156.334,0,0,1-11.822,11.792c-8.142,7.18-17.5,13.234-28.06,16.118-11.251,3-23.779,2.524-34.084-3.275A35.255,35.255,0,0,1,72.568,413.2a28.631,28.631,0,0,1-.466-5.558,27.338,27.338,0,0,0,12.813-1.848c5.137-2.088,9.989-5.873,12.107-11.146,1.983-4.927.541-11.3-4.6-13.655-5.378-2.479-11.056,2.073-14.571,5.783A30.959,30.959,0,0,0,70.42,400.6a32.051,32.051,0,0,0-.736,4.236,26.649,26.649,0,0,1-9.148-3.3c-9.193-5.468-14.646-15.8-15.307-26.318A44.93,44.93,0,0,1,56.42,343.468c6.835-7.736,16.4-13.775,27.039-14.06a28.543,28.543,0,0,1,7.511.811.211.211,0,0,0,.12-.406c-10.65-2.824-21.766.8-30.253,7.391a46.657,46.657,0,0,0-17.155,30.4,37.329,37.329,0,0,0,10.425,31.681A29.908,29.908,0,0,0,69.639,407.3a34.73,34.73,0,0,0,9.013,23.884,43.217,43.217,0,0,0,32.071,13.835C136.26,445.24,156.629,426.7,172,408.2a77.187,77.187,0,0,0,5.288-7.015C177.959,400.085,176.382,398.973,175.466,399.814ZM81.536,386.49c2.028-1.742,4.672-3.65,7.511-3.77A6.4,6.4,0,0,1,94.8,386.7c2.434,5.137-1.5,10.665-5.438,13.715A25.131,25.131,0,0,1,72.3,405.147,28.225,28.225,0,0,1,81.536,386.49Z" transform="translate(-22.453 -36.026)" fill="#a7a8a7"/>
      <path id="Path_10042" data-name="Path 10042" d="M600.77,277.558c8.667-33.363,42.827-58.133,77.226-56.016a27.654,27.654,0,0,1,10.966,2.494c11.807,6.009,12.378,22.187,14.391,35.3,2.3,15.022,9.689,30.389,23.4,36.8,8.652,4.041,18.567,3.966,27.955,5.693A73.606,73.606,0,0,1,806.626,341.4a54.723,54.723,0,0,1,5.888,23.4c.135,21.481-15.863,40.483-35.075,50.082s-41.234,11.552-62.685,12.783c-16.4.946-34.835.826-46.567-10.605-20.925-20.279-5.062-58.284-20.294-83.13C637.167,316.554,612.111,307.045,600.77,277.558Z" transform="translate(257.492 -89.972)" fill="#dcebc2" opacity="0.46"/>
      <path id="Path_10043" data-name="Path 10043" d="M116.937,396.623c-10.215-6.775-17.05-17.861-20.474-29.638s-3.68-24.23-2.839-36.457c.556-7.916,1.262-16.779-3.861-22.833-6.459-7.631-18.477-6.625-27.384-11.176-9.764-5-14.661-16.073-17.771-26.588s-5.3-21.706-12.438-30.178c-1.622-1.923-3.59-4.506-2.373-6.639a5.558,5.558,0,0,1,3.861-2.163,59.365,59.365,0,0,1,42.511,6.76c9.013,5.318,17.155,13.249,27.565,14.391,6.2.676,12.363-1.217,18.567-1.7,18.311-1.4,36.788,11.041,42.376,28.541,1.4,4.386,2.118,9.118,4.717,12.919,3,4.507,8.142,6.91,12.8,9.644,9.238,5.423,17.665,12.919,21.962,22.728,6.294,14.376,2.719,31.38-4.506,45.305a93.93,93.93,0,0,1-36.563,37.884c-4.957,2.824-10.41,5.242-16.1,5.137-8.022-.135-15.022-5.107-21.466-9.884C121.608,399.748,117.643,397.1,116.937,396.623Z" transform="translate(-29.418 -85.861)" fill="#dcebc2"/>
      <path id="Path_10044" data-name="Path 10044" d="M163.873,389.2c-1.112-6.084-3.861-11.822-6.414-17.41s-5.258-10.906-8.112-16.238a330.258,330.258,0,0,0-19.032-31.17q-6.009-8.682-12.528-16.914c-.2-.571-.451-1.127-.631-1.637-.466-1.337-.916-2.674-1.367-4.026q-1.352-4.146-2.569-8.352-2.373-8.262-4.116-16.734c-.225-1.127-1.953-.646-1.712.481q1.788,8.562,4.206,16.959c.766,2.734,1.607,5.438,2.479,8.127l.315.946q-8.217-10.065-17.2-19.453l-.811-2.043c-.886-2.283-1.833-4.506-2.689-6.835q-2.659-7.135-4.657-14.481a1.013,1.013,0,1,0-1.953.541c1.4,5.047,3,10.034,4.852,14.916.526,1.4,1.067,2.794,1.637,4.176-3.515-3.575-7.09-7.09-10.77-10.515q-3-2.749-6.009-5.423a55.174,55.174,0,0,0-4.251-9.418c-1.652-3.41-3.109-6.91-4.506-10.515-.285-.751-1.5-.436-1.217.345,1.322,3.605,2.764,7.165,4.251,10.71.856,2.043,1.652,4.176,2.719,6.144q-10.846-9.494-22.4-18.026c-1.277-.946-2.494,1.187-1.247,2.1a291.108,291.108,0,0,1,27.9,23.073c1.247,1.157,2.448,2.373,3.665,3.56l-2.884-1.037q-4.236-1.622-8.517-3.139c-5.648-2.013-11.3-3.966-16.989-5.768-1.157-.361-1.637,1.427-.5,1.788,5.618,1.818,11.191,3.725,16.7,5.858q4.011,1.577,7.976,3.215c1.5.6,2.914,1.232,4.371,1.848a31.177,31.177,0,0,0,4.041,1.637.573.573,0,0,0,.225,0q8.652,8.848,16.659,18.311c.391.451.751.916,1.142,1.382l-1.5-.661q-4.777-2.058-9.689-3.725a142.711,142.711,0,0,0-20.4-5.288c-1.292-.24-1.848,1.713-.556,1.983a140.418,140.418,0,0,1,19.979,5.513c3.215,1.127,6.384,2.388,9.509,3.74,1.622.706,3.215,1.427,4.807,2.193.541.27,1.127.6,1.712.916a328.427,328.427,0,0,1,19.528,26.829c-1.5-.631-3-1.247-4.416-1.833-3.23-1.292-6.5-2.449-9.824-3.5a159.949,159.949,0,0,0-20.5-4.987c-1.5-.27-2.163,2.013-.631,2.3a160.716,160.716,0,0,1,19.949,5.152c3.23,1.052,6.429,2.208,9.6,3.44,1.622.631,3.23,1.292,4.837,1.983a13.684,13.684,0,0,0,3.41,1.217q7.045,11.086,13.2,22.728c3.155,6.009,6.084,12.017,8.893,18.236s5.077,12.558,8.652,18.221a1.863,1.863,0,0,0,3.38-1.442Z" transform="translate(-19.272 -79.072)" fill="#a3c2a4"/>
      <path id="Path_10045" data-name="Path 10045" d="M337.429,371.215a44.7,44.7,0,0,0-11.446-7.075,61.075,61.075,0,0,0-12.588-4.311,42.181,42.181,0,0,0-24.786,1.577l-1.262.556c-.331-.27-.646-.526-.976-.766a51.717,51.717,0,0,0-19.753-9.013,56.376,56.376,0,0,0-42.06,6.715,51.944,51.944,0,0,0-4.356,3.094c-1.021.8.346,2.6,1.382,1.8a53.342,53.342,0,0,1,62.79-.21,28.781,28.781,0,0,0-12.017,13.655c-2.854,6.865-3,15.743,1.923,21.736,4.657,5.708,13.519,5.9,19.288,1.773,6.264-4.507,8.322-12.964,6.7-20.234a32.161,32.161,0,0,0-10.185-16.223c13.519-5.243,28.616-.225,40.9,6.5a55.087,55.087,0,0,0,5.258,2.6C337.384,373.828,338.3,372.041,337.429,371.215Zm-43.908,2.013c3.785,5.8,5.5,13.444,2.419,19.964-2.764,5.873-9.779,9.4-16.043,6.79-6.715-2.824-7.766-12.017-6.174-18.206a25.537,25.537,0,0,1,12.648-15.863l.541-.27a37.885,37.885,0,0,1,6.61,7.586Z" transform="translate(66.204 -25.046)" fill="#9d9e9d"/>
      <path id="Path_10046" data-name="Path 10046" d="M625.66,190.952c0,6.009-4.507,11.4-9.358,14.391-6.369,3.951-13.9,4.356-21.18,3.62-15.187-1.5-31.545-8.052-46.131-.255-11.071,5.934-16.238,18.777-16.659,30.794-.511,15.022,6.519,28.992,13.069,42.061,6.925,13.8,14.781,29.067,12.9,45.065-1.4,11.867-11.026,24.786-23.809,25.386-7.015.346-13.114-3.485-18.221-7.916-6.174-5.363-11.867-11.326-17.741-17.019-5.618-5.468-11.116-11.116-17.14-16.163-5.378-4.506-11.311-8.592-18.026-10.62a29.051,29.051,0,0,0-19.393.826,38.516,38.516,0,0,0-15.022,11.657c-9.479,11.792-12.2,26.889-15.277,41.309-.811,3.785-1.667,7.511-2.689,11.281a1.341,1.341,0,1,0,2.584.721c4.086-14.841,5.182-31.065,12.964-44.644,6.324-11.011,17.59-20.655,31.065-18.972,6.955.871,13.294,4.507,18.777,8.758a191.871,191.871,0,0,1,16.824,15.4c6.009,5.873,12.017,11.852,18.176,17.605,5.107,4.792,10.936,9.479,18.026,10.831,12.949,2.494,25.026-6.895,30.133-18.251,6.564-14.541,2.148-30.929-3.906-44.824-6.249-14.361-15.232-27.73-18.026-43.382-2.028-11.281.285-24.726,9.013-32.822,11.462-10.7,28.541-5.783,42.136-3.59,7.781,1.262,16.178,2.088,23.779-.586,5.783-2.028,11.762-6.009,14.5-11.747a19.349,19.349,0,0,0,1.878-8.848,1.623,1.623,0,0,0-3.245-.06Z" transform="translate(162.165 -106.07)" fill="#9d9e9d"/>
      <path id="Path_10047" data-name="Path 10047" d="M610.157,313.724a81.883,81.883,0,0,1-11.927,24.035,64.832,64.832,0,0,1-20.354,17.8,66.229,66.229,0,0,1-27.654,8.157,63.3,63.3,0,0,1-19.934-1.622,37.2,37.2,0,0,0,3.335-10.77c1.367-9.434-1.127-20.2-9.7-25.537a14.6,14.6,0,0,0-12.228-1.863,13.009,13.009,0,0,0-7.976,9.4c-2.208,8.8,2.4,17.56,9.013,23.1a42.765,42.765,0,0,0,13.174,7.346,41.066,41.066,0,0,1-4.176,5.693,40.079,40.079,0,0,1-21.766,12.874,40.919,40.919,0,0,1-27.129-3.8,39.774,39.774,0,0,1-5.843-3.74c-1.112-.871-2.7.661-1.577,1.5a43.308,43.308,0,0,0,27.745,9.659,41.955,41.955,0,0,0,26.468-10.215,42.856,42.856,0,0,0,9.223-11.086,60.083,60.083,0,0,0,9.764,1.923,69.2,69.2,0,0,0,31.53-3.7A67.958,67.958,0,0,0,610.7,321.4a43.468,43.468,0,0,0,1.667-7.06,1.157,1.157,0,0,0-2.208-.616Zm-87.05,45.966c-7.24-3.185-14.331-8.562-16.869-16.374a16.013,16.013,0,0,1,.646-12.348,9.644,9.644,0,0,1,9.869-5.333c9.283,1.217,14.09,10.876,14.391,19.333a33.378,33.378,0,0,1-3.785,16.343C525.916,360.832,524.489,360.306,523.107,359.69Z" transform="translate(189.325 -43.97)" fill="#9d9e9d"/>
      <path id="Path_10048" data-name="Path 10048" d="M528.314,231.273a1.5,1.5,0,0,0-.436-.9,1.786,1.786,0,0,0-.691-.406,1.712,1.712,0,0,0-1.021,0,2.609,2.609,0,0,0-.541.2,3.5,3.5,0,0,0-.526.406l-.435.436c-.135.15-.255.315-.391.481a1.5,1.5,0,0,0-.21.225v.09c-.12.15-.24.285-.345.436a6,6,0,0,0-.616.976,2.643,2.643,0,0,0-.391,1.5,3.4,3.4,0,0,0,.12.661,1.5,1.5,0,0,0,.826.931,1.2,1.2,0,0,0,.556.12h0a.962.962,0,0,0,.27.09,1.322,1.322,0,0,0,1.307-.631c.165-.315.331-.631.511-.931s.406-.631.6-.946l.5-.766c.18-.21.345-.375.511-.6l.09-.165a.99.99,0,0,0,.18-.451l.09-.21a1.289,1.289,0,0,0,.045-.541Z" transform="translate(218.292 -85.718)" fill="#4b5753"/>
      <path id="Path_10049" data-name="Path 10049" d="M530.73,240.858a1.846,1.846,0,0,0-.841-.5,1.908,1.908,0,0,0-1.006,0,5.542,5.542,0,0,0-3.485,2.494,4.806,4.806,0,0,0-.766,2.238l-.105.27a6.439,6.439,0,0,0-.316,2.208,2,2,0,0,0,1.217,1.818,2.043,2.043,0,0,0,1.037.135,2.148,2.148,0,0,0,1.142-.556,11.7,11.7,0,0,0,3.665-6.279,1.938,1.938,0,0,0-.541-1.833Z" transform="translate(219.045 -80.492)" fill="#4b5753"/>
      <path id="Path_10050" data-name="Path 10050" d="M535.758,229.011a2.073,2.073,0,0,0-1.772-1.021,4.821,4.821,0,0,0-.931.15,3.006,3.006,0,0,0-.811.376l-.315.21h0a2.1,2.1,0,0,0-.9.526A4.593,4.593,0,0,0,529.4,233.1a5,5,0,0,0,.15.931,6.027,6.027,0,0,0,.361.9,1.878,1.878,0,0,0,1.5.946,1.923,1.923,0,0,0,1.667-.541,12.018,12.018,0,0,0,2.464-3.906l.2-.345a2.042,2.042,0,0,0,.015-2.073Z" transform="translate(221.648 -86.671)" fill="#4b5753"/>
      <path id="Path_10051" data-name="Path 10051" d="M552.3,217.541a2.118,2.118,0,0,0-1.8-1.021,2.644,2.644,0,0,0-.9.15,6.016,6.016,0,0,0-.841.376,1.718,1.718,0,0,0-.345.225,4.12,4.12,0,0,0-.751.6,8.521,8.521,0,0,0-.571.721c0,.12-.15.24-.21.361a3.26,3.26,0,0,0-.15.33,1.113,1.113,0,0,0-.135.541,1.033,1.033,0,0,0,0,.526l-.406,1.082v1.021a1.97,1.97,0,0,0,.691,1.006.963.963,0,0,0,.436.24.885.885,0,0,0,.481.135,1.847,1.847,0,0,0,1.232-.225,8.065,8.065,0,0,0,2.884-3.365h0a3.132,3.132,0,0,0,.436-.631A2.148,2.148,0,0,0,552.3,217.541Z" transform="translate(230.084 -92.431)" fill="#4b5753"/>
      <path id="Path_10052" data-name="Path 10052" d="M764.4,255.77a35.256,35.256,0,0,0-12.708-17.756,32.776,32.776,0,0,0-11.251-4.852c0-.09.075-.18.105-.285a46.57,46.57,0,0,0,2.178-24.726,32.822,32.822,0,0,0-11.747-19.062,39.867,39.867,0,0,0-20.159-8.277,50.623,50.623,0,0,0-25.131,3.936,69.385,69.385,0,0,0-32.131,27.865,72.1,72.1,0,0,0-10.83,39.777,68.543,68.543,0,0,0,1.141,10.215c.21,1.067,1.833.616,1.622-.451a68.408,68.408,0,0,1,4.236-38.651,69.235,69.235,0,0,1,24.53-30.689c12.453-8.517,29.052-12.949,43.728-8.007a34.55,34.55,0,0,1,16.7,11.807,33.394,33.394,0,0,1,6.009,21.3,47.933,47.933,0,0,1-3,14.721,42.319,42.319,0,0,0-8.923-.346c-14.6.8-29.8,8.547-36.457,22.037-2.659,5.378-3.68,12.919.421,17.861,4.882,5.9,14.361,3.485,19.949,0,6.5-4.056,11.221-10.38,15.532-16.524a106.658,106.658,0,0,0,10.891-18.912c.661.15,1.307.285,1.953.481a28.03,28.03,0,0,1,16.253,12.288c6.775,11.1,7.511,25.747,5,38.245-2.463,11.912-8.472,23.494-18.477,30.749a32.115,32.115,0,0,1-7.886,4.506c-1.5.5-.826,2.809.631,2.3a42.308,42.308,0,0,0,9.013-4.041,37.684,37.684,0,0,0,7.511-6.354,52.111,52.111,0,0,0,10.245-17.23A63.213,63.213,0,0,0,764.4,255.77Zm-30.284-15.157a120.056,120.056,0,0,1-12.828,19.528c-4.251,5.273-9.509,10.515-16.328,12.152-3.215.751-7.165.781-9.6-1.788A10.2,10.2,0,0,1,693.17,263c.27-6.339,4.251-12.017,8.727-16.313a41.114,41.114,0,0,1,17.726-9.569,42.314,42.314,0,0,1,16.644-1.036c-.661,1.547-1.367,3.049-2.148,4.536Z" transform="translate(278.55 -110.485)" fill="#a7a8a7"/>
      <path id="Path_10053" data-name="Path 10053" d="M1002.554,397.408a23.1,23.1,0,0,1-19.753,6.459,21.8,21.8,0,0,1-16.013-12.378c-3.725-7.871-1.5-16.419,1.893-24.035,3.65-8.322,8.382-16.088,12.438-24.2,7.361-14.751,12.9-33.543,3.26-48.655a33.71,33.71,0,0,0-7.255-8.112,60.583,60.583,0,0,0,5.453-15.713c2.614-13.519.751-30.554-11.762-38.7-13.8-9.013-31.545-1.5-44.374,5.693a129.182,129.182,0,0,0-36.563,30.809q-3.7,4.506-6.985,9.373c-.646.931.886,1.8,1.5.886a127.274,127.274,0,0,1,32.9-32.642,110.958,110.958,0,0,1,20.1-11.071c6.94-2.854,14.736-4.942,22.292-3.876a22.007,22.007,0,0,1,16.524,11.416,37.282,37.282,0,0,1,4.011,19.528,55.836,55.836,0,0,1-5.873,22.262,36.749,36.749,0,0,0-6.775-3.53,36.052,36.052,0,0,0-22.743-.916,35.061,35.061,0,0,0-18.852,12.3c-3.755,5.152-6.159,12.483-3.109,18.537,3.38,6.73,11.477,7.751,18.116,6.294a48.729,48.729,0,0,0,19.288-9.914,62.622,62.622,0,0,0,15.127-17.62,30.665,30.665,0,0,1,6.264,7.511c8.727,14.751,2.238,32.732-4.942,46.567-3.981,7.706-8.427,15.187-11.807,23.178-3.14,7.436-5.242,15.653-2.478,23.539a25.913,25.913,0,0,0,13.519,15.022,24.891,24.891,0,0,0,20.474-.165,25.687,25.687,0,0,0,8.021-6.009C1005.649,398.054,1003.741,396.131,1002.554,397.408ZM963.8,299.437A57.76,57.76,0,0,1,947.02,311.59c-5.468,2.6-13.429,4.987-18.807.886s-3.845-11.522-.856-16.524c3.7-6.2,10.32-10.29,17.11-12.378a33.168,33.168,0,0,1,21.8.6,30.871,30.871,0,0,1,6.4,3.425A60.278,60.278,0,0,1,963.8,299.437Z" transform="translate(399.084 -86.691)" fill="#a7a8a7"/>
      <path id="Path_10054" data-name="Path 10054" d="M783.475,289.695a58.223,58.223,0,0,0-16.614-18.161c-5.273-3.725-11.642-6.64-18.026-5.648a7.947,7.947,0,0,0-4.116,1.682,7.015,7.015,0,0,0-1.157,8.157,15.774,15.774,0,0,0,6.189,6.129C759.335,287.892,771.232,290.19,783.475,289.695Z" transform="translate(328.787 -67.74)" fill="#dcebc2"/>
      <path id="Path_10055" data-name="Path 10055" d="M772.915,291.864a35.363,35.363,0,0,1,2.343-27.5,15.547,15.547,0,0,1,5.844-6.549,5.333,5.333,0,0,1,5.828,0,6.22,6.22,0,0,1,1.8,3.65,27.761,27.761,0,0,1-2.313,18.176A24.53,24.53,0,0,1,772.915,291.864Z" transform="translate(343.057 -72.132)" fill="#dcebc2"/>
      <path id="Path_10056" data-name="Path 10056" d="M775.908,270.294a74.387,74.387,0,0,0-11.281-14.811,36.444,36.444,0,0,0-15.878-9.449,12.513,12.513,0,0,0-5.468-.421,5.918,5.918,0,0,0-4.326,3.125,6.084,6.084,0,0,0,.616,5.543,15.022,15.022,0,0,0,4.161,4,60.956,60.956,0,0,0,32.417,11.657C776.013,269.678,775.938,269.378,775.908,270.294Z" transform="translate(326.68 -77.887)" fill="#dcebc2"/>
      <path id="Path_10057" data-name="Path 10057" d="M768.086,282.58a101.591,101.591,0,0,1-2.449-17.125,34.053,34.053,0,0,1,3.38-16.779,11.145,11.145,0,0,1,3.951-4.612,5.363,5.363,0,0,1,5.8,0,6.745,6.745,0,0,1,2.178,3.68c1.667,6.159-.586,12.678-3.545,18.326S770.715,277.052,768.086,282.58Z" transform="translate(340.255 -79.027)" fill="#dcebc2"/>
      <path id="Path_10058" data-name="Path 10058" d="M762.84,269.237a68.149,68.149,0,0,1-4.011-28.436,29.065,29.065,0,0,1,2.824-11.567,6.64,6.64,0,0,1,3.8-3.635,5.182,5.182,0,0,1,5.152,2.073,11.72,11.72,0,0,1,2.013,5.468C774.527,245.623,769.029,257.925,762.84,269.237Z" transform="translate(336.774 -87.915)" fill="#dcebc2"/>
      <path id="Path_10059" data-name="Path 10059" d="M766.146,246.008a39.417,39.417,0,0,0-21.286-18.987,16.524,16.524,0,0,0-7.946-1.217,7.721,7.721,0,0,0-6.249,4.507,7.616,7.616,0,0,0,1.382,7.09,14.825,14.825,0,0,0,6.009,4.326,29.145,29.145,0,0,0,8.442,2.178C752.642,244.581,758.981,243.274,766.146,246.008Z" transform="translate(322.547 -87.805)" fill="#dcebc2"/>
      <path id="Path_10060" data-name="Path 10060" d="M757.667,251.211c-6.249-10.275-10.966-22.007-10.125-33.994a17.319,17.319,0,0,1,2.043-7.706,8.262,8.262,0,0,1,6.459-4.221,7.961,7.961,0,0,1,6.474,3.38,14.436,14.436,0,0,1,2.523,7.105C766.515,228.664,757.922,240.606,757.667,251.211Z" transform="translate(331.146 -98.07)" fill="#dcebc2"/>
      <path id="Path_10061" data-name="Path 10061" d="M754.544,227.112c-5.828-7.646-13.369-14.691-22.773-16.7a12.348,12.348,0,0,0-7.12.24,6.008,6.008,0,0,0-3.981,5.483c.09,2.689,2.418,4.762,4.747,6.114a28.06,28.06,0,0,0,14.871,3.8C744.87,225.91,749.511,224.663,754.544,227.112Z" transform="translate(317.7 -95.707)" fill="#dcebc2"/>
      <path id="Path_10062" data-name="Path 10062" d="M747.294,234.54a97.5,97.5,0,0,1-10.515-18.822,35.045,35.045,0,0,1-1.833-21.15c1.082-4.086,4.011-8.427,8.232-8.4a8.171,8.171,0,0,1,5.453,2.584c3.65,3.62,4.717,9.208,4.221,14.331s-2.373,10-3.815,14.946a40.862,40.862,0,0,0-1.742,16.509Z" transform="translate(324.44 -107.671)" fill="#dcebc2"/>
      <path id="Path_10063" data-name="Path 10063" d="M752.418,230.568c-16.989-9.869-34.685-20.835-43.713-38.29-2.569-4.957-4.371-10.68-3.094-16.1.541-2.268,1.983-4.687,4.3-4.957,2-.225,3.755,1.217,5.2,2.614C731.357,189.649,741.452,210.574,752.418,230.568Z" transform="translate(309.927 -115.192)" fill="#dcebc2"/>
      <path id="Path_10064" data-name="Path 10064" d="M790.112,303.8a265.9,265.9,0,0,0-15.427-39.462,187.134,187.134,0,0,0-20.835-34.55,260.084,260.084,0,0,0-30.7-33.183c-.571-.5-1.5.27-.9.8a175.289,175.289,0,0,1,14.045,14.3,125.579,125.579,0,0,1,12.363,15.938c6.955,11.251,14.045,22.367,19.994,34.219,12.843,25.657,20.88,53.807,26.092,81.943q2.268,12.258,3.831,24.605c1.051,8.382,1.712,16.824,2.884,25.191a.946.946,0,0,0,1.848-.105,201.453,201.453,0,0,0-.991-22.728q-.976-11.416-2.6-22.773A303.441,303.441,0,0,0,790.112,303.8Z" transform="translate(318.394 -102.513)" fill="#68a694"/>
      <path id="Path_10065" data-name="Path 10065" d="M416.728,245.478a53.537,53.537,0,0,0,11.431-45.891c-.5-2.238-1.427-4.747-3.59-5.513-2.9-1.036-5.693,1.758-7.165,4.507a41.234,41.234,0,0,0-4.356,22.142C413.543,228.353,415.376,235.819,416.728,245.478Z" transform="translate(163.154 -103.813)" fill="#dcebc2"/>
      <path id="Path_10066" data-name="Path 10066" d="M418.45,237.02c7.3-10.785,17.41-20.294,29.953-23.764a16.434,16.434,0,0,1,7.376-.631,7.721,7.721,0,0,1,5.768,4.266c1.427,3.485-.706,7.511-3.365,10.125a34.7,34.7,0,0,1-17.741,8.788C433.862,237.216,427.117,237.306,418.45,237.02Z" transform="translate(165.938 -94.47)" fill="#dcebc2"/>
      <path id="Path_10067" data-name="Path 10067" d="M436.944,221.121a96.834,96.834,0,0,1-4.807-27.9c-.135-6.009.345-12.213,3.38-17.365a8.172,8.172,0,0,1,5.393-4.341,6.475,6.475,0,0,1,5.783,2.569,13.129,13.129,0,0,1,2.433,6.084,39.4,39.4,0,0,1-.856,15.322,75.108,75.108,0,0,1-11.326,25.627Z" transform="translate(172.801 -115.042)" fill="#dcebc2"/>
      <path id="Path_10068" data-name="Path 10068" d="M437.84,212.685a73.607,73.607,0,0,1,13.76-14.841,34.369,34.369,0,0,1,18.491-7.511,9.013,9.013,0,0,1,6.88,1.818,6.655,6.655,0,0,1,1.367,6.835,12.017,12.017,0,0,1-4.506,5.633c-4,2.839-8.863,4.116-13.655,5.152a130.9,130.9,0,0,1-22.337,2.914Z" transform="translate(175.675 -105.63)" fill="#dcebc2"/>
      <path id="Path_10069" data-name="Path 10069" d="M451.93,199.206c.571-15.217,7.691-30.614,20.5-38.846a16.027,16.027,0,0,1,6.715-2.734,7.375,7.375,0,0,1,6.579,2.388,9.283,9.283,0,0,1,1.4,6.82c-.9,8.187-6.159,15.4-12.648,20.474S460.3,195.616,451.93,199.206Z" transform="translate(182.75 -122.044)" fill="#dcebc2"/>
      <path id="Path_10070" data-name="Path 10070" d="M496.334,170.453a411.254,411.254,0,0,0-46.281,51.494,417.163,417.163,0,0,0-36.8,58.209q-4.506,8.63-8.427,17.515a97.812,97.812,0,0,0-6.79,18.3,1.5,1.5,0,0,0,2.764,1.172,153.607,153.607,0,0,0,7.376-15.472c2.358-5.243,4.762-10.515,7.3-15.607,5.047-10.26,10.38-20.339,16.193-30.178a404.8,404.8,0,0,1,39.732-55.73c8.352-9.839,17.05-19.348,26.318-28.316C498.677,170.949,497.25,169.582,496.334,170.453Z" transform="translate(155.636 -115.704)" fill="#68a694"/>
      <path id="Path_10071" data-name="Path 10071" d="M196.834,366.118a78.578,78.578,0,0,1,7.511-49.211c5.468-10.62,14.5-20.549,26.318-22.232,13.79-1.968,26.183,7.511,38.876,13.294,14.6,6.609,32.642,8.067,46.071-.676,15.592-10.17,20.91-30.839,34.865-43.157,16.749-14.781,44.554-13.61,61.3,1.157s21.736,40.663,13.519,61.423-28.286,35.811-50.217,40.018c-32.792,6.309-65.224-9.509-97.73-17.155-11.416-2.689-25.086-3.786-33.288,4.612-9.869,10.079-6.79,29.142-18.266,37.359-7.676,5.513-19.318,2.9-25.537-4.3S192.973,369.588,196.834,366.118Z" transform="translate(53.519 -73.802)" fill="#c3ebe9" opacity="0.47"/>
      <path id="Path_10072" data-name="Path 10072" d="M179.952,157.021a47.273,47.273,0,0,0-52.576,51.945,29.112,29.112,0,0,1,.33,8.457c-.751,4.116-3.71,7.511-6.715,10.35s-6.294,5.738-8.067,9.524-1.5,8.923,1.818,11.461c1.307.991,3.215,2,2.914,3.62a3.53,3.53,0,0,1-1.5,1.848,28.226,28.226,0,0,0-7.511,8.232,11.326,11.326,0,0,0-.391,10.786c1.682,2.914,5.047,4.807,6.009,8.067,1.067,3.876-1.833,7.6-3,11.446a16.749,16.749,0,0,0,3.68,15.187,29.893,29.893,0,0,0,13.64,8.487,50.788,50.788,0,0,0,46.236-7.886c7.736,6.97,17.545,12.017,27.94,12.453s21.271-4.416,26.513-13.414c8.833,4.6,19.258,6.97,28.841,4.281s17.846-11.341,18.026-21.286c0-3.77-.961-7.736.556-11.176a25.657,25.657,0,0,1,3.816-5.212,23.043,23.043,0,0,0-2.3-29.983c-3.861-3.635-9.464-6.73-9.614-12.017a18.026,18.026,0,0,1,1.127-5.363c4.627-15.893-4.837-34.55-20.384-40.243,4.852-6.73,3.545-16.524-1.5-23.163s-13.024-10.335-21.03-12.228C211.648,147.662,195.229,150.021,179.952,157.021Z" transform="translate(9.578 -126.051)" fill="#614f4b"/>
      <path id="Path_10073" data-name="Path 10073" d="M168.417,305.619c-12.138-3.861-24.831-6.67-37.554-5.919s-25.537,5.363-34.369,14.571-12.768,23.494-8.127,35.286a46.1,46.1,0,0,0,10.17,14.6c18.747,19.528,61.754,14.8,83.82,22.112.3.105-1.953,14.12-.781,13.985,18.026-2.223,54.333-5.483,71.953-8.622s35.3-8.517,48.31-20.595,19.843-32.251,12.017-48.2c-4.927-10.11-15.022-17.155-25.912-19.934s-22.532-1.7-33.318,1.427c-8.412,2.433-16.524,6.009-25.011,8.082C209.441,317.171,188.425,311.943,168.417,305.619Z" transform="translate(-0.803 -50.722)" fill="#82a1a8"/>
      <path id="Path_10074" data-name="Path 10074" d="M223.394,307.364a79.948,79.948,0,0,0,26.273,18.026,32.87,32.87,0,0,0-1.382-3.275c-4.927-10.109-15.022-17.155-25.912-19.934a49.893,49.893,0,0,0-5.333-1.052A80.982,80.982,0,0,1,223.394,307.364Z" transform="translate(64.798 -49.943)" fill="#708b91"/>
      <path id="Path_10075" data-name="Path 10075" d="M136.081,299.59c-1.758,0-3.515,0-5.273.105-12.723.736-25.537,5.363-34.369,14.571a37,37,0,0,0-9.869,20.9C105.092,326.223,123.268,315.423,136.081,299.59Z" transform="translate(-0.719 -50.717)" fill="#708b91"/>
      <path id="Path_10076" data-name="Path 10076" d="M200.094,224.37c-7.631.631-23.449,8.277-29.1,13.73a84.377,84.377,0,0,0-13.91,19.108c-7.706,13.519-14.21,27.64-22.442,40.739s-18.447,25.281-31.65,32.627a19.183,19.183,0,0,1-9.283,3c-3.665,0-8.082-1.112-12.663.255s-7.736,7.691-5.092,8.893c3.17,1.5,5.152-3.74,10.515,1.5,3.68,3.665,1.021,8.337-1.712,9.884a4.792,4.792,0,0,1-5.5-.766c-2.869-3.785-.255-7.18-3.5-7.751-2.1-.361-4.221,4.792-4.026,7.511a10.65,10.65,0,0,0,3.891,6.91c1.232.856,4.777,2.028,5.768,3.185s-6.309.436-4.807,3.079c1.2,2.118,7.15,3.155,9.509,2.839,16.343-2.193,52.305-22.953,71.172-42.812,15.022-15.758,33.048-73.606,35.917-81.9C194.881,239.377,200.439,224.791,200.094,224.37Z" transform="translate(-8.175 -88.489)" fill="#ffd8c4"/>
      <path id="Path_10077" data-name="Path 10077" d="M179.435,224.37c7.135.616,21.947,8.112,27.219,13.444a82.481,82.481,0,0,1,13.009,18.717c7.21,13.174,13.294,27.039,21.03,39.912S257.953,321.2,270.3,328.41a17.365,17.365,0,0,0,8.683,2.914,47.762,47.762,0,0,1,10.155.556c7.285,1.5,9.343,7.676,6.219,10.816-1.5,1.5-5.423-4.687-9.343,1.5a5.873,5.873,0,0,0,.631,6.519c1.5,1.5,5.107,2.073,5.918,0,.466-1.172.21-2.554.6-3.755a3.485,3.485,0,0,1,5.408-1.5,6.189,6.189,0,0,1,1.5,6.444,10.635,10.635,0,0,1-4.131,5.318c-1.142.841-4.506,2-5.393,3.139s5.378.406,4.3,3.155c-.8,1.983-4.927,3-12.017,2.569-17.5-.991-45.651-22.427-63.3-41.865-14.03-15.442-30.93-72.1-33.6-80.23C184.317,239.076,179.119,224.791,179.435,224.37Z" transform="translate(45.907 -88.489)" fill="#ffd8c4"/>
      <path id="Path_10078" data-name="Path 10078" d="M161.619,214.308a165.016,165.016,0,0,1-2.779,19.723l3.921,3a15.442,15.442,0,0,0,18.657.225l4.506-3.605.225-1.727s-3.455-13.084-4.506-19.648C173.741,214.608,170.046,213.362,161.619,214.308Z" transform="translate(35.572 -94.56)" fill="#ffd8c4"/>
      <g id="Group_724" data-name="Group 724" transform="translate(196.41 117.765)" opacity="0.1">
        <path id="Path_10079" data-name="Path 10079" d="M183.063,222.525c-.841-3.59-1.7-7.511-2.118-10.215-7.871,2.283-11.567.976-19.994,1.983-.135,2.479-.421,5.182-.781,7.781a41.76,41.76,0,0,0,22.893.451Z" transform="translate(-160.17 -212.31)" fill="#6b2d91"/>
      </g>
      <path id="Path_10080" data-name="Path 10080" d="M150.031,226.711c4.506,11.657,20.474,16.914,28.105,16.524,8.713-.406,19.994-7.15,24.035-14.886,9.629-18.161,6.955-38.741,3.41-44.854-3.831-6.579-17.786-16.524-25.4-16.839s-24.53,4.672-29.2,10.906C145.254,185.3,143.031,208.235,150.031,226.711Z" transform="translate(28.954 -117.478)" fill="#ffd8c4"/>
      <g id="Group_725" data-name="Group 725" transform="translate(174.619 49.177)" opacity="0.1">
        <path id="Path_10081" data-name="Path 10081" d="M154.281,205.586a42.33,42.33,0,0,0,20.91-13.294,1.983,1.983,0,0,1,.766-.646,2.043,2.043,0,0,1,1.682.451,46.987,46.987,0,0,0,31.215,7.15c-.18-7.18-1.607-12.964-3.215-15.743-3.831-6.579-17.786-16.524-25.4-16.839s-24.53,4.672-29.2,10.906c-3.755,5.017-6.009,16.524-5.212,28.932A23.448,23.448,0,0,0,154.281,205.586Z" transform="translate(-145.664 -166.651)" fill="#6b2d91"/>
      </g>
      <path id="Path_10082" data-name="Path 10082" d="M146.541,303.14c-.391,0,5.783,12.723,2.178,22.037-2.4,6.174-19.153,6.655-27.279,6.4,4.837,1.5,27.52,7.961,47.453,21.706,1.262.886,14.376,7.706,15.893,7.961a10.921,10.921,0,0,0,4.281-.451c19.288-4.672,57.668-16.524,57.292-16.524-24.425,2.764-42.06-13.159-18.987-37.96-10.395,2.313-42.932,5.062-56.436,3.44C162.584,308.788,155.178,303.14,146.541,303.14Z" transform="translate(16.791 -48.934)" fill="#708b91"/>
      <path id="Path_10083" data-name="Path 10083" d="M175.449,177.727A34.144,34.144,0,0,1,143.9,207.845c-.511-9.689-.931-19.9,3.44-28.541s12.9-14.436,22.052-17.365a34.235,34.235,0,0,1,15.247-1.682c8.863,1.292,16.524,7.346,21.331,15.022s6.775,16.629,7.511,25.537a2.659,2.659,0,0,1-.21,1.607c-.526.886-1.788.886-2.809.751-8.622-1.232-16.524-5.363-23.689-10.395C181.5,189.083,176.47,184.607,175.449,177.727Z" transform="translate(27.916 -120.8)" fill="#614f4b"/>
      <path id="Path_10084" data-name="Path 10084" d="M170.965,222.866a124.085,124.085,0,0,0-12.363,4.507,6.82,6.82,0,0,0-2.659,1.682,7.121,7.121,0,0,0-1.217,3c-1.2,4.912-5.663,18.492-7.511,23.178-3.124,7.691-11,14.24-10.155,27.039.721,10.966,8.127,20.79,8.247,31.786a49.271,49.271,0,0,1-2.283,13.144c-1.2,4.506-2.4,8.908-3.59,13.354a6.76,6.76,0,0,0-.361,2.824c.24,1.5,16.163,10.861,39.417,10.861,29.713,0,40.979-5.858,41.46-7.781.376-1.5-4.972-24.771-3.17-38.485,1.036-7.992,11.176-18.7,7.06-32.792-.781-2.674-4.687-8.052-7.2-16.659-4.176-14.331-3.5-16.929-5.318-30.764-.12-.916-12.723-5.167-15.292-5.783-2.734,4.762-5.919,12.468-13.88,11.3C173.654,232.12,171.325,223.182,170.965,222.866Z" transform="translate(24.604 -89.689)" fill="#add9d1"/>
      <path id="Path_10085" data-name="Path 10085" d="M150.21,353.286c-4.086,2.283-8.022,8.382-10.064,12.573-1.082,2.238-1.7,4.687-3,6.82a77.491,77.491,0,0,1-5.092,6.279,18.808,18.808,0,0,0-3.47,7.977c-.466,2.6-.105,5.768,2.163,7.105a2.373,2.373,0,0,0,2.659,0,4.507,4.507,0,0,0,.991-2c.886-2.328,3.185-3.74,5.363-4.927a171.7,171.7,0,0,1,15.878-7.691,11.777,11.777,0,0,0,4.942-3.094c.676-.856-2.539-15.878,11.026-29.457C171.812,346.706,154.281,351,150.21,353.286Z" transform="translate(20.287 -26.976)" fill="#ffd8c4"/>
      <path id="Path_10086" data-name="Path 10086" d="M159.679,331.857a21.75,21.75,0,0,1,12.6,3c1.968,1.247,21.03.09,21.526,5.738,0,.27-7.12,2.809-27.249,10.891-.946.376-7.361,4.431-8.232,3.876-8.743-5.618-7.766-19.2-7.225-19.528C153.355,334.306,155.293,332.1,159.679,331.857Z" transform="translate(31.519 -34.539)" fill="#ffd8c4"/>
      <path id="Path_10087" data-name="Path 10087" d="M220.734,195.068a35.465,35.465,0,0,1-10.7.165,36.623,36.623,0,0,1-10.215-3.38,82.469,82.469,0,0,1-9.268-5.363,72.1,72.1,0,0,1-8.487-6.234c-2.434-2.193-4.762-5.107-4.792-8.442q.105-.9.18-1.8c0-1.021-1.652-1.277-1.818-.24-1.758,12.813-8.818,25.537-21.346,30.554a26.724,26.724,0,0,1-10.725,1.863,1.015,1.015,0,0,0,0,2.028,31.26,31.26,0,0,0,19.092-6.009,35.075,35.075,0,0,0,12.228-16.434,44.7,44.7,0,0,0,1.5-5.182,12.422,12.422,0,0,0,1.712,3.17,37.553,37.553,0,0,0,8.622,7.6c6.594,4.732,13.519,9.148,21.691,10.515a33.721,33.721,0,0,0,6.5.511,16.794,16.794,0,0,0,6.5-1.5C222.6,196.39,221.725,194.933,220.734,195.068Z" transform="translate(27.411 -116.239)" fill="#4a3b37"/>
      <path id="Path_10088" data-name="Path 10088" d="M226.676,209.469a41.189,41.189,0,0,0-9.869-20.069,56.706,56.706,0,0,0-8.082-7.691,17.493,17.493,0,0,0-2.494-1.652,19.784,19.784,0,0,0-.871-19.123.451.451,0,0,0-.766.451,19.077,19.077,0,0,1,.481,16.4,12.731,12.731,0,0,1-.751,1.5l-.481-.09a6.925,6.925,0,0,0-4.927,1.442c-1.1.721-2.539,1.592-2.734,3a2.584,2.584,0,0,0,2.148,2.734c2.9.676,5.648-2.629,7.045-4.837a21.968,21.968,0,0,1,2.614,1.908c1.232.991,2.449,2.028,3.605,3.109a50.263,50.263,0,0,1,6.429,7.18,37.554,37.554,0,0,1,7.316,18.446,29.022,29.022,0,0,1-1.172,11.522c-.946,3-2.1,6.955.616,9.388.526.466,1.5-.18,1.036-.811-2.614-3.455-.12-7.706.646-11.386A31.543,31.543,0,0,0,226.676,209.469Zm-26.543-24.756a1.8,1.8,0,0,1-2.373-.18c-.676-.856.3-1.7.976-2.148a6.744,6.744,0,0,1,4.732-1.5l-.391.586a11.147,11.147,0,0,1-2.944,3.245Z" transform="translate(54.321 -120.425)" fill="#4a3b37"/>
      <path id="Path_10089" data-name="Path 10089" d="M230.66,230.812a26.3,26.3,0,0,0-4.161-11.507,53.022,53.022,0,0,0-8.127-10.335c-.886-.856-2.268.526-1.352,1.352,5.753,5.258,10.951,12.273,11.431,20.309a24.485,24.485,0,0,1-7.285,18.251c-.5.511.15,1.5.781,1.006C228.227,245.8,231.291,238.1,230.66,230.812Z" transform="translate(64.637 -96.358)" fill="#4a3b37"/>
      <path id="Path_10090" data-name="Path 10090" d="M130.368,236.909c-1.682-4.176-6.76-.511-8.728,1.307a29.052,29.052,0,0,0-5.378,6.88,11.206,11.206,0,0,1-6.234-5.152,12.573,12.573,0,0,1-.406-10.785,21.633,21.633,0,0,1,3.755-5.122l4.777-5.408c.5-.556-.3-1.382-.826-.826L112,223.51a21.645,21.645,0,0,0-3.71,4.867,13.024,13.024,0,0,0-.33,10.891,13.384,13.384,0,0,0,7.631,7.075c-.3.556-.586,1.127-.856,1.7a36.052,36.052,0,0,0-3.755,12.693c-.526,7.946,5.062,17.23,13.069,19.122.856.21,1.5-1.051.631-1.5-5.663-2.779-10.17-7.436-11.236-13.835a22.126,22.126,0,0,1,1.367-10.755,54.3,54.3,0,0,1,2.719-6.895,12.017,12.017,0,0,0,8.728-1.307C129,243.939,131.735,240.289,130.368,236.909Zm-1.247,2.479a6.76,6.76,0,0,1-2.343,4.026,10.155,10.155,0,0,1-8.577,2.193c.225-.421.436-.841.676-1.247a18.7,18.7,0,0,1,6.955-7.346,3,3,0,0,1,2.434-.36C129.226,237.134,129.256,238.471,129.121,239.388Z" transform="translate(9.501 -91.88)" fill="#4a3b37"/>
      <path id="Path_10091" data-name="Path 10091" d="M229.158,330.563a127.458,127.458,0,0,0-14.451,3.109q-7.255,1.878-14.421,4.041-13.97,4.236-27.475,9.569c-5.182,2.043-10.245,4.356-15.292,6.685-.751.346-.09,1.352.676,1.021a373.817,373.817,0,0,1,55.189-19.153c5.363-1.4,10.831-2.539,16.133-4.1C230.36,331.48,230,330.443,229.158,330.563Z" transform="translate(34.744 -35.168)" fill="#526f75"/>
      <path id="Path_10092" data-name="Path 10092" d="M168.532,340.117c-16.779-9.509-35.136-18.687-54.859-18.9a.225.225,0,0,0,0,.451c19.708.9,37.344,10.14,54.348,19.318a.511.511,0,0,0,.511-.871Z" transform="translate(12.781 -39.855)" fill="#526f75"/>
      <path id="Path_10093" data-name="Path 10093" d="M202.529,278.12a102.283,102.283,0,0,1-48.249,11.912c14.06,6.279,30.043,6.009,45.455,5.408a3.846,3.846,0,0,0,2.794-.871,3.8,3.8,0,0,0,.661-2.764C203.085,287.193,202.845,282.6,202.529,278.12Z" transform="translate(33.282 -61.498)" fill="#9dbfb9" opacity="0.52"/>
      <path id="Path_10094" data-name="Path 10094" d="M607.1,305.2c-10.936-3-21.631-6.97-32.837-8.607s-23.329-.661-32.687,5.708-14.9,19.123-10.515,29.563c3.7,8.788,12.934,13.79,21.8,17.3,18.972,7.511,39.206,11.4,58.254,18.717,6.009,2.313,12.017,4.987,18.281,6.474,15.142,3.575,31.215,0,45.41-6.309a120.8,120.8,0,0,0,54.288-48.415c2.118-3.575,11.026-14.811-4.206-22.1-10.65-5.077-32.642,2.614-35.511,3.139a47.688,47.688,0,0,0-10.3,3.861c-18.131,7.961-38.62,9.013-58.329,7.045C615.211,311.116,609.293,310.095,607.1,305.2Z" transform="translate(221.72 -52.614)" fill="#525e5b"/>
      <path id="Path_10095" data-name="Path 10095" d="M674.109,330.348a71.233,71.233,0,0,1,35.6-30.524c1.983-.736,9.133,1.217,10.846,1.878,14.481,5.633,20.865,14.586,20.8,24.425-.135,26.378-20.625,46.567-45.335,51.96-18.987,4.1-37.719,11.371-57.2,14.406-12.573,1.968-25.266,3.71-37.359,7.676s-23.719,10.275-31.921,20.009c-1.908,2.268-4.176,4.942-7.12,4.672-5.288-1.5,1.262-12.017,2-13.76.631-1.5.631-16.449,1.938-20.79a13.308,13.308,0,0,1,2.058-4.506,65.719,65.719,0,0,1,8.382-7c10.365-7.03,18.537-11.4,28.346-16.869C640.7,342.065,671.285,335.155,674.109,330.348Z" transform="translate(237.209 -50.681)" fill="#f5ccb8"/>
      <g id="Group_726" data-name="Group 726" transform="translate(942.533 248.951)" opacity="0.13">
        <path id="Path_10096" data-name="Path 10096" d="M672.087,301.682c-1.713-.661-8.863-2.614-10.846-1.878-1.5.571-3,1.187-4.371,1.863a69.9,69.9,0,0,0,34.55,16.6C688.821,311.642,682.6,305.8,672.087,301.682Z" transform="translate(-656.87 -299.641)" fill="#743285"/>
      </g>
      <path id="Path_10097" data-name="Path 10097" d="M593.858,331.372c-1.818-7.12-3.861-14.3-7.646-20.595s-9.569-11.732-16.689-13.519-15.021.165-21.962,3.245a43.848,43.848,0,0,0-15.142,10.365c-10.365,11.612-10.14,32.822-.451,44.99,10.425,13.114,23.043,21.03,53.372,32.912,28.015,10.921,83.385,18.867,86.014,20.189,3.605,1.818,12.017,8.562,15.893,9.644,2.238.616,8.4-1.232,8.818-3.155.12-.586,3.74-1.5,7.946-7.3,1.4-1.953,2.914-4.792,3.921-5.453,2.223-1.5,3.245-1.112,6.009-4.386,2.028-2.418,3.47-6.775.676-8.247a5.438,5.438,0,0,0-2.734-.391c-20.324.661-27.324-.345-33.168-3-3.185-1.427-7.391-6.309-29.337-21.03-14.661-9.839-33.047-21.346-48.85-29.232C597.793,335.037,594.459,333.715,593.858,331.372Z" transform="translate(219.279 -52.23)" fill="#ffd8c4"/>
      <g id="Group_727" data-name="Group 727" transform="translate(748.514 244.262)" opacity="0.13">
        <path id="Path_10098" data-name="Path 10098" d="M546.036,300.486a43.85,43.85,0,0,0-15.142,10.365,29.029,29.029,0,0,0-3.184,4.341,79.058,79.058,0,0,0,34.309-18.672A40.244,40.244,0,0,0,546.036,300.486Z" transform="translate(-527.71 -296.52)" fill="#743285"/>
      </g>
      <path id="Path_10099" data-name="Path 10099" d="M662.584,257.636l17.139,36.457c1.863,3.951,4.942,16.839,23.539,20.5,1.081.21,5-1.908,6.009-2.388a5.033,5.033,0,0,1,5.077,0c1.5,1.066,1.5,3.755-.21,4.371a11.6,11.6,0,0,1-2.614.165,3,3,0,1,0,3.35,3.785c.24-.9.12-2.028.871-2.584s2.253.255,2.854,1.277c2.539,4.371-2.028,9.1-4.507,8.878-.406,1.938,3.786,1.953,3.861,3.921,0,1.652-2.479,1.622-3.981.961a3.215,3.215,0,0,1,.676,2.1c-11.056,2.358-22.532-.976-33.048-4.987a67.942,67.942,0,0,1-16.7-8.442c-7.15-5.318-12.288-12.934-16.193-20.955a97.636,97.636,0,0,1-8.863-28.962,21.585,21.585,0,0,1,.541-10.861,12.017,12.017,0,0,1,21.511-1.863C661.247,259.153,660.541,259.258,662.584,257.636Z" transform="translate(276.885 -74.016)" fill="#ffd8c4"/>
      <path id="Path_10100" data-name="Path 10100" d="M600.376,162.422c-6.94,3.53-11.4,10.77-13.354,18.311s-1.773,15.442-1.5,23.223a8.111,8.111,0,0,0-9.869,3.335A9.013,9.013,0,0,0,577,217.806a10.245,10.245,0,0,0,10.515,2.434,36.052,36.052,0,0,0,21.571,19.949c9.689,3,21.03.691,28.151-6.534,4.116-4.176,6.64-9.629,9.088-15.022a2.914,2.914,0,0,1,.916-1.307,3.411,3.411,0,0,1,1.292-.391,12.017,12.017,0,0,0,9.4-12.964,6.849,6.849,0,0,0-1.352-3.425c-1.848-2.268-5.228-2.343-8.142-2.223a63.829,63.829,0,0,0-3.71-24.831,22.1,22.1,0,0,0-14.421-15.112,36.418,36.418,0,0,0-7.015-2.163C615.022,154.566,607.12,159.072,600.376,162.422Z" transform="translate(244.321 -122.889)" fill="#ffd8c4"/>
      <path id="Path_10101" data-name="Path 10101" d="M590.067,177.49a46.325,46.325,0,0,0,4.912-3.951,11.026,11.026,0,0,0,2.764-9.013,49.136,49.136,0,0,0,24.44,9.539,11.446,11.446,0,0,0,6.369-.721c.977-.511,1.968-1.292,3-1.067s1.652,1.292,2.238,2.208a13.383,13.383,0,0,0,9.268,5.888,62.513,62.513,0,0,0-2-6.715,22.1,22.1,0,0,0-14.42-15.112,36.422,36.422,0,0,0-6.97-2.328c-8.277-1.652-16.178,2.779-22.923,6.2s-11.4,10.771-13.354,18.311a56.706,56.706,0,0,0-1.638,12.438,11.913,11.913,0,0,0,.841,1.5A20.745,20.745,0,0,1,590.067,177.49Z" transform="translate(247.946 -122.891)" fill="#743285" opacity="0.13"/>
      <path id="Path_10102" data-name="Path 10102" d="M592.445,208.923a110.548,110.548,0,0,0-1.307,14.586,6.339,6.339,0,0,0,.225,2.328,5.829,5.829,0,0,0,1.5,2.193,22.966,22.966,0,0,0,8.412,4.987c4.506,1.637,9.749,2.3,14.225.421,3.71-1.5,6.519-4.642,9.193-7.646a6.923,6.923,0,0,0,1.712-2.644,6.7,6.7,0,0,0,0-2.509q-.646-6.444-1.412-12.858a2.474,2.474,0,0,0-.21-.871c-.526-1.006-2.013-.811-3.095-.481A77.527,77.527,0,0,1,592.445,208.923Z" transform="translate(252.642 -97.632)" fill="#ffd8c4"/>
      <g id="Group_728" data-name="Group 728" transform="translate(844.036 108.485)" opacity="0.13">
        <path id="Path_10103" data-name="Path 10103" d="M612.571,223.4a35.4,35.4,0,0,0,13.64-4.041c-.406-3.876-.826-7.736-1.277-11.612a2.478,2.478,0,0,0-.21-.871c-.526-1.006-2.013-.811-3.094-.481a77.527,77.527,0,0,1-29.277,2.539c-.5,3.139-.826,6.294-1.052,9.464A35.677,35.677,0,0,0,612.571,223.4Z" transform="translate(-591.3 -206.132)" fill="#743285"/>
      </g>
      <path id="Path_10104" data-name="Path 10104" d="M648,202.6a56.511,56.511,0,0,0,2.4-19.813c-.526-6.79-3.365-13.64-8.788-17.741a2.584,2.584,0,0,1-.721-.736c-.361-.706.09-1.5.436-2.253a7.962,7.962,0,0,0-1.036-8.412,13.278,13.278,0,0,0-5.423-3.455,42.06,42.06,0,0,0-35.481,2.313,17.693,17.693,0,0,0-5.618,4.506,15.021,15.021,0,0,0-2.569,6.354,2.057,2.057,0,0,1-.511,1.247,2.178,2.178,0,0,1-1.277.391,13.024,13.024,0,0,0-9.629,7.871,28.993,28.993,0,0,0-1.968,12.723,109.5,109.5,0,0,0,3.32,22.653,5.738,5.738,0,0,1,4.927,1.217,77.267,77.267,0,0,1-.361-13.174,26.2,26.2,0,0,1,3.966-12.438c2.058-3,5-5.588,6.609-8.923a22.728,22.728,0,0,0,2.6-7.391c10.32,1.5,19.423,5.5,29.833,6.009a8.353,8.353,0,0,0,3.755-.466,3.425,3.425,0,0,0,2.208-2.854c1.367,3.725,1.5,5.753,5.543,10.515a30.973,30.973,0,0,1,3.8,4.161,12.453,12.453,0,0,1,1.2,4.507c.631,4.7-.21,10.32-.09,15.022A3.951,3.951,0,0,1,648,202.6Z" transform="translate(245.928 -127.179)" fill="#855f4d"/>
      <path id="Path_10105" data-name="Path 10105" d="M582.86,189.832c1.367,3.185-.315,11.507.631,14.826,4.4,15.487,14.826,24.17,34.445,23.268,21.5-.976,24.861-25.837,25.4-28.962a49.567,49.567,0,0,0,0-14.376c-1.247-.691-3.29.24-4.161,1.367a11.1,11.1,0,0,0-1.5,3.966,22.622,22.622,0,0,1-6.474,11.131,5.873,5.873,0,0,1-5.348,1.8,7.673,7.673,0,0,1-2.148-1.232c-3.395-2.449-7.511-4.507-11.642-3.635-2.764.6-5.062,2.433-7.511,3.831s-5.5,2.4-8.067,1.217a9.583,9.583,0,0,1-3.786-3.906,39.313,39.313,0,0,1-2.3-4.3,12.833,12.833,0,0,0-2.524-4.206A4.672,4.672,0,0,0,582.86,189.832Z" transform="translate(248.498 -108.584)" fill="#6b4637"/>
      <path id="Path_10106" data-name="Path 10106" d="M606.538,196.39a2.869,2.869,0,0,1-2.208,1.863,28.528,28.528,0,0,1-3,.315,3.53,3.53,0,0,0-2.6,1.382,3,3,0,0,0,.541,3.455,6.986,6.986,0,0,0,3.275,1.772,12.993,12.993,0,0,0,6.594.511,6.9,6.9,0,0,0,5.017-4,2.3,2.3,0,0,0,.12-1.5c-.345-.946-1.5-1.262-2.464-1.5l-2.779-.541a3.5,3.5,0,0,1-2.073-.916,3.634,3.634,0,0,1-.421-.841Z" transform="translate(256.305 -102.539)" fill="#ffd8c4"/>
      <path id="Path_10107" data-name="Path 10107" d="M572.706,248.173q-8.652,20.264-17.29,40.393c-1.878,4.386-3.876,8.923-7.421,12.017-2.914,2.539-13.519,12.348-16.524,13.354a7.21,7.21,0,0,1-3.395.6,12.019,12.019,0,0,1-3.275-1.4,5.242,5.242,0,0,0-5.423.135c-1.5,1.2-1.5,4.161.345,4.807a11.4,11.4,0,0,0,2.779.135,3.605,3.605,0,0,1,2.163,5.528,3.395,3.395,0,0,1-5.633-1.307c-.27-.991-.165-2.223-.991-2.824s-2.418.3-3,1.5a7.766,7.766,0,0,0,.481,7.6,7.27,7.27,0,0,0,6.7,3.2c.481,2.118-3.966,2.193-4.011,4.371,0,1.818,2.674,1.742,4.266.991a3.515,3.515,0,0,0-.661,2.313c11.807,2.4,21.271-6.67,32.4-11.266a70.7,70.7,0,0,0,17.56-9.584c7.511-6.009,12.738-14.436,16.689-23.313a109.964,109.964,0,0,0,8.683-32.011c.451-4,.661-8.2-.841-12.017a13.279,13.279,0,0,0-11.026-8.187,12.9,12.9,0,0,0-11.912,6.519C574.163,249.826,574.914,249.931,572.706,248.173Z" transform="translate(214.053 -79.034)" fill="#ffd8c4"/>
      <path id="Path_10108" data-name="Path 10108" d="M576.012,308.307a12.648,12.648,0,0,1,1.4,23.329l32.717,20.459a9.283,9.283,0,0,0,5.633,1.968,9.4,9.4,0,0,0,3.891-1.757,151.277,151.277,0,0,1,44.719-19.378L674.884,308.5c-14.03,4.807-25.852,17.725-40.648,16.6,1.788-4.507,5.8-7.721,9.629-10.71L662,300.24a223.242,223.242,0,0,1-26.738,5.663c-19.873,2.554-40.047-.255-59.666-4.326C574.435,304.792,576.718,308.8,576.012,308.307Z" transform="translate(244.681 -50.39)" fill="#79287a" opacity="0.25"/>
      <path id="Path_10109" data-name="Path 10109" d="M616.2,217.387c-2.629-.661-23.088,7.751-32.4,12.017a111.344,111.344,0,0,0-16.809,9.629C560.2,244.2,555.5,251.576,550.944,258.8l-8.562,13.61a6.369,6.369,0,0,0-1.262,3.29,6.009,6.009,0,0,0,.946,2.749,48.324,48.324,0,0,0,38.32,24.035l2.6-4.777,7.511,40.408a12.347,12.347,0,0,0,1.818,5.228,11.539,11.539,0,0,0,5.3,3.425,108.666,108.666,0,0,0,68.574,3.8c5.077-1.4,10.515-3.65,12.663-8.487a19.425,19.425,0,0,0,1.172-5.8c1.5-15.668,3.515-26.829,5-42.481.09.961,2.013,8.307,3.68,10.26a161.572,161.572,0,0,0,35.736-25.687,7.151,7.151,0,0,0,2.238-3.124,7.226,7.226,0,0,0-.51-4c-4.507-13.414-9.824-27.264-20.5-36.532-14.706-12.768-34.9-14.451-53.958-18.492-.9,5.348-6.249,11.011-17.711,11.011C620.554,226.159,617.55,217.777,616.2,217.387Z" transform="translate(227.538 -92.577)" fill="#68a694"/>
      <path id="Path_10110" data-name="Path 10110" d="M580.6,322.02c-.451-1.818-1.2-3.545-1.757-5.348s-1.052-3.785-1.5-5.708c-.826-3.8-1.382-7.661-2.013-11.507-1.367-8.2-2.839-16.344-4.582-24.47-1.006-4.657-1.908-9.328-2.764-14.015-.12-.646-1.1-.361-.991.285,1.337,8.307,2.283,16.674,3.56,25,1.232,8.1,2.644,16.208,4.266,24.23.421,2.073.886,4.146,1.5,6.174a21.515,21.515,0,0,0,2.434,6.129,1.006,1.006,0,0,0,1.847-.766Z" transform="translate(240.526 -70.292)" fill="#538275"/>
      <path id="Path_10111" data-name="Path 10111" d="M625.838,216.578c-1.4,3.124-4.086,4.792-7.045,6.264a20.053,20.053,0,0,1-8.818,2.118,28.3,28.3,0,0,1-9.9-2.388,14.316,14.316,0,0,1-4.506-2.914c-1.127-1.006-2.343-2.929-3.921-3a.931.931,0,0,0-.9.691c-.255,1.818,1.818,3.56,3,4.732a49.466,49.466,0,0,0,4.657,4.056,20.76,20.76,0,0,0,11.867,4.221,18.116,18.116,0,0,0,11.281-3.32,19.229,19.229,0,0,0,6.489-9.434C628.587,216.218,626.409,215.271,625.838,216.578Z" transform="translate(252.448 -92.715)" fill="#538275"/>
      <path id="Path_10112" data-name="Path 10112" d="M700.826,318.608c-5.2,1.262-10.365,2.644-15.533,3.981s-10.32,2.779-15.382,4.506a252.381,252.381,0,0,0-29.337,12.153c-5.423,2.629-10.816,5.363-15.983,8.457a1.289,1.289,0,0,0-.27.21l-1.893-1.217a341.1,341.1,0,0,0-43.172-23.088c-1.292-.586-2.6-1.127-3.905-1.7a8.669,8.669,0,0,0-1.247-1.322c-.616-.556-1.292-1.066-1.953-1.592-1.277-1.007-2.569-1.983-3.936-2.884-2.719-1.788-5.513-3.47-8.382-5.017a.593.593,0,0,0-.6,1.021c2.719,1.757,5.363,3.62,7.9,5.633l1.953,1.5q-7.511-3-15.232-5.768c-1.172-.421-1.622,1.382-.511,1.833a413.955,413.955,0,0,1,43.758,20.7,404.517,404.517,0,0,1,40.994,25.537c7.346,5.242,14.406,11,22.1,15.743.826.511,1.652-.646,1.021-1.322a121.915,121.915,0,0,0-18.6-15.653q-7.721-5.588-15.743-10.785c9.013-4.627,18.191-9.193,27.595-13.159,9.719-4.1,19.618-7.9,29.592-11.371,5.648-1.968,11.341-3.575,17.155-5C702.132,319.795,701.742,318.383,700.826,318.608Z" transform="translate(233.355 -44.979)" fill="#deb7a4"/>
      <path id="Path_10113" data-name="Path 10113" d="M660.173,312.893a59.651,59.651,0,0,0-22.232,8.412.721.721,0,0,0,.721,1.232A79.4,79.4,0,0,1,660.4,313.7C660.924,313.568,660.7,312.8,660.173,312.893Z" transform="translate(276.021 -44.04)" fill="#deb7a4"/>
      <path id="Path_10114" data-name="Path 10114" d="M636.35,283.171q-1.007-21.286-.315-42.6c2.794,7.285,5.648,14.661,10.109,21.03s10.741,11.882,18.326,13.79a112.888,112.888,0,0,1-22.217,13.94,2.013,2.013,0,0,1-1.5.27,1.848,1.848,0,0,1-.9-.946C638.423,286.281,637.476,283.577,636.35,283.171Z" transform="translate(275.058 -80.354)" fill="#608f81"/>
      <path id="Path_10115" data-name="Path 10115" d="M663.811,256.24A33.047,33.047,0,0,1,653.3,275.6,70.365,70.365,0,0,1,634.473,287.7c-17.065,8.082-47.423,13.129-49.857,15.022-1.021.8-5.3,6.73-3.605,6.955,20.159,2.629,44.689-1.307,64.743-4.506a13.805,13.805,0,0,1-5.859,5.122c-14.8,8.307-46.807,9.013-48.069,16.238-.21,1.307,18.852,3.605,28.466,3.139,12.017-.6,24.215-1.367,35.736-4.942a5.257,5.257,0,0,0,2.6-1.412,5.6,5.6,0,0,0,.886-2.028,160.068,160.068,0,0,0,4.3-65.043Z" transform="translate(247.372 -72.485)" fill="#608f81"/>
      <path id="Path_10116" data-name="Path 10116" d="M637.323,256.314c-.2,8.788-1.052,17.545-1.352,26.333s-1.127,17.35-1.833,26.017c-.2,2.449-.376,4.9-.646,7.331-.12,1.232-.286,2.448-.436,3.68a9.589,9.589,0,0,0-.165,3.575.616.616,0,0,0,1.112.15c.916-1.637.8-4.1,1.006-5.934.255-2.208.571-4.4.841-6.61q.856-6.594,1.5-13.234c.781-8.758,1.5-17.5,1.727-26.288.15-5,0-10.019.12-15.022a.939.939,0,1,0-1.878,0Z" transform="translate(273.574 -72.919)" fill="#538275"/>
      <path id="Path_10117" data-name="Path 10117" d="M671.153,285.9a32.908,32.908,0,0,0-11.161,7.511.319.319,0,1,0,.451.451,47.1,47.1,0,0,1,11.191-7.075C672.219,286.5,671.723,285.64,671.153,285.9Z" transform="translate(287.183 -57.617)" fill="#deb7a4"/>
      <path id="Path_10118" data-name="Path 10118" d="M668.931,284.554a16.974,16.974,0,0,0-3.455,1.5,14.6,14.6,0,0,0-3,2.313c-.361.36.135,1.081.571.736a18.307,18.307,0,0,1,6.249-3.094A.751.751,0,1,0,668.931,284.554Z" transform="translate(288.413 -58.288)" fill="#deb7a4"/>
      <path id="Path_10119" data-name="Path 10119" d="M551.376,287.657a18.925,18.925,0,0,0-4.611-4,18.51,18.51,0,0,0-5.663-2.4c-.9-.225-1.292,1.187-.391,1.382a24.859,24.859,0,0,1,5.528,1.923,25.93,25.93,0,0,1,4.927,3.3.15.15,0,0,0,.21-.21Z" transform="translate(227.076 -59.934)" fill="#deb7a4"/>
      <path id="Path_10120" data-name="Path 10120" d="M547.37,282.378a9.6,9.6,0,0,0-2.163-1.5,14.245,14.245,0,0,0-2.509-.9.676.676,0,0,0-.781.451.646.646,0,0,0,.451.781,13.385,13.385,0,0,1,2.283.706c.751.33,1.5.646,2.238,1.052C547.264,283.235,547.745,282.679,547.37,282.378Z" transform="translate(227.928 -60.574)" fill="#deb7a4"/>
      <path id="Path_10121" data-name="Path 10121" d="M371.521,205.791c-.751,4.236-1.021,10.861-1.788,15.1a4.761,4.761,0,0,0,0,1.953c.361,1.5,1.953,2.163,3.35,2.689,14.511,5.453,19.994,2.133,26.153-4.041a3.139,3.139,0,0,0,.916-1.262,3.636,3.636,0,0,0-.105-1.833l-3.2-13.174-17.17.826a32.326,32.326,0,0,1-8.157-.255Z" transform="translate(141.424 -98.105)" fill="#cf8a74"/>
      <g id="Group_729" data-name="Group 729" transform="translate(511.713 107.115)" opacity="0.15">
        <path id="Path_10122" data-name="Path 10122" d="M379.4,206.046a32.324,32.324,0,0,1-8.1-.255c-.421,2.4-.931,8.487-1.232,11.552,17.05,3.215,27.039-3.365,28.376-4.822-.706-2.9-1.172-4.386-1.878-7.3Z" transform="translate(-370.07 -205.22)" fill="#79287a"/>
      </g>
      <path id="Path_10123" data-name="Path 10123" d="M373.783,161.906a16.854,16.854,0,0,0-8.622,8.352c-4.506,8.592-4.837,18.732-5,28.451a6.8,6.8,0,0,0-9.373,1.652,9.013,9.013,0,0,0,.33,10.019,13.384,13.384,0,0,0,9.013,5.167c1.863,3.2,4.326,11.762,15.337,17.906,8.607,4.807,20.2,6.249,28.646,2.749,10.275-4.281,14.24-10.756,17.2-18.026a12.828,12.828,0,0,0,6.519-2.914,9.734,9.734,0,0,0,3.545-9.629c-.976-3.47-5.2-6.009-8.442-4.356.255-4.942,1.667-12.618,1.5-17.56-.135-5.2-.541-10.605-3.185-15.022-2.779-4.747-7.721-7.826-12.768-10.019a41.219,41.219,0,0,0-18.567-3.831C383.592,155.086,377.208,157.565,373.783,161.906Z" transform="translate(131.276 -123.41)" fill="#cf8a74"/>
      <g id="Group_730" data-name="Group 730" transform="translate(492.2 31.344)" opacity="0.15">
        <path id="Path_10124" data-name="Path 10124" d="M399.326,178.75h0c-.21,1.833-.436,3.725-.646,5.513a7.406,7.406,0,0,0,.646-5.513Z" transform="translate(-336.19 -142.741)" fill="#79287a"/>
        <path id="Path_10125" data-name="Path 10125" d="M400.569,186.911a4.507,4.507,0,0,0-1.758.466c.075-1.5.255-3.185.466-4.987a14.9,14.9,0,0,0-1.818,6.279,31.709,31.709,0,0,1,3.11-1.758Z" transform="translate(-336.803 -140.914)" fill="#79287a"/>
        <path id="Path_10126" data-name="Path 10126" d="M381.821,179.221a2.066,2.066,0,0,1,2.824-.8,15.5,15.5,0,0,0,10.785-1.292,46.57,46.57,0,0,0,9.148-6.249,5.438,5.438,0,0,0,4.852,4.6c1.1.075,2.328-.15,3.185.541a3,3,0,0,1,.706,2.839,14.077,14.077,0,0,0-.571,3c.105,3.966,6.009,5.167,7.406,8.863a59.241,59.241,0,0,0,.436-7.06c-.135-5.2-.556-10.605-3.184-15.022-2.779-4.747-7.721-7.826-12.768-10.019a41.219,41.219,0,0,0-18.567-3.83c-6.369.345-12.753,2.824-16.178,7.165a16.854,16.854,0,0,0-8.622,8.352,41.248,41.248,0,0,0-4.191,14.18,41.069,41.069,0,0,0,9.373.976C372.162,185.3,377.99,183.412,381.821,179.221Z" transform="translate(-357.08 -154.779)" fill="#79287a"/>
      </g>
      <path id="Path_10127" data-name="Path 10127" d="M418.108,160.468a14.286,14.286,0,0,0-13.94-14.6,1.878,1.878,0,0,0-1.5.436c-.511.586-.165,1.5.346,2.088a6.476,6.476,0,0,1,1.5,1.773,45.937,45.937,0,0,0-20.174-1.712,32.627,32.627,0,0,0-18.026,8.8c-6.745,6.73-9.734,16.524-16.178,23.494-.345.376-.751.841-.661,1.367s.721.871,1.277,1.036a11.866,11.866,0,0,0,4.6.451c-.6,6.144-.706,15.022.526,18.492a6.114,6.114,0,0,1,6.234,3.455,90.635,90.635,0,0,0,1.172-11.912V187.1a7.977,7.977,0,0,0,6.94,1.142,19.363,19.363,0,0,0,6.414-3.38,70.9,70.9,0,0,0,11.116-9.989,2.719,2.719,0,0,0,.781,4,6.475,6.475,0,0,0,4.507.526c6.94-1.1,13.114-5.167,18.161-10.08a13.1,13.1,0,0,0-1.067,4.026,4.507,4.507,0,0,0,1.5,3.755,6.745,6.745,0,0,0,4.506.916c-1.5,1.7-1.082,4.506.165,6.429s3.109,3.44,4.371,5.378c3,4.506,2.133,11.341,1.307,17.275a4.777,4.777,0,0,1,5.122-1.607,140.328,140.328,0,0,0,6.144-22.532A36.519,36.519,0,0,0,434,172.049a14.8,14.8,0,0,0-4.687-9.629,11.657,11.657,0,0,0-11.206-1.953Z" transform="translate(131.295 -127.92)" fill="#3c524c"/>
      <path id="Path_10128" data-name="Path 10128" d="M398.382,216.975a292.663,292.663,0,0,0-43.067,17.38c-5.528,2.764-11.071,5.783-15.157,10.395s-6.429,10.515-8.592,16.268q-4.612,12.393-8.637,24.981a9.823,9.823,0,0,1-2.028,4.026c-1.5,1.5-3.83,1.848-5.8,2.734s-3.8,3.124-2.809,5.047c.406.781,1.217,1.322,1.5,2.163a4.882,4.882,0,0,1-.811,3.275c-2.043,4.642.165,9.944,2.358,14.526.36.781.871,1.667,1.728,1.772a2.644,2.644,0,0,0,1.772-.721,107.27,107.27,0,0,1,34.88-16.524,8.8,8.8,0,0,0,4.506-2.193,8.547,8.547,0,0,0,1.577-3.665c2.929-11.672,2.629,23.509,1.983,52.891a7.345,7.345,0,0,0,.9,4.582,7.09,7.09,0,0,0,2.809,2.028,114.164,114.164,0,0,0,97.746.526,10.11,10.11,0,0,0,4.146-3,10.364,10.364,0,0,0,1.352-4.987q2.914-30.344,4.041-60.853l5.408,12.288a8.912,8.912,0,0,0,1.758,2.929,9.1,9.1,0,0,0,5.183,1.953c5.468.856,11.4,1.622,16.223-1.067s7-10.41,2.584-13.73c2.328,0,4.852-2.9,4.431-4.4-1.066-3.831-2.614.21-3.891-3.425-1.953-5.513-11.642-36.2-19.453-44.013-9.388-9.388-35.661-19.408-55.73-24.846-.421,6.009-7.045,9.013-13.009,9.719C407.049,224.065,403.789,220.911,398.382,216.975Z" transform="translate(112.491 -94.043)" fill="#f29c94"/>
      <path id="Path_10129" data-name="Path 10129" d="M347.229,303.837q-.315-15.668-1.187-31.275c-.33-5.843-.616-11.687-1.007-17.515,0-.3-.481-.315-.466,0,1.022,20.67.976,41.369.541,62.054a155.092,155.092,0,0,0,.105,17.605c0,.586,1.007.841,1.112.15a102.155,102.155,0,0,0,.931-15.307C347.3,314.262,347.334,309.05,347.229,303.837Z" transform="translate(128.838 -73.2)" fill="#c7685f"/>
      <path id="Path_10130" data-name="Path 10130" d="M419.512,252.141c-.8,21.03-2.283,42.06-3.53,63.091-.36,6.009-1.006,11.942-.991,17.891,0,.706,1.157.916,1.277.18.841-5.182,1.082-10.515,1.5-15.713s.871-10.515,1.187-15.773c.616-10.605.961-21.21,1.322-31.816.21-6.009.436-12.017.616-17.921a.692.692,0,0,0-1.382.06Z" transform="translate(164.2 -74.906)" fill="#c7685f"/>
      <path id="Path_10131" data-name="Path 10131" d="M405.7,370.906c-.21.421-34.414,6.715-54.363,19.408-1.637,1.037-1.923,5.077-5.348,4.627-1.622-.21-3.65-4.507-3.68-5.423a16.824,16.824,0,0,1,5.828-12.513c5.062-4.747,13.234-6.85,15.307-10.831,3.395-6.519,7.691-9.013,11.912-10.17C378.332,355.194,410.553,361.1,405.7,370.906Z" transform="translate(127.703 -22.424)" fill="#cf8a74"/>
      <path id="Path_10132" data-name="Path 10132" d="M317.037,305.915c4.161-12.558,15.457-21.556,27.52-27.039s25.161-8.067,37.659-12.423c5.228-1.818,10.59-4.1,14.105-8.382,5.768-7.03,5.468-18.026,12.333-24.035a2.344,2.344,0,0,1,1.788-.766c1.217.18,1.5,1.773,1.5,3q-.225,13.7-.421,27.369c-.09,5.468-.346,11.431-3.921,15.562-1.5,1.788-7.631,8.547-9.479,10-6.88,5.438-37.809,35.841-53.747,38.636a36.879,36.879,0,0,1-14.9,0C312.816,323.941,315.64,310.166,317.037,305.915Z" transform="translate(114.461 -84.02)" fill="#cf8a74"/>
      <path id="Path_10133" data-name="Path 10133" d="M379.5,274.26q-.12-18.552.556-37.088c0-1.908.841-4.506,2.734-4.266a3.094,3.094,0,0,1,1.727.976c3.966,3.8,4.762,9.884,8.037,14.285a33.426,33.426,0,0,0,4.852,4.7c16.869,15.157,39.642,20.339,50.337,28.811a64.591,64.591,0,0,0,21.631,10.966c1.682.391,7.24,18.957-9.373,29.022-5.543,3.35-12.9,1.743-19.047-.285a66.094,66.094,0,0,1-16.974-9.238c-13.519-9.569-25.627-20.955-37.689-32.311C383.582,277.279,380.848,274.7,379.5,274.26Z" transform="translate(146.368 -84.211)" fill="#cf8a74"/>
      <path id="Path_10134" data-name="Path 10134" d="M384.872,317.964c-17.365-10.034-42.331-10.515-53.1-7.511-13.685,3.71-35.09,10.755-34.324,30.944,1.277,33.949,44.689,49.676,51.3,51.945,34.91,11.927,63.571,4.341,90.22,7.736,1.968.255,7.9-2.509,9.974-3a239.045,239.045,0,0,0,52.035-20.234c10.966-6.084,22.082-12.468,30.359-21.886s13.309-22.532,10-34.685c-4.416-16.178-23.344-25.537-39.822-22.532-14.331,2.674-34.775,13.414-48.58,20.67-5.5,2.884-18.837,5.182-29.172,5.182C407,324.559,388.417,320.037,384.872,317.964Z" transform="translate(105.165 -51.425)" fill="#946a66"/>
      <path id="Path_10135" data-name="Path 10135" d="M384.51,346.043c8.848,7,12.017,17.951,13.52,29.112a3.41,3.41,0,0,0,.391,1.4,3.184,3.184,0,0,0,1.382.991,97.971,97.971,0,0,1,23.824,16.524,2.629,2.629,0,0,0,1.592.916c.961,0,1.637-.946,1.953-1.863a17.74,17.74,0,0,0-1.667-14.135c-3.335-6.279-10.515-10.951-11.191-15.517-1.217-7.511-4.506-11.3-8.187-13.76C403.618,347.906,397.158,345.307,384.51,346.043Z" transform="translate(148.895 -27.454)" fill="#cf8a74"/>
      <path id="Path_10136" data-name="Path 10136" d="M400.082,213.476c-.826,1.082-1.277,2.373-2.118,3.455a12.769,12.769,0,0,1-2.629,2.539,15.712,15.712,0,0,1-7.105,2.839A22.292,22.292,0,0,1,371.3,217.2c-1.382-1.187-3.41.841-2.013,2.028,5.558,4.672,12.318,8.277,19.814,6.955a19.3,19.3,0,0,0,8.592-3.936c2.328-1.863,5.107-4.867,5.258-7.992C403.026,212.575,400.923,212.395,400.082,213.476Z" transform="translate(141.014 -94.299)" fill="#c7685f"/>
      <path id="Path_10137" data-name="Path 10137" d="M382.537,275.461a17.562,17.562,0,0,1-2.013-8.607c-.18-3.59-.36-7.18-.481-10.755a107.832,107.832,0,0,1,1.2-21.781c0-.285-.39-.421-.451-.12a112.65,112.65,0,0,0-1.878,22.818c0,3.815.165,7.631.3,11.446.105,2.674.18,6.009,2.809,7.511a.375.375,0,0,0,.511-.511Z" transform="translate(146.075 -83.64)" fill="#b8735c"/>
      <path id="Path_10138" data-name="Path 10138" d="M458.892,291.979a47.974,47.974,0,0,0-11.341-11.642,100.549,100.549,0,0,0-14.225-8.592c-11.191-5.723-23.028-10.35-33.453-17.485a52.343,52.343,0,0,1-8.427-6.549,29.667,29.667,0,0,1-5.273-8.667c-.135-.27-.616-.075-.5.2a39.06,39.06,0,0,0,4,7.751,25.043,25.043,0,0,0,6.009,5.513,125.632,125.632,0,0,0,16.268,10.425c10.725,5.558,22.1,9.959,32.161,16.734a68.436,68.436,0,0,1,14.421,12.633C458.7,292.445,459.027,292.19,458.892,291.979Z" transform="translate(149.471 -81.186)" fill="#b8735c"/>
      <path id="Path_10139" data-name="Path 10139" d="M391.55,252.074c-10.515,6.309-22.442,8.668-33.979,12.2-10.7,3.26-20.925,7.826-29.172,15.562a42.3,42.3,0,0,0-10.26,14.511c-.165.376.451.631.646.285a56.586,56.586,0,0,1,23-22.187C352,266.975,363.4,264.5,374.29,260.786a86.376,86.376,0,0,0,17.726-7.9C392.511,252.57,392.046,251.758,391.55,252.074Z" transform="translate(115.552 -74.613)" fill="#b8735c"/>
      <path id="Path_10140" data-name="Path 10140" d="M396.344,370.892q-.18-1.292-.451-2.569c-.36-1.773-.766-3.515-1.277-5.242-.991-3.395-2.163-6.745-3.425-10.049-.285-.736-1.5-.436-1.217.331a86.523,86.523,0,0,1,2.869,10.019c.376,1.7.751,3.395,1.112,5.092.165.856.33,1.7.511,2.554a6.578,6.578,0,0,0,.676,2.3.721.721,0,0,0,1.292-.165A5.512,5.512,0,0,0,396.344,370.892Z" transform="translate(151.617 -24.093)" fill="#633c39"/>
      <path id="Path_10141" data-name="Path 10141" d="M357.2,311.79a17.455,17.455,0,0,1,4.506,26.618,33.489,33.489,0,0,0-3.32,3.846,4.942,4.942,0,0,0-.571,4.837,6.925,6.925,0,0,0,3.109,2.584l16.524,8.878a2.6,2.6,0,0,0,1.382.451,2.839,2.839,0,0,0,1.5-.721c16.043-12.453,34.745-20.925,53.3-29.187a11.672,11.672,0,0,0,5.107-3.5c-7.616-1.772-15.427,2.854-23.223,2.118a2.914,2.914,0,0,1-2.569-1.307,3.2,3.2,0,0,1,.8-3,85.233,85.233,0,0,1,9.013-10.83c-7.03,2.388-15.352,4.777-22.773,5.107a134.2,134.2,0,0,1-29.562-1.983C367.129,315,360.535,313.608,357.2,311.79Z" transform="translate(135.181 -44.59)" fill="#79287a" opacity="0.18"/>
      <path id="Path_10142" data-name="Path 10142" d="M422.133,363.826a9.748,9.748,0,0,0-3.095-4.011,17.485,17.485,0,0,0-4.251-3.3,11.584,11.584,0,0,0-1.5-.676,1.247,1.247,0,0,0-.451-.21,186.271,186.271,0,0,1-34.43-12.363c-10.861-5.167-21.241-11.492-32.747-15.187a52.125,52.125,0,0,0-19.528-2.794.571.571,0,0,0,0,1.126c12.122.616,23.374,5.137,34.084,10.515s21.03,11.221,32.311,15.307a165.411,165.411,0,0,0,19.618,5.708,1.247,1.247,0,0,0,.751,0c1.082.556,2.148,1.142,3.185,1.757l.586.36,1.292.886a12.467,12.467,0,0,1,3.32,3.38.5.5,0,0,0,.856-.5Z" transform="translate(119.338 -37.846)" fill="#633c39"/>
      <path id="Path_10143" data-name="Path 10143" d="M457.244,314.4c-11.822,2.884-23.133,7.766-34.114,12.949s-22.037,11.206-32.777,17.335c-6.009,3.455-12.017,6.985-18.026,10.515a.676.676,0,0,0,.676,1.157c21.256-12.017,42.571-24.4,65.254-33.663,6.369-2.584,12.783-5.017,19.213-7.511a.436.436,0,0,0-.225-.781Z" transform="translate(142.646 -43.28)" fill="#633c39"/>
      <path id="Path_10144" data-name="Path 10144" d="M390.083,318.307a72.238,72.238,0,0,0-32.447-12.438,80.275,80.275,0,0,0-34.294,2.734,83.81,83.81,0,0,0-18.191,7.871.721.721,0,0,0,.721,1.232,79.1,79.1,0,0,1,66.245-6.76,105.147,105.147,0,0,1,17.47,8.172C390.143,319.464,390.579,318.668,390.083,318.307Z" transform="translate(108.907 -47.938)" fill="#633c39"/>
      <path id="Path_10145" data-name="Path 10145" d="M449.631,262.13c-2.494,2.148-6.009,2.328-9.343,2.4a73.83,73.83,0,0,1-12.017-.375,57.654,57.654,0,0,0,13.88,1.878,12.153,12.153,0,0,0,4.416-.556,4.927,4.927,0,0,0,3.064-3.35Z" transform="translate(170.869 -69.527)" fill="#79287a" opacity="0.15"/>
      <path id="Path_10146" data-name="Path 10146" d="M312.43,269.62c3,3.5,7.331,5.453,11.537,7.3l-3.936.781a18.023,18.023,0,0,1-5.783.511c-.871-.105-1.878-.541-1.938-1.412a3.006,3.006,0,0,1,.676-1.5A5.182,5.182,0,0,0,312.43,269.62Z" transform="translate(112.639 -65.766)" fill="#79287a" opacity="0.15"/>
      <path id="Path_10147" data-name="Path 10147" d="M847.007,362.134a182.869,182.869,0,0,0-20.49-.21,28.118,28.118,0,0,0-9.824,1.712,29.018,29.018,0,0,0-10,6.67c-6.609,7.706-9.193,11.882-8.5,13.039.856,1.5,3.891,1.157,6.009-.18a35.12,35.12,0,0,1,11.161-4.116,66.861,66.861,0,0,1,31.44.21C847.112,378.208,842.635,373.956,847.007,362.134Z" transform="translate(356.572 -19.511)" fill="#ab5c54"/>
      <path id="Path_10148" data-name="Path 10148" d="M837.91,176.151c-3.26-.225-5.783-3-7.21-5.934a17.378,17.378,0,0,1-1.712-10.034,13.038,13.038,0,0,1,5.122-8.667,17.738,17.738,0,0,1,6.8-2.674,21.572,21.572,0,0,1,10.936.21,14.811,14.811,0,0,1,7.12,23.238,7.978,7.978,0,0,1-3.59,2.794,10.982,10.982,0,0,1-3,.421C847.539,175.7,842.762,175.9,837.91,176.151Z" transform="translate(372.022 -126.719)" fill="#5c2c27"/>
      <path id="Path_10149" data-name="Path 10149" d="M812.919,268.42C807.947,281.7,796.981,299,788.434,310.691c-2.929,4.011-9.013,11.732-13.1,14.781-6.174,4.582-16.719,1.652-20.94,12.378-.481,1.2,1.5.6,2.824,1.352a12.016,12.016,0,0,0,4.507,1.187,165.972,165.972,0,0,0,18.927,1.307,61.709,61.709,0,0,0,18.221-1.968,43.293,43.293,0,0,0,18.612-11.762,73.258,73.258,0,0,0,12.017-17.68,127.63,127.63,0,0,0,6.159-14.135c1.382-3.77,2.554-7.976.8-11.612C834.069,279.686,816.028,269.8,812.919,268.42Z" transform="translate(334.599 -66.369)" fill="#ba6a61"/>
      <path id="Path_10150" data-name="Path 10150" d="M868.08,280.881q3.079,15.367,7.24,30.449a22.874,22.874,0,0,0,3.275,7.811,18.025,18.025,0,0,0,7.391,5.167,79.431,79.431,0,0,0,31.966,7.18,19.8,19.8,0,0,0,7.947-1.142,3.109,3.109,0,0,0,1.983-1.848c.391-1.352.721-7.06-1.833-9.013-12.979-9.764-22.067-11.311-23.9-14.18-3.876-6.009-5.783-27.294-9.013-34.309a2.691,2.691,0,0,0-.931-1.262,2.239,2.239,0,0,0-1.593-.09,44.344,44.344,0,0,0-22.533,11.236Z" transform="translate(391.724 -65.806)" fill="#ba6a61"/>
      <path id="Path_10151" data-name="Path 10151" d="M835.582,216.648a93.006,93.006,0,0,1-2.388,14.361,10.513,10.513,0,0,1-1.5,3.77c-1.337,1.863-3.62,2.734-5.693,3.725a2.748,2.748,0,0,0-1.247.961,2.688,2.688,0,0,0-.24,1.142,18.025,18.025,0,0,0,4.927,12.678,23.343,23.343,0,0,0,12.017,6.609,19.679,19.679,0,0,0,7.256.331,18.461,18.461,0,0,0,10.59-6.009,30.3,30.3,0,0,0,5.934-10.831,2.824,2.824,0,0,0,.15-1.848c-.436-1.036-1.818-1.142-2.9-1.5a6.415,6.415,0,0,1-3.861-4.326,18.531,18.531,0,0,1-.571-6.009l.135-12.017a1.637,1.637,0,0,0-.315-1.2c-.391-.406-1.052-.285-1.607-.15A47.663,47.663,0,0,1,835.582,216.648Z" transform="translate(369.844 -92.589)" fill="#ba6a61"/>
      <g id="Group_731" data-name="Group 731" transform="translate(1204.51 123.601)" opacity="0.17">
        <path id="Path_10152" data-name="Path 10152" d="M854.719,228.34l.12-10.665a1.639,1.639,0,0,0-.315-1.2c-.391-.406-1.052-.285-1.608-.15a47.663,47.663,0,0,1-20.73.331c-.21,2.433-.526,4.867-.916,7.285a40.244,40.244,0,0,0,15.863,4.882A28.54,28.54,0,0,0,854.719,228.34Z" transform="translate(-831.27 -216.195)" fill="#642c82"/>
      </g>
      <path id="Path_10153" data-name="Path 10153" d="M821.326,213.943c-7.2-5.573-11.927,1.006-11.191,5.783a11.522,11.522,0,0,0,4.131,7.676,16.1,16.1,0,0,0,8.457,2.854c7.135,10.395,19.183,17.5,31.771,17.71s25.281-6.925,30.809-18.236c5.213-.466,8.412-2.193,11.146-6.67,1.172-1.908,2.479-6.174.526-8.682a5.438,5.438,0,0,0-7.676-1.322c1.5-10.8,0-22.322-6.009-31.455s-16.644-15.472-27.535-14.721c-11.161.766-22.532,5.783-28.03,15.532a49.8,49.8,0,0,0-6.4,31.53Z" transform="translate(362.588 -117.388)" fill="#ba6a61"/>
      <g id="Group_732" data-name="Group 732" transform="translate(1181.271 49.418)" opacity="0.17">
        <path id="Path_10154" data-name="Path 10154" d="M820.967,218.169a9.328,9.328,0,0,1,3.77-5.693c1.758-1.217,3.891-1.8,5.6-3.094a8.457,8.457,0,0,0,3.335-5.8c.33-2.839-.691-6.084,1.051-8.337a8.924,8.924,0,0,1,4.506-2.449c6.159-2.013,12.453-5.483,14.932-11.461A6.428,6.428,0,0,0,857,186.5a13.91,13.91,0,0,0,5.678,2.163,5.724,5.724,0,0,1,3.891,1.742c1.112,1.607.15,3.755,0,5.708a7.316,7.316,0,0,0,3.245,6.009,11.417,11.417,0,0,0,6.775,1.893,5.122,5.122,0,0,1,3.5.676c1.112.946,1.006,2.644,1.217,4.086a7.842,7.842,0,0,0,4.236,5.8,9.606,9.606,0,0,1,.871-2.013c1.412-10.665-.24-21.977-6.114-30.975s-16.644-15.472-27.535-14.721c-11.161.766-22.533,5.783-28.03,15.532a49.8,49.8,0,0,0-6.354,31.545,12.015,12.015,0,0,0-2.584-1.5A17.5,17.5,0,0,1,820.967,218.169Z" transform="translate(-815.8 -166.811)" fill="#642c82"/>
      </g>
      <path id="Path_10155" data-name="Path 10155" d="M853.985,164.638c-33.543,1.052-37.794,30.314-38.455,35.842a83.34,83.34,0,0,0-.616,10.77,3,3,0,0,0,.361,1.712,3.544,3.544,0,0,0,1.232.961,10.919,10.919,0,0,1,4.071,4.236,7.691,7.691,0,0,1,2.809-6.009c1.667-1.577,3.665-2.809,5.227-4.506a12.692,12.692,0,0,0,3.32-7.616,15.027,15.027,0,0,1,.661-5.273,7.181,7.181,0,0,1,4.01-3.32c1.653-.676,3.41-1.052,5.017-1.788a12.257,12.257,0,0,0,6.654-8.007c.541-2.163.526-4.582,1.863-6.369.376-.511,1.021-.991,1.607-.721a1.638,1.638,0,0,1,.721,1.187c.706,2.9.916,6.129,2.884,8.4s5.528,3,8.713,3.079c2.343,0,5.183.105,6.4,2.118s.075,4.3-.165,6.489a8.683,8.683,0,0,0,6.714,9.118c2.178.436,6.174.09,6.009,2.3-.6,6.009,2.013,8.172,2.6,8.728a.586.586,0,0,0,.315.2c.21,0,.361-.2.466-.376,1.111-1.728,1.743-2.764,3.62-2.674a63.857,63.857,0,0,0-.12-23.584C888.024,178.1,876.067,163.933,853.985,164.638Z" transform="translate(365.02 -118.496)" fill="#7a3d36"/>
      <path id="Path_10156" data-name="Path 10156" d="M845.374,230.92c-25.987,8.337-46.912,28.826-57.082,54.168a3,3,0,0,0-.3,2.043,3.124,3.124,0,0,0,1.352,1.5,108.806,108.806,0,0,0,24.41,12.468,10.591,10.591,0,0,1,3.47,1.727c.886.751,6.144,12.273,6.234,13.519.511,7.6-1.727,14.316-1.727,33.678A4.161,4.161,0,0,0,824.3,354.7a75.648,75.648,0,0,0,71.217,1.367c.8-.406,2.884-32.311,6.009-39.056,4.672-9.974,3.74-18.777,4.506-23.509.556,4.191,1.1,8.367,1.652,12.558a2.249,2.249,0,0,0,3.515,2.178,212.228,212.228,0,0,0,28.766-11.867,4.506,4.506,0,0,0,1.743-1.247,4.8,4.8,0,0,0,.571-3.109c-.436-9.3-5.108-29.668-17.786-40-9.013-7.361-27.58-16.524-42.466-18.762-3.455,7.3-10.515,13.519-18.657,13.294S848.6,238.776,845.374,230.92Z" transform="translate(351.475 -85.2)" fill="#fed2b7"/>
      <path id="Path_10157" data-name="Path 10157" d="M842.773,317.252a88.432,88.432,0,0,0-59.32-2.043,52.353,52.353,0,0,0-19.363,10.425,29.187,29.187,0,0,0-10.02,19.152c-.526,7.285,2.433,14.526,6.985,20.249A59.108,59.108,0,0,0,778.03,378.69a117.168,117.168,0,0,0,33.047,12.948c17.08,3.815,44.434.916,56.962-.2,1.667-.135-4.657,9.389,1.052,15.713,32.9,0,58.043-3.44,82.393-14.421,19.017-8.562,38.771-19.783,47.093-38.906a33.377,33.377,0,0,0,3-16.524A31.185,31.185,0,0,0,990,316.846a49.81,49.81,0,0,0-21.8-9.779,73.831,73.831,0,0,0-44.464,4.852c-6.565,2.914-12.738,6.775-19.528,9.133a69.1,69.1,0,0,1-21.826,3.29A103.364,103.364,0,0,1,842.773,317.252Z" transform="translate(334.442 -47.694)" fill="#f58a94"/>
      <path id="Path_10158" data-name="Path 10158" d="M811.978,313.781a40,40,0,0,1,12.017,8.788c4.056,3.936,6.8,9.689,5.693,15.217A16.269,16.269,0,0,1,820.75,348.6a33.2,33.2,0,0,1-14.09,3c9.1,6.925,18.371,13.895,29.007,18.026s23,5.3,33.348.466c10.831-5.077,17.906-15.743,27.73-22.532,6.114-4.236,14.06-5.3,21.03-7.916-7.21-1.157-15.8-3.831-19.9-9.854a18.957,18.957,0,0,1-.255-20.174c-7.917,3.921-15.818,8.758-24.5,10.515C851.575,324.311,831.205,320.405,811.978,313.781Z" transform="translate(360.881 -45.68)" fill="#db7681" opacity="0.52"/>
      <path id="Path_10159" data-name="Path 10159" d="M824.115,349.451a74.166,74.166,0,0,1-3.335,24.666,23.163,23.163,0,0,0,11.266-.586,73.14,73.14,0,0,0,41.144-27.685c-6.67,2.509-14.24,3.845-20.805,1.127-2.433-1.007-4.612-2.539-7.045-3.5a8.773,8.773,0,0,0-7.511,0,27.455,27.455,0,0,0-4,3.83A10.11,10.11,0,0,1,824.115,349.451Z" transform="translate(367.972 -29.105)" fill="#ba6a61"/>
      <path id="Path_10160" data-name="Path 10160" d="M758.108,312.5a13.924,13.924,0,0,0-3.876,5.753,24.215,24.215,0,0,0,1.5,20.61c.511.9,1.5,1.878,2.388,1.5a2.028,2.028,0,0,0,1.036-1.788c.391-3.47-.631-6.489.165-10.26l2.388,7.9c.436,1.5,1.217,3.2,2.734,3.275a2.6,2.6,0,0,0,2.388-1.983,8.234,8.234,0,0,0,0-3.32,48.075,48.075,0,0,1-.21-7.346c0-.631.285-2.178.481-1.818,2.4,4.326,3.755,7.616,5.843,10.515a2.4,2.4,0,0,0,1.142.946,1.893,1.893,0,0,0,2.1-1.2,5.539,5.539,0,0,0,.21-2.629l-1.036-12.588a12.618,12.618,0,0,0,3.23,3.74,3.094,3.094,0,0,0,4.266-1.172c.24-.631-.676-4.071-.811-5.438-.3-3,0-4.056-.375-4.176C773.159,310.259,761.067,310.063,758.108,312.5Z" transform="translate(333.74 -45.087)" fill="#ba6a61"/>
      <path id="Path_10161" data-name="Path 10161" d="M918.1,306.806a13.957,13.957,0,0,1,4.777,5.032,24.186,24.186,0,0,1,1.923,20.58c-.361.961-1.1,2.088-2.1,1.893-.706-.135-1.127-.9-1.322-1.592-.961-3.35-.466-6.5-1.878-10.079-.345,2.734-.691,5.453-1.021,8.187-.2,1.5-.661,3.365-2.148,3.7a2.629,2.629,0,0,1-2.7-1.5,8.636,8.636,0,0,1-.616-3.275,47.32,47.32,0,0,0-1.021-7.27c-.135-.616-.646-2.1-.781-1.712-1.638,4.672-2.419,8.142-4.011,11.3a2.448,2.448,0,0,1-.946,1.112,1.908,1.908,0,0,1-2.284-.826,5.5,5.5,0,0,1-.646-2.554c-.376-4.191-1.112-12.588-1.112-12.588a12.569,12.569,0,0,1-2.539,4.221,3.094,3.094,0,0,1-4.416-.421,4.293,4.293,0,0,1-.421-1.938c-.09-1.622,1.247-5.032,1.5-6.73,1.322-6.85-1.878-8.2-1.036-8.728C903.033,298.709,914.78,304.913,918.1,306.806Z" transform="translate(405.155 -49.625)" fill="#ba6a61"/>
      <path id="Path_10162" data-name="Path 10162" d="M918.662,307.612a24.468,24.468,0,0,0-6.009-4.1,24.891,24.891,0,0,0-15.4-1.728c-.511.09-.285.871.225.781a22.637,22.637,0,0,1,14.766,2.358,23.147,23.147,0,0,1,5.273,3.846c1.592,1.5,2.884,3.395,4.506,4.957a.375.375,0,0,0,.616-.361A13.232,13.232,0,0,0,918.662,307.612Z" transform="translate(406.23 -49.876)" fill="#a1554d"/>
      <path id="Path_10163" data-name="Path 10163" d="M779.766,308.581c-9.1-2.509-20.294.646-25.387,8.893-.24.391.345.721.586.36a19.8,19.8,0,0,1,10.275-7.511c4.747-1.607,9.539-1.277,14.436-1.1a.345.345,0,0,0,.09-.646Z" transform="translate(334.599 -46.623)" fill="#a1554d"/>
      <path id="Path_10164" data-name="Path 10164" d="M910.794,329.31c-11.867.466-23.088,5.423-32.657,12.483-10.515,7.781-18.446,18.657-28.616,26.934a54.207,54.207,0,0,1-8.728,5.888c-3,1.607-6.234,2.6-9.313,4.011-.451.21-.21.931.24.916a20.1,20.1,0,0,0,8.217-2.283,48.888,48.888,0,0,0,7.841-4.6,102.61,102.61,0,0,0,14.285-12.753c8.878-9.133,17.755-18.191,29.172-23.884a49.36,49.36,0,0,1,19.528-5.333C911.651,330.662,911.666,329.28,910.794,329.31Z" transform="translate(373.224 -35.793)" fill="#e86875"/>
      <path id="Path_10165" data-name="Path 10165" d="M847.2,356.408c-4.627-2.464-9.253-4.807-13.715-7.511s-8.713-5.573-13.114-8.292c-8.637-5.348-17.861-10.26-27.94-12.213a46.564,46.564,0,0,0-16.524-.421c-.961.15-.556,1.637.406,1.5,10.064-1.622,20.174,1.067,29.322,5.2s17.59,9.854,26.183,15.112a99.469,99.469,0,0,0,14.857,8.082C847.406,358.075,847.932,356.828,847.2,356.408Z" transform="translate(345.161 -36.737)" fill="#e86875"/>
      <path id="Path_10166" data-name="Path 10166" d="M832.1,377.864a22.394,22.394,0,0,1-.856-3.17,21.13,21.13,0,0,1-.165-3.38,30.033,30.033,0,0,1,.526-6.775.8.8,0,0,0-1.5-.405,21.972,21.972,0,0,0-1.292,7.3,14.917,14.917,0,0,0,2.043,6.97C831.3,379.035,832.4,378.66,832.1,377.864Z" transform="translate(372.004 -18.521)" fill="#e86875"/>
      <path id="Path_10167" data-name="Path 10167" d="M869.206,272.528a151.427,151.427,0,0,0-6.429-18.386c-.3-.736-1.5-.436-1.217.33,3.785,10.59,7.511,21.616,6.489,33.048a36.959,36.959,0,0,1-1.682,8.157c-.886,2.659-2.223,5.137-3.124,7.8a35.394,35.394,0,0,0-1.5,8.232c-.285,3-.541,6.009-.781,8.893-.27,3.35-.541,6.7-.751,10.049a57.374,57.374,0,0,0-.15,10.515c.105.781,1.247,1.1,1.5.2a53.377,53.377,0,0,0,1.142-8.893c.255-3,.511-6.1.8-9.133s.571-6.249.886-9.358a42.823,42.823,0,0,1,1.4-8.728c.856-2.674,2.208-5.152,3.17-7.781a32.561,32.561,0,0,0,1.788-8.1,49.893,49.893,0,0,0-1.532-16.839Z" transform="translate(387.609 -73.751)" fill="#ffc099"/>
      <path id="Path_10168" data-name="Path 10168" d="M824.711,250.839c-3.335,5.378-6.5,10.831-9.388,16.524a104.758,104.758,0,0,0-7.436,17.365,15.234,15.234,0,0,0-.33,9.013,68.565,68.565,0,0,0,3.831,7.646c2.523,5.363,2.178,11.762,1.5,17.5-.811,7.27-2.629,14.556-1.592,21.9.18,1.307,2.388,1.007,2.3-.3-.886-12.243,4.882-24.26,1.607-36.4a34.992,34.992,0,0,0-3.605-7.841,12.183,12.183,0,0,1-1.788-8.307,45.094,45.094,0,0,1,3-9.013c1.127-2.839,2.3-5.648,3.5-8.457a180.565,180.565,0,0,1,9.283-19,.556.556,0,0,0-.886-.631Z" transform="translate(361.066 -75.271)" fill="#ffc099"/>
    </g>
  </g>
</svg>
