<svg xmlns="http://www.w3.org/2000/svg" width="423.152" height="357.987" viewBox="0 0 423.152 357.987">
  <g id="Mindfulness-01" transform="translate(-22.21 -71.366)">
    <g id="OBJECT" transform="translate(22.71 71.366)">
      <g id="Group_1745" data-name="Group 1745" transform="translate(0 15.696)">
        <path id="Path_49336" data-name="Path 49336" d="M399.854,318.8c-9.9-4.473-11.411-15.227-15.5-20.825s-13.99-9.048-13.99-9.048,9.47-7.314,24.538-5.626c7.088.806,12.4,3.994,16.755,7.454-2.241-6.479,0-10.22-3.835-16.38-4.529-7.21-13.352-11.092-18.3-23.056a30.53,30.53,0,0,1,0-22.7s1.51,4.313,7.5,8.617c5.382,3.844,20.572,4.435,29.573,16.043-4.688-65.513-50.2-101.321-81.715-120.017-27.07-16.043-44.556-49.516-117.692-44.678s-89.422,51.776-107.547,87.294c-10.033,19.69-32.714,24.013-51.842,37.505,14.158-3.7,23.141,3.132,33.811,5.279,12.78,2.588,14.787-6.423,26.254-6.367s15.79,4.172,15.79,4.172-11.477-1.725-15.208,8.036-8.326,13.418-19.8,11.87-14.805-.7-20.891,4.763-20.15,1.444-28.195,3.46c-4.754,1.191-11.252,9.639-15.715,16.324a68.24,68.24,0,0,1,15.274-9.161c18.65-8.326,42.484,6.9,42.484,6.9s-18.753,4.3-29.695,11.767-18.659.291-26.123,2.869a89.084,89.084,0,0,0-8.8,3.582s0,.056,0,.084c-1.5,23.206,7.276,43.816,22.175,61.471,36.474,43.234,109.7,68.851,158.957,71.917,51.57,3.188,142-15.94,184.958-73.014A121.46,121.46,0,0,0,413.3,321.29C408.958,321.262,404.017,320.7,399.854,318.8Z" transform="translate(-23.59 -88.105)" fill="#a8b2f4"/>
        <circle id="Ellipse_138" data-name="Ellipse 138" cx="27.06" cy="27.06" r="27.06" transform="translate(127.497 81.604) rotate(-22.9)" fill="#7c84d5"/>
        <circle id="Ellipse_139" data-name="Ellipse 139" cx="9.826" cy="9.826" r="9.826" transform="translate(339.602 59.104)" fill="#7c84d5"/>
        <path id="Path_49337" data-name="Path 49337" d="M404.515,350.214c-42.953,57.055-133.416,76.2-184.958,73.014C170.275,420.162,97.074,394.546,60.6,351.311c13.886-15.4,49.4-46.591,114.954-55.32,88.138-11.8,149.534,58.133,216.125,54.477C396.161,350.177,400.4,350.12,404.515,350.214Z" transform="translate(-25.073 -100.986)" fill="#7c84d5"/>
        <path id="Path_49338" data-name="Path 49338" d="M120.116,159.051c8.186-24.538-11.186-13.2-18.509,2.438s-21.1,17.365-21.1,26.188S111.911,183.542,120.116,159.051Z" transform="translate(-26.315 -91.64)" fill="none" stroke="#7c84d5" stroke-width="1"/>
        <path id="Path_49339" data-name="Path 49339" d="M359.556,124.784s-22.822-19.362-32.076-25.607-5.166-14.636,16.034-4.951,30.22,28.392,27.416,32.33S359.556,124.784,359.556,124.784Z" transform="translate(-41.426 -88.212)" fill="none" stroke="#7c84d5" stroke-width="1"/>
        <path id="Path_49340" data-name="Path 49340" d="M135.944,188.813a1.472,1.472,0,1,1-1.463-1.463A1.472,1.472,0,0,1,135.944,188.813Z" transform="translate(-29.588 -94.295)" fill="#5661af"/>
        <path id="Path_49341" data-name="Path 49341" d="M149.114,191.782a1.472,1.472,0,1,1-1.472-1.472A1.472,1.472,0,0,1,149.114,191.782Z" transform="translate(-30.41 -94.479)" fill="#5661af"/>
        <path id="Path_49342" data-name="Path 49342" d="M193.094,144.9a1.463,1.463,0,1,1-.425-1.04,1.472,1.472,0,0,1,.425,1.04Z" transform="translate(-33.152 -91.556)" fill="#5661af"/>
        <path id="Path_49343" data-name="Path 49343" d="M398.324,283.972A1.472,1.472,0,1,1,396.9,282.5,1.472,1.472,0,0,1,398.324,283.972Z" transform="translate(-45.952 -100.229)" fill="#5661af"/>
        <path id="Path_49344" data-name="Path 49344" d="M403.654,279.722a1.472,1.472,0,1,1-1.463-1.472,1.472,1.472,0,0,1,1.463,1.472Z" transform="translate(-46.284 -99.964)" fill="#5661af"/>
        <circle id="Ellipse_140" data-name="Ellipse 140" cx="2.372" cy="2.372" r="2.372" transform="translate(111.016 87.383)" fill="#5661af"/>
        <circle id="Ellipse_141" data-name="Ellipse 141" cx="2.372" cy="2.372" r="2.372" transform="translate(360.783 103.426)" fill="#5661af"/>
        <path id="Path_49345" data-name="Path 49345" d="M140.712,276.666a3.066,3.066,0,1,1-3.066-3.066A3.066,3.066,0,0,1,140.712,276.666Z" transform="translate(-29.687 -99.674)" fill="none" stroke="#fff" stroke-width="1"/>
        <path id="Path_49346" data-name="Path 49346" d="M325.642,137.136a3.057,3.057,0,1,1-.9-2.171A3.066,3.066,0,0,1,325.642,137.136Z" transform="translate(-41.22 -90.972)" fill="none" stroke="#fff" stroke-width="1"/>
        <circle id="Ellipse_142" data-name="Ellipse 142" cx="9.78" cy="9.78" r="9.78" transform="matrix(0.93, -0.367, 0.367, 0.93, 118.151, 30.837)" fill="none" stroke="#fff" stroke-width="1"/>
        <circle id="Ellipse_143" data-name="Ellipse 143" cx="20.047" cy="20.047" r="20.047" transform="translate(369.734 109.698) rotate(-22.19)" fill="none" stroke="#fff" stroke-width="1"/>
        <circle id="Ellipse_144" data-name="Ellipse 144" cx="20.047" cy="20.047" r="20.047" transform="translate(0 198.136)" fill="none" stroke="#fff" stroke-width="1"/>
      </g>
      <g id="Group_1746" data-name="Group 1746" transform="translate(46.977)">
        <path id="Path_49347" data-name="Path 49347" d="M205.855,103.27s-4.229,2.194-4.426,11.439,8.664,13.53,14.243,13.436l-.488-1.444s-9.517-1.05-11.983-9.123a14.139,14.139,0,0,1,2.916-13.549Z" transform="translate(-80.833 -73.355)" fill="#3d2624"/>
        <path id="Path_49348" data-name="Path 49348" d="M364.883,275.35s-1.931,14.618-27.566,20.2-52.076-9.039-52.076-9.039l4.313-.422s15,8.664,32.892,7.595a44.473,44.473,0,0,0,28.129-11.955Z" transform="translate(-86.06 -84.087)" fill="#3d2624"/>
        <path id="Path_49349" data-name="Path 49349" d="M364.839,194.813c1.594-18.068-23.385-36.671-53.145-41.462S284.08,116.83,284.08,116.83l-59.455,34.2s-2.738,28.363-22.559,44.313-23.225,53.67-13.924,68.55,25.766,15.94,51.411,14.346,37.505-.263,66.028,2.128,48.832,8.87,66.141-22.719S364.839,194.813,364.839,194.813Zm-2.391-1.463s-3.057-8.9-14.749-18.068a167.04,167.04,0,0,0-20.994-14.224c36.408,11.43,36.8,32.283,36.8,32.283Z" transform="translate(-79.696 -74.201)" fill="#3d2624"/>
        <path id="Path_49350" data-name="Path 49350" d="M203.335,182.8s-8.439,7.595-14.4,23.535-18.6,65.372-18.6,65.372l20.4,12.724,19.69-53.914Z" transform="translate(-78.894 -78.315)" fill="#c56e5d"/>
        <path id="Path_49351" data-name="Path 49351" d="M286.258,258.457a35.555,35.555,0,0,0,2.138,27.829l1.1,4.688h0l3,12.93c-20.553,17.815-49.095,23.863-66.656,19.981s-22.044-18.246-22.044-18.246l2.719-19-4.688-42.269s-3.638-5.551-5.185-18.34,8.289-44.266,8.289-44.266l31.983-12.789L260.267,167l38.9,14.815,5.026,12.6c-.178,6.976-5.307,24.9-10.67,41.856C290.993,244.317,288.4,252.137,286.258,258.457Z" transform="translate(-80.524 -77.33)" fill="#f7dbc6"/>
        <path id="Path_49352" data-name="Path 49352" d="M263.114,167.433c-3.657,6.657-16.7,15-21.969,13.183s-1-11.252-1-11.252c.047-1.341.1-2.569.141-3.7.234-7.5.188-10.689.188-10.689l22.644-15a56,56,0,0,0-.881,9,138.071,138.071,0,0,0,.881,18.462Z" transform="translate(-83.146 -75.644)" fill="#c56e5d"/>
        <path id="Path_49353" data-name="Path 49353" d="M263.231,140a56,56,0,0,0-.881,9c-2.6,3.9-6.92,9.733-11.42,12.93s-8.439,3.807-10.53,3.751c.234-7.5.188-10.689.188-10.689Z" transform="translate(-83.264 -75.646)" fill="#af5448"/>
        <path id="Path_49354" data-name="Path 49354" d="M214.36,129.273s.788,18.537,13.839,26.891,31.317-9.133,34.458-18.8,2.082-30.539,2.082-30.539S247.515,95.34,234.463,95.34s-20.1,6.563-20.1,6.563Z" transform="translate(-81.64 -72.861)" fill="#c56e5d"/>
        <path id="Path_49355" data-name="Path 49355" d="M228.557,94.306s-.394,6.817,12.189,14.777,19.325,9.592,19.325,9.592l2.654,14.636s-1.828,4.594-2.335,6.263c-.563,1.819-.338,7.614-.338,7.614s10.53-1.566,14.233-11.374a31.083,31.083,0,0,0,11.252-22.71c.394-14.618-7.173-19.184-7.173-19.184s-1.95-17.487-21.275-20.5S222.4,81.264,222.4,81.264s-9.376-1.3-14.486,5.345-1.828,14.749-1.828,14.749-4.444,4.313-1.875,11.364a12.574,12.574,0,0,0,9.526,7.961s.656-12.011,4.172-18.012S228.557,94.306,228.557,94.306Z" transform="translate(-80.957 -71.461)" fill="#3d2624"/>
        <path id="Path_49356" data-name="Path 49356" d="M264.75,123.546s2.485-6.142,7.576-6.788,5.476,8.354,1.95,14.355-8.439,4.829-8.439,4.829Z" transform="translate(-84.782 -74.194)" fill="#c56e5d"/>
        <path id="Path_49357" data-name="Path 49357" d="M262.11,116.74s3.394,10.22,1.435,18.312a11.4,11.4,0,0,0,1.266-1.594c1.641-2.391,2.325-11.458,3.057-14.571Z" transform="translate(-84.618 -74.195)" fill="#3d2624"/>
        <path id="Path_49358" data-name="Path 49358" d="M223.133,82.1a24.838,24.838,0,0,1,27.191-8.7l1.3-.084a24.219,24.219,0,0,0-16.1-1.031,35.474,35.474,0,0,0-14.449,9.292Z" transform="translate(-82.059 -71.366)" fill="#3d2624"/>
        <path id="Path_49359" data-name="Path 49359" d="M283.27,95.34a11.486,11.486,0,0,1,7.192,5.738c2.682,4.876-.084,9.826-.084,9.826l-.45-.6a9.611,9.611,0,0,0-.525-8.786c-2.682-4.594-6.132-4.351-6.132-4.351Z" transform="translate(-85.937 -72.861)" fill="#3d2624"/>
        <path id="Path_49360" data-name="Path 49360" d="M216.1,120.386s.544-1.238,4.4-1.163a9.873,9.873,0,0,1,6.179,2.241,7.65,7.65,0,0,0-5.288-3.751A4.829,4.829,0,0,0,216.1,120.386Z" transform="translate(-81.748 -74.25)" fill="#3d2624"/>
        <path id="Path_49361" data-name="Path 49361" d="M230.137,95.73a19.681,19.681,0,0,0,3.31,12.077c3.919,5.391,15.48,5.391,15.48,5.391l.469,1.041s-11.43.094-16.043-3.994S228.225,99.312,229.1,95.73Z" transform="translate(-82.537 -72.885)" fill="#3d2624"/>
        <path id="Path_49362" data-name="Path 49362" d="M238.51,120.786s.628-1.425,5.082-1.331a11.4,11.4,0,0,1,7.135,2.578s-2.053-3.835-6.1-4.369A5.626,5.626,0,0,0,238.51,120.786Z" transform="translate(-83.146 -74.247)" fill="#3d2624"/>
        <path id="Path_49363" data-name="Path 49363" d="M227.38,139.729a7.435,7.435,0,0,0,2.813,1.238,6.113,6.113,0,0,0,3.751,0,3.319,3.319,0,0,0-2.391-1.5A14.618,14.618,0,0,0,227.38,139.729Z" transform="translate(-82.452 -75.61)" fill="#913d37"/>
        <path id="Path_49364" data-name="Path 49364" d="M227.38,121.72s1.238,1.3,1.7,4.688a22.577,22.577,0,0,1,0,6.067S227.521,123.614,227.38,121.72Z" transform="translate(-82.452 -74.506)" fill="#af5448"/>
        <path id="Path_49365" data-name="Path 49365" d="M216.62,125.546a16.409,16.409,0,0,0,4.276,1.069,17.815,17.815,0,0,0,5.316-.488s-1.088-2.935-3.619-3.619C218.608,121.43,216.62,125.546,216.62,125.546Z" transform="translate(-81.781 -74.544)" fill="#af5448"/>
        <path id="Path_49366" data-name="Path 49366" d="M238.51,126.021s.394-3.01,4.247-3.676,8.439,3.385,8.439,3.385S243.6,129.349,238.51,126.021Z" transform="translate(-83.146 -74.54)" fill="#af5448"/>
        <path id="Path_49367" data-name="Path 49367" d="M221.423,126.8a14.936,14.936,0,0,1-4.9-1.041l-.488.319a3.17,3.17,0,0,1-1.031.309,3.554,3.554,0,0,0,1.875.225,9.3,9.3,0,0,0,4.482,1.228,8.654,8.654,0,0,0,4.791-1.06v-.441a20.852,20.852,0,0,1-4.726.459Z" transform="translate(-81.68 -74.758)" fill="#3d2624"/>
        <path id="Path_49368" data-name="Path 49368" d="M251.045,126a27,27,0,0,1-6.3,1.031,20.928,20.928,0,0,1-6.179-.853l-.6.375a4.435,4.435,0,0,1-1.275.375,5.363,5.363,0,0,0,2.316.15,13.361,13.361,0,0,0,5.626,1.069c4-.122,5.232-1.069,6.1-1.641A1.625,1.625,0,0,0,251.045,126Z" transform="translate(-83.032 -74.773)" fill="#3d2624"/>
        <path id="Path_49369" data-name="Path 49369" d="M227.32,146a19.4,19.4,0,0,0,3.3.825c2.635.525,8.908-.825,8.908-.825a48.353,48.353,0,0,0-6.1-.7,5.11,5.11,0,0,0-2.475.825,5.157,5.157,0,0,0-2.175-1.078,10.989,10.989,0,0,0-2.353.478Z" transform="translate(-82.392 -75.96)" fill="#913d37"/>
        <path id="Path_49370" data-name="Path 49370" d="M228.39,149a9.114,9.114,0,0,0,4.407,1.313,16.278,16.278,0,0,0,5.438-1,7.1,7.1,0,0,1-4.923,2.6C229.965,152.291,228.39,149,228.39,149Z" transform="translate(-82.515 -76.207)" fill="#af5448"/>
        <path id="Path_49371" data-name="Path 49371" d="M194.22,325.44l11.252-24.05s7.5,7.867,30.295,8.664,53.6-10.773,53.6-10.773,7.885,20.347,7.885,27.913S252.25,364.7,252.25,364.7l-26.7-1.988Z" transform="translate(-80.384 -85.579)" fill="#743f3d"/>
        <path id="Path_49372" data-name="Path 49372" d="M189.827,369s-7.379,2.869-9.9,4.051c0,0-11.027,1.125-15.452,2.429s-5.541,7.239-6.629,13.652-9.376,15-11.9,19.456-1.341,9.761-.985,10.858-1.106,4.838.731,7.154,2.907,1.125,3.929.544,1.341-2.607,1.341-2.607a12.769,12.769,0,0,0,3.919-1.388c1.06-.825,0-.835,2.607-1.688a17.009,17.009,0,0,0,5.457-2.607c1.472-1.078,9.78-15.5,15.077-20.122s14.833-6.226,14.833-6.226Z" transform="translate(-77.275 -89.928)" fill="#c56e5d"/>
        <path id="Path_49373" data-name="Path 49373" d="M335.573,391.762c-18,4.538-57.074,7.726-92.1,9.8-36.08,2.138-67.857,3.094-67.857,3.094l-5.354-16.971-4.688-15.049,104.884-20.8s-2.86-21.716,19.99-33.417c0,0,68.025.544,84.5,19.69S373.566,382.2,335.573,391.762Z" transform="translate(-78.597 -86.773)" fill="#743f3d"/>
        <path id="Path_49374" data-name="Path 49374" d="M237.481,390.28s7.37,2.869,9.9,4.051c0,0,11.027,1.125,15.443,2.428s5.551,7.239,6.629,13.643,9.376,15,11.9,19.465,1.341,9.751.938,10.848,1.106,4.838-.722,7.154-2.907,1.125-3.938.553-1.341-2.616-1.341-2.616a12.827,12.827,0,0,1-3.816-1.406c-1.069-.825,0-.844-2.607-1.688a17.1,17.1,0,0,1-5.457-2.607c-1.472-1.078-9.789-15.508-15.077-20.122s-14.843-6.235-14.843-6.235Z" transform="translate(-82.895 -91.255)" fill="#c56e5d"/>
        <path id="Path_49375" data-name="Path 49375" d="M192.937,322.68s-89.675,0-104.031,15.94-6.376,36.268,5.185,43.047,132.722,33.877,132.722,33.877l6.376-37.065L215.319,372.9l9.564-12.817Z" transform="translate(-73.334 -87.039)" fill="#743f3d"/>
        <path id="Path_49376" data-name="Path 49376" d="M200.09,326.36s18.706,23.169,28.879,30.051C228.969,356.411,208.06,354.264,200.09,326.36Z" transform="translate(-80.75 -87.268)" fill="#5e3030"/>
        <path id="Path_49377" data-name="Path 49377" d="M123,347.608s15.546,1.988,39.859,7.173,55.067,19.531,55.067,19.531-31.551-21.566-56.258-26.7S123,347.608,123,347.608Z" transform="translate(-75.942 -88.451)" fill="#5e3030"/>
        <path id="Path_49378" data-name="Path 49378" d="M215.49,368.9S287.8,347.331,318.1,342.39c0,0-64.05,19.25-94.4,31.739Z" transform="translate(-81.71 -88.268)" fill="#5e3030"/>
        <path id="Path_49379" data-name="Path 49379" d="M286.722,324.33s-35.049,17.309-46.882,34.843C239.868,359.173,276.82,340.232,286.722,324.33Z" transform="translate(-83.229 -87.142)" fill="#5e3030"/>
        <path id="Path_49380" data-name="Path 49380" d="M184.651,290.218S178.7,275.731,164.736,275.6l-55.442,37.609a21.313,21.313,0,0,0-5.832-1.875c-5-.938-14.871-.806-17.421-1.275-1.238-.225-1.3.394-.778,1.21-.816-.338-2.11.563-3.113,2.044-1.566,2.325-5.513,6.648-5.513,9.076s4.294,4.857,6.845,4.979c0,0-8.711,2.2-10.314,5.335s2.672,2.672,4.06,1.978,10.314-3.132,10.314-3.132-8.833,4.876-9.058,8.242,2.813,1.4,5.57,0,7.782-3.947,7.782-3.947-7.2,5.223-5.926,7.548,7.2-2.982,11.964-5.148,8.364-2.485,12.377-4.051a19.287,19.287,0,0,0,8.589-6.892C128.759,323.626,171.206,307.123,184.651,290.218ZM91.263,321.8c-3.947,1.4-8.439,0-9.058-.694s3.835-4.763,3.835-7.895a3.573,3.573,0,0,0-.169-1.172,8.231,8.231,0,0,0,2.475,1.753c2.457,1.041,7.792,1.613,9.189,2.428S95.21,320.41,91.263,321.8Z" transform="translate(-72.812 -84.103)" fill="#c56e5d"/>
        <path id="Path_49381" data-name="Path 49381" d="M385.837,240.35s5.044,15.424,1.594,26.91-16.671,14.065-16.671,14.065l2.119-2.663s13.024-2.194,13.755-20.056C387.281,242.75,385.837,240.35,385.837,240.35Z" transform="translate(-91.393 -81.904)" fill="#3d2624"/>
        <path id="Path_49382" data-name="Path 49382" d="M100,318.73a21.3,21.3,0,0,0,9.273,2.485c4.876,0-1,2.194-4.688,1.1S100,318.73,100,318.73Z" transform="translate(-74.508 -86.792)" fill="#af5448"/>
        <path id="Path_49383" data-name="Path 49383" d="M115.39,328a18.339,18.339,0,0,0-7.173,2.288c-4.191,2.194-6.376,7.773-7.5,6.873S102.638,327.681,115.39,328Z" transform="translate(-74.539 -87.37)" fill="#af5448"/>
        <path id="Path_49384" data-name="Path 49384" d="M85.58,330.66s9.161,7.407,10.258,7.5S92.059,331.054,85.58,330.66Z" transform="translate(-73.608 -87.536)" fill="#af5448"/>
        <path id="Path_49385" data-name="Path 49385" d="M205.74,245.732s4.519-2.372,18.3-2.372,36.7,5.382,36.7,5.382S218.445,248.958,205.74,245.732Z" transform="translate(-81.102 -82.092)" fill="#efc9b6"/>
        <path id="Path_49386" data-name="Path 49386" d="M293.294,289.645l1.1,4.688h0l-19.531,6.1s9.939-24,9.751-42.381,5.8-41.256,5.8-41.256l8.017,22.831c-2.541,8.045-5.138,15.865-7.276,22.184a35.63,35.63,0,0,0,2.138,27.829Z" transform="translate(-85.413 -80.436)" fill="#efc9b6"/>
        <path id="Path_49387" data-name="Path 49387" d="M395.174,344.561c-1.013-3.385-9.161-7.173-9.161-7.173,2.532.356,7.2-1.238,7.651-3.619s-2.616-7.37-3.751-9.939c-.713-1.641-1.819-2.813-2.672-2.6.666-.694.713-1.313-.544-1.322-2.6,0-12.274-1.969-17.346-1.988a22.876,22.876,0,0,0-4.791.431l-37.14-52.226c-2.053-12.771-4.894-45.072-8.242-59.39C314.8,187.985,305.03,182.8,305.03,182.8s-12.1,7.2-14.121,21.144,15.762,76.37,15.762,76.37c6.31,17.749,39.559,46.132,44.191,51.429h0a23.957,23.957,0,0,0,7.548,7.37c3.657,2.278,7.135,3.263,11.411,6.282s9.1,9.376,10.792,7.285-4.416-8.523-4.416-8.523,4.435,3.441,6.91,5.326,5.082,4.4,5.476,1.041-7.36-9.789-7.36-9.789,8.336,4.06,9.573,5.007S396.187,347.936,395.174,344.561ZM379.4,330.5c-3.619-2.1-6.648-6.1-5.119-6.648s6.873-.113,9.47-.684a7.782,7.782,0,0,0,2.757-1.256,3.958,3.958,0,0,0-.375,1.116c-.581,3.085,3,7.9,2.3,8.439s-5.41,1.106-9.029-1Z" transform="translate(-86.404 -78.315)" fill="#c56e5d"/>
        <path id="Path_49388" data-name="Path 49388" d="M377.84,333.73a21.18,21.18,0,0,1-9.264,2.494c-4.885,0,.994,2.185,4.632,1.088A7.059,7.059,0,0,0,377.84,333.73Z" transform="translate(-91.141 -87.728)" fill="#af5448"/>
        <path id="Path_49389" data-name="Path 49389" d="M358.8,340.719a18.481,18.481,0,0,1,7.173,2.3c4.182,2.185,6.376,7.764,7.5,6.873S371.552,340.419,358.8,340.719Z" transform="translate(-90.648 -88.163)" fill="#af5448"/>
        <path id="Path_49390" data-name="Path 49390" d="M387.707,346.13s-9.161,7.407-10.258,7.5S381.228,346.524,387.707,346.13Z" transform="translate(-91.801 -88.501)" fill="#af5448"/>
        <path id="Path_49391" data-name="Path 49391" d="M235.962,175.273s-4.351,8.289,2.56,10.548S257.274,180.2,263.3,174.41c0,0-7.97,12.808-20.881,14.852S232.5,178.095,235.962,175.273Z" transform="translate(-82.801 -77.792)" fill="#efc9b6"/>
      </g>
    </g>
  </g>
</svg>
