<svg xmlns="http://www.w3.org/2000/svg" width="593.505" height="499.401" viewBox="0 0 593.505 499.401">
  <g id="Training-illustrations" transform="translate(-0.001 -0.004)">
    <path id="Path_9370" data-name="Path 9370" d="M821.544,630.546H788.217L807.5,519.1h-6.748l-3.282,18.959h-.029l-15.936,92.1H428.774l-15.945-92.167-3.335-19.281h-6.7l3.335,19.281,15.95,92.167H397.064a225.837,225.837,0,0,1-27.266-27.4L381,538l3.335-19.281h-6.709L374.282,538,364.262,595.9c-32.071-41.176-50.879-93.088-54.56-145.214-2.707-38.23,2.162-77.658,19.344-112.105s47.632-63.441,85.034-74.338A134.233,134.233,0,0,1,439.6,259.5v99.378l-7.381,7.732,1.86,12.576,5.521,2.337v16.759a31.935,31.935,0,0,0-6.4-2.843,23.858,23.858,0,0,0-7.211-1.12A23.5,23.5,0,0,0,411.7,399.14c-26.462,20.235-38.464,62.764-38.464,62.764h0l-5.215,24.831a23.322,23.322,0,0,0,22.825,28.113h48.791c-4.869,23.857-1.7,56.649,0,90.4h.151L436.5,630.162h3.7l4.786-10.049,17.664,9.665h14.431s1.918-2.532-4.635-7.664a37.337,37.337,0,0,1-12.148-16.471l25.849-90.9a15.673,15.673,0,0,0-8.277-18.409l-18.5-8.9a31.613,31.613,0,0,0-4.8-2.308h0l-37.549-14.246h0c.127-.55.282-1.139.487-1.758A36.473,36.473,0,0,1,439.15,445.9l.974-.355c.341-.127.667-.248.974-.389a18.872,18.872,0,0,0,10.94-12.61,19.78,19.78,0,0,0,.487-7.79l-.75-5.473H750.488a9.528,9.528,0,0,0,9.528-9.528V242.83c46.6,1.461,87.294,34.608,110.805,74.235,33.3,56.123,37.977,115.08,25,178.867-6.33,31.112-24.831,68.568-48.893,102.665L833.1,518.709H826.36l3.345,19.349h-.385l11.744,67.857c-6.247,8.433-12.81,16.617-19.592,24.374M662.114,465.721v164.46h13.54V465.307h-13.54v.39m-137.788,0v164.46h13.545V465.307H524.35v.39M789.8,354.9l-14.056,3.063,1.436,22.27a5.088,5.088,0,0,0,6.841,4.431l13.974-5.224,2.4-12.416L789.8,354.9" transform="translate(-309 -131.142)" fill="#656565"/>
    <path id="Path_9371" data-name="Path 9371" d="M754.352,902.044h-34.6a2.624,2.624,0,0,1-2.629-2.624v-9.45a2.629,2.629,0,0,1,2.629-2.629h34.608a2.624,2.624,0,0,1,2.624,2.624v9.426a2.644,2.644,0,0,1-2.629,2.654Z" transform="translate(-518.412 -461.849)" fill="#e0e0ff"/>
    <path id="Path_9372" data-name="Path 9372" d="M847.342,902.044h-34.6a2.624,2.624,0,0,1-2.629-2.624v-9.45a2.629,2.629,0,0,1,2.629-2.629h34.6a2.629,2.629,0,0,1,2.629,2.624v9.426A2.644,2.644,0,0,1,847.342,902.044Z" transform="translate(-566.126 -461.849)" fill="#e0e0ff"/>
    <path id="Path_9373" data-name="Path 9373" d="M799.657,860.714h-34.6a2.624,2.624,0,0,1-2.624-2.624v-9.455a2.624,2.624,0,0,1,2.624-2.624h34.608a2.624,2.624,0,0,1,2.624,2.624v9.426A2.644,2.644,0,0,1,799.657,860.714Z" transform="translate(-541.661 -440.642)" fill="#e0e0ff"/>
    <path id="Path_9374" data-name="Path 9374" d="M897.27,166.074a9.1,9.1,0,0,0-9.051-9.144H587.066A9.046,9.046,0,0,0,578,165.976v7.6H897.251v-7.357" transform="translate(-447.027 -87.065)" fill="#fff"/>
    <path id="Path_9375" data-name="Path 9375" d="M578.014,172.772H896.49v-6.909a8.569,8.569,0,0,0-8.569-8.569H586.583a8.569,8.569,0,0,0-8.569,8.569v6.909m319.25.774H577.24v-7.888a9.528,9.528,0,0,1,9.528-9.528H887.756a9.528,9.528,0,0,1,9.528,9.528v7.888" transform="translate(-446.637 -86.655)" fill="#5254cf"/>
    <path id="Path_9376" data-name="Path 9376" d="M578,191.11V383.284a9.046,9.046,0,0,0,9.046,9.051H888.2a9.051,9.051,0,0,0,9.051-9.051V191.11H578" transform="translate(-447.027 -104.603)" fill="#fff"/>
    <path id="Path_9377" data-name="Path 9377" d="M578.014,191.084V382.576a8.574,8.574,0,0,0,8.574,8.574H887.921a8.574,8.574,0,0,0,8.569-8.574V191.084H578.014M887.59,392.309H586.768a9.528,9.528,0,0,1-9.528-9.528V190.31H897.265V382.79a9.528,9.528,0,0,1-9.509,9.519" transform="translate(-446.637 -104.193)" fill="#5254cf"/>
    <path id="Path_9378" data-name="Path 9378" d="M609.876,170.8a3.223,3.223,0,1,1-3.223-3.223,3.223,3.223,0,0,1,3.223,3.223Z" transform="translate(-460.076 -92.53)" fill="#fff"/>
    <path id="Path_9379" data-name="Path 9379" d="M606.14,167.549a2.741,2.741,0,1,0,2.741,2.741A2.741,2.741,0,0,0,606.14,167.549Zm0,6.451a3.71,3.71,0,1,1,3.71-3.71,3.71,3.71,0,0,1-3.71,3.71Z" transform="translate(-459.563 -92.017)" fill="#5254cf"/>
    <path id="Path_9380" data-name="Path 9380" d="M635.706,170.8a3.223,3.223,0,1,1-.946-2.281A3.228,3.228,0,0,1,635.706,170.8Z" transform="translate(-473.324 -92.53)" fill="#fff"/>
    <path id="Path_9381" data-name="Path 9381" d="M631.97,167.549a2.741,2.741,0,1,0,2.741,2.741A2.741,2.741,0,0,0,631.97,167.549Zm0,6.451a3.71,3.71,0,1,1,3.71-3.71A3.71,3.71,0,0,1,631.97,174Z" transform="translate(-472.816 -92.017)" fill="#5254cf"/>
    <path id="Path_9382" data-name="Path 9382" d="M661.536,170.8a3.223,3.223,0,1,1-.946-2.281A3.228,3.228,0,0,1,661.536,170.8Z" transform="translate(-486.578 -92.53)" fill="#fff"/>
    <path id="Path_9383" data-name="Path 9383" d="M657.8,167.549a2.741,2.741,0,1,0,2.741,2.741A2.741,2.741,0,0,0,657.8,167.549Zm0,6.451a3.71,3.71,0,1,1,3.71-3.71A3.71,3.71,0,0,1,657.8,174Z" transform="translate(-486.07 -92.017)" fill="#5254cf"/>
    <path id="Path_9384" data-name="Path 9384" d="M899.083,385.7H819.8c.316-24.831-1.578-45.387-6.583-58.339h0l-.2-4.343a12.659,12.659,0,0,0,4.835,1.67,17.178,17.178,0,0,0,2.347.17,13.078,13.078,0,0,0,7.483-2.24h0c11.851-7.98,14.529-36.468,18.584-70.52a33.425,33.425,0,0,1,4.333-12.917c.93-1.6,1.948-3.408,2.921-5.176h45.563V385.7m-165.239,0H646.39V234H744.4c.078.487.166.925.268,1.388l16.637-.7L739.77,262.629l2.2,21.077h0l-4.051-5.19H725.314l-5.356,29.043a8.691,8.691,0,0,1-6.568,6.894,8.363,8.363,0,0,1-1.947.224,8.764,8.764,0,0,1-4.684-1.363c-2.746-1.762-6.549-4.075-7.712-4.153H698.9c-1.738,0-1.85,1.894-1.85,1.894a4.825,4.825,0,0,0-2.673-1.461c-.682,0-1.319.414-1.689,1.69a5.1,5.1,0,0,0-2.722-1.076,2.523,2.523,0,0,0-2.352,1.758,5.359,5.359,0,0,0-1.5-.253c-1.071,0-2.172.487-1.276,2.921,1.524,4.119,14.451,17.64,32.251,17.64a54.526,54.526,0,0,0,9.163-.7,19.357,19.357,0,0,0,4.1-1.159h0a20.294,20.294,0,0,0,9.163-7.3,58.17,58.17,0,0,1-1.286,7.737h0a57.125,57.125,0,0,0-3.028,11.851c-1.8,11.174-2.069,26.053-1.183,43.041m76.928-112.1-.735-16.379L789.432,234h36.215c-2.2,11.043-5.4,38.031-5.4,38.031l-9.324,1.607" transform="translate(-482.119 -126.611)" fill="#f3f3ff"/>
    <path id="Path_9385" data-name="Path 9385" d="M910.394,508.033H828.076c-3.048-28.493-3.832-54.044-1.1-71.012a57.14,57.14,0,0,1,3.048-11.851l34.739-7.07,40.411,3.618c6.787,17.567,7.854,49.175,5.443,86.315" transform="translate(-573.922 -221.075)" fill="#ffb147"/>
    <path id="Path_9386" data-name="Path 9386" d="M602.419,453.764H601.26V420.87h1.159v32.894" transform="translate(-308.515 -215.953)" fill="#1b1b43"/>
    <path id="Path_9387" data-name="Path 9387" d="M846.922,442.7a113.844,113.844,0,0,1-18.5-1.519,57.452,57.452,0,0,1,3.024-11.836h0s13.078,4.552,32.319,4.552q2.2,0,4.5-.083v6.88a114.86,114.86,0,0,1-21.345,2.016m22.5-2.269v-6.675a115.938,115.938,0,0,0,37.339-7.887c-.258.185-14.548,10.1-37.339,14.607" transform="translate(-575.522 -225.067)" fill="#d19346"/>
    <path id="Path_9388" data-name="Path 9388" d="M910.26,449.13v-7.011l1.159-.039v6.734l-1,.185" transform="translate(-617.515 -233.38)" fill="#1b1b43"/>
    <path id="Path_9389" data-name="Path 9389" d="M859.516,159.587s-15.668,19.962-11.895,36.955l55.018-2.3s.487-33.245-11.554-36.073l-31.594,1.417" transform="translate(-585.073 -87.701)" fill="#1b1b43"/>
    <path id="Path_9390" data-name="Path 9390" d="M956.916,194.092h-.974c0-21.778-11.33-31.784-11.442-31.881l.633-.73c.117.1,11.773,10.4,11.773,32.621Z" transform="translate(-635.084 -89.4)" fill="#1b1b43"/>
    <path id="Path_9391" data-name="Path 9391" d="M783.309,358.868A20.615,20.615,0,0,1,770.47,377.3a19.36,19.36,0,0,1-4.1,1.159,54.532,54.532,0,0,1-9.163.7c-17.8,0-30.727-13.521-32.251-17.64s2.78-2.663,2.78-2.663c1.573-3.505,5.073-.682,5.073-.682,1.056-3.657,4.382-.239,4.382-.239s.117-2.006,2-1.889c1.164.078,4.966,2.391,7.712,4.153a8.764,8.764,0,0,0,4.684,1.363,8.369,8.369,0,0,0,1.947-.224,8.691,8.691,0,0,0,6.6-6.9l5.356-29.043h12.586l4.046,5.185c1.582,6.4,1.49,19.475,1.188,28.278" transform="translate(-522.265 -173.504)" fill="#ffbc96"/>
    <path id="Path_9392" data-name="Path 9392" d="M818.046,418.888a9.159,9.159,0,0,1-.7-3.5,9.032,9.032,0,0,1,9.037-9.022,9.382,9.382,0,0,1,1.344.1c-.161,1.8-.336,3.515-.521,5.1a20.312,20.312,0,0,1-9.163,7.3h0" transform="translate(-569.841 -215.057)" fill="#ff957b"/>
    <path id="Path_9393" data-name="Path 9393" d="M846.314,211.2l-25.941,5.288a24.437,24.437,0,0,0-19.027,18.886l-7.055,33.352,23.575,3.3Z" transform="translate(-558.009 -114.912)" fill="#8ab4f8"/>
    <path id="Path_9394" data-name="Path 9394" d="M919.684,211.2l25.946,5.288a24.437,24.437,0,0,1,19.028,18.886l3.2,23.687-22.884,4.007L919.66,211.2Z" transform="translate(-622.338 -114.912)" fill="#8ab4f8"/>
    <path id="Path_9395" data-name="Path 9395" d="M838.754,271.817S837.5,309.838,835,318.967c0,0,35.212,12.26,75.131-3.457L906.986,245.4,876.244,211H867.2l-30.649,39.764,2.2,21.063" transform="translate(-578.898 -114.809)" fill="#8ab4f8"/>
    <path id="Path_9396" data-name="Path 9396" d="M1023.177,211.339c.141,2.488-3.949,10.015-7.094,15.4a33.425,33.425,0,0,0-4.333,12.917c-4.051,34.053-6.734,62.545-18.584,70.525a13.585,13.585,0,0,1-9.83,2.069,12.513,12.513,0,0,1-6.782-3.111c-12.479-11.106-6.422-46.877-6.422-46.877l15.478-2.673s3.462-29.213,5.662-39.3,5.658-4.713,5.658-4.713c1.256-3.14,4.713-1.256,4.713-1.256,2.512-4.08,5.658-.974,5.658-.974,1.889-3.759,7.235,2.839,7.235,2.839,3.457-1.578,8.331-10.1,8.642-4.869" transform="translate(-647.482 -114.111)" fill="#ffbc96"/>
    <path id="Path_9397" data-name="Path 9397" d="M533.684,289.064l-.964-.044,1.524-31.91.964.044-1.524,31.91Z" transform="translate(-273.346 -131.925)" fill="#1b1b43"/>
    <path id="Path_9398" data-name="Path 9398" d="M659.692,278.593l-1.972-25.42.964-.073,1.889,24.359,14.962-2.581.161.954-16,2.761Z" transform="translate(-337.485 -129.868)" fill="#1b1b43"/>
    <path id="Path_9399" data-name="Path 9399" d="M687.489,296.77l-.959-.127,7.1-53.533.959.127-7.1,53.533Z" transform="translate(-352.268 -124.742)" fill="#d28572"/>
    <path id="Path_9400" data-name="Path 9400" d="M994,412a17.158,17.158,0,0,1-2.347-.17,12.509,12.509,0,0,1-6.782-3.111,9.032,9.032,0,0,1,16.612,1.037A13.078,13.078,0,0,1,994,412" transform="translate(-655.798 -213.69)" fill="#ff957b"/>
    <path id="Path_9401" data-name="Path 9401" d="M717.636,214.205l-.9-5.789.954-.146.9,5.789-.954.146Z" transform="translate(-367.769 -106.865)" fill="#d28572"/>
    <path id="Path_9402" data-name="Path 9402" d="M728.575,211.6l-1.865-5.672.92-.3,1.86,5.667-.915.3Z" transform="translate(-372.885 -105.51)" fill="#d28572"/>
    <path id="Path_9403" data-name="Path 9403" d="M740.248,208.857l-2.108-5.911.915-.326,2.1,5.911-.906.326Z" transform="translate(-378.75 -103.966)" fill="#d28572"/>
    <path id="Path_9404" data-name="Path 9404" d="M939.973,266.121H929.914a.584.584,0,0,1-.584-.584v-2.318a.58.58,0,0,1,.584-.579h10.059a.579.579,0,0,1,.579.579v2.322A.579.579,0,0,1,939.973,266.121Z" transform="translate(-627.3 -141.306)" fill="#cbcbff"/>
    <path id="Path_9405" data-name="Path 9405" d="M896.88,242.2a18.448,18.448,0,0,1-11.31-4.114l.652-.716c.394.355,9.845,8.647,21.311-.029l.579.774A18.367,18.367,0,0,1,896.88,242.2Z" transform="translate(-604.846 -128.325)" fill="#1b1b43"/>
    <path id="Path_9406" data-name="Path 9406" d="M755.616,396.909a17.978,17.978,0,0,1-6.476-4.966l.726-.643a17.074,17.074,0,0,0,6.1,4.708Z" transform="translate(-534.842 -207.324)" fill="#d28572"/>
    <path id="Path_9407" data-name="Path 9407" d="M745.446,398.644a16.515,16.515,0,0,1-5.356-6.217l.847-.487a15.668,15.668,0,0,0,5.034,5.872l-.516.818Z" transform="translate(-530.198 -207.652)" fill="#d28572"/>
    <path id="Path_9408" data-name="Path 9408" d="M736.076,400.939a27.837,27.837,0,0,1-6.646-7.5l.813-.526a26.808,26.808,0,0,0,6.412,7.25Z" transform="translate(-524.728 -208.15)" fill="#d28572"/>
    <path id="Path_9409" data-name="Path 9409" d="M898.664,206.394h0a9.84,9.84,0,0,1-9.864-9.84V180h19.733v16.554a9.845,9.845,0,0,1-9.869,9.82Z" transform="translate(-606.504 -98.903)" fill="#ffbc96"/>
    <path id="Path_9410" data-name="Path 9410" d="M888.56,183.595c6.071,10.064,12.591,10.9,19.67-.385Z" transform="translate(-606.38 -100.55)" fill="#d28572"/>
    <path id="Path_9411" data-name="Path 9411" d="M894.4,153.809a13.589,13.589,0,0,1-13.545-13.633V117.19h27.09v22.991A13.589,13.589,0,0,1,894.4,153.813" transform="translate(-602.424 -66.674)" fill="#ffbc96"/>
    <path id="Path_9412" data-name="Path 9412" d="M906.172,156.739c-1.6-1.5-2.2-2.692-1.831-3.632a2.477,2.477,0,0,1,2.055-1.285V148.9h.774v3.812h-.224c-.487,0-1.509.2-1.7.706-.088.239-.117.974,1.592,2.585Z" transform="translate(-614.425 -82.945)" fill="#1b1b43"/>
    <path id="Path_9413" data-name="Path 9413" d="M908.777,169.329a9.585,9.585,0,0,0,.886-1.709c-3.3.273-10.293.273-10.293.273a6.3,6.3,0,0,0,.784,1.724A52.781,52.781,0,0,0,908.777,169.329Z" transform="translate(-611.927 -92.55)" fill="#fff"/>
    <path id="Path_9414" data-name="Path 9414" d="M901,171.407a5.02,5.02,0,0,0,4.2,2.434,5.274,5.274,0,0,0,4.421-2.731A52.784,52.784,0,0,1,901,171.4Z" transform="translate(-612.763 -94.341)" fill="#1b1b43"/>
    <path id="Path_9415" data-name="Path 9415" d="M902.111,121.3c0,.521.487-10.887-17.294-13.3,0,0-10.035,5.74-8.886,14.027l-5.453-1.032c-2.1-5.74-1.378-21.1,10.955-20.011,0,0,2.658-3.8,7.016-3.9,22.124-.36,18.633,24.179,18.1,24.885l-4.44-.7Z" transform="translate(-596.634 -56.356)" fill="#1b1b43"/>
    <path id="Path_9416" data-name="Path 9416" d="M940.462,149.738c-1.042,3.155-4.012,5.015-6.631,4.153s-3.9-4.124-2.853-7.3,4.007-5.02,6.627-4.153,3.9,4.124,2.858,7.3" transform="translate(-627.959 -79.517)" fill="#ffbc96"/>
    <path id="Path_9417" data-name="Path 9417" d="M938.634,153.618l-.974-.122c.17-1.334,1.13-3.9,3.559-4.036l.058.974c-2.245.131-2.653,3.16-2.653,3.194Z" transform="translate(-631.574 -83.232)" fill="#1b1b43"/>
    <path id="Path_9418" data-name="Path 9418" d="M866.077,149.738c1.042,3.155,4.007,5.015,6.626,4.153s3.9-4.124,2.858-7.3-4.012-5.02-6.631-4.153-3.9,4.124-2.853,7.3" transform="translate(-594.658 -79.517)" fill="#ffbc96"/>
    <path id="Path_9419" data-name="Path 9419" d="M874.844,153.608c0-.127-.419-3.063-2.653-3.194l.058-.974c2.434.141,3.408,2.7,3.554,4.036l-.974.122Z" transform="translate(-597.981 -83.222)" fill="#1b1b43"/>
    <path id="Path_9420" data-name="Path 9420" d="M920.1,141.338a1.461,1.461,0,1,1-1.461-1.578A1.524,1.524,0,0,1,920.1,141.338Z" transform="translate(-621.065 -78.255)" fill="#1b1b43"/>
    <path id="Path_9421" data-name="Path 9421" d="M920.059,133.442l-4.528-.545a.789.789,0,0,1-.687-.872l.029-.214a.784.784,0,0,1,.867-.687l4.528.545a.784.784,0,0,1,.687.852v.214a.789.789,0,0,1-.872.687Z" transform="translate(-619.865 -73.821)" fill="#1b1b43"/>
    <path id="Path_9422" data-name="Path 9422" d="M894.119,141.338a1.461,1.461,0,1,0,1.461-1.578,1.524,1.524,0,0,0-1.461,1.578Z" transform="translate(-609.232 -78.255)" fill="#1b1b43"/>
    <path id="Path_9423" data-name="Path 9423" d="M890.785,133.442l4.528-.545a.789.789,0,0,0,.687-.871l-.029-.214a.784.784,0,0,0-.871-.687l-4.528.545a.789.789,0,0,0-.686.872l.029.214a.784.784,0,0,0,.872.687Z" transform="translate(-607.057 -73.821)" fill="#1b1b43"/>
    <path id="Path_9424" data-name="Path 9424" d="M922.456,155.629a3.165,3.165,0,1,1,2.59-4.986,6.718,6.718,0,0,0,0,3.622,3.155,3.155,0,0,1-2.6,1.363" transform="translate(-622.15 -83.15)" fill="#ff957b"/>
    <path id="Path_9425" data-name="Path 9425" d="M930.878,155.682a6.718,6.718,0,0,1,0-3.622,3.155,3.155,0,0,1,0,3.622" transform="translate(-627.966 -84.566)" fill="#ff957b"/>
    <path id="Path_9426" data-name="Path 9426" d="M888.76,155.629a3.15,3.15,0,0,1-2.6-1.363,6.669,6.669,0,0,0,0-3.622,3.165,3.165,0,1,1,2.59,4.986" transform="translate(-605.149 -83.15)" fill="#ff957b"/>
    <path id="Path_9427" data-name="Path 9427" d="M885.565,155.683a3.141,3.141,0,0,1-.565-1.8,3.174,3.174,0,0,1,.574-1.821,6.669,6.669,0,0,1,0,3.622" transform="translate(-604.554 -84.567)" fill="#ff957b"/>
    <path id="Path_9428" data-name="Path 9428" d="M620.837,312.192H526.479a4.869,4.869,0,0,1-4.869-4.869V268.309a4.869,4.869,0,0,1,4.869-4.869h94.354a4.869,4.869,0,0,1,4.869,4.869v39a4.869,4.869,0,0,1-4.869,4.869Z" transform="translate(-418.093 -141.717)" fill="#fff"/>
    <path id="Path_9429" data-name="Path 9429" d="M525.575,263.394a4.382,4.382,0,0,0-4.406,4.382v38.8a4.406,4.406,0,0,0,4.406,4.406h94.509a4.406,4.406,0,0,0,4.406-4.406V267.8a4.382,4.382,0,0,0-4.406-4.382Zm94.349,48.757H525.356A5.356,5.356,0,0,1,520,306.795V267.956a5.356,5.356,0,0,1,5.356-5.356h94.573a5.356,5.356,0,0,1,5.356,5.356v38.858a5.356,5.356,0,0,1-5.356,5.356Z" transform="translate(-417.267 -141.286)" fill="#5254cf"/>
    <path id="Path_9430" data-name="Path 9430" d="M317.326,275.794H236.45V274.63h80.876v1.164Z" transform="translate(-121.325 -140.915)" fill="#e0e0ff"/>
    <path id="Path_9431" data-name="Path 9431" d="M317.326,299.639H236.45V298.48h80.876v1.159Z" transform="translate(-121.325 -153.153)" fill="#e0e0ff"/>
    <path id="Path_9432" data-name="Path 9432" d="M317.326,324.279H236.45V323.12h80.876v1.159Z" transform="translate(-121.325 -165.796)" fill="#e0e0ff"/>
    <path id="Path_9433" data-name="Path 9433" d="M237.945,294.041l-.755-.6,5.774-7.284,9.937,3.394,8.559-9.29,8.7,7.011,10.22-11.437,9.265,10.692,8.277-21.428,8.589,13.5,9.986-14.4.794.55-10.814,15.595-8.34-13.107-8.17,21.141-9.6-11.077-10.1,11.3-8.715-7.021-8.37,9.09L243.3,287.3l-5.351,6.743Z" transform="translate(-121.705 -135.563)" fill="#5254cf"/>
    <path id="Path_9434" data-name="Path 9434" d="M1044.139,52.734,1039.475,15a38.011,38.011,0,1,0,42.675,37.714c0-1.11-.058-2.206-.151-3.3Z" transform="translate(-666.705 -14.239)" fill="#fff"/>
    <path id="Path_9435" data-name="Path 9435" d="M1038.55,15.011a37.524,37.524,0,1,0,42.612,37.174c0-.876-.034-1.787-.107-2.77l-37.841,3.3-4.664-37.7Zm5.088,75.672a38.493,38.493,0,0,1-4.728-76.694l.487-.058,4.664,37.734,37.88-3.3.044.487c.1,1.2.151,2.288.151,3.335a38.542,38.542,0,0,1-38.493,38.5Z" transform="translate(-666.204 -13.69)" fill="#5254cf"/>
    <path id="Path_9436" data-name="Path 9436" d="M1124.915,53.032l37.86-3.3a37.774,37.774,0,0,0-7.152-19.076l-30.722,22.4Z" transform="translate(-727.65 -22.274)" fill="#aac8f8"/>
    <path id="Path_9437" data-name="Path 9437" d="M1110.007,30.054a37.855,37.855,0,0,0-35.387-15.366l4.664,37.714,30.722-22.367Z" transform="translate(-701.85 -13.927)" fill="#e0e0ff"/>
    <path id="Path_9438" data-name="Path 9438" d="M1074.586,14.644l4.5,36.419,29.671-21.6a37.671,37.671,0,0,0-30.046-15.054,36.589,36.589,0,0,0-4.129.239Zm3.749,38.167L1073.51,13.8l.487-.058a38.4,38.4,0,0,1,35.83,15.556l.287.394-31.779,23.122Z" transform="translate(-701.281 -13.44)" fill="#5254cf"/>
    <path id="Path_9439" data-name="Path 9439" d="M1200.918,403.318h-69.255a5.994,5.994,0,0,1-6.013-5.989V321.093a6,6,0,0,1,6.013-6h69.259a6,6,0,0,1,6,6V397.33a6,6,0,0,1-5.994,6Z" transform="translate(-728.035 -168.219)" fill="#fff"/>
    <path id="Path_9440" data-name="Path 9440" d="M1130.755,315.459a5.536,5.536,0,0,0-5.536,5.512v76a5.536,5.536,0,0,0,5.541,5.541h69.41a5.546,5.546,0,0,0,5.541-5.541V321a5.541,5.541,0,0,0-5.541-5.541Zm69.255,87.844h-69.484a6.466,6.466,0,0,1-6.466-6.466V320.766a6.461,6.461,0,0,1,6.466-6.466h69.488a6.466,6.466,0,0,1,6.471,6.466v76.076a6.476,6.476,0,0,1-6.475,6.461Z" transform="translate(-727.219 -167.814)" fill="#5254cf"/>
    <path id="Path_9441" data-name="Path 9441" d="M898.006,329.044H834.93V327.88h63.076v1.164Z" transform="translate(-428.414 -168.238)" fill="#e0e0ff"/>
    <path id="Path_9442" data-name="Path 9442" d="M898.006,360.839H834.93V359.68h63.076v1.159Z" transform="translate(-428.414 -184.555)" fill="#e0e0ff"/>
    <path id="Path_9443" data-name="Path 9443" d="M898.006,392.629H834.93V391.47h63.076v1.159Z" transform="translate(-428.414 -200.867)" fill="#e0e0ff"/>
    <path id="Path_9444" data-name="Path 9444" d="M898.006,424.419H834.93V423.26h63.076v1.159Z" transform="translate(-428.414 -217.179)" fill="#e0e0ff"/>
    <path id="Path_9445" data-name="Path 9445" d="M898.006,456.209H834.93V455.05h63.076v1.159Z" transform="translate(-428.414 -233.491)" fill="#e0e0ff"/>
    <path id="Path_9446" data-name="Path 9446" d="M840.344,412.979H834.93V370.8h5.414v42.179Z" transform="translate(-428.414 -190.261)" fill="#cbcbff"/>
    <path id="Path_9447" data-name="Path 9447" d="M864.189,428.906H858.77V402.59h5.419v26.316Z" transform="translate(-440.647 -206.573)" fill="#e0e0ff"/>
    <path id="Path_9448" data-name="Path 9448" d="M888.029,419.1H882.61V382.72h5.419V419.1Z" transform="translate(-452.88 -196.378)" fill="#cbcbff"/>
    <path id="Path_9449" data-name="Path 9449" d="M912.669,411.778H907.25V369.21h5.419v42.568Z" transform="translate(-465.523 -189.445)" fill="#e0e0ff"/>
    <path id="Path_9450" data-name="Path 9450" d="M936.514,404.01H931.1V353.32h5.414v50.69Z" transform="translate(-477.761 -181.292)" fill="#cbcbff"/>
    <path id="Path_9451" data-name="Path 9451" d="M960.359,395.035H954.94V335.83h5.419v59.205Z" transform="translate(-489.993 -172.318)" fill="#e0e0ff"/>
    <path id="Path_9452" data-name="Path 9452" d="M749.286,25.79H702.058a5.633,5.633,0,0,0-5.638,5.638v19.3a5.638,5.638,0,0,0,5.638,5.638h32.363l12.3,10.673V56.362h2.493a5.638,5.638,0,0,0,5.653-5.638V31.443a5.614,5.614,0,0,0-5.584-5.653Z" transform="translate(-507.79 -19.775)" fill="#6e6e6e"/>
    <path id="Path_9453" data-name="Path 9453" d="M701.156,25.769a5.132,5.132,0,0,0-5.127,5.122V50.05a5.132,5.132,0,0,0,5.132,5.137h32.621l11.787,10.04V55.187h2.994a5.132,5.132,0,0,0,5.132-5.132V30.9a5.132,5.132,0,0,0-5.132-5.132Zm45.183,41.755-13-11.2H701.014a6.144,6.144,0,0,1-6.144-6.144V31.144A6.149,6.149,0,0,1,701.014,25H748.32a6.149,6.149,0,0,1,6.144,6.149V50.2a6.145,6.145,0,0,1-6.144,6.144h-1.982v11.2Z" transform="translate(-506.995 -19.37)" fill="#5254cf"/>
    <path id="Path_9454" data-name="Path 9454" d="M439.689,29.409H401.77V28.25h37.919v1.159Z" transform="translate(-206.154 -14.494)" fill="#9192ff"/>
    <path id="Path_9455" data-name="Path 9455" d="M444.723,42.919H401.77V41.76h42.953v1.159Z" transform="translate(-206.154 -21.426)" fill="#9192ff"/>
    <path id="Path_9456" data-name="Path 9456" d="M431.952,56.434H401.77V55.27h30.182v1.164Z" transform="translate(-206.154 -28.358)" fill="#9192ff"/>
    <path id="Path_9457" data-name="Path 9457" d="M455.845,852.385H442.3V687.92h13.545V852.385" transform="translate(-226.95 -352.98)" fill="#b0b0d2"/>
    <path id="Path_9458" data-name="Path 9458" d="M738.79,852.385H725.25V687.92h13.54V852.385" transform="translate(-372.136 -352.98)" fill="#b0b0d2"/>
    <path id="Path_9459" data-name="Path 9459" d="M455.845,715.48h0V686.72H442.3v-.39h13.545v29.023" transform="translate(-226.95 -352.164)" fill="#b2b2c6"/>
    <path id="Path_9460" data-name="Path 9460" d="M455.845,715.764H442.3V687.13h13.545v28.634" transform="translate(-226.95 -352.575)" fill="#8383a7"/>
    <path id="Path_9461" data-name="Path 9461" d="M738.79,715.48h0V686.72H725.25v-.39h13.54v29.023" transform="translate(-372.136 -352.164)" fill="#b2b2c6"/>
    <path id="Path_9462" data-name="Path 9462" d="M738.79,715.764H725.25V687.13h13.54v28.634" transform="translate(-372.136 -352.575)" fill="#8383a7"/>
    <path id="Path_9463" data-name="Path 9463" d="M589.887,689.545H285.73V676H589.887v13.545Z" transform="translate(-146.612 -346.864)" fill="#b0b0d2"/>
    <path id="Path_9464" data-name="Path 9464" d="M799.406,671.1H764.19V666.46h35.216V671.1Z" transform="translate(-392.117 -341.969)" fill="#1b1b43"/>
    <path id="Path_9465" data-name="Path 9465" d="M1056.513,628.235h-5.21l-20.761-54.775a2.437,2.437,0,0,1,4.557-1.728l21.423,56.5Z" transform="translate(-679.152 -299.099)" fill="#1b1b43"/>
    <path id="Path_9466" data-name="Path 9466" d="M375.54,671.1h35.211V666.46H375.54V671.1Z" transform="translate(-192.695 -341.969)" fill="#1b1b43"/>
    <path id="Path_9467" data-name="Path 9467" d="M746,628.235h5.215l20.761-54.775a2.437,2.437,0,0,0-4.557-1.728Z" transform="translate(-533.231 -299.099)" fill="#1b1b43"/>
    <path id="Path_9468" data-name="Path 9468" d="M233.16,515.588l19.217,3.087.209-10.531.2-10.478.175-8.959-5.331-2.517-9.129,10.7-5.346,18.7Z" transform="translate(-119.637 -249.47)" fill="#d28572"/>
    <path id="Path_9469" data-name="Path 9469" d="M565.94,522.92a51.58,51.58,0,0,0,7.849,10.415l.2-10.8Z" transform="translate(-440.839 -274.66)" fill="#925d4f"/>
    <path id="Path_9470" data-name="Path 9470" d="M607.177,496.335c.224.127,6.086,9.1,3.452,9.913a17.859,17.859,0,0,1-5.959.487l2.507-10.415Z" transform="translate(-460.712 -261.211)" fill="#925d4f"/>
    <path id="Path_9471" data-name="Path 9471" d="M587.262,476.791,584.828,499.1a5.1,5.1,0,0,1-7.055,4.139L563.965,497.4,562.1,484.82l11.2-11.71,13.983,3.691" transform="translate(-438.869 -249.302)" fill="#d28572"/>
    <path id="Path_9472" data-name="Path 9472" d="M229.592,521.42l-6.612,14.67,25.634,4.031,1.777-11.447-20.8-7.255Z" transform="translate(-114.414 -267.547)" fill="#fed3d1"/>
    <path id="Path_9473" data-name="Path 9473" d="M542.867,474.56s11.335-1.913,16.379-7.99c0,0,1.87-11.749-15.415-13.3C525.081,451.579,507.5,478.1,507.5,478.1l22.883,20.006,12.459-23.555Z" transform="translate(-410.853 -239.081)" fill="#1b1b43"/>
    <path id="Path_9474" data-name="Path 9474" d="M570.733,495.811c1.29,2.507,3.9,3.734,5.818,2.751s2.434-3.827,1.149-6.329-3.9-3.739-5.818-2.751S569.448,493.3,570.733,495.811Z" transform="translate(-442.935 -257.527)" fill="#d28572"/>
    <path id="Path_9475" data-name="Path 9475" d="M577.53,498.857a4.552,4.552,0,0,0-1.3-2.619,1.31,1.31,0,0,0-1.086-.185l-.209-.945a2.264,2.264,0,0,1,1.845.336c1.344.925,1.685,3.174,1.7,3.272l-.974.141Z" transform="translate(-445.457 -260.554)" fill="#1b1b43"/>
    <path id="Path_9476" data-name="Path 9476" d="M593.049,508.368a3.749,3.749,0,1,1,3.749-3.749,3.749,3.749,0,0,1-3.749,3.749" transform="translate(-452.825 -263.546)" fill="#cc7162"/>
    <path id="Path_9477" data-name="Path 9477" d="M519.265,592.277a18.887,18.887,0,0,1-10.95,12.625c-.326.136-.657.263-.974.385l-.974.36A36.516,36.516,0,0,0,484.7,628.886c-.185.618-.336,1.212-.463,1.762a75.308,75.308,0,0,1-43.294-8.954s12-42.554,38.464-62.808a23.628,23.628,0,0,1,21.515-3.71,31.648,31.648,0,0,1,16.033,11.544l.487.657,2.342,17.08a19.712,19.712,0,0,1-.487,7.79" transform="translate(-376.7 -290.835)" fill="#fe5b52"/>
    <path id="Path_9478" data-name="Path 9478" d="M581.793,624.227a18.887,18.887,0,0,1-10.95,12.625c-.326.136-.657.263-.974.385l-.974.36c-3.35-8.214-6.1-21.277-6.1-21.277l16.126,2.142,2.882,5.765Z" transform="translate(-439.228 -322.785)" fill="#be443d"/>
    <path id="Path_9479" data-name="Path 9479" d="M673.39,580.285s14.164-15.142,18.619-14.027c1.948.487-3.866,6.529-3.866,6.529s5.536.107,14.407-4.474a1.865,1.865,0,0,1,2.318,2.829c-1.879,2.327-7.479,8.589-15.274,11.32l-3.311,4.275-8.277,3.949-4.591-10.4Z" transform="translate(-495.973 -297.067)" fill="#d28572"/>
    <path id="Path_9480" data-name="Path 9480" d="M629.547,594.557l-18.5,33.03a12.975,12.975,0,0,1-21.145,2.137l-27.081-31.3,17.129-16.983,18.8,25.771,17.9-19.105,12.893,6.451Z" transform="translate(-439.238 -304.888)" fill="#fe5b52"/>
    <path id="Path_9481" data-name="Path 9481" d="M612.64,607.2c-10.867-16.963-25.318-37.047-33.04-43.669l.628-.735c8.934,7.639,25.089,31.161,33.23,43.883Z" transform="translate(-447.848 -295.323)" fill="#1b1b43"/>
    <path id="Path_9482" data-name="Path 9482" d="M599.753,648.716a12.848,12.848,0,0,1-6.106-1.675c-5.925-3.2-30.6-33.444-31.648-34.734l.75-.609c.258.317,25.6,31.385,31.355,34.5,6.553,3.54,11,.321,13.063-1.909,3.3-3.559,21.355-36.03,21.535-36.385l.847.487c-.745,1.344-18.3,32.928-21.671,36.575a10.934,10.934,0,0,1-8.126,3.773Z" transform="translate(-438.817 -318.465)" fill="#1b1b43"/>
    <path id="Path_9483" data-name="Path 9483" d="M559.416,959.069l-16.686,32.9,3.647.516,6.047-8.589,18.989,13.389,11.115-.049s2.259-2.235-3.52-8.238a36.569,36.569,0,0,1-10.492-25.966V962.2l-4.548-4.64-4.543,1.509Z" transform="translate(-428.93 -497.88)" fill="#1b1b43"/>
    <path id="Path_9484" data-name="Path 9484" d="M574.571,971.848l-3.681,28.064h3.681l4.786-9.538,17.664,9.149h13.988c0-.161,1.948-2.688-4.64-7.824a36.53,36.53,0,0,1-14.027-24.237l-.1-.828-5.156-3.953-12.513,9.168" transform="translate(-443.379 -500.508)" fill="#1b1b43"/>
    <path id="Path_9485" data-name="Path 9485" d="M610.919,861.38l25.892-91.047a15.682,15.682,0,0,0-8.277-18.424l-23.317-11.2L603.83,848.8l7.1,12.6" transform="translate(-460.281 -386.611)" fill="#1b1b43"/>
    <path id="Path_9486" data-name="Path 9486" d="M434.889,692.71l-5.215,24.831a23.336,23.336,0,0,0,22.835,28.132h48.81c-4.869,23.857-1.709,56.683,0,90.458l20.152.487,13.905-86.8a31.01,31.01,0,0,0-19.622-33.9l-37.573-14.256-43.294-8.954" transform="translate(-370.664 -361.982)" fill="#8ab4f8"/>
    <path id="Path_9487" data-name="Path 9487" d="M715.718,866.646l-.638-.078V866.5h.643v.131" transform="translate(-517.365 -451.156)" fill="#8889bc"/>
    <path id="Path_9488" data-name="Path 9488" d="M548.158,842.8h-.974c.424-3.287,10.541-82.142,7.732-96.812-2.951-15.4-32.621-19.846-48.6-22.236-1.422-.209-2.727-.409-3.9-.594-4-.633-6.841-2.361-8.452-5.127-3.174-5.458-.428-12.941-.312-13.258l.906.341c-.024.073-2.7,7.376.243,12.435,1.461,2.5,4.07,4.065,7.766,4.655,1.159.185,2.464.38,3.9.589,16.189,2.434,46.327,6.938,49.4,23.015,1.212,6.33.277,24.617-2.775,54.356-2.152,20.936-4.65,40.48-4.932,42.661" transform="translate(-403.129 -368.17)" fill="#9798e2"/>
    <path id="Path_9489" data-name="Path 9489" d="M127.255,796.81l-3.33,19.261-15.95,92.187h-6.7l15.95-92.187,3.33-19.261h6.68" transform="translate(-51.963 -408.853)" fill="#b0b0d2"/>
    <path id="Path_9490" data-name="Path 9490" d="M218.631,908.258h-6.68l-15.945-92.187L192.67,796.81h6.7l3.33,19.261,15.95,92.187" transform="translate(-98.861 -408.853)" fill="#b0b0d2"/>
    <path id="Path_9491" data-name="Path 9491" d="M140.928,815.359H134l3.35-19.349h6.734l-3.345,19.349" transform="translate(-68.757 -408.443)" fill="#8383a7"/>
    <path id="Path_9492" data-name="Path 9492" d="M202.727,815.359H195.95L192.6,796.01h6.734l3.35,19.349" transform="translate(-98.825 -408.443)" fill="#8383a7"/>
    <path id="Path_9493" data-name="Path 9493" d="M477.8,810.79H414.31V801.5h63.417a4.645,4.645,0,1,1,.073,9.29Z" transform="translate(-363.035 -417.803)" fill="#cbcbff"/>
    <path id="Path_9494" data-name="Path 9494" d="M391.5,737.169h-8.866l-29.953-73.427a4.153,4.153,0,1,1,7.693-3.131Z" transform="translate(-331.252 -344.183)" fill="#cbcbff"/>
    <path id="Path_9495" data-name="Path 9495" d="M1266.156,495.05c-.224.117-6.437,8.764-3.856,9.7a17.6,17.6,0,0,0,5.9.76Z" transform="translate(-797.831 -260.56)" fill="#d28572"/>
    <path id="Path_9496" data-name="Path 9496" d="M1004.538,516.459l-20.7,2.449.38-10.492.39-10.444.331-8.925,5.838-2.337,9.129,10.955,4.63,18.794Z" transform="translate(-504.822 -249.736)" fill="#ffbc96"/>
    <path id="Path_9497" data-name="Path 9497" d="M1302.618,523.436a46.962,46.962,0,0,1-9,10.288l.395-10.444Z" transform="translate(-814.222 -275.045)" fill="#d28572"/>
    <path id="Path_9498" data-name="Path 9498" d="M1267.63,476.067l1.436,22.27a5.083,5.083,0,0,0,6.841,4.431l13.974-5.224,2.4-12.416L1281.686,473l-14.056,3.063" transform="translate(-800.887 -249.245)" fill="#ffbc96"/>
    <path id="Path_9499" data-name="Path 9499" d="M1275.779,475.849s-3.408-6.661-7.011-7.678c0,0-13.759,4.484-16.788-6.071a27.424,27.424,0,0,0,14.4-4.577c6.646-4.65,13.579-2.434,18.375,1.923,0,0,15.683.774,3.321,28.439,0,0-3.111,1.032-11.023-10.02Z" transform="translate(-792.857 -239.976)" fill="#1b1b43"/>
    <path id="Path_9500" data-name="Path 9500" d="M1300.814,495.48c-1.392,2.434-4.021,3.554-5.872,2.5s-2.23-3.9-.837-6.33,4.022-3.554,5.872-2.5S1302.2,493.046,1300.814,495.48Z" transform="translate(-814.04 -257.328)" fill="#ffbc96"/>
    <path id="Path_9501" data-name="Path 9501" d="M1280.119,506a3.837,3.837,0,1,1,2.708-1.143,3.866,3.866,0,0,1-2.708,1.143" transform="translate(-805.284 -262.212)" fill="#ff957b"/>
    <path id="Path_9502" data-name="Path 9502" d="M1299.494,497.3a4.041,4.041,0,0,1,2.829-4.591l.263.93a3.114,3.114,0,0,0-2.132,3.515l-.974.146Z" transform="translate(-817.215 -259.359)" fill="#1b1b43"/>
    <path id="Path_9503" data-name="Path 9503" d="M983.84,536.549l.234-10.785,18.219-4.674,5.322,13.38-23.775,2.079Z" transform="translate(-504.822 -267.377)" fill="#cbcbff"/>
    <path id="Path_9504" data-name="Path 9504" d="M1234.6,557.37c-9.148,8.905-15.8,22.256-24.184,35.8,0,0-28.419,7.337-36.56,15.478l14.631,7.42,49.984-13.866-3.9-44.828Z" transform="translate(-752.772 -292.537)" fill="#1b1b43"/>
    <path id="Path_9505" data-name="Path 9505" d="M1097.247,964.883l-11.4,32.368-35.664-8.9s5.551-7.59,22.285-5.4l8.9-25.021Z" transform="translate(-689.31 -498.07)" fill="#1b1b43"/>
    <path id="Path_9506" data-name="Path 9506" d="M1191.364,709.38l-51.517,16.744a37.076,37.076,0,0,0-24.471,26.107l-20.756,85.818,28.059,7.255a592.757,592.757,0,0,0,29.018-87.391l39.667-48.533Z" transform="translate(-712.113 -370.535)" fill="#265aae"/>
    <path id="Path_9507" data-name="Path 9507" d="M1121.03,859.44l2.775,19.85H1098s2.347-5.765,13.448-7.045l-.643-11.953Z" transform="translate(-713.847 -447.533)" fill="#1b1b43"/>
    <path id="Path_9508" data-name="Path 9508" d="M1282.924,691.85l5.22,24.831c3.043,14.5-7.839,28.945-22.655,28.945h-46.921c2.634,24.106,5.176,55.87,3.467,89.64l-25.693.487-13.905-86.8a31.01,31.01,0,0,1,19.617-33.9l34.17-14.66,46.7-8.545Z" transform="translate(-756.971 -361.54)" fill="#8ab4f8"/>
    <path id="Path_9509" data-name="Path 9509" d="M1336.99,627.488c-4.226-40.363-10.269-78.447-40.675-76.7a7.4,7.4,0,0,0-4.776,2.191,25.264,25.264,0,0,0-7.3,19.86l4.382,55.135S1312.319,632.328,1336.99,627.488Z" transform="translate(-809.366 -289.13)" fill="#1b1b43"/>
    <path id="Path_9510" data-name="Path 9510" d="M1151.94,661.6s-17.9,3.408-20.8,13.545h25.391l4.835-3.408-9.426-10.156Z" transform="translate(-730.852 -346.009)" fill="#ffbc96"/>
    <path id="Path_9511" data-name="Path 9511" d="M1239.881,568.725l-23.214,36.029-42.807,9.192,4.591,13.545,35.893-.185c9.635-.185,17.883-5.224,23.244-13.238l19.962-28.663-17.659-16.686Z" transform="translate(-752.772 -298.361)" fill="#1b1b43"/>
    <path id="Path_9512" data-name="Path 9512" d="M1173.844,607.919l-.2-.945,42.534-9.134c1.135-3.2,2.259-6.515,3.345-9.738,4.47-13.146,8.691-25.581,13.93-32.363l.764.589c-5.137,6.656-9.334,18.988-13.774,32.086-1.12,3.291-2.279,6.7-3.447,9.981l-.088.258-.263.054L1173.83,607.9Z" transform="translate(-752.659 -291.7)" fill="#5254cf"/>
    <path id="Path_9513" data-name="Path 9513" d="M1204.738,656.946c-9.957,0-20.293-.175-21.068-.19v-.974c.351,0,34.944.594,39.189-.351l.132-.029a32.246,32.246,0,0,0,22.786-19.217l4.8-11.685.891.37-4.791,11.685a33.206,33.206,0,0,1-23.473,19.8l-.131.029c-1.982.438-10.035.565-18.346.565Z" transform="translate(-757.806 -326.982)" fill="#5254cf"/>
    <path id="Path_9514" data-name="Path 9514" d="M1081,908.258h6.841L1068.559,796.81h-6.709l19.286,111.448" transform="translate(-544.85 -408.853)" fill="#b0b0d2"/>
    <path id="Path_9515" data-name="Path 9515" d="M977.218,908.258H970.45L989.736,796.81h6.7L977.159,908.258" transform="translate(-497.952 -408.853)" fill="#b0b0d2"/>
    <path id="Path_9516" data-name="Path 9516" d="M1003.3,815.359h-.112l3.35-19.349h.01l-3.35,19.349" transform="translate(-514.751 -408.443)" fill="#b2b2c6"/>
    <path id="Path_9517" data-name="Path 9517" d="M1009.88,815.359h-6.69l3.35-19.349h6.724l-3.35,19.349" transform="translate(-514.751 -408.443)" fill="#8383a7"/>
    <path id="Path_9518" data-name="Path 9518" d="M1065.1,815.359h.034l-3.345-19.349h.005l3.35,19.349" transform="translate(-544.82 -408.443)" fill="#b2b2c6"/>
    <path id="Path_9519" data-name="Path 9519" d="M1071.678,815.359h-6.549l-3.35-19.349h6.729l3.345,19.349" transform="translate(-544.815 -408.443)" fill="#8383a7"/>
    <path id="Path_9520" data-name="Path 9520" d="M1284.468,810.79h63.49V801.5h-63.407a4.645,4.645,0,1,0-.083,9.29Z" transform="translate(-807.164 -417.803)" fill="#cbcbff"/>
    <path id="Path_9521" data-name="Path 9521" d="M1401.76,737.169h8.881l29.953-73.427a4.153,4.153,0,1,0-7.693-3.131l-31.131,76.558Z" transform="translate(-869.711 -344.183)" fill="#cbcbff"/>
    <path id="Path_9522" data-name="Path 9522" d="M600.383,886.484H192.67v-.764H600.383v.764Z" transform="translate(-98.861 -454.475)" fill="#1b1b43"/>
  </g>
</svg>
